<svg xmlns="http://www.w3.org/2000/svg" width="576" height="396" viewBox="0 0 576 396"><rect width="576" height="396" fill="#183e56"/><g stroke-linejoin="round"><polygon points="0.0,0.0 36.7,0.0 36.6,2.8 31.3,8.7 0.0,12.7" fill="#1f4e6b" stroke="#1f4e6b" stroke-width="0.5"/><polygon points="23.5,33.8 0.0,20.6 0.0,12.7 31.3,8.7" fill="#1f4e6b" stroke="#1f4e6b" stroke-width="0.5"/><polygon points="36.7,0.0 76.0,0.0 75.8,3.5 68.6,15.1 51.3,17.6 36.6,2.8" fill="#1f4e6b" stroke="#1f4e6b" stroke-width="0.5"/><polygon points="74.6,29.5 68.6,15.1 75.8,3.5 102.7,24.4" fill="#1f4e6b" stroke="#1f4e6b" stroke-width="0.5"/><polygon points="76.0,0.0 104.5,0.0 104.1,18.9 98.3,21.0 75.8,3.5" fill="#1f4e6b" stroke="#1f4e6b" stroke-width="0.5"/><polygon points="104.5,0.0 130.5,0.0 130.5,13.4 106.8,20.0 104.1,18.9" fill="#1f4e6b" stroke="#1f4e6b" stroke-width="0.5"/><polygon points="130.5,0.0 159.1,0.0 158.4,13.4 152.8,18.5 130.5,14.3" fill="#3d7ea6" stroke="#3d7ea6" stroke-width="0.5"/><polygon points="159.1,0.0 183.0,0.0 184.7,21.0 179.6,22.1 158.4,13.4" fill="#3d7ea6" stroke="#3d7ea6" stroke-width="0.5"/><polygon points="183.0,0.0 213.0,0.0 189.6,23.4 184.7,21.0" fill="#3d7ea6" stroke="#3d7ea6" stroke-width="0.5"/><polygon points="213.0,0.0 214.5,0.0 223.0,21.8 200.6,33.6 195.5,31.6 189.6,23.4" fill="#ebf5e1" stroke="#ebf5e1" stroke-width="0.5"/><polygon points="214.5,0.0 245.8,0.0 247.8,15.9 246.1,18.8 225.6,23.1 223.0,21.8" fill="#f1fbe6" stroke="#f1fbe6" stroke-width="0.5"/><polygon points="245.8,0.0 274.9,0.0 272.4,14.6 247.8,15.9" fill="#edf7e3" stroke="#edf7e3" stroke-width="0.5"/><polygon points="274.9,0.0 292.0,0.0 298.3,21.0 297.7,21.5 272.0,16.4" fill="#eaf4e0" stroke="#eaf4e0" stroke-width="0.5"/><polygon points="292.0,0.0 312.8,0.0 312.8,11.7 299.0,23.4" fill="#788a53" stroke="#788a53" stroke-width="0.5"/><polygon points="312.8,0.0 336.4,0.0 334.7,14.7 331.0,17.3 312.8,11.7" fill="#6098b8" stroke="#6098b8" stroke-width="0.5"/><polygon points="336.4,0.0 357.9,0.0 357.2,21.7 334.7,14.7" fill="#6098b8" stroke="#6098b8" stroke-width="0.5"/><polygon points="357.9,0.0 380.2,0.0 375.6,23.0 357.2,22.1" fill="#d7c599" stroke="#d7c599" stroke-width="0.5"/><polygon points="380.2,0.0 394.1,0.0 401.8,16.8 398.0,22.5 376.0,20.8" fill="#3d7ea6" stroke="#3d7ea6" stroke-width="0.5"/><polygon points="394.1,0.0 418.8,0.0 415.1,14.1 401.8,16.8" fill="#1f4e6b" stroke="#1f4e6b" stroke-width="0.5"/><polygon points="418.8,0.0 437.7,0.0 438.9,21.6 427.7,25.3 415.1,14.1" fill="#1f4e6b" stroke="#1f4e6b" stroke-width="0.5"/><polygon points="437.7,0.0 461.9,0.0 462.7,15.2 442.6,23.1 438.9,21.6" fill="#1f4e6b" stroke="#1f4e6b" stroke-width="0.5"/><polygon points="461.9,0.0 490.8,0.0 490.2,10.8 484.7,16.5 467.2,18.7 462.7,15.2" fill="#1f4e6b" stroke="#1f4e6b" stroke-width="0.5"/><polygon points="490.8,0.0 516.3,0.0 515.2,19.6 510.5,22.7 490.2,10.8" fill="#1f4e6b" stroke="#1f4e6b" stroke-width="0.5"/><polygon points="516.3,0.0 535.1,0.0 537.8,17.8 533.2,22.9 515.2,19.6" fill="#1f4e6b" stroke="#1f4e6b" stroke-width="0.5"/><polygon points="535.1,0.0 557.0,0.0 552.4,16.9 537.8,17.8" fill="#1f4e6b" stroke="#1f4e6b" stroke-width="0.5"/><polygon points="557.0,0.0 576.0,0.0 576.0,22.8 559.9,23.6 552.4,16.9" fill="#1f4e6b" stroke="#1f4e6b" stroke-width="0.5"/><polygon points="0.0,52.4 0.0,20.6 21.6,32.6 15.2,46.1" fill="#1f4e6b" stroke="#1f4e6b" stroke-width="0.5"/><polygon points="24.2,31.5 31.3,8.7 36.6,2.8 51.3,17.6 48.6,36.5 41.4,39.2" fill="#1f4e6b" stroke="#1f4e6b" stroke-width="0.5"/><polygon points="48.6,36.5 51.3,17.6 68.6,15.1 74.6,29.5 72.3,36.3 59.3,42.4" fill="#1f4e6b" stroke="#1f4e6b" stroke-width="0.5"/><polygon points="72.3,36.3 74.6,29.5 94.5,25.8 94.5,41.5 84.6,48.6" fill="#1f4e6b" stroke="#1f4e6b" stroke-width="0.5"/><polygon points="94.5,41.5 94.5,22.3 104.1,18.9 106.8,20.0 117.0,40.5 111.3,48.7" fill="#1f4e6b" stroke="#1f4e6b" stroke-width="0.5"/><polygon points="117.0,40.5 106.8,20.0 131.5,13.1 131.5,37.8" fill="#1f4e6b" stroke="#1f4e6b" stroke-width="0.5"/><polygon points="131.5,14.5 152.8,18.5 152.8,30.5 140.3,42.7 139.6,42.9 131.5,37.8" fill="#3d7ea6" stroke="#3d7ea6" stroke-width="0.5"/><polygon points="152.8,30.5 152.8,18.5 158.4,13.4 179.6,22.1 167.1,38.4" fill="#ffffc6" stroke="#ffffc6" stroke-width="0.5"/><polygon points="169.6,53.3 167.1,38.4 179.6,22.1 184.7,21.0 189.6,23.4 195.5,31.6 180.7,52.8" fill="#f1fbe6" stroke="#f1fbe6" stroke-width="0.5"/><polygon points="200.6,33.6 223.0,21.8 225.6,23.1 229.3,49.3 207.7,46.2" fill="#e0ead7" stroke="#e0ead7" stroke-width="0.5"/><polygon points="229.3,49.3 225.6,23.1 246.1,18.8 250.5,32.0 238.5,48.0" fill="#f1fbe6" stroke="#f1fbe6" stroke-width="0.5"/><polygon points="250.5,32.0 246.1,18.8 247.8,15.9 274.2,14.5 270.8,38.6 265.7,40.0" fill="#e3ecd9" stroke="#e3ecd9" stroke-width="0.5"/><polygon points="273.9,16.8 297.7,21.5 292.8,37.3 281.4,44.0 270.8,38.6" fill="#e2ecd9" stroke="#e2ecd9" stroke-width="0.5"/><polygon points="292.8,37.3 297.7,21.5 301.0,19.0 321.6,39.6 310.5,50.6" fill="#d7e0ce" stroke="#d7e0ce" stroke-width="0.5"/><polygon points="321.6,39.6 302.4,20.4 312.8,11.7 331.0,17.3 327.2,38.3" fill="#d2dbc9" stroke="#d2dbc9" stroke-width="0.5"/><polygon points="327.2,38.3 331.0,17.3 334.7,14.7 357.5,21.8 351.2,39.4 335.2,42.9" fill="#ccd4c3" stroke="#ccd4c3" stroke-width="0.5"/><polygon points="351.2,39.4 357.5,22.1 373.5,22.9 379.6,44.7 378.8,46.5 359.2,48.9" fill="#b1b9aa" stroke="#b1b9aa" stroke-width="0.5"/><polygon points="372.8,20.6 398.0,22.5 400.4,35.9 379.6,44.7" fill="#abb2a3" stroke="#abb2a3" stroke-width="0.5"/><polygon points="400.4,35.9 398.0,22.5 401.8,16.8 415.1,14.1 427.7,25.3 424.3,32.8 408.3,42.1" fill="#3d7ea6" stroke="#3d7ea6" stroke-width="0.5"/><polygon points="424.3,32.8 427.7,25.3 438.9,21.6 442.6,23.1 449.4,39.2 442.4,53.2 436.1,53.0" fill="#3d7ea6" stroke="#3d7ea6" stroke-width="0.5"/><polygon points="449.4,39.2 442.6,23.1 462.7,15.2 467.2,18.7 468.7,39.5" fill="#1f4e6b" stroke="#1f4e6b" stroke-width="0.5"/><polygon points="469.0,42.9 467.2,18.7 484.7,16.5 489.9,42.6" fill="#1f4e6b" stroke="#1f4e6b" stroke-width="0.5"/><polygon points="489.5,40.4 484.7,16.5 490.2,10.8 510.5,22.7 507.3,33.2" fill="#1f4e6b" stroke="#1f4e6b" stroke-width="0.5"/><polygon points="507.3,33.2 510.5,22.7 515.2,19.6 533.2,22.9 536.4,39.4 518.3,47.3" fill="#1f4e6b" stroke="#1f4e6b" stroke-width="0.5"/><polygon points="536.0,37.4 533.2,22.9 537.8,17.8 552.4,16.9 559.9,23.6 553.3,38.8" fill="#1f4e6b" stroke="#1f4e6b" stroke-width="0.5"/><polygon points="576.0,22.8 576.0,46.8 552.4,40.9 559.9,23.6" fill="#1f4e6b" stroke="#1f4e6b" stroke-width="0.5"/><polygon points="17.4,74.2 0.0,53.5 0.0,52.4 15.2,46.1 29.7,60.0" fill="#1f4e6b" stroke="#1f4e6b" stroke-width="0.5"/><polygon points="29.7,60.0 15.2,46.1 22.5,30.7 41.4,39.2 35.8,59.2" fill="#1f4e6b" stroke="#1f4e6b" stroke-width="0.5"/><polygon points="35.8,59.2 41.4,39.2 48.6,36.5 59.3,42.4 60.7,54.3 46.0,67.2" fill="#1f4e6b" stroke="#1f4e6b" stroke-width="0.5"/><polygon points="60.7,54.3 59.3,42.4 72.3,36.3 84.6,48.6 83.9,55.7 76.5,64.3" fill="#1f4e6b" stroke="#1f4e6b" stroke-width="0.5"/><polygon points="83.9,55.7 84.6,48.6 94.5,41.5 111.3,48.7 111.4,57.8 105.7,63.0" fill="#3d7ea6" stroke="#3d7ea6" stroke-width="0.5"/><polygon points="111.4,57.8 111.3,48.7 117.0,40.5 131.5,37.8 139.6,42.9 138.2,56.9 126.4,64.8" fill="#3d7ea6" stroke="#3d7ea6" stroke-width="0.5"/><polygon points="150.8,66.7 138.2,56.9 139.6,42.9 140.3,42.7 168.7,54.1 165.9,60.0" fill="#f1fbe6" stroke="#f1fbe6" stroke-width="0.5"/><polygon points="140.3,42.7 152.8,30.5 167.1,38.4 169.8,54.5" fill="#ffffc6" stroke="#ffffc6" stroke-width="0.5"/><polygon points="195.5,31.6 200.6,33.6 207.7,46.2 200.5,63.3 196.1,65.6 180.7,52.8" fill="#f1fbe6" stroke="#f1fbe6" stroke-width="0.5"/><polygon points="200.5,63.3 207.7,46.2 229.3,49.3 227.8,60.0 218.1,68.6" fill="#f1fbe6" stroke="#f1fbe6" stroke-width="0.5"/><polygon points="227.8,60.0 229.3,49.3 238.5,48.0 256.1,59.2 257.0,62.5 242.6,75.6" fill="#e7f1dd" stroke="#e7f1dd" stroke-width="0.5"/><polygon points="256.1,59.2 238.5,48.0 250.5,32.0 265.7,40.0" fill="#e3ecd9" stroke="#e3ecd9" stroke-width="0.5"/><polygon points="257.0,62.5 256.1,59.2 265.7,40.0 270.7,38.6 281.4,44.0 283.4,58.1 267.4,68.4" fill="#d9e3d0" stroke="#d9e3d0" stroke-width="0.5"/><polygon points="283.4,58.1 281.4,44.0 292.8,37.3 310.5,50.6 309.3,58.0 291.5,63.2" fill="#cbd3c2" stroke="#cbd3c2" stroke-width="0.5"/><polygon points="309.3,58.0 310.5,50.6 321.6,39.6 327.2,38.3 335.2,42.9 336.3,64.8 330.8,68.7 314.8,65.6" fill="#c2cbba" stroke="#c2cbba" stroke-width="0.5"/><polygon points="336.3,64.8 335.2,42.9 351.2,39.4 359.2,48.9 355.3,68.3" fill="#afb7a8" stroke="#afb7a8" stroke-width="0.5"/><polygon points="355.5,67.5 359.2,48.9 378.8,46.5 383.8,59.3 378.9,67.5" fill="#b2baab" stroke="#b2baab" stroke-width="0.5"/><polygon points="383.8,59.3 378.8,46.5 379.6,44.7 400.4,35.9 408.3,42.1 408.4,45.3 399.0,61.0" fill="#989f92" stroke="#989f92" stroke-width="0.5"/><polygon points="402.9,67.5 399.0,61.0 408.4,45.3 425.5,59.9 423.0,67.5" fill="#898f84" stroke="#898f84" stroke-width="0.5"/><polygon points="408.4,45.3 408.3,42.1 424.3,32.8 436.1,53.0 425.5,59.9" fill="#ab9d7a" stroke="#ab9d7a" stroke-width="0.5"/><polygon points="442.4,53.2 449.4,39.2 473.2,39.6 465.1,60.6 448.7,60.0" fill="#3d7ea6" stroke="#3d7ea6" stroke-width="0.5"/><polygon points="465.1,60.6 471.9,42.9 487.8,42.6 493.5,57.6 486.6,71.0 470.6,68.8" fill="#1f4e6b" stroke="#1f4e6b" stroke-width="0.5"/><polygon points="493.5,57.6 487.3,41.3 507.3,33.2 518.3,47.3 515.5,59.1" fill="#1f4e6b" stroke="#1f4e6b" stroke-width="0.5"/><polygon points="515.7,58.3 518.3,47.3 534.2,40.3 542.0,59.8 532.2,67.2" fill="#1f4e6b" stroke="#1f4e6b" stroke-width="0.5"/><polygon points="533.0,37.2 555.6,38.9 551.3,60.4 542.0,59.8" fill="#1f4e6b" stroke="#1f4e6b" stroke-width="0.5"/><polygon points="555.1,41.6 576.0,46.8 576.0,60.5 550.9,62.3" fill="#1f4e6b" stroke="#1f4e6b" stroke-width="0.5"/><polygon points="0.0,84.7 0.0,53.5 19.2,76.4" fill="#1f4e6b" stroke="#1f4e6b" stroke-width="0.5"/><polygon points="15.8,76.0 29.7,60.0 35.8,59.2 46.0,67.2 48.4,77.4 46.7,81.7 27.0,87.7" fill="#1f4e6b" stroke="#1f4e6b" stroke-width="0.5"/><polygon points="48.4,77.4 46.0,67.2 60.7,54.3 76.5,64.3 76.5,64.4 69.5,75.3" fill="#1f4e6b" stroke="#1f4e6b" stroke-width="0.5"/><polygon points="76.5,95.3 69.5,75.3 76.5,64.4 93.1,78.6 82.1,95.1" fill="#1f4e6b" stroke="#1f4e6b" stroke-width="0.5"/><polygon points="93.1,78.6 76.5,64.4 76.5,64.3 83.9,55.7 105.7,63.0 102.0,76.6" fill="#3d7ea6" stroke="#3d7ea6" stroke-width="0.5"/><polygon points="102.0,76.6 105.7,63.0 111.4,57.8 126.4,64.8 128.6,82.6 111.6,87.2" fill="#ffffc6" stroke="#ffffc6" stroke-width="0.5"/><polygon points="128.7,83.0 126.4,64.8 138.2,56.9 150.8,66.7 148.0,79.5" fill="#f1fbe6" stroke="#f1fbe6" stroke-width="0.5"/><polygon points="148.0,79.5 150.8,66.7 165.9,60.0 175.0,83.5 157.2,89.4" fill="#f1fbe6" stroke="#f1fbe6" stroke-width="0.5"/><polygon points="175.2,84.2 165.9,60.0 169.1,53.3 180.7,52.8 196.1,65.6 193.5,74.8" fill="#f1fbe6" stroke="#f1fbe6" stroke-width="0.5"/><polygon points="193.5,74.8 196.1,65.6 200.5,63.3 218.1,68.6 219.6,84.9 204.1,87.5" fill="#f1fbe6" stroke="#f1fbe6" stroke-width="0.5"/><polygon points="220.0,88.8 218.1,68.6 227.8,60.0 242.6,75.6 241.3,84.3" fill="#f1fbe6" stroke="#f1fbe6" stroke-width="0.5"/><polygon points="241.3,84.3 242.6,75.6 257.0,62.5 267.4,68.4 271.2,84.2 246.8,90.1" fill="#e4edda" stroke="#e4edda" stroke-width="0.5"/><polygon points="271.4,85.0 267.4,68.4 283.4,58.1 291.5,63.2 291.5,84.2" fill="#cfd8c7" stroke="#cfd8c7" stroke-width="0.5"/><polygon points="291.5,87.7 291.5,63.2 309.3,58.0 314.8,65.6 307.7,84.2" fill="#d0d9c7" stroke="#d0d9c7" stroke-width="0.5"/><polygon points="307.7,84.2 314.8,65.6 330.8,68.7 331.5,87.7 320.9,93.6" fill="#bac2b2" stroke="#bac2b2" stroke-width="0.5"/><polygon points="331.5,87.7 330.8,68.7 336.3,64.8 354.8,68.2 356.0,84.0 343.3,92.3" fill="#bcc4b4" stroke="#bcc4b4" stroke-width="0.5"/><polygon points="356.0,84.0 354.8,67.5 378.9,67.5 382.0,82.8 362.2,87.8" fill="#a1a89a" stroke="#a1a89a" stroke-width="0.5"/><polygon points="382.5,85.5 378.9,67.5 383.8,59.3 399.0,61.0 402.9,67.5 400.4,81.9" fill="#898f83" stroke="#898f83" stroke-width="0.5"/><polygon points="400.4,81.9 402.9,67.5 423.0,67.5 426.5,77.9 406.2,86.8" fill="#92998c" stroke="#92998c" stroke-width="0.5"/><polygon points="426.6,78.3 423.0,67.5 425.5,59.9 436.1,53.0 442.4,53.2 448.7,60.0 444.7,77.5" fill="#b1a27f" stroke="#b1a27f" stroke-width="0.5"/><polygon points="444.7,77.5 448.7,60.0 465.1,60.6 470.6,68.8 462.3,83.8 449.1,82.7" fill="#3d7ea6" stroke="#3d7ea6" stroke-width="0.5"/><polygon points="467.0,92.0 462.3,83.8 470.6,68.8 486.6,71.0 490.1,78.0 481.8,94.1" fill="#3d7ea6" stroke="#3d7ea6" stroke-width="0.5"/><polygon points="490.1,78.0 486.6,71.0 493.5,57.6 514.5,59.1 508.4,83.8" fill="#1f4e6b" stroke="#1f4e6b" stroke-width="0.5"/><polygon points="514.8,57.9 532.2,67.2 532.8,78.2 519.8,88.7 507.6,86.9" fill="#1f4e6b" stroke="#1f4e6b" stroke-width="0.5"/><polygon points="532.8,78.2 532.2,67.2 542.0,59.8 553.5,60.5 553.5,82.8 548.5,86.1" fill="#1f4e6b" stroke="#1f4e6b" stroke-width="0.5"/><polygon points="576.0,60.5 576.0,85.4 553.5,82.8 553.5,62.1" fill="#1f4e6b" stroke="#1f4e6b" stroke-width="0.5"/><polygon points="0.0,104.2 0.0,84.7 17.1,77.3 27.0,87.7 24.9,100.3" fill="#1f4e6b" stroke="#1f4e6b" stroke-width="0.5"/><polygon points="24.9,100.3 27.0,87.7 46.7,81.7 53.6,96.2 44.7,108.6 31.9,111.5" fill="#1f4e6b" stroke="#1f4e6b" stroke-width="0.5"/><polygon points="69.8,115.4 57.2,97.0 90.1,85.0" fill="#1f4e6b" stroke="#1f4e6b" stroke-width="0.5"/><polygon points="46.7,81.7 48.4,77.4 69.5,75.3 74.9,90.5 57.2,97.0 53.6,96.2" fill="#1f4e6b" stroke="#1f4e6b" stroke-width="0.5"/><polygon points="82.1,95.1 93.1,78.6 102.0,76.6 111.6,87.2 109.4,94.9 90.8,101.1" fill="#3d7ea6" stroke="#3d7ea6" stroke-width="0.5"/><polygon points="109.4,94.9 111.6,87.2 129.1,82.5 134.9,103.0 130.8,111.2 127.2,111.9 114.8,106.7" fill="#f1fbe6" stroke="#f1fbe6" stroke-width="0.5"/><polygon points="134.9,103.0 129.2,82.9 148.0,79.5 157.2,89.4 154.7,98.0" fill="#f1fbe6" stroke="#f1fbe6" stroke-width="0.5"/><polygon points="154.7,98.0 157.2,89.4 175.6,83.3 183.0,102.2 173.4,110.8 160.4,109.6" fill="#f1fbe6" stroke="#f1fbe6" stroke-width="0.5"/><polygon points="183.0,102.2 175.9,83.9 193.5,74.8 204.1,87.5 198.8,102.8 193.5,104.9" fill="#f1fbe6" stroke="#f1fbe6" stroke-width="0.5"/><polygon points="198.8,102.8 204.1,87.5 224.4,84.1 222.5,106.7 214.3,110.5" fill="#f1fbe6" stroke="#f1fbe6" stroke-width="0.5"/><polygon points="222.5,106.7 224.0,88.0 241.3,84.3 246.8,90.1 248.0,102.7 235.7,113.4" fill="#cdc580" stroke="#cdc580" stroke-width="0.5"/><polygon points="248.0,102.7 246.8,90.1 272.3,83.9 271.5,105.7 259.1,108.7" fill="#c4bd7b" stroke="#c4bd7b" stroke-width="0.5"/><polygon points="271.5,105.7 272.2,85.0 295.2,84.1 294.8,101.5 276.6,109.6" fill="#b3ac70" stroke="#b3ac70" stroke-width="0.5"/><polygon points="294.8,101.5 295.2,86.9 307.7,84.2 320.9,93.6 318.4,111.4 304.3,112.1" fill="#928c5b" stroke="#928c5b" stroke-width="0.5"/><polygon points="318.6,110.1 320.9,93.6 331.5,87.7 343.3,92.3 345.3,109.5 338.0,114.7" fill="#9d9762" stroke="#9d9762" stroke-width="0.5"/><polygon points="345.3,109.5 343.3,92.3 356.0,84.0 362.2,87.8 366.1,103.1 357.0,112.7" fill="#9aa194" stroke="#9aa194" stroke-width="0.5"/><polygon points="366.1,103.1 362.2,87.8 384.8,82.1 384.8,105.7" fill="#959b8f" stroke="#959b8f" stroke-width="0.5"/><polygon points="384.8,104.5 384.8,85.0 400.4,81.9 406.2,86.8 409.7,104.5" fill="#8f9589" stroke="#8f9589" stroke-width="0.5"/><polygon points="409.7,104.5 406.2,86.8 426.9,77.8 428.4,93.9 416.1,103.9" fill="#91988b" stroke="#91988b" stroke-width="0.5"/><polygon points="428.4,93.9 426.9,78.3 444.7,77.5 449.1,82.7 442.7,100.2" fill="#80867b" stroke="#80867b" stroke-width="0.5"/><polygon points="441.0,104.7 449.1,82.7 462.3,83.8 467.0,92.0 459.9,106.3" fill="#998d6e" stroke="#998d6e" stroke-width="0.5"/><polygon points="459.9,106.3 467.0,92.0 481.8,94.1 486.6,103.8 481.6,112.5 464.1,112.5" fill="#3d7ea6" stroke="#3d7ea6" stroke-width="0.5"/><polygon points="486.6,103.8 481.8,94.1 490.1,78.0 512.2,85.1 502.1,104.6" fill="#1f4e6b" stroke="#1f4e6b" stroke-width="0.5"/><polygon points="509.7,118.1 502.1,104.6 511.0,87.4 519.8,88.7 528.8,102.6 515.2,120.0" fill="#1f4e6b" stroke="#1f4e6b" stroke-width="0.5"/><polygon points="528.8,102.6 519.8,88.7 532.8,78.2 548.5,86.1 545.4,105.2" fill="#1f4e6b" stroke="#1f4e6b" stroke-width="0.5"/><polygon points="576.0,85.4 576.0,103.9 551.1,106.2 545.8,102.9 548.5,86.1 553.5,82.8" fill="#1f4e6b" stroke="#1f4e6b" stroke-width="0.5"/><polygon points="0.0,114.9 0.0,104.2 24.9,100.3 31.9,111.5 29.7,118.2 21.6,124.8" fill="#1f4e6b" stroke="#1f4e6b" stroke-width="0.5"/><polygon points="47.2,135.8 29.7,118.2 31.9,111.5 44.7,108.6 60.2,125.2 58.0,130.2" fill="#1f4e6b" stroke="#1f4e6b" stroke-width="0.5"/><polygon points="44.7,108.6 53.6,96.2 57.2,97.0 69.8,115.4 69.6,119.1 60.2,125.2" fill="#1f4e6b" stroke="#1f4e6b" stroke-width="0.5"/><polygon points="69.6,119.1 69.8,115.4 83.0,95.7 90.8,101.1 95.2,119.7 85.2,125.5" fill="#3d7ea6" stroke="#3d7ea6" stroke-width="0.5"/><polygon points="95.2,119.7 90.8,101.1 109.4,94.9 114.8,106.7 98.7,120.4" fill="#ffffc6" stroke="#ffffc6" stroke-width="0.5"/><polygon points="113.7,136.1 98.7,120.4 114.8,106.7 127.2,111.9" fill="#f1fbe6" stroke="#f1fbe6" stroke-width="0.5"/><polygon points="130.8,111.2 134.9,103.0 154.7,98.0 160.4,109.6 152.8,122.0 141.8,122.6" fill="#f1fbe6" stroke="#f1fbe6" stroke-width="0.5"/><polygon points="152.8,122.0 160.4,109.6 173.4,110.8 178.5,131.3 160.4,132.1" fill="#f1fbe6" stroke="#f1fbe6" stroke-width="0.5"/><polygon points="177.7,128.2 173.4,110.8 183.0,102.2 193.5,104.9 193.5,128.2" fill="#f1fbe6" stroke="#f1fbe6" stroke-width="0.5"/><polygon points="193.5,132.0 193.5,104.9 198.8,102.8 214.3,110.5 210.6,131.6" fill="#cdc580" stroke="#cdc580" stroke-width="0.5"/><polygon points="211.2,128.5 214.3,110.5 222.5,106.7 235.7,113.4 236.8,121.4 227.9,130.9" fill="#cdc580" stroke="#cdc580" stroke-width="0.5"/><polygon points="236.8,121.4 235.7,113.4 248.0,102.7 259.1,108.7 257.1,126.6 250.1,129.7" fill="#cdc580" stroke="#cdc580" stroke-width="0.5"/><polygon points="257.1,126.6 259.1,108.7 271.5,105.7 276.6,109.6 279.2,120.7 269.8,131.3" fill="#bdb676" stroke="#bdb676" stroke-width="0.5"/><polygon points="279.2,120.7 276.6,109.6 294.8,101.5 304.3,112.1 294.7,126.4" fill="#a69f68" stroke="#a69f68" stroke-width="0.5"/><polygon points="319.3,137.4 316.6,109.6 338.0,114.7 338.1,121.1 325.4,139.6" fill="#716d47" stroke="#716d47" stroke-width="0.5"/><polygon points="338.1,121.1 338.0,114.7 345.3,109.5 357.0,112.7 360.0,119.1 352.1,137.6" fill="#6c6843" stroke="#6c6843" stroke-width="0.5"/><polygon points="360.0,119.1 357.0,112.7 366.1,103.1 383.7,105.6 383.1,120.7 375.5,124.8" fill="#93998d" stroke="#93998d" stroke-width="0.5"/><polygon points="383.1,120.7 383.8,104.5 409.7,104.5 408.3,118.5 393.8,127.7" fill="#878c81" stroke="#878c81" stroke-width="0.5"/><polygon points="408.3,118.5 409.7,104.5 416.1,103.9 436.5,118.4 422.0,132.2" fill="#7c8177" stroke="#7c8177" stroke-width="0.5"/><polygon points="436.9,118.7 416.1,103.9 428.4,93.9 446.4,101.9" fill="#8e9488" stroke="#8e9488" stroke-width="0.5"/><polygon points="437.1,118.2 444.6,105.0 459.9,106.3 464.1,112.5 459.9,130.9 452.6,132.5" fill="#7c8177" stroke="#7c8177" stroke-width="0.5"/><polygon points="458.7,136.4 464.1,112.5 481.6,112.5 485.7,128.1" fill="#978b6c" stroke="#978b6c" stroke-width="0.5"/><polygon points="485.7,128.1 481.6,112.5 486.6,103.8 502.1,104.6 509.7,118.1 490.2,130.9" fill="#3d7ea6" stroke="#3d7ea6" stroke-width="0.5"/><polygon points="513.6,122.1 528.8,102.6 541.3,104.6 535.2,129.2" fill="#1f4e6b" stroke="#1f4e6b" stroke-width="0.5"/><polygon points="542.3,100.7 551.1,106.2 555.2,124.7 551.3,130.2 534.5,131.7" fill="#1f4e6b" stroke="#1f4e6b" stroke-width="0.5"/><polygon points="576.0,103.9 576.0,121.7 555.2,124.7 551.1,106.2" fill="#1f4e6b" stroke="#1f4e6b" stroke-width="0.5"/><polygon points="0.0,143.0 0.0,114.9 21.6,124.8 18.7,139.6" fill="#1f4e6b" stroke="#1f4e6b" stroke-width="0.5"/><polygon points="18.7,139.6 21.6,124.8 29.7,118.2 47.2,135.8 45.1,140.0 26.2,147.3" fill="#1f4e6b" stroke="#1f4e6b" stroke-width="0.5"/><polygon points="51.9,156.3 45.1,140.0 47.2,135.8 58.0,130.2 70.3,146.3 65.2,154.6" fill="#3d7ea6" stroke="#3d7ea6" stroke-width="0.5"/><polygon points="70.3,146.3 58.0,130.2 60.2,125.2 69.6,119.1 85.2,125.5 84.3,144.3" fill="#3d7ea6" stroke="#3d7ea6" stroke-width="0.5"/><polygon points="84.3,145.3 85.2,125.5 95.2,119.7 98.7,120.4 113.5,135.9 101.4,146.8" fill="#f1fbe6" stroke="#f1fbe6" stroke-width="0.5"/><polygon points="113.8,135.9 127.2,111.9 130.8,111.2 141.8,122.6 135.3,139.4 122.5,141.3" fill="#f1fbe6" stroke="#f1fbe6" stroke-width="0.5"/><polygon points="135.3,139.4 141.8,122.6 152.8,122.0 160.4,132.1 155.2,145.7 145.4,148.4" fill="#f1fbe6" stroke="#f1fbe6" stroke-width="0.5"/><polygon points="155.2,145.7 160.4,132.1 174.5,131.5 177.5,150.6 171.9,156.2 168.1,155.7" fill="#f1fbe6" stroke="#f1fbe6" stroke-width="0.5"/><polygon points="177.5,150.6 174.0,128.2 199.4,128.2 191.3,149.6" fill="#cdc580" stroke="#cdc580" stroke-width="0.5"/><polygon points="205.6,127.7 227.9,130.9 231.8,146.2 214.9,150.5" fill="#cdc580" stroke="#cdc580" stroke-width="0.5"/><polygon points="231.8,146.2 227.9,130.9 236.8,121.4 250.1,129.7 247.4,144.9 238.5,150.3" fill="#cdc580" stroke="#cdc580" stroke-width="0.5"/><polygon points="247.4,144.9 250.1,129.7 257.1,126.6 269.8,131.3 271.9,140.2 261.0,150.1" fill="#ffffff" stroke="#ffffff" stroke-width="0.5"/><polygon points="271.9,140.2 269.8,131.3 279.2,120.7 294.7,126.4 295.8,130.5 282.7,145.8" fill="#ffffff" stroke="#ffffff" stroke-width="0.5"/><polygon points="285.9,154.0 282.7,145.8 295.8,130.5 309.5,140.7 304.9,152.1" fill="#fdffff" stroke="#fdffff" stroke-width="0.5"/><polygon points="294.7,126.4 304.3,112.1 316.8,111.5 319.3,137.4 309.5,140.7 295.8,130.5" fill="#98925f" stroke="#98925f" stroke-width="0.5"/><polygon points="322.7,143.6 338.1,121.1 354.6,140.6" fill="#8b8657" stroke="#8b8657" stroke-width="0.5"/><polygon points="349.7,143.3 360.0,119.1 375.5,124.8 371.6,140.2" fill="#6f6b45" stroke="#6f6b45" stroke-width="0.5"/><polygon points="371.6,140.2 375.5,124.8 383.1,120.7 393.8,127.7 395.7,140.6 388.6,151.6 384.3,151.7" fill="#7c8177" stroke="#7c8177" stroke-width="0.5"/><polygon points="395.7,140.6 393.8,127.7 408.3,118.5 422.0,132.2 421.3,141.3" fill="#7c8177" stroke="#7c8177" stroke-width="0.5"/><polygon points="421.4,140.0 422.0,132.2 436.9,118.0 452.6,132.5 444.0,147.0" fill="#7c8177" stroke="#7c8177" stroke-width="0.5"/><polygon points="446.3,155.4 444.0,147.0 452.6,132.5 464.8,129.8 472.1,155.4" fill="#6098b8" stroke="#6098b8" stroke-width="0.5"/><polygon points="472.1,155.5 466.0,134.2 485.7,128.1 490.2,130.9 492.5,139.0 475.6,155.9" fill="#9b8e6f" stroke="#9b8e6f" stroke-width="0.5"/><polygon points="509.7,118.1 518.2,121.1 512.4,144.1 503.7,147.6 492.5,139.0 490.2,130.9" fill="#3d7ea6" stroke="#3d7ea6" stroke-width="0.5"/><polygon points="517.6,123.4 537.4,129.9 534.7,144.6 525.4,150.2 512.4,144.1" fill="#1f4e6b" stroke="#1f4e6b" stroke-width="0.5"/><polygon points="548.2,155.3 534.7,144.6 537.1,131.5 551.3,130.2 559.8,143.7" fill="#1f4e6b" stroke="#1f4e6b" stroke-width="0.5"/><polygon points="576.0,121.7 576.0,145.7 559.8,143.7 551.3,130.2 555.2,124.7" fill="#1f4e6b" stroke="#1f4e6b" stroke-width="0.5"/><polygon points="0.0,163.1 0.0,143.0 18.7,139.6 26.2,147.3 26.8,167.1" fill="#1f4e6b" stroke="#1f4e6b" stroke-width="0.5"/><polygon points="26.6,162.1 26.2,147.3 45.1,140.0 51.9,156.3 46.9,164.4 40.6,167.6" fill="#1f4e6b" stroke="#1f4e6b" stroke-width="0.5"/><polygon points="46.9,164.4 51.9,156.3 65.2,154.6 70.9,167.1 65.8,177.4" fill="#3d7ea6" stroke="#3d7ea6" stroke-width="0.5"/><polygon points="70.9,167.1 65.2,154.6 70.3,146.3 85.5,144.2 85.5,164.8" fill="#fffcc4" stroke="#fffcc4" stroke-width="0.5"/><polygon points="85.5,164.8 85.5,145.4 101.4,146.8 105.8,164.2 90.5,169.3" fill="#e3ecd9" stroke="#e3ecd9" stroke-width="0.5"/><polygon points="105.8,164.3 101.4,146.8 113.6,135.8 122.5,141.3 122.5,162.3 113.1,167.9" fill="#ecf6e2" stroke="#ecf6e2" stroke-width="0.5"/><polygon points="122.5,162.3 122.5,141.3 135.3,139.4 145.4,148.4 140.8,167.5" fill="#edf8e3" stroke="#edf8e3" stroke-width="0.5"/><polygon points="141.1,166.1 145.4,148.4 155.2,145.7 168.1,155.7 152.9,169.6" fill="#f1fbe6" stroke="#f1fbe6" stroke-width="0.5"/><polygon points="178.5,173.6 171.9,156.2 177.5,150.6 191.3,149.6 201.5,162.1" fill="#cdc580" stroke="#cdc580" stroke-width="0.5"/><polygon points="191.3,149.6 198.0,131.9 207.2,131.7 214.9,150.5 210.0,160.3 201.9,162.6" fill="#cdc580" stroke="#cdc580" stroke-width="0.5"/><polygon points="210.0,160.3 214.9,150.5 231.8,146.2 238.5,150.3 238.5,162.0 222.8,169.9" fill="#ffffff" stroke="#ffffff" stroke-width="0.5"/><polygon points="238.5,162.0 238.5,150.3 247.4,144.9 261.0,150.1 264.5,166.1 247.5,171.0" fill="#ffffff" stroke="#ffffff" stroke-width="0.5"/><polygon points="264.9,167.6 261.0,150.1 271.9,140.2 282.7,145.8 287.5,158.1" fill="#ffffff" stroke="#ffffff" stroke-width="0.5"/><polygon points="280.7,154.5 304.9,152.1 309.8,163.2 293.2,174.3" fill="#dce0e3" stroke="#dce0e3" stroke-width="0.5"/><polygon points="309.8,163.2 304.9,152.1 309.5,140.7 319.3,137.4 328.7,140.7 329.8,164.4 317.6,167.3" fill="#c4c7cb" stroke="#c4c7cb" stroke-width="0.5"/><polygon points="329.8,164.4 328.8,143.0 354.0,140.6 354.2,154.4 340.9,169.3 339.2,170.0" fill="#6a6642" stroke="#6a6642" stroke-width="0.5"/><polygon points="354.2,154.4 354.1,142.7 371.6,140.2 384.3,151.7 370.8,164.1" fill="#6a6642" stroke="#6a6642" stroke-width="0.5"/><polygon points="373.0,185.5 370.2,179.1 370.8,164.1 384.3,151.7 387.8,151.6 393.3,177.2 391.7,182.2" fill="#7c8177" stroke="#7c8177" stroke-width="0.5"/><polygon points="389.1,150.9 395.7,140.6 420.2,141.3 416.9,163.2 413.8,163.3" fill="#6098b8" stroke="#6098b8" stroke-width="0.5"/><polygon points="416.6,165.4 420.5,139.8 444.0,147.0 446.3,155.4 443.6,162.8 434.9,167.8" fill="#7c8177" stroke="#7c8177" stroke-width="0.5"/><polygon points="443.6,162.8 446.3,155.4 472.2,155.4 462.9,177.6 457.7,177.3" fill="#7c8177" stroke="#7c8177" stroke-width="0.5"/><polygon points="462.9,177.6 472.2,155.5 475.6,155.9 486.7,165.3 488.2,173.4 471.3,185.2" fill="#7c8177" stroke="#7c8177" stroke-width="0.5"/><polygon points="486.7,165.3 475.6,155.9 492.5,139.0 503.7,147.6 502.7,154.6" fill="#8f8366" stroke="#8f8366" stroke-width="0.5"/><polygon points="502.7,154.6 503.7,147.6 512.4,144.1 525.4,150.2 524.7,166.5 510.4,166.5" fill="#3d7ea6" stroke="#3d7ea6" stroke-width="0.5"/><polygon points="524.5,171.8 525.4,150.2 534.7,144.6 548.2,155.3 548.8,165.4" fill="#1f4e6b" stroke="#1f4e6b" stroke-width="0.5"/><polygon points="576.0,145.7 576.0,164.7 550.1,166.6 548.8,165.4 548.2,155.3 559.8,143.7" fill="#1f4e6b" stroke="#1f4e6b" stroke-width="0.5"/><polygon points="0.0,185.7 0.0,163.1 21.1,166.2 18.6,186.7" fill="#1f4e6b" stroke="#1f4e6b" stroke-width="0.5"/><polygon points="18.6,186.7 21.9,160.2 40.6,167.6 41.8,181.9 32.8,192.1 24.7,194.2" fill="#1f4e6b" stroke="#1f4e6b" stroke-width="0.5"/><polygon points="41.8,181.9 40.6,167.6 46.9,164.4 65.8,177.4 66.0,179.5 57.4,187.1" fill="#3d7ea6" stroke="#3d7ea6" stroke-width="0.5"/><polygon points="66.0,179.5 65.8,177.4 70.9,167.1 85.5,164.8 90.5,169.3 89.5,181.2 78.8,187.4" fill="#ffefba" stroke="#ffefba" stroke-width="0.5"/><polygon points="89.5,181.2 90.5,169.3 105.7,164.2 113.1,167.9 113.7,183.1 104.6,190.8" fill="#e2ebd8" stroke="#e2ebd8" stroke-width="0.5"/><polygon points="113.7,183.1 113.1,167.9 122.5,162.3 139.4,167.2 136.2,183.2 129.5,188.9" fill="#eef8e3" stroke="#eef8e3" stroke-width="0.5"/><polygon points="136.2,183.2 139.7,165.7 152.9,169.6 159.2,178.4 153.9,191.0" fill="#d7e0ce" stroke="#d7e0ce" stroke-width="0.5"/><polygon points="152.9,169.6 168.1,155.7 171.9,156.2 179.8,176.9 159.2,178.4" fill="#ecf6e2" stroke="#ecf6e2" stroke-width="0.5"/><polygon points="176.7,174.5 202.5,161.6 202.5,182.8 194.1,189.1 179.4,180.9" fill="#c7bf7c" stroke="#c7bf7c" stroke-width="0.5"/><polygon points="202.5,182.8 202.5,162.4 210.0,160.3 222.8,169.9 222.8,187.9" fill="#cac27e" stroke="#cac27e" stroke-width="0.5"/><polygon points="222.8,184.5 222.8,169.9 238.5,162.0 247.5,171.0 245.0,184.5" fill="#ffffff" stroke="#ffffff" stroke-width="0.5"/><polygon points="245.0,184.5 247.5,171.0 265.9,165.7 273.4,187.9 248.7,191.2" fill="#ffffff" stroke="#ffffff" stroke-width="0.5"/><polygon points="273.6,188.3 266.3,167.0 283.9,159.6 293.2,174.3 292.4,181.5 285.2,187.2" fill="#ffffff" stroke="#ffffff" stroke-width="0.5"/><polygon points="292.4,181.5 293.2,174.3 309.8,163.2 317.6,167.3 312.2,189.1" fill="#c8cbcf" stroke="#c8cbcf" stroke-width="0.5"/><polygon points="312.2,189.1 317.6,167.3 329.8,164.4 339.2,170.0 338.8,180.1 321.0,193.5 312.2,189.1" fill="#9ea1a4" stroke="#9ea1a4" stroke-width="0.5"/><polygon points="338.8,180.1 339.2,170.0 340.9,169.3 370.2,179.1 371.7,182.6 353.5,197.2 350.2,196.4" fill="#6a6642" stroke="#6a6642" stroke-width="0.5"/><polygon points="340.9,169.3 354.2,154.4 370.8,164.1 370.2,179.1" fill="#6a6642" stroke="#6a6642" stroke-width="0.5"/><polygon points="393.3,177.2 387.5,150.1 413.8,163.3" fill="#7c8177" stroke="#7c8177" stroke-width="0.5"/><polygon points="390.9,184.5 393.3,177.2 413.8,163.3 419.8,163.2 416.1,184.5" fill="#7c8177" stroke="#7c8177" stroke-width="0.5"/><polygon points="416.1,184.5 419.3,165.8 434.9,167.8 437.2,189.8 420.5,191.8" fill="#7c8177" stroke="#7c8177" stroke-width="0.5"/><polygon points="437.2,189.8 434.9,167.8 443.6,162.8 457.7,177.3 442.7,193.1" fill="#7c8177" stroke="#7c8177" stroke-width="0.5"/><polygon points="471.8,189.1 471.3,185.2 488.2,173.4 500.5,181.7 501.4,184.3 486.0,200.9 483.6,200.3" fill="#8f8366" stroke="#8f8366" stroke-width="0.5"/><polygon points="488.2,173.4 486.7,165.3 502.7,154.6 510.4,166.5 500.5,181.7" fill="#3d7ea6" stroke="#3d7ea6" stroke-width="0.5"/><polygon points="501.4,184.3 500.5,181.7 510.4,166.5 529.0,166.5 527.2,185.8 507.8,188.2" fill="#3d7ea6" stroke="#3d7ea6" stroke-width="0.5"/><polygon points="527.2,186.0 528.6,170.7 548.8,165.4 550.1,166.6 552.9,183.8 546.1,191.9" fill="#1f4e6b" stroke="#1f4e6b" stroke-width="0.5"/><polygon points="576.0,164.7 576.0,187.1 552.9,183.8 550.1,166.6" fill="#1f4e6b" stroke="#1f4e6b" stroke-width="0.5"/><polygon points="0.0,211.5 0.0,185.7 18.6,186.7 24.7,194.2 22.8,201.0 12.4,211.5" fill="#1f4e6b" stroke="#1f4e6b" stroke-width="0.5"/><polygon points="42.2,220.4 22.8,201.0 24.7,194.2 32.8,192.1 51.6,205.6 47.7,217.5" fill="#1f4e6b" stroke="#1f4e6b" stroke-width="0.5"/><polygon points="51.6,205.6 32.8,192.1 41.8,181.9 57.4,187.1 56.8,201.6" fill="#1f4e6b" stroke="#1f4e6b" stroke-width="0.5"/><polygon points="56.8,201.6 57.4,187.1 66.0,179.5 78.8,187.4 78.8,206.5" fill="#3d7ea6" stroke="#3d7ea6" stroke-width="0.5"/><polygon points="78.8,203.0 78.8,187.4 89.5,181.2 104.6,190.8 103.4,200.9 95.5,206.3" fill="#e9f3df" stroke="#e9f3df" stroke-width="0.5"/><polygon points="103.4,200.9 104.6,190.8 113.7,183.1 129.5,188.9 131.2,205.4 130.8,206.0 118.5,210.9" fill="#e7f0dd" stroke="#e7f0dd" stroke-width="0.5"/><polygon points="131.2,205.4 129.5,188.9 136.2,183.2 154.0,191.0 156.6,199.7" fill="#e0ead7" stroke="#e0ead7" stroke-width="0.5"/><polygon points="156.9,200.7 154.0,191.0 159.2,178.4 177.7,177.0 179.4,180.9 169.2,200.7" fill="#c3bc7a" stroke="#c3bc7a" stroke-width="0.5"/><polygon points="169.2,200.7 179.4,180.9 194.1,189.1 195.5,204.8 191.3,209.9 179.0,209.5" fill="#c0b978" stroke="#c0b978" stroke-width="0.5"/><polygon points="195.5,204.8 194.1,189.1 202.5,182.8 220.5,187.3 220.5,204.8" fill="#c7c07c" stroke="#c7c07c" stroke-width="0.5"/><polygon points="220.5,203.5 220.5,184.5 245.0,184.5 248.7,191.2 245.6,204.8" fill="#ffffff" stroke="#ffffff" stroke-width="0.5"/><polygon points="245.6,204.8 248.7,191.2 274.0,187.9 272.2,201.7 261.0,211.6 246.8,207.0" fill="#ffffff" stroke="#ffffff" stroke-width="0.5"/><polygon points="272.2,201.7 273.9,188.3 285.2,187.2 296.8,210.3 288.8,218.3" fill="#d9dce0" stroke="#d9dce0" stroke-width="0.5"/><polygon points="296.8,210.2 285.2,187.2 292.4,181.5 312.2,189.1 312.2,189.1 298.3,209.9" fill="#b3b6b9" stroke="#b3b6b9" stroke-width="0.5"/><polygon points="298.3,209.9 312.2,189.1 321.0,193.5 324.5,201.8 313.6,215.8" fill="#9ea1a4" stroke="#9ea1a4" stroke-width="0.5"/><polygon points="324.5,201.8 321.0,193.5 338.8,180.1 350.2,196.4 335.1,206.7" fill="#9ea1a4" stroke="#9ea1a4" stroke-width="0.5"/><polygon points="353.5,197.2 376.1,179.1 380.2,210.5 359.9,210.5" fill="#6a6642" stroke="#6a6642" stroke-width="0.5"/><polygon points="380.7,214.1 376.8,184.8 393.7,181.8 400.5,205.0 398.0,209.1" fill="#7c8177" stroke="#7c8177" stroke-width="0.5"/><polygon points="400.5,205.0 394.5,184.5 416.1,184.5 420.5,191.8 417.2,200.4" fill="#7c8177" stroke="#7c8177" stroke-width="0.5"/><polygon points="417.2,200.4 420.5,191.8 437.2,189.8 442.7,193.1 445.7,200.6 435.6,212.7 425.8,214.7" fill="#7c8177" stroke="#7c8177" stroke-width="0.5"/><polygon points="442.7,193.1 457.7,177.3 462.9,177.6 471.3,185.2 471.8,189.1 455.7,204.5 445.7,200.6" fill="#7c8177" stroke="#7c8177" stroke-width="0.5"/><polygon points="471.8,189.1 483.6,200.3 463.6,218.6 455.7,204.5" fill="#7c8177" stroke="#7c8177" stroke-width="0.5"/><polygon points="486.0,200.9 501.4,184.3 507.8,188.2 510.2,210.6 491.8,209.8" fill="#3d7ea6" stroke="#3d7ea6" stroke-width="0.5"/><polygon points="510.0,209.2 507.8,188.2 527.4,185.8 525.0,209.2" fill="#1f4e6b" stroke="#1f4e6b" stroke-width="0.5"/><polygon points="524.8,210.6 527.4,186.1 546.1,191.9 548.8,204.4 545.0,209.7" fill="#1f4e6b" stroke="#1f4e6b" stroke-width="0.5"/><polygon points="576.0,187.1 576.0,206.6 548.8,204.4 546.1,191.9 552.9,183.8" fill="#1f4e6b" stroke="#1f4e6b" stroke-width="0.5"/><polygon points="0.0,236.1 0.0,211.5 12.4,211.5 22.8,231.3 19.2,236.7" fill="#1f4e6b" stroke="#1f4e6b" stroke-width="0.5"/><polygon points="22.8,231.3 12.4,211.5 22.8,201.0 42.2,220.4 37.5,227.8" fill="#1f4e6b" stroke="#1f4e6b" stroke-width="0.5"/><polygon points="47.7,217.5 51.6,205.6 56.8,201.6 75.3,205.7 73.2,223.6 67.1,228.1" fill="#3d7ea6" stroke="#3d7ea6" stroke-width="0.5"/><polygon points="73.2,223.6 75.7,202.3 95.5,206.3 95.5,229.9" fill="#d0d9c7" stroke="#d0d9c7" stroke-width="0.5"/><polygon points="95.5,226.5 95.5,206.3 103.4,200.9 118.5,210.9 114.3,228.1" fill="#e1ead7" stroke="#e1ead7" stroke-width="0.5"/><polygon points="114.0,229.7 118.5,210.9 130.8,206.0 141.0,223.0 135.7,231.7" fill="#e8f2de" stroke="#e8f2de" stroke-width="0.5"/><polygon points="141.0,223.0 130.8,206.0 131.2,205.4 158.1,199.4 154.0,221.5" fill="#ecf6e2" stroke="#ecf6e2" stroke-width="0.5"/><polygon points="154.0,221.5 157.8,200.7 169.2,200.7 179.0,209.5 167.9,228.5 162.4,228.7" fill="#b8b173" stroke="#b8b173" stroke-width="0.5"/><polygon points="167.9,228.5 179.0,209.5 191.3,209.9 195.6,224.5 179.4,237.4" fill="#bbb475" stroke="#bbb475" stroke-width="0.5"/><polygon points="195.6,224.5 191.3,209.9 195.5,204.8 219.5,204.8 220.3,223.7 204.8,230.0" fill="#b9b274" stroke="#b9b274" stroke-width="0.5"/><polygon points="220.3,223.7 219.4,203.4 245.6,204.8 246.8,207.0 241.1,225.4 227.2,228.7" fill="#f6fbff" stroke="#f6fbff" stroke-width="0.5"/><polygon points="241.1,225.4 246.8,207.0 261.0,211.6 266.5,224.2 265.0,227.9 249.1,232.6" fill="#e7eaee" stroke="#e7eaee" stroke-width="0.5"/><polygon points="266.5,224.2 261.0,211.6 272.2,201.7 289.0,218.6" fill="#e0e3e7" stroke="#e0e3e7" stroke-width="0.5"/><polygon points="291.5,229.2 288.6,218.4 296.8,210.2 298.3,209.9 313.6,215.8 317.3,224.5 308.9,238.1" fill="#9ea1a4" stroke="#9ea1a4" stroke-width="0.5"/><polygon points="317.3,224.5 313.6,215.8 324.5,201.8 335.1,206.7 337.8,225.9" fill="#9ea1a4" stroke="#9ea1a4" stroke-width="0.5"/><polygon points="338.0,227.3 335.1,206.7 350.2,196.4 353.5,197.2 359.9,210.5 355.4,221.9 341.9,227.8" fill="#9ea1a4" stroke="#9ea1a4" stroke-width="0.5"/><polygon points="355.4,221.9 359.9,210.5 383.8,210.5 382.1,225.4 372.2,235.3" fill="#6a6642" stroke="#6a6642" stroke-width="0.5"/><polygon points="382.1,225.4 383.5,213.3 398.0,209.1 409.6,226.0 409.2,227.7 400.8,236.6" fill="#7c8177" stroke="#7c8177" stroke-width="0.5"/><polygon points="409.6,226.0 398.0,209.1 400.5,205.0 417.2,200.4 425.8,214.7 424.9,216.3" fill="#7c8177" stroke="#7c8177" stroke-width="0.5"/><polygon points="433.4,238.9 424.9,216.3 425.8,214.7 435.6,212.7 447.7,229.4 443.7,237.6" fill="#7c8177" stroke="#7c8177" stroke-width="0.5"/><polygon points="435.6,212.7 445.7,200.6 455.7,204.5 463.6,218.6 463.7,220.4 447.7,229.4" fill="#7c8177" stroke="#7c8177" stroke-width="0.5"/><polygon points="463.8,220.7 463.6,218.6 483.6,200.3 486.0,200.9 491.8,209.8 487.9,221.4" fill="#7c8177" stroke="#7c8177" stroke-width="0.5"/><polygon points="487.9,221.4 491.8,209.8 508.5,210.5 508.5,228.9 501.8,233.5 491.4,230.3" fill="#3d7ea6" stroke="#3d7ea6" stroke-width="0.5"/><polygon points="508.5,228.9 508.5,209.2 526.5,209.2 526.5,233.0" fill="#1f4e6b" stroke="#1f4e6b" stroke-width="0.5"/><polygon points="526.5,232.3 526.5,210.5 545.0,209.7 548.5,226.8" fill="#1f4e6b" stroke="#1f4e6b" stroke-width="0.5"/><polygon points="576.0,206.6 576.0,224.1 551.2,229.0 548.5,226.8 545.0,209.7 548.8,204.4" fill="#1f4e6b" stroke="#1f4e6b" stroke-width="0.5"/><polygon points="0.0,256.7 0.0,236.1 19.2,236.7 21.4,252.8" fill="#1f4e6b" stroke="#1f4e6b" stroke-width="0.5"/><polygon points="21.8,255.8 19.2,236.7 22.8,231.3 37.5,227.8 50.0,250.5" fill="#1f4e6b" stroke="#1f4e6b" stroke-width="0.5"/><polygon points="47.7,246.4 37.5,227.8 42.2,220.4 47.7,217.5 67.1,228.1 65.0,242.1" fill="#3d7ea6" stroke="#3d7ea6" stroke-width="0.5"/><polygon points="65.0,242.1 67.1,228.1 73.2,223.6 92.3,229.0 91.0,245.3 87.1,249.6 68.9,246.3" fill="#fbe6b3" stroke="#fbe6b3" stroke-width="0.5"/><polygon points="91.0,245.3 92.5,226.2 115.7,228.2 113.9,248.9" fill="#ced7c5" stroke="#ced7c5" stroke-width="0.5"/><polygon points="113.9,249.6 115.6,229.8 135.7,231.7 139.4,244.7 129.0,254.4" fill="#c1c9b8" stroke="#c1c9b8" stroke-width="0.5"/><polygon points="139.4,244.7 135.7,231.7 141.0,223.0 154.0,221.5 162.4,228.7 152.8,247.9" fill="#d1dac8" stroke="#d1dac8" stroke-width="0.5"/><polygon points="152.8,247.9 162.4,228.7 167.9,228.5 179.4,237.4 180.3,242.8 173.1,256.1 157.1,254.6" fill="#a7a168" stroke="#a7a168" stroke-width="0.5"/><polygon points="180.3,242.8 179.4,237.4 195.6,224.5 204.8,229.9 204.8,251.6" fill="#a29c65" stroke="#a29c65" stroke-width="0.5"/><polygon points="204.8,245.2 204.8,229.9 220.3,223.7 227.2,228.7 227.2,245.2 222.8,249.8" fill="#ffffff" stroke="#ffffff" stroke-width="0.5"/><polygon points="227.2,245.2 227.2,228.7 241.1,225.4 249.1,232.6 248.3,250.5" fill="#dfe3e6" stroke="#dfe3e6" stroke-width="0.5"/><polygon points="248.5,247.7 249.1,232.6 265.0,227.9 272.5,244.1 265.8,250.8" fill="#b2b5b8" stroke="#b2b5b8" stroke-width="0.5"/><polygon points="265.0,227.9 266.5,224.2 288.6,218.7 291.5,229.2 280.8,244.2 272.5,244.1" fill="#9ea1a4" stroke="#9ea1a4" stroke-width="0.5"/><polygon points="280.8,244.2 291.5,229.2 308.9,238.1 310.9,246.1 292.6,258.3" fill="#9ea1a4" stroke="#9ea1a4" stroke-width="0.5"/><polygon points="311.1,246.8 308.9,238.1 317.3,224.5 340.3,226.1 330.5,245.1" fill="#9ea1a4" stroke="#9ea1a4" stroke-width="0.5"/><polygon points="340.6,260.2 330.5,245.1 339.5,227.5 341.9,227.8 355.9,250.4 355.0,253.3" fill="#6a6642" stroke="#6a6642" stroke-width="0.5"/><polygon points="355.9,250.4 341.9,227.8 355.4,221.9 372.2,235.3 371.9,238.4" fill="#6a6642" stroke="#6a6642" stroke-width="0.5"/><polygon points="371.9,238.4 372.2,235.3 382.1,225.4 400.8,236.6 400.1,244.8 381.8,249.4" fill="#7c8177" stroke="#7c8177" stroke-width="0.5"/><polygon points="399.8,248.6 400.8,236.6 409.2,227.7 427.9,242.7 425.2,248.6" fill="#7c8177" stroke="#7c8177" stroke-width="0.5"/><polygon points="409.2,227.7 409.6,226.0 424.9,216.3 437.7,250.5" fill="#7c8177" stroke="#7c8177" stroke-width="0.5"/><polygon points="443.7,237.6 447.7,229.4 463.9,220.3 472.6,241.7 467.5,248.0 452.7,249.6" fill="#7c8177" stroke="#7c8177" stroke-width="0.5"/><polygon points="472.6,241.7 464.1,220.7 487.9,221.4 491.4,230.3 480.2,241.2" fill="#7c8177" stroke="#7c8177" stroke-width="0.5"/><polygon points="480.2,241.2 491.4,230.3 501.8,233.5 504.1,251.0 494.1,256.8" fill="#8f8366" stroke="#8f8366" stroke-width="0.5"/><polygon points="504.1,251.0 501.8,233.5 508.5,228.9 526.0,232.9 527.0,246.0 514.3,254.3" fill="#3d7ea6" stroke="#3d7ea6" stroke-width="0.5"/><polygon points="527.0,246.0 526.0,232.4 548.5,226.8 551.2,229.0 551.2,248.0 535.5,251.1" fill="#1f4e6b" stroke="#1f4e6b" stroke-width="0.5"/><polygon points="576.0,224.1 576.0,247.5 551.2,247.5 551.2,229.0" fill="#1f4e6b" stroke="#1f4e6b" stroke-width="0.5"/><polygon points="0.0,278.0 0.0,256.7 23.8,252.4 23.8,268.7 4.1,278.6" fill="#1f4e6b" stroke="#1f4e6b" stroke-width="0.5"/><polygon points="23.8,268.7 23.8,255.5 45.0,251.5 51.1,269.7 49.9,271.7 29.1,273.6" fill="#1f4e6b" stroke="#1f4e6b" stroke-width="0.5"/><polygon points="51.1,269.7 43.7,247.5 65.0,242.1 68.9,246.3 65.6,266.8" fill="#3d7ea6" stroke="#3d7ea6" stroke-width="0.5"/><polygon points="65.6,266.8 68.9,246.3 87.1,249.6 88.5,259.7 75.9,273.3" fill="#e7d4a5" stroke="#e7d4a5" stroke-width="0.5"/><polygon points="88.5,259.7 87.1,249.6 91.0,245.3 114.8,249.0 104.8,270.1" fill="#ccd4c3" stroke="#ccd4c3" stroke-width="0.5"/><polygon points="105.6,272.8 104.8,270.1 114.4,249.7 129.0,254.4 132.4,269.1 130.1,274.7" fill="#bec6b6" stroke="#bec6b6" stroke-width="0.5"/><polygon points="132.4,269.1 129.0,254.4 139.4,244.7 152.8,247.9 157.1,254.6 152.5,265.4" fill="#c8d1c0" stroke="#c8d1c0" stroke-width="0.5"/><polygon points="159.2,281.8 152.5,265.4 157.1,254.6 173.1,256.1 175.9,261.1 163.6,281.5" fill="#c5cebd" stroke="#c5cebd" stroke-width="0.5"/><polygon points="175.9,261.1 173.1,256.1 180.3,242.8 200.1,249.9 198.9,264.5 195.7,267.6 187.9,268.4" fill="#a29c66" stroke="#a29c66" stroke-width="0.5"/><polygon points="198.9,264.5 200.5,244.2 222.8,249.8 222.8,268.2" fill="#95905d" stroke="#95905d" stroke-width="0.5"/><polygon points="222.8,265.5 222.8,249.8 227.2,245.2 245.8,249.9 243.8,265.5" fill="#e3e7eb" stroke="#e3e7eb" stroke-width="0.5"/><polygon points="243.8,265.5 246.1,247.2 265.8,250.8 267.0,265.8 257.9,274.1 249.2,273.0" fill="#9ea1a4" stroke="#9ea1a4" stroke-width="0.5"/><polygon points="267.0,265.8 265.8,250.8 272.5,244.1 280.8,244.2 292.6,258.3 291.8,263.3 283.1,269.4" fill="#9ea1a4" stroke="#9ea1a4" stroke-width="0.5"/><polygon points="291.8,263.3 292.6,258.3 311.6,245.6 319.8,267.4 305.5,275.7" fill="#9ea1a4" stroke="#9ea1a4" stroke-width="0.5"/><polygon points="319.8,267.4 312.0,246.7 330.5,245.1 340.6,260.2 338.5,264.7 328.6,270.2" fill="#9ea1a4" stroke="#9ea1a4" stroke-width="0.5"/><polygon points="355.2,285.2 338.5,264.7 340.6,260.2 355.0,253.3 365.5,264.9 360.5,282.0" fill="#6a6642" stroke="#6a6642" stroke-width="0.5"/><polygon points="365.5,264.9 355.0,253.3 355.9,250.4 371.9,238.4 381.8,249.4 379.9,262.9" fill="#6a6642" stroke="#6a6642" stroke-width="0.5"/><polygon points="379.1,268.3 381.8,249.4 402.8,244.1 402.8,266.2" fill="#7c8177" stroke="#7c8177" stroke-width="0.5"/><polygon points="402.8,266.2 402.8,248.6 425.2,248.6 427.7,262.3 420.2,269.8 407.0,270.3" fill="#7c8177" stroke="#7c8177" stroke-width="0.5"/><polygon points="427.7,262.3 425.2,248.6 429.4,239.4 443.7,237.6 452.7,249.6 446.3,266.1" fill="#7c8177" stroke="#7c8177" stroke-width="0.5"/><polygon points="446.5,265.5 452.7,249.6 467.5,248.0 475.0,267.7 474.4,268.6 462.2,274.6" fill="#7c8177" stroke="#7c8177" stroke-width="0.5"/><polygon points="475.0,267.7 467.5,248.0 472.6,241.7 480.2,241.2 494.1,256.8 491.5,262.6" fill="#8f8366" stroke="#8f8366" stroke-width="0.5"/><polygon points="491.5,262.6 494.1,256.8 504.1,251.0 514.3,254.3 517.3,270.9 505.5,281.5 503.0,281.0" fill="#3d7ea6" stroke="#3d7ea6" stroke-width="0.5"/><polygon points="517.3,270.9 514.3,254.3 527.0,246.0 535.5,251.1 535.5,274.5" fill="#1f4e6b" stroke="#1f4e6b" stroke-width="0.5"/><polygon points="535.5,275.8 535.5,251.1 550.8,248.0 555.5,266.6 546.8,275.2" fill="#1f4e6b" stroke="#1f4e6b" stroke-width="0.5"/><polygon points="576.0,247.5 576.0,268.0 555.5,266.5 550.7,247.5" fill="#1f4e6b" stroke="#1f4e6b" stroke-width="0.5"/><polygon points="4.1,278.6 23.8,268.7 29.1,273.6 29.7,293.0 21.4,298.8" fill="#1f4e6b" stroke="#1f4e6b" stroke-width="0.5"/><polygon points="29.7,293.0 29.1,273.6 49.9,271.7 51.3,282.9 38.3,294.1" fill="#1f4e6b" stroke="#1f4e6b" stroke-width="0.5"/><polygon points="51.3,282.9 49.9,271.7 51.1,269.7 65.6,266.8 75.9,273.3 76.8,277.0 67.2,292.3 64.2,293.0" fill="#3d7ea6" stroke="#3d7ea6" stroke-width="0.5"/><polygon points="82.8,303.7 67.2,292.3 76.8,277.0 93.6,285.5" fill="#dfcd9f" stroke="#dfcd9f" stroke-width="0.5"/><polygon points="76.8,277.0 75.9,273.3 88.5,259.7 104.8,270.1 105.6,272.8 101.1,284.0 93.6,285.5" fill="#d8c69a" stroke="#d8c69a" stroke-width="0.5"/><polygon points="101.1,284.0 105.6,272.8 130.1,274.7 132.8,284.6 128.7,295.3 106.7,291.9" fill="#b9c1b1" stroke="#b9c1b1" stroke-width="0.5"/><polygon points="132.8,284.6 130.1,274.7 132.4,269.1 152.5,265.4 160.7,285.3" fill="#bbc3b3" stroke="#bbc3b3" stroke-width="0.5"/><polygon points="163.6,281.5 175.9,261.1 187.9,268.4 177.9,288.4" fill="#a09a64" stroke="#a09a64" stroke-width="0.5"/><polygon points="179.6,291.5 177.9,288.4 187.9,268.4 195.7,267.6 203.1,289.8 192.3,297.1" fill="#8e8959" stroke="#8e8959" stroke-width="0.5"/><polygon points="203.1,289.8 195.7,267.6 198.9,264.5 220.8,267.9 221.6,280.9 210.7,290.6" fill="#8e8959" stroke="#8e8959" stroke-width="0.5"/><polygon points="221.6,280.9 220.7,265.5 243.8,265.5 249.2,273.0 237.8,288.2" fill="#6f6a45" stroke="#6f6a45" stroke-width="0.5"/><polygon points="241.1,302.0 237.8,288.2 249.2,273.0 257.9,274.1 265.3,288.9 259.2,298.6 244.1,303.2" fill="#6a6642" stroke="#6a6642" stroke-width="0.5"/><polygon points="265.3,288.9 257.9,274.1 267.0,265.8 283.1,269.4 281.8,289.5" fill="#9ea1a4" stroke="#9ea1a4" stroke-width="0.5"/><polygon points="281.4,296.6 283.1,269.4 291.8,263.3 305.5,275.7 305.0,284.8" fill="#6a6642" stroke="#6a6642" stroke-width="0.5"/><polygon points="305.0,284.8 305.5,275.7 319.8,267.4 328.6,270.2 328.9,294.7 315.3,294.1" fill="#6a6642" stroke="#6a6642" stroke-width="0.5"/><polygon points="328.8,292.3 328.6,270.2 338.5,264.7 355.2,285.2 353.3,289.4" fill="#6a6642" stroke="#6a6642" stroke-width="0.5"/><polygon points="360.5,282.0 365.5,264.9 385.7,262.0 381.7,286.8" fill="#7c8177" stroke="#7c8177" stroke-width="0.5"/><polygon points="381.7,286.8 384.8,267.8 402.8,266.2 407.0,270.3 401.9,289.3 391.7,293.9 385.5,292.4" fill="#7c8177" stroke="#7c8177" stroke-width="0.5"/><polygon points="401.9,289.3 407.0,270.3 420.2,269.8 429.0,291.2 421.3,299.2" fill="#7c8177" stroke="#7c8177" stroke-width="0.5"/><polygon points="429.0,291.2 420.2,269.8 427.7,262.3 445.4,265.9 438.4,290.0" fill="#7c8177" stroke="#7c8177" stroke-width="0.5"/><polygon points="438.4,290.0 445.7,265.0 462.2,274.6 460.8,285.8 443.8,292.9" fill="#7c8177" stroke="#7c8177" stroke-width="0.5"/><polygon points="460.8,285.8 462.2,274.6 474.4,268.6 486.3,292.3 468.7,295.0" fill="#8f8366" stroke="#8f8366" stroke-width="0.5"/><polygon points="485.6,291.0 474.4,268.6 475.0,267.7 491.5,262.6 503.0,281.0" fill="#3d7ea6" stroke="#3d7ea6" stroke-width="0.5"/><polygon points="505.5,281.5 517.3,270.9 536.9,274.8 532.6,292.3 528.0,294.6 510.8,290.2" fill="#1f4e6b" stroke="#1f4e6b" stroke-width="0.5"/><polygon points="547.2,303.6 532.6,292.3 536.7,275.7 546.8,275.2 559.6,291.1 549.2,303.4" fill="#1f4e6b" stroke="#1f4e6b" stroke-width="0.5"/><polygon points="576.0,268.0 576.0,289.6 559.6,291.1 546.8,275.2 555.5,266.5" fill="#1f4e6b" stroke="#1f4e6b" stroke-width="0.5"/><polygon points="0.0,310.8 0.0,278.0 4.1,278.6 21.4,298.8 20.3,301.7" fill="#1f4e6b" stroke="#1f4e6b" stroke-width="0.5"/><polygon points="30.1,319.1 20.3,301.7 21.4,298.8 29.7,293.0 38.3,294.1 52.0,312.3 47.4,318.1" fill="#1f4e6b" stroke="#1f4e6b" stroke-width="0.5"/><polygon points="52.0,312.3 38.3,294.1 51.3,282.9 64.2,293.0 53.6,311.8" fill="#1f4e6b" stroke="#1f4e6b" stroke-width="0.5"/><polygon points="53.6,311.8 64.2,293.0 67.2,292.3 82.8,303.7 84.1,308.3 73.8,319.4" fill="#3d7ea6" stroke="#3d7ea6" stroke-width="0.5"/><polygon points="84.1,308.3 82.8,303.7 93.6,285.5 101.1,284.0 106.7,291.9 101.7,314.2" fill="#dbc99d" stroke="#dbc99d" stroke-width="0.5"/><polygon points="102.0,313.0 106.7,291.9 128.7,295.3 130.6,302.3 108.7,315.7" fill="#a2a99b" stroke="#a2a99b" stroke-width="0.5"/><polygon points="130.4,301.3 128.7,295.3 132.8,284.6 155.8,285.2 155.0,307.3 153.9,307.9" fill="#b0b7a8" stroke="#b0b7a8" stroke-width="0.5"/><polygon points="155.0,307.3 155.9,281.9 163.6,281.5 177.9,288.4 179.6,291.5 166.2,309.4" fill="#959b8e" stroke="#959b8e" stroke-width="0.5"/><polygon points="166.2,309.4 179.6,291.5 192.3,297.1 193.0,310.3 177.0,322.3" fill="#9fa598" stroke="#9fa598" stroke-width="0.5"/><polygon points="193.0,310.3 192.3,297.1 203.1,289.8 210.7,290.6 218.8,306.2 206.5,318.5" fill="#77724a" stroke="#77724a" stroke-width="0.5"/><polygon points="210.7,290.6 221.6,280.9 237.8,288.2 241.1,302.0 229.5,308.2 218.8,306.2" fill="#6a6642" stroke="#6a6642" stroke-width="0.5"/><polygon points="251.0,320.9 244.1,303.2 259.2,298.6 273.2,314.9 270.8,318.8" fill="#6a6642" stroke="#6a6642" stroke-width="0.5"/><polygon points="273.2,314.9 259.2,298.6 265.3,288.9 286.2,289.6 287.1,300.7 278.9,312.5" fill="#6a6642" stroke="#6a6642" stroke-width="0.5"/><polygon points="287.1,300.7 286.6,294.0 305.0,284.8 315.3,294.1 304.5,310.8" fill="#6a6642" stroke="#6a6642" stroke-width="0.5"/><polygon points="307.1,319.6 304.5,310.8 315.3,294.1 326.9,294.6 331.3,312.2" fill="#6a6642" stroke="#6a6642" stroke-width="0.5"/><polygon points="331.0,311.0 326.4,292.6 353.2,289.4 356.8,303.0 346.9,314.2" fill="#6a6642" stroke="#6a6642" stroke-width="0.5"/><polygon points="356.8,303.0 353.2,289.4 355.2,285.2 360.5,282.0 381.7,286.8 385.5,292.4 371.2,308.6" fill="#7c8177" stroke="#7c8177" stroke-width="0.5"/><polygon points="374.9,319.6 371.2,308.6 385.5,292.4 391.7,293.9 398.6,317.8" fill="#7c8177" stroke="#7c8177" stroke-width="0.5"/><polygon points="398.7,318.4 391.7,293.9 401.9,289.3 421.3,299.2 420.9,308.7" fill="#7c8177" stroke="#7c8177" stroke-width="0.5"/><polygon points="420.9,308.7 421.3,299.2 429.0,291.2 438.4,290.0 443.8,292.9 450.1,309.0 441.6,317.0 424.2,312.7" fill="#7c8177" stroke="#7c8177" stroke-width="0.5"/><polygon points="450.1,309.0 443.8,292.9 460.8,285.8 468.7,295.0 462.4,310.5" fill="#7c8177" stroke="#7c8177" stroke-width="0.5"/><polygon points="462.4,310.5 468.7,295.0 484.9,292.5 490.4,309.0 483.8,316.3 467.5,317.1" fill="#3d7ea6" stroke="#3d7ea6" stroke-width="0.5"/><polygon points="490.4,309.0 484.6,291.6 503.0,281.0 505.5,281.5 510.8,290.3 505.6,310.9" fill="#1f4e6b" stroke="#1f4e6b" stroke-width="0.5"/><polygon points="504.8,313.9 510.8,290.2 528.0,294.6 522.9,312.4" fill="#1f4e6b" stroke="#1f4e6b" stroke-width="0.5"/><polygon points="534.3,321.1 522.9,312.4 528.0,294.6 532.6,292.3 547.2,303.6" fill="#1f4e6b" stroke="#1f4e6b" stroke-width="0.5"/><polygon points="576.0,289.6 576.0,318.0 563.4,318.6 549.2,303.4 559.6,291.1" fill="#1f4e6b" stroke="#1f4e6b" stroke-width="0.5"/><polygon points="0.0,321.4 0.0,310.8 20.3,301.7 30.1,319.1 21.1,332.8" fill="#1f4e6b" stroke="#1f4e6b" stroke-width="0.5"/><polygon points="22.2,331.2 30.1,319.1 47.4,318.1 51.1,336.1 39.9,346.9 37.7,346.7" fill="#1f4e6b" stroke="#1f4e6b" stroke-width="0.5"/><polygon points="51.1,336.1 47.4,318.1 52.0,312.3 53.6,311.8 73.8,319.4 76.1,334.6 66.3,340.5" fill="#1f4e6b" stroke="#1f4e6b" stroke-width="0.5"/><polygon points="76.1,334.6 73.8,319.4 84.1,308.3 99.8,313.6 91.9,335.6 83.7,337.5" fill="#3d7ea6" stroke="#3d7ea6" stroke-width="0.5"/><polygon points="91.9,335.6 100.3,312.3 108.7,315.7 116.7,328.8 104.0,341.5" fill="#b5a681" stroke="#b5a681" stroke-width="0.5"/><polygon points="116.7,328.8 108.7,315.7 129.6,303.0 132.7,332.2" fill="#9fa698" stroke="#9fa698" stroke-width="0.5"/><polygon points="132.3,329.0 129.4,301.1 153.9,307.9 147.3,326.2" fill="#969c90" stroke="#969c90" stroke-width="0.5"/><polygon points="147.3,326.2 153.9,307.9 155.0,307.3 166.2,309.4 177.0,322.3 176.9,324.5 158.4,336.9" fill="#8e9488" stroke="#8e9488" stroke-width="0.5"/><polygon points="176.9,324.5 177.0,322.3 193.0,310.3 206.5,318.5 208.0,327.6 199.1,338.9 187.1,337.5" fill="#898f83" stroke="#898f83" stroke-width="0.5"/><polygon points="208.0,327.6 206.5,318.5 218.8,306.2 229.5,308.2 229.5,333.3" fill="#6b6743" stroke="#6b6743" stroke-width="0.5"/><polygon points="229.5,333.3 229.5,308.2 241.1,302.0 244.1,303.2 251.0,320.9 246.4,332.4 236.0,337.6 232.4,336.5" fill="#6a6642" stroke="#6a6642" stroke-width="0.5"/><polygon points="246.4,332.4 251.0,320.9 270.8,318.8 273.1,337.3 266.5,342.5" fill="#6a6642" stroke="#6a6642" stroke-width="0.5"/><polygon points="273.1,337.3 270.8,318.8 273.2,314.9 278.9,312.5 296.5,328.6 291.8,340.0" fill="#6a6642" stroke="#6a6642" stroke-width="0.5"/><polygon points="278.9,312.5 287.1,300.7 304.5,310.8 307.4,320.5 296.5,328.6" fill="#6a6642" stroke="#6a6642" stroke-width="0.5"/><polygon points="305.7,320.0 329.6,312.7 329.6,346.1" fill="#7c8177" stroke="#7c8177" stroke-width="0.5"/><polygon points="329.6,339.2 329.6,310.7 346.9,314.2 351.3,329.7 346.5,336.4" fill="#7c8177" stroke="#7c8177" stroke-width="0.5"/><polygon points="351.3,329.7 346.9,314.2 356.8,303.0 371.2,308.6 374.9,319.6 371.2,328.7" fill="#7c8177" stroke="#7c8177" stroke-width="0.5"/><polygon points="375.4,337.5 371.2,328.7 374.9,319.6 399.1,317.8 402.4,337.5" fill="#7c8177" stroke="#7c8177" stroke-width="0.5"/><polygon points="402.4,337.5 399.2,318.2 420.9,308.7 424.2,312.7 421.7,337.5" fill="#7c8177" stroke="#7c8177" stroke-width="0.5"/><polygon points="421.7,337.5 424.2,312.7 441.6,317.0 444.1,331.6 425.7,340.3" fill="#7c8177" stroke="#7c8177" stroke-width="0.5"/><polygon points="444.1,331.6 441.6,317.0 450.1,309.0 462.4,310.5 467.5,317.1 464.6,327.9 450.3,335.1" fill="#8f8366" stroke="#8f8366" stroke-width="0.5"/><polygon points="464.6,327.9 467.5,317.1 483.8,316.3 489.8,336.8 473.1,338.4" fill="#3d7ea6" stroke="#3d7ea6" stroke-width="0.5"/><polygon points="490.1,337.9 483.8,316.3 490.4,309.0 508.4,311.3 507.2,335.8" fill="#1f4e6b" stroke="#1f4e6b" stroke-width="0.5"/><polygon points="507.1,337.0 508.3,313.6 522.9,312.4 534.3,321.1 536.5,331.4" fill="#1f4e6b" stroke="#1f4e6b" stroke-width="0.5"/><polygon points="535.4,326.3 534.3,321.1 547.2,303.6 549.2,303.4 563.4,318.6 552.0,330.2" fill="#1f4e6b" stroke="#1f4e6b" stroke-width="0.5"/><polygon points="576.0,318.0 576.0,348.1 555.8,341.5 552.0,330.2 563.4,318.6" fill="#1f4e6b" stroke="#1f4e6b" stroke-width="0.5"/><polygon points="0.0,350.8 0.0,321.4 19.3,331.8 9.6,349.3" fill="#1f4e6b" stroke="#1f4e6b" stroke-width="0.5"/><polygon points="21.6,359.5 9.6,349.3 20.6,329.6 37.7,346.7" fill="#1f4e6b" stroke="#1f4e6b" stroke-width="0.5"/><polygon points="39.9,346.9 51.1,336.1 66.3,340.5 65.0,366.5 49.1,363.3" fill="#1f4e6b" stroke="#1f4e6b" stroke-width="0.5"/><polygon points="65.0,366.1 66.3,340.5 76.1,334.6 83.7,337.5 86.6,365.0" fill="#1f4e6b" stroke="#1f4e6b" stroke-width="0.5"/><polygon points="86.8,366.9 83.7,337.5 91.9,335.6 104.0,341.5 108.7,356.7" fill="#3d7ea6" stroke="#3d7ea6" stroke-width="0.5"/><polygon points="108.7,356.7 104.0,341.5 116.7,328.8 129.6,331.5 130.9,344.6 113.0,358.4" fill="#b8a983" stroke="#b8a983" stroke-width="0.5"/><polygon points="130.9,344.6 129.4,329.5 147.3,326.2 158.4,336.9 158.1,345.0 144.8,354.9" fill="#8f9589" stroke="#8f9589" stroke-width="0.5"/><polygon points="158.1,345.0 158.4,336.9 176.9,324.5 187.1,337.5 174.8,356.2" fill="#9aa093" stroke="#9aa093" stroke-width="0.5"/><polygon points="176.3,361.9 174.8,356.2 187.1,337.5 199.1,338.9 207.6,357.8 191.2,369.4" fill="#7c8177" stroke="#7c8177" stroke-width="0.5"/><polygon points="207.6,357.8 199.1,338.9 208.0,327.6 229.5,333.3 232.4,336.5 210.4,358.4" fill="#7c8177" stroke="#7c8177" stroke-width="0.5"/><polygon points="220.5,367.9 210.4,358.4 232.4,336.5 236.0,337.6 242.4,357.9 237.0,365.7" fill="#7c8177" stroke="#7c8177" stroke-width="0.5"/><polygon points="242.4,357.9 236.0,337.6 246.4,332.4 266.5,342.5 263.8,358.8" fill="#7c8177" stroke="#7c8177" stroke-width="0.5"/><polygon points="263.8,358.8 266.5,342.5 273.1,337.3 291.8,340.0 294.7,345.9 292.6,362.3 286.1,366.7 266.2,362.3" fill="#7c8177" stroke="#7c8177" stroke-width="0.5"/><polygon points="294.7,345.9 291.8,340.0 296.5,328.6 306.6,321.1 325.8,342.0 324.4,345.3" fill="#7c8177" stroke="#7c8177" stroke-width="0.5"/><polygon points="292.6,362.3 294.7,345.9 324.4,345.3 325.7,356.7 321.9,363.3 310.5,370.1" fill="#7c8177" stroke="#7c8177" stroke-width="0.5"/><polygon points="325.7,356.7 324.4,345.3 326.9,339.6 346.5,336.4 358.5,359.1 351.2,364.5" fill="#6098b8" stroke="#6098b8" stroke-width="0.5"/><polygon points="358.5,359.1 346.5,336.4 351.3,329.7 371.2,328.7 375.4,337.5 371.9,353.8 365.6,359.0" fill="#7c8177" stroke="#7c8177" stroke-width="0.5"/><polygon points="371.9,353.8 375.4,337.5 402.4,337.5 398.7,359.7" fill="#7c8177" stroke="#7c8177" stroke-width="0.5"/><polygon points="399.5,361.4 398.7,359.7 402.4,337.5 421.7,337.5 425.7,340.3 429.7,356.9 416.0,367.8" fill="#7c8177" stroke="#7c8177" stroke-width="0.5"/><polygon points="429.7,356.9 425.7,340.3 444.1,331.6 450.3,335.1 455.0,358.4 445.8,361.9" fill="#8f8366" stroke="#8f8366" stroke-width="0.5"/><polygon points="455.2,359.2 450.3,335.1 464.6,327.9 473.1,338.4 465.5,355.4" fill="#3d7ea6" stroke="#3d7ea6" stroke-width="0.5"/><polygon points="465.5,355.4 473.1,338.4 491.3,336.7 487.1,361.2" fill="#1f4e6b" stroke="#1f4e6b" stroke-width="0.5"/><polygon points="486.8,362.8 491.1,337.7 508.1,335.7 514.1,357.8 504.2,365.7" fill="#1f4e6b" stroke="#1f4e6b" stroke-width="0.5"/><polygon points="514.1,357.8 508.4,336.7 531.3,332.4 536.6,356.8 529.1,360.8" fill="#1f4e6b" stroke="#1f4e6b" stroke-width="0.5"/><polygon points="536.6,356.8 529.7,324.9 552.0,330.2 555.8,341.5 541.0,357.4" fill="#1f4e6b" stroke="#1f4e6b" stroke-width="0.5"/><polygon points="576.0,348.1 576.0,362.9 552.1,367.3 541.0,357.4 555.8,341.5" fill="#1f4e6b" stroke="#1f4e6b" stroke-width="0.5"/><polygon points="0.0,375.1 0.0,350.8 9.6,349.3 21.6,359.5 22.1,370.1" fill="#1f4e6b" stroke="#1f4e6b" stroke-width="0.5"/><polygon points="22.1,370.1 21.6,359.5 37.7,346.7 39.9,346.9 49.1,363.3 31.4,379.4" fill="#1f4e6b" stroke="#1f4e6b" stroke-width="0.5"/><polygon points="62.6,396.0 33.5,396.0 31.4,379.4 49.1,363.3 64.6,366.4" fill="#1f4e6b" stroke="#1f4e6b" stroke-width="0.5"/><polygon points="96.4,396.0 62.6,396.0 64.7,366.2 88.4,364.9" fill="#1f4e6b" stroke="#1f4e6b" stroke-width="0.5"/><polygon points="116.8,396.0 96.4,396.0 88.6,366.0 108.7,356.7 113.0,358.4 121.8,373.7" fill="#3d7ea6" stroke="#3d7ea6" stroke-width="0.5"/><polygon points="121.8,373.7 113.0,358.4 130.9,344.6 144.8,354.9 144.4,365.8" fill="#b3a480" stroke="#b3a480" stroke-width="0.5"/><polygon points="157.8,396.0 116.8,396.0 121.8,373.7 144.4,365.8 157.1,379.5" fill="#3d7ea6" stroke="#3d7ea6" stroke-width="0.5"/><polygon points="157.1,379.5 144.4,365.8 144.8,354.9 158.1,345.0 174.8,356.2 176.3,361.9" fill="#9ba294" stroke="#9ba294" stroke-width="0.5"/><polygon points="193.5,396.0 157.8,396.0 157.1,379.5 176.3,361.9 191.2,369.4" fill="#9ba194" stroke="#9ba194" stroke-width="0.5"/><polygon points="216.9,396.0 193.5,396.0 191.2,369.4 207.6,357.8 210.4,358.4 220.5,367.9" fill="#6098b8" stroke="#6098b8" stroke-width="0.5"/><polygon points="251.3,396.0 216.9,396.0 220.5,367.9 237.0,365.7" fill="#82877c" stroke="#82877c" stroke-width="0.5"/><polygon points="254.0,396.0 251.3,396.0 237.0,365.7 242.4,357.9 263.8,358.8 266.2,362.3" fill="#7c8177" stroke="#7c8177" stroke-width="0.5"/><polygon points="284.8,396.0 254.0,396.0 266.2,362.3 286.1,366.7" fill="#7c8177" stroke="#7c8177" stroke-width="0.5"/><polygon points="310.5,396.0 284.8,396.0 286.1,366.7 292.6,362.3 310.5,370.1" fill="#7c8177" stroke="#7c8177" stroke-width="0.5"/><polygon points="343.4,396.0 310.5,396.0 310.5,370.1 321.9,363.3" fill="#7c8177" stroke="#7c8177" stroke-width="0.5"/><polygon points="343.1,395.7 321.9,363.3 325.7,356.7 351.2,364.5" fill="#7c8177" stroke="#7c8177" stroke-width="0.5"/><polygon points="381.7,396.0 343.0,396.0 351.2,364.5 358.5,359.1 365.6,359.0 381.9,391.5" fill="#6098b8" stroke="#6098b8" stroke-width="0.5"/><polygon points="381.9,391.5 365.6,359.0 371.9,353.8 398.7,359.7 399.5,361.4" fill="#475131" stroke="#475131" stroke-width="0.5"/><polygon points="421.3,396.0 381.7,396.0 381.9,391.5 399.5,361.4 416.0,367.8" fill="#8f8366" stroke="#8f8366" stroke-width="0.5"/><polygon points="438.9,396.0 421.3,396.0 416.0,367.8 429.7,356.9 445.8,361.9" fill="#3d7ea6" stroke="#3d7ea6" stroke-width="0.5"/><polygon points="474.2,396.0 438.9,396.0 445.8,361.9 456.1,357.9" fill="#3d7ea6" stroke="#3d7ea6" stroke-width="0.5"/><polygon points="474.8,396.0 474.2,396.0 456.5,358.7 465.5,355.4 488.8,361.7" fill="#3d7ea6" stroke="#3d7ea6" stroke-width="0.5"/><polygon points="510.3,396.0 474.8,396.0 488.3,363.0 504.2,365.7" fill="#1f4e6b" stroke="#1f4e6b" stroke-width="0.5"/><polygon points="527.1,396.0 510.3,396.0 504.2,365.7 514.1,357.8 529.1,360.8" fill="#1f4e6b" stroke="#1f4e6b" stroke-width="0.5"/><polygon points="548.1,396.0 527.1,396.0 529.1,360.8 536.6,356.8 541.0,357.4 552.1,367.3" fill="#1f4e6b" stroke="#1f4e6b" stroke-width="0.5"/><polygon points="576.0,362.9 576.0,396.0 548.1,396.0 552.1,367.3" fill="#1f4e6b" stroke="#1f4e6b" stroke-width="0.5"/><polygon points="33.5,396.0 0.0,396.0 0.0,375.1 22.1,370.1 31.4,379.4" fill="#1f4e6b" stroke="#1f4e6b" stroke-width="0.5"/></g><path d="M189.6,23.4 L213.0,0.0 M380.2,0.0 L375.6,23.0 M152.8,30.5 L152.8,18.5 M152.8,18.5 L158.4,13.4 M158.4,13.4 L179.6,22.1 M179.6,22.1 L184.7,21.0 M184.7,21.0 L189.6,23.4 M372.8,20.6 L398.0,22.5 M398.0,22.5 L400.4,35.9 M138.2,56.9 L139.6,42.9 M139.6,42.9 L140.3,42.7 M140.3,42.7 L152.8,30.5 M400.4,35.9 L408.3,42.1 M408.3,42.1 L424.3,32.8 M424.3,32.8 L436.1,53.0 M102.0,76.6 L105.7,63.0 M105.7,63.0 L111.4,57.8 M111.4,57.8 L126.4,64.8 M111.6,87.2 L102.0,76.6 M126.4,64.8 L138.2,56.9 M436.1,53.0 L442.4,53.2 M442.4,53.2 L448.7,60.0 M448.7,60.0 L444.7,77.5 M109.4,94.9 L111.6,87.2 M444.7,77.5 L449.1,82.7 M449.1,82.7 L462.3,83.8 M462.3,83.8 L467.0,92.0 M467.0,92.0 L459.9,106.3 M95.2,119.7 L90.8,101.1 M90.8,101.1 L109.4,94.9 M459.9,106.3 L464.1,112.5 M464.1,112.5 L481.6,112.5 M481.6,112.5 L485.7,128.1 M84.3,145.3 L85.2,125.5 M85.2,125.5 L95.2,119.7 M485.7,128.1 L490.2,130.9 M490.2,130.9 L492.5,139.0 M70.9,167.1 L65.2,154.6 M65.2,154.6 L70.3,146.3 M70.3,146.3 L85.5,144.2 M486.7,165.3 L488.2,173.4 M492.5,139.0 L503.7,147.6 M503.7,147.6 L502.7,154.6 M502.7,154.6 L486.7,165.3 M66.0,179.5 L65.8,177.4 M65.8,177.4 L70.9,167.1 M78.8,187.4 L66.0,179.5 M488.2,173.4 L500.5,181.7 M500.5,181.7 L501.4,184.3 M501.4,184.3 L486.0,200.9 M78.8,203.0 L78.8,187.4 M73.2,223.6 L75.7,202.3 M486.0,200.9 L491.8,209.8 M491.8,209.8 L487.9,221.4 M65.0,242.1 L67.1,228.1 M67.1,228.1 L73.2,223.6 M68.9,246.3 L65.0,242.1 M487.9,221.4 L491.4,230.3 M491.4,230.3 L501.8,233.5 M501.8,233.5 L504.1,251.0 M504.1,251.0 L494.1,256.8 M65.6,266.8 L68.9,246.3 M75.9,273.3 L65.6,266.8 M475.0,267.7 L474.4,268.6 M494.1,256.8 L491.5,262.6 M491.5,262.6 L475.0,267.7 M82.8,303.7 L67.2,292.3 M67.2,292.3 L76.8,277.0 M76.8,277.0 L75.9,273.3 M474.4,268.6 L486.3,292.3 M486.3,292.3 L468.7,295.0 M84.1,308.3 L82.8,303.7 M101.7,314.2 L84.1,308.3 M468.7,295.0 L462.4,310.5 M91.9,335.6 L100.3,312.3 M104.0,341.5 L91.9,335.6 M462.4,310.5 L467.5,317.1 M467.5,317.1 L464.6,327.9 M464.6,327.9 L450.3,335.1 M108.7,356.7 L104.0,341.5 M113.0,358.4 L108.7,356.7 M429.7,356.9 L416.0,367.8 M450.3,335.1 L455.0,358.4 M455.0,358.4 L445.8,361.9 M445.8,361.9 L429.7,356.9 M121.8,373.7 L113.0,358.4 M144.4,365.8 L121.8,373.7 M157.1,379.5 L144.4,365.8 M157.8,396.0 L157.1,379.5 M416.0,367.8 L421.3,396.0" fill="none" stroke="#283640" stroke-width="2.0" stroke-linecap="round"/></svg>