<svg xmlns="http://www.w3.org/2000/svg" width="630" height="630" viewBox="0 0 630 630"><rect width="630" height="630" fill="#c9d2bb"/><polygon points="86.6,315.0 91.5,264.0 109.8,216.2 177.5,142.6 218.7,115.1 264.7,94.6 315.0,88.1 409.9,117.9 456.0,138.2 493.2,172.9 516.2,218.1 529.6,266.0 535.9,315.0 538.5,366.0 489.8,454.4 410.5,513.3 366.3,539.9 266.1,529.4 218.8,514.7 176.0,489.3 135.8,457.9 109.5,414.0 91.2,366.1" fill="#e6dcc0"/><g stroke="#4a4230" stroke-width="1" stroke-linejoin="round"><polygon points="253.7,458.2 247.8,523.7 218.8,514.7 176.0,489.3 167.0,482.3 228.4,440.1" fill="#b3a684"/><polygon points="374.8,386.1 330.8,383.1 299.0,328.3 300.6,320.1 331.9,298.0 381.7,315.7 390.6,367.9" fill="#d9c08a"/><polygon points="536.1,319.2 538.5,366.0 494.5,445.8 448.2,370.7 480.7,317.0 496.7,313.8" fill="#d8cdb0"/><polygon points="162.3,159.1 177.5,142.6 218.7,115.1 245.3,103.3 268.6,180.3 261.1,197.1 207.4,204.3" fill="#cdbf9e"/><polygon points="328.2,473.1 297.5,448.5 303.6,406.2 330.8,383.1 374.8,386.1 380.4,423.3" fill="#c2b48f"/><polygon points="381.7,315.7 331.9,298.0 329.1,248.1 377.4,213.6 388.1,216.8 401.4,294.0" fill="#c2b48f"/><polygon points="325.0,535.5 266.1,529.4 247.8,523.7 253.7,458.2 297.5,448.5 328.2,473.1 332.8,492.0" fill="#b3a684"/><polygon points="362.2,102.9 409.9,117.9 453.5,137.1 411.8,210.5 388.1,216.8 377.4,213.6 346.5,159.4" fill="#d8cdb0"/><polygon points="450.8,483.4 410.5,513.3 366.3,539.9 325.0,535.5 332.8,492.0 446.6,481.4" fill="#dfd6c0"/><polygon points="401.4,294.0 388.1,216.8 411.8,210.5 453.3,232.9 448.8,292.7" fill="#cdbf9e"/><polygon points="86.6,315.0 91.5,264.0 105.6,227.3 178.2,260.8 187.7,288.2 149.8,326.0 87.5,324.8" fill="#d8cdb0"/><polygon points="494.5,445.8 489.8,454.4 450.8,483.4 446.6,481.4 380.4,423.3 374.8,386.1 390.6,367.9 448.2,370.7" fill="#b9a98c"/><polygon points="245.3,103.3 264.7,94.6 315.0,88.1 362.2,102.9 346.5,159.4 268.6,180.3" fill="#cdbf9e"/><polygon points="299.0,328.3 330.8,383.1 303.6,406.2 238.1,374.3 238.6,372.5" fill="#c2b48f"/><polygon points="238.6,372.5 238.1,374.3 218.8,393.7 173.5,387.1 149.8,326.0 187.7,288.2 211.6,295.8" fill="#cdbf9e"/><polygon points="300.6,320.1 299.0,328.3 238.6,372.5 211.6,295.8 251.8,281.7" fill="#cdbf9e"/><polygon points="121.0,433.1 109.5,414.0 91.2,366.1 87.5,324.8 149.8,326.0 173.5,387.1" fill="#c2b48f"/><polygon points="511.8,209.3 516.2,218.1 529.6,266.0 535.9,315.0 536.1,319.2 496.7,313.8 491.0,224.8" fill="#c2b48f"/><polygon points="331.9,298.0 300.6,320.1 251.8,281.7 274.6,227.8 329.1,248.1" fill="#c2b48f"/><polygon points="228.4,440.1 167.0,482.3 135.8,457.9 121.0,433.1 173.5,387.1 218.8,393.7" fill="#b9a98c"/><polygon points="105.6,227.3 109.8,216.2 162.3,159.1 207.4,204.3 178.2,260.8" fill="#b3a684"/><polygon points="207.4,204.3 261.1,197.1 274.6,227.8 251.8,281.7 211.6,295.8 187.7,288.2 178.2,260.8" fill="#d8cdb0"/><polygon points="303.6,406.2 297.5,448.5 253.7,458.2 228.4,440.1 218.8,393.7 238.1,374.3" fill="#cdbf9e"/><polygon points="453.5,137.1 456.0,138.2 493.2,172.9 511.8,209.3 491.0,224.8 453.3,232.9 411.8,210.5" fill="#dfd6c0"/><polygon points="446.6,481.4 332.8,492.0 328.2,473.1 380.4,423.3" fill="#d8cdb0"/><polygon points="480.7,317.0 448.2,370.7 390.6,367.9 381.7,315.7 401.4,294.0 448.8,292.7" fill="#c2b48f"/><polygon points="496.7,313.8 480.7,317.0 448.8,292.7 453.3,232.9 491.0,224.8" fill="#cdbf9e"/><polygon points="377.4,213.6 329.1,248.1 274.6,227.8 261.1,197.1 268.6,180.3 346.5,159.4" fill="#cdbf9e"/></g><g fill="#7d6c52" stroke="#4a3e2e" stroke-width="0.5" stroke-linejoin="round"><polygon points="180.0,489.9 176.9,488.0 169.6,482.4 173.1,479.9"/><polygon points="181.3,485.9 176.1,478.3 181.5,474.6 186.7,482.2"/><polygon points="183.8,472.3 186.0,470.9 191.8,479.4 189.6,480.8"/><polygon points="186.9,493.5 186.5,493.3 183.6,489.0 193.1,482.4 196.3,487.1"/><polygon points="206.1,505.4 199.8,501.7 203.1,496.1 208.4,503.8"/><polygon points="197.2,499.9 190.2,495.7 198.6,490.0 201.0,493.5"/><polygon points="197.4,463.4 209.3,455.2 211.0,457.7 199.1,465.9"/><polygon points="212.9,460.7 217.8,467.7 212.0,471.7 207.2,464.7"/><polygon points="209.5,473.9 206.0,476.2 200.8,468.7 204.2,466.3"/><polygon points="188.7,469.5 194.6,465.5 199.1,472.0 193.3,476.0"/><polygon points="201.2,474.4 203.7,478.0 197.2,482.4 194.7,478.9"/><polygon points="222.8,493.1 211.0,501.2 208.0,496.7 219.8,488.6"/><polygon points="205.4,494.0 199.0,484.8 202.1,482.7 208.4,491.9"/><polygon points="205.4,481.0 211.7,476.7 217.4,485.1 211.1,489.4"/><polygon points="224.5,477.8 231.2,487.5 226.3,490.8 219.7,481.2"/><polygon points="220.0,470.2 223.0,474.7 217.3,478.6 214.2,474.2"/><polygon points="221.2,513.7 219.5,513.2 209.2,507.1 214.3,503.6"/><polygon points="221.3,507.7 217.2,501.8 224.1,497.0 228.2,503.0"/><polygon points="225.8,514.6 223.0,510.6 230.3,505.6 233.1,509.6"/><polygon points="240.1,519.7 228.9,516.3 234.9,512.1"/><polygon points="247.3,510.4 246.3,521.5 244.9,521.0 239.9,513.8 246.5,509.2"/><polygon points="232.2,502.2 227.2,495.0 233.5,490.7 238.5,497.9"/><polygon points="238.0,510.9 234.1,505.3 240.7,500.8 244.5,506.4"/><polygon points="247.1,478.2 237.1,477.3 238.0,466.3 238.6,465.9"/><polygon points="233.5,477.4 228.2,476.9 226.2,474.0 234.3,468.4"/><polygon points="251.4,459.3 250.0,475.1 242.2,463.8 250.1,458.3"/><polygon points="249.0,491.3 247.7,504.9 241.8,496.3"/><polygon points="237.3,490.1 230.5,480.2 238.1,480.9"/><polygon points="249.6,482.3 249.2,486.7 240.6,492.6 241.6,481.6"/><polygon points="226.9,442.6 228.4,441.6 234.6,446.1 231.9,449.9"/><polygon points="236.8,448.5 246.7,455.6 239.9,460.3 234.2,452.1"/><polygon points="219.8,463.5 212.9,453.4 218.8,449.4 225.7,459.4"/><polygon points="221.8,446.7 224.7,444.7 232.1,455.6 229.2,457.6"/><polygon points="224.5,470.8 222.0,467.1 234.0,458.8 236.6,462.5"/><polygon points="526.8,378.5 517.1,396.2 500.4,387.0 510.2,369.3"/><polygon points="532.4,328.9 534.3,365.0 530.9,371.1 514.2,361.9"/><polygon points="481.2,324.3 483.3,320.8 496.9,318.1 526.6,322.1 515.1,343.0"/><polygon points="471.8,339.7 476.8,331.5 511.0,350.3 506.4,358.8"/><polygon points="493.0,383.0 477.6,374.5 486.9,357.6 502.3,366.1"/><polygon points="470.3,370.7 457.2,363.5 467.4,346.7 479.8,353.5"/><polygon points="513.0,403.6 494.3,437.4 481.8,417.1 508.0,400.8"/><polygon points="467.5,395.1 452.4,370.6 452.9,369.8 474.8,381.9"/><polygon points="477.3,409.9 472.5,402.1 481.3,386.1 499.6,396.2"/><polygon points="229.3,113.2 243.7,106.7 246.0,114.2 231.0,118.7"/><polygon points="247.6,118.6 252.2,133.8 247.5,135.2 242.9,120.0"/><polygon points="243.0,136.3 236.8,138.2 232.3,123.5 238.6,121.6"/><polygon points="208.9,125.3 220.2,117.8 224.3,116.0 227.6,126.9 210.9,131.9"/><polygon points="229.6,132.4 231.7,139.4 214.5,144.6 212.4,137.6"/><polygon points="197.3,132.8 203.8,128.4 209.2,146.2 202.0,148.4"/><polygon points="185.7,140.2 192.6,135.6 197.0,150.2 189.4,152.5"/><polygon points="175.4,148.1 178.9,144.3 181.5,142.5 185.0,154.2 177.9,156.4"/><polygon points="164.6,159.1 172.3,150.8 174.4,158.0 166.0,160.5"/><polygon points="193.6,185.7 203.2,176.2 208.3,181.3"/><polygon points="206.2,173.6 211.5,168.3 220.5,177.3 212.4,179.7"/><polygon points="214.9,165.3 222.3,157.9 227.4,174.9 225.2,175.5"/><polygon points="210.0,201.6 208.3,201.8 195.9,189.4 205.5,186.6"/><polygon points="220.1,200.2 214.8,201.0 210.0,185.1 215.1,183.6"/><polygon points="233.8,197.8 225.3,198.9 220.3,182.7 228.5,180.2"/><polygon points="189.9,184.2 184.0,178.3 190.6,171.7 193.4,180.8"/><polygon points="181.4,174.3 170.9,163.7 185.8,159.2 188.3,167.5"/><polygon points="198.3,155.6 219.0,149.3 220.0,152.5 207.5,164.9"/><polygon points="190.8,157.4 191.8,157.0 204.0,169.2 196.6,176.5"/><polygon points="235.5,186.9 234.6,183.9 249.9,179.3 250.8,182.2"/><polygon points="234.0,179.4 231.7,171.7 245.5,167.5 247.9,175.2"/><polygon points="254.0,195.5 239.5,197.4 237.5,190.9 251.4,186.7"/><polygon points="265.0,177.0 266.0,180.1 259.4,194.9 259.1,194.9 254.7,180.1"/><polygon points="260.7,162.7 263.6,172.3 253.2,175.4 250.3,165.9"/><polygon points="253.2,138.6 256.2,148.5 244.5,152.0 241.5,142.1"/><polygon points="258.1,152.8 259.7,158.2 247.0,162.1 245.4,156.7"/><polygon points="242.9,163.3 229.9,167.2 228.2,161.7 241.2,157.7"/><polygon points="227.3,156.9 224.3,147.3 236.4,143.7 239.3,153.3"/><polygon points="373.7,398.9 375.8,413.2 359.7,415.6 358.1,413.8"/><polygon points="377.4,418.2 378.0,422.5 371.3,428.8 363.2,420.3"/><polygon points="365.1,387.5 373.0,388.1 373.6,392.0 367.6,397.7 361.3,391.2"/><polygon points="364.0,400.5 353.9,410.2 348.3,404.3 358.3,394.7"/><polygon points="330.4,386.1 331.5,385.3 342.2,386.0 341.4,397.6"/><polygon points="346.7,386.5 358.9,387.4 345.7,400.0"/><polygon points="337.6,399.9 343.7,406.2 336.7,412.9 330.6,406.5"/><polygon points="320.1,395.2 327.1,389.2 334.3,396.7 327.6,403.1"/><polygon points="305.5,411.9 306.1,407.6 316.5,398.8 321.6,404.1 309.3,415.9"/><polygon points="325.3,408.6 332.3,415.9 320.5,427.1 313.5,419.8"/><polygon points="300.3,447.0 302.7,430.8 315.4,432.6"/><polygon points="302.6,426.2 304.0,417.0 314.3,427.8"/><polygon points="328.0,469.6 318.6,462.0 324.9,454.2 335.4,462.6"/><polygon points="328.6,449.9 335.9,440.9 346.3,451.8 339.3,458.5"/><polygon points="314.4,458.4 304.6,450.6 314.1,441.5 321.7,449.4"/><polygon points="317.7,437.5 325.8,429.8 332.3,436.6 325.3,445.4"/><polygon points="330.3,426.3 346.6,410.7 351.4,415.6 335.0,431.3"/><polygon points="355.7,419.7 367.3,431.9 361.2,437.6 349.6,425.5"/><polygon points="357.0,441.6 350.5,447.8 339.0,435.7 345.5,429.5"/><polygon points="368.6,223.7 377.9,217.0 385.4,219.2 386.9,227.6 369.7,230.5"/><polygon points="388.8,232.3 391.1,245.3 386.5,246.1 384.3,233.1"/><polygon points="382.0,246.3 372.2,247.9 370.2,236.1 379.9,234.5"/><polygon points="391.2,249.9 392.2,256.1 374.2,259.2 373.2,253.0"/><polygon points="393.0,261.5 394.2,269.0 376.7,272.1 375.4,264.5"/><polygon points="335.0,246.1 345.9,238.3 349.6,243.6"/><polygon points="350.1,236.4 363.3,227.0 365.5,239.9 354.0,241.9"/><polygon points="348.8,248.2 357.0,246.8 359.4,260.5 351.2,261.9"/><polygon points="361.6,245.6 366.9,244.7 369.4,259.2 364.1,260.1"/><polygon points="369.5,264.3 371.0,272.9 354.0,275.8 352.5,267.3"/><polygon points="333.7,279.4 333.1,268.3 346.7,267.5 348.3,276.9"/><polygon points="332.7,262.6 332.1,251.3 343.6,249.4 345.7,261.8"/><polygon points="344.0,294.1 348.2,282.4 355.3,281.2 357.1,291.8"/><polygon points="359.7,305.5 342.1,299.2 358.2,296.4"/><polygon points="337.7,297.6 334.1,296.3 333.4,284.7 342.9,283.0"/><polygon points="362.4,289.6 360.9,280.8 379.2,277.6 380.7,286.5"/><polygon points="369.4,309.1 364.4,307.4 362.2,294.9 366.8,294.1"/><polygon points="380.8,312.1 374.7,309.9 372.0,294.3 381.7,292.6 384.4,308.1"/><polygon points="398.6,294.3 388.9,305.0 387.4,296.3"/><polygon points="385.1,276.5 395.1,274.7 397.7,289.6 387.7,291.4"/><polygon points="251.2,509.3 251.8,502.4 262.8,503.4 262.2,510.3"/><polygon points="251.7,498.7 252.1,494.9 263.9,495.9 263.5,499.7"/><polygon points="267.7,496.8 273.9,497.4 272.7,511.1 266.5,510.5"/><polygon points="252.5,491.5 253.4,481.8 258.9,482.3 258.1,492.0"/><polygon points="262.2,482.3 265.5,482.6 264.5,492.9 261.2,492.6"/><polygon points="268.7,483.3 275.5,483.9 274.6,493.3 267.9,492.7"/><polygon points="250.1,517.6 250.5,513.1 261.7,514.1 261.3,518.7"/><polygon points="260.8,526.2 249.4,522.6 249.6,520.9 261.2,521.9"/><polygon points="271.3,527.7 266.5,527.2 264.5,526.6 265.6,514.9 272.4,515.5"/><polygon points="277.4,507.6 278.6,494.5 284.6,495.0 283.4,508.2"/><polygon points="278.4,490.7 279.0,484.0 286.1,484.6 285.5,491.3"/><polygon points="289.8,485.5 302.8,486.6 302.2,492.8 289.3,491.6"/><polygon points="302.2,496.8 301.0,510.1 296.9,509.7 298.1,496.4"/><polygon points="293.1,509.2 287.6,508.7 288.8,495.8 294.2,496.3"/><polygon points="292.4,519.1 293.0,512.9 300.9,513.6 300.3,519.8"/><polygon points="299.1,531.0 291.4,530.2 292.1,522.6 299.8,523.3"/><polygon points="275.7,520.1 276.5,511.2 281.0,511.6 280.2,520.6"/><polygon points="284.1,512.1 289.7,512.6 288.8,521.3 283.4,520.8"/><polygon points="287.7,529.7 275.3,528.4 275.7,523.5 288.2,524.8"/><polygon points="304.6,514.5 305.3,507.2 315.8,508.2 315.1,516.4"/><polygon points="319.9,508.4 327.8,509.1 326.1,518.6 319.1,517.3"/><polygon points="307.4,531.7 302.9,531.3 304.0,518.6 309.6,519.6"/><polygon points="323.6,533.7 311.1,532.3 311.8,528.1 324.2,530.3"/><polygon points="312.6,524.6 313.4,520.1 325.5,522.3 324.7,526.8"/><polygon points="320.7,504.8 315.6,504.4 316.4,495.5 321.5,496.0"/><polygon points="330.3,496.8 328.7,505.6 323.9,505.1 324.7,496.3"/><polygon points="317.4,487.7 330.1,488.8 330.9,492.0 330.7,493.3 317.0,492.1"/><polygon points="305.1,503.4 305.7,496.5 313.0,497.2 312.4,504.0"/><polygon points="306.0,493.2 306.6,486.5 313.9,487.1 313.3,493.9"/><polygon points="326.6,474.8 329.1,484.9 320.7,484.2 321.6,474.4"/><polygon points="309.3,483.3 304.3,482.9 305.2,472.7 310.2,473.1"/><polygon points="317.1,484.1 312.7,483.7 313.6,473.4 318.1,473.8"/><polygon points="306.8,458.6 317.3,467.0 315.1,469.8 305.8,468.9"/><polygon points="320.3,468.0 325.1,471.8 317.8,471.2"/><polygon points="301.9,473.4 301.0,482.8 297.0,482.5 297.8,473.0"/><polygon points="293.5,481.6 284.1,480.7 284.9,472.5 294.2,473.3"/><polygon points="299.1,452.4 302.9,455.5 301.6,469.8 297.5,469.4"/><polygon points="286.4,452.9 295.3,450.9 294.5,459.4 285.9,458.6"/><polygon points="294.3,463.0 293.7,469.4 284.9,468.6 285.5,462.2"/><polygon points="261.4,458.1 265.9,457.2 268.0,466.7 263.6,467.7"/><polygon points="254.3,469.7 255.2,459.5 258.3,458.9 260.4,468.4"/><polygon points="267.6,469.8 268.9,469.6 271.2,480.3 266.7,479.8"/><polygon points="253.8,478.2 254.2,473.3 264.2,471.1 263.5,479.1"/><polygon points="269.3,456.6 274.7,455.4 277.2,466.7 271.4,466.2"/><polygon points="278.0,454.5 282.9,453.4 281.6,467.3 280.9,467.3"/><polygon points="281.0,470.9 280.1,480.5 274.6,480.0 272.4,470.1"/><polygon points="419.8,126.9 447.6,139.1 440.4,151.7 414.2,136.8"/><polygon points="436.2,159.0 430.8,168.6 404.5,153.7 410.0,144.1"/><polygon points="426.6,175.9 418.1,190.9 391.9,176.0 400.4,161.0"/><polygon points="386.6,115.0 408.4,121.9 412.1,123.5 401.2,142.7 378.3,129.6"/><polygon points="364.5,107.3 379.6,112.0 371.3,126.5 360.8,120.6"/><polygon points="367.2,162.0 352.5,153.6 359.4,128.6 379.7,140.1"/><polygon points="397.1,149.9 384.6,171.9 374.4,166.2 387.0,144.2"/><polygon points="362.7,181.9 350.8,160.9 368.8,171.2"/><polygon points="383.1,210.9 380.2,210.1 367.6,187.9 374.5,175.8 396.1,188.1"/><polygon points="414.6,198.0 409.3,207.3 391.5,212.1 403.2,191.6"/><polygon points="332.5,506.9 334.8,494.1 340.1,493.6 341.3,506.1"/><polygon points="329.8,523.6 331.9,511.9 341.4,511.0 342.4,522.4"/><polygon points="343.9,535.1 327.8,533.4 328.6,528.7 343.2,527.4"/><polygon points="347.5,524.2 347.0,518.5 361.5,517.1 362.1,522.8"/><polygon points="363.1,537.0 348.8,535.5 348.2,528.9 362.2,527.6"/><polygon points="382.4,527.7 367.7,536.5 367.0,528.2 382.3,526.7"/><polygon points="366.8,523.6 366.2,516.9 381.0,515.5 381.7,522.2"/><polygon points="347.1,513.4 346.1,502.5 358.9,501.3 359.9,512.2"/><polygon points="344.9,497.7 344.4,492.9 358.7,491.6 359.2,496.4"/><polygon points="379.6,502.6 380.4,510.5 365.3,511.9 364.6,504.0"/><polygon points="363.4,491.7 378.6,490.3 379.3,497.5 364.0,498.9"/><polygon points="394.5,520.0 386.9,524.5 385.4,508.3 393.3,507.6"/><polygon points="411.2,509.9 409.2,511.4 399.2,517.4 398.2,506.9 410.8,505.8"/><polygon points="384.9,503.3 383.6,489.8 391.8,489.0 393.1,502.5"/><polygon points="397.2,488.9 408.6,487.8 409.8,500.6 398.4,501.7"/><polygon points="425.3,498.6 416.1,505.5 414.4,487.4 424.2,486.5"/><polygon points="446.1,483.9 430.4,495.5 429.5,485.4"/><polygon points="400.9,272.4 399.4,264.0 418.6,260.7 420.1,269.1"/><polygon points="398.0,258.3 397.1,252.5 417.0,249.1 418.0,254.9"/><polygon points="414.4,276.0 421.5,274.8 424.2,290.7 414.8,290.9"/><polygon points="403.5,291.5 401.1,278.0 409.2,276.6 409.6,291.4"/><polygon points="422.1,248.0 429.3,246.7 431.9,261.8 424.4,261.2"/><polygon points="434.0,245.8 450.2,243.0 449.6,251.1 434.7,250.0"/><polygon points="449.3,255.8 448.7,263.2 436.8,262.3 435.5,254.7"/><polygon points="446.9,281.6 446.3,290.1 429.7,290.5 428.7,284.8"/><polygon points="433.4,278.8 427.5,279.8 425.1,266.1 434.3,266.8"/><polygon points="448.4,267.8 447.8,276.4 438.1,278.1 438.9,267.1"/><polygon points="423.8,220.4 437.5,227.8 430.4,240.9 427.4,241.5"/><polygon points="442.6,229.6 451.0,234.2 450.6,238.2 436.6,240.6"/><polygon points="413.1,235.2 420.9,233.9 422.6,243.3 414.8,244.6"/><polygon points="396.0,247.3 394.6,239.0 408.6,236.6 410.1,244.9"/><polygon points="410.1,213.5 411.5,213.1 417.4,216.4 419.7,229.5 413.0,230.6"/><polygon points="391.9,224.7 390.9,218.6 405.3,214.7 406.5,222.2"/><polygon points="393.4,234.3 392.5,229.3 407.6,226.7 408.4,231.7"/><polygon points="100.4,252.5 107.9,233.0 128.1,242.3 119.3,261.3"/><polygon points="94.5,271.5 95.1,264.8 97.1,259.7 116.5,268.6 111.5,279.4"/><polygon points="135.4,245.1 152.1,252.8 146.7,264.6 130.0,256.9"/><polygon points="142.9,271.5 134.6,289.5 118.9,282.2 127.2,264.2"/><polygon points="90.6,307.8 93.5,278.8 102.2,282.8"/><polygon points="123.2,314.2 119.9,321.2 93.0,320.7 100.8,303.8"/><polygon points="108.6,286.5 131.4,297.0 126.8,306.8 104.0,296.3"/><polygon points="167.8,302.1 148.1,321.8 129.1,321.4 143.2,290.8"/><polygon points="178.7,292.0 174.2,296.4 146.1,283.4 148.5,278.0"/><polygon points="159.0,256.6 174.8,263.9 182.0,284.8 152.3,271.1"/><polygon points="433.6,378.8 432.8,394.8 422.9,400.9 416.0,389.6"/><polygon points="404.6,371.8 430.1,373.0 412.2,384.1"/><polygon points="440.3,373.2 446.5,373.5 452.5,383.3 439.4,391.4"/><polygon points="380.6,397.0 379.2,387.4 392.4,372.1 396.3,372.3 403.0,383.2"/><polygon points="390.9,400.5 407.3,390.3 416.0,404.4 399.5,414.5"/><polygon points="386.0,424.3 383.1,421.8 380.7,405.3 384.1,403.1 394.1,419.4"/><polygon points="435.2,466.0 429.6,461.1 447.2,441.0 455.0,453.8"/><polygon points="464.7,468.6 450.4,479.3 448.6,478.4 440.7,471.5 459.4,460.0"/><polygon points="423.5,455.9 412.7,446.4 425.3,432.0 436.2,441.5"/><polygon points="428.7,426.2 435.1,419.0 444.4,434.0 441.5,437.4"/><polygon points="406.9,442.4 390.9,428.4 400.5,422.5 410.3,438.5"/><polygon points="406.8,419.6 426.5,407.4 430.6,414.1 414.7,432.2"/><polygon points="480.8,456.1 470.6,463.8 458.9,444.9 469.7,438.2"/><polygon points="491.1,445.9 487.5,452.4 486.9,452.8 475.1,433.7 481.2,430.0"/><polygon points="448.4,393.0 455.6,388.5 465.7,404.9 458.5,409.4"/><polygon points="442.3,418.8 432.7,403.2 443.0,396.8 452.6,412.5"/><polygon points="454.4,439.4 445.3,424.7 453.2,419.8 462.3,434.5"/><polygon points="458.8,416.7 468.9,410.5 477.6,424.7 467.6,430.9"/><polygon points="332.4,125.1 313.2,119.8 329.8,115.4"/><polygon points="345.8,128.8 337.9,126.6 334.6,114.2 341.4,112.4"/><polygon points="357.8,108.2 351.7,130.2 351.6,130.1 346.5,111.2"/><polygon points="340.6,158.7 323.3,163.3 322.3,159.5 339.6,154.9"/><polygon points="321.7,154.4 319.4,145.8 335.3,141.5 337.6,150.1"/><polygon points="350.1,137.1 344.8,156.4 340.3,139.7"/><polygon points="321.3,139.7 317.6,140.7 313.3,124.9 324.6,128.1"/><polygon points="344.8,133.6 326.7,138.4 329.3,129.2"/><polygon points="327.4,94.9 342.4,99.6 340.0,107.3 331.3,109.6"/><polygon points="347.0,100.0 358.1,103.5 344.8,107.1"/><polygon points="325.1,106.2 326.5,111.3 310.7,115.6 309.3,110.4"/><polygon points="305.3,92.5 314.7,91.2 320.9,93.2 323.0,101.2 308.6,105.0"/><polygon points="267.1,165.1 262.7,150.7 272.5,147.7 276.9,162.1"/><polygon points="277.6,145.7 284.0,143.8 288.6,159.0 282.2,160.9"/><polygon points="291.7,171.0 270.6,176.6 268.8,170.7 289.7,164.4"/><polygon points="302.7,147.7 291.2,150.8 288.7,142.3 300.1,138.9"/><polygon points="311.4,135.0 314.0,145.1 307.2,146.9 304.2,137.2"/><polygon points="302.4,168.8 297.0,170.2 292.5,155.4 298.4,153.8"/><polygon points="314.4,150.2 318.1,163.9 307.3,166.8 303.7,153.1"/><polygon points="294.7,134.7 280.3,139.0 277.0,128.1 291.4,123.7"/><polygon points="274.6,123.2 273.2,118.8 289.3,113.9 290.7,118.3"/><polygon points="304.4,109.2 306.2,115.9 295.3,118.8 293.4,112.5"/><polygon points="307.0,120.4 309.8,130.8 300.2,133.7 297.0,123.1"/><polygon points="291.2,93.7 299.6,92.6 302.8,104.9 295.3,107.2"/><polygon points="278.3,95.5 286.1,94.5 290.4,108.5 282.9,110.8"/><polygon points="266.9,96.9 273.0,96.1 278.0,112.4 272.2,114.2"/><polygon points="248.1,104.6 262.2,98.3 264.3,105.1 249.6,109.6"/><polygon points="265.3,110.3 268.4,120.8 254.9,124.9 251.7,114.5"/><polygon points="270.7,125.5 272.1,130.0 257.0,134.6 255.6,130.0"/><polygon points="273.1,134.6 275.1,141.3 260.7,145.6 258.7,139.0"/><polygon points="287.2,395.0 278.5,390.8 285.3,377.0 294.6,389.7"/><polygon points="305.0,402.4 303.3,403.9 291.3,398.1 298.2,393.0"/><polygon points="261.2,383.0 256.9,380.9 264.7,364.9 269.0,367.0"/><polygon points="273.4,388.4 266.0,384.8 273.4,369.7 280.7,373.3"/><polygon points="266.3,360.9 269.6,354.1 279.2,367.2"/><polygon points="252.5,378.1 242.6,373.2 261.7,359.2"/><polygon points="312.9,394.2 308.2,398.2 294.3,379.2 299.3,375.5"/><polygon points="323.1,375.0 327.4,382.5 317.5,390.9 311.9,383.2"/><polygon points="316.0,362.9 320.3,370.4 308.8,378.9 303.7,371.9"/><polygon points="281.4,362.2 272.9,350.7 280.1,345.4 288.6,357.0"/><polygon points="298.2,369.6 290.5,375.2 284.1,366.5 291.8,360.9"/><polygon points="297.7,352.1 293.1,354.7 283.9,342.2 288.1,339.1"/><polygon points="298.2,332.0 306.7,346.5 301.7,349.4 292.2,336.4"/><polygon points="309.2,351.1 313.3,358.2 302.1,366.4 296.4,358.5"/><polygon points="212.4,306.6 216.4,317.9 205.0,321.9 201.1,310.5"/><polygon points="194.6,293.1 209.7,297.8 210.9,301.4 199.0,305.6"/><polygon points="176.9,303.1 188.3,291.8 193.1,305.3 179.4,310.1"/><polygon points="195.6,309.7 200.8,324.3 197.1,325.6 192.0,311.0"/><polygon points="192.7,326.6 185.5,329.1 180.7,315.4 187.9,312.9"/><polygon points="157.7,338.5 153.1,326.7 157.9,321.9 170.1,334.1"/><polygon points="161.5,317.9 172.4,307.0 176.3,318.1 165.5,321.9"/><polygon points="178.3,322.3 181.4,331.0 175.8,332.9 168.6,325.7"/><polygon points="167.8,365.2 166.3,361.3 186.4,353.5 188.1,358.1"/><polygon points="164.6,356.1 159.9,343.8 171.2,339.8 175.5,351.9"/><polygon points="175.7,337.4 180.7,335.7 185.3,348.9 180.4,350.8"/><polygon points="174.2,382.1 169.4,369.9 176.9,367.3 181.2,379.6"/><polygon points="181.6,365.8 189.8,362.9 194.1,375.0 185.8,377.9"/><polygon points="198.8,388.3 179.2,385.5 195.8,379.6"/><polygon points="200.2,377.5 198.3,371.9 214.5,366.2 216.5,371.7"/><polygon points="221.3,386.9 217.8,390.5 204.7,388.6 202.5,382.5 217.8,377.1"/><polygon points="234.7,375.4 225.4,384.8 223.5,379.4"/><polygon points="223.1,374.9 219.6,364.7 231.5,360.5 235.0,370.7"/><polygon points="189.3,345.7 185.4,334.6 195.8,331.0 199.7,342.1"/><polygon points="197.0,366.5 191.6,351.0 201.2,347.6 206.6,363.1"/><polygon points="225.4,342.9 229.8,355.4 221.0,358.5 216.6,346.0"/><polygon points="216.7,360.6 211.8,362.3 207.1,348.8 212.0,347.1"/><polygon points="200.7,329.1 207.7,326.7 212.9,341.7 206.0,344.2"/><polygon points="212.4,324.9 218.5,322.8 223.8,338.0 217.8,340.2"/><polygon points="280.7,338.4 274.9,342.7 267.0,331.9 276.1,325.3"/><polygon points="263.8,328.3 259.2,322.1 273.7,317.0 274.8,320.3"/><polygon points="297.7,322.7 296.9,326.9 285.0,335.7 282.3,328.1"/><polygon points="280.8,323.6 278.1,315.8 287.1,312.6 294.8,318.7"/><polygon points="270.0,345.7 261.5,351.9 252.2,339.2 260.7,333.0"/><polygon points="248.4,335.4 243.0,327.9 254.9,323.7 258.2,328.2"/><polygon points="256.8,355.6 240.0,367.9 236.7,358.6 254.5,352.3"/><polygon points="231.3,344.0 227.6,333.6 238.4,329.8 242.7,335.7"/><polygon points="234.7,353.5 233.1,349.1 245.7,339.9 251.3,347.6"/><polygon points="259.0,297.2 248.1,310.9 245.0,302.0"/><polygon points="240.8,288.5 251.3,284.8 259.9,291.5 243.9,297.2"/><polygon points="266.0,296.5 281.7,308.9 268.9,313.4 263.9,299.1"/><polygon points="263.9,315.5 251.6,319.8 250.2,315.9 259.8,303.7"/><polygon points="217.9,307.2 214.3,297.1 221.0,294.7 224.6,304.9"/><polygon points="225.4,293.6 235.8,289.9 239.1,299.4 228.7,303.0"/><polygon points="228.7,307.9 240.9,303.6 243.0,309.6 230.8,313.9"/><polygon points="244.3,314.0 247.0,321.6 235.2,325.7 232.5,318.1"/><polygon points="225.9,328.9 219.7,311.4 224.4,309.7 230.6,327.3"/><polygon points="143.4,359.9 135.8,362.9 131.0,357.3 136.7,352.3"/><polygon points="152.2,340.1 157.4,353.4 147.5,357.3 141.0,349.9"/><polygon points="165.3,373.8 170.1,386.3 163.0,392.5 154.7,383.0"/><polygon points="154.0,376.4 150.9,379.1 139.5,366.2 148.6,362.7"/><polygon points="159.8,358.0 163.8,368.2 157.9,373.3 153.0,360.7"/><polygon points="122.3,328.2 124.5,328.2 124.1,348.2 113.4,336.0"/><polygon points="103.9,326.8 116.9,327.0 109.7,333.4"/><polygon points="130.3,328.7 147.7,329.0 149.7,334.3 140.0,342.8 130.2,331.7"/><polygon points="136.8,346.9 128.8,354.0 129.1,338.1"/><polygon points="97.2,349.3 116.0,347.6 118.6,350.6 107.1,360.6"/><polygon points="95.8,371.1 93.6,365.5 92.4,352.1 103.3,364.6"/><polygon points="108.1,336.1 114.6,343.5 108.8,344.0"/><polygon points="92.3,343.7 90.8,327.9 98.7,328.1 103.5,333.6 104.4,342.6"/><polygon points="136.1,370.1 143.6,378.7 135.4,385.9 127.8,377.3"/><polygon points="132.0,389.4 126.8,394.0 118.7,384.7 123.9,380.1"/><polygon points="105.2,369.2 109.1,365.8 119.7,377.9 115.8,381.3"/><polygon points="113.6,362.9 122.5,355.2 132.0,366.1 123.2,373.8"/><polygon points="109.9,408.8 107.2,401.7 122.6,395.8 123.5,396.9"/><polygon points="105.7,397.4 103.1,390.8 114.2,386.5 119.2,392.2"/><polygon points="101.5,386.4 97.5,376.1 101.8,372.3 111.0,382.8"/><polygon points="129.3,398.5 135.0,393.4 146.7,406.8 141.0,411.8"/><polygon points="139.6,389.7 147.0,383.3 158.4,396.3 151.0,402.7"/><polygon points="119.4,407.1 125.0,402.2 136.8,415.6 131.1,420.5"/><polygon points="121.6,429.2 112.1,413.2 115.2,410.5 127.2,424.2"/><polygon points="529.7,282.6 530.5,289.0 519.5,290.4 518.7,284.0"/><polygon points="527.3,267.5 528.7,278.1 518.6,279.4 517.2,268.1"/><polygon points="514.8,290.4 498.0,292.5 497.5,285.1 514.0,284.0"/><polygon points="497.4,279.6 496.8,269.8 511.8,268.9 513.0,278.6"/><polygon points="530.9,293.9 533.6,315.2 533.7,316.5 527.9,315.8"/><polygon points="522.8,314.4 515.0,313.3 517.4,295.7 525.5,294.7"/><polygon points="509.1,312.5 499.6,311.2 498.7,298.1 511.2,296.5"/><polygon points="510.9,213.2 513.8,219.0 516.1,227.0 507.3,229.5 504.1,218.2"/><polygon points="502.9,231.2 493.7,233.7 493.2,225.8 500.0,220.8"/><polygon points="517.2,232.5 520.5,244.5 508.3,247.9 505.0,235.9"/><polygon points="503.3,249.9 495.2,252.2 494.3,238.2 499.7,236.7"/><polygon points="522.5,249.5 526.2,262.6 516.5,263.2 515.7,251.4"/><polygon points="511.3,263.3 496.3,264.2 495.8,257.3 510.6,253.1"/><polygon points="306.7,303.7 302.9,298.4 315.9,289.2 317.3,290.3"/><polygon points="300.6,294.4 296.3,288.3 303.1,279.6 311.8,286.5"/><polygon points="327.0,298.4 311.3,309.5 309.7,307.3 320.7,293.4"/><polygon points="284.6,305.0 283.2,303.9 293.1,291.5 296.6,296.5"/><polygon points="306.8,312.3 300.7,316.7 289.2,307.6 298.7,300.9"/><polygon points="314.7,264.8 326.6,249.8 326.7,249.8 327.5,264.0"/><polygon points="329.9,295.1 322.2,289.1 329.0,280.5"/><polygon points="319.2,286.4 316.1,284.0 328.1,268.8 328.4,274.7"/><polygon points="312.7,281.0 306.0,275.7 310.7,269.8 322.0,269.2"/><polygon points="274.2,235.4 276.0,231.1 290.6,236.5 287.2,245.7"/><polygon points="295.5,238.4 304.7,241.8 299.6,255.4 291.6,249.1"/><polygon points="309.8,244.1 320.9,248.2 309.4,262.8 304.4,258.8"/><polygon points="262.5,264.1 264.5,259.4 283.7,267.5 277.2,275.7"/><polygon points="266.4,289.2 255.6,280.7 260.1,270.0 273.4,280.4"/><polygon points="266.2,254.1 272.1,240.2 279.8,246.4 271.8,256.5"/><polygon points="283.8,249.5 292.9,256.7 287.7,263.2 276.7,258.5"/><polygon points="280.1,301.2 270.0,293.2 274.0,288.2 284.1,296.2"/><polygon points="277.7,284.7 286.2,273.9 295.1,280.9 286.6,291.7"/><polygon points="289.6,269.3 296.9,260.1 306.1,267.4 298.8,276.6"/><polygon points="197.7,422.1 218.8,407.6 220.8,417.4"/><polygon points="224.1,438.4 214.4,445.0 202.7,427.9 221.2,424.1"/><polygon points="194.2,415.7 177.5,391.4 197.3,394.3"/><polygon points="204.1,394.6 216.3,396.4 217.3,401.5 201.5,412.3"/><polygon points="156.7,406.9 170.6,394.7 179.3,407.4 164.2,417.7"/><polygon points="183.8,412.4 187.8,418.1 171.2,429.5 167.3,423.8"/><polygon points="140.6,421.6 150.9,412.5 164.6,432.5 153.4,440.2"/><polygon points="136.8,452.1 125.9,433.9 134.3,426.6 147.0,445.1"/><polygon points="183.8,466.4 167.2,477.8 161.7,473.5 176.1,455.1"/><polygon points="155.9,468.2 142.6,457.8 166.1,441.7 171.0,448.9"/><polygon points="207.8,449.3 189.8,461.7 182.3,450.6 200.2,438.3"/><polygon points="177.5,444.6 172.1,436.8 190.9,423.8 196.3,431.7"/><polygon points="175.2,238.6 169.7,235.8 175.3,224.9 180.4,227.3"/><polygon points="166.1,234.0 161.3,231.5 166.3,220.7 171.7,223.2"/><polygon points="190.6,232.1 184.7,243.4 179.0,240.5 184.2,229.2"/><polygon points="161.5,251.6 153.2,247.7 154.8,244.3 163.3,248.2"/><polygon points="156.5,241.5 159.5,234.9 167.5,239.1 164.4,245.1"/><polygon points="183.2,247.2 177.4,258.5 173.8,256.8 179.2,245.1"/><polygon points="170.4,255.0 165.0,252.5 170.9,241.1 175.7,243.5"/><polygon points="181.5,203.7 187.8,206.6 184.3,214.0 178.1,211.1"/><polygon points="171.4,208.3 175.1,200.3 178.8,202.1 175.1,210.0"/><polygon points="180.0,222.5 168.1,217.0 170.5,211.8 182.4,217.3"/><polygon points="189.4,219.0 186.3,217.4 190.8,207.7 194.0,209.2"/><polygon points="201.2,212.7 196.2,222.3 192.4,220.4 196.8,210.7"/><polygon points="194.7,225.3 192.8,228.9 183.2,224.5 185.1,220.4"/><polygon points="183.6,183.6 189.5,189.4 180.2,198.7 177.3,197.4"/><polygon points="198.2,197.7 205.1,204.7 202.7,209.4 194.5,205.7"/><polygon points="192.6,192.1 195.3,194.9 191.1,204.0 183.9,200.8"/><polygon points="137.7,217.1 139.3,213.6 148.0,217.6 146.4,221.1"/><polygon points="141.8,230.3 133.7,226.6 136.6,220.3 144.7,224.0"/><polygon points="157.7,229.8 154.8,236.1 145.3,231.8 148.2,225.5"/><polygon points="161.0,223.6 159.6,226.8 149.3,222.1 150.8,218.9"/><polygon points="153.1,239.8 150.3,245.8 140.5,241.2 143.3,235.2"/><polygon points="136.9,239.8 129.2,236.2 132.1,229.9 139.9,233.5"/><polygon points="146.4,199.0 151.3,203.5 143.6,211.9 141.0,210.7"/><polygon points="153.9,205.8 157.8,209.4 151.9,215.8 146.9,213.5"/><polygon points="160.3,211.6 164.7,215.6 162.3,220.7 155.0,217.4"/><polygon points="121.2,206.8 125.9,201.7 136.4,211.4 135.5,213.4"/><polygon points="143.4,197.9 138.5,208.7 135.8,206.2"/><polygon points="128.8,198.7 136.5,190.3 141.6,195.0 133.9,203.4"/><polygon points="127.9,230.1 125.9,234.6 114.8,229.5 116.9,225.0"/><polygon points="129.8,215.0 134.2,217.0 129.6,226.9 125.2,224.9"/><polygon points="122.8,211.7 126.7,213.5 122.1,223.5 118.2,221.7"/><polygon points="108.2,226.3 111.6,217.3 118.3,210.0 119.3,210.4 111.3,227.7"/><polygon points="173.8,195.8 172.7,198.2 163.1,193.8 167.0,189.6"/><polygon points="178.3,177.9 180.6,180.2 175.1,192.2 169.7,187.3"/><polygon points="171.4,201.1 166.1,212.6 162.4,209.2 170.3,200.5"/><polygon points="160.1,206.7 155.5,202.5 161.0,196.5 166.9,199.2"/><polygon points="161.3,184.8 164.1,187.4 152.8,199.7 150.0,197.1"/><polygon points="146.7,178.9 150.6,174.7 158.5,182.0 154.6,186.2"/><polygon points="139.3,187.2 144.2,181.9 151.8,189.0 146.9,194.3"/><polygon points="152.6,171.9 155.5,168.7 162.1,174.8 159.0,177.9"/><polygon points="157.9,166.5 162.4,161.7 168.6,167.9 164.2,172.3"/><polygon points="171.1,170.9 175.3,175.1 166.9,184.3 162.1,179.9"/><polygon points="185.6,255.7 193.5,240.4 219.2,253.7 211.2,269.0"/><polygon points="197.1,233.0 201.2,225.2 227.2,238.6 223.1,246.5"/><polygon points="201.4,288.3 190.8,284.9 183.6,264.0 207.5,276.4"/><polygon points="232.2,285.1 211.6,292.3 208.2,291.2 215.8,276.5"/><polygon points="253.0,268.1 248.7,278.3 240.9,281.1 220.0,270.3 227.9,255.1"/><polygon points="259.3,254.8 256.6,261.2 230.9,247.9 234.1,241.8"/><polygon points="269.4,226.4 270.0,227.8 261.8,247.3 240.8,236.4 250.9,216.8"/><polygon points="257.7,200.2 259.5,200.0 267.2,217.6 252.6,210.0"/><polygon points="210.1,208.2 226.1,206.1 229.4,230.5 205.1,218.0"/><polygon points="233.7,204.4 249.6,202.3 236.8,227.1"/><polygon points="250.0,383.3 265.7,390.9 262.2,398.1 246.5,390.5"/><polygon points="260.3,403.1 254.6,414.8 247.4,411.3 253.1,399.6"/><polygon points="243.2,409.5 237.8,406.8 243.7,394.7 249.1,397.3"/><polygon points="228.0,388.3 238.6,377.6 245.0,380.7 238.7,393.5"/><polygon points="222.4,399.1 221.4,394.4 223.8,392.0 236.8,398.4 233.7,404.6"/><polygon points="239.6,444.6 230.9,438.4 229.8,433.1 246.9,429.6"/><polygon points="228.9,427.3 224.5,406.2 238.5,413.0 231.8,426.7"/><polygon points="243.6,414.7 252.6,419.1 250.4,423.7 238.0,426.2"/><polygon points="249.3,451.7 244.1,448.0 252.2,431.4 257.9,434.2"/><polygon points="268.8,451.6 254.4,454.8 254.4,454.8 263.0,437.2 273.4,442.3"/><polygon points="288.9,448.4 274.5,451.6 278.5,443.4"/><polygon points="300.8,407.7 298.6,423.5 289.8,422.2 297.6,406.1"/><polygon points="297.2,429.0 294.7,445.7 282.0,439.5 287.8,427.6"/><polygon points="267.2,400.3 270.7,393.1 283.9,399.5 280.3,406.7"/><polygon points="262.9,407.9 264.7,404.2 278.8,411.1 277.1,414.8"/><polygon points="288.4,401.4 293.3,403.8 286.1,418.8 281.1,416.4"/><polygon points="266.0,431.7 255.1,426.3 261.6,413.0 272.5,418.3"/><polygon points="276.7,437.6 270.8,434.7 277.9,420.2 283.8,423.1"/><polygon points="433.3,219.1 423.0,213.6 427.8,204.5 438.2,210.4"/><polygon points="418.7,212.1 414.3,209.7 420.2,199.3 424.3,201.6"/><polygon points="423.2,195.8 426.0,190.9 443.5,200.9 440.8,205.8"/><polygon points="445.5,181.5 452.6,185.5 446.3,196.6 439.1,192.6"/><polygon points="428.2,186.4 434.6,175.2 441.3,179.0 434.9,190.2"/><polygon points="445.7,225.7 438.0,221.5 445.2,208.8 452.8,213.2"/><polygon points="456.1,229.9 453.7,230.4 449.9,228.4 457.4,215.3 462.7,218.4"/><polygon points="447.9,204.1 456.9,188.3 462.9,191.7 453.9,207.5"/><polygon points="467.6,194.5 473.8,198.0 464.8,213.7 458.7,210.2"/><polygon points="479.0,225.1 462.1,228.7 467.8,218.7"/><polygon points="480.2,219.7 471.1,214.5 478.7,201.1 487.8,206.3"/><polygon points="501.7,213.6 490.0,222.5 485.7,223.4 484.8,222.8 492.9,208.6"/><polygon points="500.3,192.5 508.4,208.5 506.2,210.2 494.1,203.4"/><polygon points="496.2,188.3 489.4,200.3 479.4,194.6 486.2,182.6"/><polygon points="474.4,192.5 469.1,189.4 476.5,176.4 481.9,179.4"/><polygon points="482.4,166.1 491.3,174.4 494.8,181.3 478.9,172.3"/><polygon points="469.7,179.1 465.1,187.3 456.9,182.6 461.5,174.4"/><polygon points="452.8,179.5 437.6,170.9 441.6,163.8 456.8,172.5"/><polygon points="474.4,170.8 471.9,175.2 457.4,166.9 459.9,162.5"/><polygon points="466.5,151.4 478.7,162.8 476.6,166.5 462.4,158.5"/><polygon points="458.3,155.8 453.4,164.4 443.9,159.0 448.8,150.4"/><polygon points="454.4,139.8 454.8,139.9 463.3,147.8 460.8,152.1 450.7,146.3"/><polygon points="436.5,478.2 404.5,481.1 401.3,447.3"/><polygon points="366.8,484.6 336.0,487.4 332.9,474.5 345.5,462.4"/><polygon points="357.3,451.1 380.5,429.0 392.2,439.2 393.0,447.8"/><polygon points="365.5,473.3 351.4,458.5 364.0,457.4"/><polygon points="396.1,481.9 377.5,483.6 372.9,478.8 371.0,458.3 393.7,456.2"/><polygon points="467.4,333.1 460.8,344.0 449.9,337.4 456.5,326.5"/><polygon points="445.0,335.4 440.3,332.6 447.8,320.3 452.5,323.1"/><polygon points="454.5,319.1 450.3,316.5 458.4,303.0 463.7,307.0"/><polygon points="476.8,317.8 470.5,328.1 459.4,321.3 467.5,310.7"/><polygon points="437.7,299.5 440.2,295.5 448.0,295.3 454.5,300.2 450.3,307.1"/><polygon points="436.6,330.2 423.6,322.3 426.3,317.8 439.4,325.7"/><polygon points="429.6,313.7 435.3,304.4 447.1,311.6 441.4,320.9"/><polygon points="405.3,311.2 394.7,304.8 402.5,296.3 404.9,296.2"/><polygon points="417.6,295.8 434.8,295.3 430.0,303.3"/><polygon points="409.2,308.7 408.9,295.5 409.6,295.5 415.2,298.9"/><polygon points="419.6,319.3 411.2,314.2 418.5,302.1 426.9,307.2"/><polygon points="402.8,365.6 393.0,365.2 390.7,351.3 400.1,349.7"/><polygon points="408.9,365.8 408.7,365.8 405.8,348.8 420.8,346.2"/><polygon points="387.4,312.9 391.6,308.2 403.4,315.4 400.2,320.7"/><polygon points="385.7,325.3 384.2,316.4 384.2,316.3 397.8,324.6 394.3,330.5"/><polygon points="387.9,342.3 385.8,329.9 392.8,334.2"/><polygon points="408.0,318.4 418.9,325.1 411.3,337.8"/><polygon points="423.3,327.7 430.0,331.8 425.0,340.0 414.7,341.8"/><polygon points="391.5,345.2 403.6,325.4 406.5,342.6"/><polygon points="435.2,367.5 414.8,366.5 419.9,358.2"/><polygon points="428.3,356.9 423.1,353.7 434.4,335.0 439.7,338.2"/><polygon points="449.9,363.0 446.8,368.1 445.8,368.1 432.7,360.1 436.1,354.6"/><polygon points="457.7,349.1 452.3,358.1 439.3,350.2 444.7,341.3"/><polygon points="465.9,232.1 471.9,230.9 474.0,240.7 466.5,241.1"/><polygon points="476.4,230.6 488.7,228.0 489.4,239.0 478.3,239.7"/><polygon points="489.5,244.4 490.7,263.2 483.8,263.7 482.6,244.8"/><polygon points="477.9,263.8 469.1,264.3 467.9,246.0 476.7,245.5"/><polygon points="454.6,250.7 455.7,235.0 461.5,233.7 462.6,250.2"/><polygon points="453.2,266.1 454.0,255.6 463.1,255.1 463.7,265.4"/><polygon points="479.3,280.2 479.8,288.9 468.3,289.7 467.7,280.9"/><polygon points="466.8,269.7 478.8,268.9 479.2,275.6 467.2,276.4"/><polygon points="483.8,269.3 491.0,268.9 492.2,287.7 485.0,288.1"/><polygon points="452.2,290.0 453.6,271.5 461.6,271.0 462.8,289.3"/><polygon points="470.9,306.5 456.1,295.3 470.1,294.4"/><polygon points="476.1,303.4 475.5,294.5 492.5,293.5 493.1,302.3"/><polygon points="494.3,311.9 481.3,314.5 475.9,310.4 475.8,308.7 494.0,307.5"/><polygon points="281.1,180.1 290.1,177.7 294.8,195.3 285.8,197.7"/><polygon points="295.9,175.9 303.2,174.0 308.0,192.0 300.7,193.9"/><polygon points="309.4,197.8 311.1,204.3 289.1,210.2 287.4,203.7"/><polygon points="264.9,198.7 264.2,197.2 270.7,182.7 275.3,181.4 278.9,194.9"/><polygon points="272.1,215.0 267.2,204.0 280.4,200.5 283.4,211.9"/><polygon points="299.6,225.5 304.5,212.3 312.8,210.0 315.8,221.2"/><polygon points="322.1,242.9 310.9,238.7 315.3,226.8 317.7,226.2"/><polygon points="306.5,237.5 295.7,233.4 296.4,231.5 310.1,227.9"/><polygon points="289.5,230.5 276.5,225.7 274.1,220.1 285.8,217.0"/><polygon points="290.2,215.2 299.0,212.8 293.5,227.6"/><polygon points="347.6,232.2 346.8,232.8 336.9,218.9 342.9,214.6"/><polygon points="334.5,214.6 325.8,202.5 338.2,199.2 341.1,209.9"/><polygon points="371.7,214.3 351.7,228.5 349.5,220.2"/><polygon points="355.6,194.9 362.2,193.1 371.0,208.5 360.1,211.5"/><polygon points="348.1,215.0 343.4,197.8 350.0,196.0 354.7,213.2"/><polygon points="342.2,235.2 328.6,244.9 328.1,244.7 325.0,233.0 338.2,229.5"/><polygon points="323.1,228.1 320.9,220.0 330.3,217.5 335.5,224.8"/><polygon points="319.6,215.8 316.5,204.4 320.5,203.3 327.8,213.6"/><polygon points="333.6,165.2 345.4,162.0 347.9,166.4 335.8,173.4"/><polygon points="349.9,171.4 355.1,180.6 340.7,188.8 337.9,178.2"/><polygon points="358.5,184.3 360.8,188.4 343.1,193.2"/><polygon points="311.8,185.7 308.2,172.1 315.1,170.3 318.8,183.9"/><polygon points="320.1,169.2 328.9,166.8 332.5,180.0 323.6,182.3"/><polygon points="316.2,199.0 314.0,190.9 333.5,185.7 335.6,193.8"/></g><g fill="none" stroke-linecap="round" stroke-linejoin="round"><path d="M220.2,481.9 L197.7,461.2 L177.6,431.6" stroke="#6c604a" stroke-width="3.4"/><path d="M220.2,481.9 L250.8,491.0 L289.9,494.0" stroke="#6c604a" stroke-width="3.4"/><path d="M220.2,481.9 L241.0,449.1 L259.9,418.5" stroke="#6c604a" stroke-width="3.4"/><path d="M259.9,418.5 L270.8,390.2 L289.4,370.4" stroke="#6c604a" stroke-width="3.4"/><path d="M289.4,370.4 L268.8,350.4 L252.8,322.3" stroke="#6c604a" stroke-width="3.4"/><path d="M252.8,322.3 L225.1,334.2 L194.8,344.3" stroke="#6c604a" stroke-width="3.4"/><path d="M289.4,370.4 L314.9,355.7 L347.6,343.1" stroke="#6c604a" stroke-width="3.4"/><path d="M252.8,322.3 L276.2,300.9 L295.3,273.4" stroke="#6c604a" stroke-width="3.4"/><path d="M295.3,273.4 L330.5,273.0 L366.0,267.5" stroke="#6c604a" stroke-width="3.4"/><path d="M366.0,267.5 L394.8,255.4 L421.4,253.8" stroke="#6c604a" stroke-width="3.4"/><path d="M421.4,253.8 L451.1,262.8 L473.9,270.6" stroke="#6c604a" stroke-width="3.4"/><path d="M473.9,270.6 L493.9,269.3 L511.7,269.8" stroke="#6c604a" stroke-width="3.4"/><path d="M289.4,370.4 L317.2,394.6 L337.5,422.8" stroke="#6c604a" stroke-width="3.4"/><path d="M337.5,422.8 L354.3,448.2 L381.0,465.2" stroke="#6c604a" stroke-width="3.4"/><path d="M381.0,465.2 L389.7,486.7 L375.7,508.5" stroke="#6c604a" stroke-width="3.4"/><path d="M381.0,465.2 L413.5,452.4 L432.7,420.0" stroke="#6c604a" stroke-width="3.4"/><path d="M194.8,344.3 L161.7,356.5 L127.8,370.4" stroke="#6c604a" stroke-width="3.4"/><path d="M421.4,253.8 L432.6,221.7 L462.0,192.8" stroke="#6c604a" stroke-width="3.4"/><path d="M295.3,273.4 L301.8,237.9 L318.7,203.5" stroke="#6c604a" stroke-width="3.4"/><path d="M295.3,273.4 L263.2,254.7 L226.6,246.1" stroke="#6c604a" stroke-width="3.4"/><path d="M226.6,246.1 L192.8,232.6 L159.9,212.6" stroke="#6c604a" stroke-width="3.4"/><path d="M318.7,203.5 L307.6,169.8 L302.5,129.6" stroke="#6c604a" stroke-width="3.4"/><path d="M159.9,212.6 L141.9,244.1 L131.2,282.9" stroke="#6c604a" stroke-width="3.4"/><path d="M462.0,192.8 L432.7,173.8 L394.3,158.3" stroke="#6c604a" stroke-width="3.4"/><path d="M473.9,270.6 L464.8,304.9 L427.0,330.6" stroke="#6c604a" stroke-width="3.4"/><path d="M427.0,330.6 L464.4,343.8 L496.8,368.4" stroke="#6c604a" stroke-width="3.4"/><path d="M159.9,212.6 L184.9,181.7 L221.6,159.4" stroke="#6c604a" stroke-width="3.4"/><path d="M347.6,343.1 L352.8,384.6 L337.5,422.8" stroke="#6c604a" stroke-width="3.4"/><path d="M347.6,343.1 L382.7,377.0 L432.7,420.0" stroke="#6c604a" stroke-width="3.4"/><path d="M496.8,368.4 L471.4,408.2 L432.7,420.0" stroke="#6c604a" stroke-width="3.4"/><path d="M337.5,422.8 L312.8,460.8 L289.9,494.0" stroke="#6c604a" stroke-width="3.4"/><path d="M337.5,422.8 L300.5,427.4 L259.9,418.5" stroke="#6c604a" stroke-width="3.4"/><path d="M366.0,267.5 L353.2,230.9 L318.7,203.5" stroke="#6c604a" stroke-width="3.4"/><path d="M394.3,158.3 L354.3,131.2 L302.5,129.6" stroke="#6c604a" stroke-width="3.4"/><path d="M289.4,370.4 L238.3,373.4 L194.8,344.3" stroke="#6c604a" stroke-width="3.4"/><path d="M511.7,269.8 L501.4,217.1 L462.0,192.8" stroke="#6c604a" stroke-width="3.4"/><path d="M347.6,343.1 L86.6,315.0" stroke="#6c604a" stroke-width="4.8"/><path d="M347.6,343.1 L409.9,117.9" stroke="#6c604a" stroke-width="4.8"/><path d="M347.6,343.1 L410.5,513.3" stroke="#6c604a" stroke-width="4.8"/><path d="M220.2,481.9 L197.7,461.2 L177.6,431.6" stroke="#e4d9bc" stroke-width="1.8"/><path d="M220.2,481.9 L250.8,491.0 L289.9,494.0" stroke="#e4d9bc" stroke-width="1.8"/><path d="M220.2,481.9 L241.0,449.1 L259.9,418.5" stroke="#e4d9bc" stroke-width="1.8"/><path d="M259.9,418.5 L270.8,390.2 L289.4,370.4" stroke="#e4d9bc" stroke-width="1.8"/><path d="M289.4,370.4 L268.8,350.4 L252.8,322.3" stroke="#e4d9bc" stroke-width="1.8"/><path d="M252.8,322.3 L225.1,334.2 L194.8,344.3" stroke="#e4d9bc" stroke-width="1.8"/><path d="M289.4,370.4 L314.9,355.7 L347.6,343.1" stroke="#e4d9bc" stroke-width="1.8"/><path d="M252.8,322.3 L276.2,300.9 L295.3,273.4" stroke="#e4d9bc" stroke-width="1.8"/><path d="M295.3,273.4 L330.5,273.0 L366.0,267.5" stroke="#e4d9bc" stroke-width="1.8"/><path d="M366.0,267.5 L394.8,255.4 L421.4,253.8" stroke="#e4d9bc" stroke-width="1.8"/><path d="M421.4,253.8 L451.1,262.8 L473.9,270.6" stroke="#e4d9bc" stroke-width="1.8"/><path d="M473.9,270.6 L493.9,269.3 L511.7,269.8" stroke="#e4d9bc" stroke-width="1.8"/><path d="M289.4,370.4 L317.2,394.6 L337.5,422.8" stroke="#e4d9bc" stroke-width="1.8"/><path d="M337.5,422.8 L354.3,448.2 L381.0,465.2" stroke="#e4d9bc" stroke-width="1.8"/><path d="M381.0,465.2 L389.7,486.7 L375.7,508.5" stroke="#e4d9bc" stroke-width="1.8"/><path d="M381.0,465.2 L413.5,452.4 L432.7,420.0" stroke="#e4d9bc" stroke-width="1.8"/><path d="M194.8,344.3 L161.7,356.5 L127.8,370.4" stroke="#e4d9bc" stroke-width="1.8"/><path d="M421.4,253.8 L432.6,221.7 L462.0,192.8" stroke="#e4d9bc" stroke-width="1.8"/><path d="M295.3,273.4 L301.8,237.9 L318.7,203.5" stroke="#e4d9bc" stroke-width="1.8"/><path d="M295.3,273.4 L263.2,254.7 L226.6,246.1" stroke="#e4d9bc" stroke-width="1.8"/><path d="M226.6,246.1 L192.8,232.6 L159.9,212.6" stroke="#e4d9bc" stroke-width="1.8"/><path d="M318.7,203.5 L307.6,169.8 L302.5,129.6" stroke="#e4d9bc" stroke-width="1.8"/><path d="M159.9,212.6 L141.9,244.1 L131.2,282.9" stroke="#e4d9bc" stroke-width="1.8"/><path d="M462.0,192.8 L432.7,173.8 L394.3,158.3" stroke="#e4d9bc" stroke-width="1.8"/><path d="M473.9,270.6 L464.8,304.9 L427.0,330.6" stroke="#e4d9bc" stroke-width="1.8"/><path d="M427.0,330.6 L464.4,343.8 L496.8,368.4" stroke="#e4d9bc" stroke-width="1.8"/><path d="M159.9,212.6 L184.9,181.7 L221.6,159.4" stroke="#e4d9bc" stroke-width="1.8"/><path d="M347.6,343.1 L352.8,384.6 L337.5,422.8" stroke="#e4d9bc" stroke-width="1.8"/><path d="M347.6,343.1 L382.7,377.0 L432.7,420.0" stroke="#e4d9bc" stroke-width="1.8"/><path d="M496.8,368.4 L471.4,408.2 L432.7,420.0" stroke="#e4d9bc" stroke-width="1.8"/><path d="M337.5,422.8 L312.8,460.8 L289.9,494.0" stroke="#e4d9bc" stroke-width="1.8"/><path d="M337.5,422.8 L300.5,427.4 L259.9,418.5" stroke="#e4d9bc" stroke-width="1.8"/><path d="M366.0,267.5 L353.2,230.9 L318.7,203.5" stroke="#e4d9bc" stroke-width="1.8"/><path d="M394.3,158.3 L354.3,131.2 L302.5,129.6" stroke="#e4d9bc" stroke-width="1.8"/><path d="M289.4,370.4 L238.3,373.4 L194.8,344.3" stroke="#e4d9bc" stroke-width="1.8"/><path d="M511.7,269.8 L501.4,217.1 L462.0,192.8" stroke="#e4d9bc" stroke-width="1.8"/><path d="M347.6,343.1 L86.6,315.0" stroke="#e4d9bc" stroke-width="3.2"/><path d="M347.6,343.1 L409.9,117.9" stroke="#e4d9bc" stroke-width="3.2"/><path d="M347.6,343.1 L410.5,513.3" stroke="#e4d9bc" stroke-width="3.2"/></g><path d="M87.5,305.9 L91.5,264.0 M91.5,264.0 L109.8,216.2 M109.8,216.2 L177.5,142.6 M177.5,142.6 L218.7,115.1 M218.7,115.1 L264.7,94.6 M264.7,94.6 L315.0,88.1 M315.0,88.1 L401.2,115.2 M418.2,121.6 L456.0,138.2 M456.0,138.2 L493.2,172.9 M493.2,172.9 L516.2,218.1 M516.2,218.1 L529.6,266.0 M529.6,266.0 L535.9,315.0 M535.9,315.0 L538.5,366.0 M538.5,366.0 L489.8,454.4 M489.8,454.4 L417.8,507.9 M402.7,518.0 L366.3,539.9 M366.3,539.9 L266.1,529.4 M266.1,529.4 L218.8,514.7 M218.8,514.7 L176.0,489.3 M176.0,489.3 L135.8,457.9 M135.8,457.9 L109.5,414.0 M109.5,414.0 L91.2,366.1 M91.2,366.1 L87.4,324.1" fill="none" stroke="#3c3628" stroke-width="3" stroke-linecap="round" stroke-linejoin="round"/><g fill="#3c3628" stroke="#1c1810" stroke-width="0.6"><circle cx="86.6" cy="315.0" r="2.6"/><circle cx="91.5" cy="264.0" r="2.6"/><circle cx="109.8" cy="216.2" r="2.6"/><circle cx="177.5" cy="142.6" r="2.6"/><circle cx="218.7" cy="115.1" r="2.6"/><circle cx="264.7" cy="94.6" r="2.6"/><circle cx="315.0" cy="88.1" r="2.6"/><circle cx="409.9" cy="117.9" r="2.6"/><circle cx="456.0" cy="138.2" r="2.6"/><circle cx="493.2" cy="172.9" r="2.6"/><circle cx="516.2" cy="218.1" r="2.6"/><circle cx="529.6" cy="266.0" r="2.6"/><circle cx="535.9" cy="315.0" r="2.6"/><circle cx="538.5" cy="366.0" r="2.6"/><circle cx="489.8" cy="454.4" r="2.6"/><circle cx="410.5" cy="513.3" r="2.6"/><circle cx="366.3" cy="539.9" r="2.6"/><circle cx="266.1" cy="529.4" r="2.6"/><circle cx="218.8" cy="514.7" r="2.6"/><circle cx="176.0" cy="489.3" r="2.6"/><circle cx="135.8" cy="457.9" r="2.6"/><circle cx="109.5" cy="414.0" r="2.6"/><circle cx="91.2" cy="366.1" r="2.6"/></g><g fill="#3c3628" stroke="#1c1810" stroke-width="0.8"><rect x="83.6" y="312.0" width="6.0" height="6.0"/><rect x="406.9" y="114.9" width="6.0" height="6.0"/><rect x="407.5" y="510.3" width="6.0" height="6.0"/></g><g font-family="Georgia, serif" font-size="8" text-anchor="middle"><text x="220.2" y="484.9" stroke="#f7f3ea" stroke-width="2.5" paint-order="stroke" fill="#23211c">Slums</text><text x="347.6" y="346.1" stroke="#f7f3ea" stroke-width="2.5" paint-order="stroke" fill="#23211c">Market</text><text x="496.8" y="371.4" stroke="#f7f3ea" stroke-width="2.5" paint-order="stroke" fill="#23211c">Noble</text><text x="221.6" y="162.4" stroke="#f7f3ea" stroke-width="2.5" paint-order="stroke" fill="#23211c">Residential</text><text x="337.5" y="425.8" stroke="#f7f3ea" stroke-width="2.5" paint-order="stroke" fill="#23211c">Craftsmen</text><text x="366.0" y="270.5" stroke="#f7f3ea" stroke-width="2.5" paint-order="stroke" fill="#23211c">Craftsmen</text><text x="289.9" y="497.0" stroke="#f7f3ea" stroke-width="2.5" paint-order="stroke" fill="#23211c">Slums</text><text x="394.3" y="161.3" stroke="#f7f3ea" stroke-width="2.5" paint-order="stroke" fill="#23211c">Noble</text><text x="375.7" y="511.5" stroke="#f7f3ea" stroke-width="2.5" paint-order="stroke" fill="#23211c">Temple</text><text x="421.4" y="256.8" stroke="#f7f3ea" stroke-width="2.5" paint-order="stroke" fill="#23211c">Residential</text><text x="131.2" y="285.9" stroke="#f7f3ea" stroke-width="2.5" paint-order="stroke" fill="#23211c">Noble</text><text x="432.7" y="423.0" stroke="#f7f3ea" stroke-width="2.5" paint-order="stroke" fill="#23211c">Garrison</text><text x="302.5" y="132.6" stroke="#f7f3ea" stroke-width="2.5" paint-order="stroke" fill="#23211c">Residential</text><text x="289.4" y="373.4" stroke="#f7f3ea" stroke-width="2.5" paint-order="stroke" fill="#23211c">Craftsmen</text><text x="194.8" y="347.3" stroke="#f7f3ea" stroke-width="2.5" paint-order="stroke" fill="#23211c">Residential</text><text x="252.8" y="325.3" stroke="#f7f3ea" stroke-width="2.5" paint-order="stroke" fill="#23211c">Residential</text><text x="127.8" y="373.4" stroke="#f7f3ea" stroke-width="2.5" paint-order="stroke" fill="#23211c">Craftsmen</text><text x="511.7" y="272.8" stroke="#f7f3ea" stroke-width="2.5" paint-order="stroke" fill="#23211c">Craftsmen</text><text x="295.3" y="276.4" stroke="#f7f3ea" stroke-width="2.5" paint-order="stroke" fill="#23211c">Craftsmen</text><text x="177.6" y="434.6" stroke="#f7f3ea" stroke-width="2.5" paint-order="stroke" fill="#23211c">Garrison</text><text x="159.9" y="215.6" stroke="#f7f3ea" stroke-width="2.5" paint-order="stroke" fill="#23211c">Slums</text><text x="226.6" y="249.1" stroke="#f7f3ea" stroke-width="2.5" paint-order="stroke" fill="#23211c">Noble</text><text x="259.9" y="421.5" stroke="#f7f3ea" stroke-width="2.5" paint-order="stroke" fill="#23211c">Residential</text><text x="462.0" y="195.8" stroke="#f7f3ea" stroke-width="2.5" paint-order="stroke" fill="#23211c">Temple</text><text x="381.0" y="468.2" stroke="#f7f3ea" stroke-width="2.5" paint-order="stroke" fill="#23211c">Noble</text><text x="427.0" y="333.6" stroke="#f7f3ea" stroke-width="2.5" paint-order="stroke" fill="#23211c">Craftsmen</text><text x="473.9" y="273.6" stroke="#f7f3ea" stroke-width="2.5" paint-order="stroke" fill="#23211c">Residential</text><text x="318.7" y="206.5" stroke="#f7f3ea" stroke-width="2.5" paint-order="stroke" fill="#23211c">Residential</text></g><text x="315.0" y="20" text-anchor="middle" font-family="Georgia, serif" font-size="16" font-weight="bold" stroke="#f7f3ea" stroke-width="3" paint-order="stroke" fill="#23211c">Caldwingate</text></svg>