<svg xmlns="http://www.w3.org/2000/svg" width="576" height="396" viewBox="0 0 576 396"><rect width="576" height="396" fill="#183e56"/><g stroke-linejoin="round"><polygon points="0.0,0.0 22.5,0.0 22.5,25.4 0.0,22.3" fill="#1f4e6b" stroke="#1f4e6b" stroke-width="0.5"/><polygon points="22.5,0.0 46.0,0.0 47.6,20.5 22.5,25.4" fill="#1f4e6b" stroke="#1f4e6b" stroke-width="0.5"/><polygon points="46.0,0.0 68.1,0.0 66.1,19.2 47.8,22.8" fill="#1f4e6b" stroke="#1f4e6b" stroke-width="0.5"/><polygon points="68.1,0.0 80.5,0.0 87.2,15.0 79.8,27.5 66.1,19.2" fill="#1f4e6b" stroke="#1f4e6b" stroke-width="0.5"/><polygon points="80.5,0.0 107.8,0.0 105.9,10.6 87.2,15.0" fill="#1f4e6b" stroke="#1f4e6b" stroke-width="0.5"/><polygon points="107.8,0.0 132.2,0.0 136.0,17.0 133.8,19.9 113.6,24.3 105.9,10.6" fill="#1f4e6b" stroke="#1f4e6b" stroke-width="0.5"/><polygon points="132.2,0.0 159.1,0.0 159.3,10.3 152.0,15.8 136.0,17.0" fill="#1f4e6b" stroke="#1f4e6b" stroke-width="0.5"/><polygon points="159.1,0.0 191.6,0.0 169.1,15.0 159.3,10.3" fill="#3d7ea6" stroke="#3d7ea6" stroke-width="0.5"/><polygon points="191.6,0.0 191.8,0.0 196.6,14.4 191.6,22.6 174.6,27.2 169.1,15.0" fill="#3d7ea6" stroke="#3d7ea6" stroke-width="0.5"/><polygon points="191.8,0.0 223.6,0.0 221.5,16.8 214.3,21.2 196.6,14.4" fill="#97c87e" stroke="#97c87e" stroke-width="0.5"/><polygon points="223.6,0.0 247.9,0.0 249.1,15.0 238.1,24.6 221.5,16.8" fill="#8ebc77" stroke="#8ebc77" stroke-width="0.5"/><polygon points="247.9,0.0 273.0,0.0 274.4,17.0 266.0,22.9 249.1,15.0" fill="#88b472" stroke="#88b472" stroke-width="0.5"/><polygon points="273.0,0.0 300.5,0.0 300.7,1.8 286.0,19.7 274.4,17.0" fill="#92c27a" stroke="#92c27a" stroke-width="0.5"/><polygon points="292.7,29.9 286.0,19.7 300.7,1.8 312.5,16.0 306.7,28.7" fill="#ffef9f" stroke="#ffef9f" stroke-width="0.5"/><polygon points="300.5,0.0 329.5,0.0 329.0,14.0 312.5,16.0 300.7,1.8" fill="#c9e997" stroke="#c9e997" stroke-width="0.5"/><polygon points="329.5,0.0 354.4,0.0 352.7,14.4 348.8,17.5 329.1,13.6" fill="#d2f49e" stroke="#d2f49e" stroke-width="0.5"/><polygon points="354.4,0.0 374.3,0.0 375.4,17.2 372.3,19.7 352.7,14.4" fill="#f7e296" stroke="#f7e296" stroke-width="0.5"/><polygon points="374.3,0.0 396.6,0.0 393.3,17.7 375.4,17.2" fill="#b1a36c" stroke="#b1a36c" stroke-width="0.5"/><polygon points="396.6,0.0 418.6,0.0 419.6,21.6 395.4,20.3 393.3,17.7" fill="#938769" stroke="#938769" stroke-width="0.5"/><polygon points="418.6,0.0 443.2,0.0 446.2,13.6 437.6,23.3 419.6,22.6" fill="#3d7ea6" stroke="#3d7ea6" stroke-width="0.5"/><polygon points="443.2,0.0 468.5,0.0 461.1,16.5 446.2,13.6" fill="#1f4e6b" stroke="#1f4e6b" stroke-width="0.5"/><polygon points="468.5,0.0 484.1,0.0 487.8,19.0 486.5,21.6 465.5,22.1 461.1,16.5" fill="#1f4e6b" stroke="#1f4e6b" stroke-width="0.5"/><polygon points="484.1,0.0 514.3,0.0 514.8,12.4 487.8,19.0" fill="#1f4e6b" stroke="#1f4e6b" stroke-width="0.5"/><polygon points="512.8,9.7 537.8,14.3 537.2,33.1 515.3,22.8" fill="#1f4e6b" stroke="#1f4e6b" stroke-width="0.5"/><polygon points="514.3,0.0 544.5,0.0 544.5,7.9 537.8,14.3 514.7,10.1" fill="#1f4e6b" stroke="#1f4e6b" stroke-width="0.5"/><polygon points="544.5,0.0 576.0,0.0 576.0,13.2 558.9,17.0 544.5,7.9" fill="#1f4e6b" stroke="#1f4e6b" stroke-width="0.5"/><polygon points="0.0,48.0 0.0,22.3 22.5,25.4 22.7,29.9 12.5,49.4" fill="#1f4e6b" stroke="#1f4e6b" stroke-width="0.5"/><polygon points="22.7,29.9 22.5,25.4 49.8,20.1 51.8,37.2 38.5,45.7" fill="#1f4e6b" stroke="#1f4e6b" stroke-width="0.5"/><polygon points="51.8,37.2 50.1,22.4 66.1,19.2 79.8,27.5 80.0,28.6 74.2,38.2 58.5,42.2" fill="#1f4e6b" stroke="#1f4e6b" stroke-width="0.5"/><polygon points="78.5,55.2 74.2,38.3 80.0,28.6 93.1,35.1 95.5,57.4 88.4,60.5" fill="#3d7ea6" stroke="#3d7ea6" stroke-width="0.5"/><polygon points="80.0,28.6 79.8,27.5 87.2,15.0 105.9,10.6 113.6,24.3 111.6,29.5 93.1,35.1" fill="#1f4e6b" stroke="#1f4e6b" stroke-width="0.5"/><polygon points="114.8,39.0 111.6,29.5 113.6,24.3 133.8,19.9 140.1,41.1 132.1,49.3" fill="#3d7ea6" stroke="#3d7ea6" stroke-width="0.5"/><polygon points="140.1,41.1 133.8,19.9 136.0,17.0 152.0,15.8 158.5,41.9" fill="#3d7ea6" stroke="#3d7ea6" stroke-width="0.5"/><polygon points="158.0,39.6 152.0,15.8 159.3,10.3 169.1,15.0 174.6,27.2 172.1,35.0" fill="#3d7ea6" stroke="#3d7ea6" stroke-width="0.5"/><polygon points="172.1,35.0 174.6,27.2 191.6,22.6 196.8,42.2 181.2,44.4" fill="#f6e2b0" stroke="#f6e2b0" stroke-width="0.5"/><polygon points="196.8,42.2 191.6,22.6 196.6,14.4 214.3,21.2 212.6,36.3 198.5,43.0" fill="#ffeab7" stroke="#ffeab7" stroke-width="0.5"/><polygon points="212.6,36.3 214.3,21.2 221.5,16.8 238.1,24.6 239.0,37.6 220.5,42.2" fill="#f8e397" stroke="#f8e397" stroke-width="0.5"/><polygon points="239.3,41.9 238.1,24.6 249.1,15.0 266.0,22.9 264.8,40.6" fill="#fbe699" stroke="#fbe699" stroke-width="0.5"/><polygon points="264.9,38.9 266.0,22.9 274.4,17.0 286.0,19.7 292.7,29.9 286.9,44.3 286.6,44.5" fill="#fff3a1" stroke="#fff3a1" stroke-width="0.5"/><polygon points="286.9,44.3 292.7,29.9 306.7,28.7 314.7,39.3 308.5,50.8" fill="#fffba6" stroke="#fffba6" stroke-width="0.5"/><polygon points="314.7,39.3 306.7,28.7 312.5,16.0 328.5,14.1 328.5,38.5" fill="#fff7a4" stroke="#fff7a4" stroke-width="0.5"/><polygon points="328.5,13.5 348.8,17.6 348.8,34.3 335.3,43.2 328.5,38.5" fill="#f1dd93" stroke="#f1dd93" stroke-width="0.5"/><polygon points="348.8,34.3 348.8,17.5 352.7,14.4 372.3,19.7 370.8,39.6 365.5,41.7" fill="#ffea9b" stroke="#ffea9b" stroke-width="0.5"/><polygon points="370.6,42.6 372.3,19.7 375.4,17.2 393.3,17.7 395.4,20.3 392.9,40.7" fill="#ebd78f" stroke="#ebd78f" stroke-width="0.5"/><polygon points="395.4,20.3 420.7,21.6 416.4,41.5 392.8,41.5" fill="#b5a66e" stroke="#b5a66e" stroke-width="0.5"/><polygon points="418.1,44.6 416.4,41.5 420.5,22.6 437.6,23.3 445.9,41.0 438.1,51.9" fill="#375b34" stroke="#375b34" stroke-width="0.5"/><polygon points="445.9,41.0 437.6,23.3 446.2,13.6 461.1,16.5 465.5,22.1 460.5,40.0" fill="#3d7ea6" stroke="#3d7ea6" stroke-width="0.5"/><polygon points="460.5,40.0 465.5,22.1 486.5,21.6 489.2,32.7 469.8,48.7" fill="#3d7ea6" stroke="#3d7ea6" stroke-width="0.5"/><polygon points="489.2,32.7 486.5,21.6 487.8,19.0 513.4,12.8 515.3,22.8 510.1,35.5 499.4,40.6" fill="#1f4e6b" stroke="#1f4e6b" stroke-width="0.5"/><polygon points="515.3,22.8 536.0,32.6 527.9,47.4 510.1,35.6" fill="#1f4e6b" stroke="#1f4e6b" stroke-width="0.5"/><polygon points="537.3,31.8 537.8,14.3 544.5,7.9 558.9,17.0 551.1,34.5" fill="#1f4e6b" stroke="#1f4e6b" stroke-width="0.5"/><polygon points="576.0,13.2 576.0,40.5 555.8,40.5 551.1,34.5 558.9,17.0" fill="#1f4e6b" stroke="#1f4e6b" stroke-width="0.5"/><polygon points="0.0,76.8 0.0,48.0 14.1,49.6 7.7,75.3" fill="#1f4e6b" stroke="#1f4e6b" stroke-width="0.5"/><polygon points="11.9,50.5 22.7,29.9 38.5,45.7 37.0,58.8 31.0,60.0" fill="#1f4e6b" stroke="#1f4e6b" stroke-width="0.5"/><polygon points="36.4,63.8 38.5,45.7 51.8,37.2 58.5,42.2 58.5,59.4" fill="#1f4e6b" stroke="#1f4e6b" stroke-width="0.5"/><polygon points="58.5,62.5 58.5,42.2 74.2,38.2 78.5,55.2" fill="#1f4e6b" stroke="#1f4e6b" stroke-width="0.5"/><polygon points="95.5,57.4 93.1,35.1 111.6,29.5 114.8,39.0 103.2,58.6" fill="#3d7ea6" stroke="#3d7ea6" stroke-width="0.5"/><polygon points="114.8,39.0 132.1,49.3 131.4,57.5 101.7,61.1" fill="#3d7ea6" stroke="#3d7ea6" stroke-width="0.5"/><polygon points="131.2,61.0 132.1,49.3 140.1,41.1 156.0,41.8 159.9,59.2 148.3,67.5" fill="#fffba6" stroke="#fffba6" stroke-width="0.5"/><polygon points="159.9,59.2 155.7,40.3 172.1,35.0 181.2,44.4 175.7,65.1" fill="#c9b87a" stroke="#c9b87a" stroke-width="0.5"/><polygon points="174.9,68.1 181.2,44.4 196.8,42.2 198.5,43.0 202.1,60.8" fill="#e8d48d" stroke="#e8d48d" stroke-width="0.5"/><polygon points="202.0,60.7 198.5,43.0 212.6,36.3 220.5,42.2 220.5,55.4" fill="#f7e296" stroke="#f7e296" stroke-width="0.5"/><polygon points="220.5,55.4 220.5,42.2 243.4,36.5 240.2,58.7 233.2,63.6 229.8,63.4" fill="#fffaa5" stroke="#fffaa5" stroke-width="0.5"/><polygon points="240.2,58.8 242.7,41.7 263.0,40.7 263.8,66.1 260.0,66.9" fill="#fff09f" stroke="#fff09f" stroke-width="0.5"/><polygon points="262.9,38.4 286.6,44.5 284.9,56.9 263.8,66.2" fill="#fffaa6" stroke="#fffaa6" stroke-width="0.5"/><polygon points="284.9,56.9 286.6,44.5 286.9,44.3 308.5,50.8 311.1,64.4 303.6,68.9 293.8,68.1" fill="#fffba6" stroke="#fffba6" stroke-width="0.5"/><polygon points="311.1,64.4 308.5,50.8 314.7,39.3 328.5,38.5 335.3,43.2 336.2,50.7 317.4,66.2" fill="#f6e196" stroke="#f6e196" stroke-width="0.5"/><polygon points="336.2,50.7 335.3,43.2 348.7,34.3 365.5,41.7 359.5,55.7 346.9,61.4" fill="#f0db92" stroke="#f0db92" stroke-width="0.5"/><polygon points="359.5,55.7 365.5,41.7 375.6,37.8 380.1,66.2 372.6,68.9" fill="#ffed9d" stroke="#ffed9d" stroke-width="0.5"/><polygon points="380.1,66.2 376.3,42.1 393.7,40.6 396.8,64.2 391.9,69.0" fill="#edd990" stroke="#edd990" stroke-width="0.5"/><polygon points="396.8,64.2 393.8,41.5 416.4,41.5 418.1,44.6 410.8,63.2" fill="#d8c683" stroke="#d8c683" stroke-width="0.5"/><polygon points="418.1,44.6 438.1,51.9 438.6,54.9 420.8,72.7 410.8,63.2" fill="#c7b679" stroke="#c7b679" stroke-width="0.5"/><polygon points="438.6,54.9 438.1,51.9 445.9,41.0 460.5,40.0 469.8,48.7 470.9,54.0 460.2,66.5 448.9,67.1" fill="#426c3e" stroke="#426c3e" stroke-width="0.5"/><polygon points="470.9,54.0 469.8,48.7 489.2,32.7 499.4,40.6 499.6,57.7 483.0,60.7" fill="#3d7ea6" stroke="#3d7ea6" stroke-width="0.5"/><polygon points="491.4,50.2 517.5,58.2 519.2,77.8 502.4,76.3" fill="#3d7ea6" stroke="#3d7ea6" stroke-width="0.5"/><polygon points="499.6,52.7 499.4,40.6 510.1,35.5 527.9,47.4 527.9,48.1 517.5,58.2" fill="#1f4e6b" stroke="#1f4e6b" stroke-width="0.5"/><polygon points="527.9,48.1 527.9,47.4 536.5,31.6 551.1,34.5 555.8,40.5 549.2,59.7 545.6,61.9" fill="#1f4e6b" stroke="#1f4e6b" stroke-width="0.5"/><polygon points="576.0,40.5 576.0,65.0 549.2,59.7 555.8,40.5" fill="#1f4e6b" stroke="#1f4e6b" stroke-width="0.5"/><polygon points="7.7,75.3 13.7,51.4 31.0,60.0 18.9,79.3" fill="#1f4e6b" stroke="#1f4e6b" stroke-width="0.5"/><polygon points="18.9,79.3 31.0,60.0 41.9,57.9 43.9,80.8 23.6,86.1" fill="#1f4e6b" stroke="#1f4e6b" stroke-width="0.5"/><polygon points="43.9,80.8 42.3,62.6 61.1,58.9 66.3,78.1 63.5,81.8 48.7,84.8" fill="#3d7ea6" stroke="#3d7ea6" stroke-width="0.5"/><polygon points="66.3,78.1 61.7,61.3 78.5,55.2 88.4,60.5 84.0,76.6" fill="#3d7ea6" stroke="#3d7ea6" stroke-width="0.5"/><polygon points="84.0,76.6 88.4,60.5 95.5,57.4 104.9,58.9 110.7,77.4 107.6,83.3 89.2,84.3" fill="#fffba6" stroke="#fffba6" stroke-width="0.5"/><polygon points="110.7,77.4 105.5,60.7 135.9,57.0 126.6,75.1" fill="#fffaa6" stroke="#fffaa6" stroke-width="0.5"/><polygon points="126.6,75.1 133.4,61.9 148.3,67.5 150.5,84.4 135.4,91.4" fill="#f6e195" stroke="#f6e195" stroke-width="0.5"/><polygon points="150.5,84.4 148.3,67.5 159.9,59.2 177.3,65.7 177.3,74.4 156.9,87.4" fill="#cdbb7c" stroke="#cdbb7c" stroke-width="0.5"/><polygon points="177.3,74.4 177.3,67.5 202.0,60.9 208.1,77.5 187.2,88.0" fill="#dac885" stroke="#dac885" stroke-width="0.5"/><polygon points="208.1,77.5 201.9,60.7 220.5,55.4 229.8,63.4 212.9,79.9" fill="#fde89a" stroke="#fde89a" stroke-width="0.5"/><polygon points="212.9,79.9 229.8,63.4 233.2,63.6 239.2,84.1 225.2,93.7 219.4,91.2" fill="#fff9a5" stroke="#fff9a5" stroke-width="0.5"/><polygon points="239.2,84.1 233.2,63.6 240.2,58.7 260.0,66.9 246.5,85.2" fill="#fffba6" stroke="#fffba6" stroke-width="0.5"/><polygon points="264.0,66.2 284.9,56.9 293.8,68.1 282.4,80.7 273.2,80.0" fill="#fffba6" stroke="#fffba6" stroke-width="0.5"/><polygon points="294.2,96.7 282.4,80.7 293.8,68.1 303.6,68.9 303.6,91.7" fill="#fffba6" stroke="#fffba6" stroke-width="0.5"/><polygon points="317.4,66.2 336.2,50.7 346.9,61.4 346.5,66.0 336.9,79.1 327.1,79.1" fill="#e3d08a" stroke="#e3d08a" stroke-width="0.5"/><polygon points="336.9,79.1 346.5,66.0 365.2,80.9 365.1,84.1 346.7,91.7" fill="#ffea9b" stroke="#ffea9b" stroke-width="0.5"/><polygon points="346.5,66.0 346.9,61.4 359.5,55.7 372.6,68.9 365.2,80.9" fill="#ffeb9c" stroke="#ffeb9c" stroke-width="0.5"/><polygon points="365.1,84.1 365.2,80.9 372.6,68.9 380.1,66.2 391.9,69.0 393.0,76.2 377.1,94.4 374.0,94.1" fill="#ffea9b" stroke="#ffea9b" stroke-width="0.5"/><polygon points="393.0,76.2 391.9,69.0 396.8,64.2 410.8,63.2 420.8,72.7 421.1,74.1 412.5,89.7 403.3,87.2" fill="#fae598" stroke="#fae598" stroke-width="0.5"/><polygon points="421.1,74.1 420.8,72.7 438.6,54.9 448.9,67.1 441.8,83.6" fill="#cebc7d" stroke="#cebc7d" stroke-width="0.5"/><polygon points="445.0,95.6 441.8,83.6 448.9,67.1 460.2,66.5 469.5,83.9" fill="#d7c583" stroke="#d7c583" stroke-width="0.5"/><polygon points="469.5,83.9 460.2,66.5 470.9,54.0 483.0,60.7 480.8,81.9 473.3,85.2" fill="#355832" stroke="#355832" stroke-width="0.5"/><polygon points="480.8,81.9 483.0,60.7 494.9,58.6 502.4,76.3 492.6,85.1" fill="#3d7ea6" stroke="#3d7ea6" stroke-width="0.5"/><polygon points="519.3,79.0 517.5,58.2 527.9,48.1 544.7,61.3 524.9,79.7" fill="#3d7ea6" stroke="#3d7ea6" stroke-width="0.5"/><polygon points="524.9,79.7 546.2,60.0 553.6,84.3 533.5,87.5" fill="#3d7ea6" stroke="#3d7ea6" stroke-width="0.5"/><polygon points="576.0,65.0 576.0,83.8 554.2,86.3 546.6,61.3 549.2,59.7" fill="#3d7ea6" stroke="#3d7ea6" stroke-width="0.5"/><polygon points="0.0,103.5 0.0,76.8 7.7,75.3 18.9,79.3 23.6,86.1 22.0,103.5" fill="#1f4e6b" stroke="#1f4e6b" stroke-width="0.5"/><polygon points="22.0,104.0 23.6,86.1 43.9,80.8 48.7,84.8 46.9,104.1 44.5,106.1" fill="#1f4e6b" stroke="#1f4e6b" stroke-width="0.5"/><polygon points="46.9,104.1 48.7,84.8 63.5,81.8 72.6,106.5" fill="#3d7ea6" stroke="#3d7ea6" stroke-width="0.5"/><polygon points="70.7,101.2 63.5,81.8 66.3,78.1 84.0,76.6 89.2,84.3 85.6,97.6" fill="#fff7c1" stroke="#fff7c1" stroke-width="0.5"/><polygon points="85.6,97.6 89.2,84.3 107.6,83.3 113.4,97.8 111.2,103.2 94.8,107.9" fill="#fffba6" stroke="#fffba6" stroke-width="0.5"/><polygon points="113.4,97.8 107.6,83.3 110.7,77.4 126.6,75.1 136.1,92.7" fill="#fffba6" stroke="#fffba6" stroke-width="0.5"/><polygon points="139.5,110.3 134.3,91.9 150.5,84.4 156.9,87.4 163.3,103.5 155.5,110.3" fill="#dfcc87" stroke="#dfcc87" stroke-width="0.5"/><polygon points="163.3,103.5 156.9,87.4 177.3,74.4 187.2,88.0 187.1,89.2 167.1,104.2" fill="#dbc985" stroke="#dbc985" stroke-width="0.5"/><polygon points="167.1,104.2 187.1,89.2 198.1,107.1 198.0,109.6 196.7,110.8 175.9,114.1" fill="#f2dd93" stroke="#f2dd93" stroke-width="0.5"/><polygon points="198.1,107.1 187.1,89.2 187.2,88.0 208.1,77.5 212.9,79.9 219.4,91.2" fill="#f1dc92" stroke="#f1dc92" stroke-width="0.5"/><polygon points="229.4,105.9 225.2,93.7 239.2,84.1 246.5,85.2 256.4,97.1 243.8,112.0" fill="#ffef9f" stroke="#ffef9f" stroke-width="0.5"/><polygon points="246.5,85.2 260.0,66.9 263.9,66.0 273.2,80.0 264.2,97.4 256.4,97.1" fill="#fff3a1" stroke="#fff3a1" stroke-width="0.5"/><polygon points="264.2,97.4 273.2,80.0 282.4,80.7 294.1,96.6 274.1,107.9" fill="#fff8a5" stroke="#fff8a5" stroke-width="0.5"/><polygon points="303.3,120.6 294.3,96.6 303.6,91.7 318.3,94.7 322.1,102.5 318.2,115.6" fill="#ffeb9c" stroke="#ffeb9c" stroke-width="0.5"/><polygon points="303.6,91.7 303.6,68.9 311.1,64.4 317.4,66.2 327.1,79.1 318.3,94.7" fill="#e6d38c" stroke="#e6d38c" stroke-width="0.5"/><polygon points="322.1,102.5 318.3,94.7 327.1,79.1 336.9,79.1 346.7,91.7 344.4,102.5" fill="#e8d48d" stroke="#e8d48d" stroke-width="0.5"/><polygon points="348.6,109.9 344.4,102.5 346.7,91.7 365.1,84.1 374.0,94.1 363.3,110.3" fill="#fff1a0" stroke="#fff1a0" stroke-width="0.5"/><polygon points="377.1,94.4 393.0,76.2 403.3,87.2 387.8,102.7" fill="#fffaa6" stroke="#fffaa6" stroke-width="0.5"/><polygon points="403.3,87.2 412.5,89.7 415.1,95.5 395.2,113.8 391.8,111.8 387.8,102.7" fill="#decb87" stroke="#decb87" stroke-width="0.5"/><polygon points="412.5,89.7 421.1,74.1 441.8,83.6 444.1,92.2 416.9,96.9 415.1,95.5" fill="#dbc885" stroke="#dbc885" stroke-width="0.5"/><polygon points="446.8,96.9 446.5,94.9 469.5,83.9 473.3,85.2 474.9,102.4 464.8,111.3" fill="#b2a36c" stroke="#b2a36c" stroke-width="0.5"/><polygon points="474.9,102.4 473.3,85.2 480.8,81.9 492.6,85.1 498.0,101.6 491.6,107.4" fill="#b1a26c" stroke="#b1a26c" stroke-width="0.5"/><polygon points="498.0,101.6 492.6,85.1 502.4,76.3 521.3,78.0 510.4,102.8" fill="#f7e3b0" stroke="#f7e3b0" stroke-width="0.5"/><polygon points="510.4,102.8 520.8,79.2 524.9,79.7 533.5,87.5 535.4,105.3 533.5,107.5 518.3,111.7" fill="#908a5a" stroke="#908a5a" stroke-width="0.5"/><polygon points="535.4,105.3 533.5,87.5 556.7,83.8 551.5,104.6" fill="#908458" stroke="#908458" stroke-width="0.5"/><polygon points="576.0,83.8 576.0,108.6 556.7,110.0 551.5,104.6 556.2,86.0" fill="#345631" stroke="#345631" stroke-width="0.5"/><polygon points="0.0,130.3 0.0,103.5 22.5,103.5 21.5,127.6" fill="#1f4e6b" stroke="#1f4e6b" stroke-width="0.5"/><polygon points="21.5,127.0 22.5,104.1 44.5,106.1 47.1,129.3 44.5,130.6" fill="#1f4e6b" stroke="#1f4e6b" stroke-width="0.5"/><polygon points="47.3,131.0 44.5,106.1 46.9,104.1 67.3,106.0 70.0,119.1 65.9,126.0" fill="#3d7ea6" stroke="#3d7ea6" stroke-width="0.5"/><polygon points="70.0,119.1 66.5,102.2 85.6,97.6 94.8,107.9 91.3,121.1" fill="#fbe698" stroke="#fbe698" stroke-width="0.5"/><polygon points="94.8,128.5 91.3,121.1 94.8,107.9 111.2,103.2 121.7,121.9 99.7,130.8" fill="#f5e195" stroke="#f5e195" stroke-width="0.5"/><polygon points="111.2,103.2 113.4,97.8 134.6,93.0 140.6,113.8 120.7,120.1" fill="#fce799" stroke="#fce799" stroke-width="0.5"/><polygon points="133.5,110.2 155.5,110.2 158.3,128.1 147.3,137.9" fill="#e0cd88" stroke="#e0cd88" stroke-width="0.5"/><polygon points="158.3,128.1 155.5,110.2 163.3,103.5 167.1,104.2 175.9,114.1 173.7,129.5" fill="#d7c583" stroke="#d7c583" stroke-width="0.5"/><polygon points="191.8,130.5 173.6,130.5 175.9,114.1 196.7,110.8" fill="#fde799" stroke="#fde799" stroke-width="0.5"/><polygon points="219.4,91.2 225.2,93.7 229.4,105.9 216.8,121.6 198.0,109.6 198.1,107.1" fill="#fff1a0" stroke="#fff1a0" stroke-width="0.5"/><polygon points="218.1,128.5 216.8,121.6 229.4,105.9 243.8,112.0 248.2,125.8 242.9,132.1" fill="#fff1a0" stroke="#fff1a0" stroke-width="0.5"/><polygon points="248.2,125.8 243.8,112.0 256.4,97.1 264.2,97.4 273.1,106.9 257.8,126.4" fill="#fff09f" stroke="#fff09f" stroke-width="0.5"/><polygon points="257.8,126.4 274.1,105.8 284.4,122.9 267.8,134.7" fill="#ffec9d" stroke="#ffec9d" stroke-width="0.5"/><polygon points="275.0,107.4 294.2,96.5 304.6,124.4 292.1,125.9 284.4,122.9" fill="#fff6a3" stroke="#fff6a3" stroke-width="0.5"/><polygon points="318.2,115.6 322.1,102.5 344.4,102.5 348.6,109.9 344.0,121.5 329.1,125.8" fill="#f5e095" stroke="#f5e095" stroke-width="0.5"/><polygon points="344.0,121.5 348.6,109.9 363.3,110.3 372.1,122.6 371.0,130.4 353.4,135.5" fill="#e5d28b" stroke="#e5d28b" stroke-width="0.5"/><polygon points="363.3,110.3 374.0,94.1 377.1,94.4 387.8,102.7 391.8,111.8 372.1,122.6" fill="#fae598" stroke="#fae598" stroke-width="0.5"/><polygon points="391.8,111.8 395.2,113.7 399.3,120.0 387.2,140.2 380.1,141.0 371.0,130.4 372.1,122.6" fill="#978e84" stroke="#978e84" stroke-width="0.5"/><polygon points="399.3,120.0 395.2,113.8 415.1,95.5 416.9,96.9 423.3,114.6 406.7,122.9" fill="#b1a26c" stroke="#b1a26c" stroke-width="0.5"/><polygon points="416.9,96.9 446.0,91.8 446.8,96.9 437.3,114.2 427.5,116.4 423.3,114.6" fill="#ebd78f" stroke="#ebd78f" stroke-width="0.5"/><polygon points="446.8,96.9 464.8,111.3 465.1,121.7 461.4,126.9 449.0,127.3 437.3,114.2" fill="#9f968a" stroke="#9f968a" stroke-width="0.5"/><polygon points="465.1,121.7 464.8,111.3 474.9,102.4 491.6,107.4 489.9,124.0" fill="#7d766d" stroke="#7d766d" stroke-width="0.5"/><polygon points="489.9,124.0 491.6,107.4 498.0,101.6 510.4,102.8 518.3,111.7 516.9,118.9 503.3,131.1 492.5,128.1" fill="#a19b65" stroke="#a19b65" stroke-width="0.5"/><polygon points="516.9,118.9 518.3,111.7 533.5,107.5 542.1,127.2 530.1,133.2" fill="#6a6642" stroke="#6a6642" stroke-width="0.5"/><polygon points="542.1,127.2 533.5,107.5 535.4,105.3 551.5,104.6 556.7,110.0 553.1,123.7 547.9,128.5" fill="#6a6642" stroke="#6a6642" stroke-width="0.5"/><polygon points="576.0,108.6 576.0,129.4 553.1,123.7 556.7,110.0" fill="#988c5d" stroke="#988c5d" stroke-width="0.5"/><polygon points="0.0,143.2 0.0,130.3 20.8,127.7 22.3,147.0 16.9,153.4" fill="#1f4e6b" stroke="#1f4e6b" stroke-width="0.5"/><polygon points="22.3,147.0 20.7,126.8 44.5,130.6 37.9,148.4" fill="#1f4e6b" stroke="#1f4e6b" stroke-width="0.5"/><polygon points="50.3,130.2 65.9,126.0 76.8,143.9 60.0,152.2" fill="#3d7ea6" stroke="#3d7ea6" stroke-width="0.5"/><polygon points="65.9,126.0 70.0,119.1 91.3,121.1 94.8,128.5 77.3,144.7" fill="#fae598" stroke="#fae598" stroke-width="0.5"/><polygon points="78.0,144.2 94.8,128.5 99.7,130.8 105.2,146.8 98.2,157.2 87.0,158.0" fill="#54894e" stroke="#54894e" stroke-width="0.5"/><polygon points="105.2,146.8 99.7,130.8 119.5,122.8 126.3,140.3 119.5,147.4" fill="#9a8d5d" stroke="#9a8d5d" stroke-width="0.5"/><polygon points="126.3,140.3 118.7,120.7 136.0,115.2 147.0,137.2 139.5,141.9" fill="#b2a36c" stroke="#b2a36c" stroke-width="0.5"/><polygon points="148.1,137.3 158.3,128.1 174.6,129.6 173.8,148.0 160.4,150.3" fill="#d2c080" stroke="#d2c080" stroke-width="0.5"/><polygon points="173.6,150.7 174.5,130.5 191.8,130.5 197.9,138.6 194.2,147.7" fill="#cebd7d" stroke="#cebd7d" stroke-width="0.5"/><polygon points="191.8,130.5 196.7,110.8 198.0,109.6 216.8,121.6 218.1,128.5 214.5,135.3 197.9,138.6" fill="#efdb91" stroke="#efdb91" stroke-width="0.5"/><polygon points="214.5,135.3 218.1,128.5 242.9,132.1 242.5,147.6 222.0,154.9" fill="#ffeb9c" stroke="#ffeb9c" stroke-width="0.5"/><polygon points="242.5,147.6 242.9,132.1 248.2,125.8 257.8,126.4 267.8,134.7 271.0,147.5 268.5,149.2 244.2,149.2" fill="#d2c180" stroke="#d2c180" stroke-width="0.5"/><polygon points="271.0,147.5 267.8,134.7 284.4,122.9 292.1,125.9 281.6,150.6" fill="#f9e497" stroke="#f9e497" stroke-width="0.5"/><polygon points="281.6,150.6 292.1,125.9 300.2,124.9 305.1,136.1 293.0,154.8 286.2,154.8" fill="#a39a8e" stroke="#a39a8e" stroke-width="0.5"/><polygon points="305.1,136.1 298.9,122.1 318.2,115.6 329.1,125.8 325.6,144.2 319.7,144.4" fill="#b8a870" stroke="#b8a870" stroke-width="0.5"/><polygon points="324.4,150.4 329.1,125.8 344.0,121.5 353.4,135.5 349.3,146.8" fill="#948c81" stroke="#948c81" stroke-width="0.5"/><polygon points="357.5,157.1 349.3,146.8 353.4,135.5 371.0,130.4 380.1,141.0 374.6,153.7" fill="#ada397" stroke="#ada397" stroke-width="0.5"/><polygon points="387.2,140.2 399.3,120.0 406.7,122.9 412.4,137.9 403.2,150.1" fill="#635d56" stroke="#635d56" stroke-width="0.5"/><polygon points="412.4,137.9 406.7,122.9 423.3,114.6 427.5,116.4 427.5,138.5" fill="#8c847a" stroke="#8c847a" stroke-width="0.5"/><polygon points="427.5,138.5 427.5,116.4 437.3,114.2 449.0,127.3 435.3,144.9" fill="#b0a699" stroke="#b0a699" stroke-width="0.5"/><polygon points="435.8,144.2 449.0,127.3 461.4,126.9 464.9,137.9 446.9,154.3" fill="#837c73" stroke="#837c73" stroke-width="0.5"/><polygon points="464.9,137.9 461.4,126.9 465.1,121.7 489.9,124.0 492.5,128.1 479.7,148.0 475.9,147.4" fill="#69635b" stroke="#69635b" stroke-width="0.5"/><polygon points="492.5,128.1 503.3,131.1 506.2,137.6 498.6,156.8 487.2,157.3 479.7,148.0" fill="#5c5751" stroke="#5c5751" stroke-width="0.5"/><polygon points="506.3,137.6 503.3,131.1 516.9,118.9 530.1,133.2 526.0,147.3 525.7,147.4" fill="#6a6642" stroke="#6a6642" stroke-width="0.5"/><polygon points="526.0,147.3 530.1,133.2 542.1,127.2 547.9,128.5 553.0,142.7 550.0,148.8 534.3,153.3" fill="#6a6642" stroke="#6a6642" stroke-width="0.5"/><polygon points="576.0,129.4 576.0,139.9 553.0,142.8 547.9,128.5 553.1,123.7" fill="#8d8156" stroke="#8d8156" stroke-width="0.5"/><polygon points="0.0,170.4 0.0,143.2 16.9,153.4 16.6,159.5" fill="#1f4e6b" stroke="#1f4e6b" stroke-width="0.5"/><polygon points="16.6,159.5 16.9,153.4 22.3,147.0 37.9,148.4 41.2,154.4 29.7,170.3" fill="#1f4e6b" stroke="#1f4e6b" stroke-width="0.5"/><polygon points="37.9,148.4 44.5,130.6 49.5,128.1 60.0,152.2 56.8,158.7 41.2,154.4" fill="#3d7ea6" stroke="#3d7ea6" stroke-width="0.5"/><polygon points="59.5,168.3 56.8,158.7 60.0,152.2 77.5,143.5 87.0,158.0 81.7,166.9" fill="#fff0bb" stroke="#fff0bb" stroke-width="0.5"/><polygon points="98.2,157.2 105.2,146.8 119.5,147.4 124.3,166.5 105.2,166.5" fill="#9a8d5e" stroke="#9a8d5e" stroke-width="0.5"/><polygon points="124.4,166.8 119.5,147.4 126.3,140.3 139.5,141.9 139.5,164.0" fill="#a89966" stroke="#a89966" stroke-width="0.5"/><polygon points="139.5,164.0 139.5,141.9 147.7,136.8 160.4,150.3 154.6,165.4 147.4,168.4" fill="#9e9160" stroke="#9e9160" stroke-width="0.5"/><polygon points="154.6,165.4 160.4,150.3 176.2,147.6 177.9,165.7 171.3,173.1" fill="#a79965" stroke="#a79965" stroke-width="0.5"/><polygon points="177.9,165.7 176.5,150.3 194.2,147.8 200.7,160.6 195.6,168.5" fill="#a59865" stroke="#a59865" stroke-width="0.5"/><polygon points="194.3,147.7 197.9,138.6 214.5,135.3 223.7,159.5 200.7,160.6" fill="#d0be7e" stroke="#d0be7e" stroke-width="0.5"/><polygon points="218.4,156.1 242.5,147.6 244.2,149.3 248.6,168.7 239.7,176.4 222.8,168.3" fill="#aaa094" stroke="#aaa094" stroke-width="0.5"/><polygon points="248.6,168.7 244.2,149.2 268.5,149.2 261.0,170.2" fill="#8c847a" stroke="#8c847a" stroke-width="0.5"/><polygon points="269.1,178.8 261.0,170.2 268.5,149.3 271.0,147.5 281.6,150.6 286.2,154.8 280.7,174.3" fill="#a9a093" stroke="#a9a093" stroke-width="0.5"/><polygon points="293.0,154.8 305.1,136.1 319.7,144.4 304.0,161.5" fill="#5f5952" stroke="#5f5952" stroke-width="0.5"/><polygon points="304.0,161.5 319.7,144.4 331.4,144.1 328.9,170.6 306.8,167.4" fill="#a59c90" stroke="#a59c90" stroke-width="0.5"/><polygon points="329.0,169.5 330.9,149.4 349.3,146.8 357.5,157.1 354.4,171.2 346.7,175.9" fill="#6c655e" stroke="#6c655e" stroke-width="0.5"/><polygon points="354.4,171.2 357.5,157.1 374.6,153.7 384.3,169.6 378.6,179.7 372.3,180.8" fill="#797269" stroke="#797269" stroke-width="0.5"/><polygon points="384.3,169.6 374.6,153.7 380.1,141.0 387.2,140.2 403.2,150.1 404.7,157.4 399.1,166.0" fill="#766f67" stroke="#766f67" stroke-width="0.5"/><polygon points="404.7,157.4 403.2,150.1 412.4,137.9 427.5,138.5 434.3,144.1 421.0,160.7" fill="#746d65" stroke="#746d65" stroke-width="0.5"/><polygon points="434.9,143.4 446.9,154.3 447.5,155.9 439.7,172.6 429.4,176.3 421.0,160.7" fill="#847d73" stroke="#847d73" stroke-width="0.5"/><polygon points="447.5,155.9 446.9,154.3 464.9,137.9 475.9,147.4 461.3,162.0" fill="#827a71" stroke="#827a71" stroke-width="0.5"/><polygon points="465.6,173.0 461.3,162.0 475.9,147.4 479.7,148.0 487.2,157.3 482.8,170.4" fill="#847d73" stroke="#847d73" stroke-width="0.5"/><polygon points="498.6,156.8 506.2,137.6 525.7,147.4 509.0,164.1" fill="#6a6642" stroke="#6a6642" stroke-width="0.5"/><polygon points="509.0,164.1 525.7,147.4 526.0,147.3 534.3,153.3 535.3,173.2 531.6,174.8 511.0,171.8" fill="#6a6642" stroke="#6a6642" stroke-width="0.5"/><polygon points="541.9,176.3 535.3,173.2 534.3,153.3 550.0,148.8 560.6,165.5 548.3,176.5" fill="#6a6642" stroke="#6a6642" stroke-width="0.5"/><polygon points="576.0,139.9 576.0,166.0 560.6,165.5 550.0,148.8 553.0,142.7" fill="#345631" stroke="#345631" stroke-width="0.5"/><polygon points="0.0,178.9 0.0,170.4 16.6,159.5 29.7,170.3 31.0,175.0 28.5,184.0 19.0,187.9" fill="#1f4e6b" stroke="#1f4e6b" stroke-width="0.5"/><polygon points="31.0,175.0 29.7,170.3 41.2,154.4 56.8,158.7 59.5,168.3 58.1,172.0" fill="#3d7ea6" stroke="#3d7ea6" stroke-width="0.5"/><polygon points="28.5,184.0 31.0,175.0 58.1,172.0 59.0,178.4 46.9,196.1 42.6,197.3" fill="#3d7ea6" stroke="#3d7ea6" stroke-width="0.5"/><polygon points="59.0,178.4 58.1,172.0 59.5,168.3 81.7,166.9 86.9,184.2 82.7,191.0 76.2,192.2" fill="#f8e4b1" stroke="#f8e4b1" stroke-width="0.5"/><polygon points="86.9,184.2 81.7,166.9 87.0,158.0 98.2,157.2 105.2,166.5 101.5,181.3" fill="#dfcc87" stroke="#dfcc87" stroke-width="0.5"/><polygon points="101.5,181.3 105.2,166.5 124.6,166.5 123.3,181.3 110.2,187.9" fill="#cbba7b" stroke="#cbba7b" stroke-width="0.5"/><polygon points="123.3,181.3 124.6,166.7 139.5,164.0 147.4,168.4 146.7,185.4 134.9,191.0" fill="#c3b377" stroke="#c3b377" stroke-width="0.5"/><polygon points="146.7,185.4 147.4,168.4 154.6,165.4 171.3,173.1 172.5,183.5 154.3,190.3" fill="#b9a970" stroke="#b9a970" stroke-width="0.5"/><polygon points="173.0,187.9 171.3,173.1 177.9,165.7 195.6,168.5 197.5,181.8" fill="#b6a76f" stroke="#b6a76f" stroke-width="0.5"/><polygon points="197.5,181.8 195.6,168.5 200.7,160.6 219.7,159.7 222.8,168.3 212.0,186.5 202.8,186.6" fill="#dcc986" stroke="#dcc986" stroke-width="0.5"/><polygon points="212.0,186.5 222.8,168.3 239.7,176.4 240.0,181.5 227.1,195.9 221.9,196.4" fill="#5c5751" stroke="#5c5751" stroke-width="0.5"/><polygon points="240.0,181.5 239.7,176.4 248.6,168.7 261.0,170.2 269.1,178.8 266.9,188.4 255.5,196.0 254.3,195.8" fill="#635d56" stroke="#635d56" stroke-width="0.5"/><polygon points="266.9,188.4 269.1,178.8 280.7,174.3 298.4,185.1 299.3,188.2 287.4,202.3 283.2,202.9" fill="#5c5751" stroke="#5c5751" stroke-width="0.5"/><polygon points="280.7,174.3 286.2,154.8 293.0,154.8 304.0,161.5 306.8,167.4 298.4,185.1" fill="#7d766d" stroke="#7d766d" stroke-width="0.5"/><polygon points="299.3,188.2 298.4,185.1 306.8,167.4 327.6,170.4 321.8,189.5 309.2,192.5" fill="#5c5751" stroke="#5c5751" stroke-width="0.5"/><polygon points="321.8,189.5 328.0,169.1 346.7,175.9 346.2,190.8 333.2,199.2" fill="#655f58" stroke="#655f58" stroke-width="0.5"/><polygon points="360.5,200.3 346.2,190.8 346.7,175.9 354.4,171.2 372.3,180.8" fill="#655f58" stroke="#655f58" stroke-width="0.5"/><polygon points="378.6,179.7 384.3,169.6 399.1,166.0 410.0,186.5 400.5,193.0 386.2,190.7" fill="#67615a" stroke="#67615a" stroke-width="0.5"/><polygon points="410.0,186.5 399.1,166.0 404.7,157.4 421.0,160.7 429.6,176.7" fill="#6b655d" stroke="#6b655d" stroke-width="0.5"/><polygon points="438.1,201.3 428.9,176.5 439.7,172.6 457.8,184.1 441.3,202.4" fill="#948c81" stroke="#948c81" stroke-width="0.5"/><polygon points="439.7,172.6 447.5,155.9 461.3,162.0 465.6,173.0 459.8,183.8 457.8,184.1" fill="#978e83" stroke="#978e83" stroke-width="0.5"/><polygon points="459.8,183.8 465.6,173.0 482.8,170.4 489.0,181.4 480.9,194.6 471.6,195.6" fill="#817a70" stroke="#817a70" stroke-width="0.5"/><polygon points="482.8,170.4 487.2,157.3 498.6,156.8 509.0,164.1 511.0,171.8 505.1,182.1 489.0,181.4" fill="#5c5751" stroke="#5c5751" stroke-width="0.5"/><polygon points="505.1,182.1 511.0,171.8 531.6,174.8 524.2,193.8 508.8,191.6" fill="#6a6642" stroke="#6a6642" stroke-width="0.5"/><polygon points="531.4,202.6 524.2,193.8 531.6,174.8 535.3,173.2 541.9,176.3 538.0,201.0" fill="#345631" stroke="#345631" stroke-width="0.5"/><polygon points="576.0,166.0 576.0,191.2 557.6,191.2 548.3,176.5 560.6,165.5" fill="#3d7ea6" stroke="#3d7ea6" stroke-width="0.5"/><polygon points="0.0,210.6 0.0,178.9 19.0,187.9 13.1,209.2" fill="#1f4e6b" stroke="#1f4e6b" stroke-width="0.5"/><polygon points="13.1,209.2 19.0,187.9 28.5,184.0 42.6,197.3 38.8,208.2 20.4,214.5" fill="#1f4e6b" stroke="#1f4e6b" stroke-width="0.5"/><polygon points="46.9,196.1 59.0,178.4 76.2,192.2 65.3,205.2" fill="#3d7ea6" stroke="#3d7ea6" stroke-width="0.5"/><polygon points="66.7,219.8 65.3,205.2 76.2,192.2 82.7,191.0 94.1,208.5 92.1,215.1" fill="#ffefba" stroke="#ffefba" stroke-width="0.5"/><polygon points="94.1,208.5 82.7,191.0 86.9,184.2 101.5,181.3 110.2,187.9 110.2,202.0" fill="#d6c482" stroke="#d6c482" stroke-width="0.5"/><polygon points="110.2,202.0 110.2,187.9 123.3,181.3 134.9,191.0 132.0,202.3 119.2,207.5" fill="#cbba7b" stroke="#cbba7b" stroke-width="0.5"/><polygon points="132.0,202.3 134.9,191.0 146.7,185.4 154.3,190.3 157.3,208.3 143.6,212.8" fill="#b5a66e" stroke="#b5a66e" stroke-width="0.5"/><polygon points="157.3,208.3 154.3,190.3 175.9,182.3 177.8,199.1 164.4,211.8" fill="#afa06a" stroke="#afa06a" stroke-width="0.5"/><polygon points="177.8,199.1 176.4,187.1 197.5,181.8 202.8,186.6 194.8,207.6" fill="#afa16b" stroke="#afa16b" stroke-width="0.5"/><polygon points="195.8,210.5 194.8,207.6 202.8,186.6 212.0,186.5 221.9,196.4 216.5,210.2" fill="#8d8156" stroke="#8d8156" stroke-width="0.5"/><polygon points="227.1,195.9 240.0,181.5 254.3,195.8 238.5,205.4" fill="#5c5751" stroke="#5c5751" stroke-width="0.5"/><polygon points="238.5,219.8 238.5,205.4 254.3,195.8 255.5,196.0 259.5,210.6 246.5,225.5" fill="#6a6642" stroke="#6a6642" stroke-width="0.5"/><polygon points="259.5,210.6 255.5,196.0 266.9,188.4 283.2,202.9 273.9,214.9" fill="#5c5751" stroke="#5c5751" stroke-width="0.5"/><polygon points="287.4,202.3 299.3,188.2 309.2,192.5 312.5,213.8 309.8,217.6 299.0,217.2" fill="#5c5751" stroke="#5c5751" stroke-width="0.5"/><polygon points="312.5,213.8 309.2,192.5 321.8,189.5 333.2,199.2 332.7,208.8" fill="#5c5751" stroke="#5c5751" stroke-width="0.5"/><polygon points="332.7,208.8 333.2,199.2 346.2,190.8 360.5,200.3 363.2,209.1 336.4,213.8" fill="#5c5751" stroke="#5c5751" stroke-width="0.5"/><polygon points="363.0,208.3 360.5,200.3 372.3,180.8 378.6,179.7 386.2,190.7 378.2,210.2" fill="#6a645d" stroke="#6a645d" stroke-width="0.5"/><polygon points="376.9,213.5 386.2,190.7 400.5,193.0 400.5,212.5" fill="#6c665e" stroke="#6c665e" stroke-width="0.5"/><polygon points="400.5,211.5 400.5,193.0 410.0,186.5 422.7,206.1 419.4,211.5" fill="#777168" stroke="#777168" stroke-width="0.5"/><polygon points="410.0,186.5 429.1,177.0 438.1,201.3 422.7,206.1" fill="#726b63" stroke="#726b63" stroke-width="0.5"/><polygon points="441.3,202.4 457.8,184.1 459.8,183.8 471.6,195.6 464.9,211.3 445.2,208.5" fill="#a69d91" stroke="#a69d91" stroke-width="0.5"/><polygon points="463.9,213.5 471.6,195.6 480.9,194.6 491.8,206.6 486.9,221.5 486.0,221.8" fill="#5c5751" stroke="#5c5751" stroke-width="0.5"/><polygon points="480.9,194.6 489.0,181.4 505.1,182.1 508.8,191.6 504.2,203.0 491.8,206.6" fill="#5c5751" stroke="#5c5751" stroke-width="0.5"/><polygon points="514.8,215.6 504.2,203.0 508.8,191.6 524.2,193.8 531.4,202.6 526.8,212.0" fill="#6a6642" stroke="#6a6642" stroke-width="0.5"/><polygon points="538.0,201.0 541.9,176.3 548.3,176.5 557.6,191.3 549.2,203.7" fill="#3d7ea6" stroke="#3d7ea6" stroke-width="0.5"/><polygon points="576.0,191.2 576.0,214.1 552.6,210.7 549.2,203.7 557.6,191.2" fill="#1f4e6b" stroke="#1f4e6b" stroke-width="0.5"/><polygon points="0.0,236.2 0.0,210.6 13.1,209.2 20.4,214.5 22.3,228.3 17.6,236.2" fill="#1f4e6b" stroke="#1f4e6b" stroke-width="0.5"/><polygon points="22.3,228.3 20.4,214.5 38.8,208.2 47.7,222.1 41.8,231.4" fill="#1f4e6b" stroke="#1f4e6b" stroke-width="0.5"/><polygon points="38.8,208.2 42.6,197.3 46.9,196.1 65.3,205.2 66.9,221.1 47.7,222.1" fill="#3d7ea6" stroke="#3d7ea6" stroke-width="0.5"/><polygon points="69.6,237.1 65.7,220.0 92.1,215.1 98.0,228.2 92.5,235.9" fill="#fff8c2" stroke="#fff8c2" stroke-width="0.5"/><polygon points="98.0,228.2 92.1,215.1 94.1,208.5 110.2,202.0 119.2,207.5 119.2,224.5 109.9,230.2" fill="#e6d38c" stroke="#e6d38c" stroke-width="0.5"/><polygon points="119.2,224.6 119.2,207.5 132.0,202.3 143.6,212.8 139.2,228.1 133.2,230.1" fill="#c1b075" stroke="#c1b075" stroke-width="0.5"/><polygon points="139.2,228.1 143.6,212.8 157.3,208.3 164.4,211.8 167.5,219.4 166.3,225.9 153.9,237.8" fill="#3b6137" stroke="#3b6137" stroke-width="0.5"/><polygon points="184.6,242.2 166.3,225.9 167.5,219.4 193.2,219.4" fill="#375a33" stroke="#375a33" stroke-width="0.5"/><polygon points="167.5,219.4 164.4,211.8 177.8,199.1 194.8,207.6 195.8,210.5 193.3,219.4" fill="#8f8357" stroke="#8f8357" stroke-width="0.5"/><polygon points="193.4,219.3 195.8,210.5 216.5,210.2 222.7,221.6 219.0,228.1 208.2,230.4" fill="#365832" stroke="#365832" stroke-width="0.5"/><polygon points="216.5,210.2 221.9,196.4 227.1,195.9 238.5,205.4 238.5,219.8 222.7,221.6" fill="#8d8156" stroke="#8d8156" stroke-width="0.5"/><polygon points="247.9,223.9 259.5,210.6 273.9,214.9 275.6,225.5 265.5,235.1" fill="#6a6642" stroke="#6a6642" stroke-width="0.5"/><polygon points="275.6,225.5 273.9,214.9 283.2,202.9 287.4,202.3 299.0,217.2 288.7,230.1" fill="#6a6642" stroke="#6a6642" stroke-width="0.5"/><polygon points="293.1,241.2 288.7,230.1 299.0,217.2 309.8,217.6 314.8,230.1 312.8,236.2" fill="#7ba367" stroke="#7ba367" stroke-width="0.5"/><polygon points="314.8,230.1 309.8,217.6 312.5,213.8 332.7,208.8 336.4,213.8 336.9,227.8" fill="#837e52" stroke="#837e52" stroke-width="0.5"/><polygon points="336.9,227.5 336.4,213.8 362.1,209.3 358.2,230.5" fill="#706961" stroke="#706961" stroke-width="0.5"/><polygon points="358.2,230.7 362.3,208.2 381.3,210.6 381.5,229.3 371.2,237.1" fill="#807970" stroke="#807970" stroke-width="0.5"/><polygon points="381.5,229.3 381.3,213.3 399.5,212.5 402.5,231.7 397.1,236.4" fill="#8c847a" stroke="#8c847a" stroke-width="0.5"/><polygon points="402.5,231.8 399.3,211.5 419.4,211.5 423.5,231.8" fill="#958d82" stroke="#958d82" stroke-width="0.5"/><polygon points="422.6,227.2 419.4,211.5 422.7,206.1 438.1,201.3 441.3,202.4 445.2,208.5 441.5,227.2" fill="#a0968b" stroke="#a0968b" stroke-width="0.5"/><polygon points="440.5,232.1 445.2,208.5 467.5,211.6 461.0,229.2" fill="#b2a89b" stroke="#b2a89b" stroke-width="0.5"/><polygon points="472.7,242.6 461.0,229.2 466.5,214.4 486.0,221.8" fill="#5c5751" stroke="#5c5751" stroke-width="0.5"/><polygon points="486.9,221.5 491.8,206.6 504.2,203.0 514.8,215.6 511.7,223.4 498.0,228.9" fill="#5c5751" stroke="#5c5751" stroke-width="0.5"/><polygon points="520.5,235.5 511.7,223.4 514.8,215.6 526.8,212.0 540.4,230.5" fill="#345631" stroke="#345631" stroke-width="0.5"/><polygon points="538.4,227.8 526.8,212.0 531.4,202.6 538.0,201.0 549.2,203.7 552.6,210.7 546.1,226.8" fill="#3d7ea6" stroke="#3d7ea6" stroke-width="0.5"/><polygon points="576.0,214.1 576.0,227.6 551.8,231.4 546.1,226.8 552.6,210.7" fill="#1f4e6b" stroke="#1f4e6b" stroke-width="0.5"/><polygon points="0.0,256.5 0.0,236.2 17.6,236.2 23.3,250.7 20.6,256.5" fill="#1f4e6b" stroke="#1f4e6b" stroke-width="0.5"/><polygon points="23.3,250.7 17.6,236.2 22.3,228.3 41.8,231.4 45.0,247.3" fill="#1f4e6b" stroke="#1f4e6b" stroke-width="0.5"/><polygon points="44.9,247.1 41.8,231.4 47.7,222.1 65.9,221.1 70.3,240.2" fill="#3d7ea6" stroke="#3d7ea6" stroke-width="0.5"/><polygon points="66.9,237.3 92.5,235.9 94.7,255.8 70.7,247.8" fill="#53894e" stroke="#53894e" stroke-width="0.5"/><polygon points="94.7,255.9 92.5,235.9 98.0,228.2 109.9,230.2 114.2,247.5 108.2,255.4" fill="#f3df94" stroke="#f3df94" stroke-width="0.5"/><polygon points="114.2,247.5 109.9,230.2 119.2,224.5 133.2,230.1 128.8,247.5" fill="#ccbb7c" stroke="#ccbb7c" stroke-width="0.5"/><polygon points="134.7,255.4 128.8,247.5 133.2,230.1 139.2,228.1 154.6,238.2 146.1,254.1" fill="#b6a76e" stroke="#b6a76e" stroke-width="0.5"/><polygon points="153.1,238.5 166.3,225.9 183.5,241.2 174.0,253.6" fill="#477542" stroke="#477542" stroke-width="0.5"/><polygon points="185.2,240.7 193.3,219.2 208.2,230.4 201.2,247.7" fill="#4f814a" stroke="#4f814a" stroke-width="0.5"/><polygon points="200.8,248.8 208.2,230.4 219.0,228.1 226.4,246.8" fill="#bfaf74" stroke="#bfaf74" stroke-width="0.5"/><polygon points="226.4,246.8 219.0,228.1 222.7,221.6 238.5,219.8 244.9,224.3 238.8,246.0 227.9,248.0" fill="#8d8156" stroke="#8d8156" stroke-width="0.5"/><polygon points="238.8,246.0 245.4,222.4 265.5,235.1 265.5,244.7 244.5,249.9" fill="#546f46" stroke="#546f46" stroke-width="0.5"/><polygon points="265.5,245.7 265.5,235.1 275.6,225.5 288.7,230.1 293.1,241.2 290.7,248.4" fill="#79a065" stroke="#79a065" stroke-width="0.5"/><polygon points="291.6,251.6 290.7,248.4 293.1,241.2 312.8,236.2 320.7,252.2 319.7,254.4 302.2,260.7" fill="#bcb576" stroke="#bcb576" stroke-width="0.5"/><polygon points="320.7,252.2 312.8,236.2 314.8,230.1 336.6,227.8 335.8,246.6" fill="#95c57c" stroke="#95c57c" stroke-width="0.5"/><polygon points="335.8,246.6 336.6,227.4 358.4,230.6 347.7,253.5" fill="#85b06f" stroke="#85b06f" stroke-width="0.5"/><polygon points="347.7,253.5 358.3,230.7 371.2,237.1 373.1,251.5 373.0,251.7 349.1,255.8" fill="#7ea769" stroke="#7ea769" stroke-width="0.5"/><polygon points="373.1,251.5 371.2,237.1 381.5,229.3 397.1,236.4 396.5,246.8" fill="#867e75" stroke="#867e75" stroke-width="0.5"/><polygon points="396.5,246.8 397.1,236.4 402.5,231.7 418.9,231.7 422.1,247.5 414.3,258.4 412.3,258.6 400.9,254.2" fill="#a0978c" stroke="#a0978c" stroke-width="0.5"/><polygon points="422.1,247.5 418.1,227.2 445.0,227.2 444.2,249.2" fill="#a49b8f" stroke="#a49b8f" stroke-width="0.5"/><polygon points="444.3,248.1 444.9,231.5 461.0,229.2 472.7,242.6 472.9,244.5 461.3,252.7" fill="#5c5751" stroke="#5c5751" stroke-width="0.5"/><polygon points="472.9,244.5 472.7,242.6 486.0,221.8 486.9,221.5 498.0,228.9 499.0,246.6 483.7,251.3" fill="#8d8156" stroke="#8d8156" stroke-width="0.5"/><polygon points="499.0,246.6 498.0,228.9 511.7,223.4 520.5,235.5 516.5,246.4 505.0,250.0" fill="#8d8156" stroke="#8d8156" stroke-width="0.5"/><polygon points="516.5,246.4 520.5,235.5 534.9,231.9 537.5,252.7 528.4,255.4" fill="#8f8366" stroke="#8f8366" stroke-width="0.5"/><polygon points="537.5,252.7 534.5,228.3 546.1,226.8 551.8,231.4 553.9,245.9 544.3,254.9" fill="#3d7ea6" stroke="#3d7ea6" stroke-width="0.5"/><polygon points="576.0,227.6 576.0,251.4 553.9,245.9 551.8,231.4" fill="#1f4e6b" stroke="#1f4e6b" stroke-width="0.5"/><polygon points="0.0,274.5 0.0,256.5 20.6,256.5 24.5,274.5" fill="#1f4e6b" stroke="#1f4e6b" stroke-width="0.5"/><polygon points="24.5,274.4 20.6,256.5 23.3,250.7 44.8,247.4 49.0,264.4 40.7,273.7" fill="#1f4e6b" stroke="#1f4e6b" stroke-width="0.5"/><polygon points="49.0,264.4 44.7,247.2 68.2,240.8 70.7,247.8 67.1,267.6" fill="#3d7ea6" stroke="#3d7ea6" stroke-width="0.5"/><polygon points="67.2,266.9 70.7,247.8 94.8,255.8 90.1,266.8 86.2,269.2" fill="#e4d1a3" stroke="#e4d1a3" stroke-width="0.5"/><polygon points="90.1,266.8 94.7,255.9 108.2,255.4 117.0,268.2 108.7,282.8" fill="#426c3e" stroke="#426c3e" stroke-width="0.5"/><polygon points="117.0,268.2 108.2,255.4 114.2,247.5 128.8,247.5 134.7,255.4 129.1,267.2" fill="#b5a66e" stroke="#b5a66e" stroke-width="0.5"/><polygon points="136.2,277.7 129.1,267.2 134.7,255.4 146.1,254.1 157.1,268.4 154.9,274.6" fill="#457241" stroke="#457241" stroke-width="0.5"/><polygon points="157.1,268.4 146.1,254.1 154.1,239.2 174.0,253.6 173.8,260.2" fill="#497844" stroke="#497844" stroke-width="0.5"/><polygon points="173.8,260.2 174.0,253.6 184.3,240.2 201.9,248.0 201.2,265.0 182.9,268.3" fill="#6098b8" stroke="#6098b8" stroke-width="0.5"/><polygon points="201.1,268.4 201.9,248.7 226.4,246.8 227.9,248.0 223.6,265.6 215.6,269.8" fill="#7ba367" stroke="#7ba367" stroke-width="0.5"/><polygon points="223.6,265.6 227.9,248.0 238.8,246.0 244.5,249.9 248.7,268.4 240.4,274.9" fill="#7aa266" stroke="#7aa266" stroke-width="0.5"/><polygon points="248.7,268.4 244.5,249.9 266.3,244.5 267.4,268.8 265.4,270.7" fill="#dac784" stroke="#dac784" stroke-width="0.5"/><polygon points="267.4,268.8 266.4,245.8 290.7,248.4 291.6,251.6 277.4,268.1" fill="#6a6642" stroke="#6a6642" stroke-width="0.5"/><polygon points="277.4,268.1 291.6,251.5 302.2,260.7 301.3,271.1 290.7,278.3" fill="#6a6642" stroke="#6a6642" stroke-width="0.5"/><polygon points="301.3,271.1 302.2,260.7 319.7,254.4 328.5,275.4 313.0,280.4" fill="#a39c66" stroke="#a39c66" stroke-width="0.5"/><polygon points="327.4,272.9 319.7,254.4 320.7,252.2 335.8,246.6 347.7,253.5 349.1,255.8 347.8,269.1 347.0,270.1" fill="#a3998e" stroke="#a3998e" stroke-width="0.5"/><polygon points="347.8,269.1 349.1,255.8 373.0,251.7 376.0,263.3 369.4,274.0" fill="#a0978b" stroke="#a0978b" stroke-width="0.5"/><polygon points="376.0,263.3 373.0,251.7 373.1,251.5 396.5,246.8 400.9,254.2 389.3,266.6" fill="#a39a8e" stroke="#a39a8e" stroke-width="0.5"/><polygon points="395.5,283.4 389.3,266.6 400.9,254.2 412.3,258.6 399.3,285.3" fill="#b3a99c" stroke="#b3a99c" stroke-width="0.5"/><polygon points="414.3,258.4 422.1,247.5 443.0,249.2 438.9,269.4 426.0,271.1" fill="#5c5751" stroke="#5c5751" stroke-width="0.5"/><polygon points="438.9,269.4 443.3,247.8 461.3,252.7 462.3,271.3 444.5,274.1" fill="#8d8156" stroke="#8d8156" stroke-width="0.5"/><polygon points="462.5,274.0 461.3,252.7 472.9,244.5 483.8,251.3 483.8,273.2" fill="#8d8156" stroke="#8d8156" stroke-width="0.5"/><polygon points="483.7,273.5 483.7,251.3 499.0,246.6 505.0,250.0 507.0,274.5" fill="#8d8156" stroke="#8d8156" stroke-width="0.5"/><polygon points="506.8,272.0 505.0,250.0 516.5,246.4 528.4,255.4 523.9,268.9" fill="#8f8366" stroke="#8f8366" stroke-width="0.5"/><polygon points="523.9,268.9 528.4,255.4 537.5,252.7 544.3,254.9 548.8,266.0 536.1,281.1" fill="#3d7ea6" stroke="#3d7ea6" stroke-width="0.5"/><polygon points="576.0,251.4 576.0,262.3 559.3,269.0 548.8,266.0 544.3,254.9 553.9,245.9" fill="#1f4e6b" stroke="#1f4e6b" stroke-width="0.5"/><polygon points="0.0,290.8 0.0,274.5 24.4,274.5 22.2,287.7 13.5,294.2" fill="#1f4e6b" stroke="#1f4e6b" stroke-width="0.5"/><polygon points="22.2,287.7 24.4,274.4 40.7,273.7 51.1,293.4 43.5,301.5 36.0,301.5" fill="#1f4e6b" stroke="#1f4e6b" stroke-width="0.5"/><polygon points="51.1,293.4 40.7,273.7 49.0,264.4 66.4,267.5 65.1,292.4" fill="#1f4e6b" stroke="#1f4e6b" stroke-width="0.5"/><polygon points="65.0,292.9 66.4,266.8 86.2,269.2 83.9,290.4" fill="#3d7ea6" stroke="#3d7ea6" stroke-width="0.5"/><polygon points="83.9,290.4 86.2,269.2 90.1,266.8 111.3,285.0 91.0,294.8" fill="#3d653a" stroke="#3d653a" stroke-width="0.5"/><polygon points="107.5,284.9 117.0,268.2 129.1,267.2 136.2,277.7 132.2,289.4 114.8,291.4" fill="#375a33" stroke="#375a33" stroke-width="0.5"/><polygon points="132.2,289.4 136.2,277.7 154.9,274.6 163.3,294.2 139.3,298.6" fill="#426c3e" stroke="#426c3e" stroke-width="0.5"/><polygon points="161.6,290.2 154.9,274.6 157.1,268.4 173.8,260.2 182.9,268.3 180.8,285.0 170.4,291.2" fill="#51854c" stroke="#51854c" stroke-width="0.5"/><polygon points="180.8,285.0 182.9,268.3 206.8,263.9 200.2,290.2 195.7,292.5" fill="#e5d28b" stroke="#e5d28b" stroke-width="0.5"/><polygon points="200.2,290.2 205.6,268.8 215.6,269.8 224.1,298.2" fill="#d8c683" stroke="#d8c683" stroke-width="0.5"/><polygon points="222.7,293.7 215.6,269.8 223.6,265.6 240.4,274.9 238.7,289.7" fill="#decc87" stroke="#decc87" stroke-width="0.5"/><polygon points="238.7,289.7 240.4,274.9 248.7,268.4 265.4,270.7 266.2,284.7 255.6,298.1 250.4,300.0" fill="#ecd88f" stroke="#ecd88f" stroke-width="0.5"/><polygon points="266.2,284.7 265.4,270.7 267.4,268.8 277.4,268.1 290.7,278.3 289.5,287.7 283.8,292.4" fill="#8d8156" stroke="#8d8156" stroke-width="0.5"/><polygon points="289.5,287.7 290.7,278.3 301.3,271.1 313.0,280.4 308.0,295.6" fill="#6a6642" stroke="#6a6642" stroke-width="0.5"/><polygon points="311.3,304.6 308.0,295.6 313.0,280.4 325.2,276.5 332.1,295.2 330.4,298.9" fill="#9e9863" stroke="#9e9863" stroke-width="0.5"/><polygon points="332.1,295.2 324.1,273.4 347.0,270.1 348.7,289.1" fill="#afa599" stroke="#afa599" stroke-width="0.5"/><polygon points="348.7,289.1 347.0,270.1 347.8,269.1 369.4,274.0 373.2,286.9 372.5,288.4 354.5,293.6" fill="#aea497" stroke="#aea497" stroke-width="0.5"/><polygon points="373.2,286.9 369.4,274.0 376.0,263.3 389.3,266.6 395.5,283.4" fill="#a9a094" stroke="#a9a094" stroke-width="0.5"/><polygon points="399.3,285.3 412.3,258.6 414.3,258.4 426.0,271.1 421.4,283.1 403.6,290.7" fill="#5c5751" stroke="#5c5751" stroke-width="0.5"/><polygon points="421.4,283.1 426.0,271.1 438.9,269.4 444.5,274.1 443.6,295.9 437.3,298.3" fill="#8d8156" stroke="#8d8156" stroke-width="0.5"/><polygon points="443.6,295.1 444.5,274.1 466.0,270.7 463.3,289.5" fill="#8d8156" stroke="#8d8156" stroke-width="0.5"/><polygon points="463.3,289.5 465.5,273.9 484.1,273.2 483.2,300.5 471.7,298.8" fill="#8d8156" stroke="#8d8156" stroke-width="0.5"/><polygon points="483.2,301.1 484.1,273.5 505.0,274.4 508.9,290.6 496.0,301.7" fill="#345631" stroke="#345631" stroke-width="0.5"/><polygon points="508.9,290.6 504.5,272.4 523.9,268.9 535.7,280.7 518.5,294.4" fill="#3d7ea6" stroke="#3d7ea6" stroke-width="0.5"/><polygon points="536.4,280.7 548.8,266.0 559.3,269.0 559.3,289.2 549.9,293.7 547.1,293.1" fill="#1f4e6b" stroke="#1f4e6b" stroke-width="0.5"/><polygon points="576.0,262.3 576.0,292.5 559.3,289.2 559.3,269.0" fill="#1f4e6b" stroke="#1f4e6b" stroke-width="0.5"/><polygon points="0.0,311.0 0.0,290.8 13.5,294.2 13.5,308.8" fill="#1f4e6b" stroke="#1f4e6b" stroke-width="0.5"/><polygon points="21.5,316.0 13.5,308.8 13.5,294.2 22.2,287.7 36.0,301.5" fill="#1f4e6b" stroke="#1f4e6b" stroke-width="0.5"/><polygon points="48.4,317.0 43.5,301.5 51.1,293.4 65.6,292.4 70.4,314.5 64.5,325.0" fill="#1f4e6b" stroke="#1f4e6b" stroke-width="0.5"/><polygon points="70.4,314.5 65.7,292.8 83.9,290.4 91.0,294.8 92.3,311.3" fill="#3d7ea6" stroke="#3d7ea6" stroke-width="0.5"/><polygon points="92.3,311.3 91.0,294.8 108.9,286.2 114.8,291.4 114.8,311.4 96.9,315.9" fill="#3d7ea6" stroke="#3d7ea6" stroke-width="0.5"/><polygon points="114.7,309.4 114.7,291.4 132.2,289.4 139.3,298.6 136.4,309.4" fill="#a99b79" stroke="#a99b79" stroke-width="0.5"/><polygon points="136.4,309.4 139.3,298.6 156.7,295.4 158.9,315.5 149.5,320.6 138.9,315.5" fill="#e2d0a2" stroke="#e2d0a2" stroke-width="0.5"/><polygon points="158.9,315.5 156.1,289.6 170.4,291.2 178.9,311.6 171.4,319.1" fill="#6098b8" stroke="#6098b8" stroke-width="0.5"/><polygon points="178.9,311.6 170.4,291.2 180.8,285.0 195.8,292.5 192.7,311.1" fill="#5a9354" stroke="#5a9354" stroke-width="0.5"/><polygon points="192.3,313.1 195.8,292.5 200.2,290.2 219.7,296.7 218.3,312.2" fill="#ead78e" stroke="#ead78e" stroke-width="0.5"/><polygon points="218.3,312.2 219.9,294.4 238.7,289.7 250.4,300.0 248.4,308.4 239.1,317.8 220.2,315.1" fill="#edd990" stroke="#edd990" stroke-width="0.5"/><polygon points="267.8,327.8 248.4,308.4 250.4,300.0 255.6,298.1 277.6,309.6 272.0,324.5" fill="#fbe699" stroke="#fbe699" stroke-width="0.5"/><polygon points="277.6,309.6 255.6,298.1 266.2,284.7 283.8,292.4 282.4,306.6" fill="#fde799" stroke="#fde799" stroke-width="0.5"/><polygon points="282.4,306.6 283.8,292.4 289.5,287.7 308.0,295.6 309.0,298.4 290.1,309.7" fill="#8d8156" stroke="#8d8156" stroke-width="0.5"/><polygon points="328.7,327.8 314.2,311.3 314.7,303.6 330.4,298.9 339.9,312.9 330.4,328.3" fill="#5c5751" stroke="#5c5751" stroke-width="0.5"/><polygon points="339.9,312.9 330.4,298.9 332.1,295.2 348.7,289.1 354.5,293.6 353.7,311.3" fill="#b3a99c" stroke="#b3a99c" stroke-width="0.5"/><polygon points="353.7,311.4 354.5,293.6 372.5,288.4 378.8,312.5" fill="#5c5751" stroke="#5c5751" stroke-width="0.5"/><polygon points="377.9,308.8 372.5,288.4 373.2,286.9 395.5,283.4 399.3,285.3 405.1,292.5 388.4,311.2" fill="#5c5751" stroke="#5c5751" stroke-width="0.5"/><polygon points="396.5,327.7 388.4,311.2 403.7,294.1 417.4,308.7 416.3,318.6 405.8,328.0 399.7,328.9" fill="#8d8156" stroke="#8d8156" stroke-width="0.5"/><polygon points="417.4,308.7 401.4,291.7 421.4,283.1 437.3,298.3 435.2,301.2" fill="#8d8156" stroke="#8d8156" stroke-width="0.5"/><polygon points="442.3,295.5 463.3,289.5 471.7,298.8 457.3,311.6" fill="#8d8156" stroke="#8d8156" stroke-width="0.5"/><polygon points="479.8,320.1 457.6,317.5 457.3,311.6 471.7,298.8 484.0,300.6" fill="#345631" stroke="#345631" stroke-width="0.5"/><polygon points="507.5,321.7 496.0,301.7 508.9,290.6 518.5,294.4 525.7,309.6" fill="#3d7ea6" stroke="#3d7ea6" stroke-width="0.5"/><polygon points="525.7,309.6 518.5,294.4 536.1,280.3 547.1,293.1 530.0,311.0" fill="#1f4e6b" stroke="#1f4e6b" stroke-width="0.5"/><polygon points="535.2,317.7 530.0,311.0 547.1,293.1 549.9,293.7 556.1,310.5 550.7,318.4" fill="#1f4e6b" stroke="#1f4e6b" stroke-width="0.5"/><polygon points="576.0,292.5 576.0,310.5 556.1,310.5 549.9,293.7 559.3,289.2" fill="#1f4e6b" stroke="#1f4e6b" stroke-width="0.5"/><polygon points="0.0,330.1 0.0,311.0 13.5,308.8 21.5,316.0 21.6,316.8 11.0,330.4" fill="#1f4e6b" stroke="#1f4e6b" stroke-width="0.5"/><polygon points="21.6,316.8 21.5,316.0 36.0,301.5 43.5,301.5 48.4,317.0 34.9,327.1" fill="#1f4e6b" stroke="#1f4e6b" stroke-width="0.5"/><polygon points="35.7,338.3 34.9,327.1 48.4,317.0 66.2,325.9 56.3,341.2" fill="#1f4e6b" stroke="#1f4e6b" stroke-width="0.5"/><polygon points="63.4,326.9 70.4,314.5 92.3,311.3 96.9,315.9 95.6,327.9 82.9,336.9" fill="#1f4e6b" stroke="#1f4e6b" stroke-width="0.5"/><polygon points="95.6,327.9 96.9,315.9 113.0,311.9 122.4,330.6 112.1,340.9" fill="#1f4e6b" stroke="#1f4e6b" stroke-width="0.5"/><polygon points="122.4,330.6 111.8,309.4 136.4,309.4 138.9,315.5 126.5,330.4" fill="#3d7ea6" stroke="#3d7ea6" stroke-width="0.5"/><polygon points="126.5,330.4 138.9,315.5 149.5,320.6 150.1,334.4 138.7,340.2" fill="#fff2bd" stroke="#fff2bd" stroke-width="0.5"/><polygon points="150.1,334.4 149.5,320.6 158.9,315.5 171.4,319.1 173.2,331.5 157.0,338.7" fill="#62a15b" stroke="#62a15b" stroke-width="0.5"/><polygon points="173.2,331.5 171.4,319.1 178.9,311.6 194.5,311.0 195.9,336.1 179.9,337.3" fill="#ffeb9c" stroke="#ffeb9c" stroke-width="0.5"/><polygon points="195.9,336.1 194.6,313.0 218.3,312.2 220.2,315.1 216.6,330.4 200.5,339.5" fill="#e6d38c" stroke="#e6d38c" stroke-width="0.5"/><polygon points="216.6,330.4 220.2,315.1 239.1,317.8 242.0,332.7 229.4,340.7" fill="#f0dc92" stroke="#f0dc92" stroke-width="0.5"/><polygon points="242.0,332.7 239.1,317.8 248.4,308.4 267.8,327.8 265.3,335.1 254.1,339.1" fill="#f1dd92" stroke="#f1dd92" stroke-width="0.5"/><polygon points="272.0,324.5 277.6,309.6 282.4,306.6 290.1,309.7 299.4,324.1 298.5,331.1" fill="#fff09f" stroke="#fff09f" stroke-width="0.5"/><polygon points="290.1,309.7 315.2,294.6 314.2,311.3 299.4,324.1" fill="#ecd88f" stroke="#ecd88f" stroke-width="0.5"/><polygon points="314.2,311.3 328.7,327.8 301.0,338.2 298.5,331.1 299.4,324.1" fill="#a19462" stroke="#a19462" stroke-width="0.5"/><polygon points="330.4,328.3 339.9,312.9 353.8,311.3 356.9,340.7 334.3,334.5" fill="#5c5751" stroke="#5c5751" stroke-width="0.5"/><polygon points="356.9,340.6 353.8,311.4 372.8,312.2 370.1,336.1" fill="#8d8156" stroke="#8d8156" stroke-width="0.5"/><polygon points="370.1,336.1 373.3,307.8 388.4,311.2 396.5,327.7 379.5,338.2" fill="#8d8156" stroke="#8d8156" stroke-width="0.5"/><polygon points="421.3,344.2 405.8,328.0 416.3,318.6 437.5,329.2 436.3,336.1" fill="#8d8156" stroke="#8d8156" stroke-width="0.5"/><polygon points="440.2,330.5 416.3,318.6 417.4,308.7 435.2,301.2" fill="#8d8156" stroke="#8d8156" stroke-width="0.5"/><polygon points="439.6,327.0 435.2,301.2 437.3,298.3 442.9,296.2 457.3,311.6 457.6,317.5 454.4,322.8" fill="#8d8156" stroke="#8d8156" stroke-width="0.5"/><polygon points="464.3,338.4 454.4,322.8 457.6,317.5 479.8,320.1 483.4,329.2 481.0,333.4" fill="#345631" stroke="#345631" stroke-width="0.5"/><polygon points="483.4,329.2 479.8,320.1 483.9,301.1 496.0,301.7 507.5,321.7 505.7,327.8" fill="#3d7ea6" stroke="#3d7ea6" stroke-width="0.5"/><polygon points="505.7,327.8 507.5,321.7 525.7,309.6 530.0,311.0 535.2,317.7 532.5,335.1 525.2,340.8 510.0,335.7" fill="#1f4e6b" stroke="#1f4e6b" stroke-width="0.5"/><polygon points="532.5,335.1 535.2,317.7 550.7,318.4 556.9,330.8 550.3,339.5" fill="#1f4e6b" stroke="#1f4e6b" stroke-width="0.5"/><polygon points="576.0,310.5 576.0,330.8 556.9,330.8 550.7,318.4 556.1,310.5" fill="#1f4e6b" stroke="#1f4e6b" stroke-width="0.5"/><polygon points="0.0,355.6 0.0,330.1 11.0,330.4 21.5,347.0" fill="#1f4e6b" stroke="#1f4e6b" stroke-width="0.5"/><polygon points="11.0,330.4 21.6,316.8 34.9,327.1 35.7,338.3 26.4,348.5 21.5,347.0" fill="#1f4e6b" stroke="#1f4e6b" stroke-width="0.5"/><polygon points="31.0,361.0 26.4,348.5 35.7,338.3 56.3,341.2 59.3,357.9 40.9,366.0" fill="#1f4e6b" stroke="#1f4e6b" stroke-width="0.5"/><polygon points="59.3,357.9 56.3,341.2 65.0,327.7 82.9,336.9 85.3,356.6 68.3,362.8" fill="#1f4e6b" stroke="#1f4e6b" stroke-width="0.5"/><polygon points="85.3,356.6 82.9,336.9 95.6,327.9 112.1,340.9 111.9,344.6 95.5,361.2" fill="#1f4e6b" stroke="#1f4e6b" stroke-width="0.5"/><polygon points="111.9,344.6 112.1,340.9 122.4,330.6 126.5,330.4 138.7,340.2 136.2,357.6 131.0,359.4" fill="#3d7ea6" stroke="#3d7ea6" stroke-width="0.5"/><polygon points="136.2,357.6 138.7,340.2 150.1,334.4 157.0,338.7 159.6,356.7 148.0,362.1" fill="#579052" stroke="#579052" stroke-width="0.5"/><polygon points="159.6,356.7 157.0,338.7 173.2,331.5 179.9,337.3 172.8,360.1" fill="#eeda90" stroke="#eeda90" stroke-width="0.5"/><polygon points="176.2,364.2 172.8,360.1 179.9,337.3 195.9,336.1 200.5,339.5 201.5,344.2 189.6,365.0" fill="#e8d48d" stroke="#e8d48d" stroke-width="0.5"/><polygon points="201.5,344.2 200.5,339.5 216.6,330.4 229.4,340.7 227.5,359.3 221.5,360.1" fill="#e7d48c" stroke="#e7d48c" stroke-width="0.5"/><polygon points="227.5,359.3 229.4,340.7 242.0,332.7 254.1,339.1 248.0,360.2 236.1,364.4" fill="#f6e195" stroke="#f6e195" stroke-width="0.5"/><polygon points="248.0,360.2 254.1,339.1 265.3,335.1 276.0,347.8 276.6,361.8 265.5,368.2" fill="#f6e296" stroke="#f6e296" stroke-width="0.5"/><polygon points="276.0,347.8 265.3,335.1 267.8,327.8 272.0,324.5 298.5,331.1 300.3,336.3" fill="#ffe99b" stroke="#ffe99b" stroke-width="0.5"/><polygon points="276.6,361.8 276.0,347.8 301.4,335.8 308.4,356.1 286.1,366.0" fill="#fff9a5" stroke="#fff9a5" stroke-width="0.5"/><polygon points="308.5,356.5 302.0,337.8 328.7,327.8 330.4,328.3 334.3,334.5 324.8,355.9" fill="#8d8156" stroke="#8d8156" stroke-width="0.5"/><polygon points="324.8,355.9 334.3,334.5 356.8,340.7 356.6,345.7 341.7,365.8 336.6,366.2" fill="#8d8156" stroke="#8d8156" stroke-width="0.5"/><polygon points="373.2,366.9 356.6,345.7 356.8,340.6 370.1,336.1 379.5,338.2 387.6,361.6" fill="#c8b779" stroke="#c8b779" stroke-width="0.5"/><polygon points="387.6,361.6 379.5,338.2 396.5,327.7 399.7,328.9 401.3,365.0" fill="#d4c281" stroke="#d4c281" stroke-width="0.5"/><polygon points="401.1,360.7 399.7,328.9 405.8,328.0 421.3,344.2 416.9,358.4" fill="#8d8156" stroke="#8d8156" stroke-width="0.5"/><polygon points="428.1,367.3 416.9,358.4 421.3,344.2 436.3,336.1 445.8,349.1 439.9,364.0" fill="#345631" stroke="#345631" stroke-width="0.5"/><polygon points="445.8,349.1 436.3,336.1 437.7,327.6 454.4,322.8 464.3,338.4 460.3,347.5" fill="#345631" stroke="#345631" stroke-width="0.5"/><polygon points="470.8,362.7 460.3,347.5 464.3,338.4 481.0,333.4 487.9,357.9 479.4,364.0" fill="#3d7ea6" stroke="#3d7ea6" stroke-width="0.5"/><polygon points="487.9,357.9 481.0,333.4 483.4,329.2 505.7,327.8 510.0,335.7 497.7,357.8" fill="#3d7ea6" stroke="#3d7ea6" stroke-width="0.5"/><polygon points="497.7,357.8 510.0,335.7 525.2,340.8 529.4,359.9 527.0,363.2 509.0,367.7" fill="#1f4e6b" stroke="#1f4e6b" stroke-width="0.5"/><polygon points="529.4,359.9 525.2,340.8 532.5,335.1 550.3,339.5 554.0,358.2" fill="#1f4e6b" stroke="#1f4e6b" stroke-width="0.5"/><polygon points="576.0,330.8 576.0,357.8 553.9,357.8 550.3,339.5 556.9,330.8" fill="#1f4e6b" stroke="#1f4e6b" stroke-width="0.5"/><polygon points="0.0,369.0 0.0,355.6 21.5,347.0 26.4,348.5 31.0,361.0 16.8,374.1" fill="#1f4e6b" stroke="#1f4e6b" stroke-width="0.5"/><polygon points="44.7,396.0 22.1,396.0 16.8,374.1 31.0,361.0 40.9,366.0" fill="#1f4e6b" stroke="#1f4e6b" stroke-width="0.5"/><polygon points="68.3,396.0 44.7,396.0 40.9,366.0 59.3,357.9 68.3,362.8" fill="#1f4e6b" stroke="#1f4e6b" stroke-width="0.5"/><polygon points="91.8,396.0 68.3,396.0 68.3,362.8 85.3,356.6 95.5,361.2 97.6,365.9" fill="#1f4e6b" stroke="#1f4e6b" stroke-width="0.5"/><polygon points="127.4,396.0 91.8,396.0 97.6,365.9 122.7,373.1" fill="#1f4e6b" stroke="#1f4e6b" stroke-width="0.5"/><polygon points="97.6,365.9 95.5,361.2 111.9,344.6 131.0,359.4 122.7,373.1" fill="#1f4e6b" stroke="#1f4e6b" stroke-width="0.5"/><polygon points="151.5,396.0 127.4,396.0 122.7,373.1 131.0,359.4 136.2,357.6 148.0,362.1" fill="#3d7ea6" stroke="#3d7ea6" stroke-width="0.5"/><polygon points="165.6,396.0 151.5,396.0 148.0,362.1 159.6,356.7 172.8,360.1 176.2,364.2" fill="#dcca9d" stroke="#dcca9d" stroke-width="0.5"/><polygon points="204.4,396.0 165.6,396.0 176.2,364.2 189.6,365.0 203.3,378.8" fill="#f4df94" stroke="#f4df94" stroke-width="0.5"/><polygon points="203.3,378.8 189.6,365.0 201.5,344.2 221.5,360.1" fill="#ead78e" stroke="#ead78e" stroke-width="0.5"/><polygon points="237.2,396.0 204.4,396.0 203.3,378.8 221.5,360.1 227.5,359.3 236.1,364.4" fill="#f4e095" stroke="#f4e095" stroke-width="0.5"/><polygon points="262.5,396.0 237.2,396.0 236.1,364.4 248.0,360.2 265.5,368.2" fill="#fee99a" stroke="#fee99a" stroke-width="0.5"/><polygon points="294.5,396.0 262.5,396.0 265.5,368.2 276.6,361.8 286.1,366.0" fill="#ffed9d" stroke="#ffed9d" stroke-width="0.5"/><polygon points="312.3,396.0 294.5,396.0 286.1,366.0 308.9,355.9" fill="#fff9a5" stroke="#fff9a5" stroke-width="0.5"/><polygon points="321.6,396.0 312.3,396.0 309.0,356.5 324.8,355.9 336.6,366.2" fill="#fee99b" stroke="#fee99b" stroke-width="0.5"/><polygon points="364.1,396.0 321.6,396.0 336.6,366.2 341.7,365.8 363.1,383.9" fill="#dbc885" stroke="#dbc885" stroke-width="0.5"/><polygon points="363.1,383.9 341.7,365.8 356.6,345.7 373.2,366.9" fill="#c8b77a" stroke="#c8b77a" stroke-width="0.5"/><polygon points="401.1,396.0 364.1,396.0 363.1,383.9 373.2,366.9 387.6,361.6 396.7,363.8" fill="#938659" stroke="#938659" stroke-width="0.5"/><polygon points="423.4,396.0 401.1,396.0 396.3,361.4 416.9,358.4 428.1,367.3" fill="#345631" stroke="#345631" stroke-width="0.5"/><polygon points="454.5,396.0 423.4,396.0 428.1,367.3 439.9,364.0 454.5,375.2" fill="#3d7ea6" stroke="#3d7ea6" stroke-width="0.5"/><polygon points="454.5,375.2 439.9,364.0 445.8,349.1 460.3,347.5 470.8,362.7" fill="#8f8366" stroke="#8f8366" stroke-width="0.5"/><polygon points="485.0,396.0 454.5,396.0 454.5,375.2 470.8,362.7 479.4,364.0" fill="#3d7ea6" stroke="#3d7ea6" stroke-width="0.5"/><polygon points="504.4,396.0 485.0,396.0 479.4,364.0 487.9,357.9 497.7,357.8 509.0,367.7" fill="#1f4e6b" stroke="#1f4e6b" stroke-width="0.5"/><polygon points="538.6,396.0 504.4,396.0 509.0,367.7 527.0,363.2" fill="#1f4e6b" stroke="#1f4e6b" stroke-width="0.5"/><polygon points="550.1,396.0 538.6,396.0 527.0,363.2 529.4,359.9 553.4,358.2" fill="#1f4e6b" stroke="#1f4e6b" stroke-width="0.5"/><polygon points="576.0,357.8 576.0,396.0 550.1,396.0 553.4,357.8" fill="#1f4e6b" stroke="#1f4e6b" stroke-width="0.5"/><polygon points="22.1,396.0 0.0,396.0 0.0,369.0 16.8,374.1" fill="#1f4e6b" stroke="#1f4e6b" stroke-width="0.5"/></g><path d="M196.6,14.4 L191.8,0.0 M418.6,0.0 L419.6,21.6 M172.1,35.0 L174.6,27.2 M174.6,27.2 L191.6,22.6 M191.6,22.6 L196.6,14.4 M420.5,22.6 L437.6,23.3 M437.6,23.3 L445.9,41.0 M131.2,61.0 L132.1,49.3 M132.1,49.3 L140.1,41.1 M140.1,41.1 L156.0,41.8 M155.7,40.3 L172.1,35.0 M445.9,41.0 L460.5,40.0 M460.5,40.0 L469.8,48.7 M469.8,48.7 L470.9,54.0 M84.0,76.6 L88.4,60.5 M88.4,60.5 L95.5,57.4 M95.5,57.4 L104.9,58.9 M105.5,60.7 L135.9,57.0 M470.9,54.0 L483.0,60.7 M483.0,60.7 L480.8,81.9 M70.7,101.2 L63.5,81.8 M63.5,81.8 L66.3,78.1 M66.3,78.1 L84.0,76.6 M480.8,81.9 L492.6,85.1 M492.6,85.1 L502.4,76.3 M502.4,76.3 L521.3,78.0 M520.8,79.2 L524.9,79.7 M524.9,79.7 L533.5,87.5 M533.5,87.5 L556.7,83.8 M556.2,86.0 L576.0,83.8 M70.0,119.1 L66.5,102.2 M65.9,126.0 L70.0,119.1 M77.3,144.7 L65.9,126.0 M59.5,168.3 L56.8,158.7 M56.8,158.7 L60.0,152.2 M60.0,152.2 L77.5,143.5 M560.6,165.5 L548.3,176.5 M548.3,176.5 L541.9,176.3 M576.0,166.0 L560.6,165.5 M59.0,178.4 L58.1,172.0 M58.1,172.0 L59.5,168.3 M76.2,192.2 L59.0,178.4 M541.9,176.3 L538.0,201.0 M538.0,201.0 L531.4,202.6 M66.7,219.8 L65.3,205.2 M65.3,205.2 L76.2,192.2 M531.4,202.6 L526.8,212.0 M69.6,237.1 L65.7,220.0 M526.8,212.0 L540.4,230.5 M70.7,247.8 L66.9,237.3 M534.9,231.9 L537.5,252.7 M537.5,252.7 L528.4,255.4 M67.2,266.9 L70.7,247.8 M86.2,269.2 L67.2,266.9 M528.4,255.4 L523.9,268.9 M523.9,268.9 L506.8,272.0 M83.9,290.4 L86.2,269.2 M111.3,285.0 L91.0,294.8 M91.0,294.8 L83.9,290.4 M114.8,291.4 L107.5,284.9 M505.0,274.4 L508.9,290.6 M508.9,290.6 L496.0,301.7 M496.0,301.7 L483.2,301.1 M114.7,309.4 L114.7,291.4 M136.4,309.4 L114.7,309.4 M138.9,315.5 L136.4,309.4 M484.0,300.6 L479.8,320.1 M126.5,330.4 L138.9,315.5 M138.7,340.2 L126.5,330.4 M479.8,320.1 L483.4,329.2 M483.4,329.2 L481.0,333.4 M481.0,333.4 L464.3,338.4 M136.2,357.6 L138.7,340.2 M148.0,362.1 L136.2,357.6 M439.9,364.0 L428.1,367.3 M464.3,338.4 L460.3,347.5 M151.5,396.0 L148.0,362.1 M428.1,367.3 L423.4,396.0 M454.5,375.2 L439.9,364.0 M460.3,347.5 L470.8,362.7 M470.8,362.7 L454.5,375.2" fill="none" stroke="#283640" stroke-width="2.0" stroke-linecap="round"/><g opacity="0.9"><path d="M236.6,261.0 L214.2,255.6" fill="none" stroke="#4a82af" stroke-width="3.5" stroke-linecap="round" stroke-linejoin="round"/><path d="M252.0,238.5 L236.6,261.0" fill="none" stroke="#4a82af" stroke-width="2.8" stroke-linecap="round" stroke-linejoin="round"/><path d="M279.0,238.5 L252.0,238.5" fill="none" stroke="#4a82af" stroke-width="2.7" stroke-linecap="round" stroke-linejoin="round"/><path d="M301.5,229.5 L279.0,238.5" fill="none" stroke="#4a82af" stroke-width="2.6" stroke-linecap="round" stroke-linejoin="round"/><path d="M235.1,10.1 L210.0,7.0" fill="none" stroke="#4a82af" stroke-width="2.5" stroke-linecap="round" stroke-linejoin="round"/><path d="M262.1,7.9 L235.1,10.1" fill="none" stroke="#4a82af" stroke-width="2.4" stroke-linecap="round" stroke-linejoin="round"/><path d="M325.8,237.6 L301.5,229.5" fill="none" stroke="#4a82af" stroke-width="2.1" stroke-linecap="round" stroke-linejoin="round"/><path d="M346.5,238.5 L325.8,237.6" fill="none" stroke="#4a82af" stroke-width="2.1" stroke-linecap="round" stroke-linejoin="round"/><path d="M285.0,6.0 L262.1,7.9" fill="none" stroke="#4a82af" stroke-width="2.0" stroke-linecap="round" stroke-linejoin="round"/><path d="M360.0,244.8 L346.5,238.5" fill="none" stroke="#4a82af" stroke-width="2.0" stroke-linecap="round" stroke-linejoin="round"/></g></svg>