<svg xmlns="http://www.w3.org/2000/svg" width="630" height="630" viewBox="0 0 630 630"><rect width="630" height="630" fill="#c9d2bb"/><polygon points="138.3,469.3 129.6,455.6 122.6,440.7 117.6,424.8 114.8,407.9 114.2,390.2 115.9,371.9 119.4,353.5 124.6,335.0 131.0,316.7 138.4,298.5 146.7,280.3 156.0,262.2 166.6,244.1 178.8,226.3 192.9,209.2 208.7,193.3 226.2,179.1 244.8,166.9 264.2,156.7 283.8,148.6 303.2,142.1 322.5,136.7 341.6,132.0 360.7,128.1 380.0,124.9 399.3,122.9 418.3,122.9 436.4,125.4 452.9,130.9 467.0,139.5 478.4,151.0 486.9,164.9 492.8,180.2 496.5,196.4 498.9,212.7 500.5,229.0 501.6,245.1 502.4,261.4 502.2,278.2 500.6,295.5 496.8,313.3 490.2,331.4 480.7,349.1 468.5,366.0 454.1,381.5 438.4,395.4 422.2,407.9 406.1,419.4 390.5,430.5 375.1,441.9 359.6,453.9 343.4,466.5 326.2,479.2 307.6,491.4 287.8,502.0 267.2,510.2 246.5,515.3 226.4,516.9 207.4,515.1 190.1,510.1 174.5,502.6 160.8,493.0 148.7,481.8" fill="#e6dcc0"/><g stroke="#4a4230" stroke-width="1" stroke-linejoin="round"><polygon points="433.7,271.3 407.7,273.8 386.0,254.9 382.8,233.3 434.8,192.7 474.7,213.9" fill="#c2b48f"/><polygon points="254.8,258.1 264.6,306.0 228.9,332.6 178.8,286.9" fill="#c2b48f"/><polygon points="462.7,372.2 454.1,381.5 438.4,395.4 422.2,407.9 406.1,419.4 390.5,430.5 380.5,437.9 366.5,406.7 423.2,358.5" fill="#d8cdb0"/><polygon points="351.6,194.8 382.8,233.3 386.0,254.9 330.5,279.5 288.9,236.0 340.4,190.2" fill="#c2b48f"/><polygon points="255.9,441.2 255.3,463.1 226.9,487.3 190.8,463.2 189.3,457.7 191.6,448.7 240.5,427.5" fill="#c2b48f"/><polygon points="338.3,386.9 333.3,387.3 295.3,340.4 296.3,322.5 325.8,304.0 363.1,336.1" fill="#cdbf9e"/><polygon points="227.7,516.8 226.4,516.9 207.4,515.1 190.1,510.1 174.5,502.6 174.3,502.4 190.8,463.2 226.9,487.3" fill="#c2b48f"/><polygon points="380.5,437.9 375.1,441.9 359.6,453.9 343.4,466.5 329.1,477.0 299.5,429.5 308.9,405.2 333.3,387.3 338.3,386.9 366.5,406.7" fill="#b9a98c"/><polygon points="386.0,254.9 407.7,273.8 395.4,328.9 363.1,336.1 325.8,304.0 330.5,279.5" fill="#b3a684"/><polygon points="134.7,463.6 129.6,455.6 122.6,440.7 117.6,424.8 115.5,412.4 166.5,404.7 191.6,448.7 189.3,457.7" fill="#b3a684"/><polygon points="329.1,477.0 326.2,479.2 307.6,491.4 290.5,500.6 255.3,463.1 255.9,441.2 299.5,429.5" fill="#dfd6c0"/><polygon points="418.4,151.9 434.8,192.7 382.8,233.3 351.6,194.8" fill="#b9a98c"/><polygon points="290.5,500.6 287.8,502.0 267.2,510.2 246.5,515.3 227.7,516.8 226.9,487.3 255.3,463.1" fill="#c2b48f"/><polygon points="407.7,273.8 433.7,271.3 494.7,319.3 490.2,331.4 480.7,349.1 468.5,366.0 462.7,372.2 423.2,358.5 395.4,328.9" fill="#cdbf9e"/><polygon points="423.2,358.5 366.5,406.7 338.3,386.9 363.1,336.1 395.4,328.9" fill="#cdbf9e"/><polygon points="225.1,179.9 226.2,179.1 244.8,166.9 264.2,156.7 283.8,148.6 303.2,142.1 319.6,137.5 340.4,190.2 288.9,236.0 266.3,236.3" fill="#b3a684"/><polygon points="254.6,375.2 295.3,340.4 333.3,387.3 308.9,405.2" fill="#b9a98c"/><polygon points="423.2,123.6 436.4,125.4 452.9,130.9 467.0,139.5 478.4,151.0 486.9,164.9 492.8,180.2 496.5,196.4 498.4,209.5 474.7,213.9 434.8,192.7 418.4,151.9" fill="#cdbf9e"/><polygon points="136.8,302.3 138.4,298.5 146.3,281.1 178.8,286.9 228.9,332.6 228.4,373.7 186.0,379.6" fill="#b9a98c"/><polygon points="319.6,137.5 322.5,136.7 341.6,132.0 360.7,128.1 380.0,124.9 399.3,122.9 418.3,122.9 423.2,123.6 418.4,151.9 351.6,194.8 340.4,190.2" fill="#d8cdb0"/><polygon points="228.4,373.7 228.9,332.6 264.6,306.0 296.3,322.5 295.3,340.4 254.6,375.2 233.9,377.8" fill="#dfd6c0"/><polygon points="115.5,412.4 114.8,407.9 114.2,390.2 115.9,371.9 119.4,353.5 124.6,335.0 131.0,316.7 136.8,302.3 186.0,379.6 166.5,404.7" fill="#cdbf9e"/><polygon points="498.4,209.5 498.9,212.7 500.5,229.0 501.6,245.1 502.4,261.4 502.2,278.2 500.6,295.5 496.8,313.3 494.7,319.3 433.7,271.3 474.7,213.9" fill="#d8cdb0"/><polygon points="264.6,306.0 254.8,258.1 266.3,236.3 288.9,236.0 330.5,279.5 325.8,304.0 296.3,322.5" fill="#dfd6c0"/><polygon points="240.5,427.5 191.6,448.7 166.5,404.7 186.0,379.6 228.4,373.7 233.9,377.8" fill="#b9a98c"/><polygon points="138.3,469.3 134.7,463.6 189.3,457.7 190.8,463.2 174.3,502.4 160.8,493.0 148.7,481.8" fill="#b9a98c"/><polygon points="146.3,281.1 146.7,280.3 156.0,262.2 166.6,244.1 178.8,226.3 192.9,209.2 208.7,193.3 225.1,179.9 266.3,236.3 254.8,258.1 178.8,286.9" fill="#b9a98c"/><polygon points="255.9,441.2 240.5,427.5 233.9,377.8 254.6,375.2 308.9,405.2 299.5,429.5" fill="#c2b48f"/></g><g fill="#7d6c52" stroke="#4a3e2e" stroke-width="0.5" stroke-linejoin="round"><polygon points="452.5,204.7 459.9,208.6 454.8,218.2 446.9,212.5"/><polygon points="463.9,210.7 471.3,214.7 464.1,224.8 458.5,220.8"/><polygon points="442.8,236.1 434.9,230.5 444.4,217.2 452.3,222.8"/><polygon points="461.3,228.5 451.1,242.8 446.8,239.8 457.0,225.5"/><polygon points="447.5,246.9 443.2,252.9 427.1,241.5 431.4,235.4"/><polygon points="426.4,203.3 435.2,196.5 447.2,202.8 439.9,213.0"/><polygon points="425.5,209.8 437.0,217.9 431.9,225.1 420.4,216.9"/><polygon points="428.5,229.4 422.3,238.2 411.2,230.3 417.4,221.5"/><polygon points="400.5,222.9 421.0,206.9 406.6,227.2"/><polygon points="404.3,231.6 409.3,235.1 401.5,245.9 396.6,242.4"/><polygon points="412.8,237.9 419.3,242.5 411.8,253.0 405.4,248.4"/><polygon points="385.4,234.2 396.1,225.9 400.6,229.1 393.0,239.7"/><polygon points="392.0,257.0 388.2,253.7 386.3,240.6 397.8,248.9"/><polygon points="402.5,266.1 395.6,260.1 401.7,251.6 409.1,256.9"/><polygon points="426.2,269.4 408.5,271.0 406.4,269.2 413.0,260.0"/><polygon points="425.8,262.5 416.3,255.7 423.3,245.8 432.8,252.6"/><polygon points="433.2,268.7 429.2,265.9 437.2,254.8 441.1,257.6"/><polygon points="224.2,325.9 214.6,317.1 219.1,312.2"/><polygon points="211.9,313.9 204.5,307.1 213.0,297.8 216.9,308.3"/><polygon points="200.9,303.0 184.4,288.0 196.0,283.6 202.6,301.2"/><polygon points="200.7,281.1 205.9,279.2 211.1,292.8 206.9,297.4"/><polygon points="241.7,319.1 230.2,327.7 225.0,314.1 238.0,309.2"/><polygon points="222.6,308.8 219.4,300.5 233.1,295.3 236.3,303.6"/><polygon points="260.8,300.9 261.7,304.8 246.7,316.0 243.5,307.5"/><polygon points="257.4,286.5 259.2,295.2 241.9,301.8 238.7,293.6"/><polygon points="223.1,293.3 217.5,295.5 210.7,277.7 216.3,275.6"/><polygon points="242.1,285.8 228.2,291.1 224.5,281.4 238.4,276.1"/><polygon points="221.9,277.0 220.5,273.3 236.1,267.4 237.5,271.1"/><polygon points="253.2,261.1 254.6,268.0 241.8,270.6 240.1,266.0"/><polygon points="255.3,272.5 257.0,280.8 247.3,284.4 243.7,274.9"/><polygon points="400.9,417.6 388.0,427.1 382.1,431.3 371.6,407.9 383.8,397.5"/><polygon points="419.7,404.5 419.7,404.5 408.0,412.9 390.2,392.0 401.2,382.7"/><polygon points="417.5,389.6 406.9,377.2 424.0,362.7 426.5,363.6"/><polygon points="455.2,374.1 451.1,378.5 435.7,392.1 426.4,399.3 423.6,396.1 433.8,366.6"/><polygon points="305.7,250.6 303.5,248.2 316.6,235.8 319.1,238.7"/><polygon points="300.6,243.8 293.3,236.2 305.8,225.1 312.4,232.6"/><polygon points="310.3,221.0 317.1,215.0 329.1,228.5 322.4,234.5"/><polygon points="320.7,210.9 323.9,208.0 336.9,222.5 333.6,225.4"/><polygon points="328.3,272.9 323.5,267.9 337.8,254.2 342.9,259.9"/><polygon points="319.4,263.6 309.9,253.7 318.8,245.8 327.6,255.7"/><polygon points="321.9,241.8 325.3,238.7 335.1,249.8 331.8,253.0"/><polygon points="329.8,236.1 340.0,227.0 348.2,236.3 338.0,245.3"/><polygon points="352.3,240.3 358.0,246.8 347.3,256.4 341.5,249.9"/><polygon points="369.0,259.4 353.1,266.4 350.6,260.7 361.6,251.0"/><polygon points="348.9,269.1 331.5,276.8 346.4,263.5"/><polygon points="380.2,237.0 382.6,253.0 374.5,256.6 367.2,248.5"/><polygon points="368.2,240.1 363.1,244.6 351.8,231.8 356.9,227.3"/><polygon points="367.2,218.4 377.7,231.4 372.1,236.4 361.0,223.9"/><polygon points="351.6,225.3 348.3,228.3 335.6,214.0 338.9,211.1"/><polygon points="352.2,199.4 357.8,206.4 348.2,214.2 342.6,207.9"/><polygon points="361.0,209.7 364.6,214.1 355.1,222.6 350.9,217.8"/><polygon points="347.9,196.2 332.5,209.9 328.1,204.9 341.0,193.4"/><polygon points="193.0,460.7 192.2,457.7 193.9,450.7 205.2,445.8 208.7,453.9"/><polygon points="203.8,469.1 197.0,464.5 211.1,458.4 213.8,464.7"/><polygon points="221.2,481.0 207.8,472.1 215.8,468.6"/><polygon points="243.3,470.3 227.2,484.0 224.8,478.3"/><polygon points="223.1,473.8 216.2,457.9 221.8,455.5 228.6,471.4"/><polygon points="243.4,458.9 245.7,464.4 233.1,469.8 230.7,464.3"/><polygon points="226.2,453.4 238.5,448.1 241.4,454.7 229.1,460.1"/><polygon points="253.2,442.4 252.6,461.8 250.7,463.5 243.3,446.4 252.9,442.2"/><polygon points="230.9,434.6 240.0,430.7 248.5,438.2 235.0,444.1"/><polygon points="214.4,452.6 210.6,443.8 225.8,437.2 229.7,446.0"/><polygon points="344.8,347.4 359.1,335.7 360.2,336.7 353.0,351.4"/><polygon points="322.7,364.5 327.5,360.6 335.9,370.9"/><polygon points="332.2,358.5 340.8,351.6 349.9,356.0 342.5,371.1"/><polygon points="336.6,384.5 334.4,384.6 321.5,368.7 339.9,377.7"/><polygon points="345.3,324.8 354.4,332.6 342.2,342.4 334.8,333.3"/><polygon points="336.0,315.9 341.6,320.7 330.8,329.5 326.2,323.8"/><polygon points="316.9,312.4 325.6,306.9 332.3,312.7 323.2,320.1"/><polygon points="299.1,324.1 312.8,315.5 317.9,321.8 305.4,331.9"/><polygon points="297.2,340.3 296.9,339.9 297.4,328.9 302.9,335.7"/><polygon points="313.0,332.9 321.5,326.1 329.0,335.4 320.6,342.3"/><polygon points="332.5,339.2 338.3,346.4 329.4,353.6 323.6,346.4"/><polygon points="310.4,354.5 301.0,342.9 308.8,336.6 318.2,348.2"/><polygon points="317.1,364.0 312.9,358.8 321.9,351.6 326.1,356.7"/><polygon points="185.5,505.2 177.5,501.3 182.1,490.3 190.3,493.8"/><polygon points="199.3,510.0 191.0,507.6 190.2,507.2 195.0,495.9 205.7,500.4"/><polygon points="183.2,486.1 185.1,481.6 196.3,486.4 193.6,490.5"/><polygon points="187.6,477.8 192.0,467.2 203.2,474.6 198.1,482.2"/><polygon points="207.7,478.0 216.4,483.9 208.6,495.6 198.7,491.4"/><polygon points="220.6,514.2 207.8,513.0 203.8,511.8 207.9,505.7"/><polygon points="211.6,501.9 221.4,487.4 223.8,489.0 224.4,510.4"/><polygon points="346.6,458.7 340.9,463.1 330.3,470.9 320.4,455.1 337.6,444.4"/><polygon points="362.8,447.0 357.5,451.2 353.0,454.6 343.7,439.7 354.2,433.1"/><polygon points="376.5,436.8 373.2,439.4 368.2,443.1 359.6,429.4 370.2,422.8"/><polygon points="351.9,401.5 363.2,409.4 366.4,416.6 352.9,425.0 342.0,407.6"/><polygon points="346.5,429.5 337.2,435.3 325.9,417.2 335.2,411.4"/><polygon points="317.5,403.6 334.6,391.0 337.2,390.8 345.2,396.4 322.0,410.8"/><polygon points="305.9,433.1 303.4,429.1 311.6,407.9 321.3,423.5"/><polygon points="315.7,449.0 309.6,439.1 325.1,429.4 331.3,439.3"/><polygon points="348.9,281.6 351.3,287.0 339.6,292.2 337.2,286.8"/><polygon points="333.9,280.0 346.1,274.5 347.6,277.9 335.4,283.4"/><polygon points="349.6,273.2 353.6,271.4 359.1,283.7 355.1,285.5"/><polygon points="328.9,297.3 331.6,283.6 336.2,294.1"/><polygon points="328.1,303.9 327.5,303.4 327.9,301.4 340.8,295.7 341.8,297.8"/><polygon points="338.1,311.8 331.7,306.3 342.8,301.4 345.8,308.3"/><polygon points="344.5,294.7 350.6,292.0 355.8,303.8 349.7,306.5"/><polygon points="354.6,290.2 360.5,287.6 365.8,299.4 359.8,302.0"/><polygon points="347.2,320.0 341.1,314.7 349.8,310.9 352.7,317.5"/><polygon points="353.1,309.4 360.5,306.1 363.5,312.8 356.0,316.1"/><polygon points="363.4,304.5 367.9,302.5 371.1,309.7 366.6,311.7"/><polygon points="361.3,332.2 350.2,322.6 355.9,320.0"/><polygon points="364.2,329.6 359.4,318.7 364.4,316.5 369.2,327.4"/><polygon points="367.8,314.9 372.1,312.9 377.1,324.0 372.7,325.9"/><polygon points="380.3,330.6 365.7,333.8 365.4,333.0 378.7,327.1"/><polygon points="401.8,290.4 399.7,299.9 386.7,297.1"/><polygon points="391.4,328.0 383.6,329.7 380.8,323.5 388.0,320.3"/><polygon points="396.9,315.9 394.4,326.8 390.8,318.6"/><polygon points="398.9,305.9 397.4,312.3 391.5,315.0 389.4,310.1"/><polygon points="397.1,303.1 388.0,307.1 385.1,300.5"/><polygon points="388.4,316.2 379.3,320.2 377.1,315.2 386.2,311.2"/><polygon points="375.9,311.5 372.3,303.5 380.2,299.9 380.8,300.1 384.3,307.8"/><polygon points="401.7,286.1 397.1,288.2 392.7,278.1 397.3,276.1"/><polygon points="404.2,272.6 406.1,274.3 404.1,283.4 400.1,274.4"/><polygon points="396.4,266.3 401.2,270.5 391.2,274.9 388.9,269.7"/><polygon points="385.7,256.8 393.7,263.8 387.4,266.6 383.5,257.8"/><polygon points="394.1,289.7 386.1,293.2 383.9,288.2 391.8,284.6"/><polygon points="382.7,284.7 379.2,276.9 386.6,273.6 390.1,281.5"/><polygon points="382.5,294.3 370.6,299.6 368.1,294.0 380.0,288.7"/><polygon points="366.4,290.0 363.7,284.0 375.5,278.8 378.2,284.7"/><polygon points="369.0,264.7 375.0,262.0 379.6,272.4 373.6,275.0"/><polygon points="378.0,260.1 380.6,259.0 385.6,270.3 383.0,271.4"/><polygon points="361.5,281.1 360.3,278.3 369.5,274.3 370.7,277.0"/><polygon points="359.4,275.3 356.9,269.7 365.4,266.0 367.9,271.5"/><polygon points="189.3,449.0 189.3,449.0 187.6,455.8 176.9,456.9 176.2,450.5"/><polygon points="186.3,442.7 187.9,445.5 175.2,446.9 174.9,443.9"/><polygon points="181.6,434.5 184.5,439.7 174.7,440.7 174.1,435.3"/><polygon points="172.9,457.6 166.5,458.2 165.4,448.0 171.8,447.3"/><polygon points="163.2,459.1 160.4,459.4 159.2,448.2 162.0,447.9"/><polygon points="159.5,444.5 158.8,437.5 170.4,436.3 171.1,443.3"/><polygon points="155.4,408.4 165.4,406.8 167.3,410.2 156.3,416.5"/><polygon points="169.4,413.1 173.5,420.2 167.1,423.9 166.1,415.0"/><polygon points="175.0,423.4 179.4,431.2 168.3,432.4 167.8,427.5"/><polygon points="164.2,432.6 158.3,433.2 157.0,420.9 162.6,417.7"/><polygon points="118.3,419.2 117.4,413.8 126.5,412.5 127.3,417.9"/><polygon points="120.0,427.2 119.1,424.4 118.8,422.5 127.9,421.1 128.7,426.3"/><polygon points="130.1,412.2 138.4,410.9 139.6,418.9 131.3,420.2"/><polygon points="140.7,422.1 141.2,425.2 131.6,426.2 131.2,423.5"/><polygon points="142.1,410.2 151.7,408.8 152.3,415.2 143.0,416.2"/><polygon points="152.9,418.6 153.4,423.6 144.1,424.6 143.4,419.6"/><polygon points="125.4,441.9 124.5,440.0 121.6,430.7 129.1,429.9 130.4,441.4"/><polygon points="132.7,429.1 136.0,428.7 137.3,441.0 134.1,441.4"/><polygon points="128.1,448.9 126.5,445.4 137.7,444.2 138.1,447.8"/><polygon points="135.7,461.6 131.2,454.7 130.0,452.2 138.2,451.3 139.3,461.3"/><polygon points="139.1,428.3 143.3,427.9 144.4,437.6 140.2,438.1"/><polygon points="146.8,427.8 153.6,427.1 154.6,436.2 147.8,436.9"/><polygon points="148.9,450.6 142.0,451.4 141.0,441.5 147.8,440.8"/><polygon points="155.2,439.6 156.4,450.2 152.5,450.6 151.3,440.0"/><polygon points="156.3,453.9 156.8,459.1 143.2,460.6 142.6,455.4"/><polygon points="303.7,441.7 311.4,453.9 303.0,459.2 295.3,446.9"/><polygon points="299.2,462.4 295.5,464.7 287.1,451.2 290.7,448.9"/><polygon points="279.7,437.8 298.2,432.8 300.7,436.8 285.2,446.5"/><polygon points="258.4,454.1 258.7,443.3 273.9,439.3 276.2,442.9"/><polygon points="263.3,468.0 257.8,462.2 257.8,460.6 268.0,454.3 272.8,462.0"/><polygon points="272.9,478.6 266.4,471.6 275.5,465.9 280.5,473.9"/><polygon points="273.0,451.9 279.1,448.1 290.6,466.5 284.6,470.3"/><polygon points="295.8,494.4 291.1,496.9 277.2,482.1 285.0,477.2"/><polygon points="296.7,484.5 290.2,474.0 301.7,466.9 308.2,477.3"/><polygon points="314.0,484.8 306.6,489.6 300.7,492.8 298.5,489.3 311.7,481.1"/><polygon points="325.7,476.4 324.7,477.1 317.6,481.7 310.9,471.1 319.2,466.0"/><polygon points="307.9,467.7 305.2,463.3 314.7,457.3 317.5,461.8"/><polygon points="392.3,221.9 383.3,228.9 373.3,216.6 382.2,209.4"/><polygon points="406.7,210.4 397.3,217.7 387.4,205.4 398.0,196.9"/><polygon points="369.3,211.8 356.2,195.5 363.7,190.7 374.5,207.6"/><polygon points="370.2,187.7 385.1,178.1 393.5,191.0 379.6,202.3"/><polygon points="426.7,182.7 430.2,191.5 412.1,205.6 406.0,196.0"/><polygon points="413.7,182.0 401.9,189.6 391.6,173.7 403.4,166.1"/><polygon points="417.0,156.5 424.7,175.8 419.9,178.9 408.8,161.7"/><polygon points="262.8,475.4 270.8,483.9 260.6,493.4 252.6,484.9"/><polygon points="243.7,476.2 255.1,466.5 259.5,471.1 248.5,481.4"/><polygon points="230.7,487.7 239.9,479.8 247.2,487.5 238.3,495.8"/><polygon points="229.1,505.8 228.8,492.2 235.7,499.6"/><polygon points="240.2,513.1 230.3,513.9 230.2,510.9 242.1,499.8 247.8,505.9"/><polygon points="245.1,496.0 251.0,490.6 257.6,497.6 251.7,503.1"/><polygon points="255.7,511.6 246.3,513.9 245.1,514.0 251.9,507.6"/><polygon points="266.5,508.5 258.9,510.4 254.5,505.8 259.5,501.1"/><polygon points="267.2,503.1 263.0,498.7 274.9,487.5 279.1,492.0"/><polygon points="287.2,500.0 286.9,500.1 270.2,506.8 270.0,506.7 282.5,495.0"/><polygon points="433.2,274.1 448.7,286.3 445.6,290.3 430.1,278.1"/><polygon points="443.4,294.1 435.8,303.9 432.2,301.1 439.9,291.3"/><polygon points="429.2,297.7 420.3,290.7 427.0,282.2 435.9,289.2"/><polygon points="409.8,276.2 426.1,274.7 416.2,287.4 408.7,281.5"/><polygon points="424.5,316.9 418.6,324.4 402.9,312.1"/><polygon points="414.8,328.6 407.7,337.6 398.7,328.0 401.0,317.7"/><polygon points="412.3,308.6 403.3,306.6 406.0,294.5 420.3,297.7 420.6,298.0"/><polygon points="405.5,290.0 406.6,285.1 415.7,292.3"/><polygon points="432.8,306.8 428.2,312.7 417.6,310.3 425.1,300.8"/><polygon points="427.3,322.5 432.8,315.5 446.8,326.5 441.3,333.5"/><polygon points="419.0,332.7 423.6,326.9 437.9,338.2 433.3,343.9"/><polygon points="424.2,355.4 411.7,342.1 415.6,337.2 429.8,348.3"/><polygon points="466.8,363.5 466.3,364.2 461.9,369.0 449.8,364.8 453.8,353.3"/><polygon points="444.7,363.3 429.1,357.9 435.2,350.1 446.2,358.8"/><polygon points="437.6,346.2 440.9,342.1 450.1,349.4 448.3,354.6"/><polygon points="476.8,349.8 470.1,359.0 460.3,351.3 467.4,342.4"/><polygon points="455.9,347.6 444.7,338.8 451.5,330.1 462.8,339.0"/><polygon points="483.8,337.1 479.7,344.7 465.0,333.1 470.3,326.4"/><polygon points="481.2,312.6 491.0,320.3 487.4,330.1 486.6,331.6 474.1,321.7"/><polygon points="452.7,289.7 459.4,295.0 449.9,307.1 443.2,301.9"/><polygon points="447.5,311.3 443.0,317.0 435.1,310.9 439.7,305.1"/><polygon points="466.7,321.2 460.3,329.3 447.6,319.4 454.0,311.2"/><polygon points="463.7,298.7 476.5,308.8 470.5,316.5 457.7,306.4"/><polygon points="419.4,358.3 414.5,362.5 402.3,348.1 406.5,344.6"/><polygon points="410.5,365.9 400.9,374.0 394.8,366.8 404.4,358.6"/><polygon points="391.3,363.6 388.0,359.6 398.3,350.7 401.7,354.7"/><polygon points="385.4,354.9 370.7,337.6 384.0,334.7 388.0,352.7"/><polygon points="389.6,332.9 394.5,331.8 402.9,340.7 393.1,349.0"/><polygon points="346.1,375.4 353.9,359.5 356.8,360.9 349.0,376.8"/><polygon points="360.8,364.0 369.6,368.3 362.7,382.5 353.9,378.2"/><polygon points="356.2,396.0 341.9,386.0 344.7,380.1 360.3,387.7"/><polygon points="374.0,387.8 369.0,381.9 374.7,370.2 381.1,373.4"/><polygon points="394.1,379.8 378.6,393.0 377.6,391.9 385.6,375.6"/><polygon points="374.7,396.3 366.3,403.5 360.5,399.4 366.7,386.9"/><polygon points="357.1,356.2 356.1,355.8 364.4,338.7 370.0,345.2"/><polygon points="370.7,362.7 362.0,358.4 373.0,349.1 378.8,355.9"/><polygon points="394.6,374.4 375.6,365.1 382.1,359.7"/><polygon points="263.1,214.7 269.4,210.1 274.7,217.3 268.4,221.9"/><polygon points="261.7,227.2 256.0,219.5 260.0,216.5 265.7,224.3"/><polygon points="286.9,234.1 277.9,234.2 277.7,221.4"/><polygon points="273.9,234.2 267.3,234.3 264.1,230.0 273.7,222.9"/><polygon points="305.2,219.4 302.0,222.2 295.5,214.9 299.7,211.8"/><polygon points="299.4,224.3 295.4,227.9 288.5,220.1 292.8,217.0"/><polygon points="293.1,230.2 290.2,232.7 283.5,223.5 285.7,221.9"/><polygon points="292.7,203.0 297.1,209.1 288.8,215.1 284.4,209.1"/><polygon points="279.2,202.6 288.1,196.1 290.8,199.8 281.9,206.2"/><polygon points="281.8,220.2 272.7,207.8 276.4,205.1 285.5,217.6"/><polygon points="327.2,199.3 321.6,204.2 315.4,197.2 322.2,192.3"/><polygon points="319.1,206.9 315.8,209.8 308.7,201.7 312.2,199.1"/><polygon points="312.9,212.0 307.6,216.6 301.1,207.7 305.9,204.2"/><polygon points="298.7,204.6 291.2,194.2 295.0,191.4 302.6,201.7"/><polygon points="298.1,189.1 301.8,186.4 309.4,196.8 305.7,199.5"/><polygon points="315.5,183.1 319.9,189.1 312.5,194.5 308.1,188.5"/><polygon points="304.1,184.0 312.5,177.9 314.0,180.1 305.7,186.2"/><polygon points="336.2,184.8 338.2,189.6 330.2,196.7 326.6,191.8"/><polygon points="319.2,181.6 315.4,176.5 323.5,170.5 327.3,175.7"/><polygon points="332.7,182.8 324.3,188.9 321.2,184.7 329.6,178.6"/><polygon points="329.2,166.0 334.8,180.2 326.1,168.2"/><polygon points="319.4,169.2 309.6,176.3 307.6,173.6 317.4,166.5"/><polygon points="305.8,170.5 302.3,165.7 311.5,159.0 315.0,163.8"/><polygon points="322.9,150.3 325.0,155.8 316.1,159.3 314.2,156.6"/><polygon points="326.3,158.8 328.0,163.0 321.9,167.4 318.0,162.0"/><polygon points="305.8,143.2 312.2,141.4 315.1,151.7 313.1,153.2"/><polygon points="315.3,140.2 318.7,139.3 321.8,147.2 318.0,150.0"/><polygon points="307.6,151.7 310.2,155.3 300.0,162.7 297.4,159.2"/><polygon points="290.2,148.7 302.1,144.7 305.0,148.7 295.3,155.7"/><polygon points="299.2,167.8 306.8,178.2 303.5,180.6 295.9,170.2"/><polygon points="300.6,182.7 290.5,190.1 288.1,186.7 298.2,179.4"/><polygon points="286.0,183.7 283.1,179.7 293.0,172.5 295.9,176.5"/><polygon points="286.8,172.5 280.8,176.9 276.8,171.3 282.8,167.0"/><polygon points="274.7,168.9 271.8,164.9 278.1,160.3 281.1,164.3"/><polygon points="293.6,160.0 297.1,164.9 289.6,170.4 286.0,165.6"/><polygon points="288.5,152.9 291.6,157.2 283.9,162.8 280.8,158.6"/><polygon points="267.2,157.7 284.5,150.5 286.0,150.0 286.1,150.1 270.2,161.7"/><polygon points="286.3,189.7 288.2,192.2 279.8,198.3 278.0,195.8"/><polygon points="280.0,181.9 284.0,187.4 276.4,192.9 272.4,187.5"/><polygon points="276.9,199.9 273.1,202.6 265.7,192.4 269.4,189.7"/><polygon points="270.1,204.8 266.3,207.6 258.8,197.4 262.7,194.6"/><polygon points="247.8,208.5 246.1,206.2 255.9,199.1 257.5,201.4"/><polygon points="263.0,209.8 254.1,216.3 250.3,211.0 259.2,204.5"/><polygon points="267.6,164.6 273.2,172.3 268.8,175.4 263.2,167.8"/><polygon points="266.2,177.5 262.7,180.1 256.9,172.3 260.5,169.6"/><polygon points="275.2,175.2 277.9,178.9 267.6,186.4 264.9,182.7"/><polygon points="264.1,188.5 260.6,191.1 250.7,177.5 254.2,174.9"/><polygon points="255.4,163.1 263.6,158.8 265.9,161.9 258.5,167.3"/><polygon points="244.3,169.4 245.7,168.4 252.6,164.8 255.7,169.0 248.1,174.6"/><polygon points="252.3,186.1 257.9,193.8 254.1,196.5 248.5,188.8"/><polygon points="251.0,198.3 244.5,203.1 239.3,196.0 245.8,191.2"/><polygon points="238.3,173.4 241.3,171.4 250.0,183.4 247.1,185.5"/><polygon points="240.7,182.9 244.3,187.8 236.9,193.1 233.3,188.2"/><polygon points="227.6,180.3 235.2,175.3 238.6,180.0 231.3,185.4"/><polygon points="321.1,392.0 308.6,401.2 298.6,395.7 305.4,383.3"/><polygon points="313.6,367.8 328.9,386.7 327.2,388.0 308.2,377.5"/><polygon points="260.0,374.7 267.2,368.6 283.3,387.5"/><polygon points="308.1,361.9 308.8,362.8 293.9,389.6 286.2,380.6"/><polygon points="273.4,364.6 294.8,346.4 302.7,356.2 281.6,374.2"/><polygon points="453.7,200.3 449.7,198.1 457.5,183.2 461.6,185.4"/><polygon points="467.6,206.8 458.6,202.0 465.8,188.5 474.8,193.2"/><polygon points="494.4,203.9 494.9,206.9 475.2,210.6 473.1,209.5 480.1,196.2"/><polygon points="491.9,188.3 493.9,196.9 493.9,196.9 475.7,187.3 478.8,181.4"/><polygon points="485.6,167.2 490.8,180.8 491.1,182.4 480.5,176.8"/><polygon points="476.9,172.9 470.8,184.5 460.5,179.0 466.7,167.5"/><polygon points="475.0,151.2 476.4,152.7 482.6,162.8 479.8,168.2 469.0,162.5"/><polygon points="445.8,169.9 439.9,166.8 446.9,153.8 452.7,156.9"/><polygon points="463.2,162.5 456.4,175.5 450.1,172.1 456.9,159.2"/><polygon points="468.8,144.0 471.9,147.2 465.7,158.9 461.9,156.9"/><polygon points="456.5,136.4 464.8,141.4 458.2,153.9 449.6,149.4"/><polygon points="425.8,127.1 435.7,128.5 451.2,133.7 447.2,141.2 425.4,129.7"/><polygon points="422.5,141.6 423.6,134.9 436.8,141.9 433.8,147.6"/><polygon points="427.2,160.3 423.4,158.3 420.7,151.6 421.6,146.2 431.8,151.6"/><polygon points="445.2,146.6 435.7,164.4 431.5,162.2 441.0,144.3"/><polygon points="430.7,177.5 425.3,163.9 435.2,169.1"/><polygon points="454.0,179.8 451.2,185.1 436.0,177.0 438.8,171.7"/><polygon points="449.0,189.5 445.7,195.7 436.8,191.0 433.2,182.1 433.6,181.4"/><polygon points="177.6,359.5 172.2,351.1 191.3,338.9 196.7,347.3"/><polygon points="211.6,371.8 188.1,375.0 182.2,365.8 200.4,354.2"/><polygon points="224.9,343.0 224.5,370.3 220.6,370.8 209.2,352.9"/><polygon points="214.3,324.7 224.4,333.9 205.0,346.2 197.9,335.1"/><polygon points="181.2,294.1 190.4,302.5 177.6,316.5 168.5,302.2"/><polygon points="195.9,308.0 208.0,319.1 187.8,332.0 182.2,323.1"/><polygon points="158.3,328.9 149.2,314.6 162.2,306.4 171.3,320.7"/><polygon points="182.0,336.6 168.2,345.4 161.7,335.2 175.5,326.4"/><polygon points="141.5,301.9 142.2,300.1 148.8,285.8 172.8,290.1 145.2,307.7"/><polygon points="387.2,128.4 399.5,127.1 418.0,127.1 418.4,127.2 414.6,149.3 404.7,155.7"/><polygon points="386.1,141.4 398.3,160.4 389.2,166.2 377.0,147.3"/><polygon points="382.2,170.1 369.4,178.4 357.8,160.2 370.6,152.0"/><polygon points="342.3,136.2 342.5,136.1 361.5,132.2 377.9,129.5 381.4,135.0 353.2,153.1"/><polygon points="324.0,139.7 334.1,137.2 342.0,149.6 330.8,156.8"/><polygon points="345.3,156.4 362.4,182.9 351.2,190.1 343.7,187.0 334.4,163.4"/><polygon points="286.1,344.3 273.3,355.2 266.8,347.6 279.6,336.7"/><polygon points="262.8,343.9 259.6,340.2 273.5,328.4 276.6,332.1"/><polygon points="284.6,319.9 293.1,324.4 292.3,339.0 290.8,340.3 278.1,325.4"/><polygon points="263.3,309.8 264.9,308.7 280.1,316.6 273.7,322.1"/><polygon points="254.6,316.5 259.6,312.8 270.0,325.0 265.3,329.0"/><polygon points="245.5,323.4 250.7,319.5 261.5,332.2 256.5,336.4"/><polygon points="230.6,338.1 230.7,333.5 241.5,325.5 243.2,327.4"/><polygon points="245.4,331.7 251.7,339.1 239.8,349.3 233.5,341.9"/><polygon points="230.3,358.9 230.5,345.5 237.0,353.2"/><polygon points="230.7,369.0 230.8,363.8 243.4,353.0 245.9,356.0"/><polygon points="248.8,360.6 256.5,369.6 253.3,372.3 234.7,374.6 233.5,373.7"/><polygon points="247.1,350.1 255.5,343.0 262.2,350.8 253.8,358.0"/><polygon points="265.5,354.1 269.9,359.3 261.0,366.9 256.6,361.7"/><polygon points="129.1,331.5 133.9,317.8 137.5,309.0 145.2,321.2"/><polygon points="139.4,332.2 148.6,326.3 156.4,338.6 147.2,344.5"/><polygon points="126.5,340.2 134.4,335.1 142.4,347.7 134.5,352.8"/><polygon points="121.6,353.2 123.9,345.0 130.9,356.0 125.6,359.4"/><polygon points="165.2,351.9 170.4,360.0 158.9,367.3 153.7,359.2"/><polygon points="159.9,342.6 163.0,347.5 150.7,355.3 147.6,350.4"/><polygon points="154.7,370.3 151.1,372.6 140.1,355.4 143.7,353.1"/><polygon points="146.2,375.0 139.4,379.3 129.1,363.1 135.9,358.8"/><polygon points="117.7,380.0 118.4,372.3 120.7,360.4 128.8,373.0"/><polygon points="117.0,393.9 116.9,390.2 117.2,386.6 131.5,377.5 134.8,382.6"/><polygon points="137.5,386.9 137.6,386.9 149.0,404.9 140.5,406.2"/><polygon points="117.7,409.4 117.4,407.6 117.2,400.2 124.3,395.6 131.8,407.3"/><polygon points="127.8,392.5 133.5,388.9 135.9,405.3"/><polygon points="142.4,384.5 160.5,373.0 164.1,378.6 146.0,390.1"/><polygon points="165.8,401.0 165.0,402.1 154.4,403.7 148.9,395.0 158.2,389.1"/><polygon points="167.5,382.5 173.6,392.0 169.4,397.4 162.1,385.9"/><polygon points="165.7,369.8 173.1,365.1 182.3,379.4 176.5,386.8"/><polygon points="498.1,265.4 498.0,278.0 496.5,294.8 492.8,312.2 492.7,312.4 473.2,297.1"/><polygon points="466.6,261.4 453.4,251.0 465.4,234.2 479.1,244.0"/><polygon points="495.7,255.4 481.5,273.5 472.8,266.7 485.8,248.4"/><polygon points="476.2,279.7 466.6,291.9 439.5,270.5 448.5,257.9"/><polygon points="494.8,214.4 496.3,229.3 497.4,245.4 497.5,246.8 470.2,227.4 477.1,217.7"/><polygon points="298.9,250.3 302.7,254.3 288.4,268.1 284.5,264.0"/><polygon points="306.4,258.8 312.5,265.1 298.7,278.2 292.7,271.9"/><polygon points="292.1,243.0 295.4,246.4 280.8,260.4 277.5,257.0"/><polygon points="265.8,243.9 268.1,239.4 287.6,239.1 287.8,239.4 274.1,252.5"/><polygon points="258.1,263.3 257.1,258.4 262.5,248.0 268.1,253.8"/><polygon points="264.6,263.6 271.0,257.5 280.3,267.3 274.0,273.3"/><polygon points="262.7,284.5 259.3,268.3 260.9,266.8 270.6,276.9"/><polygon points="277.2,277.8 283.9,271.4 294.6,282.5 287.9,289.0"/><polygon points="269.6,284.2 273.1,280.9 284.6,292.9 281.2,296.2"/><polygon points="267.0,304.2 264.1,290.1 266.4,287.9 277.4,299.3 270.4,306.0"/><polygon points="294.7,319.0 274.9,308.7 280.1,303.7"/><polygon points="288.5,305.0 284.1,300.4 298.4,286.7 302.8,291.3"/><polygon points="317.4,306.2 309.1,311.4 301.8,299.8 306.7,295.1"/><polygon points="305.1,314.2 299.9,317.6 291.7,309.0 298.1,303.0"/><polygon points="326.1,279.3 327.2,280.5 323.0,302.1 321.9,302.7 312.2,292.6"/><polygon points="316.7,269.4 322.0,274.9 307.9,288.3 302.7,282.8"/><polygon points="203.3,406.8 202.4,404.8 232.0,392.0 233.5,402.8"/><polygon points="219.1,433.3 215.0,435.1 205.6,413.5 216.2,412.0"/><polygon points="236.8,425.4 225.4,430.3 222.8,411.4 234.7,409.8"/><polygon points="199.2,398.7 192.0,382.0 205.4,380.1 207.5,395.1"/><polygon points="211.9,379.3 227.5,377.1 230.8,379.6 231.4,384.6 213.7,392.3"/><polygon points="174.9,411.5 171.3,405.1 186.0,386.2 193.4,403.4"/><polygon points="208.9,437.5 193.0,444.4 187.9,435.4 204.0,426.2"/><polygon points="184.6,429.3 178.3,418.2 196.8,410.2 201.0,419.9"/><polygon points="141.5,466.9 141.5,466.9 159.9,464.9 162.5,489.2 151.6,479.1"/><polygon points="168.0,464.2 186.2,462.3 186.4,462.9 172.5,496.0 171.4,495.2"/><polygon points="207.4,199.7 211.1,195.9 224.5,185.0 230.5,193.3 212.4,206.5"/><polygon points="234.5,199.9 243.5,212.2 226.4,224.6 217.4,212.3"/><polygon points="197.8,209.3 202.3,204.8 220.5,229.7 215.4,233.4"/><polygon points="183.7,225.0 193.0,213.7 199.9,223.3 186.7,232.9"/><polygon points="203.3,228.7 209.8,237.7 193.5,249.5 189.5,238.8"/><polygon points="228.7,264.3 217.8,268.4 209.5,246.5 213.6,243.5"/><polygon points="211.5,271.0 202.8,274.2 196.0,256.1 203.7,250.5"/><polygon points="224.3,246.8 218.8,239.3 234.5,227.9 239.9,235.3"/><polygon points="252.8,253.9 252.2,255.1 235.6,261.4 228.8,252.1 243.6,241.3"/><polygon points="248.5,218.5 261.7,236.7 256.7,246.3 240.6,224.2"/><polygon points="160.0,263.6 170.2,246.3 179.2,233.2 186.9,253.4"/><polygon points="149.9,279.3 153.0,273.4 160.7,270.4 165.1,282.0"/><polygon points="167.5,269.7 189.8,261.3 195.5,276.1 178.4,282.6 172.0,281.4"/><polygon points="238.6,380.1 254.0,378.1 260.8,381.9 256.4,389.9"/><polygon points="239.6,398.8 237.9,386.3 253.6,394.9 248.6,403.8"/><polygon points="241.3,419.1 239.3,404.2 247.1,408.5"/><polygon points="248.7,431.6 242.8,426.3 242.7,425.6 248.2,415.6 255.4,419.6"/><polygon points="256.6,438.3 252.7,434.8 259.7,422.2 267.1,426.3 261.2,437.0"/><polygon points="271.4,427.8 280.3,432.7 266.7,436.4"/><polygon points="251.3,411.2 254.7,404.9 272.5,414.7 269.0,421.0"/><polygon points="257.4,399.8 265.8,384.6 272.8,388.5 264.4,403.6"/><polygon points="277.7,391.1 283.9,394.5 275.4,409.9 269.2,406.4"/><polygon points="281.7,428.1 274.1,423.9 282.0,409.4 289.7,413.7"/><polygon points="300.8,419.3 297.7,427.5 286.5,430.5 294.5,415.9"/><polygon points="288.8,397.5 305.1,406.6 302.3,413.9 285.0,404.4"/></g><g fill="none" stroke-linecap="round" stroke-linejoin="round"><path d="M425.9,234.6 L408.8,213.0 L395.8,193.0" stroke="#6c604a" stroke-width="3.4"/><path d="M395.8,193.0 L385.0,173.3 L370.0,152.5" stroke="#6c604a" stroke-width="3.4"/><path d="M425.9,234.6 L454.2,242.6 L477.0,262.2" stroke="#6c604a" stroke-width="3.4"/><path d="M395.8,193.0 L426.6,172.3 L457.1,169.9" stroke="#6c604a" stroke-width="3.4"/><path d="M477.0,262.2 L464.2,295.3 L441.8,321.6" stroke="#6c604a" stroke-width="3.4"/><path d="M395.8,193.0 L367.2,214.0 L340.3,236.7" stroke="#6c604a" stroke-width="3.4"/><path d="M340.3,236.7 L309.7,257.8 L290.2,279.0" stroke="#6c604a" stroke-width="3.4"/><path d="M290.2,279.0 L259.7,282.0 L229.0,294.4" stroke="#6c604a" stroke-width="3.4"/><path d="M229.0,294.4 L246.8,319.3 L258.9,341.9" stroke="#6c604a" stroke-width="3.4"/><path d="M258.9,341.9 L275.0,357.8 L296.0,375.1" stroke="#6c604a" stroke-width="3.4"/><path d="M296.0,375.1 L281.7,390.2 L267.0,408.8" stroke="#6c604a" stroke-width="3.4"/><path d="M296.0,375.1 L314.3,363.9 L328.2,342.5" stroke="#6c604a" stroke-width="3.4"/><path d="M328.2,342.5 L350.7,361.5 L378.3,365.5" stroke="#6c604a" stroke-width="3.4"/><path d="M378.3,365.5 L394.8,382.6 L410.4,394.5" stroke="#6c604a" stroke-width="3.4"/><path d="M229.0,294.4 L203.9,309.8 L186.2,331.0" stroke="#6c604a" stroke-width="3.4"/><path d="M186.2,331.0 L161.4,340.9 L144.5,368.3" stroke="#6c604a" stroke-width="3.4"/><path d="M229.0,294.4 L216.8,272.5 L209.3,240.4" stroke="#6c604a" stroke-width="3.4"/><path d="M267.0,408.8 L277.7,435.3 L290.1,463.5" stroke="#6c604a" stroke-width="3.4"/><path d="M290.1,463.5 L272.9,481.8 L253.5,493.8" stroke="#6c604a" stroke-width="3.4"/><path d="M253.5,493.8 L241.1,475.2 L225.8,456.4" stroke="#6c604a" stroke-width="3.4"/><path d="M225.8,456.4 L208.9,475.3 L202.9,493.9" stroke="#6c604a" stroke-width="3.4"/><path d="M202.9,493.9 L182.6,482.8 L166.1,475.3" stroke="#6c604a" stroke-width="3.4"/><path d="M166.1,475.3 L162.0,460.7 L152.3,435.1" stroke="#6c604a" stroke-width="3.4"/><path d="M225.8,456.4 L216.0,438.1 L205.9,408.5" stroke="#6c604a" stroke-width="3.4"/><path d="M290.1,463.5 L314.3,453.3 L338.1,429.3" stroke="#6c604a" stroke-width="3.4"/><path d="M328.2,342.5 L344.5,320.0 L369.3,296.0" stroke="#6c604a" stroke-width="3.4"/><path d="M340.3,236.7 L314.6,213.1 L286.2,187.1" stroke="#6c604a" stroke-width="3.4"/><path d="M425.9,234.6 L384.4,244.1 L340.3,236.7" stroke="#6c604a" stroke-width="3.4"/><path d="M225.8,456.4 L255.6,452.1 L290.1,463.5" stroke="#6c604a" stroke-width="3.4"/><path d="M202.9,493.9 L227.3,502.0 L253.5,493.8" stroke="#6c604a" stroke-width="3.4"/><path d="M369.3,296.0 L328.2,291.8 L290.2,279.0" stroke="#6c604a" stroke-width="3.4"/><path d="M457.1,169.9 L486.6,211.7 L477.0,262.2" stroke="#6c604a" stroke-width="3.4"/><path d="M144.5,368.3 L176.3,392.1 L205.9,408.5" stroke="#6c604a" stroke-width="3.4"/><path d="M328.2,342.5 L138.4,298.5" stroke="#6c604a" stroke-width="4.8"/><path d="M328.2,342.5 L478.4,151.0" stroke="#6c604a" stroke-width="4.8"/><path d="M328.2,342.5 L343.4,466.5" stroke="#6c604a" stroke-width="4.8"/><path d="M425.9,234.6 L408.8,213.0 L395.8,193.0" stroke="#e4d9bc" stroke-width="1.8"/><path d="M395.8,193.0 L385.0,173.3 L370.0,152.5" stroke="#e4d9bc" stroke-width="1.8"/><path d="M425.9,234.6 L454.2,242.6 L477.0,262.2" stroke="#e4d9bc" stroke-width="1.8"/><path d="M395.8,193.0 L426.6,172.3 L457.1,169.9" stroke="#e4d9bc" stroke-width="1.8"/><path d="M477.0,262.2 L464.2,295.3 L441.8,321.6" stroke="#e4d9bc" stroke-width="1.8"/><path d="M395.8,193.0 L367.2,214.0 L340.3,236.7" stroke="#e4d9bc" stroke-width="1.8"/><path d="M340.3,236.7 L309.7,257.8 L290.2,279.0" stroke="#e4d9bc" stroke-width="1.8"/><path d="M290.2,279.0 L259.7,282.0 L229.0,294.4" stroke="#e4d9bc" stroke-width="1.8"/><path d="M229.0,294.4 L246.8,319.3 L258.9,341.9" stroke="#e4d9bc" stroke-width="1.8"/><path d="M258.9,341.9 L275.0,357.8 L296.0,375.1" stroke="#e4d9bc" stroke-width="1.8"/><path d="M296.0,375.1 L281.7,390.2 L267.0,408.8" stroke="#e4d9bc" stroke-width="1.8"/><path d="M296.0,375.1 L314.3,363.9 L328.2,342.5" stroke="#e4d9bc" stroke-width="1.8"/><path d="M328.2,342.5 L350.7,361.5 L378.3,365.5" stroke="#e4d9bc" stroke-width="1.8"/><path d="M378.3,365.5 L394.8,382.6 L410.4,394.5" stroke="#e4d9bc" stroke-width="1.8"/><path d="M229.0,294.4 L203.9,309.8 L186.2,331.0" stroke="#e4d9bc" stroke-width="1.8"/><path d="M186.2,331.0 L161.4,340.9 L144.5,368.3" stroke="#e4d9bc" stroke-width="1.8"/><path d="M229.0,294.4 L216.8,272.5 L209.3,240.4" stroke="#e4d9bc" stroke-width="1.8"/><path d="M267.0,408.8 L277.7,435.3 L290.1,463.5" stroke="#e4d9bc" stroke-width="1.8"/><path d="M290.1,463.5 L272.9,481.8 L253.5,493.8" stroke="#e4d9bc" stroke-width="1.8"/><path d="M253.5,493.8 L241.1,475.2 L225.8,456.4" stroke="#e4d9bc" stroke-width="1.8"/><path d="M225.8,456.4 L208.9,475.3 L202.9,493.9" stroke="#e4d9bc" stroke-width="1.8"/><path d="M202.9,493.9 L182.6,482.8 L166.1,475.3" stroke="#e4d9bc" stroke-width="1.8"/><path d="M166.1,475.3 L162.0,460.7 L152.3,435.1" stroke="#e4d9bc" stroke-width="1.8"/><path d="M225.8,456.4 L216.0,438.1 L205.9,408.5" stroke="#e4d9bc" stroke-width="1.8"/><path d="M290.1,463.5 L314.3,453.3 L338.1,429.3" stroke="#e4d9bc" stroke-width="1.8"/><path d="M328.2,342.5 L344.5,320.0 L369.3,296.0" stroke="#e4d9bc" stroke-width="1.8"/><path d="M340.3,236.7 L314.6,213.1 L286.2,187.1" stroke="#e4d9bc" stroke-width="1.8"/><path d="M425.9,234.6 L384.4,244.1 L340.3,236.7" stroke="#e4d9bc" stroke-width="1.8"/><path d="M225.8,456.4 L255.6,452.1 L290.1,463.5" stroke="#e4d9bc" stroke-width="1.8"/><path d="M202.9,493.9 L227.3,502.0 L253.5,493.8" stroke="#e4d9bc" stroke-width="1.8"/><path d="M369.3,296.0 L328.2,291.8 L290.2,279.0" stroke="#e4d9bc" stroke-width="1.8"/><path d="M457.1,169.9 L486.6,211.7 L477.0,262.2" stroke="#e4d9bc" stroke-width="1.8"/><path d="M144.5,368.3 L176.3,392.1 L205.9,408.5" stroke="#e4d9bc" stroke-width="1.8"/><path d="M328.2,342.5 L138.4,298.5" stroke="#e4d9bc" stroke-width="3.2"/><path d="M328.2,342.5 L478.4,151.0" stroke="#e4d9bc" stroke-width="3.2"/><path d="M328.2,342.5 L343.4,466.5" stroke="#e4d9bc" stroke-width="3.2"/></g><path d="M138.3,469.3 L129.6,455.6 M129.6,455.6 L122.6,440.7 M122.6,440.7 L117.6,424.8 M117.6,424.8 L114.8,407.9 M114.8,407.9 L114.2,390.2 M114.2,390.2 L115.9,371.9 M115.9,371.9 L119.4,353.5 M119.4,353.5 L124.6,335.0 M124.6,335.0 L131.0,316.7 M131.0,316.7 L135.0,306.9 M142.2,290.2 L146.7,280.3 M146.7,280.3 L156.0,262.2 M156.0,262.2 L166.6,244.1 M166.6,244.1 L178.8,226.3 M178.8,226.3 L192.9,209.2 M192.9,209.2 L208.7,193.3 M208.7,193.3 L226.2,179.1 M226.2,179.1 L244.8,166.9 M244.8,166.9 L264.2,156.7 M264.2,156.7 L283.8,148.6 M283.8,148.6 L303.2,142.1 M303.2,142.1 L322.5,136.7 M322.5,136.7 L341.6,132.0 M341.6,132.0 L360.7,128.1 M360.7,128.1 L380.0,124.9 M380.0,124.9 L399.3,122.9 M399.3,122.9 L418.3,122.9 M418.3,122.9 L436.4,125.4 M436.4,125.4 L452.9,130.9 M452.9,130.9 L467.0,139.5 M467.0,139.5 L472.7,145.3 M482.7,158.0 L486.9,164.9 M486.9,164.9 L492.8,180.2 M492.8,180.2 L496.5,196.4 M496.5,196.4 L498.9,212.7 M498.9,212.7 L500.5,229.0 M500.5,229.0 L501.6,245.1 M501.6,245.1 L502.4,261.4 M502.4,261.4 L502.2,278.2 M502.2,278.2 L500.6,295.5 M500.6,295.5 L496.8,313.3 M496.8,313.3 L490.2,331.4 M490.2,331.4 L480.7,349.1 M480.7,349.1 L468.5,366.0 M468.5,366.0 L454.1,381.5 M454.1,381.5 L438.4,395.4 M438.4,395.4 L422.2,407.9 M422.2,407.9 L406.1,419.4 M406.1,419.4 L390.5,430.5 M390.5,430.5 L375.1,441.9 M375.1,441.9 L359.6,453.9 M359.6,453.9 L350.6,460.9 M336.1,471.9 L326.2,479.2 M326.2,479.2 L307.6,491.4 M307.6,491.4 L287.8,502.0 M287.8,502.0 L267.2,510.2 M267.2,510.2 L246.5,515.3 M246.5,515.3 L226.4,516.9 M226.4,516.9 L207.4,515.1 M207.4,515.1 L190.1,510.1 M190.1,510.1 L174.5,502.6 M174.5,502.6 L160.8,493.0 M160.8,493.0 L148.7,481.8 M148.7,481.8 L138.3,469.3" fill="none" stroke="#3c3628" stroke-width="3" stroke-linecap="round" stroke-linejoin="round"/><g fill="#3c3628" stroke="#1c1810" stroke-width="0.6"><circle cx="138.3" cy="469.3" r="2.6"/><circle cx="129.6" cy="455.6" r="2.6"/><circle cx="122.6" cy="440.7" r="2.6"/><circle cx="117.6" cy="424.8" r="2.6"/><circle cx="114.8" cy="407.9" r="2.6"/><circle cx="114.2" cy="390.2" r="2.6"/><circle cx="115.9" cy="371.9" r="2.6"/><circle cx="119.4" cy="353.5" r="2.6"/><circle cx="124.6" cy="335.0" r="2.6"/><circle cx="131.0" cy="316.7" r="2.6"/><circle cx="138.4" cy="298.5" r="2.6"/><circle cx="146.7" cy="280.3" r="2.6"/><circle cx="156.0" cy="262.2" r="2.6"/><circle cx="166.6" cy="244.1" r="2.6"/><circle cx="178.8" cy="226.3" r="2.6"/><circle cx="192.9" cy="209.2" r="2.6"/><circle cx="208.7" cy="193.3" r="2.6"/><circle cx="226.2" cy="179.1" r="2.6"/><circle cx="244.8" cy="166.9" r="2.6"/><circle cx="264.2" cy="156.7" r="2.6"/><circle cx="283.8" cy="148.6" r="2.6"/><circle cx="303.2" cy="142.1" r="2.6"/><circle cx="322.5" cy="136.7" r="2.6"/><circle cx="341.6" cy="132.0" r="2.6"/><circle cx="360.7" cy="128.1" r="2.6"/><circle cx="380.0" cy="124.9" r="2.6"/><circle cx="399.3" cy="122.9" r="2.6"/><circle cx="418.3" cy="122.9" r="2.6"/><circle cx="436.4" cy="125.4" r="2.6"/><circle cx="452.9" cy="130.9" r="2.6"/><circle cx="467.0" cy="139.5" r="2.6"/><circle cx="478.4" cy="151.0" r="2.6"/><circle cx="486.9" cy="164.9" r="2.6"/><circle cx="492.8" cy="180.2" r="2.6"/><circle cx="496.5" cy="196.4" r="2.6"/><circle cx="498.9" cy="212.7" r="2.6"/><circle cx="500.5" cy="229.0" r="2.6"/><circle cx="501.6" cy="245.1" r="2.6"/><circle cx="502.4" cy="261.4" r="2.6"/><circle cx="502.2" cy="278.2" r="2.6"/><circle cx="500.6" cy="295.5" r="2.6"/><circle cx="496.8" cy="313.3" r="2.6"/><circle cx="490.2" cy="331.4" r="2.6"/><circle cx="480.7" cy="349.1" r="2.6"/><circle cx="468.5" cy="366.0" r="2.6"/><circle cx="454.1" cy="381.5" r="2.6"/><circle cx="438.4" cy="395.4" r="2.6"/><circle cx="422.2" cy="407.9" r="2.6"/><circle cx="406.1" cy="419.4" r="2.6"/><circle cx="390.5" cy="430.5" r="2.6"/><circle cx="375.1" cy="441.9" r="2.6"/><circle cx="359.6" cy="453.9" r="2.6"/><circle cx="343.4" cy="466.5" r="2.6"/><circle cx="326.2" cy="479.2" r="2.6"/><circle cx="307.6" cy="491.4" r="2.6"/><circle cx="287.8" cy="502.0" r="2.6"/><circle cx="267.2" cy="510.2" r="2.6"/><circle cx="246.5" cy="515.3" r="2.6"/><circle cx="226.4" cy="516.9" r="2.6"/><circle cx="207.4" cy="515.1" r="2.6"/><circle cx="190.1" cy="510.1" r="2.6"/><circle cx="174.5" cy="502.6" r="2.6"/><circle cx="160.8" cy="493.0" r="2.6"/><circle cx="148.7" cy="481.8" r="2.6"/></g><g fill="#3c3628" stroke="#1c1810" stroke-width="0.8"><rect x="135.4" y="295.5" width="6.0" height="6.0"/><rect x="475.4" y="148.0" width="6.0" height="6.0"/><rect x="340.4" y="463.5" width="6.0" height="6.0"/></g><polygon points="328.2,336.0 329.8,340.3 334.4,340.5 330.8,343.4 332.1,347.8 328.2,345.2 324.4,347.8 325.7,343.4 322.1,340.5 326.7,340.3" fill="#3c3628" stroke="#f7f3ea" stroke-width="1.4" stroke-linejoin="round" paint-order="stroke"/><g font-family="Georgia, serif" font-size="8" text-anchor="middle"><text x="425.9" y="237.6" stroke="#f7f3ea" stroke-width="2.5" paint-order="stroke" fill="#23211c">Craftsmen</text><text x="229.0" y="297.4" stroke="#f7f3ea" stroke-width="2.5" paint-order="stroke" fill="#23211c">Craftsmen</text><text x="410.4" y="397.5" stroke="#f7f3ea" stroke-width="2.5" paint-order="stroke" fill="#23211c">Noble</text><text x="340.3" y="239.7" stroke="#f7f3ea" stroke-width="2.5" paint-order="stroke" fill="#23211c">Craftsmen</text><text x="225.8" y="459.4" stroke="#f7f3ea" stroke-width="2.5" paint-order="stroke" fill="#23211c">Craftsmen</text><text x="328.2" y="345.5" stroke="#f7f3ea" stroke-width="2.5" paint-order="stroke" fill="#23211c">Citadel</text><text x="202.9" y="496.9" stroke="#f7f3ea" stroke-width="2.5" paint-order="stroke" fill="#23211c">Craftsmen</text><text x="338.1" y="432.3" stroke="#f7f3ea" stroke-width="2.5" paint-order="stroke" fill="#23211c">Garrison</text><text x="369.3" y="299.0" stroke="#f7f3ea" stroke-width="2.5" paint-order="stroke" fill="#23211c">Slums</text><text x="152.3" y="438.1" stroke="#f7f3ea" stroke-width="2.5" paint-order="stroke" fill="#23211c">Slums</text><text x="290.1" y="466.5" stroke="#f7f3ea" stroke-width="2.5" paint-order="stroke" fill="#23211c">Temple</text><text x="395.8" y="196.0" stroke="#f7f3ea" stroke-width="2.5" paint-order="stroke" fill="#23211c">Garrison</text><text x="253.5" y="496.8" stroke="#f7f3ea" stroke-width="2.5" paint-order="stroke" fill="#23211c">Craftsmen</text><text x="441.8" y="324.6" stroke="#f7f3ea" stroke-width="2.5" paint-order="stroke" fill="#23211c">Residential</text><text x="378.3" y="368.5" stroke="#f7f3ea" stroke-width="2.5" paint-order="stroke" fill="#23211c">Residential</text><text x="286.2" y="190.1" stroke="#f7f3ea" stroke-width="2.5" paint-order="stroke" fill="#23211c">Slums</text><text x="296.0" y="378.1" stroke="#f7f3ea" stroke-width="2.5" paint-order="stroke" fill="#23211c">Garrison</text><text x="457.1" y="172.9" stroke="#f7f3ea" stroke-width="2.5" paint-order="stroke" fill="#23211c">Residential</text><text x="186.2" y="334.0" stroke="#f7f3ea" stroke-width="2.5" paint-order="stroke" fill="#23211c">Garrison</text><text x="370.0" y="155.5" stroke="#f7f3ea" stroke-width="2.5" paint-order="stroke" fill="#23211c">Noble</text><text x="258.9" y="344.9" stroke="#f7f3ea" stroke-width="2.5" paint-order="stroke" fill="#23211c">Temple</text><text x="144.5" y="371.3" stroke="#f7f3ea" stroke-width="2.5" paint-order="stroke" fill="#23211c">Residential</text><text x="477.0" y="265.2" stroke="#f7f3ea" stroke-width="2.5" paint-order="stroke" fill="#23211c">Noble</text><text x="290.2" y="282.0" stroke="#f7f3ea" stroke-width="2.5" paint-order="stroke" fill="#23211c">Temple</text><text x="205.9" y="411.5" stroke="#f7f3ea" stroke-width="2.5" paint-order="stroke" fill="#23211c">Garrison</text><text x="166.1" y="478.3" stroke="#f7f3ea" stroke-width="2.5" paint-order="stroke" fill="#23211c">Garrison</text><text x="209.3" y="243.4" stroke="#f7f3ea" stroke-width="2.5" paint-order="stroke" fill="#23211c">Garrison</text><text x="267.0" y="411.8" stroke="#f7f3ea" stroke-width="2.5" paint-order="stroke" fill="#23211c">Craftsmen</text></g><text x="315.0" y="20" text-anchor="middle" font-family="Georgia, serif" font-size="16" font-weight="bold" stroke="#f7f3ea" stroke-width="3" paint-order="stroke" fill="#23211c">Caldwingate</text></svg>