<svg xmlns="http://www.w3.org/2000/svg" width="630" height="630" viewBox="0 0 630 630"><rect width="630" height="630" fill="#c9d2bb"/><polygon points="81.9,346.9 83.1,326.1 86.7,304.9 93.4,283.4 103.2,262.2 116.2,241.9 132.1,223.0 150.4,206.0 170.3,191.0 191.1,178.0 212.0,166.6 232.7,156.3 253.2,146.5 273.6,136.7 294.4,126.9 316.0,117.2 338.5,108.2 362.0,100.6 386.1,95.3 410.2,93.1 433.5,94.5 455.3,99.6 474.9,108.2 492.0,119.9 506.5,134.0 518.5,149.9 528.3,166.9 536.4,184.7 542.9,203.1 548.1,222.0 551.8,241.5 554.0,261.5 554.4,282.3 552.6,303.6 548.6,325.4 542.2,347.4 533.2,369.3 521.7,391.0 507.7,411.9 491.3,431.8 472.8,450.2 452.3,466.7 430.2,481.0 407.1,492.7 383.4,501.6 359.8,507.9 336.5,511.8 314.0,513.6 292.4,513.7 271.7,512.7 251.6,510.9 232.1,508.3 212.9,504.9 194.2,500.6 175.9,494.8 158.6,487.4 142.5,478.0 128.1,466.7 115.6,453.4 105.2,438.4 96.9,422.1 90.5,404.6 85.8,386.2 82.9,366.9" fill="#e6dcc0"/><g stroke="#4a4230" stroke-width="1" stroke-linejoin="round"><polygon points="431.7,222.0 408.3,204.1 406.8,185.4 420.1,177.4 458.3,195.1" fill="#b3a684"/><polygon points="388.7,244.9 380.1,260.7 349.6,263.8 339.0,237.8 360.0,212.0 383.4,224.8" fill="#c2b48f"/><polygon points="495.9,123.7 506.5,134.0 518.5,149.9 528.3,166.9 531.4,173.7 480.7,197.5 470.9,191.4 467.4,169.3 479.1,137.7" fill="#dfd6c0"/><polygon points="409.5,338.7 390.7,303.1 397.3,289.9 422.4,283.8 444.2,303.7 442.0,331.5" fill="#c2b48f"/><polygon points="553.3,255.1 554.0,261.5 554.4,282.3 552.6,303.6 548.6,325.4 543.7,342.3 502.8,324.2 493.7,288.5" fill="#c2b48f"/><polygon points="242.8,260.4 251.5,284.4 241.5,306.0 205.3,317.9 177.9,299.8 183.8,260.0 206.4,243.6" fill="#dfd6c0"/><polygon points="275.7,479.0 223.5,446.4 248.2,406.6 285.0,414.2" fill="#cdbf9e"/><polygon points="298.5,235.1 300.3,280.3 297.8,283.1 251.5,284.4 242.8,260.4 268.8,230.1" fill="#cdbf9e"/><polygon points="375.9,97.5 386.1,95.3 410.2,93.1 425.2,94.0 425.9,131.0 424.8,132.9 380.3,145.9 374.5,140.8" fill="#d8cdb0"/><polygon points="421.0,388.0 395.5,410.6 370.3,403.2 363.6,389.8 387.8,357.6 398.9,355.2" fill="#dfd6c0"/><polygon points="405.3,438.9 395.5,410.6 421.0,388.0 427.6,389.2 449.5,444.1" fill="#b3a684"/><polygon points="339.0,237.8 349.6,263.8 340.9,277.8 300.3,280.3 298.5,235.1 306.0,229.6" fill="#cdbf9e"/><polygon points="304.2,404.8 307.0,398.0 335.7,381.0 363.6,389.8 370.3,403.2 347.1,448.9 339.1,448.0" fill="#b9a98c"/><polygon points="387.8,357.6 363.6,389.8 335.7,381.0 336.4,334.3 346.1,328.7" fill="#cdbf9e"/><polygon points="467.4,169.3 470.9,191.4 458.3,195.1 420.1,177.4 429.5,154.6" fill="#d8cdb0"/><polygon points="201.9,451.5 186.1,498.0 175.9,494.8 158.6,487.4 142.5,478.0 128.1,466.7 115.6,453.4 108.7,443.4 180.5,426.7" fill="#cdbf9e"/><polygon points="310.1,203.1 306.0,229.6 298.5,235.1 268.8,230.1 255.7,200.5 270.3,172.2" fill="#d8cdb0"/><polygon points="428.9,265.8 419.4,245.2 431.8,223.7 471.7,249.9 471.0,255.8" fill="#cdbf9e"/><polygon points="283.1,513.3 271.7,512.7 251.6,510.9 232.1,508.3 212.9,504.9 194.2,500.6 186.1,498.0 201.9,451.5 223.5,446.4 275.7,479.0 283.5,493.1" fill="#c2b48f"/><polygon points="285.0,414.2 248.2,406.6 235.1,379.2 272.2,345.6 278.7,346.2 307.0,398.0 304.2,404.8" fill="#d8cdb0"/><polygon points="479.1,137.7 467.4,169.3 429.5,154.6 424.8,132.9 425.9,131.0" fill="#c2b48f"/><polygon points="517.3,397.5 507.7,411.9 491.3,431.8 472.8,450.2 460.7,459.9 449.9,444.3 479.3,384.8" fill="#c2b48f"/><polygon points="354.0,313.0 346.1,328.7 336.4,334.3 305.2,328.0 297.8,283.1 300.3,280.3 340.9,277.8" fill="#d9c08a"/><polygon points="390.7,303.1 409.5,338.7 398.9,355.2 387.8,357.6 346.1,328.7 354.0,313.0" fill="#cdbf9e"/><polygon points="419.4,245.2 428.9,265.8 422.4,283.8 397.3,289.9 380.1,260.7 388.7,244.9" fill="#d8cdb0"/><polygon points="408.3,204.1 431.7,222.0 431.8,223.7 419.4,245.2 388.7,244.9 383.4,224.8" fill="#dfd6c0"/><polygon points="106.8,256.6 116.2,241.9 127.8,228.2 183.8,260.0 177.9,299.8 155.8,308.1" fill="#b3a684"/><polygon points="374.5,140.8 380.3,145.9 383.8,173.0 355.8,195.0 335.5,184.7 328.5,158.0 334.3,143.6" fill="#cdbf9e"/><polygon points="449.5,444.1 427.6,389.2 465.4,369.2 479.3,384.8 449.9,444.3" fill="#d8cdb0"/><polygon points="431.7,222.0 458.3,195.1 470.9,191.4 480.7,197.5 487.6,226.8 471.7,249.9 431.8,223.7" fill="#cdbf9e"/><polygon points="381.8,502.1 359.8,507.9 336.5,511.8 314.0,513.6 292.4,513.7 283.1,513.3 283.5,493.1 339.1,448.0 347.1,448.9 373.4,470.3" fill="#cdbf9e"/><polygon points="255.7,200.5 268.8,230.1 242.8,260.4 206.4,243.6 207.9,207.1" fill="#b3a684"/><polygon points="425.2,94.0 433.5,94.5 455.3,99.6 474.9,108.2 492.0,119.9 495.9,123.7 479.1,137.7 425.9,131.0" fill="#cdbf9e"/><polygon points="482.1,281.9 444.2,303.7 422.4,283.8 428.9,265.8 471.0,255.8" fill="#d8cdb0"/><polygon points="427.6,389.2 421.0,388.0 398.9,355.2 409.5,338.7 442.0,331.5 465.0,350.4 465.4,369.2" fill="#cdbf9e"/><polygon points="360.0,212.0 339.0,237.8 306.0,229.6 310.1,203.1 335.5,184.7 355.8,195.0" fill="#cdbf9e"/><polygon points="320.7,115.3 338.5,108.2 362.0,100.6 375.9,97.5 374.5,140.8 334.3,143.6" fill="#c2b48f"/><polygon points="406.8,185.4 408.3,204.1 383.4,224.8 360.0,212.0 355.8,195.0 383.8,173.0" fill="#d8cdb0"/><polygon points="87.6,302.1 93.4,283.4 103.2,262.2 106.8,256.6 155.8,308.1 136.8,332.6" fill="#cdbf9e"/><polygon points="241.5,306.0 251.5,284.4 297.8,283.1 305.2,328.0 278.7,346.2 272.2,345.6" fill="#c2b48f"/><polygon points="151.5,371.0 95.8,419.2 90.5,404.6 85.8,386.2 82.9,366.9 82.6,360.5 136.1,338.1" fill="#b9a98c"/><polygon points="420.1,177.4 406.8,185.4 383.8,173.0 380.3,145.9 424.8,132.9 429.5,154.6" fill="#d8cdb0"/><polygon points="81.9,346.9 83.1,326.1 86.7,304.9 87.6,302.1 136.8,332.6 136.1,338.1 82.6,360.5" fill="#b9a98c"/><polygon points="187.8,180.0 191.1,178.0 212.0,166.6 232.7,156.3 253.2,146.5 258.9,143.8 270.1,165.4 270.3,172.2 255.7,200.5 207.9,207.1" fill="#c2b48f"/><polygon points="258.9,143.8 273.6,136.7 294.4,126.9 316.0,117.2 320.7,115.3 334.3,143.6 328.5,158.0 270.1,165.4" fill="#c2b48f"/><polygon points="335.7,381.0 307.0,398.0 278.7,346.2 305.2,328.0 336.4,334.3" fill="#b9a98c"/><polygon points="180.5,426.7 108.7,443.4 105.2,438.4 96.9,422.1 95.8,419.2 151.5,371.0 181.6,383.5" fill="#b9a98c"/><polygon points="442.0,331.5 444.2,303.7 482.1,281.9 493.7,288.5 502.8,324.2 465.0,350.4" fill="#cdbf9e"/><polygon points="373.4,470.3 347.1,448.9 370.3,403.2 395.5,410.6 405.3,438.9" fill="#c2b48f"/><polygon points="155.8,308.1 177.9,299.8 205.3,317.9 204.8,369.8 181.6,383.5 151.5,371.0 136.1,338.1 136.8,332.6" fill="#d8cdb0"/><polygon points="235.1,379.2 248.2,406.6 223.5,446.4 201.9,451.5 180.5,426.7 181.6,383.5 204.8,369.8" fill="#cdbf9e"/><polygon points="543.7,342.3 542.2,347.4 533.2,369.3 521.7,391.0 517.3,397.5 479.3,384.8 465.4,369.2 465.0,350.4 502.8,324.2" fill="#b3a684"/><polygon points="204.8,369.8 205.3,317.9 241.5,306.0 272.2,345.6 235.1,379.2" fill="#b3a684"/><polygon points="283.5,493.1 275.7,479.0 285.0,414.2 304.2,404.8 339.1,448.0" fill="#dfd6c0"/><polygon points="460.7,459.9 452.3,466.7 430.2,481.0 407.1,492.7 383.4,501.6 381.8,502.1 373.4,470.3 405.3,438.9 449.5,444.1 449.9,444.3" fill="#cdbf9e"/><polygon points="328.5,158.0 335.5,184.7 310.1,203.1 270.3,172.2 270.1,165.4" fill="#c2b48f"/><polygon points="551.9,242.1 553.3,255.1 493.7,288.5 482.1,281.9 471.0,255.8 471.7,249.9 487.6,226.8" fill="#d8cdb0"/><polygon points="349.6,263.8 380.1,260.7 397.3,289.9 390.7,303.1 354.0,313.0 340.9,277.8" fill="#d8cdb0"/><polygon points="531.4,173.7 536.4,184.7 542.9,203.1 548.1,222.0 551.8,241.5 551.9,242.1 487.6,226.8 480.7,197.5" fill="#b3a684"/><polygon points="127.8,228.2 132.1,223.0 150.4,206.0 170.3,191.0 187.8,180.0 207.9,207.1 206.4,243.6 183.8,260.0" fill="#cdbf9e"/></g><g fill="#7d6c52" stroke="#4a3e2e" stroke-width="0.5" stroke-linejoin="round"><polygon points="412.7,204.4 410.7,202.8 409.4,186.7 410.9,185.8 419.7,200.0"/><polygon points="413.9,183.0 420.2,179.3 422.0,180.1 424.2,183.6 417.0,188.1"/><polygon points="425.8,186.8 430.3,194.0 423.6,198.1 419.2,190.9"/><polygon points="430.1,218.3 416.0,207.5 421.3,204.2"/><polygon points="424.4,202.0 432.3,197.1 435.6,202.3 427.7,207.2"/><polygon points="437.4,205.5 440.5,210.4 433.9,217.1 429.7,210.3"/><polygon points="427.8,183.0 440.8,189.0 434.2,193.2"/><polygon points="447.1,203.6 443.2,207.5 436.3,196.3 440.8,193.5"/><polygon points="444.8,190.8 455.3,195.7 449.9,201.1 443.8,191.3"/><polygon points="346.2,247.2 342.6,238.3 351.6,227.1 359.1,239.2"/><polygon points="356.2,222.1 360.8,216.4 379.0,226.3 364.5,235.4"/><polygon points="361.8,260.2 351.1,261.2 347.7,252.8 354.6,248.5"/><polygon points="374.1,258.8 367.3,259.5 358.9,246.0 364.1,242.7"/><polygon points="385.2,244.5 379.1,255.7 369.5,240.2 382.0,232.5"/><polygon points="471.2,171.1 471.0,169.7 480.0,145.3 489.1,159.9"/><polygon points="488.7,190.2 480.9,193.8 473.8,189.4 472.1,178.4 478.8,174.3"/><polygon points="503.6,183.0 494.6,187.2 484.4,170.9 492.9,165.7"/><polygon points="495.7,128.1 504.0,136.2 504.5,136.8 488.8,146.6 483.6,138.2"/><polygon points="508.4,142.0 514.1,149.5 497.1,160.0 492.2,152.1"/><polygon points="516.0,177.9 509.6,180.8 499.9,165.4 505.9,161.7"/><polygon points="517.7,154.6 525.7,168.3 527.5,172.2 521.1,175.2 510.9,158.8"/><polygon points="395.9,307.0 393.8,303.0 399.1,292.2 404.8,290.9 409.5,298.4"/><polygon points="402.1,318.7 398.4,311.8 412.4,303.1 416.5,309.7"/><polygon points="411.5,290.0 421.4,287.6 433.4,298.4 421.4,305.9"/><polygon points="408.5,330.4 405.0,323.7 421.8,313.2 425.8,319.7"/><polygon points="410.9,335.8 410.7,335.5 429.1,324.1 433.3,330.8"/><polygon points="427.3,310.1 438.7,303.1 440.8,305.0 438.9,328.8 438.9,328.8"/><polygon points="500.1,300.1 497.6,290.1 514.4,280.7 519.1,288.3"/><polygon points="506.9,322.7 505.3,322.0 501.4,306.8 507.6,303.0 516.2,316.9"/><polygon points="512.9,299.9 522.7,293.8 531.2,307.3 521.4,313.4"/><polygon points="528.6,333.1 512.1,325.7 520.7,320.4"/><polygon points="544.1,328.6 541.5,337.5 537.0,335.5 526.3,318.3 534.5,313.2"/><polygon points="525.6,286.8 519.6,277.2 531.6,270.5 537.2,279.6"/><polygon points="546.2,294.0 534.6,301.2 528.7,291.7 540.3,284.5"/><polygon points="550.4,260.7 550.5,261.8 550.8,282.2 550.3,288.5 537.5,267.9"/><polygon points="550.1,298.3 549.7,303.2 546.6,320.4 537.7,306.1"/><polygon points="181.3,291.7 183.7,275.5 190.2,286.1"/><polygon points="185.4,268.8 186.4,261.6 195.1,255.3 200.8,264.4 187.7,272.5"/><polygon points="203.9,268.8 207.6,274.8 194.0,283.2 190.3,277.3"/><polygon points="189.2,303.9 181.0,298.4 181.1,297.6 195.0,289.0 200.1,297.1"/><polygon points="210.6,313.5 205.7,315.1 193.8,307.3 203.2,301.5"/><polygon points="208.5,299.3 200.3,286.1 210.1,280.0 218.3,293.2"/><polygon points="228.0,307.7 215.6,311.7 211.1,304.6 221.9,297.9"/><polygon points="203.1,258.4 199.0,251.8 206.6,246.3 212.2,248.8 214.0,251.6"/><polygon points="212.3,272.3 206.2,262.4 216.2,256.2 222.4,266.0"/><polygon points="219.4,252.0 234.8,259.1 226.9,264.0"/><polygon points="232.9,286.1 224.5,291.3 215.7,277.1 224.0,271.9"/><polygon points="240.3,262.7 245.8,278.0 238.1,282.8 229.3,268.7 239.5,262.4"/><polygon points="248.0,284.1 248.0,284.2 239.2,303.4 233.4,305.3 228.0,296.6"/><polygon points="234.1,449.7 227.4,445.5 235.8,432.0 243.2,444.0"/><polygon points="239.9,426.7 246.5,415.9 257.9,434.1 248.2,440.1"/><polygon points="248.9,409.3 249.2,408.8 264.0,411.9 254.3,418.0"/><polygon points="270.0,414.5 281.3,416.9 280.8,420.0 263.7,430.6 258.2,421.8"/><polygon points="252.2,461.2 239.0,453.0 249.0,446.8 256.3,458.6"/><polygon points="253.5,444.1 261.5,439.1 268.7,450.8 260.8,455.8"/><polygon points="273.3,473.9 257.9,464.3 271.5,455.8 275.1,461.7"/><polygon points="266.7,436.4 279.9,428.2 276.4,452.1"/><polygon points="249.6,272.6 245.4,260.9 249.1,256.5 256.5,268.4"/><polygon points="252.9,253.0 258.8,246.1 267.9,260.6 260.5,265.2"/><polygon points="264.2,281.9 253.0,282.2 251.0,276.9 258.3,272.4"/><polygon points="280.3,280.7 269.5,281.0 262.9,270.4 270.8,265.5"/><polygon points="265.0,246.0 262.3,241.6 269.8,232.8 276.4,233.9 278.6,237.5"/><polygon points="285.0,247.9 271.6,256.3 267.7,250.2 281.2,241.8"/><polygon points="296.3,237.0 296.5,241.2 289.3,245.7 282.4,234.7"/><polygon points="292.6,265.4 281.9,272.1 274.9,260.8 285.6,254.2"/><polygon points="296.8,246.1 297.5,263.4 297.4,263.5 289.4,250.7"/><polygon points="297.4,268.8 297.9,279.4 296.7,280.7 286.7,280.9 284.2,277.0"/><polygon points="380.0,100.9 386.7,99.5 388.3,99.3 409.3,133.0 381.4,141.2 378.7,138.9"/><polygon points="397.6,98.5 410.2,97.3 421.1,97.9 421.6,129.4 417.6,130.6"/><polygon points="369.4,395.3 366.9,390.1 376.5,377.3 382.6,387.1"/><polygon points="394.9,407.2 394.8,407.3 372.4,400.7 372.2,400.3 385.5,392.1"/><polygon points="386.6,383.5 379.7,372.5 384.4,366.3 392.7,379.7"/><polygon points="388.2,362.1 389.6,360.4 397.6,358.6 405.8,370.9 397.1,376.4"/><polygon points="407.4,395.9 399.4,402.9 390.1,388.0 399.0,382.4"/><polygon points="417.7,387.6 412.0,392.6 403.5,378.9 409.4,375.3"/><polygon points="400.6,417.6 398.4,411.4 408.7,402.2 413.3,409.6"/><polygon points="405.7,433.7 401.7,422.2 406.0,419.6 412.2,429.7"/><polygon points="409.7,417.4 416.1,413.5 422.2,423.3 415.8,427.3"/><polygon points="411.9,398.8 417.6,393.7 423.0,402.3 416.6,406.3"/><polygon points="420.3,390.9 421.5,389.8 426.4,390.7 429.5,398.6 426.3,400.6"/><polygon points="431.3,417.7 425.9,421.0 418.9,409.8 424.3,406.4"/><polygon points="430.8,401.8 436.2,415.2 434.9,416.1 427.3,403.9"/><polygon points="409.2,436.9 421.8,429.0 428.1,439.1"/><polygon points="425.0,426.2 429.1,423.7 434.8,433.0 430.8,435.5"/><polygon points="432.1,421.9 437.4,418.6 441.5,428.8 437.8,431.0"/><polygon points="442.7,432.5 446.4,441.7 434.0,440.2 432.9,438.6"/><polygon points="301.2,247.0 300.7,236.2 305.6,232.6 310.9,241.0"/><polygon points="319.2,256.5 303.1,266.6 302.5,252.7 312.8,246.2"/><polygon points="336.4,240.8 338.0,244.6 324.9,252.7 314.0,235.2"/><polygon points="328.6,275.2 303.5,276.7 303.4,274.2 321.1,263.1"/><polygon points="341.0,250.0 343.7,256.6 329.6,265.4 325.9,259.4"/><polygon points="345.9,261.2 346.9,263.6 339.5,275.5 335.7,275.7 332.1,269.8"/><polygon points="309.0,404.1 310.3,400.8 323.5,393.1 335.3,412.0 322.1,420.2"/><polygon points="330.7,388.8 336.2,385.5 360.7,393.3 361.8,395.5 342.4,407.6"/><polygon points="351.9,430.1 344.6,444.4 341.3,444.1 327.4,426.8 343.6,416.7"/><polygon points="366.0,401.5 366.9,403.2 356.5,423.6 349.2,411.9"/><polygon points="339.3,369.2 339.7,342.5 351.6,361.6"/><polygon points="341.3,334.2 346.0,331.5 356.7,338.9 347.7,344.5"/><polygon points="360.9,342.6 371.2,349.8 357.2,358.5 351.1,348.7"/><polygon points="354.9,384.5 338.2,379.2 338.2,376.8 346.8,371.5"/><polygon points="367.4,379.9 362.5,386.4 362.4,386.4 351.6,369.0 358.2,364.9"/><polygon points="383.1,358.4 371.3,374.2 363.6,361.9 376.6,353.9"/><polygon points="463.6,172.4 466.2,188.4 458.6,190.6 425.5,175.3 431.8,160.0"/><polygon points="122.2,455.8 118.1,451.4 113.8,445.4 131.2,441.3 135.2,447.7"/><polygon points="136.0,439.2 149.6,436.0 151.4,438.9 140.2,445.8"/><polygon points="143.0,474.2 130.3,464.2 126.8,460.5 137.1,454.1 147.8,471.2"/><polygon points="141.6,450.3 153.5,443.0 157.6,449.5 145.7,456.9"/><polygon points="160.2,453.9 164.8,461.4 153.2,468.7 148.5,461.2"/><polygon points="155.5,435.7 179.4,430.1 181.0,432.0 160.9,444.4"/><polygon points="180.4,451.5 169.3,458.5 163.8,449.6 174.9,442.6"/><polygon points="185.2,435.7 192.7,444.4 184.9,449.3 178.9,439.6"/><polygon points="160.9,484.8 160.1,484.5 149.1,478.1 164.8,468.3 171.2,478.5"/><polygon points="182.3,494.5 176.7,492.7 166.0,488.1 174.9,482.6"/><polygon points="185.3,470.3 176.5,475.8 169.6,464.7 178.4,459.3"/><polygon points="198.7,452.2 194.5,464.5 190.0,467.2 183.3,456.4 195.7,448.7"/><polygon points="192.1,472.3 185.8,491.0 179.2,480.4"/><polygon points="264.8,210.7 260.3,200.6 271.7,178.6 291.6,194.1"/><polygon points="305.6,204.9 302.1,227.2 297.4,230.7 271.7,226.3 268.3,218.5 298.7,199.6"/><polygon points="424.7,248.8 423.1,245.4 433.0,228.5 444.9,236.3"/><polygon points="430.8,261.9 427.6,254.9 442.5,245.6 449.9,257.4"/><polygon points="447.8,242.0 451.0,239.9 468.5,251.4 468.3,253.3 456.6,256.1"/><polygon points="194.3,483.8 202.2,460.5 210.5,473.8"/><polygon points="203.2,500.4 194.7,498.4 188.9,496.6 190.2,492.7 196.1,489.0"/><polygon points="209.3,499.5 201.5,487.1 213.8,479.5 221.5,491.9"/><polygon points="206.1,454.1 222.9,450.1 230.9,455.1 213.5,466.0"/><polygon points="219.9,478.1 215.8,471.5 228.1,463.9 232.1,470.5"/><polygon points="239.2,481.9 227.0,489.4 222.7,482.4 234.8,474.9"/><polygon points="237.5,459.0 255.9,470.6 243.8,478.1 233.5,461.5"/><polygon points="229.6,505.8 214.0,503.0 224.0,496.8"/><polygon points="249.5,507.3 235.7,505.5 229.2,495.0 238.3,489.3"/><polygon points="252.5,500.3 243.5,485.8 251.4,480.9 260.4,495.4"/><polygon points="256.6,477.7 262.2,474.2 273.3,481.2 275.8,485.7 265.6,492.1"/><polygon points="271.6,510.3 257.3,508.9 254.9,505.2 264.7,499.1"/><polygon points="280.3,510.4 277.8,510.3 269.3,496.7 279.0,490.6 280.7,493.7"/><polygon points="249.1,398.6 240.2,380.2 253.1,368.6 265.4,388.5"/><polygon points="259.4,362.9 273.7,350.0 276.1,350.2 289.0,373.8 272.6,384.0"/><polygon points="284.5,409.8 256.4,404.0 293.0,381.2 302.3,398.2 300.9,401.8"/><polygon points="437.0,154.1 432.3,152.3 428.5,134.5 436.0,135.5 444.6,149.3"/><polygon points="443.1,135.8 463.3,138.3 449.9,146.7"/><polygon points="461.4,164.3 443.0,157.1 453.1,150.8"/><polygon points="474.7,140.3 466.7,162.0 458.2,148.4 471.8,139.9"/><polygon points="464.0,422.4 474.1,401.9 480.4,412.2"/><polygon points="452.8,444.1 458.8,431.9 465.4,427.8 469.2,433.9"/><polygon points="475.0,443.9 470.8,448.1 461.3,455.7 456.2,448.3 471.7,438.6"/><polygon points="489.9,428.2 488.8,429.5 479.3,439.0 470.9,425.5 483.3,417.8"/><polygon points="484.8,408.2 477.1,395.8 480.8,388.3 483.1,389.1 492.1,403.6"/><polygon points="490.0,390.6 505.8,395.9 496.8,401.6"/><polygon points="512.1,399.3 505.0,409.9 494.4,422.7 488.5,413.2 511.3,399.0"/><polygon points="365.9,335.0 362.8,336.9 349.7,327.8 355.0,317.4"/><polygon points="377.1,327.8 370.7,331.8 359.9,314.4 367.5,312.4"/><polygon points="389.0,307.0 394.2,316.8 382.3,324.2 374.0,311.0"/><polygon points="390.5,353.8 388.5,354.3 368.5,340.4 378.3,334.3"/><polygon points="397.4,322.2 402.0,330.7 388.6,339.1 383.5,330.9"/><polygon points="404.9,335.5 406.5,338.6 397.3,352.9 396.8,353.0 391.2,344.0"/><polygon points="416.1,249.2 388.2,266.6 384.8,260.7 391.1,249.0"/><polygon points="420.0,256.5 424.4,266.0 419.2,280.3 399.3,285.1 392.6,273.6"/><polygon points="389.9,236.4 387.2,226.0 399.7,215.7 406.2,226.2"/><polygon points="416.7,242.3 392.8,242.0 409.9,231.4"/><polygon points="408.4,207.3 419.4,215.7 410.2,221.5 403.7,211.1"/><polygon points="423.6,219.3 428.8,223.3 420.6,237.6 413.2,225.8"/><polygon points="108.9,256.4 112.3,251.0 117.9,259.8 114.3,262.0"/><polygon points="114.8,247.9 117.8,243.1 118.1,242.8 125.4,254.6 120.8,257.5"/><polygon points="120.6,239.5 127.4,231.5 131.2,237.7 122.7,243.0"/><polygon points="133.1,241.1 137.1,247.4 128.9,252.5 124.9,246.2"/><polygon points="122.4,269.8 117.4,264.6 128.1,257.9 131.8,264.0"/><polygon points="137.2,271.9 128.8,277.1 124.9,273.0 134.2,267.2"/><polygon points="139.2,250.8 143.3,257.5 135.7,262.3 131.5,255.6"/><polygon points="145.5,260.5 148.4,265.1 140.3,270.1 137.4,265.6"/><polygon points="132.0,232.5 143.4,238.9 138.1,242.2"/><polygon points="146.7,241.5 156.3,247.0 145.9,253.5 140.8,245.2"/><polygon points="160.9,249.7 166.6,253.0 151.5,262.3 148.5,257.4"/><polygon points="135.7,284.0 131.8,279.8 143.0,272.9 145.9,277.7"/><polygon points="142.5,291.3 138.4,287.0 148.1,280.9 151.2,285.9"/><polygon points="146.2,270.7 155.3,265.0 158.3,269.8 149.2,275.5"/><polygon points="160.3,273.0 163.5,278.2 154.5,283.9 151.2,278.6"/><polygon points="160.0,304.1 156.4,305.4 145.7,294.2 151.6,290.6"/><polygon points="159.0,294.0 155.3,288.1 165.5,281.8 169.1,287.7"/><polygon points="175.7,298.3 164.3,302.6 161.3,297.7 171.4,291.4"/><polygon points="163.6,270.6 158.9,263.1 166.7,258.2 171.4,265.8"/><polygon points="177.0,274.3 168.7,279.5 165.4,274.2 173.7,269.0"/><polygon points="171.3,255.3 181.5,261.1 180.0,271.5 170.3,256.0"/><polygon points="179.2,277.4 177.0,292.5 170.8,282.6"/><polygon points="335.2,173.3 331.2,158.2 333.1,153.4 342.6,168.7"/><polygon points="336.3,147.4 336.5,146.7 347.0,146.0 355.6,159.8 347.2,165.0"/><polygon points="354.6,191.3 337.8,182.8 336.7,178.5 343.9,174.1"/><polygon points="368.4,180.7 359.5,187.7 349.4,171.5 359.0,165.5"/><polygon points="373.3,144.3 377.1,147.6 377.5,150.9 363.4,159.6 354.7,145.6"/><polygon points="378.8,157.6 380.6,171.7 373.7,177.1 366.4,165.3"/><polygon points="439.1,406.6 432.9,391.2 464.5,374.5 473.8,385.0"/><polygon points="450.2,434.4 442.2,414.5 467.8,398.6"/><polygon points="434.4,222.6 440.6,216.3 450.3,231.9 449.4,232.5"/><polygon points="445.3,213.0 452.8,205.4 463.5,222.6 454.6,228.1"/><polygon points="467.1,227.9 474.7,240.1 470.8,245.7 455.1,235.3"/><polygon points="456.9,200.4 459.7,197.6 470.5,194.4 476.8,198.3 461.5,207.8"/><polygon points="479.3,203.0 480.9,209.8 467.6,218.0 464.2,212.5"/><polygon points="482.0,215.5 484.5,226.2 478.5,235.0 470.7,222.5"/><polygon points="285.7,507.2 286.0,494.3 290.8,490.4 296.9,500.2"/><polygon points="295.7,487.3 308.1,477.3 314.9,488.2 301.4,496.6"/><polygon points="303.7,511.6 292.5,511.7 287.5,511.5 299.1,504.2"/><polygon points="327.5,509.0 313.9,510.1 309.3,510.1 304.6,502.6 318.3,494.1"/><polygon points="317.3,480.0 313.1,473.1 327.5,461.5 332.9,470.3"/><polygon points="324.9,492.3 320.4,485.2 336.2,475.4 340.7,482.5"/><polygon points="331.8,457.4 339.9,450.8 346.0,451.5 350.3,455.0 335.8,464.0"/><polygon points="352.4,475.9 345.6,480.1 338.4,468.4 345.2,464.2"/><polygon points="354.7,458.4 365.8,467.4 356.6,473.1 349.5,461.6"/><polygon points="332.4,504.3 328.1,497.5 345.1,486.9 349.3,493.7"/><polygon points="357.4,505.7 336.2,509.3 334.9,509.4 334.9,509.3 352.7,498.2"/><polygon points="355.1,491.0 350.6,483.8 370.0,471.7 370.5,472.1 372.6,480.1"/><polygon points="377.9,499.8 363.0,503.7 358.5,496.6 374.4,486.7"/><polygon points="208.3,228.2 208.8,217.8 213.3,225.1"/><polygon points="209.9,212.8 210.1,209.0 215.0,208.3 221.6,218.8 215.9,222.4"/><polygon points="210.5,243.3 208.4,242.3 208.9,231.8 211.7,230.0 217.4,239.0"/><polygon points="215.6,228.0 223.9,222.8 229.2,231.3 220.9,236.5"/><polygon points="224.9,250.5 213.9,245.4 219.5,241.9"/><polygon points="223.3,240.5 231.7,235.3 237.0,243.9 228.6,249.1"/><polygon points="244.6,255.3 242.3,258.0 231.0,252.8 239.6,247.4"/><polygon points="224.0,214.4 219.7,207.6 236.4,205.3 237.0,206.3"/><polygon points="236.8,222.4 231.0,226.1 225.9,218.0 231.8,214.3"/><polygon points="244.6,217.8 240.0,220.6 234.8,212.3 239.4,209.4"/><polygon points="254.2,203.2 256.9,209.3 247.8,215.0 241.5,204.9"/><polygon points="239.2,239.5 232.8,229.3 236.4,227.0 242.8,237.3"/><polygon points="239.6,225.2 244.0,222.4 250.2,232.4 245.8,235.2"/><polygon points="255.5,241.9 247.3,251.5 241.9,242.7 252.1,236.4"/><polygon points="259.0,213.6 261.9,220.1 251.5,226.6 247.8,220.6"/><polygon points="263.8,224.2 266.2,229.7 258.8,238.4 253.8,230.4"/><polygon points="428.6,97.5 431.3,97.7 441.7,114.4 429.0,122.3"/><polygon points="439.0,98.6 454.4,102.2 459.1,104.3 447.2,111.7"/><polygon points="442.5,131.2 427.7,129.3 427.7,129.2 437.5,123.1"/><polygon points="465.4,132.4 448.3,130.2 443.0,121.7 454.3,114.6"/><polygon points="465.2,106.9 473.6,110.6 477.3,113.1 465.4,120.6 459.2,110.6"/><polygon points="482.2,117.2 489.9,122.5 491.0,123.5 478.1,134.2 474.2,133.7 469.1,125.4"/><polygon points="453.4,293.6 444.8,298.5 427.3,282.6 432.1,269.4 437.5,268.1"/><polygon points="476.7,280.1 460.6,289.4 446.1,266.0 468.5,260.7"/><polygon points="403.8,357.3 402.4,355.2 411.3,341.3 417.4,339.9 421.4,346.3"/><polygon points="410.9,367.8 407.1,362.1 424.5,351.3 428.1,357.1"/><polygon points="427.1,386.1 422.8,385.3 414.2,372.6 421.7,367.9 431.6,383.8"/><polygon points="426.4,364.7 431.2,361.7 441.8,378.7 436.7,381.4"/><polygon points="423.6,338.7 433.7,336.4 441.4,348.8 433.1,353.9"/><polygon points="438.5,334.4 441.5,333.8 452.6,342.9 446.2,346.8"/><polygon points="453.3,372.3 446.7,375.8 436.3,359.0 442.6,355.1"/><polygon points="455.9,347.1 461.9,352.0 462.2,367.3 458.7,369.2 448.0,352.0"/><polygon points="310.8,221.0 313.2,205.0 321.5,199.1 328.3,210.1"/><polygon points="326.0,232.3 309.6,228.2 319.6,222.0"/><polygon points="341.3,230.2 337.9,234.4 332.6,233.1 324.5,220.0 332.0,215.3"/><polygon points="335.5,210.1 326.0,194.9 331.3,191.0 341.0,206.6"/><polygon points="335.6,187.9 335.8,187.8 353.5,196.8 354.0,198.6 345.6,203.9"/><polygon points="356.6,211.2 345.3,225.1 338.9,214.8 355.0,204.7"/><polygon points="324.8,116.9 332.9,113.6 341.4,127.2 332.4,132.8"/><polygon points="337.9,111.1 339.4,110.6 345.2,108.7 352.7,120.7 346.4,124.7"/><polygon points="355.1,126.2 362.6,138.2 336.3,140.0 335.6,138.4"/><polygon points="351.7,107.6 362.9,103.9 372.2,101.9 371.9,111.9 359.3,119.8"/><polygon points="372.5,118.8 371.9,138.3 369.9,138.4 361.8,125.5"/><polygon points="385.4,217.7 382.9,219.7 363.6,209.2 360.5,196.6 368.4,190.4"/><polygon points="402.8,188.0 404.0,202.3 391.9,212.3 375.1,185.2 384.2,178.0"/><polygon points="93.2,290.7 95.2,284.1 98.8,276.4 103.7,284.2"/><polygon points="91.1,300.8 92.2,297.1 105.5,288.9 110.3,296.5 97.2,304.6"/><polygon points="101.8,271.9 105.7,263.6 107.2,261.2 117.8,272.3 106.5,279.4"/><polygon points="121.8,276.8 129.3,284.6 115.3,293.3 109.7,284.3"/><polygon points="115.1,315.4 103.1,308.0 117.1,299.3 123.8,310.0"/><polygon points="136.5,329.1 136.3,329.5 119.5,319.1 127.3,314.3"/><polygon points="133.5,289.2 142.4,298.6 129.2,306.8 122.5,296.1"/><polygon points="146.8,303.3 151.6,308.3 139.7,323.6 132.6,312.2"/><polygon points="245.6,304.5 253.5,287.4 263.2,287.1 266.1,291.8"/><polygon points="266.2,317.2 258.0,322.3 248.4,310.0 258.0,304.0"/><polygon points="269.4,296.5 278.0,310.2 271.2,314.4 262.7,300.7"/><polygon points="269.0,286.2 287.6,285.7 274.0,294.2"/><polygon points="295.2,287.5 296.9,297.8 282.8,306.7 277.7,298.5"/><polygon points="267.8,334.5 262.1,327.2 279.8,316.2 284.7,324.0"/><polygon points="291.6,334.0 277.9,343.3 273.7,343.0 271.1,339.6 288.4,328.9"/><polygon points="297.9,305.1 301.4,326.4 296.3,329.9 285.7,312.7"/><polygon points="89.8,384.4 87.1,366.5 87.0,363.3 102.7,356.7 111.5,370.9"/><polygon points="109.9,402.0 97.5,412.8 94.1,403.5 91.4,392.8 100.6,387.1"/><polygon points="124.5,390.0 115.6,397.8 106.3,382.9 116.2,376.8"/><polygon points="118.6,366.3 110.5,353.4 134.0,343.5 138.8,353.7"/><polygon points="146.7,370.0 129.7,384.7 122.6,373.3 142.5,361.0"/><polygon points="410.9,178.1 406.7,180.6 387.7,170.3 385.0,148.9 391.5,147.0"/><polygon points="417.4,172.8 399.9,144.5 421.7,138.2 425.1,154.2"/><polygon points="86.1,346.9 87.2,326.6 88.8,317.7 106.4,346.0 86.5,354.3"/><polygon points="94.9,311.5 132.3,334.7 132.3,335.1 114.2,342.7"/><polygon points="192.0,180.8 192.5,180.5 208.1,172.0 212.1,178.5 197.2,187.8"/><polygon points="215.2,183.4 219.7,190.6 205.7,199.3 200.6,192.5"/><polygon points="212.9,169.1 213.2,168.9 225.0,163.1 229.5,170.2 218.0,177.4"/><polygon points="232.3,174.4 236.3,180.8 224.5,188.1 220.5,181.8"/><polygon points="223.1,203.0 208.8,205.0 207.8,203.7 219.2,196.6"/><polygon points="238.6,186.1 246.3,198.5 228.0,201.0 224.3,195.0"/><polygon points="229.5,160.6 233.8,158.5 242.7,154.2 246.1,159.6 233.7,167.3"/><polygon points="248.6,164.2 253.7,172.4 241.8,179.8 236.7,171.6"/><polygon points="248.3,152.4 254.6,149.4 257.5,148.0 265.9,164.2 258.5,168.8"/><polygon points="266.6,171.6 253.5,197.2 245.7,184.7"/><polygon points="262.9,145.1 271.4,141.1 279.4,153.8 270.4,159.4"/><polygon points="277.3,138.6 290.7,132.2 297.1,142.5 284.5,150.3"/><polygon points="300.5,148.0 306.5,157.5 279.8,160.9"/><polygon points="296.1,129.3 305.1,125.2 312.7,137.4 304.4,142.6"/><polygon points="310.0,122.8 317.0,119.6 319.3,118.7 324.8,130.1 317.5,134.7"/><polygon points="322.2,156.3 313.2,157.4 307.0,147.3 313.9,143.0"/><polygon points="327.1,135.0 331.3,143.7 327.1,154.3 318.5,140.4"/><polygon points="296.0,369.1 284.2,347.5 296.1,339.3 309.5,360.8"/><polygon points="303.1,334.5 306.1,332.5 332.2,337.8 332.0,346.7 316.6,356.3"/><polygon points="320.9,385.3 308.4,392.7 299.5,376.4 310.9,369.3"/><polygon points="332.1,378.9 327.4,381.6 317.2,365.2 332.4,355.8"/><polygon points="106.2,431.1 100.8,420.5 125.9,398.8 134.9,413.3"/><polygon points="145.9,430.6 110.4,438.9 110.1,438.4 139.4,420.1"/><polygon points="141.0,407.6 132.0,393.2 144.0,382.8 154.3,399.4"/><polygon points="149.8,377.5 152.2,375.4 176.8,385.6 161.0,395.5"/><polygon points="174.0,423.9 154.3,428.5 145.5,414.5 161.8,404.3"/><polygon points="167.3,399.5 178.3,392.7 177.8,416.2"/><polygon points="444.9,330.3 446.6,309.1 455.9,324.2 445.4,330.7"/><polygon points="450.6,303.9 459.6,298.7 469.7,314.9 460.8,320.4"/><polygon points="469.4,343.7 465.2,346.7 450.3,334.4 459.9,328.5"/><polygon points="473.3,320.2 482.3,334.7 474.4,340.2 465.1,325.3"/><polygon points="465.5,295.4 474.2,290.4 484.9,307.5 476.3,312.7"/><polygon points="479.3,286.7 482.1,285.1 491.3,290.3 494.3,302.3 490.5,304.7"/><polygon points="495.3,309.1 498.8,322.7 487.5,330.6 480.1,318.6"/><polygon points="355.2,451.0 351.5,448.0 362.0,427.3 370.7,441.3"/><polygon points="373.2,465.8 360.6,455.6 374.5,447.0 381.3,457.9"/><polygon points="365.2,420.0 370.3,410.0 380.8,426.9 372.7,432.0"/><polygon points="376.1,408.0 393.2,413.0 395.0,418.2 386.0,423.8"/><polygon points="393.6,445.8 386.1,453.2 376.1,437.2 384.9,431.8"/><polygon points="397.2,423.4 402.3,438.2 398.2,442.2 389.5,428.2"/><polygon points="158.4,311.6 159.3,311.3 174.4,335.5 147.4,352.3 140.4,337.4 140.8,334.3"/><polygon points="167.3,308.3 177.4,304.5 200.2,319.5 181.5,331.1"/><polygon points="193.7,371.5 181.2,378.8 154.6,367.8 151.0,360.0 176.6,344.0"/><polygon points="201.0,328.9 200.7,366.8 183.8,339.6"/><polygon points="183.8,400.2 184.2,385.0 188.9,382.3 195.5,392.9"/><polygon points="193.6,422.6 185.1,427.9 183.2,425.7 183.7,406.6"/><polygon points="207.4,413.3 198.3,418.9 189.0,403.9 198.1,398.3"/><polygon points="201.4,391.7 194.0,379.7 204.1,373.8 211.4,385.5"/><polygon points="209.9,373.5 224.9,378.2 216.2,383.6"/><polygon points="225.3,401.9 213.0,409.6 205.2,396.9 217.5,389.3"/><polygon points="233.0,381.6 238.9,394.0 231.1,398.9 222.7,385.5 230.2,380.8"/><polygon points="194.9,438.4 189.5,432.1 208.2,420.5 212.5,427.5"/><polygon points="222.1,442.7 221.5,443.6 203.1,448.0 199.1,443.4 216.0,432.9"/><polygon points="219.1,426.2 213.3,416.9 225.5,409.4 231.3,418.6"/><polygon points="235.1,423.5 225.8,438.4 221.2,431.0 234.6,422.6"/><polygon points="241.6,399.2 245.0,406.4 237.7,418.1 230.3,406.2"/><polygon points="467.6,363.0 467.4,351.6 472.7,347.9 478.1,356.5"/><polygon points="474.1,376.2 467.2,368.5 467.2,368.1 472.5,364.8 478.0,373.8"/><polygon points="475.6,362.9 480.7,359.8 486.2,368.7 481.1,371.8"/><polygon points="476.1,345.2 483.7,339.9 488.0,346.8 480.2,351.7"/><polygon points="487.1,337.6 494.8,332.3 499.4,339.6 491.5,344.5"/><polygon points="496.8,361.4 489.5,365.9 482.9,355.2 490.1,350.7"/><polygon points="501.5,343.6 508.1,354.3 500.9,358.8 494.3,348.1"/><polygon points="489.3,386.0 480.5,383.0 476.9,379.0 483.8,374.7 490.4,385.3"/><polygon points="487.6,372.7 494.6,368.4 500.8,378.5 493.9,382.8"/><polygon points="510.0,392.8 494.5,387.6 503.4,382.1"/><polygon points="505.0,376.7 498.3,365.9 503.8,362.4 510.6,373.2"/><polygon points="507.1,360.0 510.9,357.7 517.9,369.0 514.2,371.3"/><polygon points="511.3,386.3 507.6,380.4 519.7,372.9 523.4,378.7"/><polygon points="523.7,383.4 520.2,390.1 516.6,395.4 516.1,395.2 512.9,390.1"/><polygon points="502.4,336.7 498.1,329.8 503.0,326.4 509.3,329.2 510.7,331.5"/><polygon points="510.7,349.4 505.0,340.2 512.7,335.3 518.5,344.6"/><polygon points="515.7,332.0 529.6,338.2 522.3,342.7"/><polygon points="518.9,363.5 512.6,353.3 517.1,350.5 523.4,360.7"/><polygon points="520.1,348.5 523.6,346.3 530.1,356.7 526.6,358.9"/><polygon points="533.4,362.9 531.1,368.4 527.1,375.9 521.4,366.8 531.8,360.4"/><polygon points="541.2,343.3 530.4,350.0 526.9,344.5 533.9,340.1"/><polygon points="540.2,348.1 535.6,359.3 531.9,353.2"/><polygon points="207.4,331.9 207.5,319.5 212.7,317.8 217.5,325.6"/><polygon points="206.8,355.4 207.0,340.8 213.4,351.3"/><polygon points="208.7,336.2 219.9,329.2 222.9,333.9 211.7,340.9"/><polygon points="225.1,337.4 228.0,342.0 216.6,349.0 213.8,344.5"/><polygon points="207.3,368.0 207.4,360.1 215.6,355.0 220.6,363.0 210.7,369.1"/><polygon points="223.4,366.3 229.0,375.4 215.5,371.2"/><polygon points="219.0,352.2 230.2,345.2 232.4,348.8 221.2,355.8"/><polygon points="234.3,352.3 237.6,357.6 226.8,364.3 223.5,359.0"/><polygon points="239.8,361.6 243.8,368.1 234.6,376.3 229.5,368.0"/><polygon points="217.2,316.4 227.9,312.9 231.7,319.1 222.4,324.9"/><polygon points="234.1,323.2 239.6,332.1 230.6,337.7 225.1,328.8"/><polygon points="231.9,311.3 240.8,308.3 244.6,313.2 236.3,318.3"/><polygon points="246.9,316.7 252.7,324.1 243.7,329.7 238.8,321.7"/><polygon points="238.0,349.8 233.0,341.8 241.7,336.4 246.7,344.4"/><polygon points="243.2,358.9 240.0,353.7 249.3,347.8 252.5,353.1"/><polygon points="256.0,358.0 247.2,366.0 244.8,362.1 254.7,355.9"/><polygon points="255.4,328.0 261.3,335.6 251.0,342.1 245.9,334.0"/><polygon points="262.1,352.4 258.5,355.7 252.6,346.1 256.6,343.6"/><polygon points="264.6,338.7 269.8,345.4 264.7,350.0 259.6,341.7"/><polygon points="281.8,458.2 285.1,435.0 294.6,450.2"/><polygon points="284.5,488.0 279.1,478.4 280.9,466.2 283.9,464.3 293.9,480.4"/><polygon points="289.4,460.8 297.7,455.5 306.8,470.1 299.1,476.4"/><polygon points="286.6,425.7 287.9,416.3 303.3,408.8 307.7,414.1 287.3,426.8"/><polygon points="306.3,439.4 298.0,444.6 290.2,432.1 298.5,426.9"/><polygon points="311.7,418.8 320.9,430.2 311.1,436.3 303.4,423.9"/><polygon points="320.8,458.4 311.8,465.7 301.8,449.6 311.5,443.5"/><polygon points="324.6,435.0 334.8,447.6 326.1,454.6 316.9,439.8"/><polygon points="378.0,478.6 376.0,471.0 383.3,463.8 388.5,472.0"/><polygon points="387.8,460.5 399.6,448.9 406.4,459.9 392.7,468.4"/><polygon points="391.0,496.2 383.5,499.1 379.3,483.3 381.9,481.7"/><polygon points="401.6,491.9 395.6,494.2 386.3,479.3 391.7,475.9"/><polygon points="400.1,479.5 396.2,473.1 409.9,464.6 413.8,470.9"/><polygon points="421.1,482.6 406.6,489.9 402.9,484.0 416.6,475.4"/><polygon points="414.2,459.8 404.6,444.4 406.5,442.6 423.1,444.5 427.4,451.5"/><polygon points="428.5,443.3 441.6,444.8 432.8,450.3"/><polygon points="437.1,472.5 428.5,478.0 426.1,479.2 417.7,465.7 428.7,458.9"/><polygon points="446.9,467.4 442.5,470.2 433.1,455.0 437.5,452.3"/><polygon points="457.1,459.4 451.0,464.3 441.9,449.8 447.3,446.5 448.3,446.6"/><polygon points="284.7,179.2 273.5,170.6 273.5,168.2 293.4,165.7 297.0,171.5"/><polygon points="312.8,197.0 310.2,198.9 290.3,183.5 300.4,177.2"/><polygon points="326.1,161.6 326.5,163.3 307.1,175.4 300.5,164.8"/><polygon points="325.2,188.8 318.0,193.9 309.8,180.7 317.3,176.1"/><polygon points="328.8,168.5 332.8,183.7 329.5,186.1 321.4,173.1"/><polygon points="478.8,263.3 475.3,255.2 475.7,251.5 489.4,231.5 500.9,234.3 507.7,245.3"/><polygon points="521.8,267.9 493.7,283.6 485.4,278.9 482.1,271.1 512.2,252.4"/><polygon points="548.0,245.5 548.8,252.8 529.1,263.8 512.5,237.1"/><polygon points="352.0,267.8 377.9,265.2 382.8,273.6 351.1,293.2 345.5,278.3"/><polygon points="387.1,280.8 392.5,290.0 387.8,299.5 356.6,307.9 354.1,301.3"/><polygon points="487.1,214.3 483.5,198.8 487.2,197.1 494.9,209.4"/><polygon points="491.2,194.9 503.5,189.1 506.1,193.3 494.6,200.4"/><polygon points="508.4,196.6 510.6,200.2 498.8,207.6 496.6,203.9"/><polygon points="496.0,227.2 488.9,225.5 487.3,218.9 489.8,217.3"/><polygon points="504.3,224.2 500.0,226.9 493.1,215.8 497.4,213.1"/><polygon points="511.4,219.9 507.6,222.2 500.6,211.0 504.4,208.6"/><polygon points="519.4,214.7 514.7,217.6 507.8,206.7 512.6,203.7"/><polygon points="509.7,191.7 506.9,187.2 518.1,181.9 520.2,185.2"/><polygon points="525.3,193.8 515.2,200.1 511.9,194.9 522.0,188.6"/><polygon points="530.3,176.8 534.2,185.6 534.9,187.4 528.8,191.2 522.2,180.6"/><polygon points="531.7,206.6 523.0,212.1 517.8,203.6 526.5,198.2"/><polygon points="536.7,191.5 540.3,201.7 535.6,204.6 530.0,195.6"/><polygon points="512.5,231.4 502.7,229.1 508.7,225.3"/><polygon points="516.8,231.5 516.6,231.5 512.1,224.2 520.4,219.0 525.0,226.4"/><polygon points="531.7,235.8 520.9,233.3 527.5,229.1"/><polygon points="526.3,221.2 523.5,216.6 531.6,211.5 534.5,216.1"/><polygon points="540.1,225.6 532.3,230.5 528.5,224.2 536.3,219.4"/><polygon points="541.4,206.0 545.7,221.8 543.5,223.2 535.2,209.9"/><polygon points="546.6,226.7 549.0,239.0 536.3,236.0 534.9,233.9"/><polygon points="131.6,227.5 133.9,224.7 138.3,220.7 148.5,237.1"/><polygon points="142.0,217.2 151.9,207.8 156.7,215.5 145.3,222.6"/><polygon points="159.2,220.1 164.9,229.3 154.1,236.0 148.4,226.8"/><polygon points="167.7,234.6 179.8,254.0 157.1,241.2"/><polygon points="156.4,205.0 169.6,195.1 174.5,203.0 160.6,211.7"/><polygon points="177.4,208.1 182.8,216.7 169.2,225.2 163.8,216.6"/><polygon points="174.3,191.9 187.1,183.9 192.9,191.7 179.4,200.1"/><polygon points="196.3,196.6 202.3,204.6 187.9,213.5 182.7,205.1"/><polygon points="179.1,240.6 172.8,230.4 187.2,221.5 193.5,231.6"/><polygon points="201.4,243.5 187.0,254.0 182.1,246.2 197.2,236.8"/><polygon points="204.6,210.5 203.5,235.4 192.7,217.9"/></g><g fill="none" stroke-linecap="round" stroke-linejoin="round"><path d="M129.2,226.5 L272.9,137.1" stroke="#6c604a" stroke-width="3.4"/><path d="M83.5,323.7 L446.9,97.6" stroke="#6c604a" stroke-width="3.4"/><path d="M86.9,390.4 L503.6,131.2" stroke="#6c604a" stroke-width="3.4"/><path d="M109.8,445.0 L534.6,180.7" stroke="#6c604a" stroke-width="4.8"/><path d="M155.3,485.5 L551.4,239.1" stroke="#6c604a" stroke-width="3.4"/><path d="M229.9,507.9 L551.9,307.5" stroke="#6c604a" stroke-width="3.4"/><path d="M333.9,512.0 L516.9,398.1" stroke="#6c604a" stroke-width="3.4"/><path d="M82.8,364.6 L159.5,487.8" stroke="#6c604a" stroke-width="3.4"/><path d="M96.7,276.2 L241.9,509.6" stroke="#6c604a" stroke-width="3.4"/><path d="M132.3,222.9 L313.2,513.6" stroke="#6c604a" stroke-width="3.4"/><path d="M178.2,186.0 L375.8,503.7" stroke="#6c604a" stroke-width="3.4"/><path d="M229.5,157.9 L430.4,480.9" stroke="#6c604a" stroke-width="4.8"/><path d="M282.5,132.5 L477.3,445.7" stroke="#6c604a" stroke-width="3.4"/><path d="M336.6,108.9 L516.7,398.4" stroke="#6c604a" stroke-width="3.4"/><path d="M396.4,94.4 L545.9,334.7" stroke="#6c604a" stroke-width="3.4"/><path d="M473.4,107.6 L549.6,230.1" stroke="#6c604a" stroke-width="3.4"/><path d="M129.2,226.5 L272.9,137.1" stroke="#e4d9bc" stroke-width="1.8"/><path d="M83.5,323.7 L446.9,97.6" stroke="#e4d9bc" stroke-width="1.8"/><path d="M86.9,390.4 L503.6,131.2" stroke="#e4d9bc" stroke-width="1.8"/><path d="M109.8,445.0 L534.6,180.7" stroke="#e4d9bc" stroke-width="3.2"/><path d="M155.3,485.5 L551.4,239.1" stroke="#e4d9bc" stroke-width="1.8"/><path d="M229.9,507.9 L551.9,307.5" stroke="#e4d9bc" stroke-width="1.8"/><path d="M333.9,512.0 L516.9,398.1" stroke="#e4d9bc" stroke-width="1.8"/><path d="M82.8,364.6 L159.5,487.8" stroke="#e4d9bc" stroke-width="1.8"/><path d="M96.7,276.2 L241.9,509.6" stroke="#e4d9bc" stroke-width="1.8"/><path d="M132.3,222.9 L313.2,513.6" stroke="#e4d9bc" stroke-width="1.8"/><path d="M178.2,186.0 L375.8,503.7" stroke="#e4d9bc" stroke-width="1.8"/><path d="M229.5,157.9 L430.4,480.9" stroke="#e4d9bc" stroke-width="3.2"/><path d="M282.5,132.5 L477.3,445.7" stroke="#e4d9bc" stroke-width="1.8"/><path d="M336.6,108.9 L516.7,398.4" stroke="#e4d9bc" stroke-width="1.8"/><path d="M396.4,94.4 L545.9,334.7" stroke="#e4d9bc" stroke-width="1.8"/><path d="M473.4,107.6 L549.6,230.1" stroke="#e4d9bc" stroke-width="1.8"/></g><polygon points="81.9,346.9 83.1,326.1 86.7,304.9 93.4,283.4 103.2,262.2 116.2,241.9 132.1,223.0 150.4,206.0 170.3,191.0 191.1,178.0 212.0,166.6 232.7,156.3 253.2,146.5 273.6,136.7 294.4,126.9 316.0,117.2 338.5,108.2 362.0,100.6 386.1,95.3 410.2,93.1 433.5,94.5 455.3,99.6 474.9,108.2 492.0,119.9 506.5,134.0 518.5,149.9 528.3,166.9 536.4,184.7 542.9,203.1 548.1,222.0 551.8,241.5 554.0,261.5 554.4,282.3 552.6,303.6 548.6,325.4 542.2,347.4 533.2,369.3 521.7,391.0 507.7,411.9 491.3,431.8 472.8,450.2 452.3,466.7 430.2,481.0 407.1,492.7 383.4,501.6 359.8,507.9 336.5,511.8 314.0,513.6 292.4,513.7 271.7,512.7 251.6,510.9 232.1,508.3 212.9,504.9 194.2,500.6 175.9,494.8 158.6,487.4 142.5,478.0 128.1,466.7 115.6,453.4 105.2,438.4 96.9,422.1 90.5,404.6 85.8,386.2 82.9,366.9" fill="none" stroke="#3c3628" stroke-width="1.5"/><g font-family="Georgia, serif" font-size="8" text-anchor="middle"><text x="428.8" y="201.2" stroke="#f7f3ea" stroke-width="2.5" paint-order="stroke" fill="#23211c">Slums</text><text x="364.4" y="243.3" stroke="#f7f3ea" stroke-width="2.5" paint-order="stroke" fill="#23211c">Craftsmen</text><text x="495.4" y="166.1" stroke="#f7f3ea" stroke-width="2.5" paint-order="stroke" fill="#23211c">Temple</text><text x="418.8" y="313.9" stroke="#f7f3ea" stroke-width="2.5" paint-order="stroke" fill="#23211c">Craftsmen</text><text x="528.6" y="303.0" stroke="#f7f3ea" stroke-width="2.5" paint-order="stroke" fill="#23211c">Craftsmen</text><text x="213.4" y="284.8" stroke="#f7f3ea" stroke-width="2.5" paint-order="stroke" fill="#23211c">Temple</text><text x="258.6" y="442.0" stroke="#f7f3ea" stroke-width="2.5" paint-order="stroke" fill="#23211c">Residential</text><text x="274.6" y="262.7" stroke="#f7f3ea" stroke-width="2.5" paint-order="stroke" fill="#23211c">Residential</text><text x="399.5" y="120.4" stroke="#f7f3ea" stroke-width="2.5" paint-order="stroke" fill="#23211c">Noble</text><text x="391.9" y="387.8" stroke="#f7f3ea" stroke-width="2.5" paint-order="stroke" fill="#23211c">Temple</text><text x="421.3" y="422.2" stroke="#f7f3ea" stroke-width="2.5" paint-order="stroke" fill="#23211c">Slums</text><text x="321.2" y="259.5" stroke="#f7f3ea" stroke-width="2.5" paint-order="stroke" fill="#23211c">Residential</text><text x="339.1" y="414.0" stroke="#f7f3ea" stroke-width="2.5" paint-order="stroke" fill="#23211c">Garrison</text><text x="356.3" y="363.5" stroke="#f7f3ea" stroke-width="2.5" paint-order="stroke" fill="#23211c">Residential</text><text x="446.7" y="178.6" stroke="#f7f3ea" stroke-width="2.5" paint-order="stroke" fill="#23211c">Noble</text><text x="162.1" y="461.9" stroke="#f7f3ea" stroke-width="2.5" paint-order="stroke" fill="#23211c">Residential</text><text x="282.8" y="210.3" stroke="#f7f3ea" stroke-width="2.5" paint-order="stroke" fill="#23211c">Noble</text><text x="442.1" y="250.2" stroke="#f7f3ea" stroke-width="2.5" paint-order="stroke" fill="#23211c">Residential</text><text x="234.4" y="486.7" stroke="#f7f3ea" stroke-width="2.5" paint-order="stroke" fill="#23211c">Craftsmen</text><text x="271.5" y="387.1" stroke="#f7f3ea" stroke-width="2.5" paint-order="stroke" fill="#23211c">Noble</text><text x="451.8" y="150.7" stroke="#f7f3ea" stroke-width="2.5" paint-order="stroke" fill="#23211c">Craftsmen</text><text x="480.8" y="422.2" stroke="#f7f3ea" stroke-width="2.5" paint-order="stroke" fill="#23211c">Craftsmen</text><text x="325.4" y="308.1" stroke="#f7f3ea" stroke-width="2.5" paint-order="stroke" fill="#23211c">Market</text><text x="380.2" y="332.7" stroke="#f7f3ea" stroke-width="2.5" paint-order="stroke" fill="#23211c">Residential</text><text x="405.2" y="268.3" stroke="#f7f3ea" stroke-width="2.5" paint-order="stroke" fill="#23211c">Noble</text><text x="407.0" y="230.6" stroke="#f7f3ea" stroke-width="2.5" paint-order="stroke" fill="#23211c">Temple</text><text x="148.4" y="270.7" stroke="#f7f3ea" stroke-width="2.5" paint-order="stroke" fill="#23211c">Slums</text><text x="356.1" y="167.8" stroke="#f7f3ea" stroke-width="2.5" paint-order="stroke" fill="#23211c">Residential</text><text x="453.4" y="403.6" stroke="#f7f3ea" stroke-width="2.5" paint-order="stroke" fill="#23211c">Noble</text><text x="463.6" y="222.5" stroke="#f7f3ea" stroke-width="2.5" paint-order="stroke" fill="#23211c">Residential</text><text x="333.8" y="489.8" stroke="#f7f3ea" stroke-width="2.5" paint-order="stroke" fill="#23211c">Residential</text><text x="235.7" y="231.0" stroke="#f7f3ea" stroke-width="2.5" paint-order="stroke" fill="#23211c">Slums</text><text x="454.8" y="120.7" stroke="#f7f3ea" stroke-width="2.5" paint-order="stroke" fill="#23211c">Residential</text><text x="451.8" y="281.4" stroke="#f7f3ea" stroke-width="2.5" paint-order="stroke" fill="#23211c">Noble</text><text x="433.1" y="361.9" stroke="#f7f3ea" stroke-width="2.5" paint-order="stroke" fill="#23211c">Residential</text><text x="332.8" y="215.1" stroke="#f7f3ea" stroke-width="2.5" paint-order="stroke" fill="#23211c">Residential</text><text x="352.3" y="125.4" stroke="#f7f3ea" stroke-width="2.5" paint-order="stroke" fill="#23211c">Craftsmen</text><text x="383.0" y="201.8" stroke="#f7f3ea" stroke-width="2.5" paint-order="stroke" fill="#23211c">Noble</text><text x="119.8" y="300.5" stroke="#f7f3ea" stroke-width="2.5" paint-order="stroke" fill="#23211c">Residential</text><text x="275.7" y="313.7" stroke="#f7f3ea" stroke-width="2.5" paint-order="stroke" fill="#23211c">Craftsmen</text><text x="113.9" y="377.6" stroke="#f7f3ea" stroke-width="2.5" paint-order="stroke" fill="#23211c">Garrison</text><text x="405.6" y="161.6" stroke="#f7f3ea" stroke-width="2.5" paint-order="stroke" fill="#23211c">Noble</text><text x="102.7" y="335.7" stroke="#f7f3ea" stroke-width="2.5" paint-order="stroke" fill="#23211c">Garrison</text><text x="233.7" y="181.9" stroke="#f7f3ea" stroke-width="2.5" paint-order="stroke" fill="#23211c">Craftsmen</text><text x="299.7" y="146.8" stroke="#f7f3ea" stroke-width="2.5" paint-order="stroke" fill="#23211c">Craftsmen</text><text x="312.0" y="362.2" stroke="#f7f3ea" stroke-width="2.5" paint-order="stroke" fill="#23211c">Garrison</text><text x="143.7" y="412.8" stroke="#f7f3ea" stroke-width="2.5" paint-order="stroke" fill="#23211c">Garrison</text><text x="471.8" y="318.9" stroke="#f7f3ea" stroke-width="2.5" paint-order="stroke" fill="#23211c">Residential</text><text x="376.8" y="438.9" stroke="#f7f3ea" stroke-width="2.5" paint-order="stroke" fill="#23211c">Craftsmen</text><text x="174.3" y="344.7" stroke="#f7f3ea" stroke-width="2.5" paint-order="stroke" fill="#23211c">Noble</text><text x="211.0" y="412.1" stroke="#f7f3ea" stroke-width="2.5" paint-order="stroke" fill="#23211c">Residential</text><text x="503.5" y="363.1" stroke="#f7f3ea" stroke-width="2.5" paint-order="stroke" fill="#23211c">Slums</text><text x="232.8" y="345.9" stroke="#f7f3ea" stroke-width="2.5" paint-order="stroke" fill="#23211c">Slums</text><text x="301.7" y="450.3" stroke="#f7f3ea" stroke-width="2.5" paint-order="stroke" fill="#23211c">Temple</text><text x="412.9" y="469.8" stroke="#f7f3ea" stroke-width="2.5" paint-order="stroke" fill="#23211c">Residential</text><text x="306.4" y="180.3" stroke="#f7f3ea" stroke-width="2.5" paint-order="stroke" fill="#23211c">Craftsmen</text><text x="507.2" y="258.3" stroke="#f7f3ea" stroke-width="2.5" paint-order="stroke" fill="#23211c">Noble</text><text x="368.1" y="288.7" stroke="#f7f3ea" stroke-width="2.5" paint-order="stroke" fill="#23211c">Noble</text><text x="517.8" y="212.8" stroke="#f7f3ea" stroke-width="2.5" paint-order="stroke" fill="#23211c">Slums</text><text x="175.7" y="224.8" stroke="#f7f3ea" stroke-width="2.5" paint-order="stroke" fill="#23211c">Residential</text></g><text x="315.0" y="20" text-anchor="middle" font-family="Georgia, serif" font-size="16" font-weight="bold" stroke="#f7f3ea" stroke-width="3" paint-order="stroke" fill="#23211c">Pelmoorhill</text></svg>