<svg xmlns="http://www.w3.org/2000/svg" width="576" height="396" viewBox="0 0 576 396"><rect width="576" height="396" fill="#183e56"/><g stroke-linejoin="round"><polygon points="0.0,0.0 19.0,0.0 20.5,18.9 0.0,27.8" fill="#1f4e6b" stroke="#1f4e6b" stroke-width="0.5"/><polygon points="19.0,0.0 41.7,0.0 42.7,17.6 28.5,23.3 20.5,18.9" fill="#1f4e6b" stroke="#1f4e6b" stroke-width="0.5"/><polygon points="41.7,0.0 66.6,0.0 67.0,9.3 50.8,21.8 42.7,17.6" fill="#1f4e6b" stroke="#1f4e6b" stroke-width="0.5"/><polygon points="66.6,0.0 93.0,0.0 94.3,11.6 80.8,22.4 67.0,9.3" fill="#1f4e6b" stroke="#1f4e6b" stroke-width="0.5"/><polygon points="93.0,0.0 117.5,0.0 109.4,18.2 94.3,11.6" fill="#1f4e6b" stroke="#1f4e6b" stroke-width="0.5"/><polygon points="117.5,0.0 131.3,0.0 134.2,20.0 125.5,25.0 109.7,17.5" fill="#1f4e6b" stroke="#1f4e6b" stroke-width="0.5"/><polygon points="131.3,0.0 155.1,0.0 154.3,16.7 146.5,23.1 134.2,20.0" fill="#1f4e6b" stroke="#1f4e6b" stroke-width="0.5"/><polygon points="155.1,0.0 173.8,0.0 177.8,15.8 171.9,21.6 154.3,16.7" fill="#1f4e6b" stroke="#1f4e6b" stroke-width="0.5"/><polygon points="173.8,0.0 197.1,0.0 194.0,15.8 177.8,15.8" fill="#1f4e6b" stroke="#1f4e6b" stroke-width="0.5"/><polygon points="197.1,0.0 220.5,0.0 220.5,21.0 196.6,19.0 193.9,15.8" fill="#1f4e6b" stroke="#1f4e6b" stroke-width="0.5"/><polygon points="220.5,0.0 246.6,0.0 247.5,20.2 220.5,20.2" fill="#1f4e6b" stroke="#1f4e6b" stroke-width="0.5"/><polygon points="246.6,0.0 272.7,0.0 273.6,12.5 263.3,20.4 247.4,18.1" fill="#1f4e6b" stroke="#1f4e6b" stroke-width="0.5"/><polygon points="272.7,0.0 300.0,0.0 300.0,0.4 286.8,20.1 273.6,12.5" fill="#1f4e6b" stroke="#1f4e6b" stroke-width="0.5"/><polygon points="284.5,23.6 300.0,0.4 317.5,26.7" fill="#1f4e6b" stroke="#1f4e6b" stroke-width="0.5"/><polygon points="300.0,0.0 325.4,0.0 321.6,19.3 314.2,21.7 300.0,0.4" fill="#1f4e6b" stroke="#1f4e6b" stroke-width="0.5"/><polygon points="325.4,0.0 345.9,0.0 348.0,15.1 335.7,25.8 321.6,19.3" fill="#1f4e6b" stroke="#1f4e6b" stroke-width="0.5"/><polygon points="345.9,0.0 373.5,0.0 372.6,9.6 360.3,19.9 348.0,15.1" fill="#1f4e6b" stroke="#1f4e6b" stroke-width="0.5"/><polygon points="373.5,0.0 394.2,0.0 397.1,21.4 393.2,24.7 388.5,23.7 372.6,9.6" fill="#1f4e6b" stroke="#1f4e6b" stroke-width="0.5"/><polygon points="394.2,0.0 417.9,0.0 412.0,20.1 397.1,21.4" fill="#1f4e6b" stroke="#1f4e6b" stroke-width="0.5"/><polygon points="417.9,0.0 438.6,0.0 439.5,3.4 425.1,28.2 422.9,28.7 412.0,20.1" fill="#1f4e6b" stroke="#1f4e6b" stroke-width="0.5"/><polygon points="438.6,0.0 474.1,0.0 467.5,15.4 466.1,16.3 450.3,15.0 439.5,3.4" fill="#1f4e6b" stroke="#1f4e6b" stroke-width="0.5"/><polygon points="474.1,0.0 484.2,0.0 497.2,23.9 490.2,30.1 467.5,15.4" fill="#1f4e6b" stroke="#1f4e6b" stroke-width="0.5"/><polygon points="484.2,0.0 509.0,0.0 510.7,13.2 502.7,22.7 497.2,23.9" fill="#1f4e6b" stroke="#1f4e6b" stroke-width="0.5"/><polygon points="509.0,0.0 534.6,0.0 531.6,14.9 528.9,16.4 510.7,13.2" fill="#1f4e6b" stroke="#1f4e6b" stroke-width="0.5"/><polygon points="534.6,0.0 553.5,0.0 553.5,18.9 547.2,22.7 531.6,14.9" fill="#1f4e6b" stroke="#1f4e6b" stroke-width="0.5"/><polygon points="553.5,0.0 576.0,0.0 576.0,23.4 553.5,18.9" fill="#1f4e6b" stroke="#1f4e6b" stroke-width="0.5"/><polygon points="0.0,28.5 0.0,27.8 20.5,18.9 28.5,23.3 29.7,37.9 16.5,46.3" fill="#1f4e6b" stroke="#1f4e6b" stroke-width="0.5"/><polygon points="29.7,37.9 28.5,23.3 42.7,17.6 50.8,21.8 54.4,32.7 40.0,44.2" fill="#1f4e6b" stroke="#1f4e6b" stroke-width="0.5"/><polygon points="54.4,32.7 50.8,21.8 67.0,9.3 80.9,22.5 61.5,36.5" fill="#1f4e6b" stroke="#1f4e6b" stroke-width="0.5"/><polygon points="65.8,47.0 61.5,36.5 80.8,22.6 89.7,38.9 85.7,48.2" fill="#1f4e6b" stroke="#1f4e6b" stroke-width="0.5"/><polygon points="89.7,38.9 80.7,22.5 94.3,11.6 108.4,17.8 101.6,36.6" fill="#1f4e6b" stroke="#1f4e6b" stroke-width="0.5"/><polygon points="108.7,16.9 125.5,25.0 123.5,39.1 111.9,43.7 101.6,36.6" fill="#1f4e6b" stroke="#1f4e6b" stroke-width="0.5"/><polygon points="123.5,39.1 125.5,25.0 134.2,20.0 146.5,23.1 150.0,39.7 144.3,48.6 134.5,49.1" fill="#1f4e6b" stroke="#1f4e6b" stroke-width="0.5"/><polygon points="150.0,39.7 146.5,23.1 154.3,16.7 171.9,21.6 173.5,36.6 170.2,40.2" fill="#1f4e6b" stroke="#1f4e6b" stroke-width="0.5"/><polygon points="173.5,36.6 171.9,21.6 177.8,15.8 194.0,15.8 196.6,19.0 193.1,39.0" fill="#1f4e6b" stroke="#1f4e6b" stroke-width="0.5"/><polygon points="192.9,40.0 196.6,19.0 219.9,21.0 219.4,37.0" fill="#3d7ea6" stroke="#3d7ea6" stroke-width="0.5"/><polygon points="219.3,41.8 219.9,20.2 245.2,20.2 245.2,39.0 239.3,43.2" fill="#1f4e6b" stroke="#1f4e6b" stroke-width="0.5"/><polygon points="245.2,17.8 263.3,20.4 268.0,39.1 258.9,44.4 245.2,39.0" fill="#3d7ea6" stroke="#3d7ea6" stroke-width="0.5"/><polygon points="268.0,39.1 263.3,20.4 273.6,12.5 289.4,21.6 282.5,42.3" fill="#3d7ea6" stroke="#3d7ea6" stroke-width="0.5"/><polygon points="282.8,41.6 288.6,24.0 310.5,26.0 310.5,48.1 304.2,50.0" fill="#3d7ea6" stroke="#3d7ea6" stroke-width="0.5"/><polygon points="310.5,48.1 310.5,22.9 321.6,19.3 335.7,25.8 338.9,42.4" fill="#3d7ea6" stroke="#3d7ea6" stroke-width="0.5"/><polygon points="337.9,37.1 335.7,25.8 348.0,15.1 360.3,19.9 365.0,34.7 364.1,38.8 359.7,42.0" fill="#3d7ea6" stroke="#3d7ea6" stroke-width="0.5"/><polygon points="365.0,34.7 360.3,19.9 372.6,9.6 388.5,23.7" fill="#1f4e6b" stroke="#1f4e6b" stroke-width="0.5"/><polygon points="388.5,23.7 393.2,24.7 393.6,32.7 380.1,48.4 364.1,38.8 365.0,34.7" fill="#3d7ea6" stroke="#3d7ea6" stroke-width="0.5"/><polygon points="404.9,46.9 393.6,32.7 393.2,24.7 397.1,21.4 412.0,20.1 422.9,28.7 417.5,45.9" fill="#3d7ea6" stroke="#3d7ea6" stroke-width="0.5"/><polygon points="425.1,28.2 439.5,3.4 450.3,15.0 442.4,33.5" fill="#1f4e6b" stroke="#1f4e6b" stroke-width="0.5"/><polygon points="450.3,15.0 466.1,16.3 462.1,42.2 447.1,40.4 442.4,33.5" fill="#1f4e6b" stroke="#1f4e6b" stroke-width="0.5"/><polygon points="462.2,41.7 466.1,16.3 467.5,15.4 490.2,30.1 487.5,39.7" fill="#1f4e6b" stroke="#1f4e6b" stroke-width="0.5"/><polygon points="491.5,48.5 487.5,39.7 490.2,30.1 497.2,23.9 502.7,22.7 518.8,40.1 513.9,48.5" fill="#1f4e6b" stroke="#1f4e6b" stroke-width="0.5"/><polygon points="518.8,40.1 502.7,22.7 510.7,13.2 528.9,16.4 524.0,38.3" fill="#1f4e6b" stroke="#1f4e6b" stroke-width="0.5"/><polygon points="524.0,38.3 528.9,16.4 531.6,14.9 547.2,22.7 545.6,36.3 534.5,41.6" fill="#1f4e6b" stroke="#1f4e6b" stroke-width="0.5"/><polygon points="576.0,23.4 576.0,39.6 555.5,43.7 545.6,36.3 547.2,22.7 553.5,18.9" fill="#1f4e6b" stroke="#1f4e6b" stroke-width="0.5"/><polygon points="0.0,59.1 0.0,28.5 16.5,46.3 15.1,56.4" fill="#1f4e6b" stroke="#1f4e6b" stroke-width="0.5"/><polygon points="15.1,56.4 16.5,46.3 29.7,37.9 40.0,44.2 41.7,55.0 21.5,63.5" fill="#1f4e6b" stroke="#1f4e6b" stroke-width="0.5"/><polygon points="41.7,55.0 40.0,44.2 54.4,32.7 61.5,36.5 65.8,47.0 61.5,55.3 47.2,59.4" fill="#1f4e6b" stroke="#1f4e6b" stroke-width="0.5"/><polygon points="61.5,55.3 65.8,47.0 85.7,48.2 87.9,55.0 83.7,67.6 70.2,68.8" fill="#1f4e6b" stroke="#1f4e6b" stroke-width="0.5"/><polygon points="87.9,55.0 85.7,48.2 89.7,38.9 101.6,36.6 111.9,43.7 109.2,58.9" fill="#1f4e6b" stroke="#1f4e6b" stroke-width="0.5"/><polygon points="109.2,58.9 111.9,43.7 123.5,39.1 134.5,49.1 123.4,66.6 114.6,68.2" fill="#3d7ea6" stroke="#3d7ea6" stroke-width="0.5"/><polygon points="123.4,66.6 134.5,49.1 144.3,48.6 149.3,57.4 145.2,75.6 140.4,77.6" fill="#3d7ea6" stroke="#3d7ea6" stroke-width="0.5"/><polygon points="149.3,57.4 144.3,48.6 150.0,39.7 170.2,40.2 171.5,55.7 166.5,60.2" fill="#3d7ea6" stroke="#3d7ea6" stroke-width="0.5"/><polygon points="171.5,55.7 170.2,40.2 173.5,36.6 193.7,39.1 194.9,53.6 184.5,60.0" fill="#3d7ea6" stroke="#3d7ea6" stroke-width="0.5"/><polygon points="194.9,53.6 193.8,39.9 223.8,36.5 219.1,52.4 204.1,59.5" fill="#ffefba" stroke="#ffefba" stroke-width="0.5"/><polygon points="219.1,52.4 222.2,42.0 239.3,43.2 241.6,63.6 229.3,66.9" fill="#3d7ea6" stroke="#3d7ea6" stroke-width="0.5"/><polygon points="241.6,63.6 239.3,43.2 245.2,39.0 258.9,44.4 258.3,62.4 247.5,66.0" fill="#3d7ea6" stroke="#3d7ea6" stroke-width="0.5"/><polygon points="258.3,62.4 258.9,44.4 268.0,39.1 281.8,42.1 277.3,64.3 268.6,67.8" fill="#62a15c" stroke="#62a15c" stroke-width="0.5"/><polygon points="281.9,41.3 304.2,50.0 293.2,72.1 277.3,64.3" fill="#5d9957" stroke="#5d9957" stroke-width="0.5"/><polygon points="310.4,48.1 333.9,43.4 338.9,59.5 334.7,67.8 321.5,68.6" fill="#b6beaf" stroke="#b6beaf" stroke-width="0.5"/><polygon points="331.6,35.7 359.7,42.0 356.8,56.6 338.9,59.5" fill="#cab990" stroke="#cab990" stroke-width="0.5"/><polygon points="356.8,56.6 359.7,42.0 364.1,38.8 380.1,48.4 383.6,59.8 376.2,67.9 362.7,66.0" fill="#e4d1a3" stroke="#e4d1a3" stroke-width="0.5"/><polygon points="383.6,59.8 380.1,48.4 393.6,32.7 404.9,46.9 395.5,60.6" fill="#3d7ea6" stroke="#3d7ea6" stroke-width="0.5"/><polygon points="401.2,67.6 395.5,60.6 404.9,46.9 417.5,45.9 425.2,56.7 419.0,66.0" fill="#efdbaa" stroke="#efdbaa" stroke-width="0.5"/><polygon points="425.2,56.7 417.5,45.9 422.9,28.7 425.1,28.2 442.4,33.5 447.1,40.4 435.7,57.6" fill="#3d7ea6" stroke="#3d7ea6" stroke-width="0.5"/><polygon points="447.1,40.4 461.7,42.1 464.8,62.2 444.9,69.5 435.7,57.6" fill="#3d7ea6" stroke="#3d7ea6" stroke-width="0.5"/><polygon points="464.8,62.8 461.7,41.8 487.5,39.7 491.5,48.5 488.8,59.3" fill="#3d7ea6" stroke="#3d7ea6" stroke-width="0.5"/><polygon points="488.8,59.3 491.5,48.5 513.9,48.5 517.1,60.6 506.4,72.5 492.4,66.9" fill="#3d7ea6" stroke="#3d7ea6" stroke-width="0.5"/><polygon points="517.1,60.6 513.9,48.5 518.8,40.1 524.0,38.3 534.5,41.6 537.2,58.5 531.2,65.2" fill="#1f4e6b" stroke="#1f4e6b" stroke-width="0.5"/><polygon points="537.2,58.5 534.5,41.6 545.6,36.3 555.5,43.7 551.8,58.5" fill="#1f4e6b" stroke="#1f4e6b" stroke-width="0.5"/><polygon points="576.0,39.6 576.0,65.2 556.9,65.2 551.8,58.5 555.5,43.7" fill="#1f4e6b" stroke="#1f4e6b" stroke-width="0.5"/><polygon points="0.0,85.1 0.0,59.1 15.1,56.4 21.5,63.5 22.3,74.5" fill="#1f4e6b" stroke="#1f4e6b" stroke-width="0.5"/><polygon points="22.3,74.5 21.5,63.5 41.7,55.0 47.2,59.4 47.2,77.0 29.1,80.6" fill="#1f4e6b" stroke="#1f4e6b" stroke-width="0.5"/><polygon points="47.2,78.8 47.2,59.4 61.5,55.3 70.2,68.8 63.4,78.8" fill="#1f4e6b" stroke="#1f4e6b" stroke-width="0.5"/><polygon points="71.7,92.0 63.4,78.8 70.2,68.8 83.7,67.6 89.5,77.0 85.4,88.7" fill="#1f4e6b" stroke="#1f4e6b" stroke-width="0.5"/><polygon points="89.5,77.0 83.7,67.6 87.9,55.0 109.2,58.9 114.6,68.2 110.5,75.8" fill="#3d7ea6" stroke="#3d7ea6" stroke-width="0.5"/><polygon points="112.4,83.7 110.5,75.8 114.6,68.2 123.4,66.6 140.4,77.6 133.2,95.6" fill="#65a65f" stroke="#65a65f" stroke-width="0.5"/><polygon points="145.2,75.6 149.3,57.4 166.5,60.2 166.5,76.3 157.9,80.7" fill="#3d7ea6" stroke="#3d7ea6" stroke-width="0.5"/><polygon points="166.5,76.3 166.5,60.2 171.5,55.7 184.5,60.0 184.5,82.3" fill="#ffffc6" stroke="#ffffc6" stroke-width="0.5"/><polygon points="184.5,80.5 184.5,60.0 194.9,53.6 204.1,59.5 205.3,72.9" fill="#65a65f" stroke="#65a65f" stroke-width="0.5"/><polygon points="205.3,72.9 204.1,59.5 219.1,52.4 229.3,66.9 224.7,76.2 213.9,80.2" fill="#84ae6e" stroke="#84ae6e" stroke-width="0.5"/><polygon points="224.7,76.2 229.3,66.9 241.6,63.6 247.5,66.0 247.5,82.9 237.9,89.4" fill="#65a65f" stroke="#65a65f" stroke-width="0.5"/><polygon points="247.5,82.9 247.5,66.0 258.3,62.4 268.6,67.8 266.7,90.0" fill="#65a65f" stroke="#65a65f" stroke-width="0.5"/><polygon points="267.1,85.5 268.6,67.8 277.3,64.3 293.2,72.1 294.8,75.8 290.5,86.7 281.5,91.8" fill="#63a35d" stroke="#63a35d" stroke-width="0.5"/><polygon points="294.8,75.8 293.2,72.1 304.2,50.0 310.5,48.1 321.5,68.6 314.5,78.4" fill="#62a05b" stroke="#62a05b" stroke-width="0.5"/><polygon points="317.9,89.3 314.5,78.4 321.5,68.6 334.7,67.8 341.7,77.9 337.0,93.5" fill="#c2caba" stroke="#c2caba" stroke-width="0.5"/><polygon points="341.7,77.9 334.7,67.8 338.9,59.5 356.8,56.6 362.7,66.0 354.2,76.8" fill="#4c7c47" stroke="#4c7c47" stroke-width="0.5"/><polygon points="369.9,92.0 362.1,90.1 354.2,76.8 362.7,66.0 376.5,67.9" fill="#3e663a" stroke="#3e663a" stroke-width="0.5"/><polygon points="375.9,68.1 383.6,59.8 395.5,60.6 401.2,67.6 400.6,77.9 392.5,86.3" fill="#568d50" stroke="#568d50" stroke-width="0.5"/><polygon points="400.6,77.9 401.2,67.6 419.0,66.0 422.6,88.3" fill="#4a7945" stroke="#4a7945" stroke-width="0.5"/><polygon points="422.1,85.0 419.0,66.0 425.2,56.7 435.7,57.6 444.9,69.5 444.6,71.6 433.7,85.9" fill="#5e9b58" stroke="#5e9b58" stroke-width="0.5"/><polygon points="444.6,71.6 444.9,69.5 465.2,62.1 471.8,83.4 460.0,88.5" fill="#5c9756" stroke="#5c9756" stroke-width="0.5"/><polygon points="471.8,83.4 465.4,62.7 488.8,59.3 492.4,66.9 479.9,86.6" fill="#4d7f48" stroke="#4d7f48" stroke-width="0.5"/><polygon points="492.4,66.9 506.4,72.5 510.3,85.9 484.7,94.4 479.9,86.6" fill="#8f8366" stroke="#8f8366" stroke-width="0.5"/><polygon points="510.2,85.6 506.4,72.5 517.1,60.6 531.2,65.2 534.8,79.5" fill="#3d7ea6" stroke="#3d7ea6" stroke-width="0.5"/><polygon points="534.5,78.3 531.2,65.2 537.2,58.5 551.8,58.5 556.9,65.2 550.7,77.6" fill="#1f4e6b" stroke="#1f4e6b" stroke-width="0.5"/><polygon points="576.0,65.2 576.0,85.5 556.1,85.5 550.7,77.6 556.9,65.2" fill="#1f4e6b" stroke="#1f4e6b" stroke-width="0.5"/><polygon points="0.0,94.1 0.0,85.1 22.3,74.5 29.1,80.6 28.0,106.2" fill="#1f4e6b" stroke="#1f4e6b" stroke-width="0.5"/><polygon points="27.9,110.0 29.1,80.6 49.5,76.5 49.5,99.2" fill="#1f4e6b" stroke="#1f4e6b" stroke-width="0.5"/><polygon points="49.5,99.2 49.5,78.8 63.4,78.8 71.7,92.0 65.4,104.3" fill="#1f4e6b" stroke="#1f4e6b" stroke-width="0.5"/><polygon points="67.3,109.9 65.4,104.3 71.7,92.0 85.4,88.7 95.2,101.1 89.8,112.0" fill="#3d7ea6" stroke="#3d7ea6" stroke-width="0.5"/><polygon points="85.4,88.7 89.5,77.0 110.5,75.8 112.4,83.7 104.2,99.4 95.2,101.1" fill="#3d7ea6" stroke="#3d7ea6" stroke-width="0.5"/><polygon points="112.5,106.6 104.2,99.4 112.4,83.7 134.6,96.4 131.6,101.1" fill="#ffffc6" stroke="#ffffc6" stroke-width="0.5"/><polygon points="132.5,97.5 140.4,77.6 145.2,75.6 157.9,80.7 159.5,105.6" fill="#5e9b58" stroke="#5e9b58" stroke-width="0.5"/><polygon points="159.3,102.8 157.9,80.7 166.5,76.3 180.3,80.9 172.7,102.1" fill="#609f5a" stroke="#609f5a" stroke-width="0.5"/><polygon points="172.7,102.1 182.5,74.7 195.2,94.3 181.4,108.1" fill="#5a9454" stroke="#5a9454" stroke-width="0.5"/><polygon points="195.2,94.3 186.0,80.0 205.3,72.9 213.9,80.2 211.2,92.8 205.4,96.7" fill="#8dba76" stroke="#8dba76" stroke-width="0.5"/><polygon points="211.2,92.8 213.9,80.2 224.7,76.2 237.9,89.4 236.3,101.2 229.1,104.2" fill="#5b9655" stroke="#5b9655" stroke-width="0.5"/><polygon points="236.3,101.2 237.9,89.4 247.5,82.9 262.3,88.3 258.2,103.1 247.5,107.7" fill="#64a45d" stroke="#64a45d" stroke-width="0.5"/><polygon points="263.5,83.9 281.5,91.8 280.3,106.0 273.1,112.5 258.2,103.1" fill="#65a65f" stroke="#65a65f" stroke-width="0.5"/><polygon points="290.5,86.7 294.8,75.8 314.5,78.4 317.9,89.3 310.7,100.3 305.3,102.2" fill="#609f5a" stroke="#609f5a" stroke-width="0.5"/><polygon points="328.0,115.6 310.7,100.3 317.9,89.3 339.2,94.0" fill="#ffffff" stroke="#ffffff" stroke-width="0.5"/><polygon points="336.5,95.2 341.7,77.9 354.2,76.8 362.1,90.1 347.8,99.7" fill="#406a3c" stroke="#406a3c" stroke-width="0.5"/><polygon points="355.4,114.3 347.8,99.7 362.1,90.1 376.2,93.5 374.2,103.6" fill="#6d6944" stroke="#6d6944" stroke-width="0.5"/><polygon points="367.5,100.6 376.3,68.5 392.5,86.3 391.3,92.7" fill="#54894e" stroke="#54894e" stroke-width="0.5"/><polygon points="391.3,92.7 392.5,86.3 400.6,77.9 419.5,86.8 414.8,96.2 399.2,99.7" fill="#558d50" stroke="#558d50" stroke-width="0.5"/><polygon points="422.9,112.2 414.8,96.2 420.5,84.9 433.7,85.9 438.4,93.6 433.6,113.0" fill="#52874d" stroke="#52874d" stroke-width="0.5"/><polygon points="438.4,93.6 433.7,85.9 444.6,71.6 460.0,88.5 455.6,96.3" fill="#589052" stroke="#589052" stroke-width="0.5"/><polygon points="455.6,96.3 460.0,88.5 471.8,83.4 479.9,86.6 484.7,94.4 484.4,100.8 458.9,108.4" fill="#3a5f36" stroke="#3a5f36" stroke-width="0.5"/><polygon points="484.5,99.3 484.7,94.4 510.1,86.0 515.5,103.3 508.0,112.1" fill="#345631" stroke="#345631" stroke-width="0.5"/><polygon points="515.5,103.3 510.0,85.7 533.6,79.8 536.4,97.6 528.5,104.8" fill="#3d7ea6" stroke="#3d7ea6" stroke-width="0.5"/><polygon points="536.4,97.6 533.3,78.4 550.7,77.6 556.1,85.5 550.7,100.2" fill="#1f4e6b" stroke="#1f4e6b" stroke-width="0.5"/><polygon points="576.0,85.5 576.0,107.6 548.8,105.4 556.1,85.5" fill="#1f4e6b" stroke="#1f4e6b" stroke-width="0.5"/><polygon points="0.0,129.2 0.0,94.1 28.9,106.5" fill="#1f4e6b" stroke="#1f4e6b" stroke-width="0.5"/><polygon points="28.8,140.8 31.7,109.6 51.7,124.4 45.7,140.2" fill="#1f4e6b" stroke="#1f4e6b" stroke-width="0.5"/><polygon points="30.5,108.7 49.5,99.2 65.4,104.3 67.3,109.9 63.9,120.7 51.7,124.4" fill="#1f4e6b" stroke="#1f4e6b" stroke-width="0.5"/><polygon points="63.9,120.7 67.3,109.9 89.8,112.0 91.8,117.9 82.5,132.3 70.6,130.3" fill="#3d7ea6" stroke="#3d7ea6" stroke-width="0.5"/><polygon points="91.8,117.9 89.8,112.0 95.2,101.1 104.2,99.4 112.5,106.6 112.5,120.7 105.7,124.9" fill="#ffffc6" stroke="#ffffc6" stroke-width="0.5"/><polygon points="112.5,120.7 112.5,106.6 131.6,101.1 131.6,126.2" fill="#65a65f" stroke="#65a65f" stroke-width="0.5"/><polygon points="131.6,125.1 131.6,101.1 133.7,97.8 156.9,104.8 155.0,121.0" fill="#65a65f" stroke="#65a65f" stroke-width="0.5"/><polygon points="155.0,121.0 157.2,102.9 172.7,102.1 181.4,108.1 184.1,114.3 176.0,127.4 160.2,128.2" fill="#5f9c59" stroke="#5f9c59" stroke-width="0.5"/><polygon points="184.1,114.3 181.4,108.1 195.2,94.3 205.4,96.7 204.2,112.4 193.9,116.9" fill="#5b9655" stroke="#5b9655" stroke-width="0.5"/><polygon points="204.2,112.4 205.4,96.7 211.2,92.8 229.1,104.2 222.1,119.0 217.3,120.6" fill="#619f5b" stroke="#619f5b" stroke-width="0.5"/><polygon points="222.1,119.0 229.1,104.2 236.3,101.2 247.5,107.7 248.5,123.7 238.8,132.2" fill="#62a25c" stroke="#62a25c" stroke-width="0.5"/><polygon points="248.5,123.7 247.5,107.7 258.2,103.1 273.1,112.5 272.6,121.3 264.5,128.3" fill="#65a65f" stroke="#65a65f" stroke-width="0.5"/><polygon points="272.6,121.3 273.1,112.5 280.3,106.0 299.3,112.4 300.1,117.9 291.0,131.3" fill="#c3bb7a" stroke="#c3bb7a" stroke-width="0.5"/><polygon points="280.3,106.0 281.5,91.8 290.5,86.7 305.3,102.2 299.3,112.4" fill="#65a65e" stroke="#65a65e" stroke-width="0.5"/><polygon points="300.1,117.9 299.3,112.4 305.3,102.2 310.7,100.3 328.0,115.6 328.3,119.2 319.9,126.3" fill="#ffffff" stroke="#ffffff" stroke-width="0.5"/><polygon points="328.3,119.2 328.0,115.6 338.2,95.9 347.8,99.7 355.4,114.3 354.4,118.2 335.9,122.4" fill="#9ea1a4" stroke="#9ea1a4" stroke-width="0.5"/><polygon points="353.2,123.3 355.4,114.3 374.2,103.6 383.2,120.8 374.8,129.2" fill="#888355" stroke="#888355" stroke-width="0.5"/><polygon points="383.2,120.8 374.2,103.6 375.3,98.0 391.3,92.7 399.2,99.7 398.1,121.4" fill="#7f7a4f" stroke="#7f7a4f" stroke-width="0.5"/><polygon points="398.0,123.6 399.2,99.7 414.8,96.2 422.9,112.2 410.8,123.0" fill="#487744" stroke="#487744" stroke-width="0.5"/><polygon points="433.2,114.2 438.4,93.6 455.6,96.3 459.9,112.2" fill="#548b4f" stroke="#548b4f" stroke-width="0.5"/><polygon points="438.2,138.2 434.8,114.1 457.5,112.4 459.7,117.7 445.5,141.0" fill="#6a6642" stroke="#6a6642" stroke-width="0.5"/><polygon points="459.7,117.7 456.2,109.2 483.4,101.1 482.5,120.2 473.6,126.3" fill="#345631" stroke="#345631" stroke-width="0.5"/><polygon points="483.5,98.8 508.0,112.1 506.9,120.7 497.8,126.0 482.5,120.2" fill="#345631" stroke="#345631" stroke-width="0.5"/><polygon points="506.9,120.7 508.0,112.1 515.5,103.3 528.5,104.8 535.1,121.9 528.6,128.4 518.1,129.7" fill="#729760" stroke="#729760" stroke-width="0.5"/><polygon points="535.1,121.9 528.5,104.8 536.4,97.6 556.8,101.3 547.0,122.6" fill="#3d7ea6" stroke="#3d7ea6" stroke-width="0.5"/><polygon points="576.0,107.6 576.0,129.6 553.5,130.6 547.0,122.6 554.7,105.8" fill="#3d7ea6" stroke="#3d7ea6" stroke-width="0.5"/><polygon points="14.8,158.5 8.1,135.4 34.6,136.5 28.1,155.2" fill="#1f4e6b" stroke="#1f4e6b" stroke-width="0.5"/><polygon points="0.0,129.9 0.0,129.2 32.3,103.9 29.2,136.3 8.1,135.4" fill="#1f4e6b" stroke="#1f4e6b" stroke-width="0.5"/><polygon points="45.7,140.2 51.7,124.4 63.9,120.7 70.6,130.3 63.4,147.4 54.0,148.5" fill="#1f4e6b" stroke="#1f4e6b" stroke-width="0.5"/><polygon points="63.4,147.4 70.6,130.3 82.5,132.3 86.0,137.9 77.2,158.0" fill="#3d7ea6" stroke="#3d7ea6" stroke-width="0.5"/><polygon points="86.0,137.9 82.5,132.3 91.8,117.9 105.7,124.9 104.1,142.5" fill="#fffcc4" stroke="#fffcc4" stroke-width="0.5"/><polygon points="104.1,142.5 105.7,124.9 112.5,120.7 130.9,126.0 130.5,135.9 111.1,147.0 104.7,143.3" fill="#65a65e" stroke="#65a65e" stroke-width="0.5"/><polygon points="130.5,135.9 130.9,125.3 155.0,121.0 160.2,128.2 157.2,140.9 143.7,148.0 140.4,147.3" fill="#50844b" stroke="#50844b" stroke-width="0.5"/><polygon points="157.2,140.9 160.2,128.2 176.0,127.4 185.2,141.7 169.0,152.1" fill="#568e51" stroke="#568e51" stroke-width="0.5"/><polygon points="185.2,141.7 176.0,127.4 184.1,114.3 193.9,116.9 199.0,137.3 191.8,143.5" fill="#568d51" stroke="#568d51" stroke-width="0.5"/><polygon points="199.0,137.3 193.9,116.9 204.2,112.4 217.3,120.6 210.3,135.6" fill="#5d9857" stroke="#5d9857" stroke-width="0.5"/><polygon points="210.3,135.6 217.3,120.6 222.1,119.0 238.8,132.2 238.2,138.2 221.1,147.4" fill="#c3e393" stroke="#c3e393" stroke-width="0.5"/><polygon points="238.2,138.2 238.8,132.2 248.5,123.7 264.5,128.3 265.9,150.0 248.0,149.7" fill="#a8c37e" stroke="#a8c37e" stroke-width="0.5"/><polygon points="265.7,147.6 264.5,128.3 272.6,121.3 291.0,131.3 291.5,134.4 285.3,145.4" fill="#a0b978" stroke="#a0b978" stroke-width="0.5"/><polygon points="291.5,134.4 291.0,131.3 300.1,117.9 319.9,126.3 317.6,139.1 311.8,143.0" fill="#6e6860" stroke="#6e6860" stroke-width="0.5"/><polygon points="317.6,139.1 319.9,126.3 328.3,119.2 335.9,122.4 343.3,147.0 335.9,149.3" fill="#827b72" stroke="#827b72" stroke-width="0.5"/><polygon points="343.6,148.0 335.9,122.4 361.3,116.7 351.4,143.5" fill="#91897f" stroke="#91897f" stroke-width="0.5"/><polygon points="351.4,143.5 358.3,124.7 374.8,129.2 376.3,148.6" fill="#ffffff" stroke="#ffffff" stroke-width="0.5"/><polygon points="376.1,146.2 374.8,129.2 383.2,120.8 400.9,121.5 397.8,146.2" fill="#6e675f" stroke="#6e675f" stroke-width="0.5"/><polygon points="397.1,151.9 400.6,123.5 410.8,123.0 426.3,141.7 420.9,149.0" fill="#898456" stroke="#898456" stroke-width="0.5"/><polygon points="410.8,123.0 422.9,112.2 434.7,113.1 438.2,138.2 426.3,141.7" fill="#5e9a58" stroke="#5e9a58" stroke-width="0.5"/><polygon points="447.9,137.0 459.7,117.7 473.6,126.3 473.0,142.6" fill="#708154" stroke="#708154" stroke-width="0.5"/><polygon points="473.1,140.4 473.6,126.3 482.5,120.2 497.8,126.0 493.1,151.5" fill="#345631" stroke="#345631" stroke-width="0.5"/><polygon points="494.1,145.8 497.8,126.0 506.9,120.7 518.1,129.7 513.3,148.5 510.9,150.1" fill="#88b472" stroke="#88b472" stroke-width="0.5"/><polygon points="513.3,148.5 518.1,129.7 528.6,128.4 538.4,152.6" fill="#548a4f" stroke="#548a4f" stroke-width="0.5"/><polygon points="536.0,146.7 528.6,128.4 535.1,121.9 547.0,122.6 553.5,130.6 549.3,143.1" fill="#fee9b6" stroke="#fee9b6" stroke-width="0.5"/><polygon points="576.0,129.6 576.0,148.7 555.9,151.6 549.3,143.1 553.5,130.6" fill="#5e9b58" stroke="#5e9b58" stroke-width="0.5"/><polygon points="0.0,164.1 0.0,129.9 8.1,135.4 14.8,158.5 11.6,162.6" fill="#1f4e6b" stroke="#1f4e6b" stroke-width="0.5"/><polygon points="28.1,155.2 33.2,140.6 45.7,140.2 54.0,148.5 47.4,166.7 41.5,169.4" fill="#1f4e6b" stroke="#1f4e6b" stroke-width="0.5"/><polygon points="47.4,166.7 54.0,148.5 63.4,147.4 77.0,157.8 67.2,175.0" fill="#3d7ea6" stroke="#3d7ea6" stroke-width="0.5"/><polygon points="77.4,157.7 86.0,137.9 104.1,142.5 104.7,143.3 88.3,161.2" fill="#63a45d" stroke="#63a45d" stroke-width="0.5"/><polygon points="88.3,161.2 104.7,143.3 111.1,147.0 115.5,161.2 111.8,165.4 93.8,168.3" fill="#51854c" stroke="#51854c" stroke-width="0.5"/><polygon points="115.5,161.2 111.1,147.0 130.5,135.9 140.4,147.3 126.3,163.8" fill="#4c7c47" stroke="#4c7c47" stroke-width="0.5"/><polygon points="126.3,163.8 140.4,147.3 143.7,148.0 152.2,168.4 132.8,173.2" fill="#4e8049" stroke="#4e8049" stroke-width="0.5"/><polygon points="152.2,168.4 143.7,148.0 157.2,140.9 169.0,152.1 168.7,162.6 155.8,170.1" fill="#4f824a" stroke="#4f824a" stroke-width="0.5"/><polygon points="168.7,162.6 169.0,152.1 185.2,141.7 191.8,143.5 196.3,159.8 192.7,166.6 181.0,169.4" fill="#bedc8f" stroke="#bedc8f" stroke-width="0.5"/><polygon points="196.3,159.8 191.8,143.5 199.0,137.3 210.3,135.6 221.1,147.4 219.2,158.6" fill="#548b4f" stroke="#548b4f" stroke-width="0.5"/><polygon points="219.2,158.6 221.1,147.4 238.2,138.2 248.0,149.7 238.8,167.1 223.8,165.7" fill="#afcb83" stroke="#afcb83" stroke-width="0.5"/><polygon points="238.8,167.1 248.0,149.7 263.8,150.0 267.6,167.3 265.7,172.0 244.2,174.0" fill="#9cb575" stroke="#9cb575" stroke-width="0.5"/><polygon points="267.6,167.3 263.4,147.9 285.3,145.4 292.7,160.2 289.8,165.0" fill="#a9c47f" stroke="#a9c47f" stroke-width="0.5"/><polygon points="292.7,160.2 285.3,145.4 291.5,134.4 311.8,143.0 308.2,158.4" fill="#738556" stroke="#738556" stroke-width="0.5"/><polygon points="308.2,158.4 311.8,143.0 317.6,139.1 335.9,149.3 326.2,166.9 315.2,166.1" fill="#7d766d" stroke="#7d766d" stroke-width="0.5"/><polygon points="326.2,166.9 335.9,149.3 344.5,146.6 353.9,167.0 348.3,174.6 332.0,174.3" fill="#756e66" stroke="#756e66" stroke-width="0.5"/><polygon points="353.9,167.0 344.8,147.2 351.4,143.5 374.4,148.2 372.4,166.1" fill="#5c5751" stroke="#5c5751" stroke-width="0.5"/><polygon points="372.5,164.8 374.6,146.2 402.8,146.2 400.2,161.7 390.0,169.3" fill="#5c5751" stroke="#5c5751" stroke-width="0.5"/><polygon points="400.2,161.7 401.9,151.3 420.9,148.9 428.1,170.7 415.8,176.9 415.3,176.8" fill="#aaa094" stroke="#aaa094" stroke-width="0.5"/><polygon points="438.2,138.2 441.8,139.6 448.3,159.1 433.4,171.9 428.1,170.7 420.9,148.9 426.3,141.7" fill="#8d857b" stroke="#8d857b" stroke-width="0.5"/><polygon points="448.3,159.1 440.4,135.4 470.0,141.9 459.8,162.3" fill="#708154" stroke="#708154" stroke-width="0.5"/><polygon points="471.3,139.4 488.3,148.9 486.5,159.2 479.7,165.8 458.4,165.1" fill="#375b34" stroke="#375b34" stroke-width="0.5"/><polygon points="486.5,159.2 489.0,144.5 510.9,150.1 511.5,168.7 503.1,173.4" fill="#50844b" stroke="#50844b" stroke-width="0.5"/><polygon points="511.5,168.7 510.9,150.1 513.3,148.5 532.6,151.7 534.9,163.1 525.2,174.0" fill="#599253" stroke="#599253" stroke-width="0.5"/><polygon points="534.9,163.1 531.9,147.9 549.3,143.1 555.9,151.6 552.3,167.6" fill="#52874d" stroke="#52874d" stroke-width="0.5"/><polygon points="576.0,148.7 576.0,168.4 552.6,166.3 555.9,151.6" fill="#5c9857" stroke="#5c9857" stroke-width="0.5"/><polygon points="0.0,184.0 0.0,164.1 11.6,162.6 20.1,179.6 15.6,186.5" fill="#1f4e6b" stroke="#1f4e6b" stroke-width="0.5"/><polygon points="20.1,179.6 11.6,162.6 14.8,158.5 28.1,155.2 41.5,169.4 37.5,177.4" fill="#1f4e6b" stroke="#1f4e6b" stroke-width="0.5"/><polygon points="43.0,192.4 37.5,177.4 41.5,169.4 47.4,166.7 67.2,175.0 68.7,180.2 64.4,191.2" fill="#3d7ea6" stroke="#3d7ea6" stroke-width="0.5"/><polygon points="68.7,180.2 67.2,175.0 77.1,157.6 88.3,161.2 93.8,168.3 91.6,183.6" fill="#dbc89c" stroke="#dbc89c" stroke-width="0.5"/><polygon points="91.2,186.4 93.8,168.3 111.8,165.4 111.8,185.5" fill="#467442" stroke="#467442" stroke-width="0.5"/><polygon points="111.8,189.5 111.8,165.4 115.5,161.2 126.3,163.8 132.8,173.2 130.5,186.0" fill="#53884e" stroke="#53884e" stroke-width="0.5"/><polygon points="130.5,186.0 132.8,173.2 152.2,168.4 155.8,170.1 157.0,181.1 138.2,193.6" fill="#599253" stroke="#599253" stroke-width="0.5"/><polygon points="157.0,181.1 155.8,170.1 168.7,162.6 181.0,169.4 175.3,192.1 166.1,190.1" fill="#54894e" stroke="#54894e" stroke-width="0.5"/><polygon points="174.6,195.0 181.0,169.4 192.7,166.6 200.6,180.6 189.2,194.8" fill="#5c9756" stroke="#5c9756" stroke-width="0.5"/><polygon points="200.6,180.6 192.7,166.6 196.3,159.8 219.2,158.6 223.8,165.7 215.8,184.2" fill="#adc882" stroke="#adc882" stroke-width="0.5"/><polygon points="215.6,184.6 223.8,165.7 238.8,167.1 244.2,174.0 242.6,186.6 229.1,193.6" fill="#497844" stroke="#497844" stroke-width="0.5"/><polygon points="254.3,196.2 242.6,186.6 244.2,174.0 271.3,171.4" fill="#345631" stroke="#345631" stroke-width="0.5"/><polygon points="264.6,174.7 267.6,167.3 289.8,165.0 293.2,184.4 277.1,185.8" fill="#72975f" stroke="#72975f" stroke-width="0.5"/><polygon points="292.8,182.2 289.8,165.0 292.7,160.2 308.2,158.4 315.2,166.1 307.1,182.2" fill="#afcb83" stroke="#afcb83" stroke-width="0.5"/><polygon points="307.1,182.3 315.2,166.1 326.2,166.9 332.0,174.3 326.6,195.2 314.5,192.1" fill="#837b72" stroke="#837b72" stroke-width="0.5"/><polygon points="326.8,194.6 332.0,174.3 348.3,174.6 353.5,191.3" fill="#666059" stroke="#666059" stroke-width="0.5"/><polygon points="354.1,193.1 348.3,174.6 353.9,167.0 371.0,166.2 371.7,189.9 361.7,194.3" fill="#5c5751" stroke="#5c5751" stroke-width="0.5"/><polygon points="371.7,189.9 370.9,164.4 390.0,169.3 391.8,182.4 377.4,191.8" fill="#766f67" stroke="#766f67" stroke-width="0.5"/><polygon points="391.8,182.4 390.0,169.3 400.2,161.7 415.3,176.8 400.2,186.6" fill="#645e57" stroke="#645e57" stroke-width="0.5"/><polygon points="421.4,202.1 415.8,176.8 428.1,170.7 433.4,171.9 441.3,185.5 421.8,202.3" fill="#5c5751" stroke="#5c5751" stroke-width="0.5"/><polygon points="441.3,185.5 433.4,171.9 448.3,159.1 462.2,163.0 460.3,185.5 445.5,187.6" fill="#6d665f" stroke="#6d665f" stroke-width="0.5"/><polygon points="460.3,185.1 462.1,165.2 479.7,165.8 483.1,187.2" fill="#6a6642" stroke="#6a6642" stroke-width="0.5"/><polygon points="483.1,187.4 479.7,165.8 486.5,159.2 503.1,173.4 498.3,184.9" fill="#345631" stroke="#345631" stroke-width="0.5"/><polygon points="498.3,184.9 503.1,173.4 511.5,168.7 525.2,174.0 528.2,185.5 525.6,190.8 509.1,197.3" fill="#52864d" stroke="#52864d" stroke-width="0.5"/><polygon points="528.2,185.5 525.2,174.0 534.9,163.1 551.2,167.4 551.2,185.5" fill="#53894e" stroke="#53894e" stroke-width="0.5"/><polygon points="576.0,168.4 576.0,185.3 551.2,186.4 551.2,166.2" fill="#578f52" stroke="#578f52" stroke-width="0.5"/><polygon points="0.0,206.1 0.0,184.0 15.6,186.5 17.8,202.5" fill="#1f4e6b" stroke="#1f4e6b" stroke-width="0.5"/><polygon points="17.8,202.5 15.6,186.5 20.1,179.6 37.5,177.4 43.0,192.4 38.4,201.9 22.4,205.9" fill="#1f4e6b" stroke="#1f4e6b" stroke-width="0.5"/><polygon points="38.4,201.9 43.0,192.4 64.4,191.2 69.1,202.3 66.4,210.3 48.4,215.0" fill="#1f4e6b" stroke="#1f4e6b" stroke-width="0.5"/><polygon points="69.1,202.3 64.4,191.2 68.7,180.2 93.9,183.9 90.7,200.9" fill="#3d7ea6" stroke="#3d7ea6" stroke-width="0.5"/><polygon points="90.7,200.9 93.5,186.3 116.5,185.3 112.4,210.3 95.1,207.5" fill="#dcca9d" stroke="#dcca9d" stroke-width="0.5"/><polygon points="112.0,213.0 116.0,188.7 130.5,186.0 138.2,193.7 139.5,199.9 129.3,212.0" fill="#579052" stroke="#579052" stroke-width="0.5"/><polygon points="139.5,199.9 138.2,193.6 157.0,181.1 166.1,190.1 151.6,205.9" fill="#5a9454" stroke="#5a9454" stroke-width="0.5"/><polygon points="154.9,212.4 151.6,205.9 166.1,190.1 178.4,192.7 174.5,212.4" fill="#5d9a58" stroke="#5d9a58" stroke-width="0.5"/><polygon points="189.2,194.8 200.6,180.6 216.5,184.3 203.9,209.5" fill="#497844" stroke="#497844" stroke-width="0.5"/><polygon points="203.9,209.5 216.1,185.0 229.1,193.6 230.2,211.8 203.9,209.8" fill="#497945" stroke="#497945" stroke-width="0.5"/><polygon points="230.1,210.4 229.1,193.6 242.6,186.6 254.3,196.2 256.7,202.9 243.8,211.6" fill="#365933" stroke="#365933" stroke-width="0.5"/><polygon points="256.5,202.5 254.3,196.2 267.4,177.2 277.1,185.8 271.5,202.5" fill="#345631" stroke="#345631" stroke-width="0.5"/><polygon points="271.5,202.5 277.1,185.8 290.6,184.7 293.4,204.3 278.6,208.9" fill="#6e925c" stroke="#6e925c" stroke-width="0.5"/><polygon points="293.4,204.3 290.2,182.2 307.1,182.2 314.6,192.1 299.3,207.4" fill="#53884e" stroke="#53884e" stroke-width="0.5"/><polygon points="299.3,207.4 314.6,192.2 326.3,195.1 327.1,199.6 312.6,218.8 305.2,219.3" fill="#a59f67" stroke="#a59f67" stroke-width="0.5"/><polygon points="345.1,211.5 337.3,211.5 327.1,199.6 326.2,194.6 357.3,190.9" fill="#68625a" stroke="#68625a" stroke-width="0.5"/><polygon points="367.3,219.5 361.7,194.3 371.7,189.9 377.4,191.8 385.3,204.7 372.6,221.3" fill="#a0978c" stroke="#a0978c" stroke-width="0.5"/><polygon points="385.3,204.7 377.4,191.8 391.8,182.4 400.2,186.6 403.1,207.2" fill="#90887e" stroke="#90887e" stroke-width="0.5"/><polygon points="402.8,204.8 400.2,186.6 415.3,176.8 415.8,176.9 421.4,202.1" fill="#6c665e" stroke="#6c665e" stroke-width="0.5"/><polygon points="421.8,202.3 441.3,185.5 445.5,187.6 445.5,206.5 427.5,210.5" fill="#6a6642" stroke="#6a6642" stroke-width="0.5"/><polygon points="445.5,206.5 445.5,187.6 459.8,185.6 463.8,207.9 455.8,214.5" fill="#6a6642" stroke="#6a6642" stroke-width="0.5"/><polygon points="463.8,207.9 459.7,185.0 483.3,187.2 481.1,208.5" fill="#9d9762" stroke="#9d9762" stroke-width="0.5"/><polygon points="480.9,210.5 483.3,187.3 498.3,184.9 509.1,197.3 506.4,209.2" fill="#958c82" stroke="#958c82" stroke-width="0.5"/><polygon points="505.7,212.0 509.1,197.3 525.6,190.8 536.3,209.9 534.7,215.0 530.5,217.7" fill="#938a80" stroke="#938a80" stroke-width="0.5"/><polygon points="536.3,209.9 525.6,190.8 528.2,185.5 552.0,185.5 551.5,201.5" fill="#4f834a" stroke="#4f834a" stroke-width="0.5"/><polygon points="576.0,185.3 576.0,210.0 564.4,210.6 551.5,201.5 552.0,186.3" fill="#8d8758" stroke="#8d8758" stroke-width="0.5"/><polygon points="0.0,228.6 0.0,206.1 17.8,202.5 22.4,205.9 21.4,229.5" fill="#1f4e6b" stroke="#1f4e6b" stroke-width="0.5"/><polygon points="21.4,228.5 22.4,205.9 38.4,201.9 48.4,215.0 45.5,226.7 40.1,231.0" fill="#1f4e6b" stroke="#1f4e6b" stroke-width="0.5"/><polygon points="45.5,226.7 48.4,215.0 66.4,210.3 71.7,220.2 66.0,235.8" fill="#1f4e6b" stroke="#1f4e6b" stroke-width="0.5"/><polygon points="71.7,220.2 66.4,210.3 69.1,202.3 90.7,200.9 95.1,207.5 88.0,221.7" fill="#3d7ea6" stroke="#3d7ea6" stroke-width="0.5"/><polygon points="88.0,221.7 95.1,207.5 115.0,210.8 112.4,228.0 105.4,233.9 93.9,235.3" fill="#95c57c" stroke="#95c57c" stroke-width="0.5"/><polygon points="112.4,228.0 114.7,212.9 129.3,212.0 141.4,231.0 135.2,237.9 132.0,238.9" fill="#9ccf83" stroke="#9ccf83" stroke-width="0.5"/><polygon points="141.4,231.0 129.3,212.0 139.5,199.9 151.6,205.9 154.9,212.4 149.5,229.3" fill="#599253" stroke="#599253" stroke-width="0.5"/><polygon points="149.5,229.3 154.9,212.4 174.5,212.4 179.5,221.4 176.0,229.3 156.4,233.4" fill="#5d9957" stroke="#5d9957" stroke-width="0.5"/><polygon points="174.5,212.4 178.0,194.9 189.2,194.8 203.9,209.5 203.9,209.8 199.6,219.5 179.5,221.4" fill="#558c50" stroke="#558c50" stroke-width="0.5"/><polygon points="199.6,219.5 203.9,209.8 228.9,211.7 227.1,227.4 222.2,231.6 203.1,226.8" fill="#708154" stroke="#708154" stroke-width="0.5"/><polygon points="227.1,227.4 229.0,210.3 243.8,211.6 249.9,230.0 244.3,235.1" fill="#708154" stroke="#708154" stroke-width="0.5"/><polygon points="249.9,230.0 243.8,211.6 256.0,203.3 264.6,229.2" fill="#345631" stroke="#345631" stroke-width="0.5"/><polygon points="265.0,230.3 255.8,202.5 271.5,202.5 278.6,208.9 276.7,224.3" fill="#628252" stroke="#628252" stroke-width="0.5"/><polygon points="276.7,224.3 278.6,208.9 293.4,204.3 299.3,207.4 305.2,219.3 301.2,226.2 291.7,231.4" fill="#497744" stroke="#497744" stroke-width="0.5"/><polygon points="312.6,218.8 327.1,199.6 337.3,211.5 328.8,228.4" fill="#546f46" stroke="#546f46" stroke-width="0.5"/><polygon points="327.5,231.2 337.3,211.5 345.1,211.5 355.6,222.4 349.2,234.0" fill="#8fbd77" stroke="#8fbd77" stroke-width="0.5"/><polygon points="345.1,211.5 355.8,193.4 361.7,194.3 367.3,219.5 355.6,222.4" fill="#8e867c" stroke="#8e867c" stroke-width="0.5"/><polygon points="372.6,221.3 385.3,204.7 400.6,206.9 401.7,230.8 377.4,228.6" fill="#a1988d" stroke="#a1988d" stroke-width="0.5"/><polygon points="401.6,228.2 400.6,205.1 421.4,202.1 421.8,202.3 427.5,210.5 427.5,220.5 424.9,228.2" fill="#5c5751" stroke="#5c5751" stroke-width="0.5"/><polygon points="427.5,220.5 427.5,210.5 445.5,206.5 455.8,214.5 455.1,220.5" fill="#6a6642" stroke="#6a6642" stroke-width="0.5"/><polygon points="445.2,234.6 426.0,225.0 427.5,220.5 456.8,220.5 452.8,231.6" fill="#79754c" stroke="#79754c" stroke-width="0.5"/><polygon points="454.7,223.5 455.8,214.5 463.8,207.9 482.8,208.6 482.0,230.3" fill="#668755" stroke="#668755" stroke-width="0.5"/><polygon points="482.0,230.5 482.7,210.4 509.0,209.0 504.7,230.5" fill="#726d47" stroke="#726d47" stroke-width="0.5"/><polygon points="525.2,237.7 508.4,235.8 504.7,230.5 508.3,212.6 530.5,217.7" fill="#817d51" stroke="#817d51" stroke-width="0.5"/><polygon points="534.7,215.0 536.3,209.9 551.5,201.5 564.4,210.6 551.5,228.0" fill="#a79e92" stroke="#a79e92" stroke-width="0.5"/><polygon points="576.0,210.0 576.0,239.1 551.2,228.5 564.4,210.6" fill="#a39a8e" stroke="#a39a8e" stroke-width="0.5"/><polygon points="0.0,253.7 0.0,228.6 20.3,229.5 19.3,251.6" fill="#1f4e6b" stroke="#1f4e6b" stroke-width="0.5"/><polygon points="19.3,251.6 20.4,228.4 40.1,231.0 43.2,249.0 40.3,253.8 23.3,255.8" fill="#1f4e6b" stroke="#1f4e6b" stroke-width="0.5"/><polygon points="43.2,249.0 40.1,231.0 45.5,226.7 70.1,237.7 66.2,246.6" fill="#1f4e6b" stroke="#1f4e6b" stroke-width="0.5"/><polygon points="63.6,242.6 71.7,220.2 88.0,221.7 95.9,239.9" fill="#3d7ea6" stroke="#3d7ea6" stroke-width="0.5"/><polygon points="93.6,256.5 89.5,235.8 105.4,233.9 115.9,256.5" fill="#fde8b5" stroke="#fde8b5" stroke-width="0.5"/><polygon points="115.4,255.3 105.4,233.9 112.4,228.0 132.0,238.9 121.8,253.4" fill="#65a65f" stroke="#65a65f" stroke-width="0.5"/><polygon points="135.2,237.9 141.4,231.0 149.5,229.3 156.4,233.4 160.8,254.1 154.8,263.7 149.9,263.2" fill="#61a05b" stroke="#61a05b" stroke-width="0.5"/><polygon points="160.8,254.1 156.4,233.4 176.0,229.3 183.2,247.7" fill="#5e9b58" stroke="#5e9b58" stroke-width="0.5"/><polygon points="182.5,246.0 176.0,229.3 179.5,221.4 199.6,219.5 203.1,226.8 198.7,243.7" fill="#94ac6f" stroke="#94ac6f" stroke-width="0.5"/><polygon points="197.2,249.3 203.1,226.8 222.2,231.6 221.3,251.3" fill="#345631" stroke="#345631" stroke-width="0.5"/><polygon points="221.3,251.4 222.2,231.6 227.1,227.4 244.3,235.1 243.3,248.3" fill="#708154" stroke="#708154" stroke-width="0.5"/><polygon points="243.3,248.3 244.3,235.1 249.9,230.0 266.1,229.1 267.9,245.4 248.6,254.0" fill="#345631" stroke="#345631" stroke-width="0.5"/><polygon points="267.9,245.4 266.1,229.8 276.7,224.3 291.7,231.4 289.8,247.3 285.8,249.8 273.0,249.8" fill="#80a96b" stroke="#80a96b" stroke-width="0.5"/><polygon points="289.8,247.3 291.7,231.4 301.2,226.2 313.9,243.9 304.5,254.6" fill="#94c47b" stroke="#94c47b" stroke-width="0.5"/><polygon points="313.9,243.9 301.2,226.2 305.2,219.3 312.6,218.8 330.8,229.6 325.1,242.5" fill="#6f925c" stroke="#6f925c" stroke-width="0.5"/><polygon points="332.7,256.1 325.1,242.5 329.9,231.5 349.2,234.0 352.8,243.2 337.4,256.4" fill="#c8c17d" stroke="#c8c17d" stroke-width="0.5"/><polygon points="352.8,243.2 349.2,234.0 355.6,222.4 367.3,219.5 372.6,221.3 377.4,228.6 370.5,248.9 364.0,249.0" fill="#a0978b" stroke="#a0978b" stroke-width="0.5"/><polygon points="370.5,248.9 377.4,228.6 399.4,230.6 400.0,242.4 388.1,254.2 373.7,252.2" fill="#90877d" stroke="#90877d" stroke-width="0.5"/><polygon points="400.0,242.4 399.3,228.2 422.8,228.2 426.0,247.9 414.3,254.4" fill="#7c756c" stroke="#7c756c" stroke-width="0.5"/><polygon points="426.0,247.9 421.9,223.0 445.2,234.6 435.8,251.4" fill="#6a6642" stroke="#6a6642" stroke-width="0.5"/><polygon points="442.6,260.2 435.8,251.4 445.2,234.6 452.8,231.6 463.1,248.9" fill="#817c51" stroke="#817c51" stroke-width="0.5"/><polygon points="463.4,249.4 452.8,231.6 455.7,223.7 482.1,230.3 480.3,238.8" fill="#6e925c" stroke="#6e925c" stroke-width="0.5"/><polygon points="480.3,238.8 482.1,230.5 504.7,230.5 508.4,235.8 501.3,253.3 494.0,256.2" fill="#5b784c" stroke="#5b784c" stroke-width="0.5"/><polygon points="517.2,261.2 501.3,253.3 508.4,235.8 529.1,238.2 526.9,253.5" fill="#6a6642" stroke="#6a6642" stroke-width="0.5"/><polygon points="524.0,242.5 530.5,217.7 534.7,215.0 551.9,228.3 545.4,240.7" fill="#6e6860" stroke="#6e6860" stroke-width="0.5"/><polygon points="576.0,239.1 576.0,245.5 552.7,252.3 545.4,240.7 551.7,228.7" fill="#5c5751" stroke="#5c5751" stroke-width="0.5"/><polygon points="0.0,274.5 0.0,253.7 19.3,251.6 23.3,255.8 21.1,274.5" fill="#1f4e6b" stroke="#1f4e6b" stroke-width="0.5"/><polygon points="20.9,276.4 23.3,255.8 40.3,253.8 49.1,271.5 48.2,273.6" fill="#1f4e6b" stroke="#1f4e6b" stroke-width="0.5"/><polygon points="49.1,271.5 40.3,253.8 43.2,249.0 66.2,246.6 69.0,263.5" fill="#1f4e6b" stroke="#1f4e6b" stroke-width="0.5"/><polygon points="69.0,263.5 66.2,246.6 68.1,242.2 90.4,240.3 93.6,256.5 90.4,261.8 72.0,265.5" fill="#3d7ea6" stroke="#3d7ea6" stroke-width="0.5"/><polygon points="90.4,261.8 93.6,256.5 114.3,256.5 113.5,274.5 96.8,274.5" fill="#fffdc5" stroke="#fffdc5" stroke-width="0.5"/><polygon points="113.5,273.5 114.3,255.6 121.8,253.4 138.4,267.6 132.6,276.5" fill="#65a55e" stroke="#65a55e" stroke-width="0.5"/><polygon points="121.8,253.4 132.0,238.9 135.2,237.9 149.9,263.2 138.4,267.6" fill="#65a65f" stroke="#65a65f" stroke-width="0.5"/><polygon points="154.2,264.7 160.8,254.1 181.2,248.3 185.5,267.2 176.5,273.7" fill="#548a4e" stroke="#548a4e" stroke-width="0.5"/><polygon points="185.5,267.2 180.7,246.3 207.6,242.4 197.6,270.3" fill="#345631" stroke="#345631" stroke-width="0.5"/><polygon points="197.6,270.3 204.9,249.9 221.4,251.3 222.8,265.6 212.0,275.5 201.0,274.4" fill="#345631" stroke="#345631" stroke-width="0.5"/><polygon points="222.8,265.6 221.4,251.4 243.3,248.3 248.6,254.0 249.6,265.8 244.8,273.3 239.5,274.4" fill="#6a8c58" stroke="#6a8c58" stroke-width="0.5"/><polygon points="249.6,265.8 248.6,254.0 267.9,245.4 273.0,249.8 269.0,267.6" fill="#85b06f" stroke="#85b06f" stroke-width="0.5"/><polygon points="269.0,267.6 273.0,249.8 285.8,249.8 285.8,274.0 275.4,275.0" fill="#5d9a57" stroke="#5d9a57" stroke-width="0.5"/><polygon points="285.7,274.0 285.7,249.8 289.8,247.3 304.5,254.6 306.9,265.1 292.0,276.5" fill="#5e9b59" stroke="#5e9b59" stroke-width="0.5"/><polygon points="306.9,265.1 304.5,254.6 313.9,243.9 325.1,242.5 332.7,256.1 323.9,267.5 317.7,269.8" fill="#bab374" stroke="#bab374" stroke-width="0.5"/><polygon points="337.4,256.4 352.8,243.2 364.0,249.0 350.9,269.9" fill="#ffffff" stroke="#ffffff" stroke-width="0.5"/><polygon points="350.9,269.9 364.0,249.0 370.5,248.9 373.7,252.2 372.3,271.0 354.0,278.7 352.8,278.0" fill="#d8dbdf" stroke="#d8dbdf" stroke-width="0.5"/><polygon points="372.3,271.1 373.7,252.2 388.1,254.2 394.5,266.9 382.2,277.8" fill="#e9edf1" stroke="#e9edf1" stroke-width="0.5"/><polygon points="394.5,266.9 388.1,254.2 400.0,242.4 414.3,254.4 410.7,271.3" fill="#ebeff3" stroke="#ebeff3" stroke-width="0.5"/><polygon points="411.4,267.9 414.3,254.4 426.0,247.9 435.8,251.4 442.6,260.2 442.3,266.9 419.7,274.3" fill="#5c5751" stroke="#5c5751" stroke-width="0.5"/><polygon points="445.4,271.9 442.3,266.9 442.6,260.2 463.6,248.6 472.6,266.0 469.4,274.2" fill="#5c5751" stroke="#5c5751" stroke-width="0.5"/><polygon points="472.6,266.0 463.9,249.1 480.3,238.8 494.0,256.2 491.8,260.6" fill="#6a6642" stroke="#6a6642" stroke-width="0.5"/><polygon points="491.8,260.6 494.0,256.2 501.3,253.3 517.2,261.2 517.5,271.5 507.8,281.3 496.5,275.6" fill="#546f46" stroke="#546f46" stroke-width="0.5"/><polygon points="535.8,279.2 517.5,271.5 517.2,261.2 526.9,253.5 544.2,266.4 541.5,274.4" fill="#6a6642" stroke="#6a6642" stroke-width="0.5"/><polygon points="544.2,266.4 526.9,253.5 528.6,242.1 545.4,240.7 552.7,252.3 549.5,262.7" fill="#706b46" stroke="#706b46" stroke-width="0.5"/><polygon points="576.0,245.5 576.0,274.5 549.5,262.7 552.7,252.3" fill="#6a6642" stroke="#6a6642" stroke-width="0.5"/><polygon points="0.0,292.3 0.0,274.5 22.4,274.5 24.1,296.7" fill="#1f4e6b" stroke="#1f4e6b" stroke-width="0.5"/><polygon points="23.7,292.5 22.5,276.3 48.2,273.6 51.4,292.5" fill="#1f4e6b" stroke="#1f4e6b" stroke-width="0.5"/><polygon points="51.2,291.2 48.2,273.6 49.1,271.5 69.0,263.5 72.0,265.5 76.2,286.6 72.8,291.2" fill="#1f4e6b" stroke="#1f4e6b" stroke-width="0.5"/><polygon points="76.2,286.6 72.0,265.5 90.4,261.8 96.8,274.5 91.3,285.3" fill="#3d7ea6" stroke="#3d7ea6" stroke-width="0.5"/><polygon points="91.3,285.3 96.8,274.5 112.5,274.5 112.5,290.8 103.1,299.3" fill="#62a15c" stroke="#62a15c" stroke-width="0.5"/><polygon points="112.5,290.8 112.5,273.3 132.6,276.5 135.1,294.4" fill="#589052" stroke="#589052" stroke-width="0.5"/><polygon points="134.3,288.7 132.6,276.5 138.4,267.6 149.9,263.2 155.9,263.9 155.1,289.6 150.8,293.0" fill="#589253" stroke="#589253" stroke-width="0.5"/><polygon points="155.1,289.6 155.9,265.4 176.5,273.7 176.7,293.4" fill="#355832" stroke="#355832" stroke-width="0.5"/><polygon points="176.7,294.0 176.5,273.7 185.5,267.2 197.6,270.3 201.0,274.4 194.2,292.1" fill="#345631" stroke="#345631" stroke-width="0.5"/><polygon points="194.2,292.1 201.0,274.4 212.0,275.5 220.5,292.5 203.2,301.1" fill="#345631" stroke="#345631" stroke-width="0.5"/><polygon points="220.5,292.5 212.0,275.5 222.8,265.6 239.5,274.4 226.7,294.6" fill="#345631" stroke="#345631" stroke-width="0.5"/><polygon points="244.8,273.3 249.6,265.8 269.0,267.6 275.4,275.0 268.0,288.1 257.3,291.9" fill="#548b4f" stroke="#548b4f" stroke-width="0.5"/><polygon points="268.0,288.1 275.4,275.0 285.8,274.0 292.0,276.5 297.0,292.6 285.6,303.1" fill="#4d7e48" stroke="#4d7e48" stroke-width="0.5"/><polygon points="297.0,292.6 292.0,276.5 306.9,265.1 317.7,269.8 317.0,292.5 311.0,295.9" fill="#3d6439" stroke="#3d6439" stroke-width="0.5"/><polygon points="317.0,292.5 317.7,269.8 323.9,267.5 339.7,282.0 330.3,294.9" fill="#6a6642" stroke="#6a6642" stroke-width="0.5"/><polygon points="323.9,267.5 332.7,256.1 337.4,256.4 350.9,269.9 352.8,278.0 339.7,282.0" fill="#999360" stroke="#999360" stroke-width="0.5"/><polygon points="354.0,278.7 372.3,271.1 382.2,277.8 384.1,290.6 376.0,294.6 357.0,286.2" fill="#6a6642" stroke="#6a6642" stroke-width="0.5"/><polygon points="384.1,290.6 382.2,277.8 394.5,266.9 405.4,269.9 399.2,290.5 391.8,294.0" fill="#9ea1a4" stroke="#9ea1a4" stroke-width="0.5"/><polygon points="407.0,264.5 419.7,274.3 422.7,296.4 399.2,290.5" fill="#9ea1a4" stroke="#9ea1a4" stroke-width="0.5"/><polygon points="422.0,291.4 419.7,274.3 442.3,266.9 445.4,271.9 444.1,287.7" fill="#6a6642" stroke="#6a6642" stroke-width="0.5"/><polygon points="443.7,292.9 445.4,271.9 469.4,274.2 472.1,282.3 461.5,295.0" fill="#708154" stroke="#708154" stroke-width="0.5"/><polygon points="472.1,282.3 469.4,274.2 472.6,266.0 491.8,260.6 496.5,275.6 482.1,286.4" fill="#345631" stroke="#345631" stroke-width="0.5"/><polygon points="482.1,286.4 496.5,275.6 507.8,281.3 509.7,292.8 488.3,300.8" fill="#546f46" stroke="#546f46" stroke-width="0.5"/><polygon points="509.5,291.8 507.8,281.2 517.5,271.5 535.8,279.2 533.9,289.6 529.7,293.8" fill="#546f46" stroke="#546f46" stroke-width="0.5"/><polygon points="551.6,299.0 533.9,289.6 535.8,279.2 541.5,274.4 559.4,287.2" fill="#708154" stroke="#708154" stroke-width="0.5"/><polygon points="576.0,274.5 576.0,282.1 559.4,287.2 541.5,274.4 544.2,266.4 549.5,262.7" fill="#6a6642" stroke="#6a6642" stroke-width="0.5"/><polygon points="0.0,313.6 0.0,292.3 21.4,296.2 21.8,308.4 16.2,314.2" fill="#1f4e6b" stroke="#1f4e6b" stroke-width="0.5"/><polygon points="21.8,308.4 21.3,292.5 50.2,292.5 49.0,309.0 39.3,314.8" fill="#1f4e6b" stroke="#1f4e6b" stroke-width="0.5"/><polygon points="49.0,309.0 50.3,291.2 72.8,291.2 77.7,309.8 61.7,317.3" fill="#1f4e6b" stroke="#1f4e6b" stroke-width="0.5"/><polygon points="77.7,309.8 72.8,291.2 76.2,286.6 91.3,285.3 101.8,297.7 86.4,314.2" fill="#3d7ea6" stroke="#3d7ea6" stroke-width="0.5"/><polygon points="88.1,318.2 86.4,314.2 103.4,296.0 118.1,315.6 115.4,321.5" fill="#4a7945" stroke="#4a7945" stroke-width="0.5"/><polygon points="118.1,315.6 104.8,297.8 112.5,290.8 129.5,293.5 128.7,310.3" fill="#53894e" stroke="#53894e" stroke-width="0.5"/><polygon points="128.8,310.2 129.7,287.5 150.8,293.0 150.8,307.1 137.5,313.8" fill="#345631" stroke="#345631" stroke-width="0.5"/><polygon points="150.8,307.1 150.8,293.0 155.1,289.6 177.2,293.5 175.2,310.3 157.6,312.2" fill="#345631" stroke="#345631" stroke-width="0.5"/><polygon points="175.2,310.1 177.2,293.9 194.2,292.1 203.2,301.1 202.6,315.1 192.2,319.6" fill="#345631" stroke="#345631" stroke-width="0.5"/><polygon points="202.6,315.1 203.2,301.1 220.5,292.5 226.7,294.6 230.4,300.3 230.4,308.2 214.3,321.8" fill="#546f46" stroke="#546f46" stroke-width="0.5"/><polygon points="230.4,300.3 226.7,294.6 239.5,274.4 244.8,273.3 259.0,294.6" fill="#546f46" stroke="#546f46" stroke-width="0.5"/><polygon points="230.4,308.2 230.4,300.3 255.9,295.2 257.1,302.3 245.3,321.2" fill="#4d7f48" stroke="#4d7f48" stroke-width="0.5"/><polygon points="257.1,302.3 255.4,292.6 268.0,288.1 285.6,303.1 284.2,309.2 274.5,316.1" fill="#385c34" stroke="#385c34" stroke-width="0.5"/><polygon points="284.2,309.2 285.6,303.1 297.0,292.6 311.0,295.9 312.4,323.5 310.7,326.3 306.4,326.9" fill="#345631" stroke="#345631" stroke-width="0.5"/><polygon points="312.4,323.5 311.0,295.9 317.0,292.5 330.3,294.9 340.8,311.1" fill="#345631" stroke="#345631" stroke-width="0.5"/><polygon points="338.9,308.1 330.3,294.9 339.7,282.0 352.8,278.0 354.0,278.7 357.0,286.2 351.8,303.7" fill="#6a6642" stroke="#6a6642" stroke-width="0.5"/><polygon points="351.8,303.7 357.0,286.2 376.0,294.6 369.3,312.4 366.6,313.0" fill="#6a6642" stroke="#6a6642" stroke-width="0.5"/><polygon points="369.3,312.4 376.0,294.6 384.1,290.6 391.8,294.0 395.4,311.9 381.0,319.1" fill="#345631" stroke="#345631" stroke-width="0.5"/><polygon points="395.4,311.9 391.8,294.0 399.2,290.5 419.6,295.6 420.3,303.0 401.5,315.1" fill="#345631" stroke="#345631" stroke-width="0.5"/><polygon points="420.3,303.0 419.2,291.9 450.8,286.6 441.4,310.9 428.7,311.7" fill="#345631" stroke="#345631" stroke-width="0.5"/><polygon points="441.4,310.9 448.1,293.4 461.5,295.0 468.4,310.1 461.2,317.2 447.8,317.2" fill="#345631" stroke="#345631" stroke-width="0.5"/><polygon points="468.4,310.1 461.5,295.0 472.1,282.3 482.1,286.4 488.8,301.7 477.0,310.8" fill="#3a6037" stroke="#3a6037" stroke-width="0.5"/><polygon points="486.7,301.4 508.8,293.1 512.1,309.8 502.2,318.7" fill="#375b34" stroke="#375b34" stroke-width="0.5"/><polygon points="512.1,309.8 508.5,291.8 529.7,293.8 530.7,315.4" fill="#91a86d" stroke="#91a86d" stroke-width="0.5"/><polygon points="530.6,312.2 529.7,293.8 533.9,289.6 551.6,299.0 552.5,307.0 546.3,313.2" fill="#71955e" stroke="#71955e" stroke-width="0.5"/><polygon points="576.0,282.1 576.0,313.1 552.5,307.0 551.6,299.0 559.4,287.2" fill="#708154" stroke="#708154" stroke-width="0.5"/><polygon points="0.0,337.7 0.0,313.6 16.2,314.2 18.6,335.7" fill="#1f4e6b" stroke="#1f4e6b" stroke-width="0.5"/><polygon points="18.9,338.9 16.2,314.2 21.8,308.4 39.3,314.8 38.2,334.4" fill="#1f4e6b" stroke="#1f4e6b" stroke-width="0.5"/><polygon points="38.1,337.0 39.3,314.8 49.0,309.0 61.7,317.3 60.8,336.2" fill="#1f4e6b" stroke="#1f4e6b" stroke-width="0.5"/><polygon points="60.8,334.7 61.7,317.3 77.7,309.8 86.4,314.2 88.1,318.2 86.1,339.3" fill="#3d7ea6" stroke="#3d7ea6" stroke-width="0.5"/><polygon points="86.2,338.7 88.1,318.2 115.4,321.5 116.4,328.8 106.3,339.7" fill="#8f8366" stroke="#8f8366" stroke-width="0.5"/><polygon points="116.4,328.8 115.4,321.5 118.1,315.6 128.8,310.2 137.5,313.7 141.7,330.6 131.7,338.2" fill="#8f8366" stroke="#8f8366" stroke-width="0.5"/><polygon points="141.7,330.6 137.5,313.8 150.8,307.1 157.6,312.2 154.7,332.4" fill="#345631" stroke="#345631" stroke-width="0.5"/><polygon points="154.7,332.4 157.6,312.2 174.9,310.3 167.9,336.8 161.0,338.1" fill="#8f8366" stroke="#8f8366" stroke-width="0.5"/><polygon points="167.9,336.8 175.0,309.9 192.2,319.6 189.6,330.3 173.2,338.5" fill="#8f8366" stroke="#8f8366" stroke-width="0.5"/><polygon points="189.6,330.3 192.2,319.6 202.6,315.1 214.3,321.8 216.6,329.4 211.9,339.6 199.3,343.7" fill="#3d7ea6" stroke="#3d7ea6" stroke-width="0.5"/><polygon points="216.6,329.4 214.3,321.8 230.4,308.2 245.3,321.2 246.5,325.7 237.2,334.9" fill="#395e36" stroke="#395e36" stroke-width="0.5"/><polygon points="246.5,325.7 245.3,321.2 257.1,302.3 274.4,316.1 250.7,327.2" fill="#345631" stroke="#345631" stroke-width="0.5"/><polygon points="250.7,327.2 274.5,316.1 277.3,334.1 263.4,342.3" fill="#345631" stroke="#345631" stroke-width="0.5"/><polygon points="277.3,334.1 274.5,316.1 284.2,309.2 306.4,326.9 291.1,340.6" fill="#345631" stroke="#345631" stroke-width="0.5"/><polygon points="310.2,327.2 312.4,323.5 337.4,312.6 345.8,329.4 337.8,338.2" fill="#7c8177" stroke="#7c8177" stroke-width="0.5"/><polygon points="345.8,329.4 335.7,309.2 351.8,303.7 366.6,313.0 356.3,330.6" fill="#345631" stroke="#345631" stroke-width="0.5"/><polygon points="356.3,330.6 366.6,313.0 369.3,312.4 381.1,319.1 382.2,339.7 363.3,339.5" fill="#345631" stroke="#345631" stroke-width="0.5"/><polygon points="382.2,340.0 381.1,319.1 395.4,311.9 401.5,315.1 406.1,328.0 399.5,338.4" fill="#7c8177" stroke="#7c8177" stroke-width="0.5"/><polygon points="406.1,328.0 401.5,315.1 420.3,303.0 428.7,311.7 423.4,329.0" fill="#7c8177" stroke="#7c8177" stroke-width="0.5"/><polygon points="423.4,329.0 428.7,311.7 441.4,310.9 447.8,317.2 442.8,337.2 428.4,336.3" fill="#7c8177" stroke="#7c8177" stroke-width="0.5"/><polygon points="442.1,339.8 447.8,317.2 461.2,317.2 466.9,339.8" fill="#7c8177" stroke="#7c8177" stroke-width="0.5"/><polygon points="466.2,336.9 461.2,317.2 468.4,310.1 477.0,310.8 485.7,331.4" fill="#999f92" stroke="#999f92" stroke-width="0.5"/><polygon points="485.7,331.4 477.0,310.8 487.8,302.5 502.2,318.7 501.4,323.9 488.8,332.7" fill="#82887d" stroke="#82887d" stroke-width="0.5"/><polygon points="501.4,323.9 502.2,318.7 512.1,309.8 527.8,314.5 525.6,329.2 518.4,334.6" fill="#858b7f" stroke="#858b7f" stroke-width="0.5"/><polygon points="525.6,329.2 528.2,312.0 546.3,313.2 550.5,331.7 545.3,337.4" fill="#969c90" stroke="#969c90" stroke-width="0.5"/><polygon points="576.0,313.1 576.0,330.5 550.5,331.7 546.3,313.2 552.5,307.0" fill="#6a8d59" stroke="#6a8d59" stroke-width="0.5"/><polygon points="0.0,360.6 0.0,337.7 22.0,335.3 21.4,354.9 15.1,362.5" fill="#1f4e6b" stroke="#1f4e6b" stroke-width="0.5"/><polygon points="21.4,354.9 21.9,338.2 42.3,333.5 42.3,360.1" fill="#1f4e6b" stroke="#1f4e6b" stroke-width="0.5"/><polygon points="42.3,360.1 42.3,336.9 58.9,336.3 60.6,362.5 45.8,364.4" fill="#1f4e6b" stroke="#1f4e6b" stroke-width="0.5"/><polygon points="60.6,362.5 58.8,334.3 85.7,339.2 85.3,343.7 64.5,364.5" fill="#1f4e6b" stroke="#1f4e6b" stroke-width="0.5"/><polygon points="95.7,366.2 85.3,343.7 85.8,338.7 106.3,339.7 114.4,359.0 101.1,368.7" fill="#3d7ea6" stroke="#3d7ea6" stroke-width="0.5"/><polygon points="114.4,359.0 106.3,339.7 116.4,328.8 131.7,338.2 132.0,359.4" fill="#3d7ea6" stroke="#3d7ea6" stroke-width="0.5"/><polygon points="132.0,357.8 131.7,338.2 141.7,330.6 154.7,332.4 161.0,338.1 153.5,358.6" fill="#3d7ea6" stroke="#3d7ea6" stroke-width="0.5"/><polygon points="159.2,365.6 153.5,358.6 161.0,338.1 167.9,336.8 173.2,338.5 185.4,358.9 180.7,364.6" fill="#3d7ea6" stroke="#3d7ea6" stroke-width="0.5"/><polygon points="185.4,358.9 173.2,338.5 189.6,330.3 199.3,343.7 192.9,356.9" fill="#3d7ea6" stroke="#3d7ea6" stroke-width="0.5"/><polygon points="192.9,356.9 199.3,343.7 211.9,339.6 223.1,357.2 217.6,365.1 208.9,367.4" fill="#3d7ea6" stroke="#3d7ea6" stroke-width="0.5"/><polygon points="223.1,357.2 211.9,339.6 216.6,329.4 237.2,334.9 237.2,353.1" fill="#3d7ea6" stroke="#3d7ea6" stroke-width="0.5"/><polygon points="237.2,353.1 237.2,334.9 246.5,325.7 250.7,327.2 263.4,342.3 260.5,357.4 246.5,358.8" fill="#b9a984" stroke="#b9a984" stroke-width="0.5"/><polygon points="260.5,357.4 263.4,342.3 277.3,334.1 291.1,340.6 291.5,358.7 264.3,360.6" fill="#6098b8" stroke="#6098b8" stroke-width="0.5"/><polygon points="292.0,359.3 291.5,358.7 291.1,340.6 306.4,326.9 311.6,326.1 319.0,358.2 309.8,363.3" fill="#6098b8" stroke="#6098b8" stroke-width="0.5"/><polygon points="319.0,358.2 312.0,327.9 337.8,338.2 336.8,354.4 329.2,359.2" fill="#6098b8" stroke="#6098b8" stroke-width="0.5"/><polygon points="336.8,354.4 337.8,338.2 345.8,329.4 356.3,330.6 363.3,339.5 355.2,358.9" fill="#6098b8" stroke="#6098b8" stroke-width="0.5"/><polygon points="358.1,363.4 355.2,358.9 363.3,339.5 382.5,339.7 382.5,362.5 374.2,367.9" fill="#6098b8" stroke="#6098b8" stroke-width="0.5"/><polygon points="382.5,362.5 382.5,340.0 399.5,338.4 410.8,355.4 407.4,364.3 401.8,368.4" fill="#6098b8" stroke="#6098b8" stroke-width="0.5"/><polygon points="410.8,355.4 399.5,338.4 406.1,328.0 423.4,329.0 428.4,336.3 421.6,350.5" fill="#a4ab9d" stroke="#a4ab9d" stroke-width="0.5"/><polygon points="421.6,350.5 428.4,336.3 445.7,337.3 443.8,363.1 440.7,364.4" fill="#a3aa9c" stroke="#a3aa9c" stroke-width="0.5"/><polygon points="443.8,363.1 445.6,339.8 464.2,339.8 469.3,358.6 459.3,367.3" fill="#99a093" stroke="#99a093" stroke-width="0.5"/><polygon points="469.3,358.6 463.6,337.6 485.7,331.4 488.8,332.7 492.6,346.4 481.7,360.0" fill="#7c8177" stroke="#7c8177" stroke-width="0.5"/><polygon points="492.6,346.4 488.8,332.7 501.4,323.9 518.4,334.6 517.0,342.7 507.7,350.7" fill="#7c8177" stroke="#7c8177" stroke-width="0.5"/><polygon points="525.2,371.4 510.2,366.4 507.7,350.7 517.0,342.7 536.0,357.0" fill="#8c9286" stroke="#8c9286" stroke-width="0.5"/><polygon points="536.0,357.0 517.0,342.7 518.4,334.6 525.6,329.2 545.3,337.4 544.6,354.1" fill="#878d81" stroke="#878d81" stroke-width="0.5"/><polygon points="576.0,330.5 576.0,358.1 553.1,359.5 544.6,354.1 545.3,337.4 550.5,331.7" fill="#628151" stroke="#628151" stroke-width="0.5"/><polygon points="7.8,396.0 0.0,396.0 0.0,360.6 15.1,362.5 18.5,372.2" fill="#1f4e6b" stroke="#1f4e6b" stroke-width="0.5"/><polygon points="18.5,372.2 15.1,362.5 21.4,354.9 42.3,360.1 45.8,364.4 39.1,377.9" fill="#1f4e6b" stroke="#1f4e6b" stroke-width="0.5"/><polygon points="69.7,396.0 42.5,396.0 39.1,377.9 45.8,364.4 60.6,362.5 64.5,364.5 70.9,374.1" fill="#1f4e6b" stroke="#1f4e6b" stroke-width="0.5"/><polygon points="70.9,374.1 64.5,364.5 85.3,343.7 95.7,366.2" fill="#1f4e6b" stroke="#1f4e6b" stroke-width="0.5"/><polygon points="105.7,396.0 69.7,396.0 70.9,374.1 95.7,366.2 101.1,368.7" fill="#1f4e6b" stroke="#1f4e6b" stroke-width="0.5"/><polygon points="131.9,396.0 105.7,396.0 101.1,368.7 114.4,359.0 130.2,359.4" fill="#1f4e6b" stroke="#1f4e6b" stroke-width="0.5"/><polygon points="154.1,396.0 131.9,396.0 130.1,357.8 153.5,358.6 159.2,365.6" fill="#1f4e6b" stroke="#1f4e6b" stroke-width="0.5"/><polygon points="187.3,396.0 154.1,396.0 159.2,365.6 180.7,364.6" fill="#1f4e6b" stroke="#1f4e6b" stroke-width="0.5"/><polygon points="198.6,396.0 187.3,396.0 180.7,364.6 185.4,358.9 192.9,356.9 208.9,367.4" fill="#1f4e6b" stroke="#1f4e6b" stroke-width="0.5"/><polygon points="239.0,396.0 198.6,396.0 208.9,367.4 217.6,365.1" fill="#3d7ea6" stroke="#3d7ea6" stroke-width="0.5"/><polygon points="236.8,392.8 217.6,365.1 223.1,357.2 237.2,353.1 246.5,358.8" fill="#ffefba" stroke="#ffefba" stroke-width="0.5"/><polygon points="267.7,396.0 235.9,396.0 246.5,358.8 260.5,357.4 264.3,360.6" fill="#879b5d" stroke="#879b5d" stroke-width="0.5"/><polygon points="284.0,396.0 267.7,396.0 264.3,360.6 291.5,358.7 292.0,359.3" fill="#889d5e" stroke="#889d5e" stroke-width="0.5"/><polygon points="312.1,396.0 284.0,396.0 292.0,359.3 309.8,363.3" fill="#e5eedb" stroke="#e5eedb" stroke-width="0.5"/><polygon points="338.5,396.0 312.1,396.0 309.8,363.3 319.0,358.2 329.2,359.2" fill="#e1ead7" stroke="#e1ead7" stroke-width="0.5"/><polygon points="342.7,396.0 338.5,396.0 329.2,359.2 336.8,354.4 355.2,358.9 358.1,363.4" fill="#c2cab9" stroke="#c2cab9" stroke-width="0.5"/><polygon points="375.7,396.0 342.7,396.0 358.1,363.4 374.2,367.9" fill="#b5bdad" stroke="#b5bdad" stroke-width="0.5"/><polygon points="399.8,396.0 375.7,396.0 374.2,367.9 382.5,362.5 401.8,368.4" fill="#cfd7c6" stroke="#cfd7c6" stroke-width="0.5"/><polygon points="431.5,396.0 399.8,396.0 401.8,368.4 407.4,364.3 431.0,378.4" fill="#c6cebd" stroke="#c6cebd" stroke-width="0.5"/><polygon points="431.0,378.4 407.4,364.3 410.8,355.4 421.6,350.5 440.7,364.4" fill="#6098b8" stroke="#6098b8" stroke-width="0.5"/><polygon points="464.2,396.0 431.5,396.0 431.0,378.4 440.7,364.4 443.8,363.1 459.3,367.3" fill="#b3bbac" stroke="#b3bbac" stroke-width="0.5"/><polygon points="490.4,396.0 464.2,396.0 459.3,367.3 469.3,358.6 481.7,360.0 493.3,378.5" fill="#6098b8" stroke="#6098b8" stroke-width="0.5"/><polygon points="493.3,378.5 481.7,360.0 492.6,346.4 507.7,350.7 510.2,366.4" fill="#868c81" stroke="#868c81" stroke-width="0.5"/><polygon points="532.4,396.0 490.4,396.0 493.3,378.5 510.2,366.4 525.2,371.4" fill="#6f935d" stroke="#6f935d" stroke-width="0.5"/><polygon points="547.6,396.0 532.4,396.0 525.2,371.4 536.0,357.0 544.6,354.1 553.1,359.5" fill="#668755" stroke="#668755" stroke-width="0.5"/><polygon points="576.0,358.1 576.0,396.0 547.6,396.0 553.1,359.5" fill="#a2a99b" stroke="#a2a99b" stroke-width="0.5"/><polygon points="42.5,396.0 7.8,396.0 18.5,372.2 39.1,377.9" fill="#1f4e6b" stroke="#1f4e6b" stroke-width="0.5"/></g><path d="M194.9,53.6 L193.8,39.9 M193.8,39.9 L223.8,36.5 M223.8,36.5 L219.1,52.4 M258.3,62.4 L258.9,44.4 M258.9,44.4 L268.0,39.1 M268.0,39.1 L281.8,42.1 M281.9,41.3 L304.2,50.0 M310.4,48.1 L333.9,43.4 M331.6,35.7 L359.7,42.0 M359.7,42.0 L364.1,38.8 M364.1,38.8 L380.1,48.4 M380.1,48.4 L383.6,59.8 M395.5,60.6 L404.9,46.9 M404.9,46.9 L417.5,45.9 M417.5,45.9 L425.2,56.7 M112.4,83.7 L110.5,75.8 M110.5,75.8 L114.6,68.2 M114.6,68.2 L123.4,66.6 M123.4,66.6 L140.4,77.6 M166.5,76.3 L166.5,60.2 M166.5,60.2 L171.5,55.7 M171.5,55.7 L184.5,60.0 M184.5,60.0 L194.9,53.6 M219.1,52.4 L229.3,66.9 M229.3,66.9 L241.6,63.6 M241.6,63.6 L247.5,66.0 M247.5,66.0 L258.3,62.4 M304.2,50.0 L310.5,48.1 M383.6,59.8 L395.5,60.6 M425.2,56.7 L435.7,57.6 M435.7,57.6 L444.9,69.5 M444.9,69.5 L465.2,62.1 M465.4,62.7 L488.8,59.3 M488.8,59.3 L492.4,66.9 M492.4,66.9 L506.4,72.5 M506.4,72.5 L510.3,85.9 M104.2,99.4 L112.4,83.7 M140.4,77.6 L145.2,75.6 M145.2,75.6 L157.9,80.7 M157.9,80.7 L166.5,76.3 M510.1,86.0 L515.5,103.3 M91.8,117.9 L89.8,112.0 M89.8,112.0 L95.2,101.1 M95.2,101.1 L104.2,99.4 M515.5,103.3 L528.5,104.8 M528.5,104.8 L535.1,121.9 M86.0,137.9 L82.5,132.3 M82.5,132.3 L91.8,117.9 M535.1,121.9 L547.0,122.6 M547.0,122.6 L553.5,130.6 M553.5,130.6 L576.0,129.6 M77.4,157.7 L86.0,137.9 M68.7,180.2 L67.2,175.0 M67.2,175.0 L77.1,157.6 M91.6,183.6 L68.7,180.2 M90.7,200.9 L93.5,186.3 M95.1,207.5 L90.7,200.9 M88.0,221.7 L95.1,207.5 M93.9,235.3 L88.0,221.7 M93.6,256.5 L89.5,235.8 M90.4,261.8 L93.6,256.5 M96.8,274.5 L90.4,261.8 M91.3,285.3 L96.8,274.5 M103.1,299.3 L91.3,285.3 M88.1,318.2 L86.4,314.2 M86.4,314.2 L103.4,296.0 M202.6,315.1 L192.2,319.6 M214.3,321.8 L202.6,315.1 M86.2,338.7 L88.1,318.2 M116.4,328.8 L106.3,339.7 M106.3,339.7 L86.2,338.7 M141.7,330.6 L131.7,338.2 M131.7,338.2 L116.4,328.8 M154.7,332.4 L141.7,330.6 M167.9,336.8 L161.0,338.1 M161.0,338.1 L154.7,332.4 M192.2,319.6 L189.6,330.3 M189.6,330.3 L173.2,338.5 M173.2,338.5 L167.9,336.8 M216.6,329.4 L214.3,321.8 M237.2,334.9 L216.6,329.4 M237.2,353.1 L237.2,334.9 M236.8,392.8 L217.6,365.1 M217.6,365.1 L223.1,357.2 M223.1,357.2 L237.2,353.1" fill="none" stroke="#283640" stroke-width="2.0" stroke-linecap="round"/><g opacity="0.9"><path d="M241.5,289.5 L216.0,306.0" fill="none" stroke="#4a82af" stroke-width="2.9" stroke-linecap="round" stroke-linejoin="round"/><path d="M235.1,259.9 L241.5,289.5" fill="none" stroke="#4a82af" stroke-width="2.8" stroke-linecap="round" stroke-linejoin="round"/><path d="M541.0,372.0 L512.2,380.5" fill="none" stroke="#4a82af" stroke-width="2.7" stroke-linecap="round" stroke-linejoin="round"/><path d="M559.1,343.1 L541.0,372.0" fill="none" stroke="#4a82af" stroke-width="2.6" stroke-linecap="round" stroke-linejoin="round"/><path d="M558.0,319.5 L559.1,343.1" fill="none" stroke="#4a82af" stroke-width="2.6" stroke-linecap="round" stroke-linejoin="round"/><path d="M262.8,257.4 L235.1,259.9" fill="none" stroke="#4a82af" stroke-width="2.6" stroke-linecap="round" stroke-linejoin="round"/><path d="M279.0,238.5 L262.8,257.4" fill="none" stroke="#4a82af" stroke-width="2.5" stroke-linecap="round" stroke-linejoin="round"/><path d="M540.0,301.5 L558.0,319.5" fill="none" stroke="#4a82af" stroke-width="2.3" stroke-linecap="round" stroke-linejoin="round"/><path d="M522.0,283.5 L540.0,301.5" fill="none" stroke="#4a82af" stroke-width="2.2" stroke-linecap="round" stroke-linejoin="round"/><path d="M505.5,267.0 L522.0,283.5" fill="none" stroke="#4a82af" stroke-width="1.8" stroke-linecap="round" stroke-linejoin="round"/><path d="M302.4,241.2 L279.0,238.5" fill="none" stroke="#4a82af" stroke-width="1.7" stroke-linecap="round" stroke-linejoin="round"/><path d="M495.0,240.4 L505.5,267.0" fill="none" stroke="#4a82af" stroke-width="1.7" stroke-linecap="round" stroke-linejoin="round"/><path d="M315.0,232.2 L302.4,241.2" fill="none" stroke="#4a82af" stroke-width="1.6" stroke-linecap="round" stroke-linejoin="round"/><path d="M466.2,234.0 L495.0,240.4" fill="none" stroke="#4a82af" stroke-width="1.5" stroke-linecap="round" stroke-linejoin="round"/><path d="M266.4,214.2 L279.0,238.5" fill="none" stroke="#4a82af" stroke-width="1.5" stroke-linecap="round" stroke-linejoin="round"/><path d="M506.6,136.3 L522.0,117.0" fill="none" stroke="#4a82af" stroke-width="1.4" stroke-linecap="round" stroke-linejoin="round"/><path d="M325.5,214.5 L315.0,232.2" fill="none" stroke="#4a82af" stroke-width="1.4" stroke-linecap="round" stroke-linejoin="round"/><path d="M199.8,84.6 L216.0,65.6" fill="none" stroke="#4a82af" stroke-width="1.3" stroke-linecap="round" stroke-linejoin="round"/><path d="M282.6,196.2 L266.4,214.2" fill="none" stroke="#4a82af" stroke-width="1.3" stroke-linecap="round" stroke-linejoin="round"/><path d="M469.8,219.6 L466.2,234.0" fill="none" stroke="#4a82af" stroke-width="1.3" stroke-linecap="round" stroke-linejoin="round"/><path d="M280.8,174.6 L282.6,196.2" fill="none" stroke="#4a82af" stroke-width="1.2" stroke-linecap="round" stroke-linejoin="round"/><path d="M126.0,225.0 L100.3,221.1" fill="none" stroke="#4a82af" stroke-width="1.2" stroke-linecap="round" stroke-linejoin="round"/><path d="M342.0,222.8 L325.5,214.5" fill="none" stroke="#4a82af" stroke-width="1.2" stroke-linecap="round" stroke-linejoin="round"/><path d="M495.0,288.0 L522.0,283.5" fill="none" stroke="#4a82af" stroke-width="1.2" stroke-linecap="round" stroke-linejoin="round"/></g></svg>