<svg xmlns="http://www.w3.org/2000/svg" width="576" height="396" viewBox="0 0 576 396"><rect width="576" height="396" fill="#183e56"/><g stroke-linejoin="round"><polygon points="0.0,0.0 23.5,0.0 22.4,15.8 0.0,15.8" fill="#1f4e6b" stroke="#1f4e6b" stroke-width="0.5"/><polygon points="23.5,0.0 47.4,0.0 49.0,18.1 48.2,19.1 22.5,14.3" fill="#1f4e6b" stroke="#1f4e6b" stroke-width="0.5"/><polygon points="47.4,0.0 70.2,0.0 67.9,14.3 49.0,18.1" fill="#1f4e6b" stroke="#1f4e6b" stroke-width="0.5"/><polygon points="70.2,0.0 93.6,0.0 94.3,14.8 75.2,20.8 67.9,14.3" fill="#1f4e6b" stroke="#1f4e6b" stroke-width="0.5"/><polygon points="93.6,0.0 119.0,0.0 118.5,15.2 111.6,19.1 94.3,15.0" fill="#3d7ea6" stroke="#3d7ea6" stroke-width="0.5"/><polygon points="119.0,0.0 140.5,0.0 132.6,21.1 118.5,15.2" fill="#ecf6e2" stroke="#ecf6e2" stroke-width="0.5"/><polygon points="140.5,0.0 149.7,0.0 157.3,22.1 132.2,22.1" fill="#f1fbe6" stroke="#f1fbe6" stroke-width="0.5"/><polygon points="149.7,0.0 173.9,0.0 170.2,19.2 157.2,21.8" fill="#7c8177" stroke="#7c8177" stroke-width="0.5"/><polygon points="173.9,0.0 194.2,0.0 194.3,21.0 176.4,23.1 170.2,19.2" fill="#3d7ea6" stroke="#3d7ea6" stroke-width="0.5"/><polygon points="194.2,0.0 216.5,0.0 219.7,22.5 194.3,22.5" fill="#1f4e6b" stroke="#1f4e6b" stroke-width="0.5"/><polygon points="216.5,0.0 242.5,0.0 239.8,19.1 219.2,19.1" fill="#3d7ea6" stroke="#3d7ea6" stroke-width="0.5"/><polygon points="242.5,0.0 264.5,0.0 267.5,13.9 261.0,22.2 239.5,21.1" fill="#e3edd9" stroke="#e3edd9" stroke-width="0.5"/><polygon points="264.5,0.0 291.6,0.0 288.6,14.9 284.2,17.2 267.5,13.9" fill="#81867b" stroke="#81867b" stroke-width="0.5"/><polygon points="291.6,0.0 311.1,0.0 308.9,20.9 304.9,23.1 288.6,14.9" fill="#7c8177" stroke="#7c8177" stroke-width="0.5"/><polygon points="311.1,0.0 326.6,0.0 331.4,14.5 326.8,23.7 308.9,20.9" fill="#3d7ea6" stroke="#3d7ea6" stroke-width="0.5"/><polygon points="326.6,0.0 356.1,0.0 351.7,11.7 331.4,14.5" fill="#1f4e6b" stroke="#1f4e6b" stroke-width="0.5"/><polygon points="356.1,0.0 372.8,0.0 379.5,18.5 373.8,26.5 356.9,26.5 351.7,11.7" fill="#1f4e6b" stroke="#1f4e6b" stroke-width="0.5"/><polygon points="372.8,0.0 402.3,0.0 399.6,17.3 379.5,18.5" fill="#3d7ea6" stroke="#3d7ea6" stroke-width="0.5"/><polygon points="402.3,0.0 422.4,0.0 425.2,26.1 401.2,19.7 399.6,17.3" fill="#e5efdc" stroke="#e5efdc" stroke-width="0.5"/><polygon points="422.4,0.0 440.5,0.0 438.9,19.3 425.0,24.8" fill="#7c8177" stroke="#7c8177" stroke-width="0.5"/><polygon points="440.5,0.0 456.1,0.0 459.5,17.8 452.3,23.3 438.9,19.3" fill="#868b80" stroke="#868b80" stroke-width="0.5"/><polygon points="456.1,0.0 481.1,0.0 482.0,12.0 470.1,19.7 459.5,17.8" fill="#3d7ea6" stroke="#3d7ea6" stroke-width="0.5"/><polygon points="481.1,0.0 508.5,0.0 508.5,13.5 490.5,17.1 482.0,12.0" fill="#3d7ea6" stroke="#3d7ea6" stroke-width="0.5"/><polygon points="508.5,0.0 539.9,0.0 539.6,4.4 525.5,16.9 508.5,13.5" fill="#3d7ea6" stroke="#3d7ea6" stroke-width="0.5"/><polygon points="530.7,36.8 525.5,16.9 539.6,4.4 550.2,18.3 533.6,38.2" fill="#3d7ea6" stroke="#3d7ea6" stroke-width="0.5"/><polygon points="539.9,0.0 576.0,0.0 576.0,18.4 559.8,21.5 550.2,18.3 539.6,4.4" fill="#1f4e6b" stroke="#1f4e6b" stroke-width="0.5"/><polygon points="0.0,39.6 0.0,15.8 21.2,15.8 21.2,40.5" fill="#1f4e6b" stroke="#1f4e6b" stroke-width="0.5"/><polygon points="21.2,39.9 21.2,14.1 48.2,19.1 48.2,34.9" fill="#1f4e6b" stroke="#1f4e6b" stroke-width="0.5"/><polygon points="48.2,33.6 48.2,19.1 49.0,18.1 67.9,14.3 75.2,20.8 73.8,39.0 72.3,40.2" fill="#1f4e6b" stroke="#1f4e6b" stroke-width="0.5"/><polygon points="73.8,39.0 75.2,20.8 94.5,14.8 94.5,42.7" fill="#1f4e6b" stroke="#1f4e6b" stroke-width="0.5"/><polygon points="94.5,15.0 111.6,19.1 111.6,37.4 94.5,40.5" fill="#3d7ea6" stroke="#3d7ea6" stroke-width="0.5"/><polygon points="111.6,37.4 111.6,19.1 118.5,15.2 133.3,21.4 131.3,38.6 117.7,41.8" fill="#7c8177" stroke="#7c8177" stroke-width="0.5"/><polygon points="131.3,38.6 133.2,22.1 156.9,22.1 155.2,37.2 145.8,44.2 136.0,42.7" fill="#ccd5c3" stroke="#ccd5c3" stroke-width="0.5"/><polygon points="155.2,37.2 157.0,21.8 170.2,19.2 176.4,23.1 176.4,43.9 170.6,47.1" fill="#cac27e" stroke="#cac27e" stroke-width="0.5"/><polygon points="176.4,43.9 176.4,23.1 196.1,20.8 195.2,48.4" fill="#6a6642" stroke="#6a6642" stroke-width="0.5"/><polygon points="195.1,51.0 196.0,22.5 216.2,22.5 218.4,38.5" fill="#3d7ea6" stroke="#3d7ea6" stroke-width="0.5"/><polygon points="218.4,38.5 215.7,19.1 241.9,19.1 240.2,39.3 226.4,44.6" fill="#3d7ea6" stroke="#3d7ea6" stroke-width="0.5"/><polygon points="240.2,39.3 241.7,21.3 261.0,22.2 265.8,39.0 257.2,47.5 249.8,46.6" fill="#7c8177" stroke="#7c8177" stroke-width="0.5"/><polygon points="265.8,39.0 261.0,22.2 267.5,13.9 284.2,17.2 281.7,41.1" fill="#b0b7a8" stroke="#b0b7a8" stroke-width="0.5"/><polygon points="281.3,44.5 284.2,17.2 288.6,14.9 304.9,23.1 301.7,39.0" fill="#7c8177" stroke="#7c8177" stroke-width="0.5"/><polygon points="301.7,39.0 304.9,23.1 308.9,20.9 326.8,23.7 329.8,31.2 321.7,45.5 312.3,48.2" fill="#3d7ea6" stroke="#3d7ea6" stroke-width="0.5"/><polygon points="329.8,31.2 326.8,23.7 331.4,14.5 351.7,11.7 356.9,26.5 353.0,32.2 346.0,35.8" fill="#1f4e6b" stroke="#1f4e6b" stroke-width="0.5"/><polygon points="353.0,32.2 356.9,26.5 373.8,26.5 379.2,39.3 366.5,52.0" fill="#3d7ea6" stroke="#3d7ea6" stroke-width="0.5"/><polygon points="379.2,39.3 373.8,26.5 379.5,18.5 399.6,17.3 401.2,19.7 396.0,42.5 392.7,44.4" fill="#3d7ea6" stroke="#3d7ea6" stroke-width="0.5"/><polygon points="401.2,19.7 424.2,25.9 424.8,33.3 411.1,46.3 396.0,42.5" fill="#cdc580" stroke="#cdc580" stroke-width="0.5"/><polygon points="424.8,33.3 424.2,25.2 438.9,19.3 452.2,23.3 452.2,37.1 436.5,45.0" fill="#989f92" stroke="#989f92" stroke-width="0.5"/><polygon points="452.2,37.1 452.2,23.3 459.5,17.8 470.1,19.7 474.5,37.3 463.5,45.6" fill="#b0b8a9" stroke="#b0b8a9" stroke-width="0.5"/><polygon points="474.5,37.3 470.1,19.7 482.0,12.0 490.5,17.1 490.5,40.5" fill="#b3bbab" stroke="#b3bbab" stroke-width="0.5"/><polygon points="490.5,40.5 490.5,17.1 508.5,13.5 508.5,40.5" fill="#ecd8a8" stroke="#ecd8a8" stroke-width="0.5"/><polygon points="508.5,13.5 525.5,16.9 530.7,36.8 508.5,42.0" fill="#8f8366" stroke="#8f8366" stroke-width="0.5"/><polygon points="532.6,39.5 550.2,18.3 559.8,21.5 553.2,41.4" fill="#1f4e6b" stroke="#1f4e6b" stroke-width="0.5"/><polygon points="576.0,18.4 576.0,39.0 556.9,45.4 553.2,41.4 559.8,21.5" fill="#1f4e6b" stroke="#1f4e6b" stroke-width="0.5"/><polygon points="0.0,70.5 0.0,39.6 20.8,40.5 23.4,54.8 18.4,63.9 1.3,70.5" fill="#1f4e6b" stroke="#1f4e6b" stroke-width="0.5"/><polygon points="23.4,54.8 20.7,40.0 47.0,35.1 47.9,59.7" fill="#1f4e6b" stroke="#1f4e6b" stroke-width="0.5"/><polygon points="47.9,58.8 46.9,33.2 72.3,40.2 68.6,55.0" fill="#1f4e6b" stroke="#1f4e6b" stroke-width="0.5"/><polygon points="68.6,55.0 72.3,40.2 73.8,39.0 92.7,42.3 95.6,58.7 86.4,68.0 74.4,63.9" fill="#1f4e6b" stroke="#1f4e6b" stroke-width="0.5"/><polygon points="95.6,58.7 92.4,40.9 111.6,37.4 117.7,41.8 113.9,62.3" fill="#3d7ea6" stroke="#3d7ea6" stroke-width="0.5"/><polygon points="114.2,60.7 117.7,41.8 131.3,38.6 136.0,42.7 130.5,64.8" fill="#3d7ea6" stroke="#3d7ea6" stroke-width="0.5"/><polygon points="130.3,65.7 136.0,42.7 145.8,44.2 152.1,61.3 147.7,66.5" fill="#b0b8a9" stroke="#b0b8a9" stroke-width="0.5"/><polygon points="152.1,61.3 145.8,44.2 155.2,37.2 170.6,47.1 166.5,60.1" fill="#f1fbe6" stroke="#f1fbe6" stroke-width="0.5"/><polygon points="166.5,60.1 170.6,47.1 176.4,43.9 196.4,48.7 198.0,58.5 176.3,73.0" fill="#a29c65" stroke="#a29c65" stroke-width="0.5"/><polygon points="198.0,58.5 196.7,50.2 218.4,38.5 226.4,44.6 225.7,58.3 200.4,60.6" fill="#3d7ea6" stroke="#3d7ea6" stroke-width="0.5"/><polygon points="225.7,58.3 226.4,44.6 240.2,39.3 249.8,46.6 236.7,65.7 230.9,65.7" fill="#3d7ea6" stroke="#3d7ea6" stroke-width="0.5"/><polygon points="236.7,65.7 249.8,46.6 257.2,47.5 260.4,57.6 246.5,71.5" fill="#3d7ea6" stroke="#3d7ea6" stroke-width="0.5"/><polygon points="260.4,57.6 257.2,47.5 265.8,39.0 284.6,41.5 284.6,62.4 282.4,64.8 269.8,65.2" fill="#b5ae71" stroke="#b5ae71" stroke-width="0.5"/><polygon points="284.6,62.4 284.6,43.6 301.7,39.0 312.3,48.2 307.8,64.9" fill="#6a6642" stroke="#6a6642" stroke-width="0.5"/><polygon points="305.8,72.2 312.3,48.2 321.7,45.5 335.9,58.7 332.7,68.3" fill="#3d7ea6" stroke="#3d7ea6" stroke-width="0.5"/><polygon points="335.9,58.7 321.7,45.5 329.8,31.2 346.0,35.8 344.3,54.7" fill="#3d7ea6" stroke="#3d7ea6" stroke-width="0.5"/><polygon points="344.3,54.7 346.0,35.8 353.0,32.2 366.5,52.0 365.6,56.0 356.5,59.5" fill="#3d7ea6" stroke="#3d7ea6" stroke-width="0.5"/><polygon points="365.6,56.0 366.5,52.0 379.2,39.3 392.7,44.4 391.0,56.4 375.9,65.3" fill="#fff6c0" stroke="#fff6c0" stroke-width="0.5"/><polygon points="391.0,56.4 392.7,44.4 396.0,42.5 411.1,46.3 417.8,67.4 401.7,68.6" fill="#cdc580" stroke="#cdc580" stroke-width="0.5"/><polygon points="417.3,65.7 411.1,46.3 424.8,33.3 436.5,45.0 436.5,58.8" fill="#817c51" stroke="#817c51" stroke-width="0.5"/><polygon points="436.5,60.3 436.5,45.0 452.2,37.1 463.5,45.6 463.5,58.3" fill="#afb7a8" stroke="#afb7a8" stroke-width="0.5"/><polygon points="463.5,58.5 463.5,45.6 474.5,37.3 490.5,40.5 486.9,58.5" fill="#bfc7b6" stroke="#bfc7b6" stroke-width="0.5"/><polygon points="486.9,58.5 490.5,40.5 510.1,40.5 511.8,56.4 505.7,64.5 492.1,67.2" fill="#7c8177" stroke="#7c8177" stroke-width="0.5"/><polygon points="530.7,36.8 534.7,38.7 535.6,58.5 530.9,63.3 511.8,56.4 510.2,41.6" fill="#3d7ea6" stroke="#3d7ea6" stroke-width="0.5"/><polygon points="534.8,39.7 553.2,41.4 556.9,45.4 557.7,63.1 535.6,58.5" fill="#1f4e6b" stroke="#1f4e6b" stroke-width="0.5"/><polygon points="576.0,39.0 576.0,63.0 557.5,59.3 556.9,45.4" fill="#1f4e6b" stroke="#1f4e6b" stroke-width="0.5"/><polygon points="20.6,95.3 1.3,70.5 18.4,63.9 30.4,78.9" fill="#1f4e6b" stroke="#1f4e6b" stroke-width="0.5"/><polygon points="30.4,78.9 18.4,63.9 23.4,54.8 47.2,59.6 47.4,77.0" fill="#1f4e6b" stroke="#1f4e6b" stroke-width="0.5"/><polygon points="47.4,80.2 47.2,58.9 68.6,55.0 74.4,63.9 59.4,81.5" fill="#1f4e6b" stroke="#1f4e6b" stroke-width="0.5"/><polygon points="59.4,81.5 74.4,63.9 86.4,68.0 88.7,80.0 82.2,87.3 68.4,89.0" fill="#1f4e6b" stroke="#1f4e6b" stroke-width="0.5"/><polygon points="88.7,80.0 86.4,68.0 95.6,58.7 112.1,61.9 110.0,84.3 105.2,86.3" fill="#1f4e6b" stroke="#1f4e6b" stroke-width="0.5"/><polygon points="110.0,84.3 112.3,60.2 131.5,65.0 128.6,85.1 122.7,88.4" fill="#1f4e6b" stroke="#1f4e6b" stroke-width="0.5"/><polygon points="128.6,85.1 131.4,65.8 147.7,66.5 153.4,91.6" fill="#3d7ea6" stroke="#3d7ea6" stroke-width="0.5"/><polygon points="151.7,84.3 147.7,66.5 152.1,61.3 166.5,60.1 176.2,73.0 176.2,73.2 164.6,84.8" fill="#7f7a4f" stroke="#7f7a4f" stroke-width="0.5"/><polygon points="176.2,73.2 176.2,73.0 198.0,58.5 200.4,60.6 206.2,76.5 199.6,92.2 195.1,93.8" fill="#ffffff" stroke="#ffffff" stroke-width="0.5"/><polygon points="206.2,76.5 200.4,60.6 225.7,58.3 230.9,65.7 225.1,76.5" fill="#9ea1a4" stroke="#9ea1a4" stroke-width="0.5"/><polygon points="229.1,90.1 225.1,76.5 230.9,65.7 236.7,65.7 246.5,71.5 250.6,79.7 236.6,94.7" fill="#3d7ea6" stroke="#3d7ea6" stroke-width="0.5"/><polygon points="250.6,79.7 246.5,71.5 260.4,57.6 269.8,65.2 259.6,81.9" fill="#ced7c5" stroke="#ced7c5" stroke-width="0.5"/><polygon points="259.6,81.9 269.8,65.2 282.4,64.8 285.0,86.7 265.1,89.2" fill="#b8b173" stroke="#b8b173" stroke-width="0.5"/><polygon points="284.8,84.5 282.4,64.8 284.6,62.4 312.5,65.5 308.8,86.4" fill="#938d5c" stroke="#938d5c" stroke-width="0.5"/><polygon points="308.2,89.3 311.5,71.4 332.7,68.3 336.5,74.9 333.3,90.7" fill="#ffeeb9" stroke="#ffeeb9" stroke-width="0.5"/><polygon points="336.5,74.9 332.7,68.3 335.9,58.7 344.3,54.7 356.5,59.5 353.8,76.5" fill="#d4ddcb" stroke="#d4ddcb" stroke-width="0.5"/><polygon points="353.8,76.5 356.5,59.5 365.6,56.0 375.9,65.3 376.7,75.8 362.9,85.8 359.9,84.6" fill="#d2dbc9" stroke="#d2dbc9" stroke-width="0.5"/><polygon points="376.7,75.8 375.9,65.3 391.0,56.4 401.7,68.6 390.6,82.8" fill="#c7c07d" stroke="#c7c07d" stroke-width="0.5"/><polygon points="390.6,82.8 401.7,68.6 416.1,67.5 419.1,80.4 405.9,93.6 394.5,94.4" fill="#ffffff" stroke="#ffffff" stroke-width="0.5"/><polygon points="419.1,80.4 415.8,66.3 437.9,58.3 444.7,82.2 427.5,86.1" fill="#ffffff" stroke="#ffffff" stroke-width="0.5"/><polygon points="444.7,82.2 438.4,60.2 463.7,58.3 464.5,72.2 448.0,84.1" fill="#9c9661" stroke="#9c9661" stroke-width="0.5"/><polygon points="464.5,72.2 463.7,58.5 486.9,58.5 492.1,67.2 489.3,75.5 482.5,82.1 478.9,83.0" fill="#7c8177" stroke="#7c8177" stroke-width="0.5"/><polygon points="489.3,75.5 492.1,67.2 505.7,64.5 515.9,79.7 508.1,87.1" fill="#3d7ea6" stroke="#3d7ea6" stroke-width="0.5"/><polygon points="515.9,79.7 505.7,64.5 511.8,56.4 530.9,63.3 529.0,79.2" fill="#3d7ea6" stroke="#3d7ea6" stroke-width="0.5"/><polygon points="529.2,78.3 530.9,63.3 535.6,58.5 553.4,62.2 551.9,81.9" fill="#1f4e6b" stroke="#1f4e6b" stroke-width="0.5"/><polygon points="553.7,58.5 576.0,63.0 576.0,83.2 551.8,83.2" fill="#1f4e6b" stroke="#1f4e6b" stroke-width="0.5"/><polygon points="0.0,101.7 0.0,70.5 1.3,70.5 20.6,95.3 20.5,98.8" fill="#1f4e6b" stroke="#1f4e6b" stroke-width="0.5"/><polygon points="20.4,99.8 20.6,95.3 30.4,78.9 51.8,76.5 45.0,99.7" fill="#1f4e6b" stroke="#1f4e6b" stroke-width="0.5"/><polygon points="45.0,99.7 50.7,80.5 59.4,81.5 68.4,89.0 65.7,108.5 60.7,111.3 49.7,107.6" fill="#1f4e6b" stroke="#1f4e6b" stroke-width="0.5"/><polygon points="65.7,108.5 68.4,89.0 82.2,87.3 87.8,107.9 83.8,112.2" fill="#1f4e6b" stroke="#1f4e6b" stroke-width="0.5"/><polygon points="87.8,107.9 82.2,87.3 88.7,80.0 105.2,86.3 100.7,105.5" fill="#1f4e6b" stroke="#1f4e6b" stroke-width="0.5"/><polygon points="100.7,105.5 105.2,86.3 110.0,84.3 122.7,88.4 123.7,107.3 113.0,114.9" fill="#1f4e6b" stroke="#1f4e6b" stroke-width="0.5"/><polygon points="123.7,107.3 122.7,88.4 128.6,85.1 145.9,89.6 146.2,100.2 135.8,110.6" fill="#1f4e6b" stroke="#1f4e6b" stroke-width="0.5"/><polygon points="146.2,100.2 145.8,84.1 164.6,84.8 172.7,106.2 163.2,111.2" fill="#3d7ea6" stroke="#3d7ea6" stroke-width="0.5"/><polygon points="171.9,104.3 164.6,84.8 176.2,73.2 194.1,92.8" fill="#6f6b46" stroke="#6f6b46" stroke-width="0.5"/><polygon points="199.6,92.2 206.2,76.5 225.1,76.5 229.1,90.1 210.9,97.7" fill="#6a6642" stroke="#6a6642" stroke-width="0.5"/><polygon points="229.1,90.1 236.6,94.7 238.7,100.6 218.1,117.9 210.9,97.7" fill="#6a6642" stroke="#6a6642" stroke-width="0.5"/><polygon points="238.7,100.6 236.6,94.7 250.6,79.7 259.6,81.9 265.1,89.2 261.4,102.3 245.6,106.1" fill="#ffffc6" stroke="#ffffc6" stroke-width="0.5"/><polygon points="261.4,102.3 265.1,89.2 282.6,87.0 286.2,110.2 268.9,110.2" fill="#cdc580" stroke="#cdc580" stroke-width="0.5"/><polygon points="286.5,112.1 282.2,84.3 310.8,86.6 310.5,88.5 287.0,112.0" fill="#9ea1a4" stroke="#9ea1a4" stroke-width="0.5"/><polygon points="310.6,89.4 337.4,90.9 338.8,104.5 329.5,113.3 314.4,107.1" fill="#cbc37f" stroke="#cbc37f" stroke-width="0.5"/><polygon points="331.2,100.5 336.5,74.9 353.8,76.5 359.9,84.6" fill="#fbffff" stroke="#fbffff" stroke-width="0.5"/><polygon points="359.9,84.6 362.9,85.8 367.3,100.7 354.1,111.8 338.8,104.5 338.0,96.7" fill="#ffffff" stroke="#ffffff" stroke-width="0.5"/><polygon points="367.3,100.7 362.9,85.8 376.7,75.8 390.6,82.8 394.5,94.4 390.8,101.0 382.3,106.6" fill="#ffffff" stroke="#ffffff" stroke-width="0.5"/><polygon points="405.9,93.6 419.1,80.4 427.5,86.1 427.5,103.1 419.4,107.1" fill="#9ea1a4" stroke="#9ea1a4" stroke-width="0.5"/><polygon points="427.5,103.1 427.5,86.1 444.7,82.2 448.0,84.1 451.1,93.4 439.4,107.4" fill="#9ea1a4" stroke="#9ea1a4" stroke-width="0.5"/><polygon points="451.1,93.4 448.0,84.1 464.5,72.2 478.9,83.0 471.2,96.4 463.0,99.2" fill="#9ea1a4" stroke="#9ea1a4" stroke-width="0.5"/><polygon points="484.5,110.5 471.2,96.4 478.9,83.0 482.5,82.1 497.5,101.9" fill="#3d7ea6" stroke="#3d7ea6" stroke-width="0.5"/><polygon points="497.5,101.9 482.5,82.1 489.3,75.5 508.1,87.1 505.6,101.9" fill="#3d7ea6" stroke="#3d7ea6" stroke-width="0.5"/><polygon points="504.5,108.9 508.1,87.1 515.9,79.7 528.2,79.3 529.6,96.3" fill="#1f4e6b" stroke="#1f4e6b" stroke-width="0.5"/><polygon points="528.1,78.2 553.3,82.1 549.0,103.3 544.0,107.1 529.7,96.3" fill="#1f4e6b" stroke="#1f4e6b" stroke-width="0.5"/><polygon points="576.0,83.2 576.0,107.6 549.0,103.3 553.1,83.2" fill="#1f4e6b" stroke="#1f4e6b" stroke-width="0.5"/><polygon points="0.0,123.7 0.0,101.7 21.1,98.7 23.9,123.8" fill="#1f4e6b" stroke="#1f4e6b" stroke-width="0.5"/><polygon points="23.5,119.7 21.2,99.8 45.0,99.8 49.7,107.6 37.2,121.8" fill="#1f4e6b" stroke="#1f4e6b" stroke-width="0.5"/><polygon points="37.2,121.8 49.7,107.6 60.8,111.3 60.8,130.8 42.2,129.2" fill="#1f4e6b" stroke="#1f4e6b" stroke-width="0.5"/><polygon points="60.8,130.2 60.8,111.3 65.7,108.5 83.8,112.2 85.9,130.2 79.5,133.5" fill="#1f4e6b" stroke="#1f4e6b" stroke-width="0.5"/><polygon points="85.9,130.2 83.8,112.2 87.8,107.9 100.7,105.5 113.0,114.9 112.9,116.1 94.2,133.9" fill="#1f4e6b" stroke="#1f4e6b" stroke-width="0.5"/><polygon points="112.9,116.1 113.0,114.9 123.7,107.3 135.8,110.6 139.9,120.9 133.1,132.2 122.6,132.4" fill="#1f4e6b" stroke="#1f4e6b" stroke-width="0.5"/><polygon points="139.9,120.9 135.8,110.6 146.2,100.2 163.2,111.2 157.7,123.5" fill="#1f4e6b" stroke="#1f4e6b" stroke-width="0.5"/><polygon points="160.9,133.5 157.7,123.5 163.2,111.2 170.9,107.1 188.6,124.6 186.6,134.0 165.9,136.8" fill="#3d7ea6" stroke="#3d7ea6" stroke-width="0.5"/><polygon points="188.6,124.6 169.3,105.6 196.8,91.4 194.8,119.6" fill="#9ea1a4" stroke="#9ea1a4" stroke-width="0.5"/><polygon points="194.8,119.6 196.7,93.2 199.6,92.2 210.9,97.7 218.1,117.9 217.7,119.6" fill="#9ea1a4" stroke="#9ea1a4" stroke-width="0.5"/><polygon points="217.7,119.6 218.1,117.9 238.7,100.6 245.6,106.1 245.8,119.6 232.8,129.0 222.0,128.4" fill="#847f52" stroke="#847f52" stroke-width="0.5"/><polygon points="245.8,119.6 245.6,106.1 261.4,102.3 268.9,110.2 262.4,128.0 259.7,129.0" fill="#b4ad70" stroke="#b4ad70" stroke-width="0.5"/><polygon points="282.2,135.7 262.4,128.0 268.9,110.2 288.9,110.2" fill="#9ea1a4" stroke="#9ea1a4" stroke-width="0.5"/><polygon points="287.0,112.0 310.5,88.5 314.4,107.1 304.0,117.5" fill="#76714a" stroke="#76714a" stroke-width="0.5"/><polygon points="314.4,107.1 329.5,113.3 328.9,127.1 310.5,133.2 304.0,117.5" fill="#6a6642" stroke="#6a6642" stroke-width="0.5"/><polygon points="328.9,127.1 329.5,113.3 338.8,104.5 354.1,111.8 356.2,126.8 334.5,131.7" fill="#9ea1a4" stroke="#9ea1a4" stroke-width="0.5"/><polygon points="356.3,127.5 354.1,111.8 367.3,100.7 382.3,106.6 381.9,117.7 370.9,129.9" fill="#b2b5b7" stroke="#b2b5b7" stroke-width="0.5"/><polygon points="381.9,117.7 382.3,106.6 390.8,101.0 411.4,121.6 400.3,131.4" fill="#9ea1a4" stroke="#9ea1a4" stroke-width="0.5"/><polygon points="411.4,121.6 390.8,101.0 394.5,94.4 405.9,93.6 419.5,107.1 413.6,121.2" fill="#9ea1a4" stroke="#9ea1a4" stroke-width="0.5"/><polygon points="413.6,121.2 419.5,107.1 427.5,103.1 439.4,107.4 442.8,118.0 423.3,127.7" fill="#345631" stroke="#345631" stroke-width="0.5"/><polygon points="443.4,120.1 439.4,107.4 451.1,93.4 463.0,99.2 461.2,118.6" fill="#345631" stroke="#345631" stroke-width="0.5"/><polygon points="460.7,123.7 463.0,99.2 471.2,96.4 484.5,110.5 482.8,117.9" fill="#8f8366" stroke="#8f8366" stroke-width="0.5"/><polygon points="482.8,117.9 484.5,110.5 497.5,101.9 509.1,102.0 512.0,113.8 494.0,132.4" fill="#3d7ea6" stroke="#3d7ea6" stroke-width="0.5"/><polygon points="512.0,113.8 510.1,106.1 529.6,96.3 544.0,107.1 543.4,109.7 521.4,120.7" fill="#1f4e6b" stroke="#1f4e6b" stroke-width="0.5"/><polygon points="524.9,137.0 521.4,120.7 543.4,109.7 547.5,122.0 534.3,139.6" fill="#1f4e6b" stroke="#1f4e6b" stroke-width="0.5"/><polygon points="576.0,107.6 576.0,125.6 560.2,128.7 547.5,122.0 543.4,109.7 544.0,107.1 549.0,103.3" fill="#1f4e6b" stroke="#1f4e6b" stroke-width="0.5"/><polygon points="0.0,147.7 0.0,123.8 19.9,123.8 21.3,142.2 15.8,147.7" fill="#1f4e6b" stroke="#1f4e6b" stroke-width="0.5"/><polygon points="21.3,142.2 19.5,119.1 37.2,121.8 42.2,129.2 37.3,145.1" fill="#1f4e6b" stroke="#1f4e6b" stroke-width="0.5"/><polygon points="35.7,150.2 42.2,129.2 60.1,130.8 57.3,144.3" fill="#1f4e6b" stroke="#1f4e6b" stroke-width="0.5"/><polygon points="67.4,157.4 57.3,144.3 60.3,130.1 79.5,133.5 72.8,158.8" fill="#1f4e6b" stroke="#1f4e6b" stroke-width="0.5"/><polygon points="94.2,133.9 112.9,116.1 122.6,132.4 117.3,140.3 102.1,143.0 99.0,141.7" fill="#1f4e6b" stroke="#1f4e6b" stroke-width="0.5"/><polygon points="117.3,140.3 122.6,132.4 133.1,132.2 142.1,144.7 142.0,145.6 124.8,155.8" fill="#1f4e6b" stroke="#1f4e6b" stroke-width="0.5"/><polygon points="133.1,132.2 139.9,120.9 157.7,123.5 160.9,133.5 142.1,144.7" fill="#1f4e6b" stroke="#1f4e6b" stroke-width="0.5"/><polygon points="152.3,164.0 142.0,145.6 142.1,144.7 160.9,133.5 165.9,136.8 165.2,157.2 153.9,164.6" fill="#1f4e6b" stroke="#1f4e6b" stroke-width="0.5"/><polygon points="180.5,124.4 201.7,140.2 200.8,153.4 185.7,157.8" fill="#3d7ea6" stroke="#3d7ea6" stroke-width="0.5"/><polygon points="187.5,129.7 188.6,124.6 194.8,119.6 217.7,119.6 222.0,128.4 219.2,134.5 201.7,140.2" fill="#6a6642" stroke="#6a6642" stroke-width="0.5"/><polygon points="221.5,146.0 219.2,134.5 222.0,128.4 232.8,129.0 246.9,147.1 235.4,157.1" fill="#6a6642" stroke="#6a6642" stroke-width="0.5"/><polygon points="246.9,147.1 232.8,129.0 245.8,119.6 259.7,129.0 252.2,146.5" fill="#6a6642" stroke="#6a6642" stroke-width="0.5"/><polygon points="252.2,146.5 259.7,129.0 262.4,128.0 282.2,135.7 284.3,139.9 261.2,154.0" fill="#3d7ea6" stroke="#3d7ea6" stroke-width="0.5"/><polygon points="284.1,139.5 282.2,135.7 288.3,112.5 304.0,117.5 310.5,133.2 307.3,139.5" fill="#6a6642" stroke="#6a6642" stroke-width="0.5"/><polygon points="307.3,139.5 310.5,133.2 328.9,127.1 334.5,131.7 335.8,146.6 326.4,154.6 310.9,149.3" fill="#345631" stroke="#345631" stroke-width="0.5"/><polygon points="335.8,146.6 334.5,131.7 357.3,126.6 353.1,153.2" fill="#345631" stroke="#345631" stroke-width="0.5"/><polygon points="353.3,152.2 357.1,127.6 370.9,129.9 375.1,138.2 365.9,158.8" fill="#9ea1a4" stroke="#9ea1a4" stroke-width="0.5"/><polygon points="375.1,138.2 370.9,129.9 381.9,117.7 400.3,131.4 397.8,142.8 394.9,144.1" fill="#9ea1a4" stroke="#9ea1a4" stroke-width="0.5"/><polygon points="397.8,142.8 400.3,131.4 411.4,121.6 413.6,121.2 423.3,127.7 427.5,141.1 420.7,150.0 410.1,151.5" fill="#345631" stroke="#345631" stroke-width="0.5"/><polygon points="427.5,141.1 423.3,127.7 445.5,116.6 445.5,142.6" fill="#345631" stroke="#345631" stroke-width="0.5"/><polygon points="445.5,144.0 445.5,119.9 465.8,118.2 465.8,140.0" fill="#8f8366" stroke="#8f8366" stroke-width="0.5"/><polygon points="465.8,139.9 465.8,122.4 482.8,117.9 494.0,132.4 494.2,138.8 470.2,143.5" fill="#3d7ea6" stroke="#3d7ea6" stroke-width="0.5"/><polygon points="507.8,158.9 497.8,137.7 522.4,138.7 514.6,159.9" fill="#1f4e6b" stroke="#1f4e6b" stroke-width="0.5"/><polygon points="494.1,135.5 494.0,132.4 512.0,113.8 521.4,120.7 524.9,137.0 522.4,138.7 497.8,137.7" fill="#1f4e6b" stroke="#1f4e6b" stroke-width="0.5"/><polygon points="533.0,141.3 547.5,122.0 560.2,128.7 553.0,146.7" fill="#1f4e6b" stroke="#1f4e6b" stroke-width="0.5"/><polygon points="576.0,125.6 576.0,150.4 552.4,148.3 560.2,128.7" fill="#1f4e6b" stroke="#1f4e6b" stroke-width="0.5"/><polygon points="0.0,167.5 0.0,147.7 15.7,147.7 22.6,170.1" fill="#1f4e6b" stroke="#1f4e6b" stroke-width="0.5"/><polygon points="22.6,170.0 15.8,147.8 21.3,142.2 40.5,145.7 40.5,165.7" fill="#1f4e6b" stroke="#1f4e6b" stroke-width="0.5"/><polygon points="40.5,165.7 40.5,148.9 57.3,144.3 67.4,157.4 44.9,168.6" fill="#1f4e6b" stroke="#1f4e6b" stroke-width="0.5"/><polygon points="72.8,158.8 79.5,133.5 85.9,130.2 94.2,133.9 99.0,141.7 83.2,163.8 77.4,163.4" fill="#1f4e6b" stroke="#1f4e6b" stroke-width="0.5"/><polygon points="83.2,163.8 99.0,141.7 102.1,143.0 111.4,167.7 92.7,170.4" fill="#1f4e6b" stroke="#1f4e6b" stroke-width="0.5"/><polygon points="110.8,166.2 102.1,143.0 117.3,140.3 124.8,155.8 122.4,163.6" fill="#1f4e6b" stroke="#1f4e6b" stroke-width="0.5"/><polygon points="122.4,163.6 124.8,155.8 142.0,145.6 152.3,164.0 132.4,172.1" fill="#1f4e6b" stroke="#1f4e6b" stroke-width="0.5"/><polygon points="165.2,157.2 165.9,136.8 182.1,134.6 186.5,162.8" fill="#1f4e6b" stroke="#1f4e6b" stroke-width="0.5"/><polygon points="183.8,166.6 182.3,158.8 200.8,153.4 208.6,158.9 210.0,163.5 199.9,175.8" fill="#3d7ea6" stroke="#3d7ea6" stroke-width="0.5"/><polygon points="200.8,153.4 201.7,140.2 219.2,134.5 221.5,146.0 208.6,158.9" fill="#3d7ea6" stroke="#3d7ea6" stroke-width="0.5"/><polygon points="221.5,146.0 235.5,157.2 219.2,168.1 210.0,163.5 208.6,158.9" fill="#3d7ea6" stroke="#3d7ea6" stroke-width="0.5"/><polygon points="235.3,157.2 246.9,147.1 252.2,146.5 261.2,154.0 263.3,161.8 249.3,178.5 243.7,175.8" fill="#3d7ea6" stroke="#3d7ea6" stroke-width="0.5"/><polygon points="263.3,161.8 261.2,154.0 283.8,140.2 287.3,164.9 276.9,168.2" fill="#1f4e6b" stroke="#1f4e6b" stroke-width="0.5"/><polygon points="287.3,164.9 283.7,139.5 307.3,139.5 310.9,149.3 303.4,162.6 289.5,165.9" fill="#3d7ea6" stroke="#3d7ea6" stroke-width="0.5"/><polygon points="303.4,162.6 310.9,149.3 326.4,154.6 330.0,172.3 312.3,173.6" fill="#3d7ea6" stroke="#3d7ea6" stroke-width="0.5"/><polygon points="330.2,173.6 326.4,154.6 335.8,146.6 351.4,152.6 338.0,174.0" fill="#3c6238" stroke="#3c6238" stroke-width="0.5"/><polygon points="366.2,158.2 375.1,138.2 394.9,144.1 385.6,160.7 371.6,161.8" fill="#345631" stroke="#345631" stroke-width="0.5"/><polygon points="385.6,160.7 394.9,144.1 397.8,142.8 410.1,151.5 405.1,175.2 403.2,176.5 397.8,176.3" fill="#345631" stroke="#345631" stroke-width="0.5"/><polygon points="405.1,175.2 410.1,151.5 420.7,150.0 430.1,164.7 423.1,176.0" fill="#8f8366" stroke="#8f8366" stroke-width="0.5"/><polygon points="430.1,164.7 420.7,150.0 427.5,141.1 446.8,142.7 446.8,163.3" fill="#3d7ea6" stroke="#3d7ea6" stroke-width="0.5"/><polygon points="446.8,165.2 446.8,143.7 465.8,139.9 470.2,143.5 470.2,165.2" fill="#3d7ea6" stroke="#3d7ea6" stroke-width="0.5"/><polygon points="470.2,166.2 470.2,143.5 489.4,139.7 489.4,163.9" fill="#1f4e6b" stroke="#1f4e6b" stroke-width="0.5"/><polygon points="489.4,132.8 497.8,137.7 507.8,158.9 489.4,168.5" fill="#1f4e6b" stroke="#1f4e6b" stroke-width="0.5"/><polygon points="524.9,137.0 536.5,140.3 533.6,167.7 520.9,166.8 514.6,159.9 522.4,138.7" fill="#1f4e6b" stroke="#1f4e6b" stroke-width="0.5"/><polygon points="536.3,142.2 554.3,147.1 551.6,166.5 533.7,166.5" fill="#1f4e6b" stroke="#1f4e6b" stroke-width="0.5"/><polygon points="576.0,150.4 576.0,168.8 551.2,168.8 554.2,148.4" fill="#1f4e6b" stroke="#1f4e6b" stroke-width="0.5"/><polygon points="0.0,184.5 0.0,167.5 22.5,170.1 20.1,184.5" fill="#1f4e6b" stroke="#1f4e6b" stroke-width="0.5"/><polygon points="22.3,189.8 20.1,184.5 22.5,170.0 40.5,165.7 44.9,168.6 49.7,180.9 40.2,195.9" fill="#1f4e6b" stroke="#1f4e6b" stroke-width="0.5"/><polygon points="49.7,180.9 44.9,168.6 67.4,157.4 72.8,158.8 77.4,163.4 67.4,184.6" fill="#1f4e6b" stroke="#1f4e6b" stroke-width="0.5"/><polygon points="67.4,184.6 77.4,163.4 83.2,163.8 92.7,170.4 92.0,192.4 70.7,191.2" fill="#1f4e6b" stroke="#1f4e6b" stroke-width="0.5"/><polygon points="91.9,194.4 92.7,170.4 108.9,168.0 113.4,192.7" fill="#3d7ea6" stroke="#3d7ea6" stroke-width="0.5"/><polygon points="113.1,191.2 108.6,166.7 122.4,163.6 132.4,172.1 132.3,187.0 129.5,189.9" fill="#3d7ea6" stroke="#3d7ea6" stroke-width="0.5"/><polygon points="132.3,187.0 132.4,172.1 152.3,164.0 153.9,164.6 161.1,184.2 156.0,191.8" fill="#3d7ea6" stroke="#3d7ea6" stroke-width="0.5"/><polygon points="153.9,164.6 165.2,157.2 182.9,161.9 183.8,166.6 175.2,183.0 161.1,184.2" fill="#3d7ea6" stroke="#3d7ea6" stroke-width="0.5"/><polygon points="175.2,183.0 183.8,166.6 199.9,175.8 201.5,183.9 185.0,192.9" fill="#827d51" stroke="#827d51" stroke-width="0.5"/><polygon points="201.5,183.9 199.9,175.8 210.0,163.5 219.2,168.1 223.4,185.0 210.1,189.5" fill="#3d7ea6" stroke="#3d7ea6" stroke-width="0.5"/><polygon points="223.2,183.9 219.2,168.1 235.3,157.4 243.7,175.8" fill="#3d7ea6" stroke="#3d7ea6" stroke-width="0.5"/><polygon points="249.1,178.7 263.3,161.8 276.9,168.2 272.2,187.0" fill="#1f4e6b" stroke="#1f4e6b" stroke-width="0.5"/><polygon points="272.2,187.0 276.9,168.2 287.3,164.9 289.5,165.9 294.6,186.2 289.4,192.2 275.5,193.9" fill="#1f4e6b" stroke="#1f4e6b" stroke-width="0.5"/><polygon points="294.6,186.2 289.5,165.9 303.4,162.6 312.3,173.6 306.8,185.6" fill="#1f4e6b" stroke="#1f4e6b" stroke-width="0.5"/><polygon points="311.4,191.0 306.8,185.6 312.3,173.6 332.0,172.1 327.4,187.0" fill="#1f4e6b" stroke="#1f4e6b" stroke-width="0.5"/><polygon points="352.0,151.6 364.6,158.1 350.1,181.3 338.0,174.0" fill="#8f8366" stroke="#8f8366" stroke-width="0.5"/><polygon points="365.1,157.4 371.6,161.8 373.1,186.3 351.3,183.3 350.1,181.3" fill="#a49675" stroke="#a49675" stroke-width="0.5"/><polygon points="373.3,188.5 371.6,161.8 385.6,160.7 397.8,176.3 381.8,188.8" fill="#8f8366" stroke="#8f8366" stroke-width="0.5"/><polygon points="409.7,200.8 403.2,176.5 405.1,175.2 423.1,176.0 428.3,184.5 424.0,199.3" fill="#3d7ea6" stroke="#3d7ea6" stroke-width="0.5"/><polygon points="428.3,184.5 423.1,176.0 430.1,164.7 448.9,163.1 447.1,184.5" fill="#3d7ea6" stroke="#3d7ea6" stroke-width="0.5"/><polygon points="446.9,186.3 448.7,165.2 471.1,165.2 471.7,180.1 462.4,190.1" fill="#3d7ea6" stroke="#3d7ea6" stroke-width="0.5"/><polygon points="471.7,180.1 471.2,166.0 492.9,163.5 497.7,183.2 486.9,188.5" fill="#1f4e6b" stroke="#1f4e6b" stroke-width="0.5"/><polygon points="497.7,183.2 493.6,166.3 507.8,158.9 514.6,159.9 520.9,166.8 508.8,187.9" fill="#1f4e6b" stroke="#1f4e6b" stroke-width="0.5"/><polygon points="508.8,187.9 520.9,166.8 532.1,167.6 536.3,193.5 510.2,190.3" fill="#1f4e6b" stroke="#1f4e6b" stroke-width="0.5"/><polygon points="535.7,189.9 531.9,166.5 554.2,166.5 552.3,186.8" fill="#1f4e6b" stroke="#1f4e6b" stroke-width="0.5"/><polygon points="576.0,168.8 576.0,189.0 558.9,192.4 552.3,186.8 554.0,168.8" fill="#1f4e6b" stroke="#1f4e6b" stroke-width="0.5"/><polygon points="0.0,202.5 0.0,184.5 20.1,184.5 22.3,189.8 14.7,202.5" fill="#1f4e6b" stroke="#1f4e6b" stroke-width="0.5"/><polygon points="21.9,220.4 14.7,202.5 22.3,189.8 40.2,195.9 43.1,204.2 40.3,211.6" fill="#1f4e6b" stroke="#1f4e6b" stroke-width="0.5"/><polygon points="43.1,204.2 40.2,195.9 49.7,180.9 67.4,184.6 70.7,191.2 66.3,205.0" fill="#1f4e6b" stroke="#1f4e6b" stroke-width="0.5"/><polygon points="66.3,205.0 70.7,191.2 94.0,192.5 92.2,208.2 84.7,213.8 69.2,211.1" fill="#3d7ea6" stroke="#3d7ea6" stroke-width="0.5"/><polygon points="92.2,208.2 93.8,194.2 111.2,192.9 114.7,214.7 112.0,219.0 110.2,219.8" fill="#ffffc6" stroke="#ffffc6" stroke-width="0.5"/><polygon points="114.7,214.7 111.0,191.4 129.5,189.9 132.4,208.2" fill="#fff2bc" stroke="#fff2bc" stroke-width="0.5"/><polygon points="132.4,208.2 129.5,189.9 132.3,187.0 156.0,191.8 156.6,198.8 137.5,211.6" fill="#cdc580" stroke="#cdc580" stroke-width="0.5"/><polygon points="157.0,203.6 156.0,191.8 161.1,184.2 175.2,183.0 185.0,192.9 185.2,207.2 179.7,210.7" fill="#bdb676" stroke="#bdb676" stroke-width="0.5"/><polygon points="185.2,207.2 185.0,192.9 201.5,183.9 210.1,189.5 207.9,203.7 194.0,210.2" fill="#6a6642" stroke="#6a6642" stroke-width="0.5"/><polygon points="207.9,203.7 210.1,189.5 222.3,185.4 233.9,203.5 219.0,212.4" fill="#3d7ea6" stroke="#3d7ea6" stroke-width="0.5"/><polygon points="233.9,203.5 221.7,184.4 243.7,175.8 249.4,178.6 247.0,201.0 240.2,204.8" fill="#3d7ea6" stroke="#3d7ea6" stroke-width="0.5"/><polygon points="247.0,201.0 249.4,178.8 272.2,187.0 275.5,193.9 270.4,203.8 265.3,206.8" fill="#3d7ea6" stroke="#3d7ea6" stroke-width="0.5"/><polygon points="270.4,203.8 275.5,193.9 289.4,192.2 300.4,211.1 291.4,220.1" fill="#1f4e6b" stroke="#1f4e6b" stroke-width="0.5"/><polygon points="300.4,211.1 289.4,192.2 294.6,186.2 306.8,185.6 311.4,191.0 312.1,202.5 305.0,210.5" fill="#1f4e6b" stroke="#1f4e6b" stroke-width="0.5"/><polygon points="312.1,202.5 311.4,191.0 327.4,187.0 333.8,204.5" fill="#1f4e6b" stroke="#1f4e6b" stroke-width="0.5"/><polygon points="332.8,201.6 327.4,187.0 331.5,173.7 338.0,174.0 350.1,181.3 351.3,183.3 346.9,198.8" fill="#3d7ea6" stroke="#3d7ea6" stroke-width="0.5"/><polygon points="346.9,198.8 351.3,183.3 376.3,186.8 365.9,209.2 356.6,209.7" fill="#3d7ea6" stroke="#3d7ea6" stroke-width="0.5"/><polygon points="365.9,209.2 375.4,188.5 381.8,188.8 396.2,209.5 387.3,219.3 376.2,219.4" fill="#3d7ea6" stroke="#3d7ea6" stroke-width="0.5"/><polygon points="381.8,188.8 397.8,176.3 403.2,176.5 409.7,200.8 403.0,208.4 396.2,209.5" fill="#3d7ea6" stroke="#3d7ea6" stroke-width="0.5"/><polygon points="424.0,199.3 428.3,184.5 449.5,184.5 442.7,203.0 432.4,207.1" fill="#62a15c" stroke="#62a15c" stroke-width="0.5"/><polygon points="442.7,203.0 448.7,186.8 462.4,190.1 467.0,204.0 459.6,213.6" fill="#345631" stroke="#345631" stroke-width="0.5"/><polygon points="467.0,204.0 462.4,190.1 471.7,180.1 486.9,188.5 482.6,204.6" fill="#3d7ea6" stroke="#3d7ea6" stroke-width="0.5"/><polygon points="482.6,204.6 486.9,188.5 497.7,183.2 508.8,187.9 510.2,190.3 507.7,205.2 487.9,210.6" fill="#3d7ea6" stroke="#3d7ea6" stroke-width="0.5"/><polygon points="507.7,205.2 510.2,190.3 533.3,193.1 536.8,212.7 511.1,210.0" fill="#1f4e6b" stroke="#1f4e6b" stroke-width="0.5"/><polygon points="536.9,213.1 532.8,190.4 552.3,186.8 558.9,192.4 556.7,202.1 539.1,213.1" fill="#1f4e6b" stroke="#1f4e6b" stroke-width="0.5"/><polygon points="576.0,189.0 576.0,223.2 556.7,202.1 558.9,192.4" fill="#1f4e6b" stroke="#1f4e6b" stroke-width="0.5"/><polygon points="0.0,222.9 0.0,202.5 14.7,202.5 22.6,222.1" fill="#1f4e6b" stroke="#1f4e6b" stroke-width="0.5"/><polygon points="22.7,229.7 20.8,220.9 40.3,211.6 53.0,230.9 35.0,239.2" fill="#1f4e6b" stroke="#1f4e6b" stroke-width="0.5"/><polygon points="40.3,211.6 43.1,204.2 66.3,205.0 69.2,211.1 62.6,228.8 56.5,231.9 53.0,230.9" fill="#1f4e6b" stroke="#1f4e6b" stroke-width="0.5"/><polygon points="62.6,228.8 69.2,211.1 84.7,213.8 87.4,231.2 82.8,236.9" fill="#3d7ea6" stroke="#3d7ea6" stroke-width="0.5"/><polygon points="87.4,231.2 84.7,213.8 92.2,208.2 110.2,219.8 104.9,228.7" fill="#3d7ea6" stroke="#3d7ea6" stroke-width="0.5"/><polygon points="112.0,219.0 114.7,214.7 132.4,208.2 137.5,211.6 140.8,222.6 131.1,233.3" fill="#ccc580" stroke="#ccc580" stroke-width="0.5"/><polygon points="140.8,222.6 137.5,211.6 164.5,193.6 154.7,225.6" fill="#6a6642" stroke="#6a6642" stroke-width="0.5"/><polygon points="153.7,228.7 161.0,204.9 179.7,210.7 175.6,227.7" fill="#6a6642" stroke="#6a6642" stroke-width="0.5"/><polygon points="175.6,227.7 179.7,210.7 185.2,207.2 194.0,210.2 202.4,230.3 198.0,234.4" fill="#3d7ea6" stroke="#3d7ea6" stroke-width="0.5"/><polygon points="202.4,230.3 194.0,210.2 207.9,203.7 219.0,212.4 217.7,229.7" fill="#3d7ea6" stroke="#3d7ea6" stroke-width="0.5"/><polygon points="217.6,231.3 219.0,212.4 233.9,203.5 240.2,204.8 242.2,228.8" fill="#3d7ea6" stroke="#3d7ea6" stroke-width="0.5"/><polygon points="242.2,228.8 240.2,204.8 247.0,201.0 265.3,206.8 263.0,225.5 243.2,229.5" fill="#589052" stroke="#589052" stroke-width="0.5"/><polygon points="262.7,227.8 265.3,206.8 270.4,203.8 291.4,220.1 289.9,227.4 287.0,229.7" fill="#3d7ea6" stroke="#3d7ea6" stroke-width="0.5"/><polygon points="289.9,227.4 291.4,220.1 300.4,211.1 305.0,210.5 320.0,225.5 316.4,237.4 309.4,239.9" fill="#1f4e6b" stroke="#1f4e6b" stroke-width="0.5"/><polygon points="320.0,225.5 305.0,210.5 312.1,202.5 330.8,204.2 330.8,219.3" fill="#1f4e6b" stroke="#1f4e6b" stroke-width="0.5"/><polygon points="330.8,219.3 330.8,202.0 346.9,198.8 356.6,209.7 346.2,226.6" fill="#1f4e6b" stroke="#1f4e6b" stroke-width="0.5"/><polygon points="347.0,229.2 346.2,226.6 356.6,209.7 365.9,209.2 376.2,219.4 367.5,235.2 359.0,237.2" fill="#1f4e6b" stroke="#1f4e6b" stroke-width="0.5"/><polygon points="394.9,237.7 387.3,219.3 396.2,209.5 403.0,208.4 417.7,227.5 404.7,239.1" fill="#3d7ea6" stroke="#3d7ea6" stroke-width="0.5"/><polygon points="417.7,227.5 403.0,208.4 409.7,200.8 424.0,199.3 432.4,207.1 431.3,220.6 426.4,227.7" fill="#3d7ea6" stroke="#3d7ea6" stroke-width="0.5"/><polygon points="431.3,220.6 432.4,207.1 442.7,203.0 459.6,213.6 459.1,222.6" fill="#cdc580" stroke="#cdc580" stroke-width="0.5"/><polygon points="430.2,234.4 426.4,227.7 431.3,220.6 459.1,222.6 461.3,228.0 445.1,240.1" fill="#cdc580" stroke="#cdc580" stroke-width="0.5"/><polygon points="460.5,226.1 459.1,222.6 459.6,213.6 467.0,204.0 482.6,204.6 487.9,210.6 487.1,222.0 479.6,227.8" fill="#6a6642" stroke="#6a6642" stroke-width="0.5"/><polygon points="487.1,222.0 487.9,210.6 507.7,205.2 511.1,210.0 509.6,226.4 502.0,231.0" fill="#3d7ea6" stroke="#3d7ea6" stroke-width="0.5"/><polygon points="509.6,226.4 511.1,210.0 537.2,212.8 534.6,221.3 523.1,231.5" fill="#3d7ea6" stroke="#3d7ea6" stroke-width="0.5"/><polygon points="549.0,245.0 534.6,221.3 537.1,213.1 539.1,213.1 559.2,224.3" fill="#1f4e6b" stroke="#1f4e6b" stroke-width="0.5"/><polygon points="559.2,224.3 539.1,213.1 556.7,202.1 573.1,220.0" fill="#1f4e6b" stroke="#1f4e6b" stroke-width="0.5"/><polygon points="0.0,245.1 0.0,222.9 21.1,222.2 22.7,229.7 9.6,246.7" fill="#1f4e6b" stroke="#1f4e6b" stroke-width="0.5"/><polygon points="9.6,246.7 22.7,229.7 35.0,239.2 34.6,253.5 16.8,256.6" fill="#1f4e6b" stroke="#1f4e6b" stroke-width="0.5"/><polygon points="34.6,253.5 35.0,239.2 53.0,230.9 56.5,231.9 58.7,252.2 40.5,259.3" fill="#3d7ea6" stroke="#3d7ea6" stroke-width="0.5"/><polygon points="58.7,252.2 56.5,231.9 62.6,228.8 82.8,236.9 84.0,246.4 66.6,257.6" fill="#3d7ea6" stroke="#3d7ea6" stroke-width="0.5"/><polygon points="84.3,248.5 82.8,236.9 87.4,231.2 104.9,228.7 109.5,245.4" fill="#c1ba79" stroke="#c1ba79" stroke-width="0.5"/><polygon points="110.3,248.3 104.9,228.7 110.2,219.8 112.0,219.0 131.1,233.3 130.6,246.3" fill="#c3bb7a" stroke="#c3bb7a" stroke-width="0.5"/><polygon points="130.6,245.5 131.1,233.3 140.8,222.6 157.5,226.2 154.5,245.1 148.9,249.5" fill="#6a6642" stroke="#6a6642" stroke-width="0.5"/><polygon points="154.5,245.1 157.1,228.5 175.5,227.7 175.5,250.3" fill="#3d7ea6" stroke="#3d7ea6" stroke-width="0.5"/><polygon points="175.5,247.5 175.5,227.6 198.0,234.4 194.8,247.5" fill="#1f4e6b" stroke="#1f4e6b" stroke-width="0.5"/><polygon points="194.8,247.5 198.0,234.4 202.4,230.3 219.3,229.6 221.2,251.1 213.8,257.0 197.6,252.8" fill="#3d7ea6" stroke="#3d7ea6" stroke-width="0.5"/><polygon points="221.2,251.1 219.4,231.1 242.2,228.8 243.2,229.5 245.5,246.1 236.3,256.1" fill="#cdc580" stroke="#cdc580" stroke-width="0.5"/><polygon points="245.5,246.1 243.2,229.5 265.5,225.0 265.5,251.9" fill="#847f53" stroke="#847f53" stroke-width="0.5"/><polygon points="265.5,249.4 265.5,228.0 287.0,229.7 283.1,246.9" fill="#345631" stroke="#345631" stroke-width="0.5"/><polygon points="291.0,256.4 283.1,246.9 287.0,229.7 289.9,227.4 309.4,239.9 303.4,252.5" fill="#3d7ea6" stroke="#3d7ea6" stroke-width="0.5"/><polygon points="316.4,237.4 320.0,225.5 330.8,219.3 346.2,226.6 347.0,229.2 332.5,248.1 331.1,248.3" fill="#1f4e6b" stroke="#1f4e6b" stroke-width="0.5"/><polygon points="347.0,229.2 359.0,237.2 356.1,253.3 347.1,256.9 332.5,248.1" fill="#1f4e6b" stroke="#1f4e6b" stroke-width="0.5"/><polygon points="356.1,253.3 359.0,237.2 367.5,235.2 383.0,249.6 382.9,250.5 366.8,260.6" fill="#3d7ea6" stroke="#3d7ea6" stroke-width="0.5"/><polygon points="367.5,235.2 376.2,219.4 387.3,219.3 394.9,237.7 383.0,249.6" fill="#3d7ea6" stroke="#3d7ea6" stroke-width="0.5"/><polygon points="404.7,239.1 417.7,227.5 426.4,227.7 430.2,234.4 425.5,253.3 412.3,255.9" fill="#fff0bb" stroke="#fff0bb" stroke-width="0.5"/><polygon points="425.5,253.3 430.2,234.4 445.1,240.1 447.0,253.7 436.5,261.6" fill="#b3a99c" stroke="#b3a99c" stroke-width="0.5"/><polygon points="447.0,253.7 445.1,240.1 459.4,229.4 466.5,248.6 459.2,256.8" fill="#777067" stroke="#777067" stroke-width="0.5"/><polygon points="466.5,248.6 458.2,225.9 479.6,227.8 483.0,249.3" fill="#757149" stroke="#757149" stroke-width="0.5"/><polygon points="483.0,249.3 479.6,227.8 487.1,222.0 502.0,231.0 500.1,247.4" fill="#6a6642" stroke="#6a6642" stroke-width="0.5"/><polygon points="500.0,248.5 502.0,231.0 509.6,226.4 523.1,231.5 524.9,245.9" fill="#345631" stroke="#345631" stroke-width="0.5"/><polygon points="525.5,250.8 523.1,231.5 534.6,221.3 550.1,246.8" fill="#3d7ea6" stroke="#3d7ea6" stroke-width="0.5"/><polygon points="576.0,219.1 576.0,249.4 548.5,246.2 559.2,224.3" fill="#1f4e6b" stroke="#1f4e6b" stroke-width="0.5"/><polygon points="0.0,270.4 0.0,245.1 9.6,246.7 16.8,256.6 13.4,269.3" fill="#1f4e6b" stroke="#1f4e6b" stroke-width="0.5"/><polygon points="13.4,269.3 16.8,256.6 34.6,253.5 40.5,259.3 40.5,275.5 17.8,275.5" fill="#3d7ea6" stroke="#3d7ea6" stroke-width="0.5"/><polygon points="40.5,274.5 40.5,259.3 58.7,252.2 66.6,257.6 69.4,274.5" fill="#609e5a" stroke="#609e5a" stroke-width="0.5"/><polygon points="68.8,271.2 66.6,257.6 85.4,245.4 93.1,266.0 82.4,274.0" fill="#345631" stroke="#345631" stroke-width="0.5"/><polygon points="93.1,266.0 86.5,248.2 113.4,245.0 105.8,268.3" fill="#6a6642" stroke="#6a6642" stroke-width="0.5"/><polygon points="105.5,269.0 112.4,248.1 129.5,246.4 129.5,273.5" fill="#3d7ea6" stroke="#3d7ea6" stroke-width="0.5"/><polygon points="129.5,274.7 129.5,245.3 148.9,249.5 152.7,268.4 151.4,270.3" fill="#3d7ea6" stroke="#3d7ea6" stroke-width="0.5"/><polygon points="152.7,268.4 148.9,249.5 154.5,245.1 173.2,249.8 173.2,265.9" fill="#3d7ea6" stroke="#3d7ea6" stroke-width="0.5"/><polygon points="173.3,267.8 173.3,247.5 194.8,247.5 197.6,252.8 191.4,265.2" fill="#3d7ea6" stroke="#3d7ea6" stroke-width="0.5"/><polygon points="191.4,265.2 197.6,252.8 213.8,257.0 213.8,271.1 199.8,278.1" fill="#c0b878" stroke="#c0b878" stroke-width="0.5"/><polygon points="213.8,271.1 213.8,257.0 221.2,251.1 236.3,256.1 240.0,269.7 224.5,279.2" fill="#c4bd7b" stroke="#c4bd7b" stroke-width="0.5"/><polygon points="240.0,269.7 236.3,256.1 245.5,246.1 263.7,251.4 264.2,264.0 245.7,272.7" fill="#868154" stroke="#868154" stroke-width="0.5"/><polygon points="264.2,264.0 263.6,249.7 283.1,246.9 291.0,256.4 287.4,267.3 271.7,270.3" fill="#345631" stroke="#345631" stroke-width="0.5"/><polygon points="292.7,274.5 287.4,267.3 291.0,256.4 303.4,252.5 314.7,266.6 308.8,274.5" fill="#3d7ea6" stroke="#3d7ea6" stroke-width="0.5"/><polygon points="314.7,266.6 303.4,252.5 309.4,239.9 316.4,237.4 331.1,248.3 323.1,265.7" fill="#1f4e6b" stroke="#1f4e6b" stroke-width="0.5"/><polygon points="323.1,265.7 331.1,248.3 332.5,248.1 347.1,256.9 344.8,272.8 330.5,273.4" fill="#1f4e6b" stroke="#1f4e6b" stroke-width="0.5"/><polygon points="344.8,272.8 347.1,256.9 356.1,253.3 366.8,260.6 366.8,271.1 351.0,279.0" fill="#1f4e6b" stroke="#1f4e6b" stroke-width="0.5"/><polygon points="366.8,271.1 366.8,260.6 382.9,250.5 392.3,264.9 379.4,280.6" fill="#3d7ea6" stroke="#3d7ea6" stroke-width="0.5"/><polygon points="382.9,250.5 383.0,249.6 394.9,237.7 404.7,239.1 412.3,255.9 406.2,267.0 392.3,264.9" fill="#65a65f" stroke="#65a65f" stroke-width="0.5"/><polygon points="406.2,267.0 412.3,255.9 425.5,253.3 436.5,261.6 436.5,268.3 424.1,277.3 407.1,268.8" fill="#b3a99c" stroke="#b3a99c" stroke-width="0.5"/><polygon points="436.5,268.3 436.5,261.6 447.0,253.7 459.2,256.8 464.3,274.5 443.3,274.5" fill="#68625a" stroke="#68625a" stroke-width="0.5"/><polygon points="463.6,272.0 459.2,256.8 466.5,248.6 482.9,249.3 481.4,267.2" fill="#6a6642" stroke="#6a6642" stroke-width="0.5"/><polygon points="481.4,267.2 482.9,249.3 501.0,247.3 504.5,261.9 492.3,276.5" fill="#6a6642" stroke="#6a6642" stroke-width="0.5"/><polygon points="504.5,261.9 501.2,248.4 530.5,245.3 523.9,269.7" fill="#345631" stroke="#345631" stroke-width="0.5"/><polygon points="523.9,269.7 529.2,250.2 548.2,247.1 551.2,273.9 525.4,273.7" fill="#3d7ea6" stroke="#3d7ea6" stroke-width="0.5"/><polygon points="576.0,249.4 576.0,270.4 551.0,272.5 548.1,246.3 548.5,246.2" fill="#1f4e6b" stroke="#1f4e6b" stroke-width="0.5"/><polygon points="0.0,293.5 0.0,270.4 13.4,269.3 17.8,275.5 14.3,292.1" fill="#1f4e6b" stroke="#1f4e6b" stroke-width="0.5"/><polygon points="14.3,292.1 17.8,275.5 39.9,275.5 41.0,291.6 22.2,299.8" fill="#3d7ea6" stroke="#3d7ea6" stroke-width="0.5"/><polygon points="41.1,293.5 39.8,274.5 65.8,274.5 64.3,291.1" fill="#345631" stroke="#345631" stroke-width="0.5"/><polygon points="64.3,291.1 66.1,270.6 82.4,274.0 88.8,292.7 83.5,299.4 69.0,297.2" fill="#3d7ea6" stroke="#3d7ea6" stroke-width="0.5"/><polygon points="88.8,292.7 82.4,274.0 93.1,266.0 106.5,268.4 103.9,289.9" fill="#3d7ea6" stroke="#3d7ea6" stroke-width="0.5"/><polygon points="103.9,289.9 106.5,269.2 130.5,273.7 129.5,288.4 109.5,294.2" fill="#3d7ea6" stroke="#3d7ea6" stroke-width="0.5"/><polygon points="129.0,294.8 130.4,274.5 151.4,270.3 158.3,294.8" fill="#1f4e6b" stroke="#1f4e6b" stroke-width="0.5"/><polygon points="158.2,294.7 151.4,270.3 152.7,268.4 174.8,265.7 176.6,283.7 168.1,292.6" fill="#3d7ea6" stroke="#3d7ea6" stroke-width="0.5"/><polygon points="176.6,283.7 175.0,267.5 191.4,265.2 199.8,278.1 197.4,285.2 194.0,287.3" fill="#cbc37f" stroke="#cbc37f" stroke-width="0.5"/><polygon points="197.4,285.2 199.8,278.1 213.8,271.1 224.5,279.2 224.4,281.7 213.1,295.4" fill="#a39a8e" stroke="#a39a8e" stroke-width="0.5"/><polygon points="224.4,281.7 224.5,279.2 240.0,269.7 245.7,272.7 250.7,288.6 239.1,299.8" fill="#6a6642" stroke="#6a6642" stroke-width="0.5"/><polygon points="250.7,288.6 245.7,272.7 264.2,264.0 271.7,270.3 269.2,293.2" fill="#6a6642" stroke="#6a6642" stroke-width="0.5"/><polygon points="269.4,290.8 271.7,270.3 287.4,267.3 292.7,274.5 289.9,291.9 284.6,295.0" fill="#345631" stroke="#345631" stroke-width="0.5"/><polygon points="289.9,291.9 292.7,274.5 308.8,274.5 314.8,298.4" fill="#3d7ea6" stroke="#3d7ea6" stroke-width="0.5"/><polygon points="313.7,293.9 308.8,274.5 314.7,266.6 323.1,265.7 330.5,273.4 326.7,288.3" fill="#1f4e6b" stroke="#1f4e6b" stroke-width="0.5"/><polygon points="326.7,288.3 330.5,273.4 344.8,272.8 351.0,279.0 351.0,293.6 343.4,297.4" fill="#1f4e6b" stroke="#1f4e6b" stroke-width="0.5"/><polygon points="351.0,299.8 351.0,279.0 366.8,271.1 379.4,280.6 380.8,289.9" fill="#3d7ea6" stroke="#3d7ea6" stroke-width="0.5"/><polygon points="380.9,290.5 379.4,280.6 392.3,264.9 406.2,267.0 407.1,268.8 402.0,290.8" fill="#c4bd7b" stroke="#c4bd7b" stroke-width="0.5"/><polygon points="401.4,293.5 407.1,268.8 424.1,277.3 425.1,291.0" fill="#6f6b46" stroke="#6f6b46" stroke-width="0.5"/><polygon points="425.3,293.4 424.1,277.3 436.5,268.3 443.3,274.5 441.5,292.9" fill="#5c5751" stroke="#5c5751" stroke-width="0.5"/><polygon points="440.8,299.4 443.3,274.5 462.4,274.5 463.9,283.9" fill="#6a6642" stroke="#6a6642" stroke-width="0.5"/><polygon points="464.0,284.0 462.0,272.4 481.4,267.2 492.3,276.5 492.7,278.5 473.1,293.1" fill="#8f8366" stroke="#8f8366" stroke-width="0.5"/><polygon points="492.7,278.5 492.3,276.5 504.5,261.9 523.9,269.7 524.2,270.4 500.4,286.2" fill="#3d7ea6" stroke="#3d7ea6" stroke-width="0.5"/><polygon points="500.4,286.2 527.5,268.1 526.3,295.2 503.4,295.2" fill="#1f4e6b" stroke="#1f4e6b" stroke-width="0.5"/><polygon points="526.3,295.2 527.2,273.7 549.7,273.9 551.2,291.3 530.9,300.6" fill="#1f4e6b" stroke="#1f4e6b" stroke-width="0.5"/><polygon points="576.0,270.4 576.0,290.6 551.3,292.8 549.6,272.6" fill="#1f4e6b" stroke="#1f4e6b" stroke-width="0.5"/><polygon points="0.0,317.1 0.0,293.5 14.3,292.1 22.2,299.8 21.9,306.4 15.6,314.6" fill="#1f4e6b" stroke="#1f4e6b" stroke-width="0.5"/><polygon points="21.9,306.4 22.2,299.8 42.5,290.9 47.5,309.3 39.7,318.2" fill="#1f4e6b" stroke="#1f4e6b" stroke-width="0.5"/><polygon points="47.5,309.3 43.2,293.3 64.3,291.1 69.0,297.2 60.2,311.6" fill="#3d7ea6" stroke="#3d7ea6" stroke-width="0.5"/><polygon points="67.5,326.2 60.2,311.6 69.0,297.2 83.5,299.4 85.4,306.7" fill="#1f4e6b" stroke="#1f4e6b" stroke-width="0.5"/><polygon points="85.4,306.7 83.5,299.4 88.8,292.7 103.9,289.9 109.5,294.2 111.1,312.3 95.3,316.2" fill="#1f4e6b" stroke="#1f4e6b" stroke-width="0.5"/><polygon points="110.9,310.5 109.5,294.2 136.2,286.4 131.4,310.5" fill="#1f4e6b" stroke="#1f4e6b" stroke-width="0.5"/><polygon points="131.4,310.5 134.5,294.8 158.2,294.8 157.1,313.4 153.6,317.2 135.4,317.2" fill="#1f4e6b" stroke="#1f4e6b" stroke-width="0.5"/><polygon points="157.1,313.4 158.2,294.7 168.1,292.6 185.7,310.2 178.2,319.6" fill="#3d7ea6" stroke="#3d7ea6" stroke-width="0.5"/><polygon points="185.7,310.2 168.1,292.6 176.6,283.7 194.0,287.3 190.2,308.9" fill="#6a6642" stroke="#6a6642" stroke-width="0.5"/><polygon points="190.2,308.9 194.0,287.3 197.4,285.2 213.1,295.4 214.8,305.2 199.5,312.5" fill="#5c5751" stroke="#5c5751" stroke-width="0.5"/><polygon points="214.9,305.8 213.1,295.4 224.4,281.7 239.1,299.8 238.3,302.6" fill="#5c5751" stroke="#5c5751" stroke-width="0.5"/><polygon points="238.3,302.6 239.1,299.8 250.7,288.6 266.2,292.5 262.6,312.8 241.9,310.9" fill="#6a6642" stroke="#6a6642" stroke-width="0.5"/><polygon points="262.6,312.8 266.6,290.0 284.6,295.0 285.7,314.5 267.4,319.8" fill="#736f48" stroke="#736f48" stroke-width="0.5"/><polygon points="285.7,314.5 284.6,295.0 289.9,291.9 311.5,297.5 312.2,302.5 307.5,312.7 290.9,317.9" fill="#416c3d" stroke="#416c3d" stroke-width="0.5"/><polygon points="312.2,302.5 311.1,295.0 326.7,288.3 343.4,297.4 336.0,313.4" fill="#3d7ea6" stroke="#3d7ea6" stroke-width="0.5"/><polygon points="336.0,313.3 343.4,297.4 356.6,290.8 363.6,315.9 354.1,326.9" fill="#3d7ea6" stroke="#3d7ea6" stroke-width="0.5"/><polygon points="363.6,315.9 358.4,297.3 381.5,289.6 383.8,312.1 379.5,316.4" fill="#3d7ea6" stroke="#3d7ea6" stroke-width="0.5"/><polygon points="383.8,312.1 381.6,290.5 404.1,290.8 405.8,311.6 402.8,314.4" fill="#928c5b" stroke="#928c5b" stroke-width="0.5"/><polygon points="405.8,311.6 404.3,293.2 427.8,290.7 423.8,313.0" fill="#8f8959" stroke="#8f8959" stroke-width="0.5"/><polygon points="423.8,313.0 427.4,293.3 444.9,292.8 450.5,311.0 428.3,317.9" fill="#6a6642" stroke="#6a6642" stroke-width="0.5"/><polygon points="450.2,310.0 445.9,296.0 463.9,283.9 473.1,293.1 474.4,303.4" fill="#3d7ea6" stroke="#3d7ea6" stroke-width="0.5"/><polygon points="476.5,318.1 471.3,300.3 499.6,303.3 501.3,314.1 484.0,322.7" fill="#1f4e6b" stroke="#1f4e6b" stroke-width="0.5"/><polygon points="474.1,300.6 473.1,293.1 492.7,278.5 500.4,286.2 503.4,295.2 499.6,303.3" fill="#3d7ea6" stroke="#3d7ea6" stroke-width="0.5"/><polygon points="501.3,314.1 499.6,303.3 503.4,295.2 526.3,295.2 530.9,300.6 531.2,307.1 524.4,316.3 506.2,318.4" fill="#1f4e6b" stroke="#1f4e6b" stroke-width="0.5"/><polygon points="531.2,307.1 530.9,300.6 552.6,290.6 558.3,311.7 550.1,318.1" fill="#1f4e6b" stroke="#1f4e6b" stroke-width="0.5"/><polygon points="576.0,290.6 576.0,312.8 558.3,311.7 553.1,292.7" fill="#1f4e6b" stroke="#1f4e6b" stroke-width="0.5"/><polygon points="0.0,330.8 0.0,317.1 15.6,314.6 22.8,331.5 16.5,337.8" fill="#1f4e6b" stroke="#1f4e6b" stroke-width="0.5"/><polygon points="22.8,331.5 15.6,314.6 21.9,306.4 39.7,318.2 39.2,330.8" fill="#1f4e6b" stroke="#1f4e6b" stroke-width="0.5"/><polygon points="39.2,331.1 39.7,318.2 47.5,309.3 60.2,311.6 67.5,326.2 67.5,330.1" fill="#1f4e6b" stroke="#1f4e6b" stroke-width="0.5"/><polygon points="68.1,325.6 85.4,306.7 95.3,316.2 91.7,330.9" fill="#1f4e6b" stroke="#1f4e6b" stroke-width="0.5"/><polygon points="94.0,336.2 91.7,330.9 95.3,316.2 109.3,312.8 115.8,330.3 104.9,340.5" fill="#1f4e6b" stroke="#1f4e6b" stroke-width="0.5"/><polygon points="115.8,330.3 108.5,310.5 131.4,310.5 135.5,317.2 129.7,331.5" fill="#1f4e6b" stroke="#1f4e6b" stroke-width="0.5"/><polygon points="129.7,331.5 135.5,317.2 153.6,317.2 156.1,337.5 133.0,337.5" fill="#1f4e6b" stroke="#1f4e6b" stroke-width="0.5"/><polygon points="156.4,339.7 153.6,317.2 157.1,313.4 178.2,319.6 179.0,331.6" fill="#1f4e6b" stroke="#1f4e6b" stroke-width="0.5"/><polygon points="179.0,331.6 178.2,319.6 185.7,310.2 190.2,308.9 199.5,312.5 203.6,330.8 198.9,335.9 185.3,337.5" fill="#3d7ea6" stroke="#3d7ea6" stroke-width="0.5"/><polygon points="203.6,330.8 199.5,312.5 215.3,304.9 224.6,330.8" fill="#3d7ea6" stroke="#3d7ea6" stroke-width="0.5"/><polygon points="223.5,327.6 215.6,305.7 238.3,302.6 241.9,310.9 237.9,323.7" fill="#615b54" stroke="#615b54" stroke-width="0.5"/><polygon points="237.9,323.7 241.9,310.9 262.6,312.8 267.4,319.8 265.7,327.7 248.2,335.3" fill="#6a6642" stroke="#6a6642" stroke-width="0.5"/><polygon points="265.7,327.7 267.4,319.8 285.7,314.5 290.9,317.9 292.6,338.9 274.3,339.5" fill="#8e8959" stroke="#8e8959" stroke-width="0.5"/><polygon points="292.5,338.1 290.9,317.9 307.5,312.7 315.6,329.0 306.5,338.6" fill="#a7a169" stroke="#a7a169" stroke-width="0.5"/><polygon points="315.6,329.0 307.5,312.7 312.2,302.5 335.9,313.3 324.2,329.5" fill="#6a6642" stroke="#6a6642" stroke-width="0.5"/><polygon points="331.8,339.6 324.2,329.5 336.0,313.3 358.3,330.1" fill="#8f8366" stroke="#8f8366" stroke-width="0.5"/><polygon points="352.5,328.8 363.6,315.9 379.5,316.4 382.4,333.1 373.9,339.9 354.5,331.9" fill="#3d7ea6" stroke="#3d7ea6" stroke-width="0.5"/><polygon points="382.4,333.1 379.5,316.4 383.8,312.1 402.8,314.4 402.8,339.0" fill="#3e673a" stroke="#3e673a" stroke-width="0.5"/><polygon points="402.8,336.2 402.8,314.4 405.8,311.6 423.8,313.0 428.3,317.9 427.6,336.2" fill="#6a6642" stroke="#6a6642" stroke-width="0.5"/><polygon points="427.7,334.6 428.3,317.9 449.7,311.3 456.4,329.3 448.4,337.3" fill="#3d7ea6" stroke="#3d7ea6" stroke-width="0.5"/><polygon points="456.4,329.3 449.3,310.3 472.4,304.0 476.5,318.1 460.3,329.8" fill="#1f4e6b" stroke="#1f4e6b" stroke-width="0.5"/><polygon points="460.3,329.8 476.5,318.1 484.0,322.7 485.0,336.6 472.6,342.1" fill="#1f4e6b" stroke="#1f4e6b" stroke-width="0.5"/><polygon points="485.0,336.6 484.0,322.7 501.3,314.1 506.2,318.4 506.2,334.1 492.4,341.1" fill="#1f4e6b" stroke="#1f4e6b" stroke-width="0.5"/><polygon points="506.2,334.1 506.2,318.4 524.4,316.3 530.9,337.5 516.4,341.8" fill="#1f4e6b" stroke="#1f4e6b" stroke-width="0.5"/><polygon points="530.5,336.2 524.4,316.3 531.2,307.1 550.1,318.1 549.4,328.9" fill="#1f4e6b" stroke="#1f4e6b" stroke-width="0.5"/><polygon points="576.0,312.8 576.0,335.2 555.8,335.2 549.4,328.9 550.1,318.1 558.3,311.7" fill="#1f4e6b" stroke="#1f4e6b" stroke-width="0.5"/><polygon points="0.0,360.1 0.0,330.8 16.5,337.8 15.8,353.1" fill="#1f4e6b" stroke="#1f4e6b" stroke-width="0.5"/><polygon points="15.8,353.1 16.5,337.8 22.8,331.5 39.5,330.7 41.8,356.3 32.5,360.7" fill="#1f4e6b" stroke="#1f4e6b" stroke-width="0.5"/><polygon points="41.8,356.3 39.5,331.1 64.7,330.2 67.4,347.4 46.9,357.8" fill="#1f4e6b" stroke="#1f4e6b" stroke-width="0.5"/><polygon points="67.4,347.4 63.8,324.7 91.7,330.9 94.0,336.2 77.8,353.4" fill="#1f4e6b" stroke="#1f4e6b" stroke-width="0.5"/><polygon points="80.8,361.1 77.8,353.4 94.0,336.2 104.9,340.5 111.5,359.0 92.5,367.3" fill="#1f4e6b" stroke="#1f4e6b" stroke-width="0.5"/><polygon points="111.8,359.9 104.9,340.5 115.8,330.3 129.7,331.5 133.0,337.5 129.7,355.6" fill="#1f4e6b" stroke="#1f4e6b" stroke-width="0.5"/><polygon points="129.7,355.6 133.0,337.5 157.6,337.5 158.8,355.5 137.2,360.6" fill="#1f4e6b" stroke="#1f4e6b" stroke-width="0.5"/><polygon points="158.8,355.5 157.7,339.2 179.0,331.6 185.3,337.5 182.0,353.1 165.5,361.4" fill="#1f4e6b" stroke="#1f4e6b" stroke-width="0.5"/><polygon points="182.0,353.1 185.3,337.5 198.9,335.9 208.9,359.7 198.0,363.9" fill="#3d7ea6" stroke="#3d7ea6" stroke-width="0.5"/><polygon points="210.0,362.4 198.9,335.9 203.6,330.8 221.0,330.8 224.4,348.0" fill="#3d7ea6" stroke="#3d7ea6" stroke-width="0.5"/><polygon points="224.4,348.0 220.5,328.4 237.9,323.7 248.2,335.3 245.6,351.3" fill="#7a764d" stroke="#7a764d" stroke-width="0.5"/><polygon points="245.6,351.3 248.2,335.3 265.7,327.7 274.3,339.5 268.4,353.2 249.3,357.2" fill="#77724a" stroke="#77724a" stroke-width="0.5"/><polygon points="268.4,353.2 274.3,339.5 291.5,339.0 291.5,364.1 282.1,366.9" fill="#8b8557" stroke="#8b8557" stroke-width="0.5"/><polygon points="291.5,364.1 291.5,338.0 306.5,338.6 315.7,356.9 303.4,368.5" fill="#908a5a" stroke="#908a5a" stroke-width="0.5"/><polygon points="315.7,356.9 306.5,338.6 315.6,329.0 324.2,329.5 331.8,339.6 330.0,356.3" fill="#6a6642" stroke="#6a6642" stroke-width="0.5"/><polygon points="330.0,356.3 331.8,339.6 354.2,331.5 354.5,331.9 351.7,360.0 335.6,361.0" fill="#3d7ea6" stroke="#3d7ea6" stroke-width="0.5"/><polygon points="351.0,367.2 354.5,331.9 373.9,339.9 374.6,359.2" fill="#1f4e6b" stroke="#1f4e6b" stroke-width="0.5"/><polygon points="374.7,359.6 373.9,339.9 382.4,333.1 400.5,338.3 399.4,348.7" fill="#3d7ea6" stroke="#3d7ea6" stroke-width="0.5"/><polygon points="408.3,363.7 399.4,348.7 400.7,336.2 426.1,336.2 426.9,355.7 415.2,365.0" fill="#3d7ea6" stroke="#3d7ea6" stroke-width="0.5"/><polygon points="426.9,355.7 426.0,334.3 448.4,337.3 452.2,358.3 444.1,362.0" fill="#1f4e6b" stroke="#1f4e6b" stroke-width="0.5"/><polygon points="452.2,358.3 448.4,337.3 456.4,329.3 460.3,329.8 472.6,342.1 468.1,359.2 463.7,361.5" fill="#1f4e6b" stroke="#1f4e6b" stroke-width="0.5"/><polygon points="468.1,359.2 472.6,342.1 485.0,336.6 492.4,341.1 494.4,357.6 486.2,363.6" fill="#1f4e6b" stroke="#1f4e6b" stroke-width="0.5"/><polygon points="494.4,357.6 492.4,341.1 506.2,334.1 516.4,341.8 511.0,361.0" fill="#1f4e6b" stroke="#1f4e6b" stroke-width="0.5"/><polygon points="512.8,363.4 511.0,361.0 516.4,341.8 529.7,337.8 540.2,358.1 526.6,367.9" fill="#1f4e6b" stroke="#1f4e6b" stroke-width="0.5"/><polygon points="540.2,358.1 529.2,336.7 549.4,328.9 555.8,335.2 549.8,359.2" fill="#1f4e6b" stroke="#1f4e6b" stroke-width="0.5"/><polygon points="576.0,335.2 576.0,360.0 550.9,360.0 549.8,359.2 555.8,335.2" fill="#1f4e6b" stroke="#1f4e6b" stroke-width="0.5"/><polygon points="0.0,368.7 0.0,360.1 15.8,353.1 32.5,360.7 26.6,385.6" fill="#1f4e6b" stroke="#1f4e6b" stroke-width="0.5"/><polygon points="60.2,396.0 28.9,396.0 26.6,385.6 32.5,360.7 41.8,356.3 46.9,357.8 61.3,382.1" fill="#1f4e6b" stroke="#1f4e6b" stroke-width="0.5"/><polygon points="61.3,382.1 46.9,357.8 67.4,347.4 77.8,353.4 80.8,361.1" fill="#1f4e6b" stroke="#1f4e6b" stroke-width="0.5"/><polygon points="93.7,396.0 60.2,396.0 61.3,382.1 80.8,361.1 92.5,367.3" fill="#1f4e6b" stroke="#1f4e6b" stroke-width="0.5"/><polygon points="121.0,396.0 93.7,396.0 92.5,367.3 112.8,358.4" fill="#1f4e6b" stroke="#1f4e6b" stroke-width="0.5"/><polygon points="140.6,396.0 121.0,396.0 113.0,359.6 129.7,355.6 137.2,360.6" fill="#1f4e6b" stroke="#1f4e6b" stroke-width="0.5"/><polygon points="147.6,396.0 140.6,396.0 137.2,360.6 158.8,355.5 165.5,361.4 165.6,362.4" fill="#1f4e6b" stroke="#1f4e6b" stroke-width="0.5"/><polygon points="188.0,396.0 147.6,396.0 165.6,362.4 187.2,385.5" fill="#3d7ea6" stroke="#3d7ea6" stroke-width="0.5"/><polygon points="187.2,385.5 165.6,362.4 165.5,361.4 182.0,353.1 198.0,363.9" fill="#3d7ea6" stroke="#3d7ea6" stroke-width="0.5"/><polygon points="224.0,396.0 188.0,396.0 187.2,385.5 198.0,363.9 211.2,358.8 225.3,380.4" fill="#e0e9d6" stroke="#e0e9d6" stroke-width="0.5"/><polygon points="225.3,380.4 212.2,360.2 224.4,348.0 245.6,351.3 249.3,357.2 248.4,362.6" fill="#63a35d" stroke="#63a35d" stroke-width="0.5"/><polygon points="271.1,396.0 224.0,396.0 225.3,380.4 248.4,362.6" fill="#6098b8" stroke="#6098b8" stroke-width="0.5"/><polygon points="268.0,391.4 248.4,362.6 249.3,357.2 268.4,353.2 282.1,366.9" fill="#aeb6a7" stroke="#aeb6a7" stroke-width="0.5"/><polygon points="311.6,396.0 265.3,396.0 282.1,366.9 291.5,364.1 303.4,368.5" fill="#a8afa1" stroke="#a8afa1" stroke-width="0.5"/><polygon points="328.6,396.0 311.6,396.0 303.4,368.5 315.7,356.9 330.0,356.3 335.6,361.0" fill="#7c8177" stroke="#7c8177" stroke-width="0.5"/><polygon points="359.2,396.0 328.6,396.0 335.6,361.0 359.2,359.5" fill="#3d7ea6" stroke="#3d7ea6" stroke-width="0.5"/><polygon points="388.7,396.0 359.2,396.0 359.2,364.4 374.9,359.1 390.5,378.8" fill="#1f4e6b" stroke="#1f4e6b" stroke-width="0.5"/><polygon points="390.5,378.8 375.2,359.4 399.4,348.7 408.3,363.7" fill="#1f4e6b" stroke="#1f4e6b" stroke-width="0.5"/><polygon points="428.6,396.0 388.7,396.0 390.5,378.8 408.3,363.7 415.2,365.0" fill="#1f4e6b" stroke="#1f4e6b" stroke-width="0.5"/><polygon points="435.5,396.0 428.6,396.0 415.2,365.0 426.9,355.7 444.1,362.0" fill="#1f4e6b" stroke="#1f4e6b" stroke-width="0.5"/><polygon points="464.5,396.0 435.5,396.0 444.1,362.0 452.2,358.3 463.7,361.5" fill="#1f4e6b" stroke="#1f4e6b" stroke-width="0.5"/><polygon points="490.7,396.0 464.5,396.0 463.7,361.5 468.1,359.2 486.2,363.6" fill="#1f4e6b" stroke="#1f4e6b" stroke-width="0.5"/><polygon points="497.7,396.0 490.7,396.0 486.2,363.6 494.4,357.6 511.0,361.0 512.8,363.4" fill="#1f4e6b" stroke="#1f4e6b" stroke-width="0.5"/><polygon points="531.6,396.0 497.7,396.0 512.8,363.4 526.6,367.9" fill="#1f4e6b" stroke="#1f4e6b" stroke-width="0.5"/><polygon points="552.9,396.0 531.6,396.0 526.6,367.9 540.2,358.1 549.8,359.2 550.9,360.0" fill="#1f4e6b" stroke="#1f4e6b" stroke-width="0.5"/><polygon points="576.0,360.0 576.0,396.0 552.9,396.0 550.9,360.0" fill="#1f4e6b" stroke="#1f4e6b" stroke-width="0.5"/><polygon points="28.9,396.0 0.0,396.0 0.0,368.7 26.6,385.6" fill="#1f4e6b" stroke="#1f4e6b" stroke-width="0.5"/></g><path d="M118.5,15.2 L119.0,0.0 M173.9,0.0 L170.2,19.2 M239.5,21.1 L242.5,0.0 M311.1,0.0 L308.9,20.9 M308.9,20.9 L304.9,23.1 M401.2,19.7 L399.6,17.3 M399.6,17.3 L402.3,0.0 M456.1,0.0 L459.5,17.8 M111.6,37.4 L111.6,19.1 M111.6,19.1 L118.5,15.2 M131.3,38.6 L117.7,41.8 M117.7,41.8 L111.6,37.4 M136.0,42.7 L131.3,38.6 M170.2,19.2 L176.4,23.1 M176.4,23.1 L196.1,20.8 M196.1,20.8 L195.2,48.4 M240.2,39.3 L241.7,21.3 M257.2,47.5 L249.8,46.6 M249.8,46.6 L240.2,39.3 M304.9,23.1 L301.7,39.0 M396.0,42.5 L401.2,19.7 M459.5,17.8 L470.1,19.7 M470.1,19.7 L482.0,12.0 M482.0,12.0 L490.5,17.1 M490.5,17.1 L508.5,13.5 M508.5,13.5 L525.5,16.9 M525.5,16.9 L530.7,36.8 M530.7,36.8 L508.5,42.0 M130.3,65.7 L136.0,42.7 M147.7,66.5 L130.3,65.7 M196.4,48.7 L198.0,58.5 M260.4,57.6 L257.2,47.5 M301.7,39.0 L312.3,48.2 M312.3,48.2 L307.8,64.9 M365.6,56.0 L366.5,52.0 M366.5,52.0 L379.2,39.3 M379.2,39.3 L392.7,44.4 M392.7,44.4 L396.0,42.5 M510.1,40.5 L511.8,56.4 M511.8,56.4 L505.7,64.5 M505.7,64.5 L492.1,67.2 M151.7,84.3 L147.7,66.5 M164.6,84.8 L151.7,84.3 M198.0,58.5 L200.4,60.6 M200.4,60.6 L225.7,58.3 M225.7,58.3 L230.9,65.7 M230.9,65.7 L225.1,76.5 M250.6,79.7 L246.5,71.5 M246.5,71.5 L260.4,57.6 M311.5,71.4 L332.7,68.3 M332.7,68.3 L335.9,58.7 M335.9,58.7 L344.3,54.7 M344.3,54.7 L356.5,59.5 M356.5,59.5 L365.6,56.0 M492.1,67.2 L489.3,75.5 M489.3,75.5 L482.5,82.1 M482.5,82.1 L478.9,83.0 M171.9,104.3 L164.6,84.8 M225.1,76.5 L229.1,90.1 M229.1,90.1 L236.6,94.7 M236.6,94.7 L250.6,79.7 M478.9,83.0 L471.2,96.4 M188.6,124.6 L169.3,105.6 M262.4,128.0 L259.7,129.0 M282.2,135.7 L262.4,128.0 M471.2,96.4 L484.5,110.5 M484.5,110.5 L482.8,117.9 M482.8,117.9 L460.7,123.7 M187.5,129.7 L188.6,124.6 M219.2,134.5 L201.7,140.2 M201.7,140.2 L187.5,129.7 M221.5,146.0 L219.2,134.5 M246.9,147.1 L235.4,157.1 M235.4,157.1 L221.5,146.0 M259.7,129.0 L252.2,146.5 M252.2,146.5 L246.9,147.1 M284.1,139.5 L282.2,135.7 M307.3,139.5 L284.1,139.5 M326.4,154.6 L310.9,149.3 M310.9,149.3 L307.3,139.5 M427.5,141.1 L420.7,150.0 M445.5,142.6 L427.5,141.1 M465.8,118.2 L465.8,140.0 M465.8,140.0 L445.5,144.0 M330.2,173.6 L326.4,154.6 M338.0,174.0 L330.2,173.6 M405.1,175.2 L403.2,176.5 M403.2,176.5 L397.8,176.3 M420.7,150.0 L430.1,164.7 M430.1,164.7 L423.1,176.0 M423.1,176.0 L405.1,175.2 M175.2,183.0 L183.8,166.6 M183.8,166.6 L199.9,175.8 M199.9,175.8 L201.5,183.9 M350.1,181.3 L338.0,174.0 M373.1,186.3 L351.3,183.3 M351.3,183.3 L350.1,181.3 M397.8,176.3 L381.8,188.8 M381.8,188.8 L373.3,188.5 M92.2,208.2 L93.8,194.2 M93.8,194.2 L111.2,192.9 M110.2,219.8 L92.2,208.2 M111.0,191.4 L129.5,189.9 M129.5,189.9 L132.3,187.0 M132.3,187.0 L156.0,191.8 M156.0,191.8 L161.1,184.2 M161.1,184.2 L175.2,183.0 M185.2,207.2 L179.7,210.7 M201.5,183.9 L210.1,189.5 M210.1,189.5 L207.9,203.7 M207.9,203.7 L194.0,210.2 M194.0,210.2 L185.2,207.2 M424.0,199.3 L428.3,184.5 M428.3,184.5 L449.5,184.5 M432.4,207.1 L424.0,199.3 M448.7,186.8 L462.4,190.1 M462.4,190.1 L467.0,204.0 M179.7,210.7 L175.6,227.7 M175.6,227.7 L153.7,228.7 M242.2,228.8 L240.2,204.8 M240.2,204.8 L247.0,201.0 M247.0,201.0 L265.3,206.8 M265.3,206.8 L263.0,225.5 M431.3,220.6 L432.4,207.1 M426.4,227.7 L431.3,220.6 M467.0,204.0 L482.6,204.6 M482.6,204.6 L487.9,210.6 M487.9,210.6 L487.1,222.0 M84.3,248.5 L82.8,236.9 M82.8,236.9 L87.4,231.2 M87.4,231.2 L104.9,228.7 M104.9,228.7 L110.2,219.8 M130.6,246.3 L110.3,248.3 M157.5,226.2 L154.5,245.1 M154.5,245.1 L148.9,249.5 M148.9,249.5 L130.6,245.5 M221.2,251.1 L219.4,231.1 M219.4,231.1 L242.2,228.8 M265.5,228.0 L287.0,229.7 M287.0,229.7 L283.1,246.9 M404.7,239.1 L417.7,227.5 M417.7,227.5 L426.4,227.7 M487.1,222.0 L502.0,231.0 M502.0,231.0 L509.6,226.4 M509.6,226.4 L523.1,231.5 M523.1,231.5 L524.9,245.9 M40.5,274.5 L40.5,259.3 M40.5,259.3 L58.7,252.2 M58.7,252.2 L66.6,257.6 M66.6,257.6 L85.4,245.4 M93.1,266.0 L82.4,274.0 M82.4,274.0 L68.8,271.2 M113.4,245.0 L105.8,268.3 M105.8,268.3 L93.1,266.0 M191.4,265.2 L197.6,252.8 M197.6,252.8 L213.8,257.0 M213.8,257.0 L221.2,251.1 M283.1,246.9 L291.0,256.4 M291.0,256.4 L287.4,267.3 M382.9,250.5 L383.0,249.6 M383.0,249.6 L394.9,237.7 M394.9,237.7 L404.7,239.1 M392.3,264.9 L382.9,250.5 M504.5,261.9 L492.3,276.5 M530.5,245.3 L523.9,269.7 M523.9,269.7 L504.5,261.9 M41.1,293.5 L39.8,274.5 M65.8,274.5 L64.3,291.1 M64.3,291.1 L41.1,293.5 M176.6,283.7 L175.0,267.5 M175.0,267.5 L191.4,265.2 M287.4,267.3 L292.7,274.5 M292.7,274.5 L289.9,291.9 M380.9,290.5 L379.4,280.6 M379.4,280.6 L392.3,264.9 M463.9,283.9 L440.8,299.4 M492.3,276.5 L492.7,278.5 M492.7,278.5 L473.1,293.1 M473.1,293.1 L464.0,284.0 M185.7,310.2 L168.1,292.6 M168.1,292.6 L176.6,283.7 M190.2,308.9 L185.7,310.2 M214.8,305.2 L199.5,312.5 M199.5,312.5 L190.2,308.9 M289.9,291.9 L311.5,297.5 M311.5,297.5 L312.2,302.5 M383.8,312.1 L381.6,290.5 M444.9,292.8 L450.5,311.0 M450.5,311.0 L428.3,317.9 M223.5,327.6 L215.6,305.7 M312.2,302.5 L335.9,313.3 M336.0,313.3 L358.3,330.1 M358.3,330.1 L331.8,339.6 M382.4,333.1 L379.5,316.4 M379.5,316.4 L383.8,312.1 M402.8,339.0 L382.4,333.1 M428.3,317.9 L427.6,336.2 M427.6,336.2 L402.8,336.2 M224.4,348.0 L220.5,328.4 M331.8,339.6 L330.0,356.3 M188.0,396.0 L187.2,385.5 M187.2,385.5 L198.0,363.9 M198.0,363.9 L211.2,358.8 M212.2,360.2 L224.4,348.0 M330.0,356.3 L335.6,361.0 M335.6,361.0 L328.6,396.0" fill="none" stroke="#283640" stroke-width="2.0" stroke-linecap="round"/></svg>