<svg xmlns="http://www.w3.org/2000/svg" width="630" height="630" viewBox="0 0 630 630"><rect width="630" height="630" fill="#c9d2bb"/><polygon points="444.3,97.0 463.0,104.9 481.0,114.9 497.6,127.6 512.2,143.2 524.1,161.7 532.9,182.5 538.6,205.3 541.1,229.2 540.9,253.8 538.3,278.4 534.0,302.8 528.0,326.9 520.5,350.6 511.5,373.8 500.7,396.2 488.0,417.6 473.4,437.5 457.0,455.5 439.2,471.2 420.4,484.6 401.2,495.9 381.8,505.4 362.6,513.5 343.5,520.9 324.3,527.7 304.9,534.0 285.0,539.5 264.7,543.5 244.1,545.5 223.7,544.8 203.9,540.8 185.4,533.5 168.6,522.8 153.8,509.3 141.2,493.4 130.6,475.6 121.9,456.6 114.9,436.6 109.5,415.9 105.6,394.4 103.4,372.4 102.9,349.7 104.4,326.7 108.0,303.4 113.6,280.1 121.2,257.0 130.6,234.3 141.7,212.2 154.4,190.8 168.6,170.2 184.4,150.7 201.7,132.7 220.5,116.5 240.5,102.8 261.5,91.8 283.0,83.8 304.7,78.8 326.0,76.6 346.8,76.7 367.0,78.5 386.7,81.6 406.1,85.7 425.3,90.8" fill="#e6dcc0"/><g stroke="#4a4230" stroke-width="1" stroke-linejoin="round"><polygon points="435.0,172.3 407.1,208.1 400.0,209.3 394.0,204.7 382.3,159.5 421.6,149.8" fill="#c2b48f"/><polygon points="103.9,334.4 104.4,326.7 108.0,303.4 113.6,280.1 121.2,257.0 122.1,254.7 166.2,287.7 161.6,307.8 112.8,335.6" fill="#c2b48f"/><polygon points="473.6,437.2 473.4,437.5 457.0,455.5 439.2,471.2 420.4,484.6 414.8,487.9 398.8,434.5 444.5,423.7" fill="#c2b48f"/><polygon points="174.9,444.9 166.6,417.1 200.6,413.4 210.9,445.3 204.9,453.5" fill="#dfd6c0"/><polygon points="230.2,545.0 223.7,544.8 203.9,540.8 185.4,533.5 171.4,524.6 182.1,491.7 207.8,476.4 240.3,494.8" fill="#b9a98c"/><polygon points="126.6,467.0 121.9,456.6 119.5,449.7 159.5,412.0 160.3,412.1 166.6,417.1 174.9,444.9 157.7,465.3" fill="#dfd6c0"/><polygon points="407.1,208.1 435.0,172.3 461.8,176.9 474.0,189.0 454.6,240.4" fill="#c2b48f"/><polygon points="480.3,114.6 481.0,114.9 497.6,127.6 512.2,143.2 519.8,155.0 485.5,188.7 474.0,189.0 461.8,176.9" fill="#d8cdb0"/><polygon points="147.7,202.0 154.4,190.8 168.6,170.2 184.4,150.7 185.5,149.5 231.3,170.7 231.9,205.1 207.3,226.5" fill="#d8cdb0"/><polygon points="231.9,205.1 231.3,170.7 234.1,168.2 293.9,153.4 305.8,185.0 273.4,220.6" fill="#cdbf9e"/><polygon points="397.2,433.5 392.2,433.1 361.0,391.5 360.9,382.3 377.1,368.0 408.7,371.3" fill="#c2b48f"/><polygon points="211.9,398.8 185.6,370.0 183.6,353.6 224.4,339.2 239.2,386.2 226.4,397.4" fill="#c2b48f"/><polygon points="200.6,413.4 166.6,417.1 160.3,412.1 185.6,370.0 211.9,398.8" fill="#dfd6c0"/><polygon points="185.5,149.5 201.7,132.7 220.5,116.5 240.5,102.8 241.9,102.0 234.1,168.2 231.3,170.7" fill="#dfd6c0"/><polygon points="171.4,524.6 168.6,522.8 153.8,509.3 141.2,493.4 130.6,475.6 126.6,467.0 157.7,465.3 182.1,491.7" fill="#cdbf9e"/><polygon points="519.8,155.0 524.1,161.7 532.9,182.5 538.6,205.3 540.0,218.9 521.9,219.4 485.5,188.7" fill="#d8cdb0"/><polygon points="472.1,368.2 432.0,368.8 424.8,364.4 425.4,320.6 428.5,317.4 467.4,311.1 487.0,328.5" fill="#cdbf9e"/><polygon points="289.1,327.8 268.7,274.5 284.8,255.7 320.5,259.2 333.1,318.0 322.6,326.0" fill="#d9c08a"/><polygon points="226.4,397.4 239.2,386.2 267.3,389.8 270.2,434.3 257.5,442.7 238.6,436.0" fill="#d8cdb0"/><polygon points="355.7,125.5 365.2,150.5 336.4,197.2 305.8,185.0 293.9,153.4 297.2,141.9" fill="#d8cdb0"/><polygon points="394.0,204.7 400.0,209.3 380.3,258.0 338.3,246.7 337.6,199.0" fill="#cdbf9e"/><polygon points="428.5,317.4 425.4,320.6 372.6,311.1 380.4,258.2 423.2,269.7" fill="#c2b48f"/><polygon points="424.0,132.9 421.6,149.8 382.3,159.5 365.2,150.5 355.7,125.5 365.7,100.6" fill="#dfd6c0"/><polygon points="355.8,449.7 324.3,435.2 361.0,391.5 392.2,433.1" fill="#cdbf9e"/><polygon points="227.2,335.4 220.4,281.5 268.7,274.5 289.1,327.8 279.6,337.2" fill="#dfd6c0"/><polygon points="253.5,486.2 257.5,442.7 270.2,434.3 312.0,441.8 302.6,496.7" fill="#d8cdb0"/><polygon points="161.6,307.8 166.2,287.7 209.3,273.7 220.4,281.5 227.2,335.4 224.4,339.2 183.6,353.6 182.0,352.8" fill="#cdbf9e"/><polygon points="480.4,260.6 455.8,244.7 454.6,240.4 474.0,189.0 485.5,188.7 521.9,219.4 480.6,260.6" fill="#b9a98c"/><polygon points="400.0,209.3 407.1,208.1 454.6,240.4 455.8,244.7 423.2,269.7 380.4,258.2 380.3,258.0" fill="#b9a98c"/><polygon points="362.9,513.4 362.6,513.5 343.5,520.9 324.3,527.7 324.0,527.8 302.6,496.7 312.0,441.8 321.4,435.2 324.3,435.2 355.8,449.7" fill="#c2b48f"/><polygon points="414.8,487.9 401.2,495.9 381.8,505.4 362.9,513.4 355.8,449.7 392.2,433.1 397.2,433.5 398.8,434.5" fill="#cdbf9e"/><polygon points="122.1,254.7 130.6,234.3 141.7,212.2 147.7,202.0 207.3,226.5 209.3,273.7 166.2,287.7" fill="#cdbf9e"/><polygon points="267.3,389.8 239.2,386.2 224.4,339.2 227.2,335.4 279.6,337.2 280.2,379.9" fill="#cdbf9e"/><polygon points="320.5,259.2 284.8,255.7 273.4,220.6 305.8,185.0 336.4,197.2 337.6,199.0 338.3,246.7" fill="#d8cdb0"/><polygon points="455.5,101.7 463.0,104.9 480.3,114.6 461.8,176.9 435.0,172.3 421.6,149.8 424.0,132.9" fill="#cdbf9e"/><polygon points="119.5,449.7 114.9,436.6 109.5,415.9 106.2,397.4 135.4,391.0 159.5,412.0" fill="#cdbf9e"/><polygon points="240.3,494.8 207.8,476.4 204.9,453.5 210.9,445.3 238.6,436.0 257.5,442.7 253.5,486.2" fill="#c2b48f"/><polygon points="112.8,335.6 161.6,307.8 182.0,352.8 142.9,363.1" fill="#d8cdb0"/><polygon points="207.3,226.5 231.9,205.1 273.4,220.6 284.8,255.7 268.7,274.5 220.4,281.5 209.3,273.7" fill="#d8cdb0"/><polygon points="382.3,159.5 394.0,204.7 337.6,199.0 336.4,197.2 365.2,150.5" fill="#cdbf9e"/><polygon points="241.9,102.0 261.5,91.8 271.5,88.1 297.2,141.9 293.9,153.4 234.1,168.2" fill="#cdbf9e"/><polygon points="160.3,412.1 159.5,412.0 135.4,391.0 142.9,363.1 182.0,352.8 183.6,353.6 185.6,370.0" fill="#cdbf9e"/><polygon points="324.0,527.8 304.9,534.0 285.0,539.5 264.7,543.5 244.1,545.5 230.2,545.0 240.3,494.8 253.5,486.2 302.6,496.7" fill="#cdbf9e"/><polygon points="425.4,320.6 424.8,364.4 408.7,371.3 377.1,368.0 362.1,318.6 372.6,311.1" fill="#c2b48f"/><polygon points="498.9,399.2 488.0,417.6 473.6,437.2 444.5,423.7 432.0,368.8 472.1,368.2" fill="#d8cdb0"/><polygon points="377.1,368.0 360.9,382.3 330.0,372.2 322.6,326.0 333.1,318.0 362.1,318.6" fill="#cdbf9e"/><polygon points="333.1,318.0 320.5,259.2 338.3,246.7 380.3,258.0 380.4,258.2 372.6,311.1 362.1,318.6" fill="#c2b48f"/><polygon points="210.9,445.3 200.6,413.4 211.9,398.8 226.4,397.4 238.6,436.0" fill="#cdbf9e"/><polygon points="467.4,311.1 428.5,317.4 423.2,269.7 455.8,244.7 480.4,260.6" fill="#cdbf9e"/><polygon points="270.2,434.3 267.3,389.8 280.2,379.9 308.5,389.1 321.4,435.2 312.0,441.8" fill="#d8cdb0"/><polygon points="444.5,423.7 398.8,434.5 397.2,433.5 408.7,371.3 424.8,364.4 432.0,368.8" fill="#d8cdb0"/><polygon points="157.7,465.3 174.9,444.9 204.9,453.5 207.8,476.4 182.1,491.7" fill="#cdbf9e"/><polygon points="106.2,397.4 105.6,394.4 103.4,372.4 102.9,349.7 103.9,334.4 112.8,335.6 142.9,363.1 135.4,391.0" fill="#cdbf9e"/><polygon points="360.9,382.3 361.0,391.5 324.3,435.2 321.4,435.2 308.5,389.1 330.0,372.2" fill="#d8cdb0"/><polygon points="540.0,218.9 541.1,229.2 540.9,253.8 538.3,278.4 536.4,289.0 480.6,260.6 521.9,219.4" fill="#dfd6c0"/><polygon points="444.3,97.0 455.5,101.7 424.0,132.9 365.7,100.6 365.3,78.4 367.0,78.5 386.7,81.6 406.1,85.7 425.3,90.8" fill="#d8cdb0"/><polygon points="528.2,326.3 528.0,326.9 520.5,350.6 511.5,373.8 500.7,396.2 498.9,399.2 472.1,368.2 487.0,328.5" fill="#cdbf9e"/><polygon points="271.5,88.1 283.0,83.8 304.7,78.8 326.0,76.6 346.8,76.7 365.3,78.4 365.7,100.6 355.7,125.5 297.2,141.9" fill="#dfd6c0"/><polygon points="536.4,289.0 534.0,302.8 528.2,326.3 487.0,328.5 467.4,311.1 480.4,260.6 480.6,260.6" fill="#c2b48f"/><polygon points="308.5,389.1 280.2,379.9 279.6,337.2 289.1,327.8 322.6,326.0 330.0,372.2" fill="#c2b48f"/></g><g fill="#7d6c52" stroke="#4a3e2e" stroke-width="0.5" stroke-linejoin="round"><polygon points="410.9,197.4 405.1,204.8 400.9,205.5 397.1,202.6 393.6,189.0 407.7,185.4"/><polygon points="426.7,179.1 415.8,193.2 413.1,182.7"/><polygon points="430.4,171.9 415.7,175.7 410.7,156.3 419.8,154.0"/><polygon points="409.5,178.2 391.4,182.9 389.4,175.5 407.6,170.8"/><polygon points="388.0,169.7 385.9,161.7 404.0,157.2 406.0,165.1"/><polygon points="119.2,270.9 123.2,258.6 131.0,264.4 122.2,276.2"/><polygon points="135.1,268.4 143.0,274.4 131.1,290.3 125.7,280.9"/><polygon points="156.7,306.7 144.6,313.6 134.8,296.4 137.8,292.4"/><polygon points="148.2,278.6 162.3,289.2 159.8,300.3 142.0,286.9"/><polygon points="111.5,302.3 116.6,280.9 117.3,278.9 125.9,294.0"/><polygon points="117.5,306.7 128.8,300.3 138.2,316.9 126.9,323.3"/><polygon points="107.3,331.6 107.6,327.0 110.2,310.3 111.2,309.7 121.2,327.2 112.2,332.3"/><polygon points="424.0,478.3 418.8,482.1 416.6,483.4 410.9,464.3 419.1,461.9"/><polygon points="438.9,467.5 437.4,468.9 429.2,474.8 424.8,460.0 435.7,456.8"/><polygon points="458.9,449.5 455.2,453.6 443.6,463.9 440.9,454.9"/><polygon points="442.9,445.1 437.9,428.0 444.2,426.5 450.2,429.3"/><polygon points="468.7,438.2 465.5,441.8 448.4,446.9 455.2,432.0"/><polygon points="420.2,454.5 409.6,457.6 403.5,437.2 415.5,434.4"/><polygon points="437.8,449.5 427.2,452.6 422.5,432.5 432.1,430.2"/><polygon points="177.8,442.0 171.4,420.2 182.7,419.0 185.4,444.1"/><polygon points="204.9,436.5 207.6,444.8 203.8,450.1 192.3,446.8 191.4,437.9"/><polygon points="189.2,417.6 198.5,416.6 203.1,430.7 190.7,432.0"/><polygon points="217.8,486.6 235.8,496.9 233.7,507.4 214.4,503.5"/><polygon points="184.6,497.4 185.5,494.5 207.9,481.1 210.4,482.5 206.6,501.8"/><polygon points="194.2,532.5 187.3,529.7 176.4,522.8 182.1,505.4 199.0,508.7"/><polygon points="226.8,540.7 224.2,540.6 205.1,536.8 202.2,535.6 207.2,510.4 231.9,515.3"/><polygon points="127.9,461.3 125.1,455.3 123.5,450.7 136.2,438.7 143.6,446.5"/><polygon points="148.4,450.9 157.6,460.7 156.3,462.3 135.0,463.5"/><polygon points="168.7,434.9 171.4,444.2 161.5,455.9 154.4,448.4"/><polygon points="140.7,433.9 149.4,425.7 158.9,435.7 150.1,444.0"/><polygon points="153.2,421.5 160.0,415.2 164.4,418.6 167.3,428.3 163.2,432.1"/><polygon points="461.0,215.0 458.2,222.4 442.0,216.3 448.6,206.5"/><polygon points="456.3,227.9 453.3,236.1 436.1,224.5 438.4,221.1"/><polygon points="464.3,184.2 470.0,189.8 463.0,208.5 452.6,201.4"/><polygon points="436.0,175.5 436.1,175.3 460.0,179.4 454.3,187.9"/><polygon points="428.0,186.5 432.7,180.4 450.6,192.6 446.3,198.9"/><polygon points="434.9,199.0 442.6,204.2 431.4,220.6 423.7,215.4"/><polygon points="411.5,207.4 424.0,191.3 429.8,195.2 418.3,212.0"/><polygon points="505.5,163.2 483.8,184.6 475.7,184.7 466.5,175.6 473.1,153.5"/><polygon points="482.7,121.5 494.8,130.8 508.9,145.8 514.4,154.4 512.3,156.4 475.5,145.5"/><polygon points="223.6,206.8 206.5,221.6 190.3,215.0 197.9,196.3"/><polygon points="210.5,165.7 227.2,173.4 227.6,199.4 201.1,188.5"/><polygon points="172.8,171.6 186.6,154.6 202.9,162.2 195.2,180.8"/><polygon points="153.8,200.0 157.9,193.0 167.9,178.6 192.0,188.6 182.5,211.8"/><polygon points="247.9,168.7 257.7,166.3 263.7,190.4 253.8,192.8"/><polygon points="235.4,197.6 235.0,172.3 235.9,171.5 240.6,170.3 246.6,194.8"/><polygon points="259.5,198.7 266.0,197.0 270.8,216.3 255.1,210.4"/><polygon points="235.1,203.8 253.3,199.3 249.6,209.3"/><polygon points="302.1,183.3 302.4,184.4 290.1,197.9 280.1,188.8"/><polygon points="286.0,202.3 276.3,212.9 271.0,191.1 273.2,190.6"/><polygon points="282.1,160.0 291.7,157.7 299.1,177.3 287.1,180.3"/><polygon points="264.8,164.2 275.1,161.7 280.1,182.1 269.9,184.6"/><polygon points="389.5,372.3 405.1,374.0 403.2,384.5 387.8,381.6"/><polygon points="402.0,390.4 400.0,401.1 384.8,398.3 386.8,387.6"/><polygon points="368.2,379.2 377.9,370.6 384.1,371.3 382.2,381.7"/><polygon points="367.4,395.1 364.0,390.5 363.9,383.9 380.7,387.0 378.8,397.2"/><polygon points="394.5,430.0 393.9,430.0 383.4,416.0 395.8,406.7 398.7,407.3"/><polygon points="379.4,412.1 371.3,401.3 389.3,404.6"/><polygon points="196.4,376.2 189.2,368.3 187.7,356.1 197.8,352.6 205.2,373.5"/><polygon points="204.1,349.7 222.4,343.2 225.1,351.8 206.9,357.5"/><polygon points="227.0,357.8 229.7,366.5 212.0,372.0 209.0,363.4"/><polygon points="213.1,395.8 200.5,382.0 212.0,378.4 217.4,395.4"/><polygon points="218.3,377.0 231.4,372.9 235.2,385.1 225.0,394.1 223.7,394.2"/><polygon points="177.5,412.6 167.6,413.7 164.6,411.3 173.8,396.0 183.9,402.1"/><polygon points="199.5,411.3 183.6,413.0 189.1,403.9 200.1,410.5"/><polygon points="177.1,390.4 186.1,375.4 195.7,385.8 185.3,395.3"/><polygon points="200.1,390.1 208.2,399.0 202.6,406.2 190.4,398.9"/><polygon points="213.7,127.4 222.8,119.6 237.1,109.8 234.7,129.9"/><polygon points="223.3,135.5 234.7,136.8 233.3,148.7 218.0,146.9"/><polygon points="232.5,154.8 231.1,166.7 230.7,167.0 212.7,158.6 215.4,152.8"/><polygon points="192.0,148.3 204.3,135.5 205.7,134.2 215.7,135.4 206.6,155.1"/><polygon points="143.9,469.4 156.3,468.7 166.6,479.8 159.6,486.3"/><polygon points="148.2,496.6 144.1,491.4 133.7,474.0 132.0,470.2 135.2,470.0 154.4,490.9"/><polygon points="160.4,494.0 171.2,484.1 178.9,492.5 176.6,499.3"/><polygon points="169.6,519.0 156.3,506.9 152.5,502.1 155.7,499.1 174.1,505.1"/><polygon points="534.7,208.3 535.3,214.8 523.4,215.2 491.7,188.5 503.6,176.8"/><polygon points="519.1,161.5 520.5,163.6 529.0,183.8 531.3,193.1 509.5,170.9"/><polygon points="436.4,365.4 432.9,365.5 428.2,362.6 428.4,341.8 436.7,341.9"/><polygon points="451.8,365.1 443.2,365.2 443.5,342.1 452.1,342.2"/><polygon points="458.5,347.7 458.6,341.9 478.6,342.2 474.3,353.6"/><polygon points="470.3,365.5 457.9,365.7 458.0,353.6 472.6,359.1"/><polygon points="472.9,319.6 483.8,329.3 481.1,336.4 472.6,336.3"/><polygon points="458.5,315.8 466.4,314.5 467.0,315.1 466.8,335.8 458.2,335.6"/><polygon points="443.0,318.2 452.2,316.7 452.0,335.6 442.8,335.5"/><polygon points="428.0,335.6 428.2,321.8 429.8,320.0 437.1,318.9 436.8,335.7"/><polygon points="231.2,398.7 240.5,390.6 263.4,393.5 264.3,408.0 234.8,409.9"/><polygon points="264.9,416.4 265.9,432.1 256.9,438.1 242.0,432.8 237.4,418.2"/><polygon points="333.9,191.7 309.1,181.8 298.4,153.2 300.6,145.4 319.5,140.1"/><polygon points="353.2,130.6 360.6,150.1 340.2,183.1 327.5,137.8"/><polygon points="340.9,223.9 340.6,202.2 348.1,203.0 345.9,224.4"/><polygon points="354.2,203.9 362.6,204.8 360.5,225.6 352.1,224.7"/><polygon points="357.7,248.1 342.0,243.9 341.8,230.6 359.3,232.4"/><polygon points="392.8,207.9 396.1,210.4 388.6,228.8 380.3,225.5 387.7,207.3"/><polygon points="374.4,223.3 367.3,220.4 368.9,205.2 381.2,206.5"/><polygon points="382.8,243.6 378.5,254.4 364.2,250.5 365.1,241.8"/><polygon points="386.6,234.6 385.3,237.9 365.6,235.9 366.5,226.5"/><polygon points="425.4,316.4 424.3,317.4 415.7,315.9 419.4,295.5 423.1,296.1"/><polygon points="409.8,314.7 402.3,313.3 405.9,293.2 413.4,294.5"/><polygon points="407.4,286.8 410.5,269.8 420.0,272.4 421.9,289.5"/><polygon points="378.1,295.1 379.2,287.9 400.1,291.0 398.7,298.8"/><polygon points="396.3,312.2 376.1,308.6 377.2,301.2 397.6,304.9"/><polygon points="379.9,281.9 382.9,262.0 391.1,264.2 386.1,282.9"/><polygon points="396.9,265.7 404.4,267.7 401.2,285.1 392.1,283.7"/><polygon points="361.7,118.6 367.2,104.8 377.3,110.4 370.2,123.3"/><polygon points="382.6,113.8 395.4,120.9 388.6,133.1 375.9,126.0"/><polygon points="364.5,141.6 358.4,125.6 359.3,123.5 371.0,130.0"/><polygon points="377.5,153.4 367.8,148.3 367.7,147.8 375.7,133.4 385.6,138.9"/><polygon points="405.4,150.7 383.0,156.3 390.6,142.5"/><polygon points="403.1,142.6 393.7,137.3 401.2,123.8 410.6,129.0"/><polygon points="421.0,134.4 419.1,147.5 413.8,148.9 408.0,145.7 415.9,131.6"/><polygon points="344.8,440.4 330.4,433.9 342.9,419.0 354.5,428.8"/><polygon points="355.8,446.6 350.3,444.1 360.3,432.3 369.8,440.2"/><polygon points="347.6,413.2 360.8,397.5 369.8,409.5 355.8,420.0"/><polygon points="374.3,415.5 386.3,431.6 375.6,436.5 361.7,424.9"/><polygon points="270.5,289.2 273.9,298.0 252.7,306.1 249.3,297.3"/><polygon points="243.0,281.6 266.6,278.1 268.3,282.7 246.6,291.0"/><polygon points="228.0,316.0 226.5,304.6 244.1,302.3 246.6,308.9"/><polygon points="225.9,298.1 224.1,284.4 236.4,282.6 241.5,296.1"/><polygon points="230.7,331.6 229.6,322.9 247.1,316.2 253.2,332.4"/><polygon points="253.7,313.2 261.5,310.2 270.3,333.5 261.3,333.2"/><polygon points="268.2,307.9 276.4,304.8 284.8,326.8 278.1,333.5 278.0,333.5"/><polygon points="260.1,459.5 261.5,445.1 271.2,438.7 307.1,445.2 303.5,466.9"/><polygon points="258.0,482.8 259.4,467.9 302.1,475.2 299.2,491.7"/><polygon points="219.0,292.7 220.8,306.8 211.0,308.1 209.2,294.0"/><polygon points="205.4,308.8 195.8,310.0 194.0,295.9 203.7,294.7"/><polygon points="192.9,282.6 208.7,277.5 217.3,283.5 217.7,286.7 193.8,289.7"/><polygon points="167.3,296.3 168.7,290.1 186.7,284.3 187.9,293.7"/><polygon points="165.4,307.4 166.4,303.1 188.1,300.3 189.4,310.0 167.8,312.7"/><polygon points="195.1,346.3 184.2,350.1 179.3,339.4 193.5,333.0"/><polygon points="177.0,333.2 170.8,319.5 191.0,317.0 192.1,326.4"/><polygon points="223.5,331.3 223.9,334.5 222.4,336.4 201.2,343.9 200.0,334.3"/><polygon points="220.7,313.5 222.0,324.4 199.6,327.2 198.3,316.3"/><polygon points="470.2,210.8 476.9,193.1 484.0,193.0 492.8,200.4 477.7,218.4"/><polygon points="499.2,205.8 515.7,219.7 497.3,238.0 483.7,224.3"/><polygon points="480.0,255.3 459.4,242.1 459.0,240.6 467.0,219.5 491.4,243.9"/><polygon points="409.2,242.4 398.1,258.7 385.7,255.4 393.5,236.1"/><polygon points="403.0,213.0 406.1,212.5 422.0,223.3 413.8,235.4 396.8,228.5"/><polygon points="430.5,259.6 422.4,265.8 405.6,261.3 414.3,248.5"/><polygon points="429.0,228.0 451.0,243.0 451.0,243.1 436.5,254.2 419.2,242.4"/><polygon points="353.6,459.9 355.7,478.4 345.8,479.5 343.7,461.0"/><polygon points="339.6,480.5 331.7,481.4 329.6,462.3 337.5,461.5"/><polygon points="327.6,440.6 352.5,452.0 352.6,453.2 329.3,455.8"/><polygon points="312.2,457.6 314.6,443.5 321.0,438.9 323.0,456.4"/><polygon points="308.8,483.2 312.0,464.3 322.8,463.0 324.9,481.4"/><polygon points="313.3,505.4 306.7,495.8 307.6,491.0 326.7,488.9 328.4,503.7"/><polygon points="331.6,522.2 325.1,524.5 316.3,511.8 330.2,510.2"/><polygon points="359.1,511.1 342.2,517.6 337.6,519.2 336.2,507.1 358.4,504.6"/><polygon points="335.7,499.8 334.4,488.0 355.9,485.5 357.3,497.3"/><polygon points="385.0,500.2 380.5,502.4 365.7,508.7 364.3,496.7 384.4,494.5"/><polygon points="363.9,489.8 362.6,477.8 381.9,475.6 383.2,487.6"/><polygon points="409.7,488.0 400.0,493.7 390.6,498.3 389.7,490.3"/><polygon points="389.8,484.4 388.7,474.5 406.7,472.5 409.6,482.2"/><polygon points="382.5,441.2 392.8,436.5 396.0,436.7 399.7,449.0 383.9,453.7"/><polygon points="401.7,455.3 404.9,466.2 385.5,468.3 384.6,460.4"/><polygon points="359.4,456.2 358.9,451.5 376.5,443.5 377.7,454.2"/><polygon points="361.3,471.2 360.3,462.2 378.2,460.1 379.2,469.2"/><polygon points="166.3,213.4 182.4,220.0 177.8,231.3 161.7,224.7"/><polygon points="175.3,237.7 171.0,248.2 154.7,241.5 159.0,231.0"/><polygon points="143.3,215.5 144.2,213.6 148.9,205.7 160.7,210.5 156.4,220.9"/><polygon points="134.7,233.3 140.8,221.2 153.7,226.5 148.5,239.0"/><polygon points="156.3,249.1 168.7,254.2 164.3,265.0 149.1,258.7"/><polygon points="162.4,270.5 159.0,278.9 142.7,266.7 145.1,263.4"/><polygon points="126.8,253.4 132.3,240.1 149.2,247.0 138.0,261.9"/><polygon points="185.4,272.3 179.3,253.5 191.1,258.4"/><polygon points="205.9,264.9 206.2,271.6 189.4,277.1 196.1,260.9"/><polygon points="181.1,279.1 166.8,283.8 164.5,282.0 174.3,258.2"/><polygon points="204.4,231.2 205.5,258.1 195.0,253.8"/><polygon points="193.4,242.3 189.5,252.0 177.9,247.3 181.9,237.6"/><polygon points="188.5,221.8 199.8,226.5 195.4,237.2 184.1,232.5"/><polygon points="233.5,355.3 228.7,339.9 229.1,339.3 248.4,340.0 247.9,355.8"/><polygon points="247.4,383.8 241.7,383.1 235.3,362.6 248.1,363.0"/><polygon points="261.3,385.8 253.8,384.9 254.6,363.4 262.1,363.7"/><polygon points="267.5,385.7 268.3,363.9 276.9,364.2 277.1,378.4"/><polygon points="269.4,339.8 276.7,340.0 277.0,358.2 268.7,357.9"/><polygon points="254.6,357.3 255.3,339.3 263.5,339.6 262.9,357.6"/><polygon points="285.8,245.2 278.1,221.7 289.9,208.7 305.9,223.2"/><polygon points="319.3,254.8 291.0,252.0 312.1,228.9 331.4,246.5"/><polygon points="295.6,202.5 307.0,190.0 333.4,200.5 334.0,237.5"/><polygon points="472.6,128.1 468.9,140.7 452.5,135.8 456.3,123.2"/><polygon points="460.5,107.0 461.7,107.5 476.8,116.0 475.0,122.0 457.6,116.9"/><polygon points="453.0,109.1 445.7,133.7 432.3,129.7"/><polygon points="425.5,145.7 427.0,135.4 445.9,141.0 442.9,150.9"/><polygon points="437.8,170.0 436.7,169.8 426.3,152.3 441.7,156.9"/><polygon points="462.5,163.3 459.6,173.3 443.8,170.6 447.3,158.8"/><polygon points="467.4,147.1 464.4,157.4 449.0,152.8 452.1,142.6"/><polygon points="140.8,399.7 155.0,412.1 148.3,418.4 135.4,404.8"/><polygon points="144.2,422.6 139.0,427.4 125.9,413.5 131.0,408.7"/><polygon points="112.7,399.1 134.6,394.4 136.1,395.7 122.0,409.0"/><polygon points="112.4,418.8 111.5,415.4 109.3,402.9 118.6,412.9"/><polygon points="121.1,443.2 118.4,435.5 115.4,423.8 121.4,418.2 133.7,431.3"/><polygon points="253.2,457.3 252.4,465.3 234.5,463.7 235.2,455.6"/><polygon points="236.7,439.8 238.6,439.2 254.3,444.8 253.7,451.4 235.8,449.7"/><polygon points="211.6,448.6 212.4,447.4 231.1,441.2 230.2,450.3"/><polygon points="209.0,461.3 208.1,454.3 208.4,453.8 229.3,455.7 228.6,463.1"/><polygon points="225.0,482.6 210.7,474.5 209.8,467.4 226.2,468.9"/><polygon points="237.6,490.0 230.6,486.0 232.1,469.3 239.4,470.0"/><polygon points="243.2,489.7 245.0,470.3 252.1,471.0 250.9,484.6"/><polygon points="119.9,336.4 133.3,328.8 149.4,357.0 144.0,358.4"/><polygon points="140.6,324.6 159.7,313.8 176.1,350.0 157.8,354.8"/><polygon points="275.2,239.9 280.1,254.7 266.5,270.5 252.5,272.6 248.3,243.9"/><polygon points="243.9,214.1 270.0,223.9 272.6,231.8 247.1,235.6"/><polygon points="211.6,228.4 232.8,209.9 234.9,210.8 238.4,234.0 212.0,237.9"/><polygon points="239.6,242.3 244.2,273.8 221.5,277.2 213.4,271.5 212.3,246.3"/><polygon points="384.5,183.2 388.9,200.4 370.3,198.5 372.0,181.9"/><polygon points="379.8,161.5 383.7,176.4 371.8,175.2 373.5,158.2"/><polygon points="362.7,197.7 341.9,195.6 352.3,178.8 363.9,186.0"/><polygon points="355.2,172.5 366.3,154.6 367.8,155.4 365.4,178.8"/><polygon points="271.8,155.1 267.6,156.2 261.3,130.6 274.5,132.1"/><polygon points="289.4,133.7 293.5,142.3 291.2,150.5 279.1,153.5 281.5,132.8"/><polygon points="261.0,158.1 237.9,163.8 239.4,151.6 260.0,154.0"/><polygon points="240.5,144.7 242.4,128.4 253.6,129.7 257.8,146.7"/><polygon points="270.0,91.6 278.5,109.4 267.3,114.7"/><polygon points="280.9,114.6 286.8,127.0 266.2,124.6 266.6,121.5"/><polygon points="244.5,103.9 262.6,94.4 264.0,93.8 262.5,106.8 244.4,104.7"/><polygon points="261.4,112.8 260.1,123.5 242.9,121.5 244.1,110.8"/><polygon points="147.8,364.3 160.7,360.9 164.2,374.1"/><polygon points="166.8,360.4 180.4,356.8 181.9,369.2 175.6,379.8 171.2,377.1"/><polygon points="145.1,394.7 139.4,389.8 144.8,369.5 156.1,376.3"/><polygon points="159.2,406.7 150.8,399.4 162.3,380.4 171.6,385.9"/><polygon points="244.7,542.1 244.0,542.1 234.4,541.8 238.4,521.5 248.4,523.6"/><polygon points="263.6,540.4 251.5,541.6 254.9,524.6 266.3,526.9"/><polygon points="296.4,533.0 284.3,536.3 270.5,539.1 272.6,528.2"/><polygon points="281.5,519.5 286.0,497.1 300.4,500.1 303.4,504.5"/><polygon points="299.7,528.2 283.9,525.0 293.2,518.7"/><polygon points="318.7,526.0 309.7,528.9 306.3,528.2 298.4,516.6 307.8,510.2"/><polygon points="274.0,522.1 258.8,519.1 260.9,508.7 276.1,511.7"/><polygon points="262.1,502.7 264.3,491.7 279.4,494.9 277.3,505.7"/><polygon points="242.1,499.5 242.7,496.5 254.0,489.1 258.7,490.1 256.2,502.4"/><polygon points="253.0,518.1 239.1,515.3 241.1,505.1 255.0,507.8"/><polygon points="366.3,319.5 373.4,314.4 393.9,318.1 392.8,324.2"/><polygon points="370.6,335.1 367.9,326.3 391.5,330.6 390.1,338.6"/><polygon points="385.0,365.3 379.8,364.7 373.1,342.5 388.6,345.3"/><polygon points="404.0,367.4 392.0,366.1 395.3,348.0 407.1,350.2"/><polygon points="422.1,352.2 422.0,362.6 410.3,367.6 413.4,350.6"/><polygon points="422.1,323.4 421.7,346.0 412.0,344.2 416.0,322.3"/><polygon points="405.4,342.9 396.5,341.2 400.4,319.6 409.4,321.2"/><polygon points="493.0,400.9 484.5,415.3 472.2,432.0 448.1,420.8 446.0,411.6"/><polygon points="444.2,403.4 437.2,373.0 470.2,372.4 488.3,393.4"/><polygon points="362.9,332.6 366.2,343.5 349.3,348.6 346.1,337.7"/><polygon points="340.7,321.2 359.9,321.5 361.4,326.5 343.9,331.8"/><polygon points="327.2,337.5 325.5,327.2 334.0,320.8 334.6,320.8 338.6,334.1"/><polygon points="330.1,354.8 328.3,343.1 340.1,339.6 343.5,350.8"/><polygon points="349.2,375.0 332.9,369.7 331.5,360.9 343.8,357.2"/><polygon points="373.7,367.1 360.3,379.0 356.6,377.8 354.1,369.7 372.8,364.0"/><polygon points="352.6,363.8 350.0,355.2 368.2,349.6 370.8,358.3"/><polygon points="332.7,299.4 330.3,288.6 349.1,284.5 351.4,295.4"/><polygon points="335.9,314.6 334.1,306.2 352.9,302.2 355.6,315.0"/><polygon points="371.7,298.8 370.1,309.5 362.0,315.3 359.1,301.5"/><polygon points="355.8,283.0 373.9,279.1 371.9,292.5 358.4,295.4"/><polygon points="356.1,255.5 376.2,260.8 374.6,271.6 360.2,274.7"/><polygon points="337.6,252.0 339.1,250.9 347.8,253.3 352.7,276.3 343.3,278.3"/><polygon points="328.8,281.9 324.2,260.6 331.1,255.9 336.3,280.3"/><polygon points="207.0,420.7 204.9,414.1 213.9,402.5 223.7,401.5 227.7,414.2"/><polygon points="212.7,441.7 208.1,427.4 217.1,424.6 221.6,438.7"/><polygon points="222.3,422.8 230.7,420.2 235.2,434.3 226.8,437.1"/><polygon points="473.8,271.5 470.5,284.3 452.8,279.7 456.1,266.9"/><polygon points="459.5,250.6 477.1,261.9 476.2,265.3 457.0,260.4"/><polygon points="426.6,273.7 426.3,271.0 436.1,263.5 446.6,277.2 446.2,278.8"/><polygon points="440.5,259.9 453.9,249.6 448.6,270.4"/><polygon points="438.1,312.9 431.0,314.0 429.3,298.7 442.1,297.3"/><polygon points="428.8,292.8 427.4,280.1 445.3,284.7 443.6,291.2"/><polygon points="465.4,308.9 443.9,312.4 446.1,303.6 465.4,308.6"/><polygon points="448.5,298.1 451.4,286.8 468.9,291.3 466.0,302.6"/><polygon points="273.1,413.9 271.7,391.7 281.0,384.6 305.1,392.4 308.3,404.0"/><polygon points="274.2,430.7 273.7,422.5 310.6,412.1 316.6,433.5 311.0,437.4"/><polygon points="439.5,420.6 402.2,429.4 407.6,399.9 435.9,405.1"/><polygon points="409.2,391.6 412.4,374.3 424.4,369.1 428.3,371.5 433.9,396.2"/><polygon points="197.0,479.1 182.7,487.7 176.6,481.1 188.6,470.0"/><polygon points="202.6,456.5 204.9,474.9 202.5,476.4 192.6,465.7"/><polygon points="174.1,450.6 175.9,448.4 196.5,454.3 186.2,463.8"/><polygon points="162.1,465.2 170.1,455.7 181.4,467.9 172.3,476.3"/><polygon points="106.4,350.0 106.4,349.8 107.1,338.3 111.3,338.9 124.7,351.1 116.9,359.6"/><polygon points="105.7,373.6 105.6,372.2 105.3,356.7 114.0,364.6"/><polygon points="108.9,393.4 107.5,379.9 111.8,375.3 127.2,389.4"/><polygon points="138.7,369.6 133.9,387.8 127.4,381.9"/><polygon points="116.4,370.3 129.8,355.7 137.3,362.6 124.0,377.2"/><polygon points="356.8,385.3 356.8,390.0 345.4,403.6 321.9,383.9 330.8,376.9"/><polygon points="340.0,410.0 324.0,429.0 313.3,390.7 315.2,389.2"/><polygon points="535.4,273.8 535.0,277.9 533.9,283.9 514.5,274.0 518.9,265.4"/><polygon points="537.7,255.3 536.5,267.1 521.5,259.5 526.5,249.6"/><polygon points="538.0,226.4 538.3,229.4 538.1,249.0 528.9,244.4"/><polygon points="509.1,237.5 523.5,223.1 532.5,222.8 521.8,244.0"/><polygon points="508.5,270.9 500.9,267.1 511.3,246.6 518.9,250.5"/><polygon points="495.0,264.4 485.9,259.8 503.4,242.3 505.6,243.4"/><polygon points="442.8,100.9 448.1,103.1 423.2,127.7 404.8,117.5 418.3,93.3 424.1,94.8"/><polygon points="397.5,113.4 369.9,98.1 369.6,83.2 386.0,85.8 405.1,89.8 409.9,91.1"/><polygon points="503.6,382.6 498.3,393.7 486.2,379.5 494.7,372.2"/><polygon points="513.0,362.5 509.0,372.7 506.8,377.4 498.7,368.0 507.5,360.4"/><polygon points="482.0,373.8 476.5,367.4 482.2,352.2 499.6,358.7"/><polygon points="502.5,351.7 484.8,345.1 489.6,332.1 501.4,331.5"/><polygon points="523.0,330.3 517.0,349.4 514.3,356.2 510.2,354.6 508.9,331.1"/><polygon points="348.7,123.8 337.8,126.8 332.4,107.7 343.4,104.6"/><polygon points="362.7,98.6 362.8,100.0 354.6,120.4 349.5,102.3"/><polygon points="345.7,79.9 346.7,79.9 362.1,81.4 362.3,92.2 350.1,95.6"/><polygon points="324.9,80.5 326.2,80.3 338.5,80.4 343.1,97.1 330.6,100.6"/><polygon points="292.5,125.4 288.2,116.4 301.5,110.1 305.8,119.1"/><polygon points="313.1,134.5 298.7,138.5 295.0,130.6 308.3,124.3"/><polygon points="323.2,100.2 326.6,112.5 311.5,116.7 307.2,107.8"/><polygon points="328.6,118.4 331.6,129.2 318.8,132.8 313.9,122.5"/><polygon points="300.3,83.5 305.3,82.4 317.4,81.1 320.9,93.6 308.1,99.7"/><polygon points="299.0,96.0 302.4,103.2 285.7,111.1 282.3,104.0"/><polygon points="275.6,89.7 283.9,86.7 293.4,84.5 296.4,90.7 279.8,98.6"/><polygon points="476.2,289.5 482.5,265.1 490.3,269.0 479.1,291.0"/><polygon points="496.1,272.7 505.1,277.2 494.5,298.2 485.5,293.6"/><polygon points="483.3,320.2 471.6,309.8 475.0,296.6 491.1,304.8"/><polygon points="527.1,318.5 525.8,323.5 511.5,324.2 510.7,310.2"/><polygon points="505.1,324.1 488.9,325.0 499.1,304.9 504.2,307.5"/><polygon points="532.7,290.8 530.7,302.1 528.2,312.1 517.9,306.9 527.4,288.1"/><polygon points="511.9,303.6 502.4,298.7 511.7,280.4 521.2,285.2"/><polygon points="321.9,341.5 323.5,351.4 306.5,354.1 304.9,344.2"/><polygon points="302.3,329.9 320.2,328.9 321.2,335.6 303.7,338.4"/><polygon points="282.4,342.3 282.3,338.3 290.3,330.4 296.7,330.1 298.3,339.8"/><polygon points="283.0,357.9 282.8,348.1 298.9,345.6 300.4,355.1"/><polygon points="283.4,373.7 283.2,364.3 301.4,361.3 302.9,370.6"/><polygon points="306.0,385.6 286.1,379.1 304.5,376.2"/><polygon points="308.5,360.8 323.9,358.4 325.8,370.5 311.8,381.6"/></g><g fill="none" stroke-linecap="round" stroke-linejoin="round"><path d="M407.3,176.7 L388.1,182.1 L367.8,182.3" stroke="#6c604a" stroke-width="3.4"/><path d="M367.8,182.3 L365.8,201.8 L365.3,225.9" stroke="#6c604a" stroke-width="3.4"/><path d="M407.3,176.7 L421.0,190.2 L443.5,202.6" stroke="#6c604a" stroke-width="3.4"/><path d="M367.8,182.3 L350.8,173.9 L329.6,159.3" stroke="#6c604a" stroke-width="3.4"/><path d="M443.5,202.6 L464.3,214.7 L484.7,224.1" stroke="#6c604a" stroke-width="3.4"/><path d="M484.7,224.1 L501.3,240.0 L519.3,252.6" stroke="#6c604a" stroke-width="3.4"/><path d="M484.7,224.1 L503.7,204.1 L516.7,190.6" stroke="#6c604a" stroke-width="3.4"/><path d="M516.7,190.6 L502.6,171.9 L488.0,155.4" stroke="#6c604a" stroke-width="3.4"/><path d="M488.0,155.4 L471.1,145.7 L450.9,140.0" stroke="#6c604a" stroke-width="3.4"/><path d="M407.3,176.7 L401.9,154.6 L386.8,133.6" stroke="#6c604a" stroke-width="3.4"/><path d="M386.8,133.6 L394.9,116.7 L407.4,103.1" stroke="#6c604a" stroke-width="3.4"/><path d="M443.5,202.6 L430.8,224.2 L415.5,241.6" stroke="#6c604a" stroke-width="3.4"/><path d="M519.3,252.6 L508.5,274.8 L500.8,299.3" stroke="#6c604a" stroke-width="3.4"/><path d="M415.5,241.6 L401.8,264.0 L400.9,291.1" stroke="#6c604a" stroke-width="3.4"/><path d="M400.9,291.1 L399.0,315.8 L396.1,341.0" stroke="#6c604a" stroke-width="3.4"/><path d="M396.1,341.0 L369.6,343.3 L348.9,348.8" stroke="#6c604a" stroke-width="3.4"/><path d="M348.9,348.8 L326.3,349.1 L303.5,356.3" stroke="#6c604a" stroke-width="3.4"/><path d="M303.5,356.3 L279.9,358.6 L255.2,360.4" stroke="#6c604a" stroke-width="3.4"/><path d="M255.2,360.4 L231.8,362.7 L212.6,369.6" stroke="#6c604a" stroke-width="3.4"/><path d="M212.6,369.6 L198.8,384.4 L186.4,398.5" stroke="#6c604a" stroke-width="3.4"/><path d="M186.4,398.5 L173.0,391.1 L160.5,379.4" stroke="#6c604a" stroke-width="3.4"/><path d="M186.4,398.5 L183.6,415.2 L189.7,432.4" stroke="#6c604a" stroke-width="3.4"/><path d="M189.7,432.4 L205.7,429.3 L219.0,421.2" stroke="#6c604a" stroke-width="3.4"/><path d="M219.0,421.2 L232.5,416.7 L250.5,412.8" stroke="#6c604a" stroke-width="3.4"/><path d="M189.7,432.4 L189.9,449.2 L184.6,466.9" stroke="#6c604a" stroke-width="3.4"/><path d="M184.6,466.9 L169.9,478.5 L157.2,489.8" stroke="#6c604a" stroke-width="3.4"/><path d="M250.5,412.8 L268.8,412.0 L292.2,412.4" stroke="#6c604a" stroke-width="3.4"/><path d="M189.7,432.4 L170.8,431.0 L149.3,443.9" stroke="#6c604a" stroke-width="3.4"/><path d="M149.3,443.9 L139.5,430.9 L129.1,415.5" stroke="#6c604a" stroke-width="3.4"/><path d="M160.5,379.4 L162.4,357.9 L150.1,338.2" stroke="#6c604a" stroke-width="3.4"/><path d="M160.5,379.4 L139.1,377.1 L119.5,367.9" stroke="#6c604a" stroke-width="3.4"/><path d="M292.2,412.4 L315.0,412.2 L332.8,398.7" stroke="#6c604a" stroke-width="3.4"/><path d="M332.8,398.7 L342.6,413.4 L358.7,425.1" stroke="#6c604a" stroke-width="3.4"/><path d="M358.7,425.1 L376.6,412.3 L386.4,394.6" stroke="#6c604a" stroke-width="3.4"/><path d="M386.4,394.6 L402.9,402.4 L420.4,402.1" stroke="#6c604a" stroke-width="3.4"/><path d="M420.4,402.1 L438.2,396.3 L463.9,399.0" stroke="#6c604a" stroke-width="3.4"/><path d="M219.0,421.2 L224.7,440.7 L232.9,463.6" stroke="#6c604a" stroke-width="3.4"/><path d="M150.1,338.2 L137.2,321.7 L131.8,297.4" stroke="#6c604a" stroke-width="3.4"/><path d="M420.4,402.1 L421.7,429.1 L431.8,450.1" stroke="#6c604a" stroke-width="3.4"/><path d="M232.9,463.6 L255.5,464.4 L282.3,464.5" stroke="#6c604a" stroke-width="3.4"/><path d="M400.9,291.1 L425.8,293.5 L450.6,282.3" stroke="#6c604a" stroke-width="3.4"/><path d="M184.6,466.9 L195.0,484.0 L207.8,511.9" stroke="#6c604a" stroke-width="3.4"/><path d="M400.9,291.1 L376.5,284.7 L350.7,282.5" stroke="#6c604a" stroke-width="3.4"/><path d="M350.7,282.5 L326.8,288.6 L302.0,291.7" stroke="#6c604a" stroke-width="3.4"/><path d="M302.0,291.7 L278.9,301.1 L252.8,308.0" stroke="#6c604a" stroke-width="3.4"/><path d="M150.1,338.2 L171.8,330.3 L195.9,312.6" stroke="#6c604a" stroke-width="3.4"/><path d="M358.7,425.1 L374.0,441.4 L383.0,472.1" stroke="#6c604a" stroke-width="3.4"/><path d="M383.0,472.1 L359.3,481.5 L332.8,482.0" stroke="#6c604a" stroke-width="3.4"/><path d="M282.3,464.5 L278.1,491.4 L271.7,517.5" stroke="#6c604a" stroke-width="3.4"/><path d="M463.9,399.0 L485.5,383.7 L499.1,356.5" stroke="#6c604a" stroke-width="3.4"/><path d="M499.1,356.5 L479.6,348.3 L452.9,340.8" stroke="#6c604a" stroke-width="3.4"/><path d="M329.6,159.3 L326.4,133.7 L321.4,104.6" stroke="#6c604a" stroke-width="3.4"/><path d="M365.3,225.9 L338.0,222.9 L309.1,224.8" stroke="#6c604a" stroke-width="3.4"/><path d="M309.1,224.8 L289.6,202.8 L267.0,185.9" stroke="#6c604a" stroke-width="3.4"/><path d="M267.0,185.9 L264.0,160.8 L263.1,130.9" stroke="#6c604a" stroke-width="3.4"/><path d="M263.1,130.9 L238.0,135.1 L219.8,139.9" stroke="#6c604a" stroke-width="3.4"/><path d="M219.8,139.9 L208.4,160.1 L195.1,189.3" stroke="#6c604a" stroke-width="3.4"/><path d="M131.8,297.4 L144.1,271.2 L168.6,246.6" stroke="#6c604a" stroke-width="3.4"/><path d="M252.8,308.0 L244.6,278.0 L242.7,245.6" stroke="#6c604a" stroke-width="3.4"/><path d="M407.3,176.7 L397.0,207.0 L365.3,225.9" stroke="#6c604a" stroke-width="3.4"/><path d="M131.8,297.4 L108.4,335.0 L119.5,367.9" stroke="#6c604a" stroke-width="3.4"/><path d="M207.8,511.9 L224.0,485.6 L232.9,463.6" stroke="#6c604a" stroke-width="3.4"/><path d="M149.3,443.9 L142.2,466.1 L157.2,489.8" stroke="#6c604a" stroke-width="3.4"/><path d="M149.3,443.9 L166.3,455.1 L184.6,466.9" stroke="#6c604a" stroke-width="3.4"/><path d="M443.5,202.6 L448.4,174.6 L450.9,140.0" stroke="#6c604a" stroke-width="3.4"/><path d="M443.5,202.6 L467.9,182.9 L488.0,155.4" stroke="#6c604a" stroke-width="3.4"/><path d="M195.1,189.3 L231.6,187.9 L267.0,185.9" stroke="#6c604a" stroke-width="3.4"/><path d="M195.1,189.3 L177.5,214.3 L168.6,246.6" stroke="#6c604a" stroke-width="3.4"/><path d="M365.3,225.9 L390.1,233.6 L415.5,241.6" stroke="#6c604a" stroke-width="3.4"/><path d="M358.7,425.1 L340.0,442.5 L332.8,482.0" stroke="#6c604a" stroke-width="3.4"/><path d="M252.8,308.0 L284.3,332.5 L303.5,356.3" stroke="#6c604a" stroke-width="3.4"/><path d="M282.3,464.5 L291.1,438.1 L292.2,412.4" stroke="#6c604a" stroke-width="3.4"/><path d="M282.3,464.5 L307.3,469.3 L332.8,482.0" stroke="#6c604a" stroke-width="3.4"/><path d="M396.1,341.0 L367.4,314.8 L350.7,282.5" stroke="#6c604a" stroke-width="3.4"/><path d="M407.4,103.1 L365.5,89.5 L321.4,104.6" stroke="#6c604a" stroke-width="3.4"/><path d="M302.0,291.7 L108.0,303.4" stroke="#6c604a" stroke-width="4.8"/><path d="M302.0,291.7 L463.0,104.9" stroke="#6c604a" stroke-width="4.8"/><path d="M302.0,291.7 L381.8,505.4" stroke="#6c604a" stroke-width="4.8"/><path d="M407.3,176.7 L388.1,182.1 L367.8,182.3" stroke="#e4d9bc" stroke-width="1.8"/><path d="M367.8,182.3 L365.8,201.8 L365.3,225.9" stroke="#e4d9bc" stroke-width="1.8"/><path d="M407.3,176.7 L421.0,190.2 L443.5,202.6" stroke="#e4d9bc" stroke-width="1.8"/><path d="M367.8,182.3 L350.8,173.9 L329.6,159.3" stroke="#e4d9bc" stroke-width="1.8"/><path d="M443.5,202.6 L464.3,214.7 L484.7,224.1" stroke="#e4d9bc" stroke-width="1.8"/><path d="M484.7,224.1 L501.3,240.0 L519.3,252.6" stroke="#e4d9bc" stroke-width="1.8"/><path d="M484.7,224.1 L503.7,204.1 L516.7,190.6" stroke="#e4d9bc" stroke-width="1.8"/><path d="M516.7,190.6 L502.6,171.9 L488.0,155.4" stroke="#e4d9bc" stroke-width="1.8"/><path d="M488.0,155.4 L471.1,145.7 L450.9,140.0" stroke="#e4d9bc" stroke-width="1.8"/><path d="M407.3,176.7 L401.9,154.6 L386.8,133.6" stroke="#e4d9bc" stroke-width="1.8"/><path d="M386.8,133.6 L394.9,116.7 L407.4,103.1" stroke="#e4d9bc" stroke-width="1.8"/><path d="M443.5,202.6 L430.8,224.2 L415.5,241.6" stroke="#e4d9bc" stroke-width="1.8"/><path d="M519.3,252.6 L508.5,274.8 L500.8,299.3" stroke="#e4d9bc" stroke-width="1.8"/><path d="M415.5,241.6 L401.8,264.0 L400.9,291.1" stroke="#e4d9bc" stroke-width="1.8"/><path d="M400.9,291.1 L399.0,315.8 L396.1,341.0" stroke="#e4d9bc" stroke-width="1.8"/><path d="M396.1,341.0 L369.6,343.3 L348.9,348.8" stroke="#e4d9bc" stroke-width="1.8"/><path d="M348.9,348.8 L326.3,349.1 L303.5,356.3" stroke="#e4d9bc" stroke-width="1.8"/><path d="M303.5,356.3 L279.9,358.6 L255.2,360.4" stroke="#e4d9bc" stroke-width="1.8"/><path d="M255.2,360.4 L231.8,362.7 L212.6,369.6" stroke="#e4d9bc" stroke-width="1.8"/><path d="M212.6,369.6 L198.8,384.4 L186.4,398.5" stroke="#e4d9bc" stroke-width="1.8"/><path d="M186.4,398.5 L173.0,391.1 L160.5,379.4" stroke="#e4d9bc" stroke-width="1.8"/><path d="M186.4,398.5 L183.6,415.2 L189.7,432.4" stroke="#e4d9bc" stroke-width="1.8"/><path d="M189.7,432.4 L205.7,429.3 L219.0,421.2" stroke="#e4d9bc" stroke-width="1.8"/><path d="M219.0,421.2 L232.5,416.7 L250.5,412.8" stroke="#e4d9bc" stroke-width="1.8"/><path d="M189.7,432.4 L189.9,449.2 L184.6,466.9" stroke="#e4d9bc" stroke-width="1.8"/><path d="M184.6,466.9 L169.9,478.5 L157.2,489.8" stroke="#e4d9bc" stroke-width="1.8"/><path d="M250.5,412.8 L268.8,412.0 L292.2,412.4" stroke="#e4d9bc" stroke-width="1.8"/><path d="M189.7,432.4 L170.8,431.0 L149.3,443.9" stroke="#e4d9bc" stroke-width="1.8"/><path d="M149.3,443.9 L139.5,430.9 L129.1,415.5" stroke="#e4d9bc" stroke-width="1.8"/><path d="M160.5,379.4 L162.4,357.9 L150.1,338.2" stroke="#e4d9bc" stroke-width="1.8"/><path d="M160.5,379.4 L139.1,377.1 L119.5,367.9" stroke="#e4d9bc" stroke-width="1.8"/><path d="M292.2,412.4 L315.0,412.2 L332.8,398.7" stroke="#e4d9bc" stroke-width="1.8"/><path d="M332.8,398.7 L342.6,413.4 L358.7,425.1" stroke="#e4d9bc" stroke-width="1.8"/><path d="M358.7,425.1 L376.6,412.3 L386.4,394.6" stroke="#e4d9bc" stroke-width="1.8"/><path d="M386.4,394.6 L402.9,402.4 L420.4,402.1" stroke="#e4d9bc" stroke-width="1.8"/><path d="M420.4,402.1 L438.2,396.3 L463.9,399.0" stroke="#e4d9bc" stroke-width="1.8"/><path d="M219.0,421.2 L224.7,440.7 L232.9,463.6" stroke="#e4d9bc" stroke-width="1.8"/><path d="M150.1,338.2 L137.2,321.7 L131.8,297.4" stroke="#e4d9bc" stroke-width="1.8"/><path d="M420.4,402.1 L421.7,429.1 L431.8,450.1" stroke="#e4d9bc" stroke-width="1.8"/><path d="M232.9,463.6 L255.5,464.4 L282.3,464.5" stroke="#e4d9bc" stroke-width="1.8"/><path d="M400.9,291.1 L425.8,293.5 L450.6,282.3" stroke="#e4d9bc" stroke-width="1.8"/><path d="M184.6,466.9 L195.0,484.0 L207.8,511.9" stroke="#e4d9bc" stroke-width="1.8"/><path d="M400.9,291.1 L376.5,284.7 L350.7,282.5" stroke="#e4d9bc" stroke-width="1.8"/><path d="M350.7,282.5 L326.8,288.6 L302.0,291.7" stroke="#e4d9bc" stroke-width="1.8"/><path d="M302.0,291.7 L278.9,301.1 L252.8,308.0" stroke="#e4d9bc" stroke-width="1.8"/><path d="M150.1,338.2 L171.8,330.3 L195.9,312.6" stroke="#e4d9bc" stroke-width="1.8"/><path d="M358.7,425.1 L374.0,441.4 L383.0,472.1" stroke="#e4d9bc" stroke-width="1.8"/><path d="M383.0,472.1 L359.3,481.5 L332.8,482.0" stroke="#e4d9bc" stroke-width="1.8"/><path d="M282.3,464.5 L278.1,491.4 L271.7,517.5" stroke="#e4d9bc" stroke-width="1.8"/><path d="M463.9,399.0 L485.5,383.7 L499.1,356.5" stroke="#e4d9bc" stroke-width="1.8"/><path d="M499.1,356.5 L479.6,348.3 L452.9,340.8" stroke="#e4d9bc" stroke-width="1.8"/><path d="M329.6,159.3 L326.4,133.7 L321.4,104.6" stroke="#e4d9bc" stroke-width="1.8"/><path d="M365.3,225.9 L338.0,222.9 L309.1,224.8" stroke="#e4d9bc" stroke-width="1.8"/><path d="M309.1,224.8 L289.6,202.8 L267.0,185.9" stroke="#e4d9bc" stroke-width="1.8"/><path d="M267.0,185.9 L264.0,160.8 L263.1,130.9" stroke="#e4d9bc" stroke-width="1.8"/><path d="M263.1,130.9 L238.0,135.1 L219.8,139.9" stroke="#e4d9bc" stroke-width="1.8"/><path d="M219.8,139.9 L208.4,160.1 L195.1,189.3" stroke="#e4d9bc" stroke-width="1.8"/><path d="M131.8,297.4 L144.1,271.2 L168.6,246.6" stroke="#e4d9bc" stroke-width="1.8"/><path d="M252.8,308.0 L244.6,278.0 L242.7,245.6" stroke="#e4d9bc" stroke-width="1.8"/><path d="M407.3,176.7 L397.0,207.0 L365.3,225.9" stroke="#e4d9bc" stroke-width="1.8"/><path d="M131.8,297.4 L108.4,335.0 L119.5,367.9" stroke="#e4d9bc" stroke-width="1.8"/><path d="M207.8,511.9 L224.0,485.6 L232.9,463.6" stroke="#e4d9bc" stroke-width="1.8"/><path d="M149.3,443.9 L142.2,466.1 L157.2,489.8" stroke="#e4d9bc" stroke-width="1.8"/><path d="M149.3,443.9 L166.3,455.1 L184.6,466.9" stroke="#e4d9bc" stroke-width="1.8"/><path d="M443.5,202.6 L448.4,174.6 L450.9,140.0" stroke="#e4d9bc" stroke-width="1.8"/><path d="M443.5,202.6 L467.9,182.9 L488.0,155.4" stroke="#e4d9bc" stroke-width="1.8"/><path d="M195.1,189.3 L231.6,187.9 L267.0,185.9" stroke="#e4d9bc" stroke-width="1.8"/><path d="M195.1,189.3 L177.5,214.3 L168.6,246.6" stroke="#e4d9bc" stroke-width="1.8"/><path d="M365.3,225.9 L390.1,233.6 L415.5,241.6" stroke="#e4d9bc" stroke-width="1.8"/><path d="M358.7,425.1 L340.0,442.5 L332.8,482.0" stroke="#e4d9bc" stroke-width="1.8"/><path d="M252.8,308.0 L284.3,332.5 L303.5,356.3" stroke="#e4d9bc" stroke-width="1.8"/><path d="M282.3,464.5 L291.1,438.1 L292.2,412.4" stroke="#e4d9bc" stroke-width="1.8"/><path d="M282.3,464.5 L307.3,469.3 L332.8,482.0" stroke="#e4d9bc" stroke-width="1.8"/><path d="M396.1,341.0 L367.4,314.8 L350.7,282.5" stroke="#e4d9bc" stroke-width="1.8"/><path d="M407.4,103.1 L365.5,89.5 L321.4,104.6" stroke="#e4d9bc" stroke-width="1.8"/><path d="M302.0,291.7 L108.0,303.4" stroke="#e4d9bc" stroke-width="3.2"/><path d="M302.0,291.7 L463.0,104.9" stroke="#e4d9bc" stroke-width="3.2"/><path d="M302.0,291.7 L381.8,505.4" stroke="#e4d9bc" stroke-width="3.2"/></g><polygon points="444.3,97.0 463.0,104.9 481.0,114.9 497.6,127.6 512.2,143.2 524.1,161.7 532.9,182.5 538.6,205.3 541.1,229.2 540.9,253.8 538.3,278.4 534.0,302.8 528.0,326.9 520.5,350.6 511.5,373.8 500.7,396.2 488.0,417.6 473.4,437.5 457.0,455.5 439.2,471.2 420.4,484.6 401.2,495.9 381.8,505.4 362.6,513.5 343.5,520.9 324.3,527.7 304.9,534.0 285.0,539.5 264.7,543.5 244.1,545.5 223.7,544.8 203.9,540.8 185.4,533.5 168.6,522.8 153.8,509.3 141.2,493.4 130.6,475.6 121.9,456.6 114.9,436.6 109.5,415.9 105.6,394.4 103.4,372.4 102.9,349.7 104.4,326.7 108.0,303.4 113.6,280.1 121.2,257.0 130.6,234.3 141.7,212.2 154.4,190.8 168.6,170.2 184.4,150.7 201.7,132.7 220.5,116.5 240.5,102.8 261.5,91.8 283.0,83.8 304.7,78.8 326.0,76.6 346.8,76.7 367.0,78.5 386.7,81.6 406.1,85.7 425.3,90.8" fill="none" stroke="#3c3628" stroke-width="1.5"/><g font-family="Georgia, serif" font-size="8" text-anchor="middle"><text x="407.3" y="179.7" stroke="#f7f3ea" stroke-width="2.5" paint-order="stroke" fill="#23211c">Craftsmen</text><text x="131.8" y="300.4" stroke="#f7f3ea" stroke-width="2.5" paint-order="stroke" fill="#23211c">Craftsmen</text><text x="431.8" y="453.1" stroke="#f7f3ea" stroke-width="2.5" paint-order="stroke" fill="#23211c">Craftsmen</text><text x="189.7" y="435.4" stroke="#f7f3ea" stroke-width="2.5" paint-order="stroke" fill="#23211c">Temple</text><text x="207.8" y="514.9" stroke="#f7f3ea" stroke-width="2.5" paint-order="stroke" fill="#23211c">Garrison</text><text x="149.3" y="446.9" stroke="#f7f3ea" stroke-width="2.5" paint-order="stroke" fill="#23211c">Temple</text><text x="443.5" y="205.6" stroke="#f7f3ea" stroke-width="2.5" paint-order="stroke" fill="#23211c">Craftsmen</text><text x="488.0" y="158.4" stroke="#f7f3ea" stroke-width="2.5" paint-order="stroke" fill="#23211c">Noble</text><text x="195.1" y="192.3" stroke="#f7f3ea" stroke-width="2.5" paint-order="stroke" fill="#23211c">Noble</text><text x="267.0" y="188.9" stroke="#f7f3ea" stroke-width="2.5" paint-order="stroke" fill="#23211c">Residential</text><text x="386.4" y="397.6" stroke="#f7f3ea" stroke-width="2.5" paint-order="stroke" fill="#23211c">Craftsmen</text><text x="212.6" y="372.6" stroke="#f7f3ea" stroke-width="2.5" paint-order="stroke" fill="#23211c">Craftsmen</text><text x="186.4" y="401.5" stroke="#f7f3ea" stroke-width="2.5" paint-order="stroke" fill="#23211c">Temple</text><text x="219.8" y="142.9" stroke="#f7f3ea" stroke-width="2.5" paint-order="stroke" fill="#23211c">Temple</text><text x="157.2" y="492.8" stroke="#f7f3ea" stroke-width="2.5" paint-order="stroke" fill="#23211c">Residential</text><text x="516.7" y="193.6" stroke="#f7f3ea" stroke-width="2.5" paint-order="stroke" fill="#23211c">Noble</text><text x="452.9" y="343.8" stroke="#f7f3ea" stroke-width="2.5" paint-order="stroke" fill="#23211c">Residential</text><text x="302.0" y="294.7" stroke="#f7f3ea" stroke-width="2.5" paint-order="stroke" fill="#23211c">Market</text><text x="250.5" y="415.8" stroke="#f7f3ea" stroke-width="2.5" paint-order="stroke" fill="#23211c">Noble</text><text x="329.6" y="162.3" stroke="#f7f3ea" stroke-width="2.5" paint-order="stroke" fill="#23211c">Noble</text><text x="365.3" y="228.9" stroke="#f7f3ea" stroke-width="2.5" paint-order="stroke" fill="#23211c">Residential</text><text x="400.9" y="294.1" stroke="#f7f3ea" stroke-width="2.5" paint-order="stroke" fill="#23211c">Craftsmen</text><text x="386.8" y="136.6" stroke="#f7f3ea" stroke-width="2.5" paint-order="stroke" fill="#23211c">Temple</text><text x="358.7" y="428.1" stroke="#f7f3ea" stroke-width="2.5" paint-order="stroke" fill="#23211c">Residential</text><text x="252.8" y="311.0" stroke="#f7f3ea" stroke-width="2.5" paint-order="stroke" fill="#23211c">Temple</text><text x="282.3" y="467.5" stroke="#f7f3ea" stroke-width="2.5" paint-order="stroke" fill="#23211c">Noble</text><text x="195.9" y="315.6" stroke="#f7f3ea" stroke-width="2.5" paint-order="stroke" fill="#23211c">Residential</text><text x="484.7" y="227.1" stroke="#f7f3ea" stroke-width="2.5" paint-order="stroke" fill="#23211c">Garrison</text><text x="415.5" y="244.6" stroke="#f7f3ea" stroke-width="2.5" paint-order="stroke" fill="#23211c">Garrison</text><text x="332.8" y="485.0" stroke="#f7f3ea" stroke-width="2.5" paint-order="stroke" fill="#23211c">Craftsmen</text><text x="383.0" y="475.1" stroke="#f7f3ea" stroke-width="2.5" paint-order="stroke" fill="#23211c">Residential</text><text x="168.6" y="249.6" stroke="#f7f3ea" stroke-width="2.5" paint-order="stroke" fill="#23211c">Residential</text><text x="255.2" y="363.4" stroke="#f7f3ea" stroke-width="2.5" paint-order="stroke" fill="#23211c">Residential</text><text x="309.1" y="227.8" stroke="#f7f3ea" stroke-width="2.5" paint-order="stroke" fill="#23211c">Noble</text><text x="450.9" y="143.0" stroke="#f7f3ea" stroke-width="2.5" paint-order="stroke" fill="#23211c">Residential</text><text x="129.1" y="418.5" stroke="#f7f3ea" stroke-width="2.5" paint-order="stroke" fill="#23211c">Residential</text><text x="232.9" y="466.6" stroke="#f7f3ea" stroke-width="2.5" paint-order="stroke" fill="#23211c">Craftsmen</text><text x="150.1" y="341.2" stroke="#f7f3ea" stroke-width="2.5" paint-order="stroke" fill="#23211c">Noble</text><text x="242.7" y="248.6" stroke="#f7f3ea" stroke-width="2.5" paint-order="stroke" fill="#23211c">Noble</text><text x="367.8" y="185.3" stroke="#f7f3ea" stroke-width="2.5" paint-order="stroke" fill="#23211c">Residential</text><text x="263.1" y="133.9" stroke="#f7f3ea" stroke-width="2.5" paint-order="stroke" fill="#23211c">Residential</text><text x="160.5" y="382.4" stroke="#f7f3ea" stroke-width="2.5" paint-order="stroke" fill="#23211c">Residential</text><text x="271.7" y="520.5" stroke="#f7f3ea" stroke-width="2.5" paint-order="stroke" fill="#23211c">Residential</text><text x="396.1" y="344.0" stroke="#f7f3ea" stroke-width="2.5" paint-order="stroke" fill="#23211c">Craftsmen</text><text x="463.9" y="402.0" stroke="#f7f3ea" stroke-width="2.5" paint-order="stroke" fill="#23211c">Noble</text><text x="348.9" y="351.8" stroke="#f7f3ea" stroke-width="2.5" paint-order="stroke" fill="#23211c">Residential</text><text x="350.7" y="285.5" stroke="#f7f3ea" stroke-width="2.5" paint-order="stroke" fill="#23211c">Craftsmen</text><text x="219.0" y="424.2" stroke="#f7f3ea" stroke-width="2.5" paint-order="stroke" fill="#23211c">Residential</text><text x="450.6" y="285.3" stroke="#f7f3ea" stroke-width="2.5" paint-order="stroke" fill="#23211c">Residential</text><text x="292.2" y="415.4" stroke="#f7f3ea" stroke-width="2.5" paint-order="stroke" fill="#23211c">Noble</text><text x="420.4" y="405.1" stroke="#f7f3ea" stroke-width="2.5" paint-order="stroke" fill="#23211c">Noble</text><text x="184.6" y="469.9" stroke="#f7f3ea" stroke-width="2.5" paint-order="stroke" fill="#23211c">Residential</text><text x="119.5" y="370.9" stroke="#f7f3ea" stroke-width="2.5" paint-order="stroke" fill="#23211c">Residential</text><text x="332.8" y="401.7" stroke="#f7f3ea" stroke-width="2.5" paint-order="stroke" fill="#23211c">Noble</text><text x="519.3" y="255.6" stroke="#f7f3ea" stroke-width="2.5" paint-order="stroke" fill="#23211c">Temple</text><text x="407.4" y="106.1" stroke="#f7f3ea" stroke-width="2.5" paint-order="stroke" fill="#23211c">Noble</text><text x="499.1" y="359.5" stroke="#f7f3ea" stroke-width="2.5" paint-order="stroke" fill="#23211c">Residential</text><text x="321.4" y="107.6" stroke="#f7f3ea" stroke-width="2.5" paint-order="stroke" fill="#23211c">Temple</text><text x="500.8" y="302.3" stroke="#f7f3ea" stroke-width="2.5" paint-order="stroke" fill="#23211c">Craftsmen</text><text x="303.5" y="359.3" stroke="#f7f3ea" stroke-width="2.5" paint-order="stroke" fill="#23211c">Craftsmen</text></g><text x="315.0" y="20" text-anchor="middle" font-family="Georgia, serif" font-size="16" font-weight="bold" stroke="#f7f3ea" stroke-width="3" paint-order="stroke" fill="#23211c">Ironhollowaymarch</text></svg>