<svg xmlns="http://www.w3.org/2000/svg" width="630" height="630" viewBox="0 0 630 630"><rect width="630" height="630" fill="#c9d2bb"/><polygon points="91.0,357.2 94.9,318.9 104.2,280.9 118.4,244.2 137.1,209.5 159.8,177.5 186.1,149.0 215.3,124.5 246.7,104.5 279.9,89.6 313.9,80.1 348.0,76.3 381.3,78.5 413.0,86.6 442.3,100.4 468.2,119.7 490.3,143.9 507.8,172.2 520.5,204.0 528.1,238.3 530.4,274.4 527.7,311.2 519.9,348.1 507.3,384.3 490.3,419.0 469.0,451.4 443.9,481.0 415.5,507.0 384.3,528.7 350.9,545.5 316.2,556.7 280.9,562.0 246.1,560.9 212.7,553.4 181.8,539.5 154.3,519.7 131.1,494.5 112.8,464.7 99.9,431.2 92.6,395.0" fill="#e6dcc0"/><g stroke="#4a4230" stroke-width="1" stroke-linejoin="round"><polygon points="443.8,256.3 438.2,238.4 459.1,194.5 493.3,198.5 490.5,256.7 463.8,267.8" fill="#d8cdb0"/><polygon points="423.2,173.9 389.2,212.6 384.7,209.3 369.3,162.0 410.8,152.7" fill="#cdbf9e"/><polygon points="92.4,343.3 94.9,318.9 104.2,280.9 110.6,264.2 157.6,294.7 149.1,320.2 97.5,344.1" fill="#c2b48f"/><polygon points="462.0,459.8 443.9,481.0 415.5,507.0 395.0,521.3 388.4,451.1 436.9,447.7" fill="#c2b48f"/><polygon points="163.6,457.8 154.9,429.0 189.0,425.4 199.0,457.9 193.8,465.1" fill="#dfd6c0"/><polygon points="227.5,556.7 212.7,553.4 181.8,539.5 164.3,526.9 172.7,505.2 196.7,487.6 239.6,509.1" fill="#dfd6c0"/><polygon points="120.8,477.7 112.8,464.7 109.9,457.2 149.2,424.7 154.9,429.0 163.6,457.8 149.6,474.3" fill="#cdbf9e"/><polygon points="459.1,194.5 438.2,238.4 389.7,214.2 389.2,212.6 423.2,173.9 448.6,180.3" fill="#d8cdb0"/><polygon points="473.9,125.9 490.3,143.9 507.8,172.2 514.0,187.8 493.3,198.5 459.1,194.5 448.6,180.3" fill="#cdbf9e"/><polygon points="140.4,204.8 159.8,177.5 186.1,149.0 191.9,144.1 222.0,176.0 223.1,202.0 196.1,232.1" fill="#d8cdb0"/><polygon points="281.0,148.6 296.0,190.6 267.3,218.2 223.1,202.0 222.0,176.0" fill="#d8cdb0"/><polygon points="383.8,447.6 349.9,403.4 349.9,393.3 366.7,378.6 401.7,381.7" fill="#cdbf9e"/><polygon points="200.4,410.6 174.3,382.4 172.6,366.8 210.5,350.9 227.5,397.9 214.6,409.1" fill="#c2b48f"/><polygon points="189.0,425.4 154.9,429.0 149.2,424.7 148.3,421.5 174.3,382.4 200.4,410.6" fill="#dfd6c0"/><polygon points="164.3,526.9 154.3,519.7 131.1,494.5 120.8,477.7 149.6,474.3 172.7,505.2" fill="#cdbf9e"/><polygon points="462.5,381.7 423.2,384.4 411.2,377.6 415.1,330.6 432.5,327.0 473.8,349.9" fill="#dfd6c0"/><polygon points="298.6,338.1 257.8,298.6 262.8,272.7 273.2,263.7 309.1,265.7 327.0,326.2 309.7,337.9" fill="#d9c08a"/><polygon points="214.6,409.1 227.5,397.9 255.7,399.8 259.0,446.3 245.7,454.6 227.7,448.4" fill="#d8cdb0"/><polygon points="345.4,130.7 354.1,153.9 324.2,200.9 296.0,190.6 281.0,148.6 282.0,144.7" fill="#cdbf9e"/><polygon points="384.7,209.3 389.2,212.6 389.7,214.2 368.6,262.3 327.8,252.5 326.0,203.4" fill="#b9a98c"/><polygon points="411.6,327.3 360.6,319.3 369.6,263.9 411.1,276.3" fill="#b9a98c"/><polygon points="413.6,131.8 410.8,152.7 369.3,162.0 354.1,153.9 345.4,130.7 355.0,106.7" fill="#c2b48f"/><polygon points="346.5,461.9 312.2,446.7 349.9,403.4 383.8,447.6 383.9,448.3" fill="#cdbf9e"/><polygon points="268.3,364.7 220.4,336.0 220.7,328.8 257.8,298.6 298.6,338.1" fill="#cdbf9e"/><polygon points="240.8,508.1 245.7,454.6 259.0,446.3 300.0,454.2 292.8,503.5" fill="#cdbf9e"/><polygon points="149.1,320.2 157.6,294.7 178.9,288.8 220.7,328.8 220.4,336.0 210.5,350.9 172.6,366.8 166.1,363.4" fill="#d8cdb0"/><polygon points="514.0,187.8 520.5,204.0 528.1,238.3 529.8,265.3 490.5,256.7 493.3,198.5" fill="#cdbf9e"/><polygon points="389.7,214.2 438.2,238.4 443.8,256.3 411.1,276.3 369.6,263.9 368.6,262.3" fill="#cdbf9e"/><polygon points="345.3,547.3 338.1,549.6 292.8,503.5 300.0,454.2 310.4,446.7 312.2,446.7 346.5,461.9" fill="#c2b48f"/><polygon points="388.4,451.1 395.0,521.3 384.3,528.7 350.9,545.5 345.3,547.3 346.5,461.9 383.9,448.3" fill="#d8cdb0"/><polygon points="110.6,264.2 118.4,244.2 137.1,209.5 140.4,204.8 196.1,232.1 199.6,251.3 178.9,288.8 157.6,294.7" fill="#d8cdb0"/><polygon points="255.7,399.8 227.5,397.9 210.5,350.9 220.4,336.0 268.3,364.7 267.1,390.7" fill="#cdbf9e"/><polygon points="309.1,265.7 273.2,263.7 267.3,218.2 296.0,190.6 324.2,200.9 326.0,203.4 327.8,252.5" fill="#cdbf9e"/><polygon points="444.6,102.2 468.2,119.7 473.9,125.9 448.6,180.3 423.2,173.9 410.8,152.7 413.6,131.8" fill="#cdbf9e"/><polygon points="109.9,457.2 99.9,431.2 95.2,408.0 123.8,400.6 148.3,421.5 149.2,424.7" fill="#cdbf9e"/><polygon points="239.6,509.1 196.7,487.6 193.8,465.1 199.0,457.9 227.7,448.4 245.7,454.6 240.8,508.1" fill="#c2b48f"/><polygon points="97.5,344.1 149.1,320.2 166.1,363.4 131.1,373.9" fill="#d8cdb0"/><polygon points="196.1,232.1 223.1,202.0 267.3,218.2 273.2,263.7 262.8,272.7 199.6,251.3" fill="#cdbf9e"/><polygon points="369.3,162.0 384.7,209.3 326.0,203.4 324.2,200.9 354.1,153.9" fill="#c2b48f"/><polygon points="191.9,144.1 215.3,124.5 246.7,104.5 262.1,97.6 282.0,144.7 281.0,148.6 222.0,176.0" fill="#cdbf9e"/><polygon points="166.1,363.4 172.6,366.8 174.3,382.4 148.3,421.5 123.8,400.6 131.1,373.9" fill="#cdbf9e"/><polygon points="338.1,549.6 316.2,556.7 280.9,562.0 246.1,560.9 227.5,556.7 239.6,509.1 240.8,508.1 292.8,503.5" fill="#d8cdb0"/><polygon points="415.1,330.6 411.2,377.6 401.7,381.7 366.7,378.6 349.0,326.8 360.6,319.3 411.6,327.3" fill="#d8cdb0"/><polygon points="491.8,415.9 490.3,419.0 469.0,451.4 462.0,459.8 436.9,447.7 423.2,384.4 462.5,381.7" fill="#cdbf9e"/><polygon points="366.7,378.6 349.9,393.3 320.3,383.6 309.7,337.9 327.0,326.2 349.0,326.8" fill="#cdbf9e"/><polygon points="327.0,326.2 309.1,265.7 327.8,252.5 368.6,262.3 369.6,263.9 360.6,319.3 349.0,326.8" fill="#d8cdb0"/><polygon points="199.0,457.9 189.0,425.4 200.4,410.6 214.6,409.1 227.7,448.4" fill="#dfd6c0"/><polygon points="443.8,256.3 463.8,267.8 465.3,289.5 432.5,327.0 415.1,330.6 411.6,327.3 411.1,276.3" fill="#d8cdb0"/><polygon points="259.0,446.3 255.7,399.8 267.1,390.7 297.6,402.1 310.4,446.7 300.0,454.2" fill="#cdbf9e"/><polygon points="436.9,447.7 388.4,451.1 383.9,448.3 383.8,447.6 401.7,381.7 411.2,377.6 423.2,384.4" fill="#dfd6c0"/><polygon points="149.6,474.3 163.6,457.8 193.8,465.1 196.7,487.6 172.7,505.2" fill="#c2b48f"/><polygon points="91.0,357.2 92.4,343.3 97.5,344.1 131.1,373.9 123.8,400.6 95.2,408.0 92.6,395.0" fill="#c2b48f"/><polygon points="349.9,393.3 349.9,403.4 312.2,446.7 310.4,446.7 297.6,402.1 320.3,383.6" fill="#cdbf9e"/><polygon points="352.9,76.6 381.3,78.5 413.0,86.6 442.3,100.4 444.6,102.2 413.6,131.8 355.0,106.7" fill="#c2b48f"/><polygon points="522.9,333.8 519.9,348.1 507.3,384.3 491.8,415.9 462.5,381.7 473.8,349.9 504.8,332.4" fill="#d8cdb0"/><polygon points="262.1,97.6 279.9,89.6 313.9,80.1 348.0,76.3 352.9,76.6 355.0,106.7 345.4,130.7 282.0,144.7" fill="#c2b48f"/><polygon points="504.8,332.4 473.8,349.9 432.5,327.0 465.3,289.5" fill="#dfd6c0"/><polygon points="297.6,402.1 267.1,390.7 268.3,364.7 298.6,338.1 309.7,337.9 320.3,383.6" fill="#c2b48f"/><polygon points="262.8,272.7 257.8,298.6 220.7,328.8 178.9,288.8 199.6,251.3" fill="#dfd6c0"/><polygon points="529.8,265.3 530.4,274.4 527.7,311.2 522.9,333.8 504.8,332.4 465.3,289.5 463.8,267.8 490.5,256.7" fill="#cdbf9e"/></g><g fill="#7d6c52" stroke="#4a3e2e" stroke-width="0.5" stroke-linejoin="round"><polygon points="449.2,225.0 461.6,199.0 489.0,202.2 487.7,226.9"/><polygon points="447.3,253.5 442.7,238.7 445.3,233.2 487.3,235.2 486.4,253.9 464.1,263.1"/><polygon points="413.4,180.6 408.0,186.9 394.9,175.5 400.4,169.2"/><polygon points="419.8,173.6 417.3,176.5 404.0,164.9 410.4,157.5"/><polygon points="390.6,171.6 380.3,162.6 402.8,157.6"/><polygon points="402.9,191.3 388.7,207.6 387.9,207.0 382.0,189.1 395.4,184.8"/><polygon points="379.1,183.1 373.0,164.1 373.2,164.1 390.7,179.4"/><polygon points="146.2,318.5 132.2,325.0 128.5,317.0 142.5,310.5"/><polygon points="126.3,311.7 121.8,302.0 135.4,295.7 139.9,305.4"/><polygon points="146.0,290.6 154.1,295.9 149.1,311.2 140.7,293.1"/><polygon points="109.5,275.5 112.1,268.9 124.8,277.1 116.3,290.1"/><polygon points="129.8,280.1 140.3,286.9 119.2,296.7 119.1,296.6"/><polygon points="101.0,307.0 106.6,283.8 114.5,300.7"/><polygon points="106.6,311.8 116.7,307.2 125.9,326.9 115.8,331.5"/><polygon points="96.1,340.5 98.2,319.5 99.4,314.8 100.1,314.5 109.5,334.9 97.0,340.6"/><polygon points="412.5,506.2 397.0,517.1 396.1,507.8"/><polygon points="396.6,502.0 395.6,490.8 413.5,489.1 414.6,500.3"/><polygon points="434.6,486.2 420.4,499.2 419.3,487.7"/><polygon points="450.1,468.6 441.6,478.7 440.3,479.9 428.7,481.0 427.7,470.7"/><polygon points="455.9,461.0 427.5,463.7 426.4,452.2 436.2,451.5"/><polygon points="406.0,483.5 394.5,484.6 393.3,471.9 404.8,470.8"/><polygon points="422.7,482.0 411.6,483.1 410.4,470.2 421.4,469.2"/><polygon points="392.8,466.1 391.6,453.8 404.5,452.9 405.4,464.9"/><polygon points="410.1,452.2 420.0,451.5 421.1,463.7 410.9,464.7"/><polygon points="166.5,454.7 159.8,432.2 171.3,431.0 174.0,456.5"/><polygon points="193.0,448.4 195.8,457.4 192.6,461.8 181.0,459.0 180.0,449.8"/><polygon points="177.8,429.5 186.9,428.6 191.3,442.7 179.4,443.9"/><polygon points="210.0,498.1 220.8,503.5 212.4,520.3 204.9,518.4"/><polygon points="226.8,506.3 235.8,510.9 232.1,525.4 218.9,522.1"/><polygon points="193.8,494.1 197.0,491.8 203.6,495.1 198.2,516.5 188.7,514.1"/><polygon points="173.0,511.2 174.7,506.8 186.5,498.1 182.6,513.6"/><polygon points="175.4,531.8 167.3,526.0 171.2,515.9 179.0,517.8"/><polygon points="189.8,539.7 183.4,536.8 180.5,534.7 184.3,519.8 194.2,522.3"/><polygon points="207.5,547.1 196.2,542.0 200.6,524.5 212.5,527.6"/><polygon points="224.8,552.4 214.3,550.0 219.6,529.3 230.0,532.0"/><polygon points="120.5,469.9 116.2,463.0 114.4,458.3 128.6,446.7 136.7,456.5"/><polygon points="126.1,474.1 141.7,461.2 149.1,470.2 148.1,471.5"/><polygon points="157.5,447.2 160.5,457.1 153.0,465.9 145.7,457.0"/><polygon points="134.2,441.8 149.3,429.3 151.8,431.2 154.8,441.1 142.2,451.5"/><polygon points="454.2,194.9 436.2,232.7 419.9,224.6 440.8,182.6 446.1,184.0"/><polygon points="412.3,220.8 395.2,212.2 424.6,178.6 432.5,180.5"/><polygon points="458.5,187.7 452.7,179.9 461.9,160.0 469.7,163.6"/><polygon points="473.5,192.5 464.7,191.4 476.2,166.8 483.8,170.3"/><polygon points="499.0,192.7 492.9,195.8 479.6,194.3 483.6,185.6"/><polygon points="507.8,181.0 509.9,186.3 504.7,189.0 486.7,180.6 490.3,172.9"/><polygon points="493.0,153.7 504.9,173.0 487.8,165.0"/><polygon points="486.7,152.5 482.3,161.9 464.7,153.7 469.0,144.3"/><polygon points="474.6,130.5 488.2,145.4 489.3,147.2 470.8,138.6"/><polygon points="208.1,167.3 217.9,177.7 218.9,200.5 195.1,226.9 182.1,220.5"/><polygon points="169.8,172.9 189.0,152.1 191.6,149.9 201.9,160.8 190.9,183.3"/><polygon points="146.7,203.2 163.1,180.2 163.9,179.4 187.2,190.8 174.5,216.8"/><polygon points="263.9,212.4 227.2,199.1 226.3,178.6 244.3,170.3"/><polygon points="287.5,179.3 291.1,189.5 271.3,208.5 263.0,190.6"/><polygon points="278.6,154.4 284.6,171.4 259.5,183.0 252.0,166.7"/><polygon points="378.5,382.4 398.1,384.2 395.9,392.2 377.2,387.1"/><polygon points="393.9,397.9 391.3,407.6 373.4,402.7 376.1,393.1"/><polygon points="353.2,397.1 353.2,394.8 367.9,382.0 372.2,382.4 367.1,400.9"/><polygon points="382.1,439.1 369.7,422.9 383.0,412.7 388.9,414.3"/><polygon points="364.8,418.1 353.8,403.7 375.8,409.7"/><polygon points="181.9,385.6 177.6,380.9 176.3,369.0 186.0,364.9 193.0,381.6"/><polygon points="191.6,361.9 208.8,354.7 211.6,362.5 194.5,368.7"/><polygon points="213.7,367.7 216.0,374.1 199.1,380.2 196.5,373.9"/><polygon points="201.6,407.3 186.5,391.0 198.0,386.8 205.2,406.9"/><polygon points="204.8,385.1 217.2,380.6 223.0,396.7 213.0,405.5 212.2,405.5"/><polygon points="165.7,424.5 155.9,425.6 152.2,422.7 152.0,422.0 161.5,407.7 172.2,414.7"/><polygon points="187.7,423.5 171.7,425.2 177.4,416.6"/><polygon points="164.8,402.2 174.7,387.3 182.6,395.8 171.1,406.4"/><polygon points="186.7,400.4 196.2,410.8 190.1,418.8 176.5,409.8"/><polygon points="139.8,499.4 133.5,492.7 125.8,480.1 137.8,478.7 140.2,499.1"/><polygon points="143.5,477.8 148.3,477.2 156.1,487.6 145.5,495.4"/><polygon points="162.9,522.2 156.4,517.4 143.9,503.9 149.4,499.8 164.0,519.3"/><polygon points="154.0,496.1 159.3,492.1 169.5,505.7 166.6,513.0"/><polygon points="421.2,332.3 432.0,330.1 444.3,336.9 440.8,343.2"/><polygon points="417.0,346.0 417.8,337.3 437.6,348.3 433.7,355.3"/><polygon points="420.3,378.7 414.9,375.6 416.8,353.6 430.1,361.0"/><polygon points="460.5,379.1 447.5,380.0 446.6,366.5 462.0,375.0"/><polygon points="441.6,380.0 426.6,381.0 437.3,361.8 440.5,363.6"/><polygon points="465.3,348.5 470.2,351.3 463.7,369.6 456.0,365.3"/><polygon points="440.7,356.2 449.5,340.4 459.5,345.9 450.7,361.8"/><polygon points="219.5,410.5 228.9,402.2 251.8,403.8 253.0,421.3 223.8,423.4"/><polygon points="253.6,429.7 254.6,444.0 245.2,450.0 231.0,445.1 226.5,431.6"/><polygon points="287.0,155.4 284.6,148.5 284.8,147.6 308.5,142.4 310.2,150.3"/><polygon points="292.1,169.9 289.3,161.9 311.8,156.9 313.6,165.1"/><polygon points="298.4,186.9 294.7,176.4 314.9,171.9 317.3,182.7"/><polygon points="321.9,197.6 304.9,191.5 319.8,188.2"/><polygon points="342.2,165.6 326.5,190.1 322.0,170.0"/><polygon points="332.0,160.0 320.4,162.5 315.7,141.2 327.3,138.6"/><polygon points="343.1,134.9 350.1,153.4 348.1,156.7 339.4,158.6 334.5,136.8"/><polygon points="330.9,224.4 330.3,208.1 351.1,210.2 349.5,226.3"/><polygon points="347.0,253.0 331.7,249.3 331.1,232.7 348.8,234.5"/><polygon points="383.1,213.4 384.9,214.7 376.5,233.7 358.0,225.6 359.5,211.0"/><polygon points="373.4,241.3 366.3,257.7 354.8,254.9 356.9,234.1"/><polygon points="407.8,322.9 392.3,320.5 395.0,303.0 407.7,305.1"/><polygon points="384.5,318.8 365.4,315.8 368.1,299.1 387.1,302.2"/><polygon points="396.0,275.7 407.4,279.1 407.6,297.4 392.8,295.0"/><polygon points="369.5,290.8 373.0,269.3 388.2,273.9 385.0,293.3"/><polygon points="350.2,127.1 356.8,110.9 366.1,114.9 359.2,131.0"/><polygon points="372.0,117.6 382.5,122.1 375.8,137.8 365.3,133.3"/><polygon points="367.2,156.7 357.1,151.3 351.0,134.9 372.6,144.2"/><polygon points="394.7,153.5 373.7,158.2 378.6,146.7"/><polygon points="391.9,145.7 381.6,141.3 388.6,124.7 398.9,129.1"/><polygon points="410.4,133.6 408.2,150.3 403.9,151.2 397.5,148.5 404.9,131.3"/><polygon points="334.0,452.3 318.3,445.4 329.7,432.3 342.1,443.1"/><polygon points="346.6,459.1 339.3,455.9 347.6,446.4 357.5,455.1"/><polygon points="333.9,426.7 340.6,419.1 355.4,432.1 347.2,438.3"/><polygon points="344.4,414.2 349.8,408.0 363.7,426.2 360.7,428.5"/><polygon points="367.1,432.0 378.1,446.4 363.4,451.7 353.1,442.7"/><polygon points="228.8,337.4 223.6,334.3 223.7,330.3 237.4,319.2 242.9,325.9"/><polygon points="243.5,346.5 234.0,340.8 246.8,330.4 252.4,337.3"/><polygon points="267.3,312.2 271.9,316.7 256.4,332.7 250.7,325.7"/><polygon points="242.1,315.3 257.7,302.6 263.0,307.7 246.7,321.0"/><polygon points="257.6,354.7 248.8,349.5 261.0,337.0 268.1,343.9"/><polygon points="268.0,361.7 262.0,358.0 272.4,347.3 278.1,352.8"/><polygon points="265.2,332.6 276.5,320.9 283.8,327.9 272.4,339.6"/><polygon points="288.1,331.8 294.5,338.0 281.8,349.1 276.5,343.9"/><polygon points="244.2,504.7 245.1,495.2 266.3,497.2 265.8,502.8"/><polygon points="246.1,488.7 247.0,478.5 267.5,480.4 266.5,490.6"/><polygon points="291.1,496.7 290.5,501.1 271.6,502.7 272.3,494.9"/><polygon points="274.0,480.6 292.8,482.3 291.6,490.9 273.2,489.3"/><polygon points="274.1,452.5 283.1,454.2 279.1,474.7 272.1,474.1"/><polygon points="289.3,455.2 296.5,456.6 293.7,476.2 285.4,475.4"/><polygon points="248.2,457.0 248.3,456.2 259.5,449.2 268.3,450.8 267.6,458.7"/><polygon points="247.3,471.9 248.1,462.8 266.6,464.5 265.8,473.6"/><polygon points="153.6,320.1 160.8,298.2 177.7,293.5 194.8,309.8 162.7,343.3"/><polygon points="193.4,353.5 172.8,362.1 169.4,360.4 166.1,351.9 178.4,339.1"/><polygon points="200.9,315.6 216.5,330.5 216.3,334.6 207.7,347.5 201.9,349.9 184.2,333.0"/><polygon points="522.2,229.3 524.3,238.9 525.7,260.5 514.0,258.0 520.3,229.2"/><polygon points="494.6,235.3 495.0,227.3 513.5,228.2 511.1,238.9"/><polygon points="507.1,257.1 493.8,254.2 494.4,241.7 509.7,245.0"/><polygon points="512.3,192.7 517.2,205.0 521.0,222.1 510.9,221.6"/><polygon points="504.1,221.2 495.7,220.8 496.7,200.6 505.3,196.2"/><polygon points="383.0,264.4 372.7,261.4 380.4,243.8 390.2,248.1"/><polygon points="404.4,253.9 396.9,269.0 388.9,266.6 396.1,250.3"/><polygon points="391.4,219.0 401.4,224.0 392.6,241.7 383.3,237.6"/><polygon points="407.6,226.7 415.7,230.8 406.9,248.3 398.6,244.6"/><polygon points="427.6,262.0 410.6,272.4 403.5,270.3 411.6,254.1"/><polygon points="435.9,240.2 436.0,240.2 440.7,255.2 434.8,258.8 428.3,255.5"/><polygon points="421.4,233.4 430.6,238.1 423.4,252.5 414.2,247.9"/><polygon points="342.6,477.3 342.4,491.4 324.9,491.1 325.1,477.0"/><polygon points="325.0,456.0 343.2,464.0 343.1,470.3 324.8,470.0"/><polygon points="301.7,466.4 303.2,456.1 311.5,450.2 318.3,453.2 318.1,466.6"/><polygon points="310.3,472.9 318.5,473.1 318.2,491.7 310.1,491.6"/><polygon points="297.2,491.7 300.0,472.5 304.7,472.5 304.4,491.8"/><polygon points="325.5,523.2 342.7,506.3 342.5,523.5"/><polygon points="342.0,544.9 339.0,545.9 323.0,529.6 342.2,529.9"/><polygon points="316.5,523.2 306.1,512.7 318.9,500.1 318.6,521.2"/><polygon points="301.8,508.8 295.7,502.6 296.5,497.1 313.5,497.3"/><polygon points="325.2,497.9 342.1,498.2 324.9,515.0"/><polygon points="389.5,506.9 390.6,519.2 382.2,525.1 349.5,541.5 350.1,506.3"/><polygon points="384.4,453.6 386.3,473.2 350.5,476.6 350.7,464.8 383.4,452.9"/><polygon points="387.1,481.6 388.7,498.5 350.2,497.9 350.4,485.0"/><polygon points="129.9,231.7 140.7,211.7 141.8,210.2 169.5,223.7 158.7,245.8"/><polygon points="115.8,262.6 122.2,245.9 125.9,239.1 155.0,253.3 142.1,279.7"/><polygon points="183.3,272.1 176.1,285.2 158.3,290.2 149.2,284.3 160.6,261.0"/><polygon points="177.0,227.4 192.4,234.9 195.2,250.6 187.4,264.8 164.3,253.5"/><polygon points="215.4,355.6 213.9,351.3 221.4,340.1 230.2,345.4 221.8,359.4"/><polygon points="235.5,348.9 246.4,355.5 238.3,369.0 227.4,362.4"/><polygon points="227.2,387.8 218.9,364.9 235.1,374.6"/><polygon points="254.6,396.3 230.9,394.7 238.2,382.3 257.6,393.9"/><polygon points="265.5,368.1 264.5,389.4 263.4,390.2 255.2,385.3"/><polygon points="241.7,376.4 252.2,359.0 260.7,364.1 250.3,381.5"/><polygon points="322.7,215.6 323.1,226.3 301.4,227.0 301.0,216.4"/><polygon points="300.1,195.8 322.0,203.8 322.5,204.6 322.7,208.5 300.6,209.3"/><polygon points="281.6,207.6 294.3,195.4 294.7,207.1"/><polygon points="285.1,212.7 294.4,212.3 294.9,228.1 285.7,228.4"/><polygon points="271.5,229.1 270.2,219.2 276.8,212.8 279.6,212.7 280.1,228.8"/><polygon points="274.7,246.6 273.2,235.4 294.6,234.6 295.0,245.9"/><polygon points="296.1,261.8 276.0,260.7 275.1,253.4 295.7,252.6"/><polygon points="308.1,262.3 302.5,262.0 302.1,250.2 324.3,249.4 324.4,250.8"/><polygon points="302.0,243.4 301.7,234.2 323.6,233.4 323.9,242.6"/><polygon points="464.8,137.1 460.1,147.0 441.9,138.5 446.5,128.6"/><polygon points="453.5,112.7 466.1,122.1 470.1,126.5 467.9,131.1 449.0,122.3"/><polygon points="438.5,130.7 435.8,136.5 420.3,129.3 429.2,120.8"/><polygon points="444.9,105.9 448.7,108.7 441.1,125.2 433.2,117.0"/><polygon points="415.3,144.5 416.6,134.4 436.0,143.4 431.9,152.2"/><polygon points="424.2,170.1 413.8,152.2 414.0,150.7 429.8,158.1"/><polygon points="450.6,168.3 446.8,176.5 429.9,172.2 435.1,161.1"/><polygon points="457.7,153.3 453.3,162.6 437.7,155.3 442.0,146.0"/><polygon points="132.3,412.8 144.8,423.4 131.6,434.4 121.2,421.9"/><polygon points="108.2,407.6 123.0,403.7 127.9,407.8 116.3,417.4"/><polygon points="102.2,428.7 98.5,410.1 102.2,409.1 111.8,420.7"/><polygon points="111.6,450.9 105.3,434.7 115.2,426.5 125.7,439.2"/><polygon points="241.2,470.2 240.4,479.2 222.4,477.6 223.2,468.6"/><polygon points="224.7,452.6 227.6,451.6 242.4,456.7 241.7,464.1 223.8,462.4"/><polygon points="199.5,461.7 200.6,460.1 218.9,454.0 218.1,463.4"/><polygon points="198.2,475.4 197.1,467.1 217.1,468.9 216.3,477.0"/><polygon points="237.5,504.0 220.5,495.5 226.0,484.6 239.2,485.8"/><polygon points="214.4,493.2 199.3,485.7 198.8,481.4 219.4,483.3"/><polygon points="105.1,345.2 123.3,336.8 137.6,367.6 132.1,369.2"/><polygon points="130.9,333.3 146.8,325.9 160.5,360.6 145.7,365.1"/><polygon points="267.5,247.1 269.5,262.3 262.0,268.7 254.5,266.2 261.7,245.1"/><polygon points="247.7,263.5 236.1,259.6 243.0,239.2 254.6,243.1"/><polygon points="265.3,220.7 267.9,241.0 259.4,238.1"/><polygon points="250.4,215.4 260.0,218.9 254.3,235.6 244.7,232.3"/><polygon points="232.2,209.4 243.6,213.5 237.0,233.1 225.5,229.3"/><polygon points="207.7,223.9 224.1,205.7 225.9,206.4 218.7,227.7"/><polygon points="199.6,233.1 203.1,229.1 213.6,232.7 207.6,250.6 202.4,248.9"/><polygon points="220.1,235.5 234.5,240.4 228.8,257.1 214.5,252.3"/><polygon points="367.0,164.0 372.3,180.5 362.1,183.8 364.2,162.5"/><polygon points="373.5,186.9 379.5,205.2 361.0,203.3 362.2,190.5"/><polygon points="354.1,203.1 343.8,202.0 345.8,182.6 355.6,188.8"/><polygon points="337.9,201.9 327.5,200.8 327.5,200.8 339.9,181.3"/><polygon points="344.8,174.4 355.2,158.1 358.5,159.8 356.3,181.7"/><polygon points="247.7,108.3 248.5,107.8 260.2,102.5 267.1,118.9 254.4,124.2"/><polygon points="228.2,120.5 241.5,112.1 247.8,127.1 233.9,133.0"/><polygon points="256.9,155.6 246.9,160.2 237.3,139.6 248.2,135.0"/><polygon points="275.5,137.3 278.7,145.0 278.3,146.5 263.5,153.4 259.5,144.0"/><polygon points="270.4,124.6 273.4,131.7 257.0,138.6 254.0,131.5"/><polygon points="210.6,133.3 217.5,127.6 222.0,124.7 230.3,142.5 217.6,148.4"/><polygon points="196.1,144.3 205.0,136.8 212.0,152.0 206.0,154.9"/><polygon points="227.4,170.3 222.7,172.5 210.2,159.2 220.2,154.6"/><polygon points="233.8,148.4 241.0,163.9 232.7,167.7 225.5,152.2"/><polygon points="165.7,367.3 169.2,369.1 170.5,381.5 163.6,391.9 153.1,385.0 164.7,367.6"/><polygon points="147.3,382.3 136.4,375.1 156.1,369.1"/><polygon points="133.0,404.0 127.6,399.4 132.9,380.0 144.0,387.4"/><polygon points="159.5,398.0 147.6,415.9 138.6,408.4 149.8,391.6"/><polygon points="251.2,511.4 291.2,507.9 298.3,515.1 276.1,536.8"/><polygon points="255.6,557.0 246.6,556.7 232.6,553.6 242.6,514.6 270.1,542.7"/><polygon points="294.0,556.3 280.7,558.3 266.0,557.8 281.0,543.1"/><polygon points="330.3,547.7 315.2,552.6 303.3,554.4 287.0,537.9 304.1,521.1"/><polygon points="409.7,344.5 407.2,374.7 401.0,377.4 369.8,374.6 364.8,360.0"/><polygon points="410.8,332.3 410.5,335.4 362.1,352.0 354.0,328.6 361.5,323.7 409.7,331.3"/><polygon points="438.5,437.3 436.0,425.8 456.4,421.3 458.9,432.9"/><polygon points="463.5,452.7 461.1,455.5 439.9,445.4 439.6,444.4 460.7,439.8"/><polygon points="488.0,416.4 487.5,417.4 479.9,429.0 464.5,419.0 486.2,414.3"/><polygon points="476.9,434.2 468.6,446.9 464.1,425.8"/><polygon points="457.2,384.7 461.4,384.4 469.7,394.1 460.9,401.7"/><polygon points="473.0,398.5 481.9,409.0 463.7,412.9 462.5,407.5"/><polygon points="433.7,419.5 430.7,405.4 440.8,403.2 443.8,417.3"/><polygon points="446.3,401.9 455.1,400.0 458.2,414.3 449.4,416.2"/><polygon points="430.0,398.9 427.6,387.8 451.2,386.2 452.9,393.9"/><polygon points="350.5,340.3 353.6,349.4 338.6,354.6 335.5,345.5"/><polygon points="329.8,329.2 346.9,329.6 348.7,334.8 333.5,340.1"/><polygon points="314.1,345.2 312.6,339.0 324.6,330.9 327.9,340.4"/><polygon points="318.3,361.4 315.8,350.5 329.3,345.9 332.9,356.4"/><polygon points="339.1,385.9 323.4,380.7 320.4,367.8 331.6,364.0"/><polygon points="363.2,377.6 349.2,389.8 347.4,389.2 343.9,379.2 361.6,373.1"/><polygon points="342.2,372.9 338.3,361.5 355.2,355.6 359.1,367.1"/><polygon points="330.1,322.1 322.6,296.4 361.9,284.8 356.8,316.8 347.8,322.6"/><polygon points="320.2,288.4 314.0,267.4 328.6,257.0 365.0,265.8 363.4,275.6"/><polygon points="195.0,432.1 193.2,426.2 202.4,414.2 212.0,413.2 215.9,425.1"/><polygon points="210.1,434.1 218.9,431.2 224.0,446.5 215.2,449.4"/><polygon points="200.9,454.2 196.1,438.7 204.6,435.9 209.7,451.3"/><polygon points="455.7,294.1 430.3,323.2 416.4,326.0 415.8,325.5 415.5,294.6"/><polygon points="443.8,261.2 459.7,270.3 460.8,285.7 415.4,286.2 415.3,278.6"/><polygon points="261.3,434.1 260.7,424.4 279.1,423.1 279.8,432.8"/><polygon points="261.6,443.9 261.3,440.1 280.7,438.7 281.3,447.7"/><polygon points="304.6,438.3 306.7,445.4 299.3,450.7 287.4,448.4 286.8,439.5"/><polygon points="285.4,422.6 300.0,421.5 303.0,432.1 286.2,433.2"/><polygon points="280.9,399.5 294.9,404.7 297.9,415.2 282.1,416.3"/><polygon points="260.8,417.3 259.7,401.6 267.8,395.1 273.4,397.2 274.8,416.4"/><polygon points="432.9,444.7 412.6,446.1 411.9,436.8 430.9,435.5"/><polygon points="411.3,430.5 410.5,418.5 428.5,423.4 429.7,429.2"/><polygon points="406.3,446.8 389.2,447.9 387.2,446.7 390.3,435.6 405.8,439.8"/><polygon points="391.9,429.6 396.0,414.6 404.1,416.9 405.3,433.2"/><polygon points="422.0,393.0 427.1,416.8 416.3,413.8"/><polygon points="401.9,392.0 404.2,383.8 411.0,380.9 418.0,384.8 415.1,395.6"/><polygon points="397.4,408.7 400.4,397.7 413.6,401.3 410.6,412.3"/><polygon points="184.6,492.4 173.3,500.6 165.0,489.5 176.2,481.1"/><polygon points="191.5,469.2 193.7,486.3 189.8,489.1 180.8,477.1"/><polygon points="169.6,461.7 187.2,465.9 178.0,472.8"/><polygon points="153.8,474.4 163.5,463.0 172.8,475.4 161.1,484.1"/><polygon points="94.3,357.3 95.4,347.1 96.1,347.2 112.1,361.5 105.3,369.2 94.4,359.5"/><polygon points="102.4,374.1 94.3,383.2 93.6,366.2"/><polygon points="117.9,398.4 98.0,403.5 96.2,394.6 96.1,390.1 101.6,383.9"/><polygon points="117.1,366.7 126.7,375.2 122.1,392.0 106.7,378.4"/><polygon points="346.1,396.1 346.1,402.0 332.5,417.6 324.0,410.2 338.5,393.6"/><polygon points="318.2,405.8 308.7,397.5 321.0,387.4 331.3,390.7"/><polygon points="328.4,423.3 312.3,441.8 308.3,427.8 327.3,422.4"/><polygon points="306.6,421.6 301.4,403.3 303.4,401.7 321.3,417.3"/><polygon points="425.6,96.5 438.8,102.8 424.6,116.3 415.2,106.4"/><polygon points="401.4,86.7 412.0,89.4 419.7,93.0 410.2,102.1 399.6,90.9"/><polygon points="393.7,119.7 388.5,117.5 397.1,97.4 406.6,107.4"/><polygon points="420.2,121.3 412.9,128.1 399.9,122.5 411.1,111.8"/><polygon points="357.9,80.8 380.7,82.3 394.3,85.8 390.5,94.8"/><polygon points="363.1,107.0 357.8,104.7 356.6,87.7 369.1,93.0"/><polygon points="388.0,101.7 382.4,114.7 369.1,109.0 374.7,96.0"/><polygon points="509.0,366.7 503.5,382.7 490.8,408.4 477.9,393.3"/><polygon points="517.8,337.6 515.8,347.0 514.5,351.0 502.4,361.3 489.3,346.0 505.7,336.7"/><polygon points="496.0,366.7 472.4,386.9 467.3,380.9 477.2,352.8 481.9,350.2"/><polygon points="336.2,129.6 317.7,133.7 315.9,125.9 334.4,121.8"/><polygon points="314.6,120.1 312.9,112.7 331.6,108.6 333.2,116.0"/><polygon points="351.7,104.5 351.8,106.2 343.1,127.9 342.2,128.1 337.7,107.6"/><polygon points="350.9,89.4 351.5,98.2 335.4,101.8 333.5,93.3"/><polygon points="330.5,80.9 348.0,79.0 350.4,79.2 350.7,83.7 332.0,87.8"/><polygon points="327.7,94.6 329.6,103.0 311.7,106.9 309.9,98.5"/><polygon points="306.8,85.1 314.4,82.9 325.0,81.8 326.5,88.8 308.5,92.8"/><polygon points="288.2,91.2 300.5,87.8 305.0,108.1 292.5,110.9"/><polygon points="266.9,99.5 280.8,93.2 285.1,112.6 273.5,115.2"/><polygon points="291.1,139.3 283.9,140.9 275.9,121.9 286.7,119.5"/><polygon points="306.7,115.5 310.9,134.4 297.9,137.3 293.7,118.4"/><polygon points="453.0,334.2 438.3,326.0 449.0,313.8 462.4,325.5"/><polygon points="452.8,308.2 465.4,293.9 471.6,300.7 458.2,312.9"/><polygon points="475.6,304.7 480.5,310.1 467.9,321.7 462.4,316.9"/><polygon points="481.7,341.7 473.7,346.1 459.1,338.0 469.5,328.5"/><polygon points="498.8,331.4 487.7,337.7 475.0,324.0 484.2,315.6"/><polygon points="288.8,350.4 299.7,340.8 307.5,340.7 309.1,347.4 289.2,352.0"/><polygon points="310.0,353.3 312.1,362.3 293.1,366.7 291.0,357.7"/><polygon points="271.0,372.1 271.2,366.1 284.0,354.9 287.1,368.3"/><polygon points="291.0,395.6 271.1,388.1 271.5,378.9 286.4,375.5"/><polygon points="298.3,398.1 296.0,388.4 315.8,383.8"/><polygon points="295.3,382.4 293.2,373.4 313.4,368.7 315.5,377.7"/><polygon points="215.2,259.7 227.7,263.9 223.9,275.0 211.4,270.8"/><polygon points="222.4,280.4 219.4,289.2 206.4,284.8 209.4,276.0"/><polygon points="189.3,277.8 201.4,255.9 208.5,258.3 200.6,281.7"/><polygon points="210.3,314.1 198.9,303.2 209.4,292.2 216.8,294.7"/><polygon points="194.0,299.1 182.6,288.2 185.2,283.6 203.0,289.6"/><polygon points="248.0,302.7 238.0,310.9 225.1,295.0"/><polygon points="232.8,314.6 220.9,324.3 215.7,319.3 221.8,301.1"/><polygon points="258.9,274.9 254.7,296.8 253.4,297.8 245.1,295.0 252.6,272.8"/><polygon points="239.1,293.7 225.2,289.0 228.2,280.2 242.1,284.9"/><polygon points="230.0,275.0 233.2,265.6 246.9,270.3 243.8,279.6"/><polygon points="523.8,312.3 520.1,330.0 506.4,328.9 503.5,325.7 521.1,309.4"/><polygon points="498.7,299.2 506.1,292.3 517.1,304.1 509.6,311.0"/><polygon points="498.6,321.3 487.5,309.3 494.2,303.1 505.3,315.1"/><polygon points="526.7,274.2 526.8,274.4 524.6,302.5 511.5,288.2"/><polygon points="501.1,278.7 485.9,262.1 490.8,260.1 504.5,263.1"/><polygon points="524.4,267.2 506.4,283.8 510.6,264.3"/><polygon points="469.8,288.8 468.9,287.9 467.7,270.2 479.4,265.4 486.7,273.3"/><polygon points="501.7,288.3 494.3,295.1 484.4,284.4 491.8,277.5"/><polygon points="490.2,299.0 483.5,305.2 473.5,294.3 480.2,288.1"/></g><g fill="none" stroke-linecap="round" stroke-linejoin="round"><path d="M468.3,230.9 L491.9,227.6 L509.3,229.8" stroke="#6c604a" stroke-width="3.4"/><path d="M468.3,230.9 L448.6,216.4 L427.4,204.7" stroke="#6c604a" stroke-width="3.4"/><path d="M427.4,204.7 L406.2,193.3 L395.3,178.0" stroke="#6c604a" stroke-width="3.4"/><path d="M395.3,178.0 L377.0,185.7 L356.3,186.6" stroke="#6c604a" stroke-width="3.4"/><path d="M356.3,186.6 L355.3,206.4 L354.3,230.4" stroke="#6c604a" stroke-width="3.4"/><path d="M395.3,178.0 L390.1,157.4 L377.1,137.0" stroke="#6c604a" stroke-width="3.4"/><path d="M377.1,137.0 L384.3,119.2 L394.7,101.7" stroke="#6c604a" stroke-width="3.4"/><path d="M356.3,186.6 L339.1,177.4 L317.9,162.8" stroke="#6c604a" stroke-width="3.4"/><path d="M427.4,204.7 L414.0,226.3 L405.2,248.3" stroke="#6c604a" stroke-width="3.4"/><path d="M405.2,248.3 L390.3,270.1 L387.7,297.5" stroke="#6c604a" stroke-width="3.4"/><path d="M387.7,297.5 L411.4,301.8 L435.3,292.0" stroke="#6c604a" stroke-width="3.4"/><path d="M435.3,292.0 L448.9,308.2 L468.5,323.0" stroke="#6c604a" stroke-width="3.4"/><path d="M468.5,323.0 L485.0,310.9 L500.9,291.2" stroke="#6c604a" stroke-width="3.4"/><path d="M468.5,323.0 L453.1,338.5 L439.0,357.9" stroke="#6c604a" stroke-width="3.4"/><path d="M387.7,297.5 L365.1,291.6 L340.5,288.2" stroke="#6c604a" stroke-width="3.4"/><path d="M340.5,288.2 L318.0,296.0 L293.0,298.6" stroke="#6c604a" stroke-width="3.4"/><path d="M293.0,298.6 L278.2,318.3 L259.1,332.8" stroke="#6c604a" stroke-width="3.4"/><path d="M259.1,332.8 L244.4,350.3 L239.8,371.1" stroke="#6c604a" stroke-width="3.4"/><path d="M239.8,371.1 L219.0,374.4 L200.8,381.8" stroke="#6c604a" stroke-width="3.4"/><path d="M200.8,381.8 L187.3,396.5 L174.3,410.5" stroke="#6c604a" stroke-width="3.4"/><path d="M174.3,410.5 L161.3,401.9 L149.2,389.3" stroke="#6c604a" stroke-width="3.4"/><path d="M174.3,410.5 L171.9,427.2 L177.9,444.4" stroke="#6c604a" stroke-width="3.4"/><path d="M177.9,444.4 L194.0,441.6 L207.5,433.5" stroke="#6c604a" stroke-width="3.4"/><path d="M207.5,433.5 L221.1,428.7 L239.1,424.3" stroke="#6c604a" stroke-width="3.4"/><path d="M177.9,444.4 L178.7,461.4 L174.7,479.0" stroke="#6c604a" stroke-width="3.4"/><path d="M174.7,479.0 L161.1,489.7 L149.5,496.8" stroke="#6c604a" stroke-width="3.4"/><path d="M177.9,444.4 L159.2,443.4 L138.7,454.8" stroke="#6c604a" stroke-width="3.4"/><path d="M138.7,454.8 L129.6,440.9 L119.1,425.0" stroke="#6c604a" stroke-width="3.4"/><path d="M239.1,424.3 L257.4,423.1 L280.8,424.2" stroke="#6c604a" stroke-width="3.4"/><path d="M149.2,389.3 L148.6,368.6 L135.5,348.8" stroke="#6c604a" stroke-width="3.4"/><path d="M135.5,348.8 L114.3,359.0 L107.6,378.3" stroke="#6c604a" stroke-width="3.4"/><path d="M280.8,424.2 L304.0,424.4 L322.0,410.1" stroke="#6c604a" stroke-width="3.4"/><path d="M322.0,410.1 L331.1,425.1 L348.5,437.6" stroke="#6c604a" stroke-width="3.4"/><path d="M348.5,437.6 L366.9,425.5 L376.3,405.0" stroke="#6c604a" stroke-width="3.4"/><path d="M376.3,405.0 L392.7,414.7 L410.8,420.1" stroke="#6c604a" stroke-width="3.4"/><path d="M207.5,433.5 L213.4,453.1 L222.1,475.7" stroke="#6c604a" stroke-width="3.4"/><path d="M410.8,420.1 L430.0,416.1 L455.4,417.1" stroke="#6c604a" stroke-width="3.4"/><path d="M135.5,348.8 L123.3,332.1 L121.6,305.7" stroke="#6c604a" stroke-width="3.4"/><path d="M222.1,475.7 L243.2,481.3 L269.4,477.8" stroke="#6c604a" stroke-width="3.4"/><path d="M322.0,410.1 L309.0,392.8 L294.0,371.6" stroke="#6c604a" stroke-width="3.4"/><path d="M294.0,371.6 L315.0,360.7 L337.6,358.9" stroke="#6c604a" stroke-width="3.4"/><path d="M337.6,358.9 L357.9,352.7 L384.5,349.7" stroke="#6c604a" stroke-width="3.4"/><path d="M222.1,475.7 L218.1,498.3 L204.0,521.8" stroke="#6c604a" stroke-width="3.4"/><path d="M135.5,348.8 L157.6,341.8 L182.0,328.1" stroke="#6c604a" stroke-width="3.4"/><path d="M468.5,323.0 L489.3,341.2 L492.5,369.0" stroke="#6c604a" stroke-width="3.4"/><path d="M317.9,162.8 L313.7,137.7 L311.8,108.8" stroke="#6c604a" stroke-width="3.4"/><path d="M354.3,230.4 L326.9,228.0 L298.8,230.7" stroke="#6c604a" stroke-width="3.4"/><path d="M269.4,477.8 L296.4,478.9 L323.0,493.6" stroke="#6c604a" stroke-width="3.4"/><path d="M323.0,493.6 L345.9,504.6 L368.4,496.5" stroke="#6c604a" stroke-width="3.4"/><path d="M368.4,496.5 L391.7,486.2 L417.6,475.8" stroke="#6c604a" stroke-width="3.4"/><path d="M182.0,328.1 L199.8,308.8 L221.0,287.6" stroke="#6c604a" stroke-width="3.4"/><path d="M221.0,287.6 L231.2,262.0 L237.2,237.8" stroke="#6c604a" stroke-width="3.4"/><path d="M237.2,237.8 L245.2,210.1 L259.6,185.3" stroke="#6c604a" stroke-width="3.4"/><path d="M259.6,185.3 L251.5,162.3 L239.9,138.8" stroke="#6c604a" stroke-width="3.4"/><path d="M395.3,178.0 L417.0,163.3 L440.8,141.9" stroke="#6c604a" stroke-width="3.4"/><path d="M440.8,141.9 L461.2,153.1 L480.1,170.0" stroke="#6c604a" stroke-width="3.4"/><path d="M269.4,477.8 L266.8,505.8 L276.6,535.5" stroke="#6c604a" stroke-width="3.4"/><path d="M121.6,305.7 L134.1,279.5 L156.4,251.5" stroke="#6c604a" stroke-width="3.4"/><path d="M156.4,251.5 L168.3,218.5 L187.4,191.0" stroke="#6c604a" stroke-width="3.4"/><path d="M468.3,230.9 L477.1,262.3 L500.9,291.2" stroke="#6c604a" stroke-width="3.4"/><path d="M395.3,178.0 L387.0,211.0 L354.3,230.4" stroke="#6c604a" stroke-width="3.4"/><path d="M138.7,454.8 L156.6,466.0 L174.7,479.0" stroke="#6c604a" stroke-width="3.4"/><path d="M427.4,204.7 L453.8,187.4 L480.1,170.0" stroke="#6c604a" stroke-width="3.4"/><path d="M427.4,204.7 L389.5,213.4 L354.3,230.4" stroke="#6c604a" stroke-width="3.4"/><path d="M187.4,191.0 L209.6,217.1 L237.2,237.8" stroke="#6c604a" stroke-width="3.4"/><path d="M293.0,298.6 L268.0,268.2 L237.2,237.8" stroke="#6c604a" stroke-width="3.4"/><path d="M239.1,424.3 L252.3,450.4 L269.4,477.8" stroke="#6c604a" stroke-width="3.4"/><path d="M317.9,162.8 L349.8,142.3 L377.1,137.0" stroke="#6c604a" stroke-width="3.4"/><path d="M259.1,332.8 L220.6,332.4 L182.0,328.1" stroke="#6c604a" stroke-width="3.4"/><path d="M182.0,328.1 L168.2,291.7 L156.4,251.5" stroke="#6c604a" stroke-width="3.4"/><path d="M323.0,493.6 L311.3,446.7 L322.0,410.1" stroke="#6c604a" stroke-width="3.4"/><path d="M384.5,349.7 L413.4,329.0 L435.3,292.0" stroke="#6c604a" stroke-width="3.4"/><path d="M293.0,298.6 L94.9,318.9" stroke="#6c604a" stroke-width="4.8"/><path d="M293.0,298.6 L442.3,100.4" stroke="#6c604a" stroke-width="4.8"/><path d="M293.0,298.6 L415.5,507.0" stroke="#6c604a" stroke-width="4.8"/><path d="M468.3,230.9 L491.9,227.6 L509.3,229.8" stroke="#e4d9bc" stroke-width="1.8"/><path d="M468.3,230.9 L448.6,216.4 L427.4,204.7" stroke="#e4d9bc" stroke-width="1.8"/><path d="M427.4,204.7 L406.2,193.3 L395.3,178.0" stroke="#e4d9bc" stroke-width="1.8"/><path d="M395.3,178.0 L377.0,185.7 L356.3,186.6" stroke="#e4d9bc" stroke-width="1.8"/><path d="M356.3,186.6 L355.3,206.4 L354.3,230.4" stroke="#e4d9bc" stroke-width="1.8"/><path d="M395.3,178.0 L390.1,157.4 L377.1,137.0" stroke="#e4d9bc" stroke-width="1.8"/><path d="M377.1,137.0 L384.3,119.2 L394.7,101.7" stroke="#e4d9bc" stroke-width="1.8"/><path d="M356.3,186.6 L339.1,177.4 L317.9,162.8" stroke="#e4d9bc" stroke-width="1.8"/><path d="M427.4,204.7 L414.0,226.3 L405.2,248.3" stroke="#e4d9bc" stroke-width="1.8"/><path d="M405.2,248.3 L390.3,270.1 L387.7,297.5" stroke="#e4d9bc" stroke-width="1.8"/><path d="M387.7,297.5 L411.4,301.8 L435.3,292.0" stroke="#e4d9bc" stroke-width="1.8"/><path d="M435.3,292.0 L448.9,308.2 L468.5,323.0" stroke="#e4d9bc" stroke-width="1.8"/><path d="M468.5,323.0 L485.0,310.9 L500.9,291.2" stroke="#e4d9bc" stroke-width="1.8"/><path d="M468.5,323.0 L453.1,338.5 L439.0,357.9" stroke="#e4d9bc" stroke-width="1.8"/><path d="M387.7,297.5 L365.1,291.6 L340.5,288.2" stroke="#e4d9bc" stroke-width="1.8"/><path d="M340.5,288.2 L318.0,296.0 L293.0,298.6" stroke="#e4d9bc" stroke-width="1.8"/><path d="M293.0,298.6 L278.2,318.3 L259.1,332.8" stroke="#e4d9bc" stroke-width="1.8"/><path d="M259.1,332.8 L244.4,350.3 L239.8,371.1" stroke="#e4d9bc" stroke-width="1.8"/><path d="M239.8,371.1 L219.0,374.4 L200.8,381.8" stroke="#e4d9bc" stroke-width="1.8"/><path d="M200.8,381.8 L187.3,396.5 L174.3,410.5" stroke="#e4d9bc" stroke-width="1.8"/><path d="M174.3,410.5 L161.3,401.9 L149.2,389.3" stroke="#e4d9bc" stroke-width="1.8"/><path d="M174.3,410.5 L171.9,427.2 L177.9,444.4" stroke="#e4d9bc" stroke-width="1.8"/><path d="M177.9,444.4 L194.0,441.6 L207.5,433.5" stroke="#e4d9bc" stroke-width="1.8"/><path d="M207.5,433.5 L221.1,428.7 L239.1,424.3" stroke="#e4d9bc" stroke-width="1.8"/><path d="M177.9,444.4 L178.7,461.4 L174.7,479.0" stroke="#e4d9bc" stroke-width="1.8"/><path d="M174.7,479.0 L161.1,489.7 L149.5,496.8" stroke="#e4d9bc" stroke-width="1.8"/><path d="M177.9,444.4 L159.2,443.4 L138.7,454.8" stroke="#e4d9bc" stroke-width="1.8"/><path d="M138.7,454.8 L129.6,440.9 L119.1,425.0" stroke="#e4d9bc" stroke-width="1.8"/><path d="M239.1,424.3 L257.4,423.1 L280.8,424.2" stroke="#e4d9bc" stroke-width="1.8"/><path d="M149.2,389.3 L148.6,368.6 L135.5,348.8" stroke="#e4d9bc" stroke-width="1.8"/><path d="M135.5,348.8 L114.3,359.0 L107.6,378.3" stroke="#e4d9bc" stroke-width="1.8"/><path d="M280.8,424.2 L304.0,424.4 L322.0,410.1" stroke="#e4d9bc" stroke-width="1.8"/><path d="M322.0,410.1 L331.1,425.1 L348.5,437.6" stroke="#e4d9bc" stroke-width="1.8"/><path d="M348.5,437.6 L366.9,425.5 L376.3,405.0" stroke="#e4d9bc" stroke-width="1.8"/><path d="M376.3,405.0 L392.7,414.7 L410.8,420.1" stroke="#e4d9bc" stroke-width="1.8"/><path d="M207.5,433.5 L213.4,453.1 L222.1,475.7" stroke="#e4d9bc" stroke-width="1.8"/><path d="M410.8,420.1 L430.0,416.1 L455.4,417.1" stroke="#e4d9bc" stroke-width="1.8"/><path d="M135.5,348.8 L123.3,332.1 L121.6,305.7" stroke="#e4d9bc" stroke-width="1.8"/><path d="M222.1,475.7 L243.2,481.3 L269.4,477.8" stroke="#e4d9bc" stroke-width="1.8"/><path d="M322.0,410.1 L309.0,392.8 L294.0,371.6" stroke="#e4d9bc" stroke-width="1.8"/><path d="M294.0,371.6 L315.0,360.7 L337.6,358.9" stroke="#e4d9bc" stroke-width="1.8"/><path d="M337.6,358.9 L357.9,352.7 L384.5,349.7" stroke="#e4d9bc" stroke-width="1.8"/><path d="M222.1,475.7 L218.1,498.3 L204.0,521.8" stroke="#e4d9bc" stroke-width="1.8"/><path d="M135.5,348.8 L157.6,341.8 L182.0,328.1" stroke="#e4d9bc" stroke-width="1.8"/><path d="M468.5,323.0 L489.3,341.2 L492.5,369.0" stroke="#e4d9bc" stroke-width="1.8"/><path d="M317.9,162.8 L313.7,137.7 L311.8,108.8" stroke="#e4d9bc" stroke-width="1.8"/><path d="M354.3,230.4 L326.9,228.0 L298.8,230.7" stroke="#e4d9bc" stroke-width="1.8"/><path d="M269.4,477.8 L296.4,478.9 L323.0,493.6" stroke="#e4d9bc" stroke-width="1.8"/><path d="M323.0,493.6 L345.9,504.6 L368.4,496.5" stroke="#e4d9bc" stroke-width="1.8"/><path d="M368.4,496.5 L391.7,486.2 L417.6,475.8" stroke="#e4d9bc" stroke-width="1.8"/><path d="M182.0,328.1 L199.8,308.8 L221.0,287.6" stroke="#e4d9bc" stroke-width="1.8"/><path d="M221.0,287.6 L231.2,262.0 L237.2,237.8" stroke="#e4d9bc" stroke-width="1.8"/><path d="M237.2,237.8 L245.2,210.1 L259.6,185.3" stroke="#e4d9bc" stroke-width="1.8"/><path d="M259.6,185.3 L251.5,162.3 L239.9,138.8" stroke="#e4d9bc" stroke-width="1.8"/><path d="M395.3,178.0 L417.0,163.3 L440.8,141.9" stroke="#e4d9bc" stroke-width="1.8"/><path d="M440.8,141.9 L461.2,153.1 L480.1,170.0" stroke="#e4d9bc" stroke-width="1.8"/><path d="M269.4,477.8 L266.8,505.8 L276.6,535.5" stroke="#e4d9bc" stroke-width="1.8"/><path d="M121.6,305.7 L134.1,279.5 L156.4,251.5" stroke="#e4d9bc" stroke-width="1.8"/><path d="M156.4,251.5 L168.3,218.5 L187.4,191.0" stroke="#e4d9bc" stroke-width="1.8"/><path d="M468.3,230.9 L477.1,262.3 L500.9,291.2" stroke="#e4d9bc" stroke-width="1.8"/><path d="M395.3,178.0 L387.0,211.0 L354.3,230.4" stroke="#e4d9bc" stroke-width="1.8"/><path d="M138.7,454.8 L156.6,466.0 L174.7,479.0" stroke="#e4d9bc" stroke-width="1.8"/><path d="M427.4,204.7 L453.8,187.4 L480.1,170.0" stroke="#e4d9bc" stroke-width="1.8"/><path d="M427.4,204.7 L389.5,213.4 L354.3,230.4" stroke="#e4d9bc" stroke-width="1.8"/><path d="M187.4,191.0 L209.6,217.1 L237.2,237.8" stroke="#e4d9bc" stroke-width="1.8"/><path d="M293.0,298.6 L268.0,268.2 L237.2,237.8" stroke="#e4d9bc" stroke-width="1.8"/><path d="M239.1,424.3 L252.3,450.4 L269.4,477.8" stroke="#e4d9bc" stroke-width="1.8"/><path d="M317.9,162.8 L349.8,142.3 L377.1,137.0" stroke="#e4d9bc" stroke-width="1.8"/><path d="M259.1,332.8 L220.6,332.4 L182.0,328.1" stroke="#e4d9bc" stroke-width="1.8"/><path d="M182.0,328.1 L168.2,291.7 L156.4,251.5" stroke="#e4d9bc" stroke-width="1.8"/><path d="M323.0,493.6 L311.3,446.7 L322.0,410.1" stroke="#e4d9bc" stroke-width="1.8"/><path d="M384.5,349.7 L413.4,329.0 L435.3,292.0" stroke="#e4d9bc" stroke-width="1.8"/><path d="M293.0,298.6 L94.9,318.9" stroke="#e4d9bc" stroke-width="3.2"/><path d="M293.0,298.6 L442.3,100.4" stroke="#e4d9bc" stroke-width="3.2"/><path d="M293.0,298.6 L415.5,507.0" stroke="#e4d9bc" stroke-width="3.2"/></g><polygon points="91.0,357.2 94.9,318.9 104.2,280.9 118.4,244.2 137.1,209.5 159.8,177.5 186.1,149.0 215.3,124.5 246.7,104.5 279.9,89.6 313.9,80.1 348.0,76.3 381.3,78.5 413.0,86.6 442.3,100.4 468.2,119.7 490.3,143.9 507.8,172.2 520.5,204.0 528.1,238.3 530.4,274.4 527.7,311.2 519.9,348.1 507.3,384.3 490.3,419.0 469.0,451.4 443.9,481.0 415.5,507.0 384.3,528.7 350.9,545.5 316.2,556.7 280.9,562.0 246.1,560.9 212.7,553.4 181.8,539.5 154.3,519.7 131.1,494.5 112.8,464.7 99.9,431.2 92.6,395.0" fill="none" stroke="#3c3628" stroke-width="1.5"/><g font-family="Georgia, serif" font-size="8" text-anchor="middle"><text x="468.3" y="233.9" stroke="#f7f3ea" stroke-width="2.5" paint-order="stroke" fill="#23211c">Noble</text><text x="395.3" y="181.0" stroke="#f7f3ea" stroke-width="2.5" paint-order="stroke" fill="#23211c">Residential</text><text x="121.6" y="308.7" stroke="#f7f3ea" stroke-width="2.5" paint-order="stroke" fill="#23211c">Craftsmen</text><text x="417.6" y="478.8" stroke="#f7f3ea" stroke-width="2.5" paint-order="stroke" fill="#23211c">Craftsmen</text><text x="177.9" y="447.4" stroke="#f7f3ea" stroke-width="2.5" paint-order="stroke" fill="#23211c">Temple</text><text x="204.0" y="524.8" stroke="#f7f3ea" stroke-width="2.5" paint-order="stroke" fill="#23211c">Temple</text><text x="138.7" y="457.8" stroke="#f7f3ea" stroke-width="2.5" paint-order="stroke" fill="#23211c">Residential</text><text x="427.4" y="207.7" stroke="#f7f3ea" stroke-width="2.5" paint-order="stroke" fill="#23211c">Noble</text><text x="480.1" y="173.0" stroke="#f7f3ea" stroke-width="2.5" paint-order="stroke" fill="#23211c">Residential</text><text x="187.4" y="194.0" stroke="#f7f3ea" stroke-width="2.5" paint-order="stroke" fill="#23211c">Noble</text><text x="259.6" y="188.3" stroke="#f7f3ea" stroke-width="2.5" paint-order="stroke" fill="#23211c">Noble</text><text x="376.3" y="408.0" stroke="#f7f3ea" stroke-width="2.5" paint-order="stroke" fill="#23211c">Residential</text><text x="200.8" y="384.8" stroke="#f7f3ea" stroke-width="2.5" paint-order="stroke" fill="#23211c">Craftsmen</text><text x="174.3" y="413.5" stroke="#f7f3ea" stroke-width="2.5" paint-order="stroke" fill="#23211c">Temple</text><text x="149.5" y="499.8" stroke="#f7f3ea" stroke-width="2.5" paint-order="stroke" fill="#23211c">Residential</text><text x="439.0" y="360.9" stroke="#f7f3ea" stroke-width="2.5" paint-order="stroke" fill="#23211c">Temple</text><text x="293.0" y="301.6" stroke="#f7f3ea" stroke-width="2.5" paint-order="stroke" fill="#23211c">Market</text><text x="239.1" y="427.3" stroke="#f7f3ea" stroke-width="2.5" paint-order="stroke" fill="#23211c">Noble</text><text x="317.9" y="165.8" stroke="#f7f3ea" stroke-width="2.5" paint-order="stroke" fill="#23211c">Residential</text><text x="354.3" y="233.4" stroke="#f7f3ea" stroke-width="2.5" paint-order="stroke" fill="#23211c">Garrison</text><text x="387.7" y="300.5" stroke="#f7f3ea" stroke-width="2.5" paint-order="stroke" fill="#23211c">Garrison</text><text x="377.1" y="140.0" stroke="#f7f3ea" stroke-width="2.5" paint-order="stroke" fill="#23211c">Craftsmen</text><text x="348.5" y="440.6" stroke="#f7f3ea" stroke-width="2.5" paint-order="stroke" fill="#23211c">Residential</text><text x="259.1" y="335.8" stroke="#f7f3ea" stroke-width="2.5" paint-order="stroke" fill="#23211c">Residential</text><text x="269.4" y="480.8" stroke="#f7f3ea" stroke-width="2.5" paint-order="stroke" fill="#23211c">Residential</text><text x="182.0" y="331.1" stroke="#f7f3ea" stroke-width="2.5" paint-order="stroke" fill="#23211c">Noble</text><text x="509.3" y="232.8" stroke="#f7f3ea" stroke-width="2.5" paint-order="stroke" fill="#23211c">Residential</text><text x="405.2" y="251.3" stroke="#f7f3ea" stroke-width="2.5" paint-order="stroke" fill="#23211c">Residential</text><text x="323.0" y="496.6" stroke="#f7f3ea" stroke-width="2.5" paint-order="stroke" fill="#23211c">Craftsmen</text><text x="368.4" y="499.5" stroke="#f7f3ea" stroke-width="2.5" paint-order="stroke" fill="#23211c">Noble</text><text x="156.4" y="254.5" stroke="#f7f3ea" stroke-width="2.5" paint-order="stroke" fill="#23211c">Noble</text><text x="239.8" y="374.1" stroke="#f7f3ea" stroke-width="2.5" paint-order="stroke" fill="#23211c">Residential</text><text x="298.8" y="233.7" stroke="#f7f3ea" stroke-width="2.5" paint-order="stroke" fill="#23211c">Residential</text><text x="440.8" y="144.9" stroke="#f7f3ea" stroke-width="2.5" paint-order="stroke" fill="#23211c">Residential</text><text x="119.1" y="428.0" stroke="#f7f3ea" stroke-width="2.5" paint-order="stroke" fill="#23211c">Residential</text><text x="222.1" y="478.7" stroke="#f7f3ea" stroke-width="2.5" paint-order="stroke" fill="#23211c">Craftsmen</text><text x="135.5" y="351.8" stroke="#f7f3ea" stroke-width="2.5" paint-order="stroke" fill="#23211c">Noble</text><text x="237.2" y="240.8" stroke="#f7f3ea" stroke-width="2.5" paint-order="stroke" fill="#23211c">Residential</text><text x="356.3" y="189.6" stroke="#f7f3ea" stroke-width="2.5" paint-order="stroke" fill="#23211c">Craftsmen</text><text x="239.9" y="141.8" stroke="#f7f3ea" stroke-width="2.5" paint-order="stroke" fill="#23211c">Residential</text><text x="149.2" y="392.3" stroke="#f7f3ea" stroke-width="2.5" paint-order="stroke" fill="#23211c">Residential</text><text x="276.6" y="538.5" stroke="#f7f3ea" stroke-width="2.5" paint-order="stroke" fill="#23211c">Noble</text><text x="384.5" y="352.7" stroke="#f7f3ea" stroke-width="2.5" paint-order="stroke" fill="#23211c">Noble</text><text x="455.4" y="420.1" stroke="#f7f3ea" stroke-width="2.5" paint-order="stroke" fill="#23211c">Residential</text><text x="337.6" y="361.9" stroke="#f7f3ea" stroke-width="2.5" paint-order="stroke" fill="#23211c">Residential</text><text x="340.5" y="291.2" stroke="#f7f3ea" stroke-width="2.5" paint-order="stroke" fill="#23211c">Noble</text><text x="207.5" y="436.5" stroke="#f7f3ea" stroke-width="2.5" paint-order="stroke" fill="#23211c">Temple</text><text x="435.3" y="295.0" stroke="#f7f3ea" stroke-width="2.5" paint-order="stroke" fill="#23211c">Noble</text><text x="280.8" y="427.2" stroke="#f7f3ea" stroke-width="2.5" paint-order="stroke" fill="#23211c">Residential</text><text x="410.8" y="423.1" stroke="#f7f3ea" stroke-width="2.5" paint-order="stroke" fill="#23211c">Temple</text><text x="174.7" y="482.0" stroke="#f7f3ea" stroke-width="2.5" paint-order="stroke" fill="#23211c">Craftsmen</text><text x="107.6" y="381.3" stroke="#f7f3ea" stroke-width="2.5" paint-order="stroke" fill="#23211c">Craftsmen</text><text x="322.0" y="413.1" stroke="#f7f3ea" stroke-width="2.5" paint-order="stroke" fill="#23211c">Residential</text><text x="394.7" y="104.7" stroke="#f7f3ea" stroke-width="2.5" paint-order="stroke" fill="#23211c">Craftsmen</text><text x="492.5" y="372.0" stroke="#f7f3ea" stroke-width="2.5" paint-order="stroke" fill="#23211c">Noble</text><text x="311.8" y="111.8" stroke="#f7f3ea" stroke-width="2.5" paint-order="stroke" fill="#23211c">Craftsmen</text><text x="468.5" y="326.0" stroke="#f7f3ea" stroke-width="2.5" paint-order="stroke" fill="#23211c">Temple</text><text x="294.0" y="374.6" stroke="#f7f3ea" stroke-width="2.5" paint-order="stroke" fill="#23211c">Craftsmen</text><text x="221.0" y="290.6" stroke="#f7f3ea" stroke-width="2.5" paint-order="stroke" fill="#23211c">Temple</text><text x="500.9" y="294.2" stroke="#f7f3ea" stroke-width="2.5" paint-order="stroke" fill="#23211c">Residential</text></g><text x="315.0" y="20" text-anchor="middle" font-family="Georgia, serif" font-size="16" font-weight="bold" stroke="#f7f3ea" stroke-width="3" paint-order="stroke" fill="#23211c">Ironhollowaymarch</text></svg>