<svg xmlns="http://www.w3.org/2000/svg" width="576" height="396" viewBox="0 0 576 396"><rect width="576" height="396" fill="#183e56"/><g stroke-linejoin="round"><polygon points="0.0,0.0 16.2,0.0 13.8,15.0 0.0,16.2" fill="#1f4e6b" stroke="#1f4e6b" stroke-width="0.5"/><polygon points="16.2,0.0 39.2,0.0 40.5,10.9 21.8,23.2 13.8,15.0" fill="#1f4e6b" stroke="#1f4e6b" stroke-width="0.5"/><polygon points="39.2,0.0 69.1,0.0 64.2,15.1 47.3,16.2 40.5,10.9" fill="#3d7ea6" stroke="#3d7ea6" stroke-width="0.5"/><polygon points="69.1,0.0 87.1,0.0 93.0,15.8 84.2,27.7 68.6,22.1 64.2,15.1" fill="#f1fbe6" stroke="#f1fbe6" stroke-width="0.5"/><polygon points="87.1,0.0 119.9,0.0 102.5,16.2 93.0,15.8" fill="#6098b8" stroke="#6098b8" stroke-width="0.5"/><polygon points="120.9,0.0 128.0,0.0 148.0,18.3 137.1,29.9 125.2,31.9" fill="#f1fbe6" stroke="#f1fbe6" stroke-width="0.5"/><polygon points="128.0,0.0 154.4,0.0 148.8,19.1" fill="#eef8e4" stroke="#eef8e4" stroke-width="0.5"/><polygon points="154.4,0.0 177.0,0.0 178.0,7.2 173.4,13.7 153.5,19.8 149.2,18.0" fill="#f1fbe6" stroke="#f1fbe6" stroke-width="0.5"/><polygon points="177.0,0.0 205.4,0.0 201.3,13.8 194.7,16.2 178.0,7.2" fill="#e7f1de" stroke="#e7f1de" stroke-width="0.5"/><polygon points="205.4,0.0 219.7,0.0 224.3,16.0 215.4,22.6 201.3,13.8" fill="#d6dfcc" stroke="#d6dfcc" stroke-width="0.5"/><polygon points="219.7,0.0 241.2,0.0 238.5,16.9 224.3,16.0" fill="#b4bbac" stroke="#b4bbac" stroke-width="0.5"/><polygon points="241.2,0.0 264.2,0.0 265.8,13.6 244.6,23.8 238.5,16.9" fill="#b1b8a9" stroke="#b1b8a9" stroke-width="0.5"/><polygon points="264.2,0.0 291.6,0.0 288.7,14.5 265.9,14.5" fill="#aeb5a7" stroke="#aeb5a7" stroke-width="0.5"/><polygon points="291.6,0.0 312.6,0.0 314.1,14.4 305.0,23.5 293.6,21.6 288.7,14.5" fill="#999f92" stroke="#999f92" stroke-width="0.5"/><polygon points="312.6,0.0 337.5,0.0 337.5,21.0 314.1,14.4" fill="#6098b8" stroke="#6098b8" stroke-width="0.5"/><polygon points="337.5,0.0 362.3,0.0 362.0,9.1 349.0,19.4 337.5,19.2" fill="#6098b8" stroke="#6098b8" stroke-width="0.5"/><polygon points="362.3,0.0 382.9,0.0 386.7,15.0 375.8,21.1 362.0,9.1" fill="#6098b8" stroke="#6098b8" stroke-width="0.5"/><polygon points="382.9,0.0 407.2,0.0 391.1,16.1 386.7,15.0" fill="#6098b8" stroke="#6098b8" stroke-width="0.5"/><polygon points="407.2,0.0 412.3,0.0 417.9,19.8 398.8,24.6 391.1,16.1" fill="#5b693f" stroke="#5b693f" stroke-width="0.5"/><polygon points="412.3,0.0 437.3,0.0 437.1,20.3 418.9,23.4" fill="#8f8366" stroke="#8f8366" stroke-width="0.5"/><polygon points="437.3,0.0 463.5,0.0 464.8,10.3 455.9,20.3 437.1,19.8" fill="#3d7ea6" stroke="#3d7ea6" stroke-width="0.5"/><polygon points="463.5,0.0 496.7,0.0 496.5,2.8 480.0,17.5 464.8,10.3" fill="#1f4e6b" stroke="#1f4e6b" stroke-width="0.5"/><polygon points="484.6,35.1 480.0,17.5 496.5,2.8 507.2,18.8 490.0,35.2" fill="#1f4e6b" stroke="#1f4e6b" stroke-width="0.5"/><polygon points="496.7,0.0 528.5,0.0 515.5,21.1 507.2,18.8 496.5,2.8" fill="#1f4e6b" stroke="#1f4e6b" stroke-width="0.5"/><polygon points="532.6,0.0 558.0,0.0 558.0,15.8 557.8,15.9 543.2,16.6" fill="#1f4e6b" stroke="#1f4e6b" stroke-width="0.5"/><polygon points="558.0,0.0 576.0,0.0 576.0,15.8 558.0,15.8" fill="#1f4e6b" stroke="#1f4e6b" stroke-width="0.5"/><polygon points="0.0,43.3 0.0,16.2 13.8,15.0 21.8,23.2 22.0,26.0 3.0,43.6" fill="#1f4e6b" stroke="#1f4e6b" stroke-width="0.5"/><polygon points="22.0,26.0 21.8,23.2 40.5,10.9 47.3,16.2 45.7,36.1 34.3,39.7" fill="#3d7ea6" stroke="#3d7ea6" stroke-width="0.5"/><polygon points="45.7,36.1 47.3,16.2 64.2,15.1 68.6,22.1 56.8,41.3" fill="#65a65f" stroke="#65a65f" stroke-width="0.5"/><polygon points="68.6,22.1 84.2,27.7 85.6,33.3 81.1,43.2 59.1,45.6 56.8,41.3" fill="#65a65f" stroke="#65a65f" stroke-width="0.5"/><polygon points="85.6,33.3 84.2,27.7 93.0,15.8 102.5,16.2 114.7,32.9 105.5,40.8" fill="#f1fbe6" stroke="#f1fbe6" stroke-width="0.5"/><polygon points="119.9,0.0 120.9,0.0 125.2,32.1 114.7,32.9 102.5,16.2" fill="#f1fbe6" stroke="#f1fbe6" stroke-width="0.5"/><polygon points="137.1,29.9 148.5,17.8 153.5,19.8 164.7,38.9 149.6,47.7" fill="#c8c17d" stroke="#c8c17d" stroke-width="0.5"/><polygon points="164.7,38.9 153.5,19.8 173.4,13.7 178.3,41.5" fill="#b6af72" stroke="#b6af72" stroke-width="0.5"/><polygon points="177.5,37.1 173.4,13.7 178.0,7.3 194.7,16.2 190.6,33.9" fill="#ccc580" stroke="#ccc580" stroke-width="0.5"/><polygon points="190.6,33.9 194.7,16.2 201.3,13.8 215.4,22.6 214.8,39.0 202.8,41.9" fill="#b3ac70" stroke="#b3ac70" stroke-width="0.5"/><polygon points="214.8,39.0 215.4,22.6 224.3,16.0 238.5,16.9 244.6,23.8 244.5,29.2 235.2,41.0 220.5,42.8" fill="#aca56b" stroke="#aca56b" stroke-width="0.5"/><polygon points="244.5,29.2 244.6,23.8 266.7,13.1 272.7,37.9 265.1,44.0" fill="#9f9963" stroke="#9f9963" stroke-width="0.5"/><polygon points="272.7,37.9 267.0,14.5 288.7,14.5 293.6,21.6 283.0,37.9" fill="#b0b7a8" stroke="#b0b7a8" stroke-width="0.5"/><polygon points="293.6,21.6 305.0,23.5 311.8,40.4 293.5,50.1 283.0,37.9" fill="#8d8858" stroke="#8d8858" stroke-width="0.5"/><polygon points="311.8,40.4 305.0,23.5 314.1,14.4 336.0,20.5 333.7,33.4 328.8,39.0 316.0,42.2" fill="#bfc7b7" stroke="#bfc7b7" stroke-width="0.5"/><polygon points="333.7,33.4 336.3,19.2 349.0,19.4 361.8,34.4 355.4,44.5" fill="#abb2a3" stroke="#abb2a3" stroke-width="0.5"/><polygon points="361.8,34.4 349.0,19.4 362.0,9.1 375.8,21.1 372.7,31.1" fill="#acb3a5" stroke="#acb3a5" stroke-width="0.5"/><polygon points="372.7,31.1 375.8,21.1 386.7,15.0 391.1,16.1 398.8,24.6 397.4,40.8 382.4,42.4" fill="#447140" stroke="#447140" stroke-width="0.5"/><polygon points="397.2,42.7 398.8,24.6 423.3,18.5 418.1,42.8" fill="#467442" stroke="#467442" stroke-width="0.5"/><polygon points="417.8,43.8 422.3,22.9 436.5,20.4 441.5,44.9 437.4,47.6" fill="#467442" stroke="#467442" stroke-width="0.5"/><polygon points="441.5,44.9 436.4,19.8 455.9,20.3 461.5,38.3 454.0,46.2" fill="#3f683b" stroke="#3f683b" stroke-width="0.5"/><polygon points="461.5,38.3 455.9,20.3 464.8,10.3 480.0,17.5 484.6,35.1 480.3,39.2" fill="#3d7ea6" stroke="#3d7ea6" stroke-width="0.5"/><polygon points="490.0,35.2 507.2,18.8 515.5,21.1 521.0,29.5 507.3,47.2" fill="#1f4e6b" stroke="#1f4e6b" stroke-width="0.5"/><polygon points="528.5,0.0 532.6,0.0 543.2,16.6 534.0,33.1 521.0,29.5 515.5,21.1" fill="#1f4e6b" stroke="#1f4e6b" stroke-width="0.5"/><polygon points="534.0,33.1 543.2,16.6 557.8,15.9 559.2,36.9 545.7,41.9 536.7,37.6" fill="#1f4e6b" stroke="#1f4e6b" stroke-width="0.5"/><polygon points="576.0,15.8 576.0,43.6 559.2,36.9 557.8,15.9 558.0,15.8" fill="#1f4e6b" stroke="#1f4e6b" stroke-width="0.5"/><polygon points="12.0,77.8 13.1,52.0 30.8,50.4 34.4,57.6 23.5,76.2" fill="#3d7ea6" stroke="#3d7ea6" stroke-width="0.5"/><polygon points="3.0,43.6 22.0,26.0 34.3,39.7 30.8,50.4 13.1,52.0" fill="#3d7ea6" stroke="#3d7ea6" stroke-width="0.5"/><polygon points="34.4,57.6 30.8,50.4 34.3,39.7 45.7,36.1 56.8,41.3 59.1,45.6 57.4,60.6 49.3,62.9" fill="#65a65f" stroke="#65a65f" stroke-width="0.5"/><polygon points="57.4,60.6 59.1,45.6 81.1,43.2 85.0,57.8 64.7,66.5" fill="#65a65f" stroke="#65a65f" stroke-width="0.5"/><polygon points="85.0,57.8 81.1,43.2 85.6,33.3 105.5,40.8 104.9,59.6 92.2,62.0" fill="#65a65f" stroke="#65a65f" stroke-width="0.5"/><polygon points="104.9,59.8 105.5,40.8 114.7,32.9 124.9,32.1 128.5,59.8" fill="#cdc580" stroke="#cdc580" stroke-width="0.5"/><polygon points="128.3,58.2 124.9,31.9 137.1,29.9 149.6,47.7 146.7,57.5" fill="#cdc580" stroke="#cdc580" stroke-width="0.5"/><polygon points="145.2,62.5 149.6,47.7 164.7,38.9 173.8,40.6 177.1,58.8" fill="#c7c07c" stroke="#c7c07c" stroke-width="0.5"/><polygon points="177.0,58.2 173.3,38.1 190.6,33.9 202.8,41.9 195.0,62.7" fill="#b4ae71" stroke="#b4ae71" stroke-width="0.5"/><polygon points="195.0,62.7 202.8,41.9 214.8,39.0 220.5,42.8 220.5,67.4 196.2,64.4" fill="#f9fdff" stroke="#f9fdff" stroke-width="0.5"/><polygon points="220.5,67.4 220.5,42.8 235.2,41.0 246.2,60.3 244.8,64.4" fill="#eef2f6" stroke="#eef2f6" stroke-width="0.5"/><polygon points="246.2,60.3 235.2,41.0 244.5,29.2 265.1,44.0 263.7,50.5" fill="#9a9460" stroke="#9a9460" stroke-width="0.5"/><polygon points="263.7,50.5 265.1,44.0 272.7,37.9 283.0,37.9 293.5,50.1 292.2,60.1 274.6,64.3" fill="#928d5b" stroke="#928d5b" stroke-width="0.5"/><polygon points="292.2,60.1 293.5,50.1 311.8,40.4 316.0,42.2 317.4,66.4 296.4,65.3" fill="#898355" stroke="#898355" stroke-width="0.5"/><polygon points="317.4,66.3 316.0,42.2 328.8,39.0 337.1,56.4 325.5,66.0" fill="#aaa36a" stroke="#aaa36a" stroke-width="0.5"/><polygon points="337.1,56.4 328.8,39.0 333.7,33.4 355.4,44.5 355.8,51.5 348.1,58.8" fill="#497844" stroke="#497844" stroke-width="0.5"/><polygon points="355.8,51.5 355.4,44.5 361.8,34.4 372.7,31.1 382.4,42.4 374.8,59.8" fill="#426d3e" stroke="#426d3e" stroke-width="0.5"/><polygon points="374.2,61.1 382.4,42.4 399.5,40.6 399.5,70.4" fill="#436f3f" stroke="#436f3f" stroke-width="0.5"/><polygon points="399.5,66.2 399.5,42.8 419.3,42.8 417.1,64.0" fill="#385c35" stroke="#385c35" stroke-width="0.5"/><polygon points="419.2,44.1 437.4,47.6 434.4,68.8 424.6,69.5 417.1,64.0" fill="#385c34" stroke="#385c34" stroke-width="0.5"/><polygon points="434.4,68.8 437.4,47.6 441.5,44.9 454.0,46.2 458.1,59.4 443.0,72.0 438.9,72.0" fill="#416b3d" stroke="#416b3d" stroke-width="0.5"/><polygon points="458.1,59.4 454.0,46.2 461.5,38.3 480.3,39.2 480.6,59.4 466.8,64.1" fill="#a59776" stroke="#a59776" stroke-width="0.5"/><polygon points="480.6,59.4 480.3,39.2 484.6,35.1 490.0,35.2 507.3,47.2 509.3,56.7 490.5,67.1" fill="#3d7ea6" stroke="#3d7ea6" stroke-width="0.5"/><polygon points="509.3,56.7 507.3,47.2 521.0,29.5 534.0,33.1 536.7,37.6 525.8,56.7 512.3,58.4" fill="#1f4e6b" stroke="#1f4e6b" stroke-width="0.5"/><polygon points="536.7,37.6 545.7,41.9 549.9,60.7 536.5,65.9 525.8,56.7" fill="#1f4e6b" stroke="#1f4e6b" stroke-width="0.5"/><polygon points="576.0,43.6 576.0,54.6 550.4,61.0 549.9,60.7 545.7,41.9 559.2,36.9" fill="#1f4e6b" stroke="#1f4e6b" stroke-width="0.5"/><polygon points="0.0,77.5 0.0,43.3 3.0,43.6 13.1,52.0 12.0,77.3" fill="#1f4e6b" stroke="#1f4e6b" stroke-width="0.5"/><polygon points="23.5,76.2 34.4,57.6 49.3,62.9 40.2,85.6" fill="#64a55e" stroke="#64a55e" stroke-width="0.5"/><polygon points="37.6,92.1 49.3,62.9 57.4,60.6 64.7,66.5 67.4,79.7" fill="#65a65e" stroke="#65a65e" stroke-width="0.5"/><polygon points="67.4,79.7 64.7,66.5 85.0,57.8 92.2,62.0 86.5,85.1 74.0,86.0" fill="#63a45d" stroke="#63a45d" stroke-width="0.5"/><polygon points="86.5,85.1 92.2,62.0 105.1,59.5 109.8,83.0 90.3,87.7" fill="#ccc580" stroke="#ccc580" stroke-width="0.5"/><polygon points="110.5,86.2 105.2,59.8 126.6,59.8 128.0,83.0 121.7,87.1" fill="#cdc580" stroke="#cdc580" stroke-width="0.5"/><polygon points="128.0,83.0 126.5,58.3 149.6,57.3 151.3,76.0 141.6,85.0" fill="#cdc580" stroke="#cdc580" stroke-width="0.5"/><polygon points="151.3,76.0 150.0,61.9 176.3,58.9 170.0,83.1" fill="#ffffff" stroke="#ffffff" stroke-width="0.5"/><polygon points="170.1,82.5 176.5,58.1 195.0,62.7 196.2,64.4 193.4,85.4" fill="#ffffff" stroke="#ffffff" stroke-width="0.5"/><polygon points="193.3,86.5 196.2,64.4 220.5,67.4 220.5,87.9" fill="#fcffff" stroke="#fcffff" stroke-width="0.5"/><polygon points="220.5,85.5 220.5,67.4 244.8,64.4 250.2,77.8 246.8,85.5" fill="#cdd1d4" stroke="#cdd1d4" stroke-width="0.5"/><polygon points="250.2,77.8 244.8,64.4 246.2,60.3 263.7,50.5 274.6,64.3 270.2,76.8" fill="#847f53" stroke="#847f53" stroke-width="0.5"/><polygon points="270.2,76.8 274.6,64.3 292.2,60.1 296.4,65.3 294.0,84.6 274.9,83.8" fill="#858053" stroke="#858053" stroke-width="0.5"/><polygon points="294.2,83.1 296.4,65.3 317.3,66.4 316.1,83.0 310.5,87.2" fill="#9e9863" stroke="#9e9863" stroke-width="0.5"/><polygon points="316.1,83.0 317.3,66.3 325.5,66.0 339.1,79.6 328.3,88.5" fill="#96905e" stroke="#96905e" stroke-width="0.5"/><polygon points="339.1,79.6 325.5,66.0 337.1,56.4 348.1,58.8 349.8,79.2" fill="#9b9561" stroke="#9b9561" stroke-width="0.5"/><polygon points="349.6,76.8 348.1,58.8 355.8,51.5 376.1,60.4 366.8,78.6" fill="#4a7945" stroke="#4a7945" stroke-width="0.5"/><polygon points="375.5,61.6 396.6,69.3 396.8,77.0 375.9,92.1 374.1,91.5 366.8,78.6" fill="#395e36" stroke="#395e36" stroke-width="0.5"/><polygon points="396.8,77.0 396.5,66.6 417.1,64.0 424.6,69.5 417.3,86.0 402.4,83.8" fill="#748657" stroke="#748657" stroke-width="0.5"/><polygon points="423.6,96.2 417.3,86.0 424.6,69.5 434.4,68.8 438.9,72.0 435.4,93.9" fill="#345631" stroke="#345631" stroke-width="0.5"/><polygon points="443.0,72.0 458.1,59.4 466.8,64.1 465.2,83.7 457.9,84.4" fill="#3a5f36" stroke="#3a5f36" stroke-width="0.5"/><polygon points="465.2,83.7 466.8,64.1 480.6,59.4 490.5,67.1 490.5,79.3 467.3,85.1" fill="#9c8f6f" stroke="#9c8f6f" stroke-width="0.5"/><polygon points="490.5,79.3 490.5,67.1 509.3,56.7 512.3,58.4 517.4,80.6 512.7,84.9" fill="#3d7ea6" stroke="#3d7ea6" stroke-width="0.5"/><polygon points="517.4,80.6 512.3,58.4 525.8,56.7 536.5,65.9 532.8,81.5" fill="#1f4e6b" stroke="#1f4e6b" stroke-width="0.5"/><polygon points="532.1,84.5 536.5,65.9 549.9,60.7 550.4,61.0 556.9,78.8 550.1,85.9" fill="#1f4e6b" stroke="#1f4e6b" stroke-width="0.5"/><polygon points="576.0,54.6 576.0,78.8 556.9,78.8 550.4,61.0" fill="#1f4e6b" stroke="#1f4e6b" stroke-width="0.5"/><polygon points="0.0,109.0 0.0,77.5 12.7,77.3 17.0,104.4 14.1,107.7" fill="#3d7ea6" stroke="#3d7ea6" stroke-width="0.5"/><polygon points="17.0,104.4 12.8,77.7 23.5,76.2 42.7,87.0 42.1,102.1" fill="#5f9c59" stroke="#5f9c59" stroke-width="0.5"/><polygon points="42.1,100.5 42.6,90.0 67.4,79.7 74.0,86.0 67.1,107.2" fill="#5e9a58" stroke="#5e9a58" stroke-width="0.5"/><polygon points="67.1,107.2 74.0,86.0 86.5,85.1 90.3,87.7 95.2,106.4 90.6,111.4 73.6,113.2 69.1,110.9" fill="#5b9656" stroke="#5b9656" stroke-width="0.5"/><polygon points="95.2,106.4 90.3,87.7 119.4,80.7 103.8,106.7" fill="#cbc37f" stroke="#cbc37f" stroke-width="0.5"/><polygon points="103.8,106.7 115.9,86.6 121.7,87.1 125.0,103.7 111.8,112.2" fill="#cac37e" stroke="#cac37e" stroke-width="0.5"/><polygon points="125.0,103.7 121.7,87.1 128.0,83.0 141.6,85.0 146.5,99.6 133.2,108.9" fill="#b3a99c" stroke="#b3a99c" stroke-width="0.5"/><polygon points="147.8,103.4 141.6,85.0 151.3,76.0 169.5,82.9 166.2,100.7" fill="#ffffff" stroke="#ffffff" stroke-width="0.5"/><polygon points="165.5,104.5 169.6,82.5 194.3,85.5 191.9,104.5" fill="#ffffff" stroke="#ffffff" stroke-width="0.5"/><polygon points="191.9,104.5 194.2,86.5 218.9,87.8 220.2,98.2 203.6,114.7 202.2,114.9 197.1,112.6" fill="#e6e9ed" stroke="#e6e9ed" stroke-width="0.5"/><polygon points="220.2,98.2 218.7,85.5 246.8,85.5 248.9,95.9 239.3,106.7 229.8,105.4" fill="#c1c4c7" stroke="#c1c4c7" stroke-width="0.5"/><polygon points="248.9,95.9 246.8,85.5 250.2,77.8 270.2,76.8 274.9,83.8 270.4,100.8 266.0,103.9" fill="#c0c4c7" stroke="#c0c4c7" stroke-width="0.5"/><polygon points="270.4,100.8 274.9,83.8 292.5,84.5 292.5,106.3" fill="#dfe3e7" stroke="#dfe3e7" stroke-width="0.5"/><polygon points="292.5,108.3 292.5,82.7 310.5,87.2 310.5,103.6" fill="#827d51" stroke="#827d51" stroke-width="0.5"/><polygon points="310.5,103.6 310.5,87.2 316.1,83.0 328.3,88.5 330.5,104.3 318.7,108.3" fill="#8f8a59" stroke="#8f8a59" stroke-width="0.5"/><polygon points="330.5,104.3 328.3,88.5 339.1,79.6 346.8,79.3 348.9,101.1 332.1,104.9" fill="#9e9862" stroke="#9e9862" stroke-width="0.5"/><polygon points="348.9,101.1 346.6,76.5 366.8,78.6 374.1,91.5 356.3,105.4" fill="#7e794f" stroke="#7e794f" stroke-width="0.5"/><polygon points="375.9,92.1 396.8,77.0 402.4,83.8 399.2,104.4 386.4,105.6" fill="#738556" stroke="#738556" stroke-width="0.5"/><polygon points="399.3,103.7 402.4,83.8 417.3,86.0 423.6,96.2 420.7,101.8" fill="#345631" stroke="#345631" stroke-width="0.5"/><polygon points="435.4,93.9 438.9,72.0 443.0,72.0 457.9,84.4 445.2,99.6" fill="#345631" stroke="#345631" stroke-width="0.5"/><polygon points="445.2,99.6 457.9,84.4 465.2,83.7 467.3,85.1 472.8,107.2 447.6,105.7" fill="#345631" stroke="#345631" stroke-width="0.5"/><polygon points="472.2,105.0 467.3,85.1 490.5,79.3 490.5,102.4" fill="#355731" stroke="#355731" stroke-width="0.5"/><polygon points="490.5,79.3 512.7,84.9 511.5,103.5 495.5,106.0 490.5,102.4" fill="#3d7ea6" stroke="#3d7ea6" stroke-width="0.5"/><polygon points="511.5,103.5 512.7,84.9 517.4,80.6 536.3,81.8 531.7,104.2 515.2,106.2" fill="#3d7ea6" stroke="#3d7ea6" stroke-width="0.5"/><polygon points="531.7,104.2 535.7,84.8 550.1,85.9 557.1,104.2 537.8,109.4" fill="#1f4e6b" stroke="#1f4e6b" stroke-width="0.5"/><polygon points="576.0,78.8 576.0,99.6 555.9,101.0 550.1,85.9 556.9,78.8" fill="#1f4e6b" stroke="#1f4e6b" stroke-width="0.5"/><polygon points="0.0,131.3 0.0,109.0 14.1,107.7 20.5,128.3 15.0,134.1" fill="#3d7ea6" stroke="#3d7ea6" stroke-width="0.5"/><polygon points="20.5,128.3 14.1,107.7 17.0,104.4 40.5,102.3 40.5,129.2" fill="#609e5a" stroke="#609e5a" stroke-width="0.5"/><polygon points="40.5,126.2 40.5,100.1 67.1,107.2 69.1,110.9 55.7,128.3" fill="#558d50" stroke="#558d50" stroke-width="0.5"/><polygon points="79.4,138.9 73.6,113.2 90.6,111.4 95.6,128.1 87.0,137.8" fill="#5c9856" stroke="#5c9856" stroke-width="0.5"/><polygon points="95.6,128.1 90.6,111.4 95.2,106.4 103.8,106.7 111.8,112.2 114.2,122.5 110.7,129.5" fill="#b6af72" stroke="#b6af72" stroke-width="0.5"/><polygon points="114.2,122.5 111.8,112.2 125.0,103.7 133.2,108.9 134.1,121.0" fill="#a89f93" stroke="#a89f93" stroke-width="0.5"/><polygon points="134.1,121.0 133.2,108.9 153.3,94.8 150.3,125.7 137.4,124.9" fill="#a79e92" stroke="#a79e92" stroke-width="0.5"/><polygon points="150.2,126.2 152.6,102.7 169.8,100.2 169.3,122.2" fill="#ffffff" stroke="#ffffff" stroke-width="0.5"/><polygon points="169.3,122.2 169.7,104.5 191.9,104.5 197.1,112.6 177.2,129.0" fill="#9f968a" stroke="#9f968a" stroke-width="0.5"/><polygon points="203.6,114.7 220.2,98.2 229.8,105.4 221.3,125.1" fill="#746e66" stroke="#746e66" stroke-width="0.5"/><polygon points="221.3,125.1 229.8,105.4 239.3,106.7 244.2,122.8 223.9,129.1" fill="#656058" stroke="#656058" stroke-width="0.5"/><polygon points="244.2,122.8 239.3,106.7 248.9,95.9 266.0,103.9 264.8,120.8 246.5,124.2" fill="#6e6860" stroke="#6e6860" stroke-width="0.5"/><polygon points="265.0,118.6 266.0,103.9 270.4,100.8 294.0,106.7 292.5,119.2 286.8,124.0" fill="#7d766d" stroke="#7d766d" stroke-width="0.5"/><polygon points="292.5,119.2 293.8,108.0 310.5,103.6 318.7,108.3 315.8,128.5 312.5,130.7" fill="#918c5b" stroke="#918c5b" stroke-width="0.5"/><polygon points="315.8,128.5 318.7,108.3 330.5,104.3 332.1,104.9 340.4,132.4" fill="#96905e" stroke="#96905e" stroke-width="0.5"/><polygon points="339.6,129.7 332.1,104.9 348.9,101.1 356.3,105.4 358.1,113.8 349.1,127.7" fill="#848053" stroke="#848053" stroke-width="0.5"/><polygon points="374.1,91.5 375.9,92.1 386.4,105.6 379.2,122.2 358.1,113.8 356.3,105.4" fill="#77724a" stroke="#77724a" stroke-width="0.5"/><polygon points="381.2,128.9 379.2,122.2 386.4,105.6 398.5,104.5 407.6,125.1 399.4,130.8" fill="#6a6642" stroke="#6a6642" stroke-width="0.5"/><polygon points="408.4,126.9 398.2,103.8 420.7,101.8 423.2,114.8" fill="#345631" stroke="#345631" stroke-width="0.5"/><polygon points="423.2,114.8 420.7,101.8 423.6,96.2 435.4,93.9 445.2,99.6 447.6,105.7 442.2,120.6 439.4,121.6" fill="#345631" stroke="#345631" stroke-width="0.5"/><polygon points="442.2,120.6 447.6,105.7 470.6,107.0 470.7,125.4 457.4,130.3" fill="#345631" stroke="#345631" stroke-width="0.5"/><polygon points="470.7,125.4 470.6,105.2 490.5,102.4 495.5,106.0 493.3,125.3 481.3,132.3" fill="#345631" stroke="#345631" stroke-width="0.5"/><polygon points="493.3,125.3 495.5,106.0 511.5,103.5 515.2,106.2 516.3,126.8 509.1,131.7" fill="#8f8366" stroke="#8f8366" stroke-width="0.5"/><polygon points="516.3,126.8 515.2,106.2 531.7,104.2 537.8,109.4 537.8,121.0 527.5,129.8" fill="#3d7ea6" stroke="#3d7ea6" stroke-width="0.5"/><polygon points="537.8,121.0 537.8,109.4 553.0,105.3 559.1,120.4 550.9,128.6" fill="#1f4e6b" stroke="#1f4e6b" stroke-width="0.5"/><polygon points="576.0,99.6 576.0,121.7 559.1,120.4 551.4,101.3" fill="#1f4e6b" stroke="#1f4e6b" stroke-width="0.5"/><polygon points="0.0,155.6 0.0,131.3 15.0,134.1 15.5,146.5" fill="#3d7ea6" stroke="#3d7ea6" stroke-width="0.5"/><polygon points="15.5,146.5 15.0,134.1 20.5,128.3 37.3,129.1 38.9,148.5 28.4,156.5" fill="#5e9b58" stroke="#5e9b58" stroke-width="0.5"/><polygon points="38.9,148.5 37.0,125.7 55.7,128.3 62.2,139.0 51.4,152.5" fill="#52864c" stroke="#52864c" stroke-width="0.5"/><polygon points="55.7,128.3 69.1,110.9 73.6,113.2 80.0,141.9 62.2,139.0" fill="#4d7e48" stroke="#4d7e48" stroke-width="0.5"/><polygon points="87.0,137.8 95.6,128.1 110.7,129.5 114.6,139.7 108.7,149.8 102.1,152.1" fill="#b7b173" stroke="#b7b173" stroke-width="0.5"/><polygon points="114.6,139.7 110.7,129.5 114.2,122.5 134.1,121.0 137.4,124.9 130.1,141.0" fill="#9f968b" stroke="#9f968b" stroke-width="0.5"/><polygon points="130.1,141.0 137.4,124.9 150.8,125.7 155.1,147.5 134.1,147.2" fill="#968e83" stroke="#968e83" stroke-width="0.5"/><polygon points="155.6,149.9 150.8,126.1 169.3,122.2 177.2,129.0 178.5,136.9 173.0,146.6" fill="#978e83" stroke="#978e83" stroke-width="0.5"/><polygon points="178.5,136.9 177.2,129.0 197.1,112.6 202.2,114.9 200.1,140.2" fill="#898177" stroke="#898177" stroke-width="0.5"/><polygon points="200.1,140.2 202.2,114.9 203.6,114.7 221.3,125.1 223.9,129.1 222.3,138.5 209.4,147.2 206.1,147.2" fill="#656058" stroke="#656058" stroke-width="0.5"/><polygon points="222.3,138.5 223.9,129.1 244.2,122.8 246.5,124.2 246.5,146.8 240.0,149.9" fill="#5c5751" stroke="#5c5751" stroke-width="0.5"/><polygon points="246.5,146.8 246.5,124.2 262.6,121.2 267.6,141.2 258.0,149.8" fill="#5e5952" stroke="#5e5952" stroke-width="0.5"/><polygon points="267.6,141.2 261.8,117.7 286.8,124.0 284.3,142.7" fill="#6e6860" stroke="#6e6860" stroke-width="0.5"/><polygon points="284.9,138.1 286.8,124.0 292.5,119.2 312.5,130.7 309.0,142.5 305.8,144.3" fill="#777067" stroke="#777067" stroke-width="0.5"/><polygon points="309.0,142.5 312.5,130.7 315.8,128.5 337.2,131.9 336.6,145.6 325.4,156.3" fill="#7f786f" stroke="#7f786f" stroke-width="0.5"/><polygon points="336.6,145.6 337.2,130.2 349.1,127.7 364.0,141.8 363.5,146.3 355.4,156.6" fill="#726e47" stroke="#726e47" stroke-width="0.5"/><polygon points="349.1,127.7 358.1,113.8 379.2,122.2 381.1,128.7 364.0,141.8" fill="#716d47" stroke="#716d47" stroke-width="0.5"/><polygon points="381.4,128.9 399.4,130.8 402.4,149.8 388.8,158.4" fill="#6a6642" stroke="#6a6642" stroke-width="0.5"/><polygon points="402.4,149.8 399.4,130.8 409.3,123.9 422.5,140.4 412.8,151.9" fill="#345631" stroke="#345631" stroke-width="0.5"/><polygon points="422.5,140.4 410.4,125.3 423.2,114.8 439.4,121.6 430.9,140.0" fill="#345631" stroke="#345631" stroke-width="0.5"/><polygon points="430.9,140.0 439.4,121.6 442.2,120.6 457.4,130.3 454.3,146.7 437.3,147.5" fill="#345631" stroke="#345631" stroke-width="0.5"/><polygon points="454.3,146.7 457.4,130.3 470.7,125.4 481.3,132.3 482.1,142.6 478.8,149.9 462.2,157.0" fill="#345631" stroke="#345631" stroke-width="0.5"/><polygon points="482.1,142.6 481.3,132.3 493.3,125.3 509.1,131.7 507.8,149.0" fill="#345631" stroke="#345631" stroke-width="0.5"/><polygon points="507.7,149.4 509.1,131.7 516.3,126.8 527.5,129.8 533.0,144.2 529.6,149.4" fill="#3d7ea6" stroke="#3d7ea6" stroke-width="0.5"/><polygon points="533.0,144.2 527.5,129.8 537.8,121.0 550.9,128.6 551.8,137.6 547.7,143.1" fill="#1f4e6b" stroke="#1f4e6b" stroke-width="0.5"/><polygon points="576.0,121.7 576.0,141.4 551.8,137.6 550.9,128.6 559.1,120.4" fill="#1f4e6b" stroke="#1f4e6b" stroke-width="0.5"/><polygon points="0.0,165.4 0.0,155.6 15.5,146.5 28.4,156.5 27.1,168.7" fill="#f6e1b0" stroke="#f6e1b0" stroke-width="0.5"/><polygon points="27.7,170.1 27.1,168.7 28.4,156.5 38.9,148.5 51.4,152.5 57.3,164.9 46.8,174.2" fill="#548b4f" stroke="#548b4f" stroke-width="0.5"/><polygon points="57.3,164.9 51.4,152.5 62.2,139.0 76.5,141.3 76.5,157.6 62.8,166.0" fill="#579052" stroke="#579052" stroke-width="0.5"/><polygon points="76.5,157.6 76.5,139.3 87.0,137.8 102.1,152.1 96.2,162.4 89.3,165.4" fill="#a8a269" stroke="#a8a269" stroke-width="0.5"/><polygon points="96.2,162.4 102.1,152.1 108.7,149.8 125.2,167.0 110.2,174.7" fill="#9d9762" stroke="#9d9762" stroke-width="0.5"/><polygon points="108.7,149.8 114.6,139.7 130.1,141.0 134.1,147.2 128.6,167.4 125.2,167.0" fill="#807970" stroke="#807970" stroke-width="0.5"/><polygon points="128.0,169.6 134.1,147.2 157.7,147.5 154.9,161.4" fill="#999085" stroke="#999085" stroke-width="0.5"/><polygon points="160.2,172.4 154.9,161.4 157.3,149.5 173.0,146.6 181.6,159.6 178.1,169.8" fill="#716a62" stroke="#716a62" stroke-width="0.5"/><polygon points="181.6,159.6 173.0,146.6 178.5,136.9 200.1,140.2 206.1,147.2 198.2,158.4" fill="#635d56" stroke="#635d56" stroke-width="0.5"/><polygon points="201.8,171.2 198.2,158.4 206.1,147.2 209.4,147.2 225.1,168.1 218.6,176.5" fill="#5c5751" stroke="#5c5751" stroke-width="0.5"/><polygon points="225.1,168.1 209.4,147.2 222.3,138.5 240.0,149.9 234.2,165.6" fill="#5c5751" stroke="#5c5751" stroke-width="0.5"/><polygon points="234.2,165.6 240.0,149.9 246.5,146.8 258.0,149.8 264.8,167.3 245.3,175.2" fill="#5c5751" stroke="#5c5751" stroke-width="0.5"/><polygon points="264.6,166.7 258.0,149.8 267.6,141.2 280.6,142.4 285.0,161.7 284.1,162.9" fill="#5e5952" stroke="#5e5952" stroke-width="0.5"/><polygon points="285.0,161.7 279.3,136.4 305.8,144.3 298.5,159.0" fill="#736c64" stroke="#736c64" stroke-width="0.5"/><polygon points="308.9,169.4 298.5,159.0 305.8,144.3 309.0,142.5 327.0,157.7" fill="#7a736a" stroke="#7a736a" stroke-width="0.5"/><polygon points="324.3,157.4 336.6,145.6 355.4,156.6 355.2,166.5 331.0,166.5" fill="#847f52" stroke="#847f52" stroke-width="0.5"/><polygon points="355.2,168.4 355.4,156.6 363.5,146.3 387.8,160.1 387.5,163.5" fill="#6a6642" stroke="#6a6642" stroke-width="0.5"/><polygon points="363.5,146.3 364.0,141.8 381.3,128.6 389.5,161.0" fill="#6a6642" stroke="#6a6642" stroke-width="0.5"/><polygon points="387.1,168.0 387.9,159.0 402.4,149.8 412.8,151.9 417.9,163.5 410.2,175.7" fill="#6a6642" stroke="#6a6642" stroke-width="0.5"/><polygon points="417.9,163.5 412.8,151.9 422.5,140.4 430.9,140.0 437.3,147.5 433.5,164.1" fill="#345631" stroke="#345631" stroke-width="0.5"/><polygon points="432.3,169.6 437.3,147.5 454.3,146.7 464.5,160.0" fill="#345631" stroke="#345631" stroke-width="0.5"/><polygon points="465.8,176.4 460.3,157.7 478.8,149.9 491.5,167.7 490.1,172.5 481.7,178.6" fill="#345631" stroke="#345631" stroke-width="0.5"/><polygon points="491.5,167.7 478.8,149.9 482.1,142.6 508.0,149.1 506.1,158.5" fill="#345631" stroke="#345631" stroke-width="0.5"/><polygon points="506.1,158.5 508.0,149.4 529.6,149.4 532.3,164.3 517.6,170.4" fill="#3d7ea6" stroke="#3d7ea6" stroke-width="0.5"/><polygon points="532.3,164.3 529.6,149.4 533.0,144.2 547.7,143.1 553.8,159.5 543.8,171.2" fill="#1f4e6b" stroke="#1f4e6b" stroke-width="0.5"/><polygon points="576.0,141.4 576.0,158.8 553.8,159.5 547.7,143.1 551.8,137.6" fill="#1f4e6b" stroke="#1f4e6b" stroke-width="0.5"/><polygon points="0.0,183.9 0.0,165.4 27.1,168.7 27.7,170.1 23.1,183.9" fill="#e4d1a3" stroke="#e4d1a3" stroke-width="0.5"/><polygon points="23.1,183.9 27.7,170.1 46.8,174.2 50.6,196.2 25.9,191.7" fill="#4b7c46" stroke="#4b7c46" stroke-width="0.5"/><polygon points="49.8,191.1 46.8,174.2 57.3,164.9 62.8,166.0 71.5,183.4 62.7,192.7" fill="#50834b" stroke="#50834b" stroke-width="0.5"/><polygon points="71.5,183.4 62.8,166.0 76.5,157.6 89.3,165.4 85.6,183.9" fill="#487744" stroke="#487744" stroke-width="0.5"/><polygon points="86.1,181.7 89.3,165.4 96.2,162.4 110.2,174.7 106.7,185.4" fill="#958f5d" stroke="#958f5d" stroke-width="0.5"/><polygon points="112.5,198.3 106.7,185.4 110.2,174.7 125.2,167.0 129.7,167.6 133.1,177.7" fill="#9c9662" stroke="#9c9662" stroke-width="0.5"/><polygon points="133.1,177.7 130.2,168.9 154.9,161.4 160.2,172.4 156.3,184.7 141.6,185.6" fill="#5d5751" stroke="#5d5751" stroke-width="0.5"/><polygon points="156.9,182.8 160.2,172.4 178.1,169.8 183.9,180.6 175.5,189.0" fill="#5c5751" stroke="#5c5751" stroke-width="0.5"/><polygon points="178.1,169.8 181.6,159.6 198.2,158.4 201.8,171.2 191.7,182.5 183.9,180.6" fill="#5c5751" stroke="#5c5751" stroke-width="0.5"/><polygon points="191.7,182.5 201.8,171.2 218.6,176.5 218.9,184.3 196.7,191.7" fill="#5c5751" stroke="#5c5751" stroke-width="0.5"/><polygon points="218.9,184.3 218.6,176.5 225.1,168.1 234.2,165.6 245.3,175.2 244.9,191.7 241.0,194.1 223.3,192.3" fill="#5c5751" stroke="#5c5751" stroke-width="0.5"/><polygon points="244.9,191.7 245.3,175.2 264.2,167.6 268.9,184.9 257.6,195.7" fill="#5c5751" stroke="#5c5751" stroke-width="0.5"/><polygon points="268.9,184.9 264.0,166.9 284.1,162.9 289.4,182.2 283.6,189.1" fill="#5f5a53" stroke="#5f5a53" stroke-width="0.5"/><polygon points="289.4,182.2 284.1,162.9 285.0,161.7 298.5,159.0 308.9,169.4 307.9,182.2" fill="#6b655d" stroke="#6b655d" stroke-width="0.5"/><polygon points="307.8,183.9 308.9,169.4 325.3,158.8 331.0,166.5 329.6,181.9" fill="#756e66" stroke="#756e66" stroke-width="0.5"/><polygon points="329.6,182.0 331.0,166.5 356.0,166.5 356.4,173.0 337.8,190.2" fill="#666058" stroke="#666058" stroke-width="0.5"/><polygon points="356.4,173.0 356.1,168.3 391.8,162.8 387.6,172.6 366.3,184.7" fill="#6a6642" stroke="#6a6642" stroke-width="0.5"/><polygon points="367.6,193.8 366.3,184.7 387.6,172.6 389.9,196.0" fill="#6a6642" stroke="#6a6642" stroke-width="0.5"/><polygon points="394.9,200.7 389.9,196.0 387.6,172.6 389.2,168.8 410.4,175.8 398.5,201.2" fill="#6a6642" stroke="#6a6642" stroke-width="0.5"/><polygon points="410.1,175.9 417.9,163.5 436.6,164.2 438.2,183.7 425.7,188.0" fill="#345631" stroke="#345631" stroke-width="0.5"/><polygon points="438.2,183.7 437.0,168.2 461.3,160.9 465.5,175.4 442.0,186.1" fill="#345631" stroke="#345631" stroke-width="0.5"/><polygon points="484.7,196.9 481.7,178.6 490.1,172.5 507.9,186.7 500.4,199.8" fill="#345631" stroke="#345631" stroke-width="0.5"/><polygon points="507.9,186.7 490.1,172.5 491.5,167.7 506.1,158.5 517.6,170.4 514.8,184.4" fill="#8f8366" stroke="#8f8366" stroke-width="0.5"/><polygon points="514.8,184.4 517.6,170.4 532.3,164.3 543.8,171.2 544.1,172.9 525.9,191.1" fill="#3d7ea6" stroke="#3d7ea6" stroke-width="0.5"/><polygon points="529.8,200.4 525.9,191.1 544.1,172.9 552.9,183.0 550.2,196.7 542.9,202.3" fill="#3d7ea6" stroke="#3d7ea6" stroke-width="0.5"/><polygon points="576.0,158.8 576.0,181.0 552.9,183.0 544.1,172.9 543.8,171.2 553.8,159.5" fill="#1f4e6b" stroke="#1f4e6b" stroke-width="0.5"/><polygon points="0.0,203.3 0.0,183.9 23.1,183.9 25.9,191.7 19.5,205.4" fill="#3d7ea6" stroke="#3d7ea6" stroke-width="0.5"/><polygon points="19.5,205.4 25.9,191.7 45.1,195.2 44.6,210.9 23.3,213.2" fill="#50834b" stroke="#50834b" stroke-width="0.5"/><polygon points="44.6,210.9 45.2,190.5 62.7,192.7 69.7,210.8 50.3,217.7" fill="#416a3d" stroke="#416a3d" stroke-width="0.5"/><polygon points="68.9,208.9 62.7,192.7 71.5,183.4 83.7,183.9 87.2,200.8" fill="#4d7f48" stroke="#4d7f48" stroke-width="0.5"/><polygon points="87.2,200.8 83.1,181.1 106.7,185.4 112.5,198.3 112.5,201.6 94.6,205.6" fill="#365933" stroke="#365933" stroke-width="0.5"/><polygon points="112.5,200.0 112.5,198.3 133.1,177.7 141.6,185.6 136.0,204.1 131.2,205.9" fill="#7d784e" stroke="#7d784e" stroke-width="0.5"/><polygon points="135.9,204.1 141.6,185.6 154.8,184.8 159.9,205.3 150.5,211.4" fill="#5c5751" stroke="#5c5751" stroke-width="0.5"/><polygon points="159.9,205.3 154.0,181.8 175.5,189.0 175.5,202.1 169.2,206.9" fill="#5c5751" stroke="#5c5751" stroke-width="0.5"/><polygon points="175.5,202.1 175.5,189.0 183.9,180.6 191.7,182.5 196.7,191.7 196.2,205.3" fill="#5c5751" stroke="#5c5751" stroke-width="0.5"/><polygon points="196.3,203.5 196.7,191.7 218.9,184.3 223.3,192.3 217.7,203.5 213.0,206.1" fill="#5c5751" stroke="#5c5751" stroke-width="0.5"/><polygon points="217.7,203.5 223.3,192.3 241.0,194.1 238.6,220.5 236.2,220.5" fill="#5c5751" stroke="#5c5751" stroke-width="0.5"/><polygon points="238.6,219.8 241.0,194.1 244.9,191.7 257.6,195.7 263.8,208.8 251.1,220.7" fill="#6a6642" stroke="#6a6642" stroke-width="0.5"/><polygon points="263.8,208.8 257.6,195.7 268.9,184.9 283.6,189.1 285.0,201.6 270.6,210.5" fill="#5c5751" stroke="#5c5751" stroke-width="0.5"/><polygon points="285.0,201.6 283.6,189.1 289.4,182.2 309.2,182.2 309.9,201.2 292.1,205.8" fill="#5e5952" stroke="#5e5952" stroke-width="0.5"/><polygon points="309.9,200.5 309.3,183.8 329.6,182.0 337.4,189.8 326.0,202.8" fill="#6b655d" stroke="#6b655d" stroke-width="0.5"/><polygon points="332.6,220.6 326.0,202.8 337.7,189.4 348.2,200.4 334.0,221.2" fill="#726e47" stroke="#726e47" stroke-width="0.5"/><polygon points="338.2,189.9 356.4,173.0 366.3,184.7 367.6,193.8 362.4,202.1 359.6,203.0 348.2,200.4" fill="#6a6642" stroke="#6a6642" stroke-width="0.5"/><polygon points="378.0,218.9 362.4,202.1 367.6,193.8 389.9,196.0 394.9,200.7" fill="#6a6642" stroke="#6a6642" stroke-width="0.5"/><polygon points="399.4,199.3 410.3,176.1 425.7,188.0 419.7,202.2" fill="#6a6642" stroke="#6a6642" stroke-width="0.5"/><polygon points="422.6,207.8 419.7,202.2 425.7,188.0 438.2,183.7 442.0,186.1 449.9,205.1 438.7,212.0" fill="#708154" stroke="#708154" stroke-width="0.5"/><polygon points="449.9,205.1 442.0,186.1 467.2,174.6 464.2,200.6 452.2,205.8" fill="#345631" stroke="#345631" stroke-width="0.5"/><polygon points="464.2,200.6 467.0,176.6 481.7,178.6 484.7,196.9 477.2,203.7" fill="#345631" stroke="#345631" stroke-width="0.5"/><polygon points="480.7,220.0 477.2,203.7 484.7,196.9 504.8,200.6 491.0,222.5" fill="#345631" stroke="#345631" stroke-width="0.5"/><polygon points="498.8,202.6 507.9,186.7 514.8,184.4 525.9,191.1 529.8,200.4 523.8,209.3 515.3,212.1" fill="#8f8366" stroke="#8f8366" stroke-width="0.5"/><polygon points="548.8,221.3 542.9,202.3 550.2,196.7 573.8,208.5 551.1,222.0" fill="#1f4e6b" stroke="#1f4e6b" stroke-width="0.5"/><polygon points="576.0,181.0 576.0,209.6 550.2,196.7 552.9,183.0" fill="#1f4e6b" stroke="#1f4e6b" stroke-width="0.5"/><polygon points="0.0,228.6 0.0,203.3 19.5,205.4 23.3,213.2 20.6,229.5" fill="#3d7ea6" stroke="#3d7ea6" stroke-width="0.5"/><polygon points="20.6,229.5 23.3,213.2 44.6,210.9 50.3,217.7 48.4,229.5" fill="#cebd93" stroke="#cebd93" stroke-width="0.5"/><polygon points="48.6,228.0 50.3,217.7 68.2,211.3 75.8,223.2 67.8,235.6" fill="#4d7e48" stroke="#4d7e48" stroke-width="0.5"/><polygon points="75.8,223.2 67.1,209.7 87.2,200.8 94.6,205.6 89.5,225.1" fill="#375b34" stroke="#375b34" stroke-width="0.5"/><polygon points="89.5,225.1 94.6,205.6 110.6,202.0 112.5,231.4 93.0,229.4" fill="#879d66" stroke="#879d66" stroke-width="0.5"/><polygon points="112.5,231.3 110.4,199.4 131.2,205.9 128.7,229.4" fill="#6a6642" stroke="#6a6642" stroke-width="0.5"/><polygon points="128.6,230.7 131.2,205.9 135.9,204.1 150.5,211.4 150.1,224.5" fill="#6a6642" stroke="#6a6642" stroke-width="0.5"/><polygon points="150.1,224.5 150.5,211.4 159.9,205.3 169.2,206.9 175.4,228.5 154.1,228.5" fill="#6a6642" stroke="#6a6642" stroke-width="0.5"/><polygon points="175.5,228.8 169.2,206.9 175.5,202.1 194.7,205.0 192.9,219.4" fill="#6a6642" stroke="#6a6642" stroke-width="0.5"/><polygon points="192.9,219.4 194.9,203.3 213.0,206.1 213.0,226.1 203.9,228.5" fill="#6a6642" stroke="#6a6642" stroke-width="0.5"/><polygon points="213.0,226.1 213.0,206.1 217.7,203.5 236.2,220.5 219.8,228.8" fill="#6a6642" stroke="#6a6642" stroke-width="0.5"/><polygon points="251.1,220.7 263.8,208.8 270.6,210.5 277.6,228.9 262.1,238.1" fill="#6a6642" stroke="#6a6642" stroke-width="0.5"/><polygon points="277.6,228.9 270.6,210.5 285.0,201.6 292.1,205.8 293.8,223.6 284.6,230.7" fill="#6a6642" stroke="#6a6642" stroke-width="0.5"/><polygon points="293.8,223.6 292.1,205.8 309.1,201.4 312.8,224.5 310.8,226.7" fill="#6a6642" stroke="#6a6642" stroke-width="0.5"/><polygon points="312.8,224.5 309.0,200.4 326.0,202.8 332.6,220.6" fill="#706c46" stroke="#706c46" stroke-width="0.5"/><polygon points="333.1,222.5 348.2,200.4 359.6,203.0 353.2,223.9" fill="#6a6642" stroke="#6a6642" stroke-width="0.5"/><polygon points="359.4,230.5 353.2,223.9 359.6,203.0 362.4,202.1 382.1,223.3" fill="#6a6642" stroke="#6a6642" stroke-width="0.5"/><polygon points="375.3,221.8 394.9,200.7 395.9,200.8 403.7,222.1 396.3,231.3 382.2,229.1" fill="#6a6642" stroke="#6a6642" stroke-width="0.5"/><polygon points="403.7,222.1 395.1,198.7 419.7,202.2 422.6,207.8 415.7,221.6" fill="#6a6642" stroke="#6a6642" stroke-width="0.5"/><polygon points="415.7,221.6 422.6,207.8 438.7,212.0 436.6,231.3 423.6,233.1" fill="#345631" stroke="#345631" stroke-width="0.5"/><polygon points="436.6,231.3 438.7,212.0 449.9,205.1 452.2,205.8 462.6,228.4 445.5,238.3" fill="#345631" stroke="#345631" stroke-width="0.5"/><polygon points="452.2,205.8 464.2,200.6 477.2,203.7 480.7,220.0 467.7,229.7 462.6,228.4" fill="#345631" stroke="#345631" stroke-width="0.5"/><polygon points="491.0,222.5 502.2,204.6 515.3,212.1 510.4,229.7 498.4,231.8" fill="#8f8366" stroke="#8f8366" stroke-width="0.5"/><polygon points="510.4,229.7 515.3,212.1 523.8,209.3 535.4,228.9 517.2,234.2" fill="#3d7ea6" stroke="#3d7ea6" stroke-width="0.5"/><polygon points="523.8,209.3 529.8,200.4 542.9,202.3 548.8,221.3 535.1,228.4" fill="#3d7ea6" stroke="#3d7ea6" stroke-width="0.5"/><polygon points="576.0,207.2 576.0,237.5 559.5,235.8 551.1,222.0" fill="#1f4e6b" stroke="#1f4e6b" stroke-width="0.5"/><polygon points="0.0,258.5 0.0,228.6 20.7,229.5 22.6,245.9 3.1,258.8" fill="#3d7ea6" stroke="#3d7ea6" stroke-width="0.5"/><polygon points="22.6,245.9 20.7,229.5 47.2,229.5 45.9,247.0 30.2,251.1" fill="#d5c398" stroke="#d5c398" stroke-width="0.5"/><polygon points="45.7,250.0 47.3,227.4 67.8,235.6 70.5,249.2" fill="#457140" stroke="#457140" stroke-width="0.5"/><polygon points="70.7,249.9 67.8,235.6 75.8,223.2 89.5,225.1 93.0,229.4 85.2,249.7" fill="#457140" stroke="#457140" stroke-width="0.5"/><polygon points="85.2,249.7 93.0,229.4 112.5,231.4 111.7,249.4 90.7,254.6" fill="#3a5f36" stroke="#3a5f36" stroke-width="0.5"/><polygon points="111.7,249.4 112.5,231.3 129.9,229.3 137.9,248.6 130.1,257.5 114.8,253.3" fill="#345631" stroke="#345631" stroke-width="0.5"/><polygon points="137.9,248.6 130.3,230.2 150.1,224.5 154.1,228.5 151.6,248.6" fill="#6a6642" stroke="#6a6642" stroke-width="0.5"/><polygon points="151.6,248.6 154.1,228.5 175.6,228.5 177.7,239.0 175.9,242.2 153.5,250.1" fill="#6a6642" stroke="#6a6642" stroke-width="0.5"/><polygon points="177.7,239.0 175.6,228.7 192.9,219.4 203.9,228.5 198.8,245.0" fill="#6a6642" stroke="#6a6642" stroke-width="0.5"/><polygon points="197.7,248.6 203.9,228.5 213.0,226.1 219.8,228.8 223.1,252.2" fill="#6a6642" stroke="#6a6642" stroke-width="0.5"/><polygon points="222.3,246.5 219.8,228.7 236.2,220.5 237.4,220.5 240.0,244.9" fill="#6a6642" stroke="#6a6642" stroke-width="0.5"/><polygon points="240.0,244.9 237.4,219.7 251.1,220.7 263.4,240.2 243.4,247.3" fill="#6a6642" stroke="#6a6642" stroke-width="0.5"/><polygon points="260.2,239.2 277.6,228.9 284.6,230.7 290.9,249.4 269.4,255.6" fill="#6a6642" stroke="#6a6642" stroke-width="0.5"/><polygon points="290.9,249.3 284.6,230.7 293.8,223.6 310.8,226.7 312.0,246.8" fill="#6a6642" stroke="#6a6642" stroke-width="0.5"/><polygon points="311.9,245.9 310.8,226.7 312.8,224.5 332.6,220.6 335.2,221.8 335.2,246.0 332.3,249.3" fill="#6a6642" stroke="#6a6642" stroke-width="0.5"/><polygon points="335.2,246.0 335.2,222.6 353.2,223.9 359.4,230.5 356.8,244.1" fill="#6a6642" stroke="#6a6642" stroke-width="0.5"/><polygon points="356.8,244.1 359.4,230.5 378.0,224.6 382.2,229.1 375.9,254.8 366.0,255.6" fill="#6a6642" stroke="#6a6642" stroke-width="0.5"/><polygon points="376.1,254.0 382.2,229.1 396.3,231.3 402.1,242.9 394.3,253.7" fill="#6a6642" stroke="#6a6642" stroke-width="0.5"/><polygon points="402.1,242.9 396.3,231.3 403.7,222.1 415.7,221.6 423.6,233.1 416.4,245.4" fill="#345631" stroke="#345631" stroke-width="0.5"/><polygon points="416.4,245.4 423.6,233.1 436.6,231.3 445.5,238.3 445.5,252.2 440.3,258.7 420.1,253.1" fill="#345631" stroke="#345631" stroke-width="0.5"/><polygon points="445.5,252.2 445.5,238.3 462.6,228.4 467.7,229.7 475.2,247.0 467.9,256.2" fill="#345631" stroke="#345631" stroke-width="0.5"/><polygon points="475.2,247.0 467.7,229.7 480.7,220.0 491.0,222.5 498.4,231.8 495.8,239.0 479.8,247.3" fill="#345631" stroke="#345631" stroke-width="0.5"/><polygon points="495.8,239.0 498.4,231.8 510.4,229.7 517.2,234.2 518.7,250.3 505.2,255.5" fill="#8f8366" stroke="#8f8366" stroke-width="0.5"/><polygon points="518.7,250.3 517.2,234.2 534.8,229.0 539.8,246.6 533.3,255.8 531.0,256.8" fill="#3d7ea6" stroke="#3d7ea6" stroke-width="0.5"/><polygon points="539.8,246.6 534.7,228.6 548.8,221.3 551.1,222.0 559.5,235.8 551.6,245.8" fill="#1f4e6b" stroke="#1f4e6b" stroke-width="0.5"/><polygon points="576.0,237.5 576.0,256.3 559.4,257.5 551.6,245.8 559.5,235.8" fill="#1f4e6b" stroke="#1f4e6b" stroke-width="0.5"/><polygon points="3.1,258.8 22.6,245.9 30.2,251.1 31.6,267.6 17.3,274.3" fill="#3d7ea6" stroke="#3d7ea6" stroke-width="0.5"/><polygon points="31.6,267.6 30.2,251.1 49.5,246.0 49.5,277.6" fill="#dac89c" stroke="#dac89c" stroke-width="0.5"/><polygon points="49.5,273.8 49.5,249.8 71.5,249.2 68.2,264.4" fill="#4b7c46" stroke="#4b7c46" stroke-width="0.5"/><polygon points="68.2,264.4 71.3,249.9 85.2,249.7 90.7,254.6 93.0,272.2 88.4,277.8 80.5,278.7" fill="#416a3c" stroke="#416a3c" stroke-width="0.5"/><polygon points="93.0,272.2 90.7,254.6 111.7,249.4 114.8,253.3 108.1,272.2" fill="#3d6439" stroke="#3d6439" stroke-width="0.5"/><polygon points="105.8,279.0 114.8,253.3 130.1,257.5 133.9,275.5" fill="#82887d" stroke="#82887d" stroke-width="0.5"/><polygon points="133.4,273.1 130.1,257.5 137.9,248.6 151.6,248.6 153.5,250.1 157.9,264.6 144.2,274.9" fill="#7c8177" stroke="#7c8177" stroke-width="0.5"/><polygon points="157.9,264.6 153.5,250.1 175.9,242.2 177.9,262.8 167.7,268.5" fill="#345631" stroke="#345631" stroke-width="0.5"/><polygon points="177.9,262.8 175.9,242.2 177.7,239.0 202.4,246.0 192.8,266.7" fill="#6a6642" stroke="#6a6642" stroke-width="0.5"/><polygon points="192.8,266.7 201.0,249.1 218.2,251.5 222.1,266.0 217.1,274.7 195.6,272.3" fill="#7c8177" stroke="#7c8177" stroke-width="0.5"/><polygon points="222.1,266.0 216.9,247.0 240.0,244.9 243.4,247.3 243.9,265.6" fill="#6a6642" stroke="#6a6642" stroke-width="0.5"/><polygon points="243.9,266.8 243.4,247.3 261.2,240.9 269.4,255.6 265.8,268.4" fill="#6a6642" stroke="#6a6642" stroke-width="0.5"/><polygon points="266.4,266.4 269.4,255.6 290.8,249.4 292.4,270.1 285.0,274.9" fill="#6a6642" stroke="#6a6642" stroke-width="0.5"/><polygon points="292.4,270.1 290.8,249.3 310.5,247.0 310.5,275.3" fill="#6a6642" stroke="#6a6642" stroke-width="0.5"/><polygon points="310.5,276.4 310.5,245.6 332.3,249.3 334.3,260.1 323.7,274.2" fill="#6a6642" stroke="#6a6642" stroke-width="0.5"/><polygon points="334.3,260.1 332.3,249.3 335.2,246.0 356.8,244.1 366.0,255.6 359.7,265.1 348.6,268.5" fill="#6a6642" stroke="#6a6642" stroke-width="0.5"/><polygon points="367.8,284.2 359.7,265.1 366.0,255.6 374.8,254.9 384.1,275.8 379.6,284.7" fill="#7c8177" stroke="#7c8177" stroke-width="0.5"/><polygon points="384.1,275.8 374.4,254.0 394.3,253.7 402.6,270.3" fill="#7c8177" stroke="#7c8177" stroke-width="0.5"/><polygon points="402.6,270.3 394.3,253.7 402.1,242.9 416.4,245.4 420.1,253.1 408.7,273.1" fill="#7c8177" stroke="#7c8177" stroke-width="0.5"/><polygon points="409.3,272.1 420.1,253.1 440.3,258.7 440.6,265.7 422.5,278.8" fill="#7c8177" stroke="#7c8177" stroke-width="0.5"/><polygon points="440.6,265.7 440.3,258.7 445.5,252.2 467.9,256.2 469.9,269.2 464.8,276.4 448.5,276.4" fill="#345631" stroke="#345631" stroke-width="0.5"/><polygon points="469.9,269.2 467.9,256.2 475.2,247.0 479.8,247.3 495.3,266.8 490.8,272.4" fill="#345631" stroke="#345631" stroke-width="0.5"/><polygon points="479.8,247.3 495.8,239.0 505.2,255.5 501.2,264.3 495.3,266.8" fill="#345631" stroke="#345631" stroke-width="0.5"/><polygon points="517.7,276.4 501.2,264.3 505.2,255.5 518.7,250.3 531.0,256.8 526.5,271.1" fill="#3d7ea6" stroke="#3d7ea6" stroke-width="0.5"/><polygon points="533.3,255.8 539.8,246.6 551.6,245.8 559.4,257.5 552.0,268.2" fill="#1f4e6b" stroke="#1f4e6b" stroke-width="0.5"/><polygon points="576.0,256.3 576.0,279.1 552.6,273.5 552.0,268.2 559.4,257.5" fill="#1f4e6b" stroke="#1f4e6b" stroke-width="0.5"/><polygon points="0.0,292.3 0.0,258.5 3.1,258.8 17.3,274.3 15.0,289.7" fill="#1f4e6b" stroke="#1f4e6b" stroke-width="0.5"/><polygon points="15.0,289.7 17.3,274.3 31.6,267.6 47.4,276.4 45.5,282.5 19.7,293.4" fill="#3d7ea6" stroke="#3d7ea6" stroke-width="0.5"/><polygon points="58.6,304.4 49.3,297.7 45.5,282.5 47.5,275.9 72.5,287.0 70.6,299.2" fill="#c8b88f" stroke="#c8b88f" stroke-width="0.5"/><polygon points="46.3,275.3 68.2,264.4 80.5,278.7 72.5,287.0" fill="#3d6539" stroke="#3d6539" stroke-width="0.5"/><polygon points="88.4,277.8 93.0,272.2 115.9,272.2 110.1,295.4 96.4,294.2" fill="#9aa093" stroke="#9aa093" stroke-width="0.5"/><polygon points="110.1,295.4 114.5,277.9 130.5,275.9 130.5,297.1 115.6,301.5" fill="#898f83" stroke="#898f83" stroke-width="0.5"/><polygon points="130.5,297.1 130.5,272.6 144.2,274.9 153.5,293.4 138.0,301.1" fill="#7c8177" stroke="#7c8177" stroke-width="0.5"/><polygon points="153.5,293.4 144.2,274.9 157.9,264.6 167.7,268.5 169.7,285.7 156.6,294.3" fill="#7c8177" stroke="#7c8177" stroke-width="0.5"/><polygon points="169.7,285.7 167.7,268.5 177.9,262.8 192.8,266.7 195.6,272.3 191.0,286.0 183.2,291.0" fill="#7c8177" stroke="#7c8177" stroke-width="0.5"/><polygon points="209.7,309.9 207.3,297.4 219.2,281.0 233.1,290.3 221.9,309.5" fill="#7c8177" stroke="#7c8177" stroke-width="0.5"/><polygon points="233.1,290.3 219.2,281.0 217.1,274.7 222.1,266.0 245.3,265.6 240.5,289.6" fill="#7c8177" stroke="#7c8177" stroke-width="0.5"/><polygon points="240.5,289.6 245.0,266.9 263.8,268.3 263.0,292.0 246.8,294.1" fill="#7c8177" stroke="#7c8177" stroke-width="0.5"/><polygon points="262.9,293.8 263.9,265.3 285.0,274.9 283.5,293.1" fill="#7c8177" stroke="#7c8177" stroke-width="0.5"/><polygon points="283.7,290.6 285.0,274.9 292.4,270.1 311.4,275.6 309.6,285.6 301.7,293.2" fill="#7c8177" stroke="#7c8177" stroke-width="0.5"/><polygon points="329.2,305.2 309.6,285.6 311.3,276.2 323.7,274.2 339.9,290.4" fill="#7c8177" stroke="#7c8177" stroke-width="0.5"/><polygon points="339.9,290.4 323.7,274.2 334.3,260.1 348.6,268.5 343.4,289.3" fill="#6a6642" stroke="#6a6642" stroke-width="0.5"/><polygon points="343.4,289.3 348.6,268.5 359.7,265.1 367.8,284.2 357.1,293.7" fill="#7c8177" stroke="#7c8177" stroke-width="0.5"/><polygon points="379.6,284.7 384.1,275.8 402.6,270.3 407.6,272.5 401.9,293.3 383.5,290.7" fill="#7c8177" stroke="#7c8177" stroke-width="0.5"/><polygon points="401.4,295.2 407.9,271.4 422.5,278.8 426.2,289.0 417.9,299.7" fill="#7c8177" stroke="#7c8177" stroke-width="0.5"/><polygon points="426.2,289.0 422.5,278.8 440.6,265.7 448.5,276.4 442.7,293.0" fill="#7c8177" stroke="#7c8177" stroke-width="0.5"/><polygon points="446.1,300.1 442.7,293.0 448.5,276.4 464.8,276.4 470.0,291.6 463.2,299.5" fill="#7c8177" stroke="#7c8177" stroke-width="0.5"/><polygon points="470.0,291.6 464.8,276.4 469.9,269.2 490.8,272.4 491.6,285.4 483.7,293.3" fill="#345631" stroke="#345631" stroke-width="0.5"/><polygon points="491.6,285.4 490.8,272.4 495.3,266.8 501.2,264.3 517.7,276.4 515.1,288.5 510.1,292.5" fill="#3d7ea6" stroke="#3d7ea6" stroke-width="0.5"/><polygon points="515.1,288.5 517.7,276.4 526.5,271.1 544.5,284.6 544.5,286.7 535.5,297.1" fill="#1f4e6b" stroke="#1f4e6b" stroke-width="0.5"/><polygon points="526.5,271.1 531.0,256.8 533.3,255.8 552.0,268.2 552.6,273.5 544.5,284.6" fill="#1f4e6b" stroke="#1f4e6b" stroke-width="0.5"/><polygon points="576.0,279.1 576.0,287.6 558.0,295.2 544.5,286.7 544.5,284.6 552.6,273.5" fill="#1f4e6b" stroke="#1f4e6b" stroke-width="0.5"/><polygon points="0.0,318.4 0.0,292.3 15.0,289.7 19.7,293.4 26.3,310.5 22.0,316.4 12.4,320.4" fill="#1f4e6b" stroke="#1f4e6b" stroke-width="0.5"/><polygon points="26.3,310.5 19.7,293.4 45.5,282.5 49.3,297.7 28.0,310.5" fill="#3d7ea6" stroke="#3d7ea6" stroke-width="0.5"/><polygon points="49.9,323.6 28.0,310.5 49.3,297.7 58.6,304.4 57.0,318.0" fill="#3d7ea6" stroke="#3d7ea6" stroke-width="0.5"/><polygon points="70.6,299.2 72.5,287.0 80.5,278.7 88.4,277.8 96.4,294.2 85.9,309.0" fill="#4e8049" stroke="#4e8049" stroke-width="0.5"/><polygon points="85.9,309.0 96.4,294.2 110.1,295.4 115.6,301.5 114.1,311.7 102.5,320.1 86.3,311.0" fill="#9ba295" stroke="#9ba295" stroke-width="0.5"/><polygon points="114.1,311.7 115.6,301.5 130.5,297.1 138.0,301.1 139.1,314.7 128.5,322.8" fill="#8e9488" stroke="#8e9488" stroke-width="0.5"/><polygon points="139.1,314.7 138.0,301.1 153.4,293.4 156.6,294.3 162.8,310.5 149.8,319.4" fill="#7c8177" stroke="#7c8177" stroke-width="0.5"/><polygon points="162.8,310.5 156.6,294.3 169.7,285.7 183.2,291.0 182.8,311.8 172.9,314.9" fill="#7c8177" stroke="#7c8177" stroke-width="0.5"/><polygon points="182.8,313.6 183.2,291.0 191.0,286.0 207.3,297.4 209.3,307.9" fill="#81867b" stroke="#81867b" stroke-width="0.5"/><polygon points="191.0,286.0 195.6,272.3 217.1,274.7 219.2,281.0 207.3,297.4" fill="#80867b" stroke="#80867b" stroke-width="0.5"/><polygon points="221.9,309.5 233.1,290.3 240.5,289.6 246.8,294.1 245.6,310.3 231.1,316.7" fill="#6098b8" stroke="#6098b8" stroke-width="0.5"/><polygon points="245.6,310.3 246.8,294.1 265.5,291.7 265.5,315.9 257.6,320.6" fill="#7d8277" stroke="#7d8277" stroke-width="0.5"/><polygon points="265.5,315.9 265.5,293.7 280.9,293.2 285.9,313.4 280.9,319.0" fill="#7c8177" stroke="#7c8177" stroke-width="0.5"/><polygon points="285.9,313.4 280.1,290.1 301.7,293.2 303.1,311.9" fill="#7c8177" stroke="#7c8177" stroke-width="0.5"/><polygon points="303.1,312.2 301.7,293.2 309.6,285.6 329.2,305.2 329.2,305.5" fill="#7c8177" stroke="#7c8177" stroke-width="0.5"/><polygon points="328.7,308.5 329.2,305.2 339.9,290.4 343.4,289.3 357.1,293.7 361.0,306.0 351.2,317.5" fill="#7c8177" stroke="#7c8177" stroke-width="0.5"/><polygon points="361.0,306.0 357.1,293.7 367.8,284.2 379.6,284.7 383.5,290.7 379.8,306.9 374.5,310.3" fill="#7c8177" stroke="#7c8177" stroke-width="0.5"/><polygon points="379.8,306.9 383.5,290.7 404.1,293.7 396.9,313.2" fill="#7c8177" stroke="#7c8177" stroke-width="0.5"/><polygon points="399.5,318.8 396.9,313.2 403.3,295.7 417.9,299.7 421.5,310.4 419.3,318.2 410.5,322.3" fill="#7c8177" stroke="#7c8177" stroke-width="0.5"/><polygon points="421.5,310.4 417.9,299.7 426.2,289.0 442.7,293.0 447.9,303.8" fill="#7c8177" stroke="#7c8177" stroke-width="0.5"/><polygon points="445.9,315.7 443.5,300.1 463.2,299.5 470.3,318.4 459.9,323.5" fill="#7c8177" stroke="#7c8177" stroke-width="0.5"/><polygon points="470.3,318.4 463.2,299.5 470.0,291.6 483.7,293.3 488.7,310.8 478.9,320.6" fill="#8f8366" stroke="#8f8366" stroke-width="0.5"/><polygon points="488.7,310.8 483.7,293.3 491.6,285.4 510.1,292.5 507.8,312.0" fill="#3d7ea6" stroke="#3d7ea6" stroke-width="0.5"/><polygon points="508.0,310.5 510.1,292.5 515.1,288.5 535.5,297.1 535.5,310.5" fill="#1f4e6b" stroke="#1f4e6b" stroke-width="0.5"/><polygon points="535.5,310.3 535.5,297.1 544.5,286.7 558.0,295.2 558.0,307.8 547.1,314.6" fill="#1f4e6b" stroke="#1f4e6b" stroke-width="0.5"/><polygon points="576.0,287.6 576.0,315.4 558.0,307.8 558.0,295.2" fill="#1f4e6b" stroke="#1f4e6b" stroke-width="0.5"/><polygon points="0.0,345.6 0.0,318.4 12.4,320.4 12.4,343.1" fill="#1f4e6b" stroke="#1f4e6b" stroke-width="0.5"/><polygon points="22.0,316.4 26.3,310.5 28.0,310.5 49.9,323.6 47.3,334.7 38.9,339.2 32.3,338.0" fill="#1f4e6b" stroke="#1f4e6b" stroke-width="0.5"/><polygon points="47.3,334.7 49.9,323.6 57.0,318.0 75.4,327.2 76.5,333.2 64.3,346.5 63.5,346.5" fill="#3d7ea6" stroke="#3d7ea6" stroke-width="0.5"/><polygon points="57.0,318.0 58.6,304.4 70.6,299.2 85.9,309.0 86.3,311.0 75.4,327.2" fill="#3d7ea6" stroke="#3d7ea6" stroke-width="0.5"/><polygon points="76.5,333.2 75.4,327.2 86.3,311.0 102.5,320.1 103.1,334.7 89.9,339.8" fill="#c3b28b" stroke="#c3b28b" stroke-width="0.5"/><polygon points="103.1,334.7 102.5,320.1 114.1,311.7 128.5,322.8 128.0,331.3 112.0,340.7" fill="#a5ad9e" stroke="#a5ad9e" stroke-width="0.5"/><polygon points="128.0,331.3 128.5,322.8 139.1,314.7 149.8,319.4 152.0,333.9 138.2,339.3" fill="#91978b" stroke="#91978b" stroke-width="0.5"/><polygon points="152.0,333.9 149.8,319.4 162.8,310.5 172.9,314.9 167.7,337.4 160.5,338.4" fill="#7e8378" stroke="#7e8378" stroke-width="0.5"/><polygon points="167.7,337.4 172.9,314.9 184.5,311.2 193.9,335.6 177.7,343.9" fill="#7f857a" stroke="#7f857a" stroke-width="0.5"/><polygon points="193.9,335.6 185.3,313.1 212.2,307.3 208.7,331.8 200.2,337.2" fill="#7c8177" stroke="#7c8177" stroke-width="0.5"/><polygon points="208.7,331.8 211.8,309.9 221.9,309.5 231.1,316.7 232.3,328.0 226.8,336.9" fill="#888d82" stroke="#888d82" stroke-width="0.5"/><polygon points="232.3,328.0 231.1,316.7 245.6,310.3 257.6,320.6 255.1,330.8" fill="#8c9286" stroke="#8c9286" stroke-width="0.5"/><polygon points="257.0,337.6 255.1,330.8 257.6,320.6 265.5,315.9 280.9,319.0 283.9,335.5 274.5,341.1" fill="#7c8177" stroke="#7c8177" stroke-width="0.5"/><polygon points="283.9,335.5 280.9,319.0 285.9,313.4 303.3,311.9 307.1,327.6 302.2,336.4 292.5,338.9" fill="#7c8177" stroke="#7c8177" stroke-width="0.5"/><polygon points="307.1,327.6 303.4,312.1 332.1,304.7 326.6,327.6" fill="#7c8177" stroke="#7c8177" stroke-width="0.5"/><polygon points="332.6,338.3 326.6,327.6 330.9,309.4 351.2,317.5 353.3,329.2 347.8,336.8" fill="#7c8177" stroke="#7c8177" stroke-width="0.5"/><polygon points="353.3,329.2 351.2,317.5 361.0,306.0 374.5,310.3 375.4,331.2" fill="#7c8177" stroke="#7c8177" stroke-width="0.5"/><polygon points="375.3,330.5 374.5,310.3 379.8,306.9 396.9,313.2 399.5,318.8 387.0,332.0" fill="#7c8177" stroke="#7c8177" stroke-width="0.5"/><polygon points="396.7,347.7 387.0,332.0 399.5,318.8 410.5,322.3 410.5,346.0" fill="#7c8177" stroke="#7c8177" stroke-width="0.5"/><polygon points="419.3,318.2 421.5,310.4 444.2,304.8 445.9,315.7 434.1,329.2" fill="#7c8177" stroke="#7c8177" stroke-width="0.5"/><polygon points="434.1,329.2 445.9,315.7 459.9,323.5 455.4,340.1 443.5,341.0 435.2,334.7" fill="#7c8177" stroke="#7c8177" stroke-width="0.5"/><polygon points="455.4,340.1 459.9,323.5 470.3,318.4 478.9,320.6 484.3,336.8 464.0,347.7" fill="#3d7ea6" stroke="#3d7ea6" stroke-width="0.5"/><polygon points="483.9,335.8 478.9,320.6 488.7,310.8 506.9,311.9 509.7,328.7 505.4,334.0" fill="#3d7ea6" stroke="#3d7ea6" stroke-width="0.5"/><polygon points="509.7,328.7 506.6,310.5 535.3,310.5 527.6,332.3" fill="#1f4e6b" stroke="#1f4e6b" stroke-width="0.5"/><polygon points="530.2,335.9 527.6,332.3 535.3,310.3 547.1,314.6 553.2,331.2 550.8,334.5" fill="#1f4e6b" stroke="#1f4e6b" stroke-width="0.5"/><polygon points="576.0,315.4 576.0,328.6 553.2,331.2 547.1,314.6 558.0,307.8" fill="#1f4e6b" stroke="#1f4e6b" stroke-width="0.5"/><polygon points="12.4,343.1 12.4,320.4 22.0,316.4 32.3,338.0 18.9,346.4" fill="#1f4e6b" stroke="#1f4e6b" stroke-width="0.5"/><polygon points="23.3,368.3 18.9,346.4 32.3,338.0 38.9,339.2 41.4,363.2" fill="#1f4e6b" stroke="#1f4e6b" stroke-width="0.5"/><polygon points="41.4,363.2 38.9,339.2 47.3,334.7 63.5,346.5 46.1,364.7" fill="#1f4e6b" stroke="#1f4e6b" stroke-width="0.5"/><polygon points="64.3,346.5 76.5,333.2 89.9,339.8 88.1,364.0 76.9,363.3" fill="#3d7ea6" stroke="#3d7ea6" stroke-width="0.5"/><polygon points="88.1,363.5 89.9,339.8 103.1,334.7 112.0,340.7 114.5,356.4" fill="#3d7ea6" stroke="#3d7ea6" stroke-width="0.5"/><polygon points="114.5,356.4 112.0,340.7 128.0,331.3 138.2,339.3 136.9,357.3 127.2,363.1 120.9,362.1" fill="#aa9c79" stroke="#aa9c79" stroke-width="0.5"/><polygon points="136.9,357.3 138.2,339.3 152.0,333.9 160.5,338.4 152.5,360.7" fill="#878c81" stroke="#878c81" stroke-width="0.5"/><polygon points="152.5,360.7 160.5,338.4 167.7,337.4 177.7,343.9 178.4,359.2 171.4,365.9 158.0,366.8" fill="#80857a" stroke="#80857a" stroke-width="0.5"/><polygon points="178.4,359.2 177.7,343.9 193.9,335.6 200.2,337.2 206.1,358.5 196.6,365.0" fill="#475131" stroke="#475131" stroke-width="0.5"/><polygon points="206.1,358.5 200.2,337.2 208.7,331.8 226.8,336.9 230.4,348.5 228.2,357.0 220.5,361.8" fill="#83897e" stroke="#83897e" stroke-width="0.5"/><polygon points="230.4,348.5 226.8,336.9 232.3,328.0 255.1,330.8 257.0,337.6 254.9,341.1" fill="#8d9387" stroke="#8d9387" stroke-width="0.5"/><polygon points="228.2,357.0 230.4,348.5 254.9,341.1 256.6,363.4 248.0,368.5" fill="#7c8177" stroke="#7c8177" stroke-width="0.5"/><polygon points="274.5,366.4 256.6,363.4 254.9,341.1 257.0,337.6 274.5,341.1" fill="#7e8378" stroke="#7e8378" stroke-width="0.5"/><polygon points="292.5,363.5 292.5,338.9 302.2,336.4 315.0,350.0 301.8,366.9" fill="#7c8177" stroke="#7c8177" stroke-width="0.5"/><polygon points="315.0,350.0 302.2,336.4 307.1,327.6 326.6,327.6 332.6,338.3 326.0,349.8" fill="#7c8177" stroke="#7c8177" stroke-width="0.5"/><polygon points="333.3,364.6 326.0,349.8 332.6,338.3 347.8,336.8 357.9,357.0 345.5,367.9" fill="#7c8177" stroke="#7c8177" stroke-width="0.5"/><polygon points="357.9,357.0 347.8,336.8 353.3,329.2 374.5,331.1 369.3,357.3" fill="#7c8177" stroke="#7c8177" stroke-width="0.5"/><polygon points="377.1,362.7 369.3,357.3 374.7,330.4 387.0,332.0 396.7,347.7 386.9,360.9" fill="#7c8177" stroke="#7c8177" stroke-width="0.5"/><polygon points="410.5,346.0 410.5,322.3 419.3,318.2 434.1,329.2 435.2,334.7 415.4,348.8" fill="#7c8177" stroke="#7c8177" stroke-width="0.5"/><polygon points="415.4,348.8 435.2,334.7 443.5,341.0 437.4,366.1 419.8,359.3" fill="#8f8366" stroke="#8f8366" stroke-width="0.5"/><polygon points="437.6,365.4 443.5,341.0 455.4,340.1 464.0,347.7 464.8,367.4" fill="#3d7ea6" stroke="#3d7ea6" stroke-width="0.5"/><polygon points="464.6,363.0 464.0,347.7 483.2,337.4 491.6,359.6 484.9,365.9" fill="#1f4e6b" stroke="#1f4e6b" stroke-width="0.5"/><polygon points="491.6,359.6 482.7,335.9 505.4,334.0 509.8,358.8" fill="#1f4e6b" stroke="#1f4e6b" stroke-width="0.5"/><polygon points="509.6,357.7 505.4,334.0 509.7,328.7 527.6,332.3 530.2,335.9 528.0,356.0" fill="#1f4e6b" stroke="#1f4e6b" stroke-width="0.5"/><polygon points="528.0,356.0 530.2,335.9 550.8,334.5 553.9,359.7 533.2,360.1" fill="#1f4e6b" stroke="#1f4e6b" stroke-width="0.5"/><polygon points="576.0,328.6 576.0,357.8 553.6,357.8 550.8,334.5 553.2,331.2" fill="#1f4e6b" stroke="#1f4e6b" stroke-width="0.5"/><polygon points="0.0,366.8 0.0,345.6 12.4,343.1 18.9,346.4 22.9,366.8" fill="#1f4e6b" stroke="#1f4e6b" stroke-width="0.5"/><polygon points="58.5,396.0 23.7,396.0 24.4,368.0 41.4,363.2 46.1,364.7 58.5,380.6" fill="#1f4e6b" stroke="#1f4e6b" stroke-width="0.5"/><polygon points="58.5,380.6 46.1,364.7 63.5,346.5 64.3,346.5 76.9,363.3" fill="#1f4e6b" stroke="#1f4e6b" stroke-width="0.5"/><polygon points="98.1,396.0 58.5,396.0 58.5,380.6 76.9,363.3 87.8,363.9" fill="#1f4e6b" stroke="#1f4e6b" stroke-width="0.5"/><polygon points="100.6,396.0 98.1,396.0 87.7,363.7 114.5,356.4 120.9,362.1" fill="#3d7ea6" stroke="#3d7ea6" stroke-width="0.5"/><polygon points="139.9,396.0 100.6,396.0 120.9,362.1 127.2,363.1" fill="#3d7ea6" stroke="#3d7ea6" stroke-width="0.5"/><polygon points="147.8,396.0 139.9,396.0 127.2,363.1 136.9,357.3 152.5,360.7 158.0,366.8" fill="#3d7ea6" stroke="#3d7ea6" stroke-width="0.5"/><polygon points="182.7,396.0 147.8,396.0 158.0,366.8 171.4,365.9" fill="#b9aa84" stroke="#b9aa84" stroke-width="0.5"/><polygon points="195.0,396.0 182.7,396.0 171.4,365.9 178.4,359.2 196.6,365.0" fill="#6098b8" stroke="#6098b8" stroke-width="0.5"/><polygon points="220.5,396.0 195.0,396.0 196.6,365.0 206.1,358.5 220.5,361.8" fill="#6098b8" stroke="#6098b8" stroke-width="0.5"/><polygon points="244.8,396.0 220.5,396.0 220.5,361.8 228.2,357.0 248.0,368.5" fill="#56623b" stroke="#56623b" stroke-width="0.5"/><polygon points="275.7,396.0 244.8,396.0 248.0,368.5 256.6,363.4 276.5,366.7" fill="#7c8177" stroke="#7c8177" stroke-width="0.5"/><polygon points="274.5,368.5 274.5,341.1 283.9,335.5 292.5,338.9 292.5,363.5" fill="#7c8177" stroke="#7c8177" stroke-width="0.5"/><polygon points="311.9,396.0 275.7,396.0 276.4,368.0 292.5,363.5 301.8,366.9 312.4,384.7" fill="#7d8378" stroke="#7d8378" stroke-width="0.5"/><polygon points="312.4,384.7 301.8,366.9 315.0,350.0 326.0,349.8 333.3,364.6" fill="#7c8177" stroke="#7c8177" stroke-width="0.5"/><polygon points="352.7,396.0 311.9,396.0 312.4,384.7 333.3,364.6 345.5,367.9" fill="#7c8177" stroke="#7c8177" stroke-width="0.5"/><polygon points="371.4,396.0 352.7,396.0 345.5,367.9 357.9,357.0 369.3,357.3 377.1,362.7" fill="#6098b8" stroke="#6098b8" stroke-width="0.5"/><polygon points="406.7,396.0 371.4,396.0 377.1,362.7 386.9,360.9 405.1,378.2" fill="#8f8366" stroke="#8f8366" stroke-width="0.5"/><polygon points="405.1,378.2 386.9,360.9 396.7,347.7 410.5,346.0 415.4,348.8 419.8,359.3" fill="#7c8177" stroke="#7c8177" stroke-width="0.5"/><polygon points="432.3,396.0 406.7,396.0 405.1,378.2 419.8,359.3 436.7,365.9" fill="#3d7ea6" stroke="#3d7ea6" stroke-width="0.5"/><polygon points="462.9,396.0 432.3,396.0 436.8,365.4 460.8,367.1" fill="#1f4e6b" stroke="#1f4e6b" stroke-width="0.5"/><polygon points="490.2,396.0 462.9,396.0 460.5,362.4 484.9,365.9" fill="#1f4e6b" stroke="#1f4e6b" stroke-width="0.5"/><polygon points="510.5,396.0 490.2,396.0 484.9,365.9 491.6,359.6 508.3,358.8" fill="#1f4e6b" stroke="#1f4e6b" stroke-width="0.5"/><polygon points="527.2,396.0 510.5,396.0 508.2,357.8 528.0,356.0 533.2,360.1" fill="#1f4e6b" stroke="#1f4e6b" stroke-width="0.5"/><polygon points="554.0,396.0 527.2,396.0 533.2,360.1 550.9,359.8" fill="#1f4e6b" stroke="#1f4e6b" stroke-width="0.5"/><polygon points="576.0,357.8 576.0,396.0 554.0,396.0 550.7,357.8" fill="#1f4e6b" stroke="#1f4e6b" stroke-width="0.5"/><polygon points="23.7,396.0 0.0,396.0 0.0,366.8 24.5,366.8" fill="#1f4e6b" stroke="#1f4e6b" stroke-width="0.5"/></g><path d="M64.2,15.1 L69.1,0.0 M437.3,0.0 L437.1,20.3 M45.7,36.1 L47.3,16.2 M47.3,16.2 L64.2,15.1 M436.4,19.8 L455.9,20.3 M455.9,20.3 L461.5,38.3 M34.4,57.6 L30.8,50.4 M30.8,50.4 L34.3,39.7 M34.3,39.7 L45.7,36.1 M461.5,38.3 L480.3,39.2 M480.3,39.2 L480.6,59.4 M23.5,76.2 L34.4,57.6 M480.6,59.4 L490.5,67.1 M490.5,67.1 L490.5,79.3 M17.0,104.4 L12.8,77.7 M12.8,77.7 L23.5,76.2 M490.5,79.3 L490.5,102.4 M20.5,128.3 L14.1,107.7 M14.1,107.7 L17.0,104.4 M490.5,102.4 L495.5,106.0 M495.5,106.0 L511.5,103.5 M511.5,103.5 L515.2,106.2 M515.2,106.2 L516.3,126.8 M516.3,126.8 L509.1,131.7 M15.5,146.5 L15.0,134.1 M15.0,134.1 L20.5,128.3 M509.1,131.7 L507.8,149.0 M0.0,155.6 L15.5,146.5 M508.0,149.1 L506.1,158.5 M23.1,183.9 L0.0,183.9 M25.9,191.7 L23.1,183.9 M506.1,158.5 L517.6,170.4 M517.6,170.4 L514.8,184.4 M19.5,205.4 L25.9,191.7 M23.3,213.2 L19.5,205.4 M514.8,184.4 L525.9,191.1 M525.9,191.1 L529.8,200.4 M529.8,200.4 L523.8,209.3 M523.8,209.3 L515.3,212.1 M20.6,229.5 L23.3,213.2 M515.3,212.1 L510.4,229.7 M22.6,245.9 L20.7,229.5 M30.2,251.1 L22.6,245.9 M510.4,229.7 L517.2,234.2 M517.2,234.2 L518.7,250.3 M518.7,250.3 L505.2,255.5 M31.6,267.6 L30.2,251.1 M49.5,277.6 L31.6,267.6 M495.3,266.8 L490.8,272.4 M505.2,255.5 L501.2,264.3 M501.2,264.3 L495.3,266.8 M58.6,304.4 L49.3,297.7 M49.3,297.7 L45.5,282.5 M45.5,282.5 L47.5,275.9 M70.6,299.2 L58.6,304.4 M490.8,272.4 L491.6,285.4 M491.6,285.4 L483.7,293.3 M85.9,309.0 L70.6,299.2 M86.3,311.0 L85.9,309.0 M470.3,318.4 L459.9,323.5 M483.7,293.3 L488.7,310.8 M488.7,310.8 L478.9,320.6 M478.9,320.6 L470.3,318.4 M76.5,333.2 L75.4,327.2 M75.4,327.2 L86.3,311.0 M103.1,334.7 L89.9,339.8 M89.9,339.8 L76.5,333.2 M112.0,340.7 L103.1,334.7 M459.9,323.5 L455.4,340.1 M455.4,340.1 L443.5,341.0 M114.5,356.4 L112.0,340.7 M136.9,357.3 L127.2,363.1 M127.2,363.1 L120.9,362.1 M120.9,362.1 L114.5,356.4 M152.5,360.7 L136.9,357.3 M158.0,366.8 L152.5,360.7 M443.5,341.0 L437.4,366.1 M437.4,366.1 L419.8,359.3 M147.8,396.0 L158.0,366.8 M405.1,378.2 L406.7,396.0 M419.8,359.3 L405.1,378.2" fill="none" stroke="#283640" stroke-width="2.0" stroke-linecap="round"/></svg>