<svg xmlns="http://www.w3.org/2000/svg" width="630" height="630" viewBox="0 0 630 630"><rect width="630" height="630" fill="#c9d2bb"/><polygon points="630.0,193.2 630.0,630.0 0.0,630.0 0.0,394.3" fill="#2f6d8f"/><polygon points="29.4,249.8 44.0,184.5 77.7,125.8 185.0,45.0 315.0,10.7 446.1,42.7 501.1,81.6 592.6,181.3 597.0,203.7 41.4,381.1" fill="#e6dcc0"/><g stroke="#4a4230" stroke-width="1" stroke-linejoin="round"><polygon points="217.7,36.4 231.6,32.7 282.3,74.0 284.6,79.8 259.9,109.9 216.4,106.4" fill="#cdbf9e"/><polygon points="202.9,205.1 200.5,248.2 182.8,260.1 165.5,258.6 145.3,238.5 175.9,197.2" fill="#b3a684"/><polygon points="145.3,238.5 165.5,258.6 150.1,299.4 113.5,290.1 128.2,239.2" fill="#dfd6c0"/><polygon points="113.8,358.0 41.4,381.1 36.6,328.9 93.2,308.3" fill="#b3a684"/><polygon points="530.5,224.9 452.8,249.7 450.5,223.3 486.5,199.0" fill="#cdbf9e"/><polygon points="271.5,145.8 317.1,146.8 321.1,181.7 287.2,205.2 253.1,170.3" fill="#d9c08a"/><polygon points="182.8,260.1 200.5,248.2 234.3,265.8 220.7,289.0 194.8,292.8" fill="#b9a98c"/><polygon points="362.7,82.1 363.6,99.7 342.9,130.5 327.2,134.1 299.7,85.2 343.0,65.8" fill="#c2b48f"/><polygon points="342.9,130.5 363.6,99.7 404.1,116.8 385.5,161.6" fill="#c2b48f"/><polygon points="438.9,209.8 389.0,204.9 379.1,193.2 386.6,164.6 442.9,161.0" fill="#cdbf9e"/><polygon points="461.9,57.6 450.9,105.1 438.1,114.1 420.0,109.7 405.5,67.6" fill="#c2b48f"/><polygon points="406.1,264.6 349.4,282.7 347.5,276.6 355.3,250.7 388.5,243.4" fill="#b3a684"/><polygon points="253.1,170.3 287.2,205.2 285.4,221.0 264.7,239.5 257.5,241.2 217.7,199.9 236.2,173.7" fill="#c2b48f"/><polygon points="274.2,306.8 233.6,319.7 220.7,289.0 234.3,265.8 239.9,264.0" fill="#b9a98c"/><polygon points="115.2,173.7 155.1,165.0 175.9,197.2 145.3,238.5 128.2,239.2 104.8,222.1" fill="#c2b48f"/><polygon points="442.9,161.0 386.6,164.6 385.5,161.6 404.1,116.8 420.0,109.7 438.1,114.1 445.1,158.7" fill="#b9a98c"/><polygon points="349.4,282.7 291.7,301.2 295.4,279.1 314.4,262.3 347.5,276.6" fill="#aebbb0"/><polygon points="69.6,139.8 77.7,125.8 135.3,82.4 171.7,126.1 155.1,165.0 115.2,173.7" fill="#cdbf9e"/><polygon points="234.3,265.8 200.5,248.2 202.9,205.1 217.7,199.9 257.5,241.2 239.9,264.0" fill="#c2b48f"/><polygon points="317.1,146.8 271.5,145.8 259.9,109.9 284.6,79.8 299.7,85.2 327.2,134.1" fill="#c2b48f"/><polygon points="463.8,55.2 501.1,81.6 523.4,105.9 505.6,121.3 450.9,105.1 461.9,57.6" fill="#d8cdb0"/><polygon points="73.3,270.5 96.6,298.7 93.2,308.3 36.6,328.9 31.6,273.7" fill="#c2b48f"/><polygon points="198.2,331.0 152.4,345.6 152.8,302.8 188.7,301.7" fill="#d8cdb0"/><polygon points="47.0,179.2 69.6,139.8 115.2,173.7 104.8,222.1 82.7,228.3 80.8,227.4" fill="#cdbf9e"/><polygon points="216.4,106.4 259.9,109.9 271.5,145.8 253.1,170.3 236.2,173.7 198.2,123.2" fill="#d8cdb0"/><polygon points="405.5,67.6 420.0,109.7 404.1,116.8 363.6,99.7 362.7,82.1 398.3,62.5" fill="#b3a684"/><polygon points="135.3,82.4 185.0,45.0 217.7,36.4 216.4,106.4 198.2,123.2 171.7,126.1" fill="#c2b48f"/><polygon points="104.8,222.1 128.2,239.2 113.5,290.1 96.6,298.7 73.3,270.5 82.7,228.3" fill="#c2b48f"/><polygon points="450.5,223.3 452.8,249.7 406.1,264.6 388.5,243.4 389.0,204.9 438.9,209.8" fill="#cdbf9e"/><polygon points="349.0,199.9 379.1,193.2 389.0,204.9 388.5,243.4 355.3,250.7 338.5,229.3" fill="#cdbf9e"/><polygon points="321.1,181.7 317.1,146.8 327.2,134.1 342.9,130.5 385.5,161.6 386.6,164.6 379.1,193.2 349.0,199.9" fill="#d8cdb0"/><polygon points="165.5,258.6 182.8,260.1 194.8,292.8 188.7,301.7 152.8,302.8 150.1,299.4" fill="#cdbf9e"/><polygon points="486.5,199.0 450.5,223.3 438.9,209.8 442.9,161.0 445.1,158.7 486.9,162.1" fill="#cdbf9e"/><polygon points="291.7,301.2 274.2,306.8 239.9,264.0 257.5,241.2 264.7,239.5 295.4,279.1" fill="#c2b48f"/><polygon points="152.4,345.6 113.8,358.0 93.2,308.3 96.6,298.7 113.5,290.1 150.1,299.4 152.8,302.8" fill="#b3a684"/><polygon points="29.4,249.8 32.5,235.7 80.8,227.4 82.7,228.3 73.3,270.5 31.6,273.7" fill="#cdbf9e"/><polygon points="338.5,229.3 355.3,250.7 347.5,276.6 314.4,262.3 315.2,238.1" fill="#d8cdb0"/><polygon points="396.5,30.6 446.1,42.7 463.8,55.2 461.9,57.6 405.5,67.6 398.3,62.5" fill="#b3a684"/><polygon points="316.1,11.0 341.1,17.1 343.0,65.8 299.7,85.2 284.6,79.8 282.3,74.0" fill="#cdbf9e"/><polygon points="535.9,223.2 530.5,224.9 486.5,199.0 486.9,162.1 496.3,155.0 539.0,180.1" fill="#cdbf9e"/><polygon points="264.7,239.5 285.4,221.0 315.2,238.1 314.4,262.3 295.4,279.1" fill="#cdbf9e"/><polygon points="198.2,123.2 236.2,173.7 217.7,199.9 202.9,205.1 175.9,197.2 155.1,165.0 171.7,126.1" fill="#c2b48f"/><polygon points="523.4,105.9 568.7,155.3 539.0,180.1 496.3,155.0 505.6,121.3" fill="#c2b48f"/><polygon points="233.6,319.7 198.2,331.0 188.7,301.7 194.8,292.8 220.7,289.0" fill="#cdbf9e"/><polygon points="285.4,221.0 287.2,205.2 321.1,181.7 349.0,199.9 338.5,229.3 315.2,238.1" fill="#cdbf9e"/><polygon points="568.7,155.3 592.6,181.3 597.0,203.7 535.9,223.2 539.0,180.1" fill="#cdbf9e"/><polygon points="231.6,32.7 315.0,10.7 316.1,11.0 282.3,74.0" fill="#dfd6c0"/><polygon points="341.1,17.1 396.5,30.6 398.3,62.5 362.7,82.1 343.0,65.8" fill="#cdbf9e"/><polygon points="486.9,162.1 445.1,158.7 438.1,114.1 450.9,105.1 505.6,121.3 496.3,155.0" fill="#cdbf9e"/><polygon points="32.5,235.7 44.0,184.5 47.0,179.2 80.8,227.4" fill="#cdbf9e"/></g><g fill="#7d6c52" stroke="#4a3e2e" stroke-width="0.5" stroke-linejoin="round"><polygon points="239.7,72.2 251.2,72.4 251.0,80.5 239.6,80.3"/><polygon points="250.8,85.3 250.6,95.1 239.5,94.8 239.7,85.1"/><polygon points="219.5,94.0 219.7,83.7 234.3,84.0 234.1,94.3"/><polygon points="219.3,78.4 219.5,71.9 235.0,72.2 234.9,78.7"/><polygon points="249.7,105.9 219.6,103.5 219.6,100.1 249.8,100.7"/><polygon points="272.2,90.1 258.6,106.7 255.9,106.5 256.2,89.8"/><polygon points="277.3,72.8 280.5,75.4 282.1,79.4 277.6,84.9 272.4,84.8 272.6,72.7"/><polygon points="267.5,84.3 255.9,84.1 256.1,72.9 267.7,73.1"/><polygon points="243.1,44.4 249.8,49.9 242.8,58.5"/><polygon points="265.9,62.4 274.1,69.1 265.8,69.0"/><polygon points="252.8,53.8 261.6,61.0 261.5,67.3 243.8,67.0 243.8,64.8"/><polygon points="238.4,51.0 238.1,67.1 230.1,67.0 230.4,50.9"/><polygon points="225.0,67.2 219.5,67.1 219.8,50.4 225.4,50.5"/><polygon points="220.4,38.5 230.9,35.8 238.5,42.0 238.4,45.6 220.3,45.2"/><polygon points="159.1,222.6 162.4,218.1 169.2,223.2 165.9,227.6"/><polygon points="164.3,215.5 167.4,211.3 174.3,216.4 171.2,220.6"/><polygon points="176.9,218.6 180.0,221.0 172.0,231.9 168.8,229.5"/><polygon points="152.8,231.4 157.2,225.4 162.9,229.6 158.5,235.6"/><polygon points="165.7,231.4 170.2,234.8 165.6,241.0 161.1,237.7"/><polygon points="158.9,248.9 148.2,238.3 150.8,234.8 162.8,243.7"/><polygon points="174.1,257.7 166.2,257.1 161.3,252.2 163.1,249.6"/><polygon points="165.7,247.0 173.5,236.4 178.2,239.8 170.4,250.4"/><polygon points="181.5,242.0 184.7,244.3 176.6,255.3 173.4,252.9"/><polygon points="193.2,250.7 182.3,258.1 179.5,257.9 187.7,246.7"/><polygon points="199.0,235.4 198.4,247.0 196.6,248.1 189.4,242.8 196.3,233.4"/><polygon points="181.0,236.7 176.0,233.0 183.0,223.5 188.0,227.2"/><polygon points="186.0,241.0 183.6,239.2 191.2,228.9 193.6,230.7"/><polygon points="200.4,216.6 199.6,230.9 193.3,226.2"/><polygon points="201.1,206.4 200.9,210.0 199.6,211.7 187.3,202.6 187.5,202.4"/><polygon points="185.9,221.3 177.6,215.2 179.5,212.7 187.7,218.8"/><polygon points="181.7,210.4 185.3,205.5 192.9,211.1 189.2,216.0"/><polygon points="197.9,214.4 190.4,224.5 188.3,222.9 195.7,212.8"/><polygon points="175.2,212.5 170.0,208.7 176.7,199.7 183.3,201.6"/><polygon points="137.0,293.6 130.2,291.9 133.8,277.7 141.0,279.8"/><polygon points="125.3,290.4 116.8,288.2 120.9,274.2 128.9,276.5"/><polygon points="153.5,283.4 148.6,296.5 141.8,294.8 145.7,281.1"/><polygon points="162.7,260.8 161.4,264.1 145.9,258.3 146.5,256.1"/><polygon points="158.8,268.2 155.0,278.2 142.3,274.6 145.6,263.2"/><polygon points="149.6,245.5 160.4,256.2 147.6,252.5"/><polygon points="144.2,241.3 145.6,242.7 142.8,252.5 128.4,248.4 130.3,241.9"/><polygon points="141.4,257.7 139.3,265.1 124.6,260.9 126.8,253.5"/><polygon points="138.5,269.8 137.3,273.9 121.7,269.5 122.9,265.3"/><polygon points="96.5,321.9 98.1,325.7 83.1,332.0 81.4,328.1"/><polygon points="76.7,316.6 86.1,313.2 88.8,320.5 79.8,324.2"/><polygon points="89.1,311.3 92.4,310.1 95.8,318.4 92.3,319.9"/><polygon points="64.2,339.9 62.8,335.5 78.0,330.6 79.3,333.6"/><polygon points="70.9,317.9 73.1,317.1 77.3,327.2 74.1,328.2"/><polygon points="61.6,331.4 59.0,323.1 67.7,319.9 70.5,328.6"/><polygon points="95.3,330.8 100.1,328.8 102.8,335.3 98.0,337.3"/><polygon points="86.2,341.8 84.2,335.7 92.4,332.3 94.8,338.2"/><polygon points="93.9,342.8 103.6,338.8 106.4,345.6 96.8,349.6"/><polygon points="89.5,353.3 86.8,345.1 90.4,343.6 93.7,351.6"/><polygon points="111.0,356.7 101.2,359.8 99.0,353.1 108.0,349.4"/><polygon points="97.9,361.4 92.7,363.1 90.4,356.2 95.6,354.0"/><polygon points="68.6,354.9 65.0,343.6 67.9,342.3 72.6,353.6"/><polygon points="70.8,341.0 81.1,336.7 82.2,340.1 71.8,343.4"/><polygon points="82.8,343.4 84.8,349.5 75.9,352.3 73.4,346.4"/><polygon points="89.1,363.7 82.3,365.8 79.0,355.5 85.8,353.3"/><polygon points="78.6,367.2 73.3,368.9 69.9,358.2 75.2,356.5"/><polygon points="69.8,370.1 62.5,372.4 59.8,363.8 67.5,363.1"/><polygon points="59.0,373.5 53.4,375.3 50.1,364.7 56.0,364.1"/><polygon points="49.7,376.3 43.1,378.4 42.0,365.5 46.2,365.2"/><polygon points="44.1,328.1 55.2,324.0 56.6,328.6 45.4,332.2"/><polygon points="57.4,332.5 59.8,339.8 49.3,343.1 47.0,335.8"/><polygon points="40.2,346.3 38.7,330.2 40.6,329.5 45.4,344.6"/><polygon points="60.0,344.0 61.3,343.6 66.3,359.4 61.4,359.9"/><polygon points="41.8,361.3 40.8,350.5 46.6,348.6 50.5,360.6"/><polygon points="50.5,347.1 56.2,345.3 57.6,360.1 54.8,360.4"/><polygon points="523.2,224.1 508.4,228.8 503.1,212.3"/><polygon points="503.1,230.9 487.1,236.0 484.9,229.2 500.9,224.1"/><polygon points="483.2,224.3 481.3,218.4 497.6,213.2 499.5,219.1"/><polygon points="479.8,213.6 477.9,207.9 486.6,202.0 495.7,207.4 496.1,208.4"/><polygon points="466.0,222.5 464.2,216.7 473.8,210.3 476.6,219.2"/><polygon points="481.8,237.5 472.4,240.5 468.1,227.1 477.6,224.1"/><polygon points="452.8,228.9 452.4,224.2 460.6,218.7 462.8,225.7"/><polygon points="467.1,242.2 455.3,246.0 454.2,233.3 463.3,230.4"/><polygon points="187.9,261.7 200.7,253.0 214.8,260.4 207.3,274.8 189.2,265.3"/><polygon points="205.5,281.5 201.5,289.2 196.5,289.9 190.6,273.8"/><polygon points="221.9,263.3 229.4,267.2 218.6,285.8 209.5,287.1"/><polygon points="323.2,121.9 319.7,115.8 332.9,108.4 336.3,114.5"/><polygon points="342.8,126.1 341.3,128.2 328.5,131.2 325.7,126.2 338.7,118.9"/><polygon points="351.2,113.3 346.0,121.0 337.5,106.0 344.8,101.9"/><polygon points="317.3,111.6 311.8,101.8 319.8,97.3 325.3,107.0"/><polygon points="324.6,95.1 336.9,88.2 341.9,97.2 329.7,104.1"/><polygon points="360.1,88.1 360.7,98.9 354.6,107.9 347.4,95.2"/><polygon points="359.2,82.4 344.4,90.8 341.3,85.2 353.9,78.1"/><polygon points="338.3,70.1 342.7,68.1 350.8,74.8 343.3,79.0"/><polygon points="323.1,77.6 334.4,72.5 339.0,80.7 328.2,86.8"/><polygon points="309.7,96.7 304.0,86.6 318.1,80.3 323.1,89.2"/><polygon points="390.3,114.2 400.2,118.4 394.6,132.0 384.6,127.8"/><polygon points="381.8,110.0 385.6,111.6 379.4,126.3 372.1,123.3"/><polygon points="393.1,137.1 384.4,158.0 379.6,154.4 392.4,136.8"/><polygon points="368.4,128.3 369.2,127.1 388.0,135.0 384.3,140.0"/><polygon points="375.6,150.7 360.8,139.9 365.8,133.0 380.6,143.9"/><polygon points="361.3,107.4 364.5,102.6 377.3,108.1 372.1,115.2"/><polygon points="354.0,118.4 358.7,111.4 369.2,119.1 364.2,125.9"/><polygon points="346.3,129.9 351.3,122.5 361.3,129.8 356.0,137.1"/><polygon points="391.0,174.7 404.3,178.1 405.0,188.6 392.0,189.4"/><polygon points="381.6,191.2 386.0,174.2 387.1,190.9"/><polygon points="387.9,168.4 388.3,166.7 404.4,165.7 404.9,172.9"/><polygon points="406.1,203.7 390.4,202.1 385.1,195.9 405.5,194.6"/><polygon points="410.3,181.5 409.3,165.9 417.2,165.4 418.3,182.1"/><polygon points="422.2,164.6 440.4,163.5 439.9,169.3 422.4,167.9"/><polygon points="439.0,174.3 438.2,183.6 423.8,182.4 423.2,173.1"/><polygon points="418.6,205.0 411.9,204.3 410.8,187.1 420.0,187.8"/><polygon points="424.6,193.5 425.1,187.5 438.5,188.6 438.0,194.6"/><polygon points="436.7,207.2 423.8,205.9 424.5,198.1 437.4,199.1"/><polygon points="413.3,82.2 409.1,69.7 419.7,67.8 422.0,80.6"/><polygon points="423.9,66.2 427.3,65.6 429.9,80.1 426.5,80.7"/><polygon points="431.3,65.3 437.1,64.2 439.5,78.0 433.7,79.0"/><polygon points="416.4,92.4 414.5,86.9 429.3,84.3 430.3,89.9"/><polygon points="433.3,110.0 422.2,107.3 418.7,97.2 430.6,95.1"/><polygon points="443.8,106.4 439.2,109.7 434.6,84.1 439.7,83.2"/><polygon points="458.0,61.2 454.8,75.3 443.8,72.7 442.3,64.1"/><polygon points="454.6,80.2 453.0,87.1 445.1,85.2 443.7,77.7"/><polygon points="452.3,90.8 449.2,104.0 448.4,104.5 445.7,89.3"/><polygon points="384.2,257.3 380.9,247.1 387.7,245.6 392.0,250.8"/><polygon points="402.7,263.7 395.2,266.1 391.9,255.9 394.5,253.8"/><polygon points="391.9,267.5 387.4,268.9 385.0,261.3 388.9,258.0"/><polygon points="383.9,269.6 373.7,272.9 371.7,266.8 382.0,263.6"/><polygon points="370.2,263.8 369.4,261.4 380.7,257.8 381.5,260.2"/><polygon points="369.0,257.9 366.6,250.4 376.9,248.1 379.0,254.7"/><polygon points="354.0,262.0 356.9,252.4 362.6,251.2 364.9,258.5"/><polygon points="370.2,274.3 358.9,277.9 357.6,274.0 369.0,270.3"/><polygon points="356.7,270.5 355.1,265.7 366.2,262.2 367.8,267.0"/><polygon points="355.7,279.0 350.5,280.6 349.2,276.6 352.0,267.4"/><polygon points="268.4,232.5 263.4,237.0 258.4,238.1 251.0,230.4 259.0,222.7"/><polygon points="279.4,222.8 272.6,228.9 262.9,218.8 269.5,212.4"/><polygon points="280.3,201.7 284.6,206.1 283.2,219.2 273.0,208.7"/><polygon points="257.8,178.9 269.0,190.4 263.9,195.4 252.6,183.9"/><polygon points="260.4,199.1 256.1,203.3 244.6,191.4 248.8,187.3"/><polygon points="272.7,194.0 276.7,198.1 263.6,210.8 259.6,206.8"/><polygon points="252.1,173.3 253.9,175.1 241.3,187.4 234.7,180.6 237.8,176.2"/><polygon points="225.4,203.8 221.3,199.6 231.5,185.2 237.8,191.8"/><polygon points="235.1,213.8 229.3,207.8 241.7,195.9 247.4,201.9"/><polygon points="261.0,214.4 258.3,217.0 248.7,207.1 251.4,204.5"/><polygon points="254.5,219.5 247.1,226.6 238.7,217.9 246.1,210.8"/><polygon points="235.0,271.4 236.6,268.7 238.7,268.0 258.6,292.8 254.7,296.0"/><polygon points="234.6,311.1 225.4,289.3 231.4,279.1 248.3,300.1"/><polygon points="268.9,305.2 243.6,313.2 262.9,297.7"/><polygon points="168.4,202.1 163.5,208.7 148.2,197.4 153.0,190.8"/><polygon points="147.6,218.2 137.8,211.0 144.5,201.9 154.3,209.1"/><polygon points="161.7,213.4 153.8,224.0 150.7,221.7 158.5,211.1"/><polygon points="161.1,179.0 172.8,197.1 172.1,197.9 156.0,186.0"/><polygon points="136.2,172.3 153.6,168.4 157.5,174.4 151.0,183.2"/><polygon points="122.2,175.2 128.2,173.9 147.5,188.2 144.8,191.9"/><polygon points="121.7,198.7 114.1,193.1 117.1,179.0 129.5,188.1"/><polygon points="141.7,196.6 133.4,207.8 126.1,202.4 134.4,191.2"/><polygon points="110.1,222.3 108.0,220.8 112.6,199.5 121.9,206.3"/><polygon points="118.1,228.7 114.3,225.9 126.5,209.3 130.3,212.1"/><polygon points="139.4,236.4 128.9,236.9 121.9,231.7 125.8,226.4"/><polygon points="149.9,227.2 145.0,233.9 129.6,222.5 134.5,215.8"/><polygon points="425.3,114.2 435.3,116.7 437.8,132.6 428.4,134.1"/><polygon points="406.4,136.9 405.5,123.4 407.1,119.7 418.3,114.6 421.4,134.5"/><polygon points="425.8,158.3 407.9,159.4 406.9,144.5 423.2,142.0"/><polygon points="441.5,158.0 432.9,158.5 430.0,140.2 438.8,138.8 441.8,157.7"/><polygon points="400.8,160.5 389.1,161.2 399.3,136.8"/><polygon points="318.7,280.8 313.9,265.6 314.8,264.8 323.9,268.8"/><polygon points="347.4,281.7 341.1,283.6 338.2,274.4 346.2,277.8"/><polygon points="336.5,283.9 321.9,288.5 321.5,287.2 328.3,271.4 333.2,273.5"/><polygon points="316.3,290.2 308.9,292.5 303.6,275.8 309.9,270.2"/><polygon points="304.0,294.7 294.7,297.7 297.6,280.4 299.0,279.1"/><polygon points="131.6,123.0 136.2,129.2 127.1,136.1 122.4,129.9"/><polygon points="122.9,138.7 109.4,148.9 105.2,143.3 118.7,133.1"/><polygon points="88.9,121.0 93.8,117.3 107.1,134.9 102.1,138.7"/><polygon points="119.5,108.3 127.8,119.2 118.3,126.4 110.0,115.4"/><polygon points="114.9,130.2 111.6,132.7 102.2,120.1 105.4,117.7"/><polygon points="97.7,113.6 114.7,100.8 116.9,103.6 99.8,116.4"/><polygon points="73.7,138.9 80.1,127.8 84.1,124.8 91.7,134.9 80.1,143.7"/><polygon points="95.7,138.5 98.7,142.5 87.8,150.7 83.6,147.5"/><polygon points="101.2,145.9 105.8,152.1 97.9,158.1 91.4,153.3"/><polygon points="109.1,165.6 102.7,160.8 118.3,149.1 122.9,155.1"/><polygon points="132.5,167.3 115.7,171.0 113.3,169.2 126.5,159.3"/><polygon points="138.8,133.6 149.5,147.7 143.3,152.4 132.6,138.3"/><polygon points="138.9,155.9 133.5,159.9 122.7,145.6 128.1,141.5"/><polygon points="152.9,152.0 156.0,156.1 153.2,162.6 138.0,166.0 136.7,164.2"/><polygon points="164.0,121.1 168.6,126.5 164.5,136.1 151.5,130.5"/><polygon points="162.6,141.0 158.4,150.7 146.1,134.3 146.4,134.0"/><polygon points="127.5,92.0 134.8,86.6 146.1,100.1 139.1,105.9"/><polygon points="118.8,98.0 122.7,95.1 135.1,109.9 130.6,113.6"/><polygon points="150.1,103.8 161.1,116.9 156.6,120.3 146.5,106.8"/><polygon points="151.9,122.9 143.1,129.6 134.3,117.8 142.8,110.8"/><polygon points="206.2,206.8 216.9,203.0 224.2,210.6 216.8,217.8"/><polygon points="203.8,230.8 204.8,212.7 213.4,221.6"/><polygon points="215.7,226.9 228.0,215.1 235.0,222.3 222.7,234.1"/><polygon points="207.9,248.8 203.4,246.5 203.9,238.0 211.2,230.9 218.5,238.5"/><polygon points="234.5,262.7 224.5,257.4 230.6,245.7 241.6,257.1 238.1,261.5"/><polygon points="219.6,255.5 212.4,251.7 225.2,239.3 227.0,241.2"/><polygon points="251.6,238.3 254.6,241.3 245.2,253.5 240.7,248.8"/><polygon points="229.5,236.1 239.3,226.6 247.5,235.1 237.7,244.5"/><polygon points="303.1,96.7 308.2,105.7 297.5,111.7 292.4,102.7"/><polygon points="283.1,86.0 285.5,83.1 297.8,87.4 300.3,92.0 289.8,97.9"/><polygon points="269.2,101.7 279.5,89.1 282.4,94.3"/><polygon points="275.5,103.8 283.8,99.2 292.3,114.2 284.0,118.9"/><polygon points="268.8,127.4 263.4,110.7 270.2,106.9 278.7,121.9"/><polygon points="289.9,136.1 290.3,121.5 292.8,120.0 299.0,131.0"/><polygon points="306.4,144.2 289.9,143.9 289.9,141.4 301.2,135.0"/><polygon points="284.4,143.0 273.7,142.7 270.8,133.4 284.8,125.5"/><polygon points="315.8,144.0 312.0,143.9 307.4,135.6 320.7,128.2 323.9,133.8"/><polygon points="304.4,131.7 302.4,128.2 316.9,120.0 318.9,123.6"/><polygon points="300.5,124.0 297.1,117.9 310.9,110.2 314.3,116.2"/><polygon points="499.9,86.4 517.4,105.5 504.5,116.6 492.0,112.9"/><polygon points="489.8,90.8 484.0,110.5 455.9,102.2 460.1,83.9"/><polygon points="465.3,61.3 492.8,80.8 492.2,82.8 461.9,75.8"/><polygon points="89.8,295.3 93.1,299.3 90.8,306.0 78.2,310.5 74.7,300.7"/><polygon points="81.6,284.4 86.6,290.5 72.2,295.8 69.7,288.7"/><polygon points="55.3,298.4 53.6,293.9 65.4,289.7 67.0,294.1"/><polygon points="72.7,312.7 62.8,316.3 57.9,302.6 67.7,299.0"/><polygon points="72.5,272.3 79.4,280.7 72.9,283.0 69.1,272.6"/><polygon points="55.8,288.7 52.6,289.9 47.1,274.8 54.6,274.2"/><polygon points="68.9,284.0 60.2,287.1 59.2,273.9 65.0,273.4"/><polygon points="57.9,318.5 38.8,325.4 38.1,318.0 57.1,316.2"/><polygon points="47.4,296.2 50.0,296.0 55.7,311.6 48.9,312.3"/><polygon points="37.6,313.0 36.2,297.5 42.8,296.9 44.2,312.4"/><polygon points="36.2,292.1 34.7,276.4 42.0,275.8 47.5,291.1"/><polygon points="193.3,328.4 183.4,331.6 175.3,306.1 185.9,305.8"/><polygon points="175.6,333.8 156.6,339.9 156.9,306.9 166.9,306.6"/><polygon points="71.0,209.1 66.7,202.9 78.5,194.5 82.9,200.8"/><polygon points="77.4,218.4 73.7,213.2 85.8,204.7 89.5,209.9"/><polygon points="97.6,221.6 82.9,225.7 82.4,225.5 80.2,222.3 92.2,213.9"/><polygon points="95.0,189.6 86.0,187.7 91.1,184.1"/><polygon points="109.6,173.3 111.8,175.0 108.5,190.7 99.6,188.8 95.6,183.1"/><polygon points="107.2,196.5 102.4,219.0 93.1,205.8 106.6,196.4"/><polygon points="89.6,201.8 82.4,191.6 83.6,190.8 100.2,194.4"/><polygon points="65.6,152.2 70.5,143.8 80.1,151.0 72.2,161.5"/><polygon points="84.3,153.5 97.3,163.1 94.3,167.0 81.4,157.4"/><polygon points="91.0,170.7 84.6,179.3 75.5,166.2 78.9,161.6"/><polygon points="100.8,165.8 105.9,169.6 89.4,181.1"/><polygon points="49.4,179.1 54.1,170.9 62.1,175.4 51.8,182.6"/><polygon points="56.7,167.2 62.6,156.9 70.9,168.7 65.7,172.3"/><polygon points="73.7,172.9 82.5,185.5 76.4,189.8 67.5,177.2"/><polygon points="71.8,192.7 63.8,198.3 55.3,186.1 63.2,180.5"/><polygon points="254.3,161.6 250.6,166.5 238.0,169.1 218.5,143.1 232.5,132.6"/><polygon points="256.9,114.2 266.8,145.0 259.6,154.6 239.2,127.5"/><polygon points="217.9,110.8 244.7,112.9 213.4,136.4 203.8,123.7"/><polygon points="367.9,81.7 372.7,79.0 379.2,90.9 374.4,93.5"/><polygon points="376.1,76.9 380.1,74.8 386.8,86.8 382.8,89.0"/><polygon points="365.8,98.7 365.3,98.5 364.5,83.7 371.2,95.7"/><polygon points="382.6,103.2 379.3,104.4 370.0,100.4 378.5,95.7"/><polygon points="393.6,99.2 386.2,101.8 381.9,94.1 388.7,90.3"/><polygon points="401.8,96.9 397.2,98.5 393.6,92.0 397.8,89.6"/><polygon points="409.0,84.0 412.1,92.9 404.9,95.3 401.1,88.4"/><polygon points="398.8,85.5 392.2,89.2 389.1,83.6 395.7,80.0"/><polygon points="406.0,74.3 408.1,80.3 401.7,83.9 398.6,78.4"/><polygon points="403.7,69.0 404.3,70.8 394.1,76.5 390.2,69.4 398.1,65.1"/><polygon points="391.2,78.8 387.5,80.9 382.9,72.7 386.7,70.6"/><polygon points="404.3,115.0 404.1,115.1 396.6,111.9 400.2,103.4"/><polygon points="393.6,110.4 384.2,106.5 397.2,102.0"/><polygon points="415.7,103.3 417.5,108.6 407.4,113.2 405.2,106.9"/><polygon points="413.6,96.2 414.8,99.8 403.7,103.6 402.5,100.0"/><polygon points="190.5,46.2 203.4,42.8 206.0,52.8 190.4,52.5"/><polygon points="207.8,41.2 215.5,39.2 215.2,53.4 211.0,53.3"/><polygon points="214.5,58.3 214.3,69.4 202.0,69.2 202.2,58.0"/><polygon points="197.0,69.6 189.7,69.4 189.9,57.3 197.2,57.4"/><polygon points="156.4,69.0 166.2,61.7 171.9,69.3"/><polygon points="170.9,59.5 184.8,49.0 184.4,68.5 177.6,68.4"/><polygon points="178.5,108.1 159.8,107.7 158.9,106.6 169.7,97.6"/><polygon points="190.0,79.0 189.8,85.3 182.5,85.2"/><polygon points="188.0,89.6 187.7,107.9 185.5,107.8 174.3,94.3 180.1,89.4"/><polygon points="187.5,113.9 187.3,121.3 173.0,122.8 165.3,113.5"/><polygon points="167.7,74.0 188.6,74.4 188.6,74.9 176.8,84.8"/><polygon points="161.9,97.6 155.5,103.0 148.0,93.9 154.4,88.6"/><polygon points="165.6,79.4 172.9,88.3 165.6,94.4 158.2,85.6"/><polygon points="139.7,82.9 151.5,74.0 160.4,74.1 161.6,75.6 145.1,89.4"/><polygon points="207.9,110.9 197.1,120.8 192.9,121.3 193.1,110.6"/><polygon points="213.8,99.8 213.7,105.2 213.1,105.8 193.4,105.4 193.6,99.4"/><polygon points="194.4,74.9 203.4,75.1 203.1,93.7 194.1,93.6"/><polygon points="209.1,74.6 214.4,74.7 214.0,94.5 208.8,94.4"/><polygon points="100.1,258.9 94.3,257.2 97.7,245.6 103.5,247.2"/><polygon points="121.2,253.2 118.3,263.3 105.0,259.5 108.0,249.4"/><polygon points="117.7,268.2 114.8,278.4 108.1,276.5 111.1,266.3"/><polygon points="103.8,274.6 91.0,270.9 93.6,261.9 106.4,265.6"/><polygon points="115.8,233.3 125.3,240.2 123.0,248.1 112.4,245.1"/><polygon points="104.2,225.0 111.3,230.2 107.5,243.5 99.6,241.2 104.2,225.0"/><polygon points="84.0,232.9 84.6,230.1 98.8,226.1 95.9,236.3"/><polygon points="86.2,270.0 76.3,267.2 78.0,259.3 88.6,261.7"/><polygon points="80.0,254.4 83.6,238.3 93.7,241.2 89.2,256.5"/><polygon points="89.3,286.3 77.8,272.3 92.1,276.4"/><polygon points="112.3,283.1 110.9,288.0 97.4,294.8 93.8,290.4 97.1,278.7"/><polygon points="391.5,227.6 391.8,208.0 399.5,208.8 397.6,228.2"/><polygon points="405.2,209.4 412.5,210.1 410.6,229.5 403.3,228.8"/><polygon points="393.2,245.2 391.0,242.5 391.1,233.0 401.5,234.0 400.3,245.9"/><polygon points="406.0,233.9 411.0,234.4 409.7,247.4 404.7,246.9"/><polygon points="408.2,261.7 406.8,262.2 397.0,250.3 409.2,251.5"/><polygon points="449.8,242.2 450.3,248.1 436.3,252.6 434.6,247.0"/><polygon points="448.5,232.7 448.9,237.1 433.5,242.0 429.9,230.8"/><polygon points="430.2,254.7 412.6,260.3 413.3,253.0"/><polygon points="414.7,243.1 416.1,229.2 424.0,230.0 426.9,239.2"/><polygon points="413.7,248.8 413.7,248.2 428.8,243.4 431.1,250.5"/><polygon points="448.8,224.0 449.2,228.1 441.7,227.4 442.7,216.9"/><polygon points="438.0,226.8 433.6,226.3 435.0,211.5 438.0,211.7 439.3,213.3"/><polygon points="428.7,224.9 417.0,223.8 418.3,210.7 430.0,211.9"/><polygon points="386.8,213.6 386.7,218.8 372.6,218.6 372.7,213.4"/><polygon points="373.4,197.2 378.1,196.1 386.4,205.8 386.3,208.8 373.2,208.7"/><polygon points="357.4,201.3 367.6,199.0 367.3,217.5 357.2,217.3"/><polygon points="350.6,201.8 352.0,201.5 351.8,218.3 344.7,218.2"/><polygon points="354.0,244.1 342.0,228.8 343.9,223.4 354.3,223.6"/><polygon points="385.6,224.0 385.4,240.9 378.4,242.5 374.3,223.8"/><polygon points="373.2,244.4 359.4,247.4 359.5,238.6 372.0,238.8"/><polygon points="359.7,233.8 359.9,223.0 368.5,223.1 370.8,234.0"/><polygon points="346.0,138.0 365.3,152.1 351.3,171.4 332.0,157.3"/><polygon points="320.6,150.3 320.3,147.7 328.9,136.8 339.7,134.4 325.4,153.9"/><polygon points="325.0,179.2 322.9,161.1 346.3,178.2 338.9,188.3"/><polygon points="377.1,184.1 375.7,189.7 349.8,195.4 345.9,192.9 361.0,172.3"/><polygon points="371.9,155.9 382.7,163.7 383.1,164.8 379.9,176.8 364.8,165.7"/><polygon points="173.0,299.3 172.4,281.6 178.8,283.9"/><polygon points="190.7,289.0 191.9,292.5 187.3,299.2 177.8,299.5 182.9,286.1"/><polygon points="168.9,300.3 153.7,300.7 152.5,299.1 154.6,293.5 168.9,298.9"/><polygon points="156.7,289.4 161.0,277.9 167.8,280.5 168.2,293.7"/><polygon points="182.4,266.0 188.7,283.0 177.6,278.8"/><polygon points="167.4,261.6 178.2,262.5 172.9,276.6 163.1,272.9"/><polygon points="449.5,217.4 442.1,208.8 443.3,193.8 451.3,194.5"/><polygon points="462.0,212.2 455.5,216.6 457.2,194.6 463.4,195.1"/><polygon points="483.9,197.6 467.8,208.5 468.8,195.4 483.9,196.6"/><polygon points="466.2,163.2 484.1,164.6 484.1,170.8 465.6,170.6"/><polygon points="484.8,175.4 484.7,192.1 481.0,191.8 482.3,175.4"/><polygon points="476.2,190.4 464.4,189.4 465.5,176.3 477.3,176.4"/><polygon points="444.9,171.7 445.7,162.3 446.3,161.7 460.6,162.9 459.8,172.9"/><polygon points="443.7,187.8 444.5,177.5 459.3,178.7 458.5,189.0"/><polygon points="267.7,294.3 258.6,282.9 265.8,277.1 274.9,288.4"/><polygon points="285.4,300.8 275.0,304.1 270.5,298.5 278.4,292.1"/><polygon points="290.1,299.8 289.9,299.9 284.3,292.9 292.4,286.4"/><polygon points="282.2,289.3 277.8,283.9 289.1,274.9 292.8,279.8 292.6,280.9"/><polygon points="274.9,279.9 269.8,273.6 281.0,264.7 285.9,271.1"/><polygon points="252.4,252.3 259.1,243.6 263.6,242.6 269.0,249.6 257.4,258.6"/><polygon points="272.4,253.9 277.7,260.7 266.3,269.8 260.8,262.9"/><polygon points="255.2,278.2 243.8,264.0 248.9,257.3 261.6,273.1"/><polygon points="136.1,348.5 130.2,350.4 125.9,337.2 130.6,335.2"/><polygon points="110.2,345.3 109.4,343.4 122.3,338.1 123.3,341.1"/><polygon points="126.0,351.7 115.0,355.2 112.3,348.6 123.8,344.9"/><polygon points="150.4,344.1 140.2,347.4 137.8,341.7 148.3,337.4 150.4,342.5"/><polygon points="136.2,338.2 134.2,333.4 144.9,329.0 146.9,333.7"/><polygon points="147.6,327.2 151.3,325.6 151.2,336.0"/><polygon points="142.8,325.5 130.7,330.5 128.3,324.8 140.4,319.7"/><polygon points="126.6,320.8 124.3,315.4 136.5,310.4 138.8,315.7"/><polygon points="151.4,303.4 151.3,308.0 140.3,308.0"/><polygon points="150.6,311.5 150.5,322.3 146.7,323.9 141.5,311.4"/><polygon points="126.9,299.3 123.8,311.4 122.5,311.9 118.7,302.7"/><polygon points="114.2,292.0 127.3,295.4 117.3,299.5"/><polygon points="131.3,296.6 136.5,297.9 134.2,307.0 128.1,309.5"/><polygon points="139.9,298.4 149.2,300.8 149.4,301.0 138.1,305.7"/><polygon points="107.6,295.4 110.9,293.8 117.3,309.3 114.0,310.7"/><polygon points="95.9,309.5 95.4,308.3 98.3,300.2 104.0,297.3 107.1,304.8"/><polygon points="98.8,317.2 97.1,313.2 108.8,308.3 110.5,312.3"/><polygon points="114.9,325.8 122.6,322.6 126.6,332.2 118.9,335.4"/><polygon points="108.5,339.8 104.4,330.0 111.0,327.3 115.0,337.1"/><polygon points="111.9,315.6 119.0,312.6 121.6,318.8 114.5,321.8"/><polygon points="102.7,326.5 100.2,320.6 108.7,317.0 111.2,323.0"/><polygon points="53.9,234.4 61.1,233.2 63.3,246.2 56.1,247.4"/><polygon points="40.2,237.0 49.2,235.4 51.3,248.0 42.4,249.5"/><polygon points="31.4,249.9 34.1,237.4 35.7,237.1 38.1,250.9 31.5,252.0"/><polygon points="63.9,251.0 65.4,259.6 52.0,261.9 51.3,253.2"/><polygon points="66.7,264.0 67.5,268.9 52.1,270.1 51.8,266.6"/><polygon points="46.9,269.4 34.4,270.4 33.2,256.9 45.7,254.7"/><polygon points="66.3,232.8 79.3,230.6 75.5,247.2 68.5,245.7"/><polygon points="75.3,252.2 71.6,268.6 71.6,268.6 68.5,250.7"/><polygon points="346.0,244.6 351.4,251.4 345.2,271.8 335.9,267.7"/><polygon points="337.1,234.3 340.2,238.4 329.1,264.1 318.7,259.6 319.3,241.0"/><polygon points="447.1,46.0 460.7,55.6 460.7,55.6 449.2,57.7"/><polygon points="437.9,42.8 442.5,43.9 445.1,58.5 440.9,59.2"/><polygon points="405.6,65.7 399.9,61.6 399.5,55.4 405.1,55.1"/><polygon points="415.0,54.6 412.5,64.6 409.0,65.3 408.4,55.0"/><polygon points="398.8,33.4 405.2,34.9 401.1,51.5 399.8,51.6"/><polygon points="417.1,44.1 415.5,50.7 405.6,51.3 407.9,41.8"/><polygon points="408.8,35.1 419.4,37.7 418.6,40.8 408.1,38.2"/><polygon points="434.3,60.4 416.7,63.5 418.4,56.5"/><polygon points="433.9,41.9 436.6,57.0 430.6,55.5"/><polygon points="422.5,38.9 430.4,40.8 428.5,48.5 420.6,46.6"/><polygon points="428.3,51.8 427.4,55.2 418.6,53.0 419.4,49.6"/><polygon points="291.4,62.4 296.9,52.1 305.5,56.7 300.0,67.1"/><polygon points="293.1,80.3 286.4,77.9 284.9,74.2 289.0,66.7 297.8,71.4"/><polygon points="328.3,69.3 315.3,75.1 309.2,61.3 310.1,59.5"/><polygon points="310.8,77.6 299.6,82.6 297.6,81.9 305.8,66.6"/><polygon points="338.6,27.2 339.2,42.6 329.6,42.9 329.0,27.6"/><polygon points="327.5,15.8 339.2,18.6 339.4,22.4 327.8,22.9"/><polygon points="317.5,14.1 322.9,15.4 323.5,29.1 313.8,29.5 313.5,21.5"/><polygon points="324.0,34.1 324.4,43.7 314.1,44.1 313.7,34.5"/><polygon points="309.5,44.4 300.5,44.8 308.9,29.2"/><polygon points="319.5,58.6 302.3,49.4 319.1,48.7"/><polygon points="330.0,64.5 324.3,61.4 323.8,48.3 329.3,48.1"/><polygon points="339.8,47.9 340.5,64.3 334.8,66.8 334.8,66.8 334.1,48.1"/><polygon points="513.8,193.9 516.6,189.1 526.5,194.9"/><polygon points="520.2,185.9 526.0,175.9 535.9,181.7 535.0,194.0 534.0,193.9"/><polygon points="522.0,209.1 528.0,199.0 535.2,199.5 534.4,210.0"/><polygon points="533.7,221.5 530.8,222.5 518.3,215.1 519.2,213.6 534.2,214.7"/><polygon points="514.3,212.3 506.8,207.9 512.6,198.0 522.3,198.7"/><polygon points="513.4,167.9 521.6,172.7 515.9,182.5 507.6,177.6"/><polygon points="489.8,166.5 489.8,163.6 496.5,158.6 508.4,165.6 503.2,174.4"/><polygon points="488.8,188.9 488.9,171.9 496.2,176.2"/><polygon points="497.4,182.6 499.9,178.5 513.7,186.6 511.3,190.8"/><polygon points="502.1,204.7 489.7,197.4 495.5,187.5 507.9,194.8"/><polygon points="303.0,268.5 295.7,274.9 286.1,262.4 293.7,256.5"/><polygon points="312.0,258.9 311.9,261.1 307.3,265.1 297.8,252.9 303.7,248.3"/><polygon points="313.4,239.8 313.0,253.3 306.6,245.0"/><polygon points="282.1,227.9 285.8,224.6 299.8,232.6 293.8,243.0"/><polygon points="304.5,234.2 310.3,237.5 296.5,248.2 296.5,248.1"/><polygon points="268.4,239.9 277.8,231.4 284.3,239.9 274.3,247.6"/><polygon points="287.6,243.8 292.7,250.5 282.5,258.4 277.3,251.8"/><polygon points="209.9,143.7 214.8,150.3 199.6,161.7 194.7,155.2"/><polygon points="198.6,128.2 206.6,139.0 198.6,145.0 190.5,134.3"/><polygon points="195.0,148.4 190.9,151.6 182.1,139.9 186.3,136.8"/><polygon points="192.8,126.2 179.5,136.1 173.6,128.3"/><polygon points="158.3,166.8 157.0,164.8 160.6,156.5 167.8,159.6"/><polygon points="163.5,152.7 168.8,140.4 179.6,145.0 181.6,147.7 170.8,155.9"/><polygon points="169.0,135.9 171.1,131.0 177.4,139.5"/><polygon points="194.7,165.4 185.9,171.9 176.4,159.2 185.1,152.7"/><polygon points="182.4,175.9 179.5,178.0 168.7,163.8 171.6,161.6"/><polygon points="175.6,180.5 170.5,184.3 161.2,169.9 165.3,166.8"/><polygon points="176.5,193.8 173.1,188.5 185.3,179.3 189.1,184.3"/><polygon points="202.1,202.1 181.8,196.1 191.9,188.5"/><polygon points="194.2,183.4 188.9,176.4 197.0,170.3 202.3,177.3"/><polygon points="216.1,196.9 215.8,197.4 207.8,200.2 197.9,187.1 204.8,181.9"/><polygon points="231.1,171.6 232.7,173.8 219.7,192.0 214.0,184.5"/><polygon points="218.8,173.6 210.6,179.8 201.5,167.7 209.7,161.6"/><polygon points="218.6,154.3 228.2,167.1 223.4,170.8 213.7,158.0"/><polygon points="523.2,110.2 531.9,119.7 522.0,128.7 513.0,118.9"/><polygon points="517.4,132.9 501.7,147.3 508.3,123.0"/><polygon points="527.8,162.0 521.6,167.7 516.8,164.8 522.1,155.9"/><polygon points="513.3,161.8 501.9,155.1 511.9,145.9 518.4,153.0"/><polygon points="519.1,146.7 515.0,142.2 524.4,133.7 528.4,138.1"/><polygon points="539.0,150.6 530.6,158.3 522.8,149.8 531.2,142.1"/><polygon points="544.1,132.2 551.1,139.8 543.0,147.2 536.0,139.6"/><polygon points="536.1,123.0 541.2,128.5 532.6,136.3 527.6,130.8"/><polygon points="544.9,171.5 538.8,176.7 526.5,169.5 535.5,161.3"/><polygon points="554.5,143.6 565.0,155.0 559.1,160.0 549.3,148.3"/><polygon points="555.1,163.2 549.1,168.2 539.3,157.5 545.6,151.8"/><polygon points="229.6,317.9 224.3,319.5 215.8,292.7 218.9,292.3"/><polygon points="205.4,293.6 210.3,292.8 215.3,308.4 210.6,309.9"/><polygon points="195.8,313.9 192.0,302.2 196.5,295.6 200.4,295.0 205.4,310.9"/><polygon points="218.6,321.3 200.2,327.2 197.7,319.6 216.2,313.7"/><polygon points="293.3,204.5 303.0,197.7 310.1,208.0 300.4,214.7"/><polygon points="313.5,211.7 317.1,216.9 306.3,224.4 302.7,219.3"/><polygon points="308.0,194.5 313.4,190.8 326.3,209.4 320.9,213.2"/><polygon points="288.1,219.6 289.4,208.2 302.2,226.8 301.5,227.3"/><polygon points="325.6,231.3 315.5,235.1 306.7,230.1 318.9,221.6"/><polygon points="329.9,213.7 337.5,224.6 336.5,227.4 330.8,229.5 323.1,218.4"/><polygon points="344.7,206.3 339.8,220.1 334.9,213.1"/><polygon points="317.7,187.1 321.1,184.8 333.3,192.7 327.6,201.4"/><polygon points="337.5,195.2 345.6,200.5 332.8,209.3 330.5,205.9"/><polygon points="585.7,204.6 581.1,206.0 574.7,185.9 579.3,184.5"/><polygon points="576.3,207.7 565.2,211.2 562.2,202.0 573.4,198.5"/><polygon points="560.5,197.6 558.4,190.8 570.0,187.0 572.2,193.9"/><polygon points="589.1,181.3 590.2,182.5 594.0,201.9 590.6,203.0 584.2,182.9"/><polygon points="568.5,158.3 573.9,164.2 564.9,172.4 562.1,163.7"/><polygon points="576.8,168.1 585.0,177.1 568.6,182.3 566.9,177.2"/><polygon points="563.6,184.1 557.2,186.1 552.7,172.0 558.2,167.3"/><polygon points="540.6,187.0 541.0,181.1 548.7,174.7 551.5,183.5"/><polygon points="559.7,212.4 539.2,218.9 540.1,206.9 558.4,208.3"/><polygon points="540.5,200.9 541.1,192.1 552.2,188.5 556.6,202.1"/><polygon points="290.9,49.5 291.3,51.0 281.4,69.5 274.8,64.2 288.4,47.5"/><polygon points="270.4,61.4 259.7,52.7 263.9,47.6 274.6,56.2"/><polygon points="267.5,43.9 274.2,35.7 284.1,43.7 277.4,52.0"/><polygon points="284.4,22.7 289.2,41.2 277.3,31.4"/><polygon points="256.2,34.8 259.2,46.3 256.2,50.0 248.8,43.9"/><polygon points="236.7,33.8 254.5,29.1 254.6,29.6 245.4,40.9"/><polygon points="259.6,28.2 276.7,23.7 262.9,40.7"/><polygon points="289.6,20.7 310.3,15.2 301.7,31.1 290.8,25.3"/><polygon points="300.4,36.2 295.1,46.0 291.2,31.3"/><polygon points="344.0,20.7 357.7,24.0 355.1,34.7 344.4,32.1"/><polygon points="353.5,40.3 347.3,65.5 346.0,64.4 344.9,38.2"/><polygon points="354.5,57.0 358.1,42.2 361.9,43.2 358.3,57.9"/><polygon points="366.2,44.9 375.1,47.1 371.8,60.4 362.9,58.3"/><polygon points="367.6,75.9 363.1,78.4 352.6,69.7 354.5,62.1 370.0,65.9"/><polygon points="386.4,66.8 373.3,74.1 375.7,64.1"/><polygon points="394.6,52.3 395.1,60.7 391.4,62.8 377.9,59.5 380.5,48.8"/><polygon points="381.0,30.1 393.5,33.1 394.2,45.8 378.1,41.9"/><polygon points="363.2,25.5 375.1,28.4 372.2,40.6 360.2,37.7"/><polygon points="444.0,113.5 451.4,108.2 466.4,112.7 464.4,119.5"/><polygon points="443.0,126.3 441.8,118.9 462.7,125.1 460.8,131.5"/><polygon points="453.8,157.1 447.1,156.6 445.7,147.4 457.2,145.6"/><polygon points="445.1,142.7 443.5,132.1 459.6,136.8 458.5,140.6"/><polygon points="479.3,158.7 459.1,157.1 461.4,149.3 480.4,155.0"/><polygon points="462.9,144.1 466.8,130.9 475.8,133.6 471.8,146.8"/><polygon points="480.6,134.6 486.4,136.3 482.2,150.3 476.5,148.6"/><polygon points="486.0,159.2 484.9,159.1 491.1,138.2 497.5,140.1 493.9,153.4"/><polygon points="496.4,120.9 502.8,122.8 499.3,135.4 492.6,133.4"/><polygon points="485.7,117.7 492.1,119.6 488.3,132.2 482.0,130.3"/><polygon points="468.2,125.8 471.7,113.9 481.0,116.7 477.5,128.6"/><polygon points="43.3,199.0 43.9,196.6 58.3,199.8 60.4,202.8 50.7,209.6"/><polygon points="38.3,219.1 41.5,204.4 47.4,212.7"/><polygon points="44.2,192.1 45.8,185.2 47.1,182.8 55.4,194.6"/><polygon points="55.2,213.2 63.2,207.6 70.4,217.8 57.6,226.9"/><polygon points="74.2,221.1 77.8,226.1 63.4,228.6"/><polygon points="36.2,232.2 37.8,225.3 49.9,216.8 52.0,229.5"/></g><g fill="none" stroke-linecap="round" stroke-linejoin="round"><path d="M243.6,75.7 L256.9,53.4 L276.8,39.0" stroke="#6c604a" stroke-width="3.4"/><path d="M276.8,39.0 L299.2,42.5 L316.9,50.2" stroke="#6c604a" stroke-width="3.4"/><path d="M316.9,50.2 L342.0,41.5 L367.8,48.6" stroke="#6c604a" stroke-width="3.4"/><path d="M367.8,48.6 L380.5,72.3 L391.9,91.1" stroke="#6c604a" stroke-width="3.4"/><path d="M391.9,91.1 L383.9,108.3 L374.6,128.2" stroke="#6c604a" stroke-width="3.4"/><path d="M391.9,91.1 L412.8,88.7 L434.7,84.2" stroke="#6c604a" stroke-width="3.4"/><path d="M434.7,84.2 L433.7,62.6 L423.0,50.5" stroke="#6c604a" stroke-width="3.4"/><path d="M374.6,128.2 L394.8,139.2 L417.9,140.1" stroke="#6c604a" stroke-width="3.4"/><path d="M417.9,140.1 L414.7,162.8 L413.0,184.9" stroke="#6c604a" stroke-width="3.4"/><path d="M374.6,128.2 L364.2,146.1 L349.7,166.5" stroke="#6c604a" stroke-width="3.4"/><path d="M413.0,184.9 L414.0,207.4 L418.5,233.0" stroke="#6c604a" stroke-width="3.4"/><path d="M413.0,184.9 L440.9,185.4 L462.0,187.2" stroke="#6c604a" stroke-width="3.4"/><path d="M462.0,187.2 L468.5,211.2 L483.4,224.4" stroke="#6c604a" stroke-width="3.4"/><path d="M483.4,224.4 L508.5,212.0 L512.5,189.5" stroke="#6c604a" stroke-width="3.4"/><path d="M512.5,189.5 L517.7,167.5 L529.4,145.5" stroke="#6c604a" stroke-width="3.4"/><path d="M434.7,84.2 L456.4,81.3 L483.2,92.9" stroke="#6c604a" stroke-width="3.4"/><path d="M483.2,92.9 L478.2,113.2 L469.7,134.8" stroke="#6c604a" stroke-width="3.4"/><path d="M374.6,128.2 L353.3,115.1 L334.7,98.0" stroke="#6c604a" stroke-width="3.4"/><path d="M334.7,98.0 L313.4,109.6 L291.8,118.4" stroke="#6c604a" stroke-width="3.4"/><path d="M512.5,189.5 L537.4,201.6 L564.2,191.1" stroke="#6c604a" stroke-width="3.4"/><path d="M291.8,118.4 L294.3,146.3 L290.0,170.9" stroke="#6c604a" stroke-width="3.4"/><path d="M290.0,170.9 L304.1,193.4 L317.6,210.9" stroke="#6c604a" stroke-width="3.4"/><path d="M317.6,210.9 L300.3,229.5 L293.1,248.1" stroke="#6c604a" stroke-width="3.4"/><path d="M293.1,248.1 L280.0,259.3 L269.5,273.7" stroke="#6c604a" stroke-width="3.4"/><path d="M269.5,273.7 L257.0,285.4 L243.5,294.3" stroke="#6c604a" stroke-width="3.4"/><path d="M243.5,294.3 L227.2,304.4 L209.8,309.1" stroke="#6c604a" stroke-width="3.4"/><path d="M209.8,309.1 L207.8,290.9 L206.8,271.0" stroke="#6c604a" stroke-width="3.4"/><path d="M206.8,271.0 L188.8,276.5 L173.0,283.7" stroke="#6c604a" stroke-width="3.4"/><path d="M173.0,283.7 L157.8,279.0 L139.5,269.0" stroke="#6c604a" stroke-width="3.4"/><path d="M173.0,283.7 L170.7,302.3 L172.0,321.3" stroke="#6c604a" stroke-width="3.4"/><path d="M206.8,271.0 L217.4,257.0 L224.6,234.6" stroke="#6c604a" stroke-width="3.4"/><path d="M139.5,269.0 L120.8,264.7 L100.0,258.1" stroke="#6c604a" stroke-width="3.4"/><path d="M293.1,248.1 L304.9,270.7 L317.1,281.3" stroke="#6c604a" stroke-width="3.4"/><path d="M317.1,281.3 L330.9,269.4 L334.3,252.4" stroke="#6c604a" stroke-width="3.4"/><path d="M334.3,252.4 L351.4,263.7 L373.6,262.0" stroke="#6c604a" stroke-width="3.4"/><path d="M373.6,262.0 L371.9,247.1 L366.2,222.2" stroke="#6c604a" stroke-width="3.4"/><path d="M224.6,234.6 L237.6,220.5 L254.2,204.8" stroke="#6c604a" stroke-width="3.4"/><path d="M100.0,258.1 L78.0,249.4 L54.9,251.1" stroke="#6c604a" stroke-width="3.4"/><path d="M54.9,251.1 L56.7,231.6 L53.0,213.6" stroke="#6c604a" stroke-width="3.4"/><path d="M53.0,213.6 L63.9,203.3 L82.7,185.3" stroke="#6c604a" stroke-width="3.4"/><path d="M54.9,251.1 L52.4,272.1 L59.8,296.8" stroke="#6c604a" stroke-width="3.4"/><path d="M224.6,234.6 L201.7,226.6 L178.3,230.4" stroke="#6c604a" stroke-width="3.4"/><path d="M172.0,321.3 L152.6,324.2 L125.3,321.8" stroke="#6c604a" stroke-width="3.4"/><path d="M178.3,230.4 L160.6,217.9 L138.2,201.9" stroke="#6c604a" stroke-width="3.4"/><path d="M59.8,296.8 L64.9,318.6 L71.8,345.0" stroke="#6c604a" stroke-width="3.4"/><path d="M291.8,118.4 L265.7,127.9 L237.9,136.2" stroke="#6c604a" stroke-width="3.4"/><path d="M237.9,136.2 L217.2,148.5 L193.8,165.4" stroke="#6c604a" stroke-width="3.4"/><path d="M243.6,75.7 L217.0,71.4 L184.9,83.5" stroke="#6c604a" stroke-width="3.4"/><path d="M82.7,185.3 L92.4,156.7 L124.5,132.5" stroke="#6c604a" stroke-width="3.4"/><path d="M243.6,75.7 L283.5,76.9 L316.9,50.2" stroke="#6c604a" stroke-width="3.4"/><path d="M178.3,230.4 L191.6,254.1 L206.8,271.0" stroke="#6c604a" stroke-width="3.4"/><path d="M413.0,184.9 L384.0,199.1 L366.2,222.2" stroke="#6c604a" stroke-width="3.4"/><path d="M254.2,204.8 L244.6,172.0 L237.9,136.2" stroke="#6c604a" stroke-width="3.4"/><path d="M138.2,201.9 L116.5,230.7 L100.0,258.1" stroke="#6c604a" stroke-width="3.4"/><path d="M417.9,140.1 L444.0,159.9 L462.0,187.2" stroke="#6c604a" stroke-width="3.4"/><path d="M224.6,234.6 L210.3,202.5 L193.8,165.4" stroke="#6c604a" stroke-width="3.4"/><path d="M483.2,92.9 L462.8,56.4 L423.0,50.5" stroke="#6c604a" stroke-width="3.4"/><path d="M349.7,166.5 L335.0,190.8 L317.6,210.9" stroke="#6c604a" stroke-width="3.4"/><path d="M290.0,170.9 L77.7,125.8" stroke="#6c604a" stroke-width="4.8"/><path d="M290.0,170.9 L446.1,42.7" stroke="#6c604a" stroke-width="4.8"/><path d="M290.0,170.9 L597.0,203.7" stroke="#6c604a" stroke-width="4.8"/><path d="M290.0,170.9 L319.2,292.4" stroke="#6c604a" stroke-width="4.8"/><path d="M243.6,75.7 L256.9,53.4 L276.8,39.0" stroke="#e4d9bc" stroke-width="1.8"/><path d="M276.8,39.0 L299.2,42.5 L316.9,50.2" stroke="#e4d9bc" stroke-width="1.8"/><path d="M316.9,50.2 L342.0,41.5 L367.8,48.6" stroke="#e4d9bc" stroke-width="1.8"/><path d="M367.8,48.6 L380.5,72.3 L391.9,91.1" stroke="#e4d9bc" stroke-width="1.8"/><path d="M391.9,91.1 L383.9,108.3 L374.6,128.2" stroke="#e4d9bc" stroke-width="1.8"/><path d="M391.9,91.1 L412.8,88.7 L434.7,84.2" stroke="#e4d9bc" stroke-width="1.8"/><path d="M434.7,84.2 L433.7,62.6 L423.0,50.5" stroke="#e4d9bc" stroke-width="1.8"/><path d="M374.6,128.2 L394.8,139.2 L417.9,140.1" stroke="#e4d9bc" stroke-width="1.8"/><path d="M417.9,140.1 L414.7,162.8 L413.0,184.9" stroke="#e4d9bc" stroke-width="1.8"/><path d="M374.6,128.2 L364.2,146.1 L349.7,166.5" stroke="#e4d9bc" stroke-width="1.8"/><path d="M413.0,184.9 L414.0,207.4 L418.5,233.0" stroke="#e4d9bc" stroke-width="1.8"/><path d="M413.0,184.9 L440.9,185.4 L462.0,187.2" stroke="#e4d9bc" stroke-width="1.8"/><path d="M462.0,187.2 L468.5,211.2 L483.4,224.4" stroke="#e4d9bc" stroke-width="1.8"/><path d="M483.4,224.4 L508.5,212.0 L512.5,189.5" stroke="#e4d9bc" stroke-width="1.8"/><path d="M512.5,189.5 L517.7,167.5 L529.4,145.5" stroke="#e4d9bc" stroke-width="1.8"/><path d="M434.7,84.2 L456.4,81.3 L483.2,92.9" stroke="#e4d9bc" stroke-width="1.8"/><path d="M483.2,92.9 L478.2,113.2 L469.7,134.8" stroke="#e4d9bc" stroke-width="1.8"/><path d="M374.6,128.2 L353.3,115.1 L334.7,98.0" stroke="#e4d9bc" stroke-width="1.8"/><path d="M334.7,98.0 L313.4,109.6 L291.8,118.4" stroke="#e4d9bc" stroke-width="1.8"/><path d="M512.5,189.5 L537.4,201.6 L564.2,191.1" stroke="#e4d9bc" stroke-width="1.8"/><path d="M291.8,118.4 L294.3,146.3 L290.0,170.9" stroke="#e4d9bc" stroke-width="1.8"/><path d="M290.0,170.9 L304.1,193.4 L317.6,210.9" stroke="#e4d9bc" stroke-width="1.8"/><path d="M317.6,210.9 L300.3,229.5 L293.1,248.1" stroke="#e4d9bc" stroke-width="1.8"/><path d="M293.1,248.1 L280.0,259.3 L269.5,273.7" stroke="#e4d9bc" stroke-width="1.8"/><path d="M269.5,273.7 L257.0,285.4 L243.5,294.3" stroke="#e4d9bc" stroke-width="1.8"/><path d="M243.5,294.3 L227.2,304.4 L209.8,309.1" stroke="#e4d9bc" stroke-width="1.8"/><path d="M209.8,309.1 L207.8,290.9 L206.8,271.0" stroke="#e4d9bc" stroke-width="1.8"/><path d="M206.8,271.0 L188.8,276.5 L173.0,283.7" stroke="#e4d9bc" stroke-width="1.8"/><path d="M173.0,283.7 L157.8,279.0 L139.5,269.0" stroke="#e4d9bc" stroke-width="1.8"/><path d="M173.0,283.7 L170.7,302.3 L172.0,321.3" stroke="#e4d9bc" stroke-width="1.8"/><path d="M206.8,271.0 L217.4,257.0 L224.6,234.6" stroke="#e4d9bc" stroke-width="1.8"/><path d="M139.5,269.0 L120.8,264.7 L100.0,258.1" stroke="#e4d9bc" stroke-width="1.8"/><path d="M293.1,248.1 L304.9,270.7 L317.1,281.3" stroke="#e4d9bc" stroke-width="1.8"/><path d="M317.1,281.3 L330.9,269.4 L334.3,252.4" stroke="#e4d9bc" stroke-width="1.8"/><path d="M334.3,252.4 L351.4,263.7 L373.6,262.0" stroke="#e4d9bc" stroke-width="1.8"/><path d="M373.6,262.0 L371.9,247.1 L366.2,222.2" stroke="#e4d9bc" stroke-width="1.8"/><path d="M224.6,234.6 L237.6,220.5 L254.2,204.8" stroke="#e4d9bc" stroke-width="1.8"/><path d="M100.0,258.1 L78.0,249.4 L54.9,251.1" stroke="#e4d9bc" stroke-width="1.8"/><path d="M54.9,251.1 L56.7,231.6 L53.0,213.6" stroke="#e4d9bc" stroke-width="1.8"/><path d="M53.0,213.6 L63.9,203.3 L82.7,185.3" stroke="#e4d9bc" stroke-width="1.8"/><path d="M54.9,251.1 L52.4,272.1 L59.8,296.8" stroke="#e4d9bc" stroke-width="1.8"/><path d="M224.6,234.6 L201.7,226.6 L178.3,230.4" stroke="#e4d9bc" stroke-width="1.8"/><path d="M172.0,321.3 L152.6,324.2 L125.3,321.8" stroke="#e4d9bc" stroke-width="1.8"/><path d="M178.3,230.4 L160.6,217.9 L138.2,201.9" stroke="#e4d9bc" stroke-width="1.8"/><path d="M59.8,296.8 L64.9,318.6 L71.8,345.0" stroke="#e4d9bc" stroke-width="1.8"/><path d="M291.8,118.4 L265.7,127.9 L237.9,136.2" stroke="#e4d9bc" stroke-width="1.8"/><path d="M237.9,136.2 L217.2,148.5 L193.8,165.4" stroke="#e4d9bc" stroke-width="1.8"/><path d="M243.6,75.7 L217.0,71.4 L184.9,83.5" stroke="#e4d9bc" stroke-width="1.8"/><path d="M82.7,185.3 L92.4,156.7 L124.5,132.5" stroke="#e4d9bc" stroke-width="1.8"/><path d="M243.6,75.7 L283.5,76.9 L316.9,50.2" stroke="#e4d9bc" stroke-width="1.8"/><path d="M178.3,230.4 L191.6,254.1 L206.8,271.0" stroke="#e4d9bc" stroke-width="1.8"/><path d="M413.0,184.9 L384.0,199.1 L366.2,222.2" stroke="#e4d9bc" stroke-width="1.8"/><path d="M254.2,204.8 L244.6,172.0 L237.9,136.2" stroke="#e4d9bc" stroke-width="1.8"/><path d="M138.2,201.9 L116.5,230.7 L100.0,258.1" stroke="#e4d9bc" stroke-width="1.8"/><path d="M417.9,140.1 L444.0,159.9 L462.0,187.2" stroke="#e4d9bc" stroke-width="1.8"/><path d="M224.6,234.6 L210.3,202.5 L193.8,165.4" stroke="#e4d9bc" stroke-width="1.8"/><path d="M483.2,92.9 L462.8,56.4 L423.0,50.5" stroke="#e4d9bc" stroke-width="1.8"/><path d="M349.7,166.5 L335.0,190.8 L317.6,210.9" stroke="#e4d9bc" stroke-width="1.8"/><path d="M290.0,170.9 L77.7,125.8" stroke="#e4d9bc" stroke-width="3.2"/><path d="M290.0,170.9 L446.1,42.7" stroke="#e4d9bc" stroke-width="3.2"/><path d="M290.0,170.9 L597.0,203.7" stroke="#e4d9bc" stroke-width="3.2"/><path d="M290.0,170.9 L319.2,292.4" stroke="#e4d9bc" stroke-width="3.2"/></g><polygon points="29.4,249.8 44.0,184.5 77.7,125.8 185.0,45.0 315.0,10.7 446.1,42.7 501.1,81.6 592.6,181.3 597.0,203.7 41.4,381.1" fill="none" stroke="#3c3628" stroke-width="1.5"/><g font-family="Georgia, serif" font-size="8" text-anchor="middle"><text x="243.6" y="78.7" stroke="#f7f3ea" stroke-width="2.5" paint-order="stroke" fill="#23211c">Residential</text><text x="178.3" y="233.4" stroke="#f7f3ea" stroke-width="2.5" paint-order="stroke" fill="#23211c">Slums</text><text x="139.5" y="272.0" stroke="#f7f3ea" stroke-width="2.5" paint-order="stroke" fill="#23211c">Temple</text><text x="71.8" y="348.0" stroke="#f7f3ea" stroke-width="2.5" paint-order="stroke" fill="#23211c">Slums</text><text x="483.4" y="227.4" stroke="#f7f3ea" stroke-width="2.5" paint-order="stroke" fill="#23211c">Residential</text><text x="290.0" y="173.9" stroke="#f7f3ea" stroke-width="2.5" paint-order="stroke" fill="#23211c">Market</text><text x="206.8" y="274.0" stroke="#f7f3ea" stroke-width="2.5" paint-order="stroke" fill="#23211c">Garrison</text><text x="334.7" y="101.0" stroke="#f7f3ea" stroke-width="2.5" paint-order="stroke" fill="#23211c">Craftsmen</text><text x="374.6" y="131.2" stroke="#f7f3ea" stroke-width="2.5" paint-order="stroke" fill="#23211c">Craftsmen</text><text x="413.0" y="187.9" stroke="#f7f3ea" stroke-width="2.5" paint-order="stroke" fill="#23211c">Residential</text><text x="434.7" y="87.2" stroke="#f7f3ea" stroke-width="2.5" paint-order="stroke" fill="#23211c">Craftsmen</text><text x="373.6" y="265.0" stroke="#f7f3ea" stroke-width="2.5" paint-order="stroke" fill="#23211c">Slums</text><text x="254.2" y="207.8" stroke="#f7f3ea" stroke-width="2.5" paint-order="stroke" fill="#23211c">Craftsmen</text><text x="243.5" y="297.3" stroke="#f7f3ea" stroke-width="2.5" paint-order="stroke" fill="#23211c">Garrison</text><text x="138.2" y="204.9" stroke="#f7f3ea" stroke-width="2.5" paint-order="stroke" fill="#23211c">Craftsmen</text><text x="417.9" y="143.1" stroke="#f7f3ea" stroke-width="2.5" paint-order="stroke" fill="#23211c">Garrison</text><text x="317.1" y="284.3" stroke="#f7f3ea" stroke-width="2.5" paint-order="stroke" fill="#23211c">Docks</text><text x="124.5" y="135.5" stroke="#f7f3ea" stroke-width="2.5" paint-order="stroke" fill="#23211c">Residential</text><text x="224.6" y="237.6" stroke="#f7f3ea" stroke-width="2.5" paint-order="stroke" fill="#23211c">Craftsmen</text><text x="291.8" y="121.4" stroke="#f7f3ea" stroke-width="2.5" paint-order="stroke" fill="#23211c">Craftsmen</text><text x="483.2" y="95.9" stroke="#f7f3ea" stroke-width="2.5" paint-order="stroke" fill="#23211c">Noble</text><text x="59.8" y="299.8" stroke="#f7f3ea" stroke-width="2.5" paint-order="stroke" fill="#23211c">Craftsmen</text><text x="172.0" y="324.3" stroke="#f7f3ea" stroke-width="2.5" paint-order="stroke" fill="#23211c">Noble</text><text x="82.7" y="188.3" stroke="#f7f3ea" stroke-width="2.5" paint-order="stroke" fill="#23211c">Residential</text><text x="237.9" y="139.2" stroke="#f7f3ea" stroke-width="2.5" paint-order="stroke" fill="#23211c">Noble</text><text x="391.9" y="94.1" stroke="#f7f3ea" stroke-width="2.5" paint-order="stroke" fill="#23211c">Slums</text><text x="184.9" y="86.5" stroke="#f7f3ea" stroke-width="2.5" paint-order="stroke" fill="#23211c">Craftsmen</text><text x="100.0" y="261.1" stroke="#f7f3ea" stroke-width="2.5" paint-order="stroke" fill="#23211c">Craftsmen</text><text x="418.5" y="236.0" stroke="#f7f3ea" stroke-width="2.5" paint-order="stroke" fill="#23211c">Residential</text><text x="366.2" y="225.2" stroke="#f7f3ea" stroke-width="2.5" paint-order="stroke" fill="#23211c">Residential</text><text x="349.7" y="169.5" stroke="#f7f3ea" stroke-width="2.5" paint-order="stroke" fill="#23211c">Noble</text><text x="173.0" y="286.7" stroke="#f7f3ea" stroke-width="2.5" paint-order="stroke" fill="#23211c">Residential</text><text x="462.0" y="190.2" stroke="#f7f3ea" stroke-width="2.5" paint-order="stroke" fill="#23211c">Residential</text><text x="269.5" y="276.7" stroke="#f7f3ea" stroke-width="2.5" paint-order="stroke" fill="#23211c">Craftsmen</text><text x="125.3" y="324.8" stroke="#f7f3ea" stroke-width="2.5" paint-order="stroke" fill="#23211c">Slums</text><text x="54.9" y="254.1" stroke="#f7f3ea" stroke-width="2.5" paint-order="stroke" fill="#23211c">Residential</text><text x="334.3" y="255.4" stroke="#f7f3ea" stroke-width="2.5" paint-order="stroke" fill="#23211c">Noble</text><text x="423.0" y="53.5" stroke="#f7f3ea" stroke-width="2.5" paint-order="stroke" fill="#23211c">Slums</text><text x="316.9" y="53.2" stroke="#f7f3ea" stroke-width="2.5" paint-order="stroke" fill="#23211c">Residential</text><text x="512.5" y="192.5" stroke="#f7f3ea" stroke-width="2.5" paint-order="stroke" fill="#23211c">Residential</text><text x="293.1" y="251.1" stroke="#f7f3ea" stroke-width="2.5" paint-order="stroke" fill="#23211c">Residential</text><text x="193.8" y="168.4" stroke="#f7f3ea" stroke-width="2.5" paint-order="stroke" fill="#23211c">Craftsmen</text><text x="529.4" y="148.5" stroke="#f7f3ea" stroke-width="2.5" paint-order="stroke" fill="#23211c">Craftsmen</text><text x="209.8" y="312.1" stroke="#f7f3ea" stroke-width="2.5" paint-order="stroke" fill="#23211c">Residential</text><text x="317.6" y="213.9" stroke="#f7f3ea" stroke-width="2.5" paint-order="stroke" fill="#23211c">Residential</text><text x="564.2" y="194.1" stroke="#f7f3ea" stroke-width="2.5" paint-order="stroke" fill="#23211c">Residential</text><text x="276.8" y="42.0" stroke="#f7f3ea" stroke-width="2.5" paint-order="stroke" fill="#23211c">Temple</text><text x="367.8" y="51.6" stroke="#f7f3ea" stroke-width="2.5" paint-order="stroke" fill="#23211c">Residential</text><text x="469.7" y="137.8" stroke="#f7f3ea" stroke-width="2.5" paint-order="stroke" fill="#23211c">Residential</text><text x="53.0" y="216.6" stroke="#f7f3ea" stroke-width="2.5" paint-order="stroke" fill="#23211c">Residential</text></g><text x="315.0" y="20" text-anchor="middle" font-family="Georgia, serif" font-size="16" font-weight="bold" stroke="#f7f3ea" stroke-width="3" paint-order="stroke" fill="#23211c">Faronholt</text></svg>