<svg xmlns="http://www.w3.org/2000/svg" width="630" height="630" viewBox="0 0 630 630"><rect width="630" height="630" fill="#c9d2bb"/><polygon points="0.0,0.0 630.0,0.0 630.0,186.1 0.0,480.2" fill="#2f6d8f"/><polygon points="548.2,224.2 545.5,245.1 539.5,271.4 531.9,296.9 523.5,321.5 514.2,345.4 503.8,368.6 492.0,390.9 478.3,411.8 462.4,430.8 444.7,447.1 425.6,460.1 406.0,470.0 386.8,477.1 368.3,482.6 351.0,487.6 334.4,493.3 318.1,500.4 301.3,509.1 283.4,518.7 264.2,528.2 243.9,535.9 223.1,540.3 202.9,540.4 184.1,535.6 167.7,526.1 154.1,512.5 143.3,496.0 135.0,477.4 128.6,457.8 123.7,437.8 121.0,423.7" fill="#e6dcc0"/><g stroke="#4a4230" stroke-width="1" stroke-linejoin="round"><polygon points="200.1,477.0 195.1,457.7 196.8,453.5 218.2,451.3 226.8,471.1 217.5,485.6" fill="#cdbf9e"/><polygon points="247.5,534.5 243.9,535.9 223.1,540.3 202.9,540.4 188.4,536.7 193.2,519.5 220.7,497.1 236.6,504.7" fill="#cdbf9e"/><polygon points="195.1,457.7 200.1,477.0 180.1,490.8 159.8,482.2 164.4,467.1" fill="#cdbf9e"/><polygon points="419.7,284.2 463.6,263.7 475.6,283.7 475.8,293.8 459.5,316.2 426.8,313.7" fill="#c2b48f"/><polygon points="536.6,281.1 531.9,296.9 523.5,321.5 522.0,325.2 475.8,293.8 475.6,283.7 521.4,271.5" fill="#c2b48f"/><polygon points="410.4,452.3 386.9,452.0 379.6,441.7 390.1,421.2 411.7,429.6" fill="#cdbf9e"/><polygon points="251.6,398.7 251.5,432.4 243.1,438.3 228.8,437.4 215.6,419.8 235.4,389.6" fill="#cdbf9e"/><polygon points="215.6,419.8 228.8,437.4 218.2,451.3 196.8,453.5 189.0,434.1 191.7,420.7 192.1,420.2" fill="#cdbf9e"/><polygon points="188.4,536.7 184.1,535.6 167.7,526.1 154.1,512.5 143.3,496.0 141.6,492.3 159.8,482.2 180.1,490.8 193.2,519.5" fill="#dfd6c0"/><polygon points="491.2,392.2 478.3,411.8 466.6,425.8 446.8,396.1 469.1,381.3" fill="#cdbf9e"/><polygon points="282.1,348.5 330.5,325.9 338.1,370.6 314.8,382.5 287.8,366.4" fill="#cdbf9e"/><polygon points="548.2,224.2 545.5,245.1 539.5,271.4 536.6,281.1 521.4,271.5 512.0,241.1" fill="#cdbf9e"/><polygon points="243.1,438.3 251.5,432.4 279.8,440.2 280.2,467.5 267.6,478.8 264.9,478.8 247.8,467.0" fill="#d8cdb0"/><polygon points="345.6,318.9 381.4,302.1 397.3,321.9 380.9,347.9" fill="#cdbf9e"/><polygon points="439.9,356.3 429.2,394.1 421.6,391.6 403.0,360.0 423.5,346.5" fill="#d8cdb0"/><polygon points="378.7,479.5 368.3,482.6 367.3,482.9 350.8,457.7 364.3,442.1 379.6,441.7 386.9,452.0" fill="#cdbf9e"/><polygon points="287.8,366.4 314.8,382.5 313.1,406.8 294.7,421.4 269.6,395.8" fill="#c2b48f"/><polygon points="321.6,498.9 318.1,500.4 301.3,509.1 284.8,518.0 267.6,478.8 280.2,467.5 315.0,475.1" fill="#cdbf9e"/><polygon points="185.8,393.5 227.4,374.0 235.4,389.6 215.6,419.8 192.1,420.2" fill="#c2b48f"/><polygon points="423.5,346.5 403.0,360.0 383.1,357.5 380.9,347.9 397.3,321.9 421.2,320.4" fill="#c2b48f"/><polygon points="367.3,482.9 351.0,487.6 334.4,493.3 321.6,498.9 315.0,475.1 327.5,454.9 328.9,454.3 350.8,457.7" fill="#b3a684"/><polygon points="419.3,463.3 406.0,470.0 386.8,477.1 378.7,479.5 386.9,452.0 410.4,452.3" fill="#b3a684"/><polygon points="279.8,440.2 251.5,432.4 251.6,398.7 269.6,395.8 294.7,421.4 293.7,426.1" fill="#b9a98c"/><polygon points="141.6,492.3 135.0,477.4 128.6,457.8 126.3,448.2 152.1,441.9 158.4,446.8 164.4,467.1 159.8,482.2" fill="#c2b48f"/><polygon points="236.6,504.7 220.7,497.1 217.5,485.6 226.8,471.1 247.8,467.0 264.9,478.8" fill="#b9a98c"/><polygon points="148.2,411.0 185.8,393.5 192.1,420.2 191.7,420.7 153.3,420.2" fill="#dfd6c0"/><polygon points="381.4,302.1 419.7,284.2 426.8,313.7 421.2,320.4 397.3,321.9" fill="#b3a684"/><polygon points="153.3,420.2 191.7,420.7 189.0,434.1 158.4,446.8 152.1,441.9" fill="#cdbf9e"/><polygon points="411.7,429.6 390.1,421.2 386.4,411.9 391.5,399.3 421.6,391.6 429.2,394.1 429.3,394.2 424.9,421.5" fill="#b3a684"/><polygon points="466.6,425.8 462.4,430.8 450.1,442.1 424.9,421.5 429.3,394.2 446.8,396.1" fill="#cdbf9e"/><polygon points="390.1,421.2 379.6,441.7 364.3,442.1 351.9,413.6 353.1,412.0 386.4,411.9" fill="#c2b48f"/><polygon points="330.5,325.9 345.6,318.9 380.9,347.9 383.1,357.5 374.2,370.4 353.1,377.2 338.1,370.6" fill="#aebbb0"/><polygon points="226.8,471.1 218.2,451.3 228.8,437.4 243.1,438.3 247.8,467.0" fill="#b3a684"/><polygon points="429.2,394.1 439.9,356.3 463.5,351.2 469.1,381.3 446.8,396.1 429.3,394.2" fill="#cdbf9e"/><polygon points="280.2,467.5 279.8,440.2 293.7,426.1 327.5,454.9 315.0,475.1" fill="#b3a684"/><polygon points="450.1,442.1 444.7,447.1 425.6,460.1 419.3,463.3 410.4,452.3 411.7,429.6 424.9,421.5" fill="#cdbf9e"/><polygon points="180.1,490.8 200.1,477.0 217.5,485.6 220.7,497.1 193.2,519.5" fill="#dfd6c0"/><polygon points="126.3,448.2 123.7,437.8 121.0,423.7 148.2,411.0 153.3,420.2 152.1,441.9" fill="#c2b48f"/><polygon points="364.3,442.1 350.8,457.7 328.9,454.3 338.0,418.2 351.9,413.6" fill="#cdbf9e"/><polygon points="513.8,346.1 503.8,368.6 492.0,390.9 491.2,392.2 469.1,381.3 463.5,351.2 467.5,345.5" fill="#c2b48f"/><polygon points="328.9,454.3 327.5,454.9 293.7,426.1 294.7,421.4 313.1,406.8 338.0,418.2" fill="#cdbf9e"/><polygon points="227.4,374.0 282.1,348.5 287.8,366.4 269.6,395.8 251.6,398.7 235.4,389.6" fill="#dfd6c0"/><polygon points="284.8,518.0 283.4,518.7 264.2,528.2 247.5,534.5 236.6,504.7 264.9,478.8 267.6,478.8" fill="#b9a98c"/><polygon points="313.1,406.8 314.8,382.5 338.1,370.6 353.1,377.2 353.1,412.0 351.9,413.6 338.0,418.2" fill="#d9c08a"/><polygon points="426.8,313.7 459.5,316.2 467.5,345.5 463.5,351.2 439.9,356.3 423.5,346.5 421.2,320.4" fill="#d8cdb0"/><polygon points="522.0,325.2 514.2,345.4 513.8,346.1 467.5,345.5 459.5,316.2 475.8,293.8" fill="#dfd6c0"/><polygon points="353.1,377.2 374.2,370.4 391.5,399.3 386.4,411.9 353.1,412.0" fill="#c2b48f"/><polygon points="189.0,434.1 196.8,453.5 195.1,457.7 164.4,467.1 158.4,446.8" fill="#dfd6c0"/><polygon points="463.6,263.7 512.0,241.1 521.4,271.5 475.6,283.7" fill="#d8cdb0"/><polygon points="383.1,357.5 403.0,360.0 421.6,391.6 391.5,399.3 374.2,370.4" fill="#dfd6c0"/></g><g fill="#7d6c52" stroke="#4a3e2e" stroke-width="0.5" stroke-linejoin="round"><polygon points="205.4,455.4 216.4,454.3 221.1,464.9 211.3,469.1"/><polygon points="201.6,474.0 197.4,457.9 198.4,455.6 199.9,455.4 206.9,471.7"/><polygon points="223.5,469.6 224.0,470.9 216.6,482.4 206.0,477.2"/><polygon points="208.0,537.7 203.2,537.7 191.8,534.8 195.3,522.0"/><polygon points="205.7,512.8 212.6,507.2 221.7,518.5 214.8,524.1"/><polygon points="208.1,530.3 198.2,518.1 201.6,515.4 211.5,527.5"/><polygon points="234.3,534.7 222.8,537.2 215.1,537.2 212.2,533.7 225.0,523.3"/><polygon points="245.2,533.4 243.4,534.1 240.7,534.7 235.6,528.4 241.6,523.5"/><polygon points="233.4,524.2 224.2,512.8 232.7,506.0 234.4,506.8 239.1,519.6"/><polygon points="220.6,509.7 215.7,503.7 221.0,499.4 228.7,503.1"/><polygon points="174.0,485.6 162.8,480.8 166.4,469.1 168.7,468.4"/><polygon points="191.8,480.4 179.9,488.7 179.4,488.5 177.7,482.8 191.3,478.7"/><polygon points="177.2,478.1 173.8,467.2 185.7,463.5 189.0,474.4"/><polygon points="193.7,460.2 197.8,476.1 195.1,478.0 190.0,461.4"/><polygon points="437.5,296.1 440.2,301.8 427.8,307.6 425.7,299.0"/><polygon points="422.5,285.6 430.8,281.7 435.5,291.8 424.6,294.4"/><polygon points="442.3,305.6 445.8,313.1 429.0,311.9"/><polygon points="454.2,313.9 450.4,313.6 444.1,300.1 447.1,298.6"/><polygon points="466.5,301.6 458.8,312.2 451.9,297.5 462.3,292.7"/><polygon points="473.8,286.1 474.0,293.2 470.2,298.4 466.1,289.7"/><polygon points="454.8,271.2 462.4,267.6 471.1,282.0 461.8,286.4"/><polygon points="435.5,279.8 449.5,273.3 453.0,280.8 439.0,287.3"/><polygon points="455.5,285.0 457.5,289.3 442.6,296.2 440.6,292.0"/><polygon points="524.9,309.1 521.0,320.6 520.8,321.2 511.0,314.5 517.9,304.4"/><polygon points="506.6,311.3 496.6,304.5 503.3,294.6 513.3,301.4"/><polygon points="533.8,282.2 529.6,296.1 526.8,304.3 521.2,300.5 533.8,282.1"/><polygon points="511.4,282.8 516.1,275.9 521.0,274.6 529.0,279.7 522.0,290.1"/><polygon points="517.4,298.3 505.4,290.2 507.9,286.4 519.9,294.6"/><polygon points="491.9,301.4 478.6,292.3 478.4,285.9 487.5,283.4 492.2,301.0"/><polygon points="492.8,282.0 508.0,277.9 496.3,295.1"/><polygon points="408.1,449.8 403.9,449.7 404.2,429.3 409.2,431.2"/><polygon points="385.8,435.1 391.3,424.3 399.3,427.4 399.2,435.2"/><polygon points="398.8,449.5 388.3,449.3 382.7,441.4 383.4,440.1 398.9,440.3"/><polygon points="243.4,434.5 242.2,435.3 230.3,434.6 219.1,419.7 219.6,418.9"/><polygon points="249.3,414.2 249.2,431.3 248.5,431.8 241.0,426.8"/><polygon points="242.2,415.5 237.0,423.3 222.9,414.1 228.1,406.2"/><polygon points="248.6,400.5 248.6,405.8 245.5,410.5 231.3,401.2 236.4,393.5"/><polygon points="203.8,422.7 212.2,422.6 212.4,438.2 204.1,438.3"/><polygon points="193.5,438.8 191.5,433.8 193.8,422.5 198.7,422.5 198.9,438.7"/><polygon points="212.8,449.3 198.4,450.8 195.6,443.7 212.7,443.4"/><polygon points="217.4,426.4 225.7,437.4 217.8,447.7"/><polygon points="165.2,486.8 178.5,492.5 179.4,494.5 170.5,498.6"/><polygon points="152.9,506.3 145.4,494.8 144.8,493.4 150.8,490.0 158.5,503.7"/><polygon points="154.8,487.5 159.5,484.9 166.5,500.3 162.8,502.0"/><polygon points="166.8,522.4 155.6,511.3 154.9,510.2 160.2,507.8"/><polygon points="168.4,514.1 165.0,506.6 180.8,499.4 184.3,506.9"/><polygon points="182.5,532.1 173.4,526.8 169.9,519.1 175.4,516.6"/><polygon points="187.3,531.2 179.9,514.9 186.8,511.7 190.5,519.8"/><polygon points="478.5,406.2 475.9,410.1 466.8,421.0 460.8,411.9 475.7,402.1"/><polygon points="488.9,392.8 482.0,403.3 478.7,398.4 487.9,392.3"/><polygon points="468.1,384.6 469.2,383.8 483.5,390.8 475.7,396.0"/><polygon points="457.3,408.7 449.3,396.6 452.1,394.8 460.1,406.8"/><polygon points="456.2,393.0 464.3,387.6 471.4,398.3 463.3,403.7"/><polygon points="293.3,346.2 307.0,339.8 310.6,347.5 296.9,353.9"/><polygon points="284.3,349.5 288.8,347.3 293.2,356.6 287.4,359.3"/><polygon points="314.0,354.4 318.9,365.0 303.4,372.2"/><polygon points="321.3,369.2 324.1,375.2 314.9,379.9 307.7,375.6"/><polygon points="307.7,354.7 298.7,369.9 290.0,364.7 289.5,363.2"/><polygon points="311.2,337.3 328.9,329.0 329.9,334.9 311.5,338.0"/><polygon points="330.1,339.8 331.6,349.0 318.4,351.2 314.3,342.5"/><polygon points="332.5,354.6 334.9,369.0 328.4,372.3 321.0,356.5"/><polygon points="523.2,267.7 519.1,254.6 528.4,251.8 533.6,262.9"/><polygon points="517.1,250.1 514.7,242.3 522.8,238.5 526.9,247.1"/><polygon points="537.7,270.0 537.5,270.9 535.4,278.0 525.6,271.8 536.3,266.8"/><polygon points="543.2,241.8 542.9,244.6 539.0,261.7 532.1,247.0"/><polygon points="545.0,228.6 544.1,235.7 529.9,242.3 527.3,236.8"/><polygon points="247.6,440.2 252.3,437.0 265.1,440.5 257.4,468.6 251.7,464.6"/><polygon points="272.9,442.2 276.1,443.1 276.4,465.9 266.2,475.1 266.0,475.1 264.2,473.8"/><polygon points="389.0,330.4 380.3,344.2 374.5,339.4 384.8,326.9"/><polygon points="370.6,335.6 362.9,329.3 372.7,317.5 380.3,323.8"/><polygon points="381.5,306.6 393.9,322.1 391.6,325.7 376.2,313.0"/><polygon points="350.8,319.5 371.6,309.8 358.4,325.8"/><polygon points="435.0,358.3 426.4,388.7 424.4,388.1 408.6,361.3 423.6,351.5"/><polygon points="376.4,477.2 368.5,479.6 364.2,473.0 380.9,462.1"/><polygon points="379.7,446.5 383.9,452.5 383.6,453.6 370.5,462.2 366.0,455.4"/><polygon points="360.8,449.0 365.2,444.0 375.6,443.7 362.8,452.0"/><polygon points="360.9,468.9 353.7,457.9 358.2,452.7 366.4,465.3"/><polygon points="300.4,413.8 294.9,418.2 285.7,408.9 290.7,403.9"/><polygon points="310.7,402.4 310.5,405.4 304.2,410.3 294.7,400.7 302.0,393.5"/><polygon points="311.6,382.8 312.9,383.5 311.9,397.0 304.7,389.6"/><polygon points="288.4,369.1 292.4,371.4 285.3,383.4 281.8,379.8"/><polygon points="296.1,374.7 306.6,381.0 295.2,392.2 289.3,386.1"/><polygon points="290.9,396.2 282.4,404.5 273.4,395.4 279.9,385.0"/><polygon points="294.5,509.5 286.1,514.1 280.0,500.0 288.7,496.2"/><polygon points="307.2,502.9 300.1,506.7 299.4,507.1 293.6,493.8 301.7,490.3"/><polygon points="318.5,497.3 317.0,498.1 311.8,500.4 306.4,488.1 314.9,484.4"/><polygon points="295.3,473.5 312.9,477.3 313.5,479.4 300.4,485.2"/><polygon points="290.4,475.6 295.5,487.2 285.8,491.4 280.7,479.9"/><polygon points="276.5,473.0 280.6,469.3 289.6,471.3 278.0,476.3"/><polygon points="277.4,495.5 270.4,479.4 273.7,476.4 281.4,493.8"/><polygon points="188.2,394.6 196.0,391.0 199.6,398.8 190.2,403.1"/><polygon points="201.0,403.5 207.4,417.1 194.3,417.3 192.0,407.7"/><polygon points="219.6,403.5 221.3,407.1 214.4,417.6 213.2,417.6 208.9,408.5"/><polygon points="200.9,389.7 210.3,385.3 216.8,399.1 207.4,403.5"/><polygon points="232.5,390.7 224.1,403.4 220.7,396.2"/><polygon points="215.2,382.6 226.2,377.5 230.9,386.4 219.5,391.7"/><polygon points="394.4,355.8 385.6,354.7 384.2,348.5 390.4,338.7 400.9,345.4"/><polygon points="412.5,351.4 402.5,358.0 399.2,357.6 405.8,347.1"/><polygon points="421.2,345.4 416.1,348.7 411.6,345.9 420.1,332.5"/><polygon points="398.0,326.2 398.9,324.7 418.7,323.4 418.8,325.1 412.4,335.3"/><polygon points="407.9,343.5 392.5,333.8 394.8,330.2 410.2,339.9"/><polygon points="343.0,458.8 349.5,459.8 356.8,471.0 352.8,473.7"/><polygon points="344.3,480.1 335.5,485.8 333.4,482.7 342.2,476.9"/><polygon points="331.8,479.3 327.1,472.0 334.9,466.8 339.7,474.1"/><polygon points="340.7,462.7 349.5,476.2 346.9,478.0 338.1,464.4"/><polygon points="323.2,466.0 329.0,456.7 329.3,456.6 337.1,457.8 338.2,459.5 324.8,468.3"/><polygon points="318.0,480.0 316.7,475.4 320.7,469.0 324.9,475.5"/><polygon points="321.2,482.2 326.6,478.7 332.3,487.4 327.0,490.9"/><polygon points="321.8,495.2 318.8,484.2 324.7,493.3"/><polygon points="336.3,491.1 334.0,492.1 327.5,494.4 335.1,489.4"/><polygon points="346.8,487.6 338.8,490.3 337.3,488.1 344.1,483.6"/><polygon points="363.4,481.0 350.3,485.5 349.7,485.6 347.6,482.4 359.3,474.8"/><polygon points="391.5,473.8 386.3,475.8 380.9,477.4 382.7,471.2"/><polygon points="385.7,463.5 388.5,454.1 395.9,454.2 395.8,463.7"/><polygon points="396.3,471.9 396.1,472.0 383.7,468.3 384.0,467.2 396.4,467.4"/><polygon points="411.9,465.2 405.4,468.5 399.5,470.6 399.6,465.0"/><polygon points="414.9,461.3 400.2,461.2 400.3,454.3 409.4,454.5"/><polygon points="254.0,413.1 254.0,400.8 268.7,398.5 268.8,398.6"/><polygon points="254.8,428.7 254.9,420.4 272.3,403.3 276.4,407.5"/><polygon points="278.6,435.6 262.9,431.3 281.1,413.4 290.2,422.7 289.9,424.1"/><polygon points="134.9,467.1 131.6,457.0 130.0,450.5 139.6,448.1 143.7,465.0"/><polygon points="142.9,488.5 137.5,476.4 136.3,472.8 145.4,470.6 149.0,485.1"/><polygon points="158.6,458.5 161.1,467.1 157.2,480.1 154.2,481.7 149.1,460.8"/><polygon points="144.7,446.1 151.6,444.4 156.4,448.2 157.8,453.0 147.0,455.6"/><polygon points="228.2,476.7 229.4,474.9 246.9,471.5 258.2,479.3 243.2,493.0"/><polygon points="236.1,501.2 223.2,495.1 220.7,486.1 223.3,481.9 238.7,498.8"/><polygon points="152.3,412.4 166.9,405.6 172.4,417.5 155.0,417.3"/><polygon points="171.8,402.9 184.0,397.2 186.6,408.5 175.6,411.1"/><polygon points="188.4,412.7 189.9,418.8 178.3,418.7 176.8,415.5"/><polygon points="384.4,302.8 394.5,298.1 397.1,303.7 388.4,307.8"/><polygon points="397.1,296.2 400.8,294.5 403.9,301.2 400.2,302.9"/><polygon points="404.8,304.1 406.0,306.7 392.4,313.0 390.6,310.8"/><polygon points="407.2,310.5 411.1,318.8 398.3,319.7 395.4,316.0"/><polygon points="424.5,311.0 425.1,313.3 420.4,318.8 415.6,319.1 414.0,315.8"/><polygon points="420.1,309.0 412.8,312.4 408.9,304.1 416.2,300.7"/><polygon points="421.6,297.3 424.2,307.9 423.4,308.3 418.8,298.6"/><polygon points="403.6,293.6 409.0,291.0 412.5,298.4 407.0,300.9"/><polygon points="412.1,289.7 418.6,286.6 420.5,294.6 415.5,296.9"/><polygon points="155.7,422.9 160.9,422.9 160.7,443.0 158.8,443.8 154.8,440.7"/><polygon points="166.5,423.4 177.1,423.5 176.9,435.9 166.3,440.3"/><polygon points="182.0,422.6 189.3,422.7 187.2,432.6 181.9,434.8"/><polygon points="389.6,408.7 392.8,400.8 398.2,399.5 399.9,406.0"/><polygon points="390.8,417.6 388.8,412.7 400.7,409.7 402.0,414.8"/><polygon points="405.0,425.3 393.2,420.7 403.2,418.1"/><polygon points="407.8,421.1 405.0,410.1 412.1,408.3 414.9,419.3"/><polygon points="411.6,428.1 408.4,426.9 407.8,424.6 416.6,422.4 417.2,424.7"/><polygon points="424.6,414.3 423.6,420.6 419.6,423.1 417.8,416.0"/><polygon points="415.8,407.0 425.9,404.4 424.8,410.9 417.3,412.8"/><polygon points="418.6,394.1 421.6,393.4 427.4,395.3 426.5,400.6 420.7,402.1"/><polygon points="403.7,406.4 401.7,398.6 408.9,396.7 410.9,404.5"/><polygon points="411.9,395.5 415.5,394.6 417.7,403.2 414.1,404.1"/><polygon points="436.6,397.4 445.4,398.4 451.7,407.8 446.0,411.6"/><polygon points="429.8,421.7 428.1,420.3 431.4,399.5 441.2,414.1"/><polygon points="446.5,436.6 432.9,425.5 437.2,422.7"/><polygon points="463.7,425.7 460.8,429.2 452.0,437.3 448.4,431.8 461.9,422.8"/><polygon points="446.0,427.5 441.5,420.7 454.3,412.2 458.8,418.9"/><polygon points="375.5,439.0 366.0,439.3 362.3,430.7 375.5,424.9"/><polygon points="360.2,425.5 355.5,414.9 375.3,414.8 375.3,418.9"/><polygon points="387.5,421.1 380.7,434.3 380.6,414.3 384.8,414.3"/><polygon points="351.7,356.8 341.2,369.6 340.1,369.1 338.4,359.1"/><polygon points="344.8,353.6 337.6,354.8 335.8,344.0 343.0,342.8"/><polygon points="365.3,339.6 355.8,351.1 349.4,352.2 347.8,342.6"/><polygon points="343.1,323.1 345.2,322.2 360.5,334.8 345.5,337.4"/><polygon points="332.9,327.1 338.3,324.6 340.7,338.9 335.1,339.8"/><polygon points="367.1,369.6 353.2,374.1 346.6,371.2 355.6,360.2"/><polygon points="375.6,364.2 373.1,367.8 358.5,355.8 361.3,352.4"/><polygon points="370.0,342.4 378.5,349.4 380.2,356.9 378.2,359.8 364.8,348.7"/><polygon points="243.0,449.4 244.0,455.4 234.4,457.0 233.4,451.0"/><polygon points="231.5,439.5 241.4,440.1 242.3,445.7 232.8,447.2"/><polygon points="220.4,451.1 228.2,440.9 229.6,449.5"/><polygon points="223.3,459.1 221.2,454.2 230.2,452.7 231.0,457.9"/><polygon points="227.8,469.1 224.9,462.2 233.4,460.8 234.5,467.8"/><polygon points="236.8,460.3 244.7,459.0 245.8,465.6 238.0,467.2"/><polygon points="432.7,391.8 436.3,379.2 447.1,382.2 444.0,393.0"/><polygon points="451.7,382.5 460.3,385.0 448.9,392.6"/><polygon points="460.5,355.1 461.0,355.0 465.6,379.9 464.0,380.9 454.0,378.1"/><polygon points="440.5,362.5 441.7,358.3 454.7,355.4 451.9,365.7"/><polygon points="437.2,374.3 439.3,366.8 450.6,370.1 448.6,377.5"/><polygon points="301.2,434.6 304.6,437.5 298.4,444.8 295.0,441.8"/><polygon points="287.4,435.1 293.8,428.6 298.4,432.5 292.5,439.5"/><polygon points="281.4,465.1 281.3,457.6 287.9,457.6"/><polygon points="281.7,450.0 281.6,440.9 284.9,437.6 289.2,441.2"/><polygon points="282.7,454.4 291.8,443.8 295.9,447.2 289.8,454.3"/><polygon points="296.8,469.5 299.6,457.0 304.2,460.9"/><polygon points="315.2,470.9 314.0,472.9 300.9,470.1 306.5,463.5"/><polygon points="293.4,468.3 284.8,466.4 295.3,454.1 296.3,455.0"/><polygon points="318.5,449.1 325.7,455.2 324.4,457.4 315.9,452.1"/><polygon points="322.0,459.9 317.3,467.4 309.5,460.7 314.2,455.1"/><polygon points="307.0,439.7 315.9,447.3 313.1,450.6 304.2,443.0"/><polygon points="310.5,453.2 306.3,458.1 297.9,450.9 302.0,446.0"/><polygon points="413.4,442.3 414.1,431.0 424.7,424.5 426.7,426.0"/><polygon points="429.9,453.9 424.3,457.8 420.0,459.9 413.2,451.4 413.2,450.6 418.3,444.4"/><polygon points="429.8,446.8 421.8,440.3 430.5,429.6 438.5,436.2"/><polygon points="447.1,442.2 443.5,445.5 434.5,451.7 433.0,450.5 442.7,438.6"/><polygon points="214.0,486.9 215.2,487.5 217.6,496.2 208.4,503.7 202.4,496.3"/><polygon points="192.9,484.9 200.3,479.8 209.2,484.2 199.0,492.5"/><polygon points="195.5,496.7 203.9,507.0 194.3,514.9 187.6,500.2"/><polygon points="182.3,491.4 189.0,486.8 193.5,492.4 184.6,496.4"/><polygon points="125.5,433.1 124.0,425.2 136.9,419.2 140.2,426.2"/><polygon points="128.4,444.7 126.9,438.6 142.3,431.3 146.5,440.3"/><polygon points="141.5,416.9 147.1,414.3 150.7,420.8 150.0,435.0"/><polygon points="346.0,454.4 332.1,452.2 334.2,443.7 347.8,447.1"/><polygon points="335.1,439.0 336.5,433.3 350.7,436.9 349.2,442.6"/><polygon points="361.7,441.7 350.8,454.4 355.0,437.9 360.7,439.3"/><polygon points="338.6,428.4 340.6,420.6 350.2,417.4 356.9,433.0"/><polygon points="466.6,350.9 468.8,347.9 491.3,348.2 491.2,351.2"/><polygon points="469.0,370.0 466.2,355.3 471.9,355.3 471.7,370.0"/><polygon points="477.0,356.5 490.5,356.7 490.3,369.2 476.8,369.0"/><polygon points="490.0,388.1 490.0,388.2 471.8,379.2 471.0,375.1 490.2,375.3"/><polygon points="501.2,370.0 494.8,382.0 495.0,369.9"/><polygon points="509.3,349.0 502.0,365.4 496.4,365.3 496.6,348.8"/><polygon points="319.3,424.9 326.9,415.9 335.0,419.6 332.9,428.3"/><polygon points="327.2,451.6 320.2,445.6 331.1,432.8 331.9,433.0"/><polygon points="316.6,442.3 309.5,436.3 315.6,429.1 325.7,431.7"/><polygon points="309.8,411.9 313.4,409.1 323.2,413.5 318.4,419.1"/><polygon points="305.7,432.5 296.9,425.0 297.3,423.0 306.7,415.6 314.5,422.2"/><polygon points="231.4,375.4 251.1,366.2 253.8,372.1 234.4,381.1"/><polygon points="253.6,395.8 252.0,396.1 237.4,387.7 236.6,386.2 246.8,381.4"/><polygon points="256.5,376.8 264.5,394.1 258.8,395.0 251.4,379.2"/><polygon points="281.2,371.5 269.1,391.0 263.8,379.7"/><polygon points="255.9,363.6 264.3,359.6 269.6,370.9 261.1,374.9"/><polygon points="269.3,357.5 280.4,352.3 284.1,363.9 274.4,368.4"/><polygon points="248.5,497.5 265.9,481.6 268.9,488.6"/><polygon points="263.7,523.7 262.5,524.3 250.0,529.1 242.2,507.9 254.4,502.5"/><polygon points="280.0,516.3 271.0,520.7 261.4,498.9 270.6,494.9"/><polygon points="428.7,318.1 441.5,319.0 439.1,350.9 427.5,344.0 425.6,321.8"/><polygon points="449.9,319.7 456.2,320.2 463.0,344.7 461.0,347.4 447.6,350.4"/><polygon points="473.1,301.6 476.4,297.0 490.0,306.3 486.8,311.0"/><polygon points="462.3,317.7 462.0,316.6 470.2,305.4 475.2,308.7 466.9,320.8"/><polygon points="479.0,311.4 484.2,314.9 476.0,327.0 470.8,323.4"/><polygon points="468.0,339.2 463.8,323.9 473.7,330.7"/><polygon points="502.1,344.3 491.0,344.1 491.1,336.8"/><polygon points="486.7,343.0 471.2,342.8 479.8,330.3 486.8,335.0"/><polygon points="487.9,329.2 482.9,325.8 494.0,309.5 499.0,312.9"/><polygon points="499.3,336.7 492.8,332.2 503.6,316.3 510.1,320.8"/><polygon points="518.6,326.3 512.0,343.3 508.6,343.3 503.9,340.1 515.0,323.8"/><polygon points="388.5,399.5 388.5,399.5 384.6,409.2 373.3,409.3 373.2,399.5"/><polygon points="381.4,386.7 386.1,394.6 372.8,394.6 372.8,386.7"/><polygon points="367.8,409.2 355.9,409.2 355.9,397.3 367.8,397.3"/><polygon points="355.2,392.4 355.2,386.6 368.4,386.6 368.4,392.3"/><polygon points="355.8,379.2 373.0,373.6 377.9,381.8 355.8,381.8"/><polygon points="178.3,459.5 166.6,463.2 162.3,448.6 172.1,444.5"/><polygon points="187.3,438.2 193.5,453.5 192.8,455.1 184.4,457.7 177.9,442.1"/><polygon points="469.6,265.6 488.9,256.6 496.9,273.7 477.5,278.9"/><polygon points="496.3,252.9 509.6,246.7 516.4,268.7 505.0,271.7"/><polygon points="392.4,360.4 401.9,361.6 403.8,364.9 397.3,368.7"/><polygon points="384.4,360.4 387.5,360.8 392.9,370.1 381.3,376.9 377.5,370.5"/><polygon points="405.1,369.5 417.1,389.7 408.0,392.0 402.6,371.0"/><polygon points="384.9,384.0 383.4,381.5 397.8,373.0 399.6,380.2"/><polygon points="402.8,393.8 392.7,396.5 387.7,388.2 400.5,384.9"/></g><g fill="none" stroke-linecap="round" stroke-linejoin="round"><path d="M210.9,466.9 L222.5,461.2 L233.7,454.2" stroke="#6c604a" stroke-width="3.4"/><path d="M233.7,454.2 L245.4,452.7 L262.5,454.4" stroke="#6c604a" stroke-width="3.4"/><path d="M233.7,454.2 L237.3,469.1 L238.6,484.3" stroke="#6c604a" stroke-width="3.4"/><path d="M210.9,466.9 L207.5,452.4 L207.3,436.0" stroke="#6c604a" stroke-width="3.4"/><path d="M210.9,466.9 L208.8,481.3 L200.1,496.1" stroke="#6c604a" stroke-width="3.4"/><path d="M200.1,496.1 L190.1,483.9 L180.7,474.5" stroke="#6c604a" stroke-width="3.4"/><path d="M180.7,474.5 L179.8,462.4 L177.8,451.1" stroke="#6c604a" stroke-width="3.4"/><path d="M177.8,451.1 L173.7,440.4 L169.5,431.0" stroke="#6c604a" stroke-width="3.4"/><path d="M169.5,431.0 L172.5,420.5 L172.8,410.5" stroke="#6c604a" stroke-width="3.4"/><path d="M169.5,431.0 L152.7,431.1 L138.2,430.4" stroke="#6c604a" stroke-width="3.4"/><path d="M238.6,484.3 L250.7,491.8 L260.1,508.4" stroke="#6c604a" stroke-width="3.4"/><path d="M200.1,496.1 L206.9,508.3 L218.6,522.7" stroke="#6c604a" stroke-width="3.4"/><path d="M200.1,496.1 L186.6,505.2 L169.8,507.5" stroke="#6c604a" stroke-width="3.4"/><path d="M177.8,451.1 L161.4,457.0 L146.3,464.8" stroke="#6c604a" stroke-width="3.4"/><path d="M207.3,436.0 L222.2,428.6 L236.7,416.2" stroke="#6c604a" stroke-width="3.4"/><path d="M236.7,416.2 L225.5,404.7 L210.2,398.9" stroke="#6c604a" stroke-width="3.4"/><path d="M236.7,416.2 L251.5,415.6 L269.8,418.7" stroke="#6c604a" stroke-width="3.4"/><path d="M269.8,418.7 L282.1,408.6 L294.2,393.8" stroke="#6c604a" stroke-width="3.4"/><path d="M262.5,454.4 L280.0,453.9 L300.3,453.3" stroke="#6c604a" stroke-width="3.4"/><path d="M300.3,453.3 L310.6,440.5 L317.9,428.0" stroke="#6c604a" stroke-width="3.4"/><path d="M317.9,428.0 L333.5,436.2 L346.3,437.7" stroke="#6c604a" stroke-width="3.4"/><path d="M346.3,437.7 L358.1,427.8 L371.7,425.0" stroke="#6c604a" stroke-width="3.4"/><path d="M371.7,425.0 L384.9,431.4 L396.8,438.7" stroke="#6c604a" stroke-width="3.4"/><path d="M396.8,438.7 L398.7,452.1 L397.3,463.5" stroke="#6c604a" stroke-width="3.4"/><path d="M397.3,463.5 L382.8,465.8 L370.2,460.3" stroke="#6c604a" stroke-width="3.4"/><path d="M396.8,438.7 L411.1,440.9 L426.3,442.2" stroke="#6c604a" stroke-width="3.4"/><path d="M426.3,442.2 L437.5,431.8 L444.0,417.2" stroke="#6c604a" stroke-width="3.4"/><path d="M444.0,417.2 L456.7,411.0 L468.7,400.6" stroke="#6c604a" stroke-width="3.4"/><path d="M371.7,425.0 L369.8,411.9 L369.8,394.1" stroke="#6c604a" stroke-width="3.4"/><path d="M369.8,394.1 L382.8,384.8 L396.5,378.2" stroke="#6c604a" stroke-width="3.4"/><path d="M396.5,378.2 L412.3,375.8 L423.0,367.9" stroke="#6c604a" stroke-width="3.4"/><path d="M423.0,367.9 L434.6,375.2 L449.8,374.5" stroke="#6c604a" stroke-width="3.4"/><path d="M396.8,438.7 L400.9,425.4 L409.0,410.0" stroke="#6c604a" stroke-width="3.4"/><path d="M423.0,367.9 L413.2,353.2 L403.6,340.5" stroke="#6c604a" stroke-width="3.4"/><path d="M403.6,340.5 L389.1,334.9 L374.7,323.3" stroke="#6c604a" stroke-width="3.4"/><path d="M374.7,323.3 L363.2,333.4 L354.5,350.0" stroke="#6c604a" stroke-width="3.4"/><path d="M369.8,394.1 L353.1,394.6 L334.8,394.8" stroke="#6c604a" stroke-width="3.4"/><path d="M403.6,340.5 L409.3,321.2 L407.2,305.6" stroke="#6c604a" stroke-width="3.4"/><path d="M370.2,460.3 L359.0,470.3 L337.9,475.5" stroke="#6c604a" stroke-width="3.4"/><path d="M300.3,453.3 L297.6,471.3 L294.1,490.1" stroke="#6c604a" stroke-width="3.4"/><path d="M449.8,374.5 L466.3,366.3 L486.1,364.2" stroke="#6c604a" stroke-width="3.4"/><path d="M294.2,393.8 L278.7,381.1 L259.9,375.7" stroke="#6c604a" stroke-width="3.4"/><path d="M423.0,367.9 L431.7,351.4 L443.4,334.4" stroke="#6c604a" stroke-width="3.4"/><path d="M486.1,364.2 L490.7,345.8 L488.1,325.0" stroke="#6c604a" stroke-width="3.4"/><path d="M488.1,325.0 L498.9,309.5 L509.1,294.3" stroke="#6c604a" stroke-width="3.4"/><path d="M509.1,294.3 L498.5,277.6 L494.3,264.3" stroke="#6c604a" stroke-width="3.4"/><path d="M494.3,264.3 L516.7,256.3 L531.3,251.5" stroke="#6c604a" stroke-width="3.4"/><path d="M354.5,350.0 L334.3,348.3 L313.1,355.8" stroke="#6c604a" stroke-width="3.4"/><path d="M443.4,334.4 L443.2,315.0 L449.0,292.3" stroke="#6c604a" stroke-width="3.4"/><path d="M236.7,416.2 L235.9,437.8 L233.7,454.2" stroke="#6c604a" stroke-width="3.4"/><path d="M313.1,355.8 L301.3,374.5 L294.2,393.8" stroke="#6c604a" stroke-width="3.4"/><path d="M262.5,454.4 L266.3,478.8 L260.1,508.4" stroke="#6c604a" stroke-width="3.4"/><path d="M294.1,490.1 L318.3,487.0 L337.9,475.5" stroke="#6c604a" stroke-width="3.4"/><path d="M210.2,398.9 L231.4,381.8 L259.9,375.7" stroke="#6c604a" stroke-width="3.4"/><path d="M403.6,340.5 L422.4,333.5 L443.4,334.4" stroke="#6c604a" stroke-width="3.4"/><path d="M337.9,475.5 L321.2,465.0 L300.3,453.3" stroke="#6c604a" stroke-width="3.4"/><path d="M371.7,425.0 L352.5,412.8 L334.8,394.8" stroke="#6c604a" stroke-width="3.4"/><path d="M346.3,437.7 L344.9,415.9 L334.8,394.8" stroke="#6c604a" stroke-width="3.4"/><path d="M334.8,394.8 L548.2,224.2" stroke="#6c604a" stroke-width="4.8"/><path d="M334.8,394.8 L444.7,447.1" stroke="#6c604a" stroke-width="4.8"/><path d="M334.8,394.8 L243.9,535.9" stroke="#6c604a" stroke-width="4.8"/><path d="M334.8,394.8 L334.6,324.0" stroke="#6c604a" stroke-width="4.8"/><path d="M210.9,466.9 L222.5,461.2 L233.7,454.2" stroke="#e4d9bc" stroke-width="1.8"/><path d="M233.7,454.2 L245.4,452.7 L262.5,454.4" stroke="#e4d9bc" stroke-width="1.8"/><path d="M233.7,454.2 L237.3,469.1 L238.6,484.3" stroke="#e4d9bc" stroke-width="1.8"/><path d="M210.9,466.9 L207.5,452.4 L207.3,436.0" stroke="#e4d9bc" stroke-width="1.8"/><path d="M210.9,466.9 L208.8,481.3 L200.1,496.1" stroke="#e4d9bc" stroke-width="1.8"/><path d="M200.1,496.1 L190.1,483.9 L180.7,474.5" stroke="#e4d9bc" stroke-width="1.8"/><path d="M180.7,474.5 L179.8,462.4 L177.8,451.1" stroke="#e4d9bc" stroke-width="1.8"/><path d="M177.8,451.1 L173.7,440.4 L169.5,431.0" stroke="#e4d9bc" stroke-width="1.8"/><path d="M169.5,431.0 L172.5,420.5 L172.8,410.5" stroke="#e4d9bc" stroke-width="1.8"/><path d="M169.5,431.0 L152.7,431.1 L138.2,430.4" stroke="#e4d9bc" stroke-width="1.8"/><path d="M238.6,484.3 L250.7,491.8 L260.1,508.4" stroke="#e4d9bc" stroke-width="1.8"/><path d="M200.1,496.1 L206.9,508.3 L218.6,522.7" stroke="#e4d9bc" stroke-width="1.8"/><path d="M200.1,496.1 L186.6,505.2 L169.8,507.5" stroke="#e4d9bc" stroke-width="1.8"/><path d="M177.8,451.1 L161.4,457.0 L146.3,464.8" stroke="#e4d9bc" stroke-width="1.8"/><path d="M207.3,436.0 L222.2,428.6 L236.7,416.2" stroke="#e4d9bc" stroke-width="1.8"/><path d="M236.7,416.2 L225.5,404.7 L210.2,398.9" stroke="#e4d9bc" stroke-width="1.8"/><path d="M236.7,416.2 L251.5,415.6 L269.8,418.7" stroke="#e4d9bc" stroke-width="1.8"/><path d="M269.8,418.7 L282.1,408.6 L294.2,393.8" stroke="#e4d9bc" stroke-width="1.8"/><path d="M262.5,454.4 L280.0,453.9 L300.3,453.3" stroke="#e4d9bc" stroke-width="1.8"/><path d="M300.3,453.3 L310.6,440.5 L317.9,428.0" stroke="#e4d9bc" stroke-width="1.8"/><path d="M317.9,428.0 L333.5,436.2 L346.3,437.7" stroke="#e4d9bc" stroke-width="1.8"/><path d="M346.3,437.7 L358.1,427.8 L371.7,425.0" stroke="#e4d9bc" stroke-width="1.8"/><path d="M371.7,425.0 L384.9,431.4 L396.8,438.7" stroke="#e4d9bc" stroke-width="1.8"/><path d="M396.8,438.7 L398.7,452.1 L397.3,463.5" stroke="#e4d9bc" stroke-width="1.8"/><path d="M397.3,463.5 L382.8,465.8 L370.2,460.3" stroke="#e4d9bc" stroke-width="1.8"/><path d="M396.8,438.7 L411.1,440.9 L426.3,442.2" stroke="#e4d9bc" stroke-width="1.8"/><path d="M426.3,442.2 L437.5,431.8 L444.0,417.2" stroke="#e4d9bc" stroke-width="1.8"/><path d="M444.0,417.2 L456.7,411.0 L468.7,400.6" stroke="#e4d9bc" stroke-width="1.8"/><path d="M371.7,425.0 L369.8,411.9 L369.8,394.1" stroke="#e4d9bc" stroke-width="1.8"/><path d="M369.8,394.1 L382.8,384.8 L396.5,378.2" stroke="#e4d9bc" stroke-width="1.8"/><path d="M396.5,378.2 L412.3,375.8 L423.0,367.9" stroke="#e4d9bc" stroke-width="1.8"/><path d="M423.0,367.9 L434.6,375.2 L449.8,374.5" stroke="#e4d9bc" stroke-width="1.8"/><path d="M396.8,438.7 L400.9,425.4 L409.0,410.0" stroke="#e4d9bc" stroke-width="1.8"/><path d="M423.0,367.9 L413.2,353.2 L403.6,340.5" stroke="#e4d9bc" stroke-width="1.8"/><path d="M403.6,340.5 L389.1,334.9 L374.7,323.3" stroke="#e4d9bc" stroke-width="1.8"/><path d="M374.7,323.3 L363.2,333.4 L354.5,350.0" stroke="#e4d9bc" stroke-width="1.8"/><path d="M369.8,394.1 L353.1,394.6 L334.8,394.8" stroke="#e4d9bc" stroke-width="1.8"/><path d="M403.6,340.5 L409.3,321.2 L407.2,305.6" stroke="#e4d9bc" stroke-width="1.8"/><path d="M370.2,460.3 L359.0,470.3 L337.9,475.5" stroke="#e4d9bc" stroke-width="1.8"/><path d="M300.3,453.3 L297.6,471.3 L294.1,490.1" stroke="#e4d9bc" stroke-width="1.8"/><path d="M449.8,374.5 L466.3,366.3 L486.1,364.2" stroke="#e4d9bc" stroke-width="1.8"/><path d="M294.2,393.8 L278.7,381.1 L259.9,375.7" stroke="#e4d9bc" stroke-width="1.8"/><path d="M423.0,367.9 L431.7,351.4 L443.4,334.4" stroke="#e4d9bc" stroke-width="1.8"/><path d="M486.1,364.2 L490.7,345.8 L488.1,325.0" stroke="#e4d9bc" stroke-width="1.8"/><path d="M488.1,325.0 L498.9,309.5 L509.1,294.3" stroke="#e4d9bc" stroke-width="1.8"/><path d="M509.1,294.3 L498.5,277.6 L494.3,264.3" stroke="#e4d9bc" stroke-width="1.8"/><path d="M494.3,264.3 L516.7,256.3 L531.3,251.5" stroke="#e4d9bc" stroke-width="1.8"/><path d="M354.5,350.0 L334.3,348.3 L313.1,355.8" stroke="#e4d9bc" stroke-width="1.8"/><path d="M443.4,334.4 L443.2,315.0 L449.0,292.3" stroke="#e4d9bc" stroke-width="1.8"/><path d="M236.7,416.2 L235.9,437.8 L233.7,454.2" stroke="#e4d9bc" stroke-width="1.8"/><path d="M313.1,355.8 L301.3,374.5 L294.2,393.8" stroke="#e4d9bc" stroke-width="1.8"/><path d="M262.5,454.4 L266.3,478.8 L260.1,508.4" stroke="#e4d9bc" stroke-width="1.8"/><path d="M294.1,490.1 L318.3,487.0 L337.9,475.5" stroke="#e4d9bc" stroke-width="1.8"/><path d="M210.2,398.9 L231.4,381.8 L259.9,375.7" stroke="#e4d9bc" stroke-width="1.8"/><path d="M403.6,340.5 L422.4,333.5 L443.4,334.4" stroke="#e4d9bc" stroke-width="1.8"/><path d="M337.9,475.5 L321.2,465.0 L300.3,453.3" stroke="#e4d9bc" stroke-width="1.8"/><path d="M371.7,425.0 L352.5,412.8 L334.8,394.8" stroke="#e4d9bc" stroke-width="1.8"/><path d="M346.3,437.7 L344.9,415.9 L334.8,394.8" stroke="#e4d9bc" stroke-width="1.8"/><path d="M334.8,394.8 L548.2,224.2" stroke="#e4d9bc" stroke-width="3.2"/><path d="M334.8,394.8 L444.7,447.1" stroke="#e4d9bc" stroke-width="3.2"/><path d="M334.8,394.8 L243.9,535.9" stroke="#e4d9bc" stroke-width="3.2"/><path d="M334.8,394.8 L334.6,324.0" stroke="#e4d9bc" stroke-width="3.2"/></g><polygon points="548.2,224.2 545.5,245.1 539.5,271.4 531.9,296.9 523.5,321.5 514.2,345.4 503.8,368.6 492.0,390.9 478.3,411.8 462.4,430.8 444.7,447.1 425.6,460.1 406.0,470.0 386.8,477.1 368.3,482.6 351.0,487.6 334.4,493.3 318.1,500.4 301.3,509.1 283.4,518.7 264.2,528.2 243.9,535.9 223.1,540.3 202.9,540.4 184.1,535.6 167.7,526.1 154.1,512.5 143.3,496.0 135.0,477.4 128.6,457.8 123.7,437.8 121.0,423.7" fill="none" stroke="#3c3628" stroke-width="1.5"/><g font-family="Georgia, serif" font-size="8" text-anchor="middle"><text x="210.9" y="469.9" stroke="#f7f3ea" stroke-width="2.5" paint-order="stroke" fill="#23211c">Residential</text><text x="218.6" y="525.7" stroke="#f7f3ea" stroke-width="2.5" paint-order="stroke" fill="#23211c">Residential</text><text x="180.7" y="477.5" stroke="#f7f3ea" stroke-width="2.5" paint-order="stroke" fill="#23211c">Residential</text><text x="449.0" y="295.3" stroke="#f7f3ea" stroke-width="2.5" paint-order="stroke" fill="#23211c">Craftsmen</text><text x="509.1" y="297.3" stroke="#f7f3ea" stroke-width="2.5" paint-order="stroke" fill="#23211c">Craftsmen</text><text x="396.8" y="441.7" stroke="#f7f3ea" stroke-width="2.5" paint-order="stroke" fill="#23211c">Residential</text><text x="236.7" y="419.2" stroke="#f7f3ea" stroke-width="2.5" paint-order="stroke" fill="#23211c">Residential</text><text x="207.3" y="439.0" stroke="#f7f3ea" stroke-width="2.5" paint-order="stroke" fill="#23211c">Residential</text><text x="169.8" y="510.5" stroke="#f7f3ea" stroke-width="2.5" paint-order="stroke" fill="#23211c">Temple</text><text x="468.7" y="403.6" stroke="#f7f3ea" stroke-width="2.5" paint-order="stroke" fill="#23211c">Residential</text><text x="313.1" y="358.8" stroke="#f7f3ea" stroke-width="2.5" paint-order="stroke" fill="#23211c">Residential</text><text x="531.3" y="254.5" stroke="#f7f3ea" stroke-width="2.5" paint-order="stroke" fill="#23211c">Residential</text><text x="262.5" y="457.4" stroke="#f7f3ea" stroke-width="2.5" paint-order="stroke" fill="#23211c">Noble</text><text x="374.7" y="326.3" stroke="#f7f3ea" stroke-width="2.5" paint-order="stroke" fill="#23211c">Residential</text><text x="423.0" y="370.9" stroke="#f7f3ea" stroke-width="2.5" paint-order="stroke" fill="#23211c">Noble</text><text x="370.2" y="463.3" stroke="#f7f3ea" stroke-width="2.5" paint-order="stroke" fill="#23211c">Residential</text><text x="294.2" y="396.8" stroke="#f7f3ea" stroke-width="2.5" paint-order="stroke" fill="#23211c">Craftsmen</text><text x="294.1" y="493.1" stroke="#f7f3ea" stroke-width="2.5" paint-order="stroke" fill="#23211c">Residential</text><text x="210.2" y="401.9" stroke="#f7f3ea" stroke-width="2.5" paint-order="stroke" fill="#23211c">Craftsmen</text><text x="403.6" y="343.5" stroke="#f7f3ea" stroke-width="2.5" paint-order="stroke" fill="#23211c">Craftsmen</text><text x="337.9" y="478.5" stroke="#f7f3ea" stroke-width="2.5" paint-order="stroke" fill="#23211c">Slums</text><text x="397.3" y="466.5" stroke="#f7f3ea" stroke-width="2.5" paint-order="stroke" fill="#23211c">Slums</text><text x="269.8" y="421.7" stroke="#f7f3ea" stroke-width="2.5" paint-order="stroke" fill="#23211c">Garrison</text><text x="146.3" y="467.8" stroke="#f7f3ea" stroke-width="2.5" paint-order="stroke" fill="#23211c">Craftsmen</text><text x="238.6" y="487.3" stroke="#f7f3ea" stroke-width="2.5" paint-order="stroke" fill="#23211c">Garrison</text><text x="172.8" y="413.5" stroke="#f7f3ea" stroke-width="2.5" paint-order="stroke" fill="#23211c">Temple</text><text x="407.2" y="308.6" stroke="#f7f3ea" stroke-width="2.5" paint-order="stroke" fill="#23211c">Slums</text><text x="169.5" y="434.0" stroke="#f7f3ea" stroke-width="2.5" paint-order="stroke" fill="#23211c">Residential</text><text x="409.0" y="413.0" stroke="#f7f3ea" stroke-width="2.5" paint-order="stroke" fill="#23211c">Slums</text><text x="444.0" y="420.2" stroke="#f7f3ea" stroke-width="2.5" paint-order="stroke" fill="#23211c">Residential</text><text x="371.7" y="428.0" stroke="#f7f3ea" stroke-width="2.5" paint-order="stroke" fill="#23211c">Craftsmen</text><text x="354.5" y="353.0" stroke="#f7f3ea" stroke-width="2.5" paint-order="stroke" fill="#23211c">Docks</text><text x="233.7" y="457.2" stroke="#f7f3ea" stroke-width="2.5" paint-order="stroke" fill="#23211c">Slums</text><text x="449.8" y="377.5" stroke="#f7f3ea" stroke-width="2.5" paint-order="stroke" fill="#23211c">Residential</text><text x="300.3" y="456.3" stroke="#f7f3ea" stroke-width="2.5" paint-order="stroke" fill="#23211c">Slums</text><text x="426.3" y="445.2" stroke="#f7f3ea" stroke-width="2.5" paint-order="stroke" fill="#23211c">Residential</text><text x="200.1" y="499.1" stroke="#f7f3ea" stroke-width="2.5" paint-order="stroke" fill="#23211c">Temple</text><text x="138.2" y="433.4" stroke="#f7f3ea" stroke-width="2.5" paint-order="stroke" fill="#23211c">Craftsmen</text><text x="346.3" y="440.7" stroke="#f7f3ea" stroke-width="2.5" paint-order="stroke" fill="#23211c">Residential</text><text x="486.1" y="367.2" stroke="#f7f3ea" stroke-width="2.5" paint-order="stroke" fill="#23211c">Craftsmen</text><text x="317.9" y="431.0" stroke="#f7f3ea" stroke-width="2.5" paint-order="stroke" fill="#23211c">Residential</text><text x="259.9" y="378.7" stroke="#f7f3ea" stroke-width="2.5" paint-order="stroke" fill="#23211c">Temple</text><text x="260.1" y="511.4" stroke="#f7f3ea" stroke-width="2.5" paint-order="stroke" fill="#23211c">Garrison</text><text x="334.8" y="397.8" stroke="#f7f3ea" stroke-width="2.5" paint-order="stroke" fill="#23211c">Market</text><text x="443.4" y="337.4" stroke="#f7f3ea" stroke-width="2.5" paint-order="stroke" fill="#23211c">Noble</text><text x="488.1" y="328.0" stroke="#f7f3ea" stroke-width="2.5" paint-order="stroke" fill="#23211c">Temple</text><text x="369.8" y="397.1" stroke="#f7f3ea" stroke-width="2.5" paint-order="stroke" fill="#23211c">Craftsmen</text><text x="177.8" y="454.1" stroke="#f7f3ea" stroke-width="2.5" paint-order="stroke" fill="#23211c">Temple</text><text x="494.3" y="267.3" stroke="#f7f3ea" stroke-width="2.5" paint-order="stroke" fill="#23211c">Noble</text><text x="396.5" y="381.2" stroke="#f7f3ea" stroke-width="2.5" paint-order="stroke" fill="#23211c">Temple</text></g><text x="315.0" y="20" text-anchor="middle" font-family="Georgia, serif" font-size="16" font-weight="bold" stroke="#f7f3ea" stroke-width="3" paint-order="stroke" fill="#23211c">Faronholt</text></svg>