<svg xmlns="http://www.w3.org/2000/svg" width="630" height="630" viewBox="0 0 630 630"><rect width="630" height="630" fill="#c9d2bb"/><polygon points="130.6,0.0 630.0,0.0 630.0,630.0 477.7,630.0" fill="#2f6d8f"/><polygon points="93.1,401.1 93.9,362.5 100.2,323.7 111.5,285.8 127.4,249.4 147.1,215.4 170.2,184.2 196.1,156.3 210.1,144.4 406.9,501.4 377.3,525.0 344.9,544.4 310.8,558.4 275.7,566.4 240.7,567.7 207.1,562.0 176.1,549.1 148.9,529.5 126.4,503.8 109.3,473.0 98.2,438.4" fill="#e6dcc0"/><g stroke="#4a4230" stroke-width="1" stroke-linejoin="round"><polygon points="93.8,367.1 93.9,362.5 100.2,323.7 103.7,311.9 147.7,332.6 148.2,334.5 133.0,364.2 107.4,371.0" fill="#cdbf9e"/><polygon points="341.6,545.7 319.1,555.0 293.0,510.8 324.8,483.6 342.3,491.5" fill="#b3a684"/><polygon points="146.5,476.8 134.8,454.0 136.2,450.6 163.5,450.0 167.4,468.0 158.6,478.4" fill="#dfd6c0"/><polygon points="184.5,552.5 176.1,549.1 148.9,529.5 147.6,528.0 155.1,510.4 169.1,499.9 175.9,500.9 197.1,523.0" fill="#b3a684"/><polygon points="120.5,493.3 109.3,473.0 107.5,467.5 134.8,454.0 146.5,476.8 133.0,490.5" fill="#cdbf9e"/><polygon points="142.4,223.6 147.1,215.4 160.4,197.4 181.6,206.4 196.6,226.6 195.1,250.7 171.8,265.2" fill="#b9a98c"/><polygon points="246.1,209.8 261.1,236.9 223.4,266.1 195.1,250.7 196.6,226.6" fill="#c2b48f"/><polygon points="310.2,458.4 297.4,458.0 278.4,431.5 278.5,428.7 305.2,407.7" fill="#c2b48f"/><polygon points="173.3,436.9 153.5,420.8 152.7,396.6 176.1,389.5 192.2,425.6 180.1,435.8" fill="#cdbf9e"/><polygon points="153.5,420.8 173.3,436.9 163.5,450.0 136.2,450.6 133.8,437.4" fill="#c2b48f"/><polygon points="160.4,197.4 170.2,184.2 196.1,156.3 210.1,144.4 225.2,171.8 181.6,206.4" fill="#b3a684"/><polygon points="147.6,528.0 126.4,503.8 120.5,493.3 133.0,490.5 155.1,510.4" fill="#c2b48f"/><polygon points="234.8,359.7 208.9,340.4 211.5,311.3 228.4,298.8 255.0,305.8 262.7,346.3" fill="#b9a98c"/><polygon points="180.1,435.8 192.2,425.6 209.9,426.5 214.4,469.4 210.0,472.2 198.4,471.8 194.9,469.5" fill="#c2b48f"/><polygon points="276.6,471.4 253.0,457.4 278.4,431.5 297.4,458.0" fill="#b9a98c"/><polygon points="221.9,391.0 182.9,381.0 182.6,356.3 208.9,340.4 234.8,359.7 231.3,384.7" fill="#cdbf9e"/><polygon points="210.0,472.2 214.4,469.4 234.8,469.3 254.1,515.5 248.2,522.6 212.5,515.5" fill="#c2b48f"/><polygon points="133.0,364.2 148.2,334.5 182.6,356.3 182.9,381.0 176.1,389.5 152.7,396.6 150.7,395.8" fill="#c2b48f"/><polygon points="254.1,515.5 234.8,469.3 248.7,457.2 253.0,457.4 276.6,471.4 277.1,506.6" fill="#d8cdb0"/><polygon points="324.8,483.6 293.0,510.8 277.1,506.6 276.6,471.4 297.4,458.0 310.2,458.4 317.3,461.9" fill="#c2b48f"/><polygon points="103.7,311.9 111.5,285.8 117.3,272.5 165.4,277.0 170.9,297.8 147.7,332.6" fill="#d8cdb0"/><polygon points="192.2,425.6 176.1,389.5 182.9,381.0 221.9,391.0 215.5,422.8 209.9,426.5" fill="#d9c08a"/><polygon points="261.1,236.9 287.9,285.5 255.0,305.8 228.4,298.8 223.4,266.1" fill="#cdbf9e"/><polygon points="377.7,448.4 406.9,501.4 392.1,513.1 356.4,487.4" fill="#d8cdb0"/><polygon points="133.8,437.4 136.2,450.6 134.8,454.0 107.5,467.5 98.2,438.4 97.7,435.1 121.2,428.6" fill="#b3a684"/><polygon points="158.6,478.4 167.4,468.0 194.9,469.5 198.4,471.8 175.9,500.9 169.1,499.9" fill="#c2b48f"/><polygon points="107.4,371.0 133.0,364.2 150.7,395.8 122.5,405.3 116.6,401.9" fill="#c2b48f"/><polygon points="171.8,265.2 195.1,250.7 223.4,266.1 228.4,298.8 211.5,311.3 170.9,297.8 165.4,277.0" fill="#cdbf9e"/><polygon points="225.2,171.8 246.1,209.8 196.6,226.6 181.6,206.4" fill="#cdbf9e"/><polygon points="150.7,395.8 152.7,396.6 153.5,420.8 133.8,437.4 121.2,428.6 122.5,405.3" fill="#d8cdb0"/><polygon points="250.0,567.4 240.7,567.7 207.1,562.0 184.5,552.5 197.1,523.0 212.5,515.5 248.2,522.6" fill="#cdbf9e"/><polygon points="317.5,339.3 341.1,382.1 317.0,404.3 305.9,406.5 282.3,383.6 282.8,355.8" fill="#cdbf9e"/><polygon points="341.1,382.1 372.0,438.2 341.7,439.7 317.0,404.3" fill="#c2b48f"/><polygon points="305.2,407.7 278.5,428.7 257.0,414.3 256.1,398.6 282.3,383.6 305.9,406.5" fill="#b3a684"/><polygon points="287.9,285.5 317.5,339.3 282.8,355.8 262.7,346.3 255.0,305.8" fill="#aebbb0"/><polygon points="167.4,468.0 163.5,450.0 173.3,436.9 180.1,435.8 194.9,469.5" fill="#cdbf9e"/><polygon points="214.4,469.4 209.9,426.5 215.5,422.8 240.2,430.9 248.7,457.2 234.8,469.3" fill="#d8cdb0"/><polygon points="317.3,461.9 310.2,458.4 305.2,407.7 305.9,406.5 317.0,404.3 341.7,439.7" fill="#b3a684"/><polygon points="133.0,490.5 146.5,476.8 158.6,478.4 169.1,499.9 155.1,510.4" fill="#cdbf9e"/><polygon points="116.6,401.9 122.5,405.3 121.2,428.6 97.7,435.1 94.1,408.6" fill="#cdbf9e"/><polygon points="257.0,414.3 278.5,428.7 278.4,431.5 253.0,457.4 248.7,457.2 240.2,430.9" fill="#cdbf9e"/><polygon points="392.1,513.1 377.3,525.0 344.9,544.4 341.6,545.7 342.3,491.5 356.4,487.4" fill="#c2b48f"/><polygon points="240.2,430.9 215.5,422.8 221.9,391.0 231.3,384.7 256.1,398.6 257.0,414.3" fill="#c2b48f"/><polygon points="148.2,334.5 147.7,332.6 170.9,297.8 211.5,311.3 208.9,340.4 182.6,356.3" fill="#cdbf9e"/><polygon points="319.1,555.0 310.8,558.4 275.7,566.4 250.0,567.4 248.2,522.6 254.1,515.5 277.1,506.6 293.0,510.8" fill="#cdbf9e"/><polygon points="197.1,523.0 175.9,500.9 198.4,471.8 210.0,472.2 212.5,515.5" fill="#cdbf9e"/><polygon points="231.3,384.7 234.8,359.7 262.7,346.3 282.8,355.8 282.3,383.6 256.1,398.6" fill="#dfd6c0"/><polygon points="372.0,438.2 377.7,448.4 356.4,487.4 342.3,491.5 324.8,483.6 317.3,461.9 341.7,439.7" fill="#cdbf9e"/><polygon points="117.3,272.5 127.4,249.4 142.4,223.6 171.8,265.2 165.4,277.0" fill="#cdbf9e"/><polygon points="93.1,401.1 93.8,367.1 107.4,371.0 116.6,401.9 94.1,408.6" fill="#cdbf9e"/></g><g fill="#7d6c52" stroke="#4a3e2e" stroke-width="0.5" stroke-linejoin="round"><polygon points="101.3,330.8 102.4,324.2 105.1,315.0 111.0,317.8 104.2,332.2"/><polygon points="115.3,320.4 123.4,324.2 117.1,337.7 108.9,333.8"/><polygon points="99.7,339.8 100.5,335.2 115.5,342.3 113.6,346.4"/><polygon points="96.9,364.8 97.0,362.8 99.8,345.7 110.5,350.7 103.0,366.5"/><polygon points="131.8,359.6 130.8,361.6 109.6,367.2 116.6,352.4"/><polygon points="139.3,345.0 134.7,354.0 119.3,346.8 123.6,337.6"/><polygon points="128.4,326.4 145.3,334.4 142.4,340.0 125.7,332.1"/><polygon points="297.1,513.8 295.6,511.2 309.1,499.7 311.0,501.9"/><polygon points="302.3,523.3 298.8,517.2 301.9,514.5 309.6,523.4"/><polygon points="318.0,509.9 321.6,514.1 312.8,521.6 309.2,517.4"/><polygon points="304.4,512.3 313.6,504.4 315.9,507.0 306.7,514.9"/><polygon points="324.1,516.8 329.9,523.6 316.4,523.4"/><polygon points="334.2,511.8 323.8,511.7 323.4,511.2 329.4,506.1"/><polygon points="340.3,497.4 340.1,511.3 338.2,511.3 332.3,504.3"/><polygon points="340.0,515.3 339.9,523.4 334.7,523.3 327.7,515.2"/><polygon points="324.4,486.6 325.1,486.0 339.8,492.6 333.9,497.7"/><polygon points="312.3,497.1 321.3,489.4 325.9,494.7 316.9,502.4"/><polygon points="328.7,497.4 331.2,500.4 321.6,508.6 319.1,505.7"/><polygon points="319.8,552.6 313.1,541.1 320.0,537.0"/><polygon points="310.9,538.0 304.2,526.6 311.1,526.7"/><polygon points="314.3,526.8 320.4,526.8 320.3,532.7 314.2,536.3"/><polygon points="339.6,544.4 331.9,547.5 328.3,538.6 339.7,538.7"/><polygon points="328.7,549.3 323.3,551.5 323.5,538.1 324.1,538.1"/><polygon points="337.2,526.7 340.5,526.8 340.4,535.4 337.1,535.4"/><polygon points="324.0,534.5 324.1,527.2 333.9,527.4 333.8,534.6"/><polygon points="148.5,474.0 138.1,453.9 138.2,453.6 150.0,453.3 150.5,474.3"/><polygon points="155.9,453.1 161.2,452.9 164.3,467.3 157.5,475.3 156.3,475.2"/><polygon points="183.5,550.0 177.1,547.4 167.7,540.6 169.5,538.1 184.1,548.6"/><polygon points="185.1,530.3 190.1,533.9 185.5,544.6 178.5,539.5"/><polygon points="171.6,535.0 178.7,525.1 182.1,527.6 175.0,537.5"/><polygon points="194.3,521.9 195.7,523.3 192.3,531.2 189.2,529.0"/><polygon points="180.9,522.2 186.4,514.6 191.7,520.1 187.0,526.6"/><polygon points="166.9,504.3 169.7,502.2 174.8,503.0 183.3,511.8 181.3,514.6"/><polygon points="175.1,515.3 179.1,518.2 171.5,528.7 167.5,525.8"/><polygon points="157.4,511.3 163.2,506.9 171.6,513.0 167.6,518.6"/><polygon points="154.1,516.7 155.2,514.2 165.9,521.9 164.4,524.1"/><polygon points="154.1,531.1 150.1,528.2 149.6,527.7 153.0,519.9 159.0,524.2"/><polygon points="164.6,538.3 157.3,533.0 161.9,526.6 169.2,531.9"/><polygon points="117.9,482.5 112.0,471.9 111.1,469.0 119.8,464.7 126.5,478.2"/><polygon points="121.5,491.1 119.3,487.2 129.5,482.1 132.5,488.2 132.0,488.7"/><polygon points="144.1,475.6 144.5,476.5 135.3,485.9 132.9,481.1"/><polygon points="125.0,462.2 133.5,457.9 140.8,472.1 132.1,476.5"/><polygon points="187.5,250.5 172.9,259.5 162.4,244.6 176.4,234.7"/><polygon points="190.5,223.2 193.6,227.5 192.5,245.2 181.5,229.6"/><polygon points="158.2,207.5 161.8,202.5 178.9,209.8 185.2,218.2 172.2,227.4"/><polygon points="146.7,223.4 150.1,217.4 152.9,213.6 166.2,232.4 157.4,238.6"/><polygon points="206.0,226.0 211.3,224.2 217.1,241.3 211.8,243.0"/><polygon points="197.9,247.7 199.0,228.5 201.3,227.7 207.0,244.6"/><polygon points="223.6,262.1 223.1,262.5 203.2,251.7 218.4,246.6"/><polygon points="251.7,225.9 257.4,236.1 249.5,242.2 239.9,229.9"/><polygon points="240.5,250.5 228.0,260.1 226.4,255.3"/><polygon points="231.9,232.0 234.3,231.2 244.8,244.7 237.1,247.3"/><polygon points="225.7,250.9 220.6,236.1 227.3,233.8 232.4,248.7"/><polygon points="245.3,212.1 250.3,221.3 243.7,223.5 240.4,213.7"/><polygon points="238.6,224.0 219.3,230.5 216.8,223.0 236.0,216.5"/><polygon points="285.9,426.3 303.0,412.9 304.1,424.5"/><polygon points="307.2,455.6 298.8,455.3 293.9,448.4 305.7,439.9"/><polygon points="290.8,443.6 282.8,432.5 304.4,430.3 304.7,433.5"/><polygon points="179.4,404.1 183.5,413.4 169.6,419.6 165.5,410.3"/><polygon points="159.4,397.3 174.6,392.7 177.3,398.9 162.9,405.3"/><polygon points="161.2,423.7 156.0,419.5 155.4,401.2 164.7,422.1"/><polygon points="174.2,433.6 166.6,427.5 185.8,418.9 188.4,424.7 178.8,432.9"/><polygon points="161.6,430.2 170.2,437.3 162.4,447.8 161.9,447.8"/><polygon points="148.8,448.2 138.0,448.4 136.2,438.3 138.6,436.2"/><polygon points="153.5,424.8 156.1,427.0 156.6,447.1 154.9,447.1 143.3,433.4"/><polygon points="203.4,152.3 209.6,147.0 213.3,153.7 207.2,157.0"/><polygon points="214.8,157.2 222.5,171.3 220.4,173.0 209.9,159.8"/><polygon points="194.1,161.6 197.6,157.8 200.8,155.1 206.7,162.6 199.4,168.3"/><polygon points="184.4,171.9 191.1,164.6 196.2,171.0 188.5,177.2"/><polygon points="210.0,181.7 207.3,183.9 199.1,173.6 201.8,171.4"/><polygon points="209.4,165.8 217.2,175.6 212.7,179.2 204.9,169.4"/><polygon points="204.0,185.9 198.9,190.0 191.2,180.3 196.3,176.3"/><polygon points="168.0,190.8 171.8,185.6 181.6,175.1 184.0,178.1"/><polygon points="186.0,201.4 181.5,205.0 179.5,204.2 182.5,197.1"/><polygon points="176.8,202.0 166.4,197.6 175.8,190.1 179.7,195.1"/><polygon points="190.5,186.2 195.6,192.6 188.0,198.7 182.9,192.2"/><polygon points="186.8,180.5 188.7,183.0 180.2,189.8 178.2,187.3"/><polygon points="146.7,522.4 134.8,508.8 141.9,502.6 151.5,511.2"/><polygon points="130.8,505.3 128.3,502.5 124.0,494.9 132.3,493.0 138.5,498.5"/><polygon points="254.2,319.6 256.0,328.9 235.9,332.7 234.2,323.4"/><polygon points="230.3,302.8 252.1,308.5 252.9,313.0 232.9,316.8"/><polygon points="213.4,336.2 215.5,313.6 223.5,307.6 228.4,333.3"/><polygon points="230.2,353.3 215.6,342.4 227.6,340.1"/><polygon points="236.8,354.5 234.1,340.4 256.8,336.1 258.3,344.1"/><polygon points="191.7,430.0 193.2,428.7 207.0,429.5 208.1,439.9 193.0,441.5"/><polygon points="182.1,436.3 187.2,431.9 188.4,443.5 185.4,443.8"/><polygon points="208.9,446.0 209.7,453.6 192.0,455.5 188.7,448.1"/><polygon points="210.5,459.3 211.4,468.0 209.2,469.4 199.3,469.1 197.1,467.7 194.2,461.0"/><polygon points="276.5,467.1 258.9,456.6 268.3,447.0 283.9,462.3"/><polygon points="272.5,441.8 278.0,436.3 293.0,457.1 290.1,459.0"/><polygon points="209.6,385.7 198.9,382.9 200.7,376.1 211.3,378.8"/><polygon points="202.2,371.8 204.9,361.2 214.8,363.7 212.1,374.3"/><polygon points="221.4,388.0 214.4,386.2 217.5,374.2 229.5,377.2 228.7,383.1"/><polygon points="218.0,369.3 219.3,364.4 231.7,367.6 231.0,372.7"/><polygon points="206.3,356.2 209.4,344.1 221.7,353.3 217.4,359.1"/><polygon points="225.8,355.2 233.0,360.5 232.5,363.9 221.4,361.1"/><polygon points="189.9,354.4 204.0,345.9 201.1,357.3"/><polygon points="185.6,369.9 185.4,358.4 199.2,361.9 196.5,372.7"/><polygon points="195.0,382.2 184.7,379.6 184.6,374.4 196.3,377.4"/><polygon points="237.8,481.5 239.5,485.5 226.1,491.1 224.4,487.1"/><polygon points="218.8,472.0 233.1,471.9 235.4,477.5 223.2,482.6"/><polygon points="212.7,473.6 213.6,473.0 221.7,492.3 214.0,495.5"/><polygon points="245.2,502.0 250.6,515.0 247.0,519.3 236.7,517.2 239.9,500.9"/><polygon points="241.3,488.3 245.2,497.5 239.1,496.3 240.6,488.7"/><polygon points="219.5,498.5 236.3,491.5 234.3,501.5"/><polygon points="230.7,516.0 215.4,513.0 214.9,503.1 232.6,506.6"/><polygon points="138.6,359.2 144.8,347.2 153.4,351.7 146.9,364.5"/><polygon points="158.0,353.1 161.5,354.9 152.6,369.1 150.5,367.7"/><polygon points="146.8,342.5 149.1,337.9 165.3,348.2 163.5,351.1"/><polygon points="135.6,364.2 135.9,363.6 149.9,372.4 144.8,380.5"/><polygon points="150.8,390.8 147.7,385.1 156.5,371.2 161.4,374.2"/><polygon points="176.6,384.3 174.4,387.0 156.2,392.5 165.8,377.4"/><polygon points="180.7,364.9 180.8,380.3 180.4,380.9 173.3,376.4"/><polygon points="173.4,368.3 169.8,373.9 158.8,366.9 162.4,361.3"/><polygon points="169.3,350.7 180.0,357.6 175.7,364.4 165.0,357.5"/><polygon points="256.4,510.1 250.2,495.3 272.6,486.0 272.9,503.7"/><polygon points="247.0,487.6 239.9,470.4 250.2,461.5 251.8,461.5 272.4,473.8 272.5,477.0"/><polygon points="317.6,486.0 304.8,497.0 299.1,490.4 311.9,479.4"/><polygon points="322.9,483.1 321.8,484.0 314.5,475.5 319.0,471.7"/><polygon points="309.0,461.4 309.5,461.4 314.8,464.0 316.2,468.0 303.3,479.0 297.1,471.7"/><polygon points="289.7,465.0 297.9,459.8 303.3,460.0 292.9,468.8"/><polygon points="295.3,486.4 282.1,470.9 286.5,468.1 299.3,483.0"/><polygon points="278.3,484.7 278.1,472.7 284.1,479.7"/><polygon points="280.0,504.3 280.0,504.3 279.8,489.3 285.9,484.0 293.5,492.8"/><polygon points="301.3,500.8 292.5,508.4 285.5,506.5 297.4,496.2"/><polygon points="152.7,317.4 146.2,327.3 123.1,316.4 128.1,305.8"/><polygon points="162.8,281.5 166.9,297.1 157.6,311.0 150.5,307.6"/><polygon points="140.8,278.9 154.7,280.2 143.6,303.8 131.7,298.2"/><polygon points="108.8,309.6 115.5,287.2 120.0,277.0 131.9,278.1 115.5,312.8"/><polygon points="260.3,240.7 264.0,247.4 249.4,255.5 246.9,251.0"/><polygon points="266.7,251.0 268.1,253.6 252.4,262.2 251.0,259.7"/><polygon points="269.5,258.3 274.2,266.8 260.3,274.5 255.7,266.0"/><polygon points="241.2,272.0 234.9,260.6 242.8,254.5 249.8,267.2"/><polygon points="256.3,277.7 246.5,283.0 243.0,276.6 252.7,271.2"/><polygon points="242.4,285.0 229.8,292.0 228.2,281.8 239.7,280.0"/><polygon points="227.4,277.1 225.8,267.1 230.6,263.4 237.4,275.6"/><polygon points="246.8,301.4 230.3,297.1 230.3,296.9 241.1,291.0"/><polygon points="261.5,298.5 254.5,302.7 253.1,302.4 245.8,289.1 253.9,284.7"/><polygon points="277.2,271.5 284.4,284.6 278.0,288.5 270.0,275.5"/><polygon points="273.5,291.2 266.3,295.7 258.7,281.9 265.4,278.1"/><polygon points="377.7,457.2 387.5,475.0 364.2,487.8 361.9,486.1"/><polygon points="391.5,482.3 401.5,500.3 392.0,507.9 371.8,493.2"/><polygon points="125.6,456.3 119.2,459.5 115.1,451.3 122.8,447.5"/><polygon points="113.1,448.3 111.1,444.2 121.2,441.0 122.1,443.8"/><polygon points="115.9,461.4 108.6,465.0 106.2,457.4 112.9,455.3"/><polygon points="105.0,454.2 102.7,447.1 108.1,445.3 111.5,452.2"/><polygon points="131.7,438.7 133.9,450.4 133.1,452.4 129.4,454.2 125.0,440.5 131.3,438.4"/><polygon points="120.2,430.2 120.9,430.0 128.8,435.6 122.6,437.6"/><polygon points="106.2,434.9 117.2,431.8 119.1,437.9 108.3,441.4"/><polygon points="101.5,444.3 99.5,438.1 99.2,436.1 102.7,435.1 105.3,443.1"/><polygon points="180.4,470.7 194.3,471.5 195.6,472.3 190.7,478.7"/><polygon points="182.7,477.9 187.8,481.8 179.3,492.8 174.2,488.9"/><polygon points="161.9,478.8 168.6,470.8 173.2,471.1 178.5,475.1 170.5,485.5 161.9,478.8"/><polygon points="177.0,496.4 175.1,498.9 170.4,498.2 164.9,487.0"/><polygon points="122.8,370.0 131.5,367.7 139.8,382.5 132.2,386.8"/><polygon points="121.2,378.9 127.3,389.9 117.5,395.4 113.3,381.2"/><polygon points="109.4,372.1 117.4,370.0 120.0,374.7 111.0,377.4"/><polygon points="142.8,387.7 146.4,394.1 122.8,402.1 120.1,400.5"/><polygon points="222.0,299.8 211.0,308.0 201.3,304.7 204.8,294.1"/><polygon points="214.6,264.8 220.6,268.0 222.6,280.9 208.5,283.1"/><polygon points="224.0,286.2 225.4,295.3 206.4,288.9"/><polygon points="204.4,258.9 209.6,261.7 203.5,280.1 198.0,278.2"/><polygon points="190.3,257.4 195.2,254.3 199.1,256.5 192.6,276.0 184.9,273.4"/><polygon points="173.3,266.6 183.9,260.1 179.6,272.7 171.5,270.0"/><polygon points="172.4,293.7 168.1,277.3 169.7,274.3 178.0,277.0"/><polygon points="183.9,299.1 177.0,296.8 182.9,279.0 189.8,281.3"/><polygon points="201.6,285.2 195.7,303.1 189.2,301.0 195.2,283.1"/><polygon points="193.4,200.3 198.6,196.2 208.5,208.7 203.3,212.8"/><polygon points="194.6,219.8 185.0,206.8 189.5,203.3 199.5,215.9"/><polygon points="216.0,217.7 197.4,224.0 197.2,223.7 211.7,212.2"/><polygon points="212.2,194.9 205.8,198.5 201.4,192.9 207.1,188.5"/><polygon points="224.4,176.0 229.1,184.5 215.6,191.9 211.2,186.4"/><polygon points="225.9,213.7 220.6,215.5 209.5,201.6 216.9,197.5"/><polygon points="231.7,189.5 238.1,201.1 228.3,206.5 221.9,194.9"/><polygon points="241.3,204.6 243.6,208.8 230.7,213.1 229.6,211.1"/><polygon points="148.6,400.9 149.2,418.9 133.5,432.1 125.5,426.5 126.5,408.4"/><polygon points="239.2,523.3 245.8,524.6 246.4,539.3 239.9,539.5"/><polygon points="234.4,533.4 234.6,539.4 214.1,540.2 213.8,534.3"/><polygon points="213.4,518.7 233.8,522.8 234.0,527.7 213.8,528.5"/><polygon points="198.2,524.1 198.2,524.0 209.1,518.8 209.3,523.7"/><polygon points="192.7,540.9 198.0,528.5 207.8,528.1 208.3,540.3"/><polygon points="204.1,557.8 188.0,551.1 189.9,546.6 203.6,546.1"/><polygon points="214.3,561.0 209.1,560.1 208.5,545.4 213.6,545.2"/><polygon points="228.0,562.6 219.3,561.2 218.7,545.7 227.3,545.3"/><polygon points="233.5,556.7 233.0,545.1 246.2,544.6 246.6,556.1"/><polygon points="247.9,565.5 240.9,565.8 232.8,564.4 232.7,561.6 247.8,561.0"/><polygon points="321.2,350.9 327.6,362.5 321.1,366.1 314.7,354.5"/><polygon points="317.1,368.5 311.3,371.7 304.8,359.9 310.6,356.7"/><polygon points="316.5,342.5 318.8,346.7 302.7,355.6 299.9,350.5"/><polygon points="284.9,364.9 285.1,357.3 295.5,352.3 298.4,357.5"/><polygon points="306.7,373.7 298.0,378.5 291.6,366.9 300.4,362.1"/><polygon points="293.9,381.3 287.0,385.0 284.6,382.7 284.8,370.1 287.1,368.9"/><polygon points="299.6,397.8 289.6,388.2 294.8,385.4 301.2,396.9"/><polygon points="299.2,384.0 309.1,378.5 314.6,388.5 304.7,394.0"/><polygon points="320.2,398.1 315.9,402.1 306.7,403.9 303.2,400.6 317.3,392.8"/><polygon points="337.1,383.3 323.7,395.6 321.6,391.8"/><polygon points="330.0,366.4 336.8,378.8 331.9,381.6 325.1,369.1"/><polygon points="327.6,383.5 320.1,387.7 313.6,375.9 321.1,371.7"/><polygon points="337.0,406.9 326.2,412.8 320.5,404.7 328.4,397.5"/><polygon points="340.4,386.5 348.2,400.6 341.9,404.1 332.4,393.9"/><polygon points="348.1,426.1 339.4,430.9 330.0,417.4 340.2,411.7"/><polygon points="350.9,405.3 359.3,420.5 353.5,423.7 345.1,408.5"/><polygon points="361.7,425.6 367.2,435.5 343.2,436.6 342.8,436.0"/><polygon points="303.9,406.7 293.3,415.0 291.6,412.9 301.9,404.8"/><polygon points="289.7,409.7 285.3,404.0 293.6,397.5 298.8,402.5"/><polygon points="282.6,401.4 280.0,398.0 288.2,391.6 291.3,394.6"/><polygon points="278.0,395.3 274.1,390.3 282.1,385.8 285.7,389.3"/><polygon points="263.7,396.3 271.0,392.1 274.7,396.7 268.1,401.9"/><polygon points="258.4,409.5 257.8,399.6 260.6,398.0 265.4,404.0"/><polygon points="273.8,423.5 269.0,420.3 274.1,412.6 278.9,415.9"/><polygon points="286.3,420.6 278.4,426.8 276.4,425.5 281.7,417.5"/><polygon points="290.2,416.9 288.8,418.0 276.5,409.7 280.2,404.2"/><polygon points="266.0,417.9 259.5,413.5 270.1,405.1 272.5,408.2"/><polygon points="272.0,402.4 276.9,398.6 278.6,400.8 275.0,406.2"/><polygon points="287.6,308.2 279.9,312.5 272.2,298.5 279.0,294.3"/><polygon points="287.1,288.7 295.7,304.4 292.3,306.2 283.0,291.2"/><polygon points="297.8,308.7 304.5,320.9 297.4,324.8 290.7,312.6"/><polygon points="293.5,327.4 288.8,330.0 281.7,317.1 286.4,314.6"/><polygon points="283.7,331.7 274.9,336.6 266.0,320.4 276.4,318.4"/><polygon points="270.5,339.9 264.5,343.2 260.4,321.5"/><polygon points="259.7,315.7 258.0,307.2 267.4,301.4 273.8,313.0"/><polygon points="281.8,353.2 267.6,346.4 275.7,342.0"/><polygon points="307.0,325.3 314.1,338.2 307.3,341.4 301.1,328.5"/><polygon points="292.4,348.7 286.0,351.7 279.6,340.2 285.8,336.8"/><polygon points="302.9,343.6 296.6,346.6 290.0,334.6 296.9,330.8"/><polygon points="174.1,439.7 174.6,439.0 178.7,438.4 185.8,454.5 181.4,456.5"/><polygon points="168.6,462.0 166.1,450.6 170.8,444.3 177.0,458.3"/><polygon points="171.6,465.9 187.7,458.8 191.2,467.0"/><polygon points="218.1,465.2 216.6,450.8 241.4,448.2 243.9,455.9 233.2,465.1"/><polygon points="215.5,442.8 214.0,428.5 216.1,427.1 237.1,433.9 239.2,440.3"/><polygon points="323.8,441.3 338.7,439.8 329.8,447.9"/><polygon points="317.1,460.3 311.5,457.5 311.4,456.6 322.4,455.5"/><polygon points="318.2,441.7 319.1,441.6 327.2,450.5 325.5,452.1 319.3,452.7"/><polygon points="311.5,453.5 310.4,442.4 314.8,442.0 315.9,453.1"/><polygon points="309.5,431.1 308.8,423.5 322.3,422.1"/><polygon points="321.7,412.7 326.0,418.8 322.3,419.2"/><polygon points="313.4,406.9 316.2,406.3 318.6,409.8 319.5,418.6 314.6,419.1"/><polygon points="308.0,420.0 306.9,408.0 306.9,407.9 310.0,407.3 311.2,419.7"/><polygon points="325.1,425.2 327.7,423.5 336.4,435.9 326.3,436.9"/><polygon points="310.4,438.6 310.1,435.6 321.1,427.9 322.0,437.5"/><polygon points="163.0,492.5 166.2,499.2 155.2,507.4 152.1,504.6"/><polygon points="143.5,483.6 147.5,479.6 156.8,480.9 160.3,488.0 155.0,493.9"/><polygon points="136.2,490.4 139.7,486.9 152.0,497.9 148.7,501.6"/><polygon points="119.1,423.8 118.9,426.7 99.7,432.0 99.0,426.5"/><polygon points="116.3,404.6 119.9,406.7 119.2,418.8 112.5,419.8 110.6,406.3"/><polygon points="107.5,420.4 98.4,421.7 96.9,410.4 105.8,407.7"/><polygon points="269.8,425.8 276.0,430.0 276.0,430.5 266.3,440.4 260.8,435.0"/><polygon points="257.3,417.5 265.7,423.1 257.4,431.6 250.2,424.5"/><polygon points="262.2,443.8 251.9,454.4 250.8,454.4 246.3,440.3 255.6,437.3"/><polygon points="243.8,436.2 242.2,431.3 246.7,427.0 253.1,433.3"/><polygon points="366.8,528.1 357.4,533.8 350.4,522.0 366.9,522.2"/><polygon points="353.1,536.6 344.1,542.0 344.4,521.9"/><polygon points="379.9,521.1 376.5,523.8 370.9,527.2 371.0,521.0"/><polygon points="355.4,516.5 344.9,516.3 345.1,501.7 355.6,501.9"/><polygon points="360.4,500.9 369.0,501.1 360.2,513.2"/><polygon points="344.7,496.4 344.7,493.3 356.0,490.0 365.2,496.7"/><polygon points="386.9,513.3 382.7,516.6 364.2,516.4 373.5,503.5"/><polygon points="227.5,423.6 218.9,420.8 222.0,405.2 230.9,407.0"/><polygon points="241.9,408.1 254.9,410.7 255.1,413.6 251.1,417.5"/><polygon points="239.5,427.6 233.0,425.5 236.3,409.1 247.1,420.1"/><polygon points="245.0,394.9 254.0,399.9 254.4,406.5 243.1,404.2"/><polygon points="223.2,399.4 224.5,392.8 231.4,388.2 240.1,393.1 238.2,402.4"/><polygon points="173.9,316.1 179.5,319.9 175.3,332.4 169.1,330.3"/><polygon points="155.6,325.5 165.3,310.8 169.5,313.6 164.5,328.5"/><polygon points="168.2,306.4 171.9,300.9 184.2,304.9 180.9,314.9"/><polygon points="150.9,332.8 152.6,330.3 173.1,337.1 170.4,345.2"/><polygon points="206.9,334.1 206.5,338.9 199.9,342.9 191.5,328.9"/><polygon points="192.4,347.5 182.6,353.5 174.9,348.6 177.0,342.4"/><polygon points="193.8,342.6 178.7,337.6 182.6,326.1 184.0,326.6"/><polygon points="202.5,311.2 208.7,313.2 207.3,328.7 197.7,325.5"/><polygon points="189.2,306.7 197.3,309.5 192.6,323.8 184.4,321.1"/><polygon points="296.0,520.9 302.5,532.0 294.5,536.7 288.0,525.6"/><polygon points="290.3,539.4 283.7,543.2 277.0,531.8 283.6,527.9"/><polygon points="279.6,545.7 273.1,549.5 266.4,538.1 272.9,534.2"/><polygon points="281.8,509.9 291.8,512.5 294.2,516.7 288.0,520.3"/><polygon points="266.7,513.7 276.3,510.0 283.3,522.0 274.6,527.1"/><polygon points="255.1,518.4 255.7,517.7 261.3,515.6 269.9,530.1 264.0,533.6"/><polygon points="252.0,562.2 251.6,553.7 267.4,553.1"/><polygon points="250.7,536.3 250.2,523.2 251.6,521.5 257.8,532.1"/><polygon points="251.9,548.9 251.6,541.0 259.5,536.4 266.6,548.3"/><polygon points="283.5,561.6 275.3,563.4 259.1,564.0 278.3,552.7"/><polygon points="298.9,558.3 289.5,560.5 283.1,549.6 291.0,544.9"/><polygon points="299.6,549.5 295.2,542.0 305.2,536.1 309.6,543.7"/><polygon points="316.0,554.0 310.1,556.4 304.2,557.8 301.7,553.5 312.1,547.4"/><polygon points="188.9,489.2 192.2,484.8 208.4,497.4 208.5,498.0 189.5,499.1"/><polygon points="178.4,501.4 177.8,500.8 184.5,492.2 185.0,501.0"/><polygon points="195.4,480.1 199.7,474.5 207.5,474.8 208.4,490.2"/><polygon points="197.7,519.8 183.5,505.1 196.8,504.3 197.8,519.8"/><polygon points="201.8,503.8 209.5,503.3 210.1,514.1 202.6,517.8"/><polygon points="245.9,357.3 251.7,354.5 259.5,370.7 253.7,373.5"/><polygon points="234.7,382.1 237.7,361.8 240.9,360.2 248.4,375.6"/><polygon points="248.4,392.4 237.2,386.2 243.8,383.0"/><polygon points="260.3,393.4 256.1,395.9 253.9,394.7 247.8,382.0 253.4,379.2"/><polygon points="262.0,374.9 268.7,388.9 264.4,391.3 257.5,377.0"/><polygon points="280.2,372.6 280.0,382.3 272.6,386.5 268.6,378.2"/><polygon points="280.3,360.9 280.2,367.4 266.7,373.9 264.2,368.7"/><polygon points="256.8,352.4 262.7,349.5 277.3,356.4 262.3,363.7"/><polygon points="369.0,459.4 364.7,467.2 354.7,461.7 358.9,453.9"/><polygon points="370.6,440.8 374.8,448.5 371.2,455.0 361.4,449.6 366.1,441.0"/><polygon points="344.9,441.5 361.1,440.7 357.0,448.1"/><polygon points="350.3,458.9 334.3,450.1 340.5,444.6 354.1,452.0"/><polygon points="333.2,455.9 342.3,460.9 335.6,473.3 326.4,468.3"/><polygon points="320.7,466.5 319.2,462.4 329.6,452.9 321.9,467.1"/><polygon points="330.7,484.1 326.4,482.1 322.8,471.8 334.0,477.9"/><polygon points="354.1,485.4 342.5,488.8 335.1,485.4 339.5,477.4"/><polygon points="361.6,471.6 356.7,480.5 342.6,472.7 347.4,463.9"/><polygon points="137.7,236.5 142.6,228.1 150.7,239.5 143.4,244.6"/><polygon points="126.6,256.8 129.4,250.5 135.0,240.8 139.7,247.5"/><polygon points="143.5,250.6 153.5,243.5 157.1,248.6 142.7,258.8"/><polygon points="164.1,257.8 169.4,265.3 164.3,274.9 162.5,274.7"/><polygon points="154.3,273.7 141.3,272.5 142.0,265.1 146.1,262.1"/><polygon points="159.9,252.6 160.1,252.8 158.4,271.3 150.0,259.5"/><polygon points="121.6,270.0 123.7,265.2 137.6,255.3 136.2,271.3"/><polygon points="95.8,401.0 95.9,395.2 111.9,395.5 113.3,400.1 96.3,405.1"/><polygon points="95.4,390.4 95.5,385.9 109.8,386.2 111.1,390.7"/><polygon points="95.9,381.4 96.1,370.3 105.4,373.0 108.0,381.6"/></g><g fill="none" stroke-linecap="round" stroke-linejoin="round"><path d="M117.6,343.7 L120.2,367.6 L127.6,385.0" stroke="#6c604a" stroke-width="3.4"/><path d="M127.6,385.0 L112.0,386.4 L102.5,389.0" stroke="#6c604a" stroke-width="3.4"/><path d="M102.5,389.0 L105.4,405.2 L108.7,417.9" stroke="#6c604a" stroke-width="3.4"/><path d="M108.7,417.9 L121.8,417.0 L137.4,415.8" stroke="#6c604a" stroke-width="3.4"/><path d="M137.4,415.8 L143.6,429.1 L152.5,438.4" stroke="#6c604a" stroke-width="3.4"/><path d="M152.5,438.4 L149.9,450.3 L152.3,462.6" stroke="#6c604a" stroke-width="3.4"/><path d="M152.3,462.6 L165.4,459.0 L177.5,455.1" stroke="#6c604a" stroke-width="3.4"/><path d="M177.5,455.1 L187.5,452.7 L199.5,447.8" stroke="#6c604a" stroke-width="3.4"/><path d="M177.5,455.1 L181.2,468.8 L176.5,481.5" stroke="#6c604a" stroke-width="3.4"/><path d="M176.5,481.5 L163.9,489.1 L152.1,492.5" stroke="#6c604a" stroke-width="3.4"/><path d="M152.1,492.5 L144.0,500.4 L139.0,507.0" stroke="#6c604a" stroke-width="3.4"/><path d="M176.5,481.5 L187.2,486.4 L197.9,497.7" stroke="#6c604a" stroke-width="3.4"/><path d="M152.3,462.6 L140.6,465.4 L127.3,474.1" stroke="#6c604a" stroke-width="3.4"/><path d="M199.5,447.8 L212.1,448.0 L227.4,447.4" stroke="#6c604a" stroke-width="3.4"/><path d="M108.7,417.9 L109.4,431.8 L116.8,446.3" stroke="#6c604a" stroke-width="3.4"/><path d="M152.5,438.4 L163.4,428.8 L170.8,413.6" stroke="#6c604a" stroke-width="3.4"/><path d="M170.8,413.6 L184.1,407.5 L199.9,403.3" stroke="#6c604a" stroke-width="3.4"/><path d="M197.9,497.7 L211.3,493.9 L229.2,496.5" stroke="#6c604a" stroke-width="3.4"/><path d="M229.2,496.5 L244.5,492.4 L258.4,484.9" stroke="#6c604a" stroke-width="3.4"/><path d="M227.4,447.4 L244.5,444.0 L257.5,434.9" stroke="#6c604a" stroke-width="3.4"/><path d="M257.5,434.9 L265.7,444.4 L276.1,453.5" stroke="#6c604a" stroke-width="3.4"/><path d="M276.1,453.5 L287.9,444.7 L297.1,435.1" stroke="#6c604a" stroke-width="3.4"/><path d="M297.1,435.1 L307.7,433.0 L319.9,433.2" stroke="#6c604a" stroke-width="3.4"/><path d="M319.9,433.2 L329.4,422.0 L343.5,415.0" stroke="#6c604a" stroke-width="3.4"/><path d="M257.5,434.9 L248.6,422.6 L236.0,408.5" stroke="#6c604a" stroke-width="3.4"/><path d="M297.1,435.1 L291.8,418.2 L278.7,406.1" stroke="#6c604a" stroke-width="3.4"/><path d="M127.6,385.0 L141.8,380.0 L159.1,367.3" stroke="#6c604a" stroke-width="3.4"/><path d="M276.1,453.5 L287.0,464.7 L297.8,482.7" stroke="#6c604a" stroke-width="3.4"/><path d="M197.9,497.7 L186.5,512.0 L173.1,525.1" stroke="#6c604a" stroke-width="3.4"/><path d="M199.9,403.3 L202.4,386.0 L208.6,367.2" stroke="#6c604a" stroke-width="3.4"/><path d="M278.7,406.1 L269.2,391.1 L258.2,372.1" stroke="#6c604a" stroke-width="3.4"/><path d="M319.9,433.2 L329.5,450.8 L347.2,463.1" stroke="#6c604a" stroke-width="3.4"/><path d="M347.2,463.1 L367.1,467.9 L381.6,484.7" stroke="#6c604a" stroke-width="3.4"/><path d="M381.6,484.7 L374.3,500.2 L359.8,514.3" stroke="#6c604a" stroke-width="3.4"/><path d="M359.8,514.3 L342.0,518.6 L322.7,518.4" stroke="#6c604a" stroke-width="3.4"/><path d="M278.7,406.1 L294.1,395.1 L309.2,373.9" stroke="#6c604a" stroke-width="3.4"/><path d="M229.2,496.5 L230.4,519.1 L221.1,542.1" stroke="#6c604a" stroke-width="3.4"/><path d="M159.1,367.3 L165.4,345.4 L182.0,326.8" stroke="#6c604a" stroke-width="3.4"/><path d="M208.6,367.2 L221.9,350.0 L235.4,328.7" stroke="#6c604a" stroke-width="3.4"/><path d="M182.0,326.8 L191.2,304.6 L198.0,281.9" stroke="#6c604a" stroke-width="3.4"/><path d="M235.4,328.7 L258.8,326.1 L283.3,323.5" stroke="#6c604a" stroke-width="3.4"/><path d="M117.6,343.7 L125.7,322.2 L137.8,299.3" stroke="#6c604a" stroke-width="3.4"/><path d="M137.8,299.3 L141.4,274.8 L144.9,257.0" stroke="#6c604a" stroke-width="3.4"/><path d="M144.9,257.0 L157.1,244.4 L171.6,230.1" stroke="#6c604a" stroke-width="3.4"/><path d="M322.7,518.4 L306.0,532.9 L278.1,539.3" stroke="#6c604a" stroke-width="3.4"/><path d="M171.6,230.1 L189.1,216.5 L214.4,202.3" stroke="#6c604a" stroke-width="3.4"/><path d="M214.4,202.3 L203.4,189.1 L194.7,177.8" stroke="#6c604a" stroke-width="3.4"/><path d="M214.4,202.3 L221.4,218.2 L226.3,237.3" stroke="#6c604a" stroke-width="3.4"/><path d="M226.3,237.3 L242.2,251.5 L253.3,275.4" stroke="#6c604a" stroke-width="3.4"/><path d="M226.3,237.3 L209.2,258.4 L198.0,281.9" stroke="#6c604a" stroke-width="3.4"/><path d="M170.8,413.6 L164.4,393.1 L159.1,367.3" stroke="#6c604a" stroke-width="3.4"/><path d="M235.4,328.7 L210.2,325.9 L182.0,326.8" stroke="#6c604a" stroke-width="3.4"/><path d="M208.6,367.2 L195.7,348.4 L182.0,326.8" stroke="#6c604a" stroke-width="3.4"/><path d="M159.1,367.3 L179.5,385.3 L199.9,403.3" stroke="#6c604a" stroke-width="3.4"/><path d="M297.8,482.7 L285.1,508.7 L278.1,539.3" stroke="#6c604a" stroke-width="3.4"/><path d="M309.2,373.9 L282.6,369.7 L258.2,372.1" stroke="#6c604a" stroke-width="3.4"/><path d="M199.9,403.3 L93.9,362.5" stroke="#6c604a" stroke-width="4.8"/><path d="M199.9,403.3 L210.1,144.4" stroke="#6c604a" stroke-width="4.8"/><path d="M199.9,403.3 L207.1,562.0" stroke="#6c604a" stroke-width="4.8"/><path d="M199.9,403.3 L308.5,322.9" stroke="#6c604a" stroke-width="4.8"/><path d="M117.6,343.7 L120.2,367.6 L127.6,385.0" stroke="#e4d9bc" stroke-width="1.8"/><path d="M127.6,385.0 L112.0,386.4 L102.5,389.0" stroke="#e4d9bc" stroke-width="1.8"/><path d="M102.5,389.0 L105.4,405.2 L108.7,417.9" stroke="#e4d9bc" stroke-width="1.8"/><path d="M108.7,417.9 L121.8,417.0 L137.4,415.8" stroke="#e4d9bc" stroke-width="1.8"/><path d="M137.4,415.8 L143.6,429.1 L152.5,438.4" stroke="#e4d9bc" stroke-width="1.8"/><path d="M152.5,438.4 L149.9,450.3 L152.3,462.6" stroke="#e4d9bc" stroke-width="1.8"/><path d="M152.3,462.6 L165.4,459.0 L177.5,455.1" stroke="#e4d9bc" stroke-width="1.8"/><path d="M177.5,455.1 L187.5,452.7 L199.5,447.8" stroke="#e4d9bc" stroke-width="1.8"/><path d="M177.5,455.1 L181.2,468.8 L176.5,481.5" stroke="#e4d9bc" stroke-width="1.8"/><path d="M176.5,481.5 L163.9,489.1 L152.1,492.5" stroke="#e4d9bc" stroke-width="1.8"/><path d="M152.1,492.5 L144.0,500.4 L139.0,507.0" stroke="#e4d9bc" stroke-width="1.8"/><path d="M176.5,481.5 L187.2,486.4 L197.9,497.7" stroke="#e4d9bc" stroke-width="1.8"/><path d="M152.3,462.6 L140.6,465.4 L127.3,474.1" stroke="#e4d9bc" stroke-width="1.8"/><path d="M199.5,447.8 L212.1,448.0 L227.4,447.4" stroke="#e4d9bc" stroke-width="1.8"/><path d="M108.7,417.9 L109.4,431.8 L116.8,446.3" stroke="#e4d9bc" stroke-width="1.8"/><path d="M152.5,438.4 L163.4,428.8 L170.8,413.6" stroke="#e4d9bc" stroke-width="1.8"/><path d="M170.8,413.6 L184.1,407.5 L199.9,403.3" stroke="#e4d9bc" stroke-width="1.8"/><path d="M197.9,497.7 L211.3,493.9 L229.2,496.5" stroke="#e4d9bc" stroke-width="1.8"/><path d="M229.2,496.5 L244.5,492.4 L258.4,484.9" stroke="#e4d9bc" stroke-width="1.8"/><path d="M227.4,447.4 L244.5,444.0 L257.5,434.9" stroke="#e4d9bc" stroke-width="1.8"/><path d="M257.5,434.9 L265.7,444.4 L276.1,453.5" stroke="#e4d9bc" stroke-width="1.8"/><path d="M276.1,453.5 L287.9,444.7 L297.1,435.1" stroke="#e4d9bc" stroke-width="1.8"/><path d="M297.1,435.1 L307.7,433.0 L319.9,433.2" stroke="#e4d9bc" stroke-width="1.8"/><path d="M319.9,433.2 L329.4,422.0 L343.5,415.0" stroke="#e4d9bc" stroke-width="1.8"/><path d="M257.5,434.9 L248.6,422.6 L236.0,408.5" stroke="#e4d9bc" stroke-width="1.8"/><path d="M297.1,435.1 L291.8,418.2 L278.7,406.1" stroke="#e4d9bc" stroke-width="1.8"/><path d="M127.6,385.0 L141.8,380.0 L159.1,367.3" stroke="#e4d9bc" stroke-width="1.8"/><path d="M276.1,453.5 L287.0,464.7 L297.8,482.7" stroke="#e4d9bc" stroke-width="1.8"/><path d="M197.9,497.7 L186.5,512.0 L173.1,525.1" stroke="#e4d9bc" stroke-width="1.8"/><path d="M199.9,403.3 L202.4,386.0 L208.6,367.2" stroke="#e4d9bc" stroke-width="1.8"/><path d="M278.7,406.1 L269.2,391.1 L258.2,372.1" stroke="#e4d9bc" stroke-width="1.8"/><path d="M319.9,433.2 L329.5,450.8 L347.2,463.1" stroke="#e4d9bc" stroke-width="1.8"/><path d="M347.2,463.1 L367.1,467.9 L381.6,484.7" stroke="#e4d9bc" stroke-width="1.8"/><path d="M381.6,484.7 L374.3,500.2 L359.8,514.3" stroke="#e4d9bc" stroke-width="1.8"/><path d="M359.8,514.3 L342.0,518.6 L322.7,518.4" stroke="#e4d9bc" stroke-width="1.8"/><path d="M278.7,406.1 L294.1,395.1 L309.2,373.9" stroke="#e4d9bc" stroke-width="1.8"/><path d="M229.2,496.5 L230.4,519.1 L221.1,542.1" stroke="#e4d9bc" stroke-width="1.8"/><path d="M159.1,367.3 L165.4,345.4 L182.0,326.8" stroke="#e4d9bc" stroke-width="1.8"/><path d="M208.6,367.2 L221.9,350.0 L235.4,328.7" stroke="#e4d9bc" stroke-width="1.8"/><path d="M182.0,326.8 L191.2,304.6 L198.0,281.9" stroke="#e4d9bc" stroke-width="1.8"/><path d="M235.4,328.7 L258.8,326.1 L283.3,323.5" stroke="#e4d9bc" stroke-width="1.8"/><path d="M117.6,343.7 L125.7,322.2 L137.8,299.3" stroke="#e4d9bc" stroke-width="1.8"/><path d="M137.8,299.3 L141.4,274.8 L144.9,257.0" stroke="#e4d9bc" stroke-width="1.8"/><path d="M144.9,257.0 L157.1,244.4 L171.6,230.1" stroke="#e4d9bc" stroke-width="1.8"/><path d="M322.7,518.4 L306.0,532.9 L278.1,539.3" stroke="#e4d9bc" stroke-width="1.8"/><path d="M171.6,230.1 L189.1,216.5 L214.4,202.3" stroke="#e4d9bc" stroke-width="1.8"/><path d="M214.4,202.3 L203.4,189.1 L194.7,177.8" stroke="#e4d9bc" stroke-width="1.8"/><path d="M214.4,202.3 L221.4,218.2 L226.3,237.3" stroke="#e4d9bc" stroke-width="1.8"/><path d="M226.3,237.3 L242.2,251.5 L253.3,275.4" stroke="#e4d9bc" stroke-width="1.8"/><path d="M226.3,237.3 L209.2,258.4 L198.0,281.9" stroke="#e4d9bc" stroke-width="1.8"/><path d="M170.8,413.6 L164.4,393.1 L159.1,367.3" stroke="#e4d9bc" stroke-width="1.8"/><path d="M235.4,328.7 L210.2,325.9 L182.0,326.8" stroke="#e4d9bc" stroke-width="1.8"/><path d="M208.6,367.2 L195.7,348.4 L182.0,326.8" stroke="#e4d9bc" stroke-width="1.8"/><path d="M159.1,367.3 L179.5,385.3 L199.9,403.3" stroke="#e4d9bc" stroke-width="1.8"/><path d="M297.8,482.7 L285.1,508.7 L278.1,539.3" stroke="#e4d9bc" stroke-width="1.8"/><path d="M309.2,373.9 L282.6,369.7 L258.2,372.1" stroke="#e4d9bc" stroke-width="1.8"/><path d="M199.9,403.3 L93.9,362.5" stroke="#e4d9bc" stroke-width="3.2"/><path d="M199.9,403.3 L210.1,144.4" stroke="#e4d9bc" stroke-width="3.2"/><path d="M199.9,403.3 L207.1,562.0" stroke="#e4d9bc" stroke-width="3.2"/><path d="M199.9,403.3 L308.5,322.9" stroke="#e4d9bc" stroke-width="3.2"/></g><polygon points="93.1,401.1 93.9,362.5 100.2,323.7 111.5,285.8 127.4,249.4 147.1,215.4 170.2,184.2 196.1,156.3 210.1,144.4 406.9,501.4 377.3,525.0 344.9,544.4 310.8,558.4 275.7,566.4 240.7,567.7 207.1,562.0 176.1,549.1 148.9,529.5 126.4,503.8 109.3,473.0 98.2,438.4" fill="none" stroke="#3c3628" stroke-width="1.5"/><g font-family="Georgia, serif" font-size="8" text-anchor="middle"><text x="117.6" y="346.7" stroke="#f7f3ea" stroke-width="2.5" paint-order="stroke" fill="#23211c">Residential</text><text x="322.7" y="521.4" stroke="#f7f3ea" stroke-width="2.5" paint-order="stroke" fill="#23211c">Slums</text><text x="152.3" y="465.6" stroke="#f7f3ea" stroke-width="2.5" paint-order="stroke" fill="#23211c">Temple</text><text x="173.1" y="528.1" stroke="#f7f3ea" stroke-width="2.5" paint-order="stroke" fill="#23211c">Slums</text><text x="127.3" y="477.1" stroke="#f7f3ea" stroke-width="2.5" paint-order="stroke" fill="#23211c">Residential</text><text x="171.6" y="233.1" stroke="#f7f3ea" stroke-width="2.5" paint-order="stroke" fill="#23211c">Garrison</text><text x="226.3" y="240.3" stroke="#f7f3ea" stroke-width="2.5" paint-order="stroke" fill="#23211c">Craftsmen</text><text x="297.1" y="438.1" stroke="#f7f3ea" stroke-width="2.5" paint-order="stroke" fill="#23211c">Craftsmen</text><text x="170.8" y="416.6" stroke="#f7f3ea" stroke-width="2.5" paint-order="stroke" fill="#23211c">Residential</text><text x="152.5" y="441.4" stroke="#f7f3ea" stroke-width="2.5" paint-order="stroke" fill="#23211c">Craftsmen</text><text x="194.7" y="180.8" stroke="#f7f3ea" stroke-width="2.5" paint-order="stroke" fill="#23211c">Slums</text><text x="139.0" y="510.0" stroke="#f7f3ea" stroke-width="2.5" paint-order="stroke" fill="#23211c">Craftsmen</text><text x="235.4" y="331.7" stroke="#f7f3ea" stroke-width="2.5" paint-order="stroke" fill="#23211c">Garrison</text><text x="199.5" y="450.8" stroke="#f7f3ea" stroke-width="2.5" paint-order="stroke" fill="#23211c">Craftsmen</text><text x="276.1" y="456.5" stroke="#f7f3ea" stroke-width="2.5" paint-order="stroke" fill="#23211c">Garrison</text><text x="208.6" y="370.2" stroke="#f7f3ea" stroke-width="2.5" paint-order="stroke" fill="#23211c">Residential</text><text x="229.2" y="499.5" stroke="#f7f3ea" stroke-width="2.5" paint-order="stroke" fill="#23211c">Craftsmen</text><text x="159.1" y="370.3" stroke="#f7f3ea" stroke-width="2.5" paint-order="stroke" fill="#23211c">Craftsmen</text><text x="258.4" y="487.9" stroke="#f7f3ea" stroke-width="2.5" paint-order="stroke" fill="#23211c">Noble</text><text x="297.8" y="485.7" stroke="#f7f3ea" stroke-width="2.5" paint-order="stroke" fill="#23211c">Craftsmen</text><text x="137.8" y="302.3" stroke="#f7f3ea" stroke-width="2.5" paint-order="stroke" fill="#23211c">Noble</text><text x="199.9" y="406.3" stroke="#f7f3ea" stroke-width="2.5" paint-order="stroke" fill="#23211c">Market</text><text x="253.3" y="278.4" stroke="#f7f3ea" stroke-width="2.5" paint-order="stroke" fill="#23211c">Residential</text><text x="381.6" y="487.7" stroke="#f7f3ea" stroke-width="2.5" paint-order="stroke" fill="#23211c">Noble</text><text x="116.8" y="449.3" stroke="#f7f3ea" stroke-width="2.5" paint-order="stroke" fill="#23211c">Slums</text><text x="176.5" y="484.5" stroke="#f7f3ea" stroke-width="2.5" paint-order="stroke" fill="#23211c">Craftsmen</text><text x="127.6" y="388.0" stroke="#f7f3ea" stroke-width="2.5" paint-order="stroke" fill="#23211c">Craftsmen</text><text x="198.0" y="284.9" stroke="#f7f3ea" stroke-width="2.5" paint-order="stroke" fill="#23211c">Residential</text><text x="214.4" y="205.3" stroke="#f7f3ea" stroke-width="2.5" paint-order="stroke" fill="#23211c">Residential</text><text x="137.4" y="418.8" stroke="#f7f3ea" stroke-width="2.5" paint-order="stroke" fill="#23211c">Noble</text><text x="221.1" y="545.1" stroke="#f7f3ea" stroke-width="2.5" paint-order="stroke" fill="#23211c">Residential</text><text x="309.2" y="376.9" stroke="#f7f3ea" stroke-width="2.5" paint-order="stroke" fill="#23211c">Residential</text><text x="343.5" y="418.0" stroke="#f7f3ea" stroke-width="2.5" paint-order="stroke" fill="#23211c">Craftsmen</text><text x="278.7" y="409.1" stroke="#f7f3ea" stroke-width="2.5" paint-order="stroke" fill="#23211c">Slums</text><text x="283.3" y="326.5" stroke="#f7f3ea" stroke-width="2.5" paint-order="stroke" fill="#23211c">Docks</text><text x="177.5" y="458.1" stroke="#f7f3ea" stroke-width="2.5" paint-order="stroke" fill="#23211c">Residential</text><text x="227.4" y="450.4" stroke="#f7f3ea" stroke-width="2.5" paint-order="stroke" fill="#23211c">Noble</text><text x="319.9" y="436.2" stroke="#f7f3ea" stroke-width="2.5" paint-order="stroke" fill="#23211c">Slums</text><text x="152.1" y="495.5" stroke="#f7f3ea" stroke-width="2.5" paint-order="stroke" fill="#23211c">Residential</text><text x="108.7" y="420.9" stroke="#f7f3ea" stroke-width="2.5" paint-order="stroke" fill="#23211c">Residential</text><text x="257.5" y="437.9" stroke="#f7f3ea" stroke-width="2.5" paint-order="stroke" fill="#23211c">Residential</text><text x="359.8" y="517.3" stroke="#f7f3ea" stroke-width="2.5" paint-order="stroke" fill="#23211c">Craftsmen</text><text x="236.0" y="411.5" stroke="#f7f3ea" stroke-width="2.5" paint-order="stroke" fill="#23211c">Craftsmen</text><text x="182.0" y="329.8" stroke="#f7f3ea" stroke-width="2.5" paint-order="stroke" fill="#23211c">Residential</text><text x="278.1" y="542.3" stroke="#f7f3ea" stroke-width="2.5" paint-order="stroke" fill="#23211c">Residential</text><text x="197.9" y="500.7" stroke="#f7f3ea" stroke-width="2.5" paint-order="stroke" fill="#23211c">Residential</text><text x="258.2" y="375.1" stroke="#f7f3ea" stroke-width="2.5" paint-order="stroke" fill="#23211c">Temple</text><text x="347.2" y="466.1" stroke="#f7f3ea" stroke-width="2.5" paint-order="stroke" fill="#23211c">Residential</text><text x="144.9" y="260.0" stroke="#f7f3ea" stroke-width="2.5" paint-order="stroke" fill="#23211c">Residential</text><text x="102.5" y="392.0" stroke="#f7f3ea" stroke-width="2.5" paint-order="stroke" fill="#23211c">Residential</text></g><text x="315.0" y="20" text-anchor="middle" font-family="Georgia, serif" font-size="16" font-weight="bold" stroke="#f7f3ea" stroke-width="3" paint-order="stroke" fill="#23211c">Faronholt</text></svg>