<svg xmlns="http://www.w3.org/2000/svg" width="576" height="396" viewBox="0 0 576 396"><rect width="576" height="396" fill="#183e56"/><g stroke-linejoin="round"><polygon points="0.0,0.0 24.4,0.0 23.4,9.5 13.7,17.1 0.0,14.4" fill="#1f4e6b" stroke="#1f4e6b" stroke-width="0.5"/><polygon points="24.4,0.0 47.6,0.0 50.0,15.2 38.4,21.7 23.4,9.5" fill="#1f4e6b" stroke="#1f4e6b" stroke-width="0.5"/><polygon points="47.6,0.0 68.8,0.0 66.6,15.3 60.3,18.6 50.0,15.2" fill="#1f4e6b" stroke="#1f4e6b" stroke-width="0.5"/><polygon points="68.8,0.0 86.3,0.0 87.4,18.1 85.7,21.3 66.6,15.3" fill="#1f4e6b" stroke="#1f4e6b" stroke-width="0.5"/><polygon points="86.3,0.0 109.5,0.0 109.1,9.5 87.4,18.1" fill="#1f4e6b" stroke="#1f4e6b" stroke-width="0.5"/><polygon points="109.5,0.0 132.5,0.0 134.2,13.9 130.1,18.7 108.7,16.9" fill="#3d7ea6" stroke="#3d7ea6" stroke-width="0.5"/><polygon points="132.5,0.0 158.6,0.0 156.1,15.3 134.2,13.9" fill="#ffffc6" stroke="#ffffc6" stroke-width="0.5"/><polygon points="158.6,0.0 180.8,0.0 182.1,20.7 155.8,16.7" fill="#64a55e" stroke="#64a55e" stroke-width="0.5"/><polygon points="180.8,0.0 206.2,0.0 200.9,17.8 189.0,23.3 182.2,22.4" fill="#619f5b" stroke="#619f5b" stroke-width="0.5"/><polygon points="206.2,0.0 208.2,0.0 227.8,16.0 214.1,26.9 200.9,17.8" fill="#3d6439" stroke="#3d6439" stroke-width="0.5"/><polygon points="208.2,0.0 237.7,0.0 235.8,15.1 227.8,16.0" fill="#96ad70" stroke="#96ad70" stroke-width="0.5"/><polygon points="237.7,0.0 263.4,0.0 261.7,16.2 239.2,18.7 235.8,15.1" fill="#93ab6f" stroke="#93ab6f" stroke-width="0.5"/><polygon points="263.4,0.0 283.5,0.0 283.5,18.9 267.1,22.2 261.7,16.2" fill="#416b3d" stroke="#416b3d" stroke-width="0.5"/><polygon points="283.5,0.0 303.8,0.0 303.8,17.6 290.2,23.0 283.5,18.9" fill="#477542" stroke="#477542" stroke-width="0.5"/><polygon points="303.8,0.0 327.1,0.0 329.0,19.3 314.7,24.1 303.8,17.6" fill="#7ca367" stroke="#7ca367" stroke-width="0.5"/><polygon points="327.1,0.0 355.4,0.0 353.6,13.3 332.4,21.3 329.0,19.3" fill="#779d63" stroke="#779d63" stroke-width="0.5"/><polygon points="355.4,0.0 376.6,0.0 381.2,23.3 362.0,23.0 353.6,13.3" fill="#71965e" stroke="#71965e" stroke-width="0.5"/><polygon points="376.6,0.0 399.9,0.0 394.7,22.8 381.4,24.0" fill="#618051" stroke="#618051" stroke-width="0.5"/><polygon points="399.9,0.0 416.9,0.0 418.3,20.9 395.4,20.0" fill="#3d7ea6" stroke="#3d7ea6" stroke-width="0.5"/><polygon points="416.9,0.0 437.5,0.0 437.5,17.8 418.4,23.4" fill="#1f4e6b" stroke="#1f4e6b" stroke-width="0.5"/><polygon points="437.5,0.0 459.7,0.0 462.1,12.3 445.6,22.9 437.5,17.8" fill="#1f4e6b" stroke="#1f4e6b" stroke-width="0.5"/><polygon points="459.7,0.0 488.3,0.0 485.8,12.1 469.0,17.0 462.1,12.3" fill="#1f4e6b" stroke="#1f4e6b" stroke-width="0.5"/><polygon points="488.3,0.0 510.9,0.0 511.7,17.6 507.7,21.8 492.6,20.1 485.8,12.1" fill="#1f4e6b" stroke="#1f4e6b" stroke-width="0.5"/><polygon points="510.9,0.0 532.8,0.0 535.4,16.3 533.3,20.0 511.7,17.6" fill="#1f4e6b" stroke="#1f4e6b" stroke-width="0.5"/><polygon points="532.8,0.0 554.8,0.0 553.1,11.9 535.4,16.3" fill="#1f4e6b" stroke="#1f4e6b" stroke-width="0.5"/><polygon points="554.8,0.0 576.0,0.0 576.0,28.1 567.2,25.2 553.1,11.9" fill="#1f4e6b" stroke="#1f4e6b" stroke-width="0.5"/><polygon points="0.0,41.6 0.0,14.4 13.7,17.1 16.1,38.9" fill="#1f4e6b" stroke="#1f4e6b" stroke-width="0.5"/><polygon points="16.1,38.9 13.7,17.1 23.4,9.5 38.4,21.7 36.6,33.1 20.2,41.2" fill="#1f4e6b" stroke="#1f4e6b" stroke-width="0.5"/><polygon points="36.6,33.1 38.4,21.7 50.0,15.2 60.3,18.6 61.0,38.4 48.4,42.2" fill="#1f4e6b" stroke="#1f4e6b" stroke-width="0.5"/><polygon points="61.0,38.4 60.3,18.6 66.6,15.3 85.7,21.3 87.7,30.2 82.0,40.1 66.9,41.6" fill="#1f4e6b" stroke="#1f4e6b" stroke-width="0.5"/><polygon points="87.7,30.2 85.7,21.3 87.4,18.1 119.5,5.3 107.6,33.8" fill="#1f4e6b" stroke="#1f4e6b" stroke-width="0.5"/><polygon points="107.6,33.8 114.4,17.4 130.1,18.7 134.7,42.0 112.4,41.1" fill="#3d7ea6" stroke="#3d7ea6" stroke-width="0.5"/><polygon points="133.6,36.4 130.1,18.7 134.2,13.9 157.1,15.4 154.1,34.1" fill="#65a65f" stroke="#65a65f" stroke-width="0.5"/><polygon points="156.9,16.8 184.6,21.1 173.6,41.5 160.5,42.4 154.1,34.1" fill="#65a65f" stroke="#65a65f" stroke-width="0.5"/><polygon points="183.8,22.6 189.0,23.3 200.1,45.4 199.8,45.9 182.5,51.2 173.6,41.5" fill="#4a7a45" stroke="#4a7a45" stroke-width="0.5"/><polygon points="200.1,45.4 189.0,23.3 200.9,17.8 214.1,26.9 215.0,38.2" fill="#3a5f36" stroke="#3a5f36" stroke-width="0.5"/><polygon points="215.0,38.2 214.1,26.9 227.8,16.0 235.8,15.1 239.2,18.7 240.2,38.6 222.2,42.6" fill="#819661" stroke="#819661" stroke-width="0.5"/><polygon points="240.2,38.6 239.2,18.7 261.7,16.2 267.1,22.2 264.5,41.6 243.6,41.6" fill="#477543" stroke="#477543" stroke-width="0.5"/><polygon points="264.7,40.5 267.1,22.2 283.5,18.9 290.2,22.9 290.2,40.5" fill="#497844" stroke="#497844" stroke-width="0.5"/><polygon points="290.2,42.6 290.2,23.0 303.8,17.6 314.7,24.1 310.7,44.2" fill="#7da568" stroke="#7da568" stroke-width="0.5"/><polygon points="310.8,43.6 314.7,24.1 329.0,19.3 332.4,21.3 338.7,38.4 329.7,49.0" fill="#7fa86a" stroke="#7fa86a" stroke-width="0.5"/><polygon points="338.7,38.4 332.4,21.3 353.6,13.3 362.0,23.0 353.4,41.2" fill="#6098b8" stroke="#6098b8" stroke-width="0.5"/><polygon points="353.4,41.2 362.0,23.0 382.3,23.3 380.9,31.1 367.6,46.6 356.5,45.8" fill="#61a05b" stroke="#61a05b" stroke-width="0.5"/><polygon points="388.1,52.8 380.9,31.1 382.2,23.9 391.1,23.2 403.4,42.2 397.5,54.5" fill="#4d7f48" stroke="#4d7f48" stroke-width="0.5"/><polygon points="403.4,42.2 388.9,19.7 420.3,20.9 420.3,37.6" fill="#436e3f" stroke="#436e3f" stroke-width="0.5"/><polygon points="420.3,37.1 420.3,22.8 437.5,17.8 445.6,22.9 448.0,40.3" fill="#3d7ea6" stroke="#3d7ea6" stroke-width="0.5"/><polygon points="447.9,39.3 445.6,22.9 462.1,12.3 469.0,17.0 470.4,33.4 455.2,41.6" fill="#1f4e6b" stroke="#1f4e6b" stroke-width="0.5"/><polygon points="470.4,33.4 469.0,17.0 485.8,12.1 492.6,20.1 483.6,40.3" fill="#1f4e6b" stroke="#1f4e6b" stroke-width="0.5"/><polygon points="492.6,20.1 507.7,21.8 510.1,42.4 483.9,39.7" fill="#1f4e6b" stroke="#1f4e6b" stroke-width="0.5"/><polygon points="510.0,41.1 507.7,21.8 511.7,17.6 533.3,20.0 536.9,34.3 536.3,36.8" fill="#1f4e6b" stroke="#1f4e6b" stroke-width="0.5"/><polygon points="536.9,34.3 533.3,20.0 535.4,16.3 553.1,11.9 567.2,25.2" fill="#1f4e6b" stroke="#1f4e6b" stroke-width="0.5"/><polygon points="567.2,25.2 568.9,25.8 556.7,47.7 536.0,38.0 536.9,34.3" fill="#1f4e6b" stroke="#1f4e6b" stroke-width="0.5"/><polygon points="0.0,65.2 0.0,41.6 16.1,38.9 20.2,41.2 24.4,58.7 20.1,65.2" fill="#1f4e6b" stroke="#1f4e6b" stroke-width="0.5"/><polygon points="24.4,58.7 20.2,41.2 36.6,33.1 48.4,42.2 44.7,59.7" fill="#1f4e6b" stroke="#1f4e6b" stroke-width="0.5"/><polygon points="44.7,59.7 48.4,42.2 61.0,38.4 66.9,41.6 63.9,67.6 49.8,65.8" fill="#1f4e6b" stroke="#1f4e6b" stroke-width="0.5"/><polygon points="63.7,69.2 66.9,41.6 82.0,40.1 90.1,59.6" fill="#1f4e6b" stroke="#1f4e6b" stroke-width="0.5"/><polygon points="88.9,56.6 82.0,40.1 87.7,30.2 107.6,33.8 112.4,41.1 106.2,54.4" fill="#3d7ea6" stroke="#3d7ea6" stroke-width="0.5"/><polygon points="106.2,54.4 112.4,41.1 129.8,41.8 134.7,57.7 128.6,66.0 113.7,65.5" fill="#ffffc6" stroke="#ffffc6" stroke-width="0.5"/><polygon points="134.7,57.7 128.3,37.0 154.1,34.1 160.5,42.4 154.3,59.4" fill="#65a65e" stroke="#65a65e" stroke-width="0.5"/><polygon points="154.3,59.4 160.5,42.4 173.6,41.5 182.5,51.2 180.5,65.2 176.8,69.0 156.7,63.5" fill="#548a4e" stroke="#548a4e" stroke-width="0.5"/><polygon points="180.5,65.2 182.5,51.2 199.8,45.9 205.3,62.5 200.1,68.3" fill="#9cb575" stroke="#9cb575" stroke-width="0.5"/><polygon points="205.3,62.5 199.8,45.9 200.1,45.4 215.0,38.2 222.2,42.6 221.6,63.8" fill="#3d6439" stroke="#3d6439" stroke-width="0.5"/><polygon points="221.5,66.1 222.2,42.6 240.2,38.6 243.6,41.6 241.0,65.1" fill="#94ac6f" stroke="#94ac6f" stroke-width="0.5"/><polygon points="241.0,65.1 243.6,41.6 263.7,41.6 267.9,60.8 265.5,64.1 243.8,67.6" fill="#9db776" stroke="#9db776" stroke-width="0.5"/><polygon points="267.9,60.8 263.5,40.5 292.6,40.5 286.7,61.7" fill="#4c7d47" stroke="#4c7d47" stroke-width="0.5"/><polygon points="292.6,69.0 286.7,61.7 292.0,42.7 309.9,44.2 308.0,64.3" fill="#4c7d47" stroke="#4c7d47" stroke-width="0.5"/><polygon points="330.8,54.8 343.0,67.0 333.8,79.2 328.5,81.0 319.7,78.1 316.2,69.3" fill="#589052" stroke="#589052" stroke-width="0.5"/><polygon points="329.7,49.0 338.7,38.4 353.4,41.2 356.5,45.8 353.9,59.1 344.7,66.8 343.0,67.0 330.8,54.8" fill="#568d50" stroke="#568d50" stroke-width="0.5"/><polygon points="353.9,59.1 356.5,45.8 367.6,46.6 378.2,57.2 373.0,69.7" fill="#599354" stroke="#599354" stroke-width="0.5"/><polygon points="367.6,46.6 380.8,31.1 388.1,52.8 378.2,57.2" fill="#5f9d59" stroke="#5f9d59" stroke-width="0.5"/><polygon points="395.6,58.5 403.4,42.2 420.0,37.6 424.1,58.5" fill="#3a5f36" stroke="#3a5f36" stroke-width="0.5"/><polygon points="419.9,37.1 446.7,40.1 436.2,60.5 424.5,60.5" fill="#baaa85" stroke="#baaa85" stroke-width="0.5"/><polygon points="447.2,39.1 455.2,41.6 462.3,56.5 454.8,68.0 446.5,70.4 436.2,60.5" fill="#3d7ea6" stroke="#3d7ea6" stroke-width="0.5"/><polygon points="462.3,56.5 455.2,41.6 470.4,33.4 483.2,40.1 481.1,57.9" fill="#1f4e6b" stroke="#1f4e6b" stroke-width="0.5"/><polygon points="483.2,39.6 509.2,42.3 509.5,50.9 501.2,61.6 480.8,60.7" fill="#1f4e6b" stroke="#1f4e6b" stroke-width="0.5"/><polygon points="509.5,50.9 509.2,41.2 537.1,36.7 534.3,57.1 528.2,61.9" fill="#1f4e6b" stroke="#1f4e6b" stroke-width="0.5"/><polygon points="536.9,38.4 556.7,47.7 560.0,57.7 552.0,63.9 534.3,57.1" fill="#1f4e6b" stroke="#1f4e6b" stroke-width="0.5"/><polygon points="576.0,12.9 576.0,60.4 560.0,57.7 556.7,47.7" fill="#1f4e6b" stroke="#1f4e6b" stroke-width="0.5"/><polygon points="0.0,85.5 0.0,65.2 20.1,65.2 24.5,85.5" fill="#1f4e6b" stroke="#1f4e6b" stroke-width="0.5"/><polygon points="24.5,85.5 20.1,65.2 24.4,58.7 44.7,59.7 49.8,65.8 39.4,85.5" fill="#1f4e6b" stroke="#1f4e6b" stroke-width="0.5"/><polygon points="39.4,85.5 49.8,65.8 65.1,67.8 69.8,87.3 47.3,93.5" fill="#1f4e6b" stroke="#1f4e6b" stroke-width="0.5"/><polygon points="69.9,87.7 65.3,68.6 86.9,60.8 95.9,83.0 73.0,88.4" fill="#1f4e6b" stroke="#1f4e6b" stroke-width="0.5"/><polygon points="95.5,82.0 85.4,57.0 106.2,54.4 113.7,65.5 104.2,81.4" fill="#3d7ea6" stroke="#3d7ea6" stroke-width="0.5"/><polygon points="104.2,81.4 113.7,65.5 128.6,66.0 134.2,86.4 113.4,89.0" fill="#609e5a" stroke="#609e5a" stroke-width="0.5"/><polygon points="133.3,83.2 128.6,66.0 134.7,57.7 154.3,59.4 156.7,63.5 150.8,82.3" fill="#5f9c59" stroke="#5f9c59" stroke-width="0.5"/><polygon points="150.8,82.3 156.7,63.5 176.8,69.0 177.5,79.4 173.7,84.6 155.3,87.5" fill="#51854c" stroke="#51854c" stroke-width="0.5"/><polygon points="177.5,79.4 176.8,69.0 180.5,65.2 200.1,68.3 201.5,83.7 196.0,87.6" fill="#5e9a58" stroke="#5e9a58" stroke-width="0.5"/><polygon points="201.5,83.7 200.1,68.3 205.3,62.5 224.2,64.1 219.3,87.5" fill="#c8e997" stroke="#c8e997" stroke-width="0.5"/><polygon points="219.0,88.9 223.8,66.0 241.0,65.1 243.8,67.6 245.4,87.2" fill="#879c65" stroke="#879c65" stroke-width="0.5"/><polygon points="245.3,85.5 243.8,67.6 265.5,64.1 268.9,85.5" fill="#8fa66b" stroke="#8fa66b" stroke-width="0.5"/><polygon points="268.7,84.3 265.5,64.1 267.9,60.8 286.7,61.7 292.6,69.0 290.9,83.2" fill="#477643" stroke="#477643" stroke-width="0.5"/><polygon points="291.0,82.3 292.6,69.0 308.0,64.3 316.2,69.3 319.7,78.1 310.1,87.1" fill="#81ab6c" stroke="#81ab6c" stroke-width="0.5"/><polygon points="310.0,43.4 329.7,49.0 330.8,54.8 316.2,69.3 308.0,64.3" fill="#83ad6d" stroke="#83ad6d" stroke-width="0.5"/><polygon points="333.7,79.3 343.0,67.0 344.7,66.8 358.2,82.3 349.7,93.9" fill="#558c50" stroke="#558c50" stroke-width="0.5"/><polygon points="358.2,82.3 344.7,66.8 353.9,59.1 373.0,69.7 374.6,79.0" fill="#568d50" stroke="#568d50" stroke-width="0.5"/><polygon points="388.1,52.8 400.1,55.0 399.2,75.5 374.0,75.5 373.0,69.7 378.2,57.2" fill="#467342" stroke="#467342" stroke-width="0.5"/><polygon points="399.1,79.2 399.9,58.5 427.0,58.5 418.8,78.7" fill="#355732" stroke="#355732" stroke-width="0.5"/><polygon points="418.8,78.7 426.1,60.5 436.2,60.5 446.5,70.4 443.5,82.2 424.5,85.2" fill="#c3b38b" stroke="#c3b38b" stroke-width="0.5"/><polygon points="459.4,95.2 442.9,84.5 446.5,70.4 454.8,68.0 469.6,79.9" fill="#c8b78f" stroke="#c8b78f" stroke-width="0.5"/><polygon points="469.6,79.9 454.8,68.0 462.3,56.5 483.6,58.1 479.3,77.7" fill="#3d7ea6" stroke="#3d7ea6" stroke-width="0.5"/><polygon points="479.3,77.7 483.0,60.8 501.2,61.6 508.9,80.0 507.0,83.2 485.3,84.3" fill="#1f4e6b" stroke="#1f4e6b" stroke-width="0.5"/><polygon points="508.9,80.0 501.2,61.6 509.5,50.9 528.2,61.9 525.7,75.1" fill="#1f4e6b" stroke="#1f4e6b" stroke-width="0.5"/><polygon points="525.7,75.1 528.2,61.9 534.3,57.1 552.0,63.9 550.2,79.6 536.0,84.1" fill="#1f4e6b" stroke="#1f4e6b" stroke-width="0.5"/><polygon points="576.0,60.4 576.0,86.0 560.4,86.5 550.2,79.6 552.0,63.9 560.0,57.7" fill="#1f4e6b" stroke="#1f4e6b" stroke-width="0.5"/><polygon points="0.0,102.2 0.0,85.5 24.5,85.5 20.4,104.3" fill="#1f4e6b" stroke="#1f4e6b" stroke-width="0.5"/><polygon points="20.4,104.3 24.5,85.5 39.4,85.5 47.3,93.5 46.9,108.8 39.5,114.0 21.7,107.4" fill="#1f4e6b" stroke="#1f4e6b" stroke-width="0.5"/><polygon points="63.5,115.0 46.9,108.8 47.3,93.5 70.5,87.1" fill="#1f4e6b" stroke="#1f4e6b" stroke-width="0.5"/><polygon points="73.0,88.4 94.0,83.4 95.2,109.4 85.7,110.7" fill="#3d7ea6" stroke="#3d7ea6" stroke-width="0.5"/><polygon points="95.2,109.4 93.9,82.1 104.2,81.4 113.4,89.0 110.7,108.5 102.8,113.0" fill="#ffeeb9" stroke="#ffeeb9" stroke-width="0.5"/><polygon points="110.7,108.5 113.4,89.0 130.8,86.9 134.4,105.1 126.7,111.8" fill="#5d9957" stroke="#5d9957" stroke-width="0.5"/><polygon points="134.4,105.1 130.1,83.3 150.8,82.3 155.2,87.5 155.2,101.0 143.8,107.2" fill="#50844b" stroke="#50844b" stroke-width="0.5"/><polygon points="155.2,101.0 155.2,87.5 173.7,84.6 176.6,103.2 168.2,109.0" fill="#599253" stroke="#599253" stroke-width="0.5"/><polygon points="176.6,103.2 173.7,84.6 177.5,79.4 196.0,87.6 192.4,104.9" fill="#5e9b58" stroke="#5e9b58" stroke-width="0.5"/><polygon points="192.4,104.9 196.0,87.6 201.5,83.7 220.2,87.7 219.6,102.5 196.6,110.2" fill="#51854c" stroke="#51854c" stroke-width="0.5"/><polygon points="219.6,102.5 220.2,88.9 244.1,87.2 246.1,102.1 224.6,108.5" fill="#395d35" stroke="#395d35" stroke-width="0.5"/><polygon points="246.2,103.5 243.8,85.5 267.8,85.5 267.8,103.5" fill="#436f3f" stroke="#436f3f" stroke-width="0.5"/><polygon points="267.8,105.8 267.8,84.4 290.2,83.2 290.2,104.6" fill="#51864c" stroke="#51864c" stroke-width="0.5"/><polygon points="290.2,103.5 290.2,82.1 310.1,87.1 312.4,103.5" fill="#89b573" stroke="#89b573" stroke-width="0.5"/><polygon points="319.7,78.1 328.5,81.0 328.5,101.0 312.3,102.5 310.1,87.1" fill="#578f51" stroke="#578f51" stroke-width="0.5"/><polygon points="328.5,101.0 328.5,81.0 333.7,79.3 349.7,93.9 349.4,100.9 334.4,105.3" fill="#589253" stroke="#589253" stroke-width="0.5"/><polygon points="349.4,100.9 349.7,93.9 358.2,82.3 372.0,79.5 376.6,94.5 372.5,103.9 355.6,106.3" fill="#3f683b" stroke="#3f683b" stroke-width="0.5"/><polygon points="376.6,94.5 370.7,75.5 402.7,75.5 398.6,94.5" fill="#365933" stroke="#365933" stroke-width="0.5"/><polygon points="398.6,94.5 401.9,79.2 418.8,78.7 424.5,85.2 423.2,101.2 416.4,105.1 401.8,101.3" fill="#50834a" stroke="#50834a" stroke-width="0.5"/><polygon points="423.2,101.2 424.5,85.2 448.6,81.3 434.8,105.6" fill="#487643" stroke="#487643" stroke-width="0.5"/><polygon points="445.8,86.4 460.0,95.6 441.1,113.0 441.1,112.9 434.8,105.6" fill="#406a3c" stroke="#406a3c" stroke-width="0.5"/><polygon points="459.2,95.6 469.6,79.9 479.3,77.7 485.3,84.3 483.0,102.6 465.4,101.8" fill="#3d7ea6" stroke="#3d7ea6" stroke-width="0.5"/><polygon points="482.9,103.5 485.3,84.3 507.0,83.2 510.4,103.5" fill="#1f4e6b" stroke="#1f4e6b" stroke-width="0.5"/><polygon points="509.8,99.9 507.0,83.2 508.9,80.0 525.7,75.1 536.0,84.1 533.4,101.8" fill="#1f4e6b" stroke="#1f4e6b" stroke-width="0.5"/><polygon points="533.2,102.9 536.0,84.1 550.2,79.6 560.4,86.5 551.0,107.5 545.4,109.3" fill="#1f4e6b" stroke="#1f4e6b" stroke-width="0.5"/><polygon points="576.0,86.0 576.0,116.6 551.0,107.5 560.4,86.5" fill="#1f4e6b" stroke="#1f4e6b" stroke-width="0.5"/><polygon points="0.0,122.2 0.0,102.2 20.4,104.3 21.7,107.4 13.9,123.0" fill="#1f4e6b" stroke="#1f4e6b" stroke-width="0.5"/><polygon points="13.9,123.0 21.7,107.4 39.5,114.0 38.6,127.9 18.8,131.5" fill="#1f4e6b" stroke="#1f4e6b" stroke-width="0.5"/><polygon points="43.6,134.9 38.6,127.9 39.5,114.0 46.9,108.8 63.5,115.0 64.0,115.6 50.2,137.6" fill="#1f4e6b" stroke="#1f4e6b" stroke-width="0.5"/><polygon points="63.5,115.0 70.3,87.8 73.0,88.4 85.7,110.7 74.7,120.1 64.0,115.6" fill="#3d7ea6" stroke="#3d7ea6" stroke-width="0.5"/><polygon points="74.7,120.1 85.7,110.7 95.2,109.4 102.8,113.0 103.7,125.6 88.3,138.5 87.1,138.3 76.3,126.2" fill="#fff8c1" stroke="#fff8c1" stroke-width="0.5"/><polygon points="103.7,125.6 102.8,113.0 110.7,108.5 126.7,111.8 128.8,128.1 112.5,132.2" fill="#7f9258" stroke="#7f9258" stroke-width="0.5"/><polygon points="129.3,132.3 126.7,111.8 134.4,105.1 143.8,107.2 149.7,126.9" fill="#768751" stroke="#768751" stroke-width="0.5"/><polygon points="149.7,126.9 143.8,107.2 155.3,101.0 168.2,109.0 167.7,117.0 152.5,128.1" fill="#52864d" stroke="#52864d" stroke-width="0.5"/><polygon points="167.7,117.0 168.2,109.0 176.6,103.2 192.4,104.9 196.6,110.2 196.6,118.2 191.3,126.5 178.9,128.2" fill="#4b7b46" stroke="#4b7b46" stroke-width="0.5"/><polygon points="196.6,118.2 196.6,110.2 219.6,102.5 224.6,108.5 226.3,122.2 218.7,128.0" fill="#65a65f" stroke="#65a65f" stroke-width="0.5"/><polygon points="226.3,122.2 224.6,108.5 247.5,101.6 247.5,122.0 236.8,126.2" fill="#51844b" stroke="#51844b" stroke-width="0.5"/><polygon points="247.5,121.9 247.5,103.5 269.8,103.5 267.3,121.3 258.8,126.4" fill="#487744" stroke="#487744" stroke-width="0.5"/><polygon points="267.3,121.3 269.5,105.7 289.3,104.7 292.4,124.4 287.3,131.9" fill="#589153" stroke="#589153" stroke-width="0.5"/><polygon points="292.4,124.4 289.1,103.5 311.5,103.5 312.2,121.1" fill="#568e51" stroke="#568e51" stroke-width="0.5"/><polygon points="312.2,121.1 311.4,102.6 328.5,101.0 334.4,105.3 331.4,121.7 317.5,125.4" fill="#558d50" stroke="#558d50" stroke-width="0.5"/><polygon points="331.4,121.7 334.4,105.3 349.4,100.9 355.6,106.3 354.7,120.9 339.1,127.7" fill="#4d7f48" stroke="#4d7f48" stroke-width="0.5"/><polygon points="354.7,120.9 355.6,106.3 372.5,103.9 380.5,116.0 375.2,127.1 365.2,131.2" fill="#3d6439" stroke="#3d6439" stroke-width="0.5"/><polygon points="372.5,103.9 376.6,94.5 398.6,94.5 401.8,101.3 393.3,115.2 380.5,116.0" fill="#477643" stroke="#477643" stroke-width="0.5"/><polygon points="401.8,101.3 416.4,105.1 416.7,123.6 402.8,129.5 393.3,115.2" fill="#4f824a" stroke="#4f824a" stroke-width="0.5"/><polygon points="416.7,123.6 416.4,105.1 423.2,101.2 434.8,105.6 441.1,112.9 426.2,128.5" fill="#4c7d47" stroke="#4c7d47" stroke-width="0.5"/><polygon points="441.1,113.0 459.6,96.0 465.4,101.8 462.0,123.5 453.5,124.1" fill="#86b170" stroke="#86b170" stroke-width="0.5"/><polygon points="462.0,123.3 465.4,101.8 483.8,102.6 483.8,122.4" fill="#dac89c" stroke="#dac89c" stroke-width="0.5"/><polygon points="483.8,121.9 483.8,103.5 507.3,103.5 508.1,124.8" fill="#3d7ea6" stroke="#3d7ea6" stroke-width="0.5"/><polygon points="508.0,122.2 507.2,99.6 535.5,102.0 521.0,125.8" fill="#1f4e6b" stroke="#1f4e6b" stroke-width="0.5"/><polygon points="534.5,103.6 545.4,109.3 544.9,127.3 526.9,132.9 521.0,125.8" fill="#1f4e6b" stroke="#1f4e6b" stroke-width="0.5"/><polygon points="576.0,116.6 576.0,120.5 550.2,131.8 544.9,127.3 545.4,109.3 551.0,107.5" fill="#1f4e6b" stroke="#1f4e6b" stroke-width="0.5"/><polygon points="0.0,147.0 0.0,122.2 13.9,122.9 18.8,131.5 17.1,140.4" fill="#1f4e6b" stroke="#1f4e6b" stroke-width="0.5"/><polygon points="17.1,140.4 18.8,131.5 38.6,127.9 43.6,134.9 27.1,151.4" fill="#1f4e6b" stroke="#1f4e6b" stroke-width="0.5"/><polygon points="47.7,141.6 64.0,115.6 74.7,120.1 76.3,126.2 59.5,143.0" fill="#3d7ea6" stroke="#3d7ea6" stroke-width="0.5"/><polygon points="59.5,143.0 76.3,126.2 87.1,138.3 71.4,151.7" fill="#3d7ea6" stroke="#3d7ea6" stroke-width="0.5"/><polygon points="88.3,138.5 103.7,125.6 112.5,132.2 112.5,146.8 96.6,150.8" fill="#6098b8" stroke="#6098b8" stroke-width="0.5"/><polygon points="112.5,146.8 112.5,132.2 132.8,127.1 132.8,150.6 121.2,153.4" fill="#6098b8" stroke="#6098b8" stroke-width="0.5"/><polygon points="132.7,149.3 132.7,131.4 149.7,126.9 152.5,128.1 158.0,141.8 154.8,147.0" fill="#6098b8" stroke="#6098b8" stroke-width="0.5"/><polygon points="157.9,141.8 152.5,128.1 167.7,117.0 178.9,128.2 172.1,141.8" fill="#4a7a45" stroke="#4a7a45" stroke-width="0.5"/><polygon points="172.1,141.8 178.9,128.2 191.3,126.5 197.0,140.9 194.2,147.8 178.3,150.0" fill="#426c3e" stroke="#426c3e" stroke-width="0.5"/><polygon points="197.0,140.9 191.3,126.5 196.6,118.2 218.7,128.0 215.9,138.9" fill="#589153" stroke="#589153" stroke-width="0.5"/><polygon points="215.9,138.9 218.7,128.0 226.3,122.2 236.8,126.2 239.7,147.6 222.9,152.9" fill="#bbb475" stroke="#bbb475" stroke-width="0.5"/><polygon points="239.7,147.6 236.8,126.2 247.5,122.0 258.8,126.5 258.8,142.3 246.6,150.3" fill="#666059" stroke="#666059" stroke-width="0.5"/><polygon points="258.8,142.3 258.8,126.5 267.3,121.3 287.3,131.9 287.7,137.2 283.7,145.1 275.6,149.7" fill="#365832" stroke="#365832" stroke-width="0.5"/><polygon points="287.7,137.2 287.3,131.9 292.4,124.4 312.2,121.1 317.5,125.4 315.6,145.1" fill="#51864c" stroke="#51864c" stroke-width="0.5"/><polygon points="315.5,146.7 317.5,125.4 331.4,121.7 339.1,127.7 340.5,141.7 334.2,149.8" fill="#4d7f48" stroke="#4d7f48" stroke-width="0.5"/><polygon points="340.5,141.7 339.1,127.7 354.7,120.9 365.2,131.2 361.7,143.0" fill="#426c3e" stroke="#426c3e" stroke-width="0.5"/><polygon points="362.4,144.7 361.7,143.0 365.2,131.2 375.2,127.1 392.5,143.6 381.4,152.7" fill="#457140" stroke="#457140" stroke-width="0.5"/><polygon points="375.2,127.1 380.5,116.0 393.3,115.2 402.8,129.5 399.8,138.6 392.6,143.7" fill="#4a7a45" stroke="#4a7a45" stroke-width="0.5"/><polygon points="399.8,138.6 402.8,129.5 416.7,123.6 426.2,128.5 430.0,138.5 419.2,149.2" fill="#7aa166" stroke="#7aa166" stroke-width="0.5"/><polygon points="430.0,138.5 426.2,128.5 441.1,112.9 441.1,113.0 453.5,124.1 442.9,142.4" fill="#7ba367" stroke="#7ba367" stroke-width="0.5"/><polygon points="442.9,142.4 453.5,124.1 461.8,123.5 468.5,145.6 447.1,149.4" fill="#6098b8" stroke="#6098b8" stroke-width="0.5"/><polygon points="468.5,145.6 461.7,123.3 483.2,122.4 482.6,146.2 473.9,148.6" fill="#4c7d47" stroke="#4c7d47" stroke-width="0.5"/><polygon points="482.6,146.2 483.2,121.8 504.8,124.5 500.4,147.7 491.5,149.6" fill="#938669" stroke="#938669" stroke-width="0.5"/><polygon points="505.4,121.5 521.0,125.8 526.9,132.9 526.0,145.9 500.3,148.4" fill="#3d7ea6" stroke="#3d7ea6" stroke-width="0.5"/><polygon points="525.8,148.5 526.9,132.9 544.9,127.3 550.2,131.8 553.5,148.5" fill="#1f4e6b" stroke="#1f4e6b" stroke-width="0.5"/><polygon points="576.0,120.5 576.0,144.3 552.9,145.4 550.2,131.8" fill="#1f4e6b" stroke="#1f4e6b" stroke-width="0.5"/><polygon points="0.0,161.2 0.0,147.0 17.1,140.4 27.1,151.4 28.2,157.7 20.5,167.4" fill="#1f4e6b" stroke="#1f4e6b" stroke-width="0.5"/><polygon points="28.2,157.7 27.1,151.4 43.6,134.9 55.1,139.6 46.7,161.4" fill="#1f4e6b" stroke="#1f4e6b" stroke-width="0.5"/><polygon points="46.7,161.4 54.0,142.4 59.5,143.0 71.4,151.7 73.1,164.5 49.6,166.0" fill="#3d7ea6" stroke="#3d7ea6" stroke-width="0.5"/><polygon points="73.2,165.6 71.4,151.7 87.1,138.3 88.3,138.5 96.6,150.8 93.5,167.6" fill="#64a55e" stroke="#64a55e" stroke-width="0.5"/><polygon points="94.0,164.7 96.6,150.8 112.5,146.8 121.2,153.4 115.7,167.0" fill="#82955a" stroke="#82955a" stroke-width="0.5"/><polygon points="119.8,176.8 115.7,167.0 121.2,153.4 131.7,150.9 138.5,164.5 127.0,182.8" fill="#558c50" stroke="#558c50" stroke-width="0.5"/><polygon points="138.5,164.5 131.0,149.5 154.8,147.0 158.5,168.5" fill="#52874d" stroke="#52874d" stroke-width="0.5"/><polygon points="158.0,165.5 154.8,147.0 158.0,141.8 172.1,141.8 178.3,150.0 174.9,163.3 169.2,167.3" fill="#86b170" stroke="#86b170" stroke-width="0.5"/><polygon points="174.9,163.3 178.3,150.0 194.2,147.8 200.7,160.6 194.6,169.9" fill="#a3d788" stroke="#a3d788" stroke-width="0.5"/><polygon points="200.7,160.6 194.2,147.8 197.0,140.9 215.9,138.9 222.9,152.9 219.7,159.7" fill="#5c9857" stroke="#5c9857" stroke-width="0.5"/><polygon points="222.9,168.6 219.7,159.7 222.9,152.9 239.7,147.6 246.6,150.3 251.2,167.9 244.4,174.8" fill="#c2bb79" stroke="#c2bb79" stroke-width="0.5"/><polygon points="251.2,167.9 246.6,150.3 258.8,142.3 275.6,149.7 271.4,165.6 262.7,169.6" fill="#99935f" stroke="#99935f" stroke-width="0.5"/><polygon points="271.4,165.6 275.6,149.7 283.7,145.1 300.1,165.0 285.9,176.2" fill="#746e65" stroke="#746e65" stroke-width="0.5"/><polygon points="300.1,165.0 283.7,145.1 287.7,137.2 317.2,145.6 307.4,165.1" fill="#355631" stroke="#355631" stroke-width="0.5"/><polygon points="307.4,165.1 316.6,146.9 334.2,149.8 340.1,165.1 335.2,173.8 312.5,171.9" fill="#3e673b" stroke="#3e673b" stroke-width="0.5"/><polygon points="340.1,165.1 334.2,149.8 340.5,141.7 361.7,143.0 362.4,144.7 356.6,164.4" fill="#4e8049" stroke="#4e8049" stroke-width="0.5"/><polygon points="362.4,144.7 381.4,152.7 381.0,155.8 371.2,167.2 361.3,168.7 356.6,164.4" fill="#416a3d" stroke="#416a3d" stroke-width="0.5"/><polygon points="381.0,155.8 381.4,152.7 392.7,143.4 403.6,164.7 393.4,173.8" fill="#4a7a46" stroke="#4a7a46" stroke-width="0.5"/><polygon points="403.6,164.7 392.8,143.6 399.8,138.6 419.2,149.2 419.2,164.5" fill="#79a065" stroke="#79a065" stroke-width="0.5"/><polygon points="419.2,166.5 419.2,149.2 430.0,138.5 442.9,142.4 447.1,149.4 446.4,155.1 435.0,166.5" fill="#667547" stroke="#667547" stroke-width="0.5"/><polygon points="446.4,155.1 447.1,149.4 468.5,145.6 473.9,148.6 468.7,168.7 463.4,171.4" fill="#6098b8" stroke="#6098b8" stroke-width="0.5"/><polygon points="468.7,168.7 473.9,148.6 482.6,146.2 491.5,149.6 488.6,176.4" fill="#426c3e" stroke="#426c3e" stroke-width="0.5"/><polygon points="488.6,176.8 491.5,149.6 501.1,147.6 510.4,168.4 505.5,175.1" fill="#8f8366" stroke="#8f8366" stroke-width="0.5"/><polygon points="510.4,168.4 501.4,148.3 527.8,145.8 527.1,165.7" fill="#3d7ea6" stroke="#3d7ea6" stroke-width="0.5"/><polygon points="527.0,168.8 527.7,148.5 550.8,148.5 553.2,168.8" fill="#1f4e6b" stroke="#1f4e6b" stroke-width="0.5"/><polygon points="576.0,144.3 576.0,165.7 552.7,164.7 550.5,145.5" fill="#1f4e6b" stroke="#1f4e6b" stroke-width="0.5"/><polygon points="0.0,188.7 0.0,161.2 20.5,167.4 23.0,183.8" fill="#1f4e6b" stroke="#1f4e6b" stroke-width="0.5"/><polygon points="22.8,182.6 20.5,167.4 28.2,157.7 46.7,161.4 49.6,166.0 47.0,183.8" fill="#1f4e6b" stroke="#1f4e6b" stroke-width="0.5"/><polygon points="46.5,187.7 49.6,166.0 74.6,164.4 68.2,187.9" fill="#3d7ea6" stroke="#3d7ea6" stroke-width="0.5"/><polygon points="68.2,187.9 74.3,165.7 91.5,167.4 95.6,186.7 73.3,192.7" fill="#5b9555" stroke="#5b9555" stroke-width="0.5"/><polygon points="95.3,185.0 90.8,164.3 115.7,167.0 119.8,176.8" fill="#5c9756" stroke="#5c9756" stroke-width="0.5"/><polygon points="98.2,193.1 94.0,185.4 119.8,176.8 127.3,183.0 111.9,197.4" fill="#599253" stroke="#599253" stroke-width="0.5"/><polygon points="125.2,185.8 138.5,164.5 154.7,167.7 150.4,183.4" fill="#5a9354" stroke="#5a9354" stroke-width="0.5"/><polygon points="150.5,183.3 155.4,165.0 169.2,167.3 173.2,182.2 157.5,192.7" fill="#5b9655" stroke="#5b9655" stroke-width="0.5"/><polygon points="173.2,182.2 169.2,167.3 174.9,163.3 194.6,169.9 196.0,184.5 182.5,187.5" fill="#65a65f" stroke="#65a65f" stroke-width="0.5"/><polygon points="195.8,182.8 194.6,169.9 200.7,160.6 219.7,159.7 222.9,168.6 217.4,182.1" fill="#c0b978" stroke="#c0b978" stroke-width="0.5"/><polygon points="217.4,182.1 222.9,168.6 244.4,174.8 243.9,186.3 236.7,192.5 222.1,191.4" fill="#cbc37f" stroke="#cbc37f" stroke-width="0.5"/><polygon points="243.9,186.3 244.4,174.8 251.2,167.9 262.7,169.6 268.1,201.1" fill="#a79e92" stroke="#a79e92" stroke-width="0.5"/><polygon points="266.7,193.0 262.7,169.6 271.4,165.6 285.9,176.2 285.9,181.6" fill="#aea498" stroke="#aea498" stroke-width="0.5"/><polygon points="285.9,181.6 285.9,176.2 300.1,165.0 307.4,165.1 312.5,171.9 309.6,189.6 300.8,195.7 295.1,193.7" fill="#8b8379" stroke="#8b8379" stroke-width="0.5"/><polygon points="309.6,189.6 312.5,171.9 335.2,173.8 337.4,184.3 327.4,196.4" fill="#5c5751" stroke="#5c5751" stroke-width="0.5"/><polygon points="337.4,184.3 335.2,173.8 340.1,165.1 356.6,164.4 361.3,168.7 361.7,186.1 355.1,192.5" fill="#708154" stroke="#708154" stroke-width="0.5"/><polygon points="361.7,186.1 361.3,168.7 371.2,167.2 383.2,179.2 377.5,187.5" fill="#457241" stroke="#457241" stroke-width="0.5"/><polygon points="371.2,167.2 381.0,155.8 394.1,175.0 383.2,179.2" fill="#467442" stroke="#467442" stroke-width="0.5"/><polygon points="392.3,174.8 403.6,164.7 421.4,164.5 418.7,183.1 412.4,187.8 399.2,184.4" fill="#487643" stroke="#487643" stroke-width="0.5"/><polygon points="418.7,183.1 421.1,166.5 435.0,166.5 445.2,182.6 436.6,194.5" fill="#647345" stroke="#647345" stroke-width="0.5"/><polygon points="445.2,182.6 435.0,166.5 446.4,155.1 463.4,171.4 458.5,180.8" fill="#6098b8" stroke="#6098b8" stroke-width="0.5"/><polygon points="458.5,180.8 463.4,171.4 468.7,168.7 488.9,176.5 486.2,190.6 465.8,194.0" fill="#568e51" stroke="#568e51" stroke-width="0.5"/><polygon points="484.9,197.7 488.9,176.8 505.5,175.1 513.6,190.2 506.2,198.3" fill="#9b8e6f" stroke="#9b8e6f" stroke-width="0.5"/><polygon points="513.6,190.2 505.5,175.1 510.4,168.4 530.4,165.1 528.2,190.7" fill="#3d7ea6" stroke="#3d7ea6" stroke-width="0.5"/><polygon points="528.2,191.5 530.1,168.8 549.4,168.8 552.4,183.7 545.3,193.5" fill="#1f4e6b" stroke="#1f4e6b" stroke-width="0.5"/><polygon points="576.0,165.7 576.0,187.1 552.4,183.7 548.6,164.5" fill="#1f4e6b" stroke="#1f4e6b" stroke-width="0.5"/><polygon points="0.0,203.1 0.0,188.7 21.7,184.1 24.7,210.6" fill="#1f4e6b" stroke="#1f4e6b" stroke-width="0.5"/><polygon points="24.3,207.6 21.6,182.5 50.9,184.0 46.4,205.1" fill="#1f4e6b" stroke="#1f4e6b" stroke-width="0.5"/><polygon points="46.4,205.1 50.1,187.7 68.2,187.9 73.3,192.7 74.0,206.6 65.1,213.7 52.8,214.6" fill="#3d7ea6" stroke="#3d7ea6" stroke-width="0.5"/><polygon points="74.0,206.6 73.3,192.7 94.8,186.9 98.2,193.1 93.5,209.0 85.5,212.1" fill="#609d5a" stroke="#609d5a" stroke-width="0.5"/><polygon points="93.5,209.0 98.2,193.1 111.9,197.4 116.2,211.9 107.8,218.3" fill="#5d9957" stroke="#5d9957" stroke-width="0.5"/><polygon points="116.2,211.9 111.9,197.4 127.3,183.0 129.3,183.4 135.3,203.8 128.3,213.2" fill="#5a9555" stroke="#5a9555" stroke-width="0.5"/><polygon points="135.3,203.8 129.9,185.3 150.4,183.3 157.5,192.8 157.5,204.9" fill="#589253" stroke="#589253" stroke-width="0.5"/><polygon points="157.5,204.8 157.5,192.8 173.3,182.2 182.5,187.5 176.2,204.8" fill="#5f9d59" stroke="#5f9d59" stroke-width="0.5"/><polygon points="176.3,204.8 182.5,187.5 194.5,184.8 199.4,200.0 194.1,210.7 185.5,214.0" fill="#9f968a" stroke="#9f968a" stroke-width="0.5"/><polygon points="199.4,200.0 193.9,182.8 217.4,182.1 222.1,191.4 217.1,201.9" fill="#9d9489" stroke="#9d9489" stroke-width="0.5"/><polygon points="217.1,201.9 222.1,191.4 236.7,192.5 240.2,214.7 219.3,209.5" fill="#aea76c" stroke="#aea76c" stroke-width="0.5"/><polygon points="240.6,217.0 236.7,192.5 243.9,186.3 263.9,198.6 264.1,199.4" fill="#b2a89b" stroke="#b2a89b" stroke-width="0.5"/><polygon points="264.1,199.4 263.4,195.0 285.9,181.6 295.1,193.7 273.6,209.1" fill="#aca396" stroke="#aca396" stroke-width="0.5"/><polygon points="274.6,212.7 273.6,209.1 295.1,193.7 300.8,195.7 303.3,209.7 290.3,218.4" fill="#ffffff" stroke="#ffffff" stroke-width="0.5"/><polygon points="303.3,209.7 300.8,195.7 309.6,189.6 327.4,196.4 328.9,208.6 308.9,213.6" fill="#9ea1a4" stroke="#9ea1a4" stroke-width="0.5"/><polygon points="329.4,212.1 327.4,196.4 337.4,184.3 355.1,192.5 356.0,204.8 346.8,213.1" fill="#708154" stroke="#708154" stroke-width="0.5"/><polygon points="356.0,204.8 355.1,192.5 361.7,186.1 377.5,187.5 385.4,206.8 374.1,212.6" fill="#3f683b" stroke="#3f683b" stroke-width="0.5"/><polygon points="385.4,206.9 377.5,187.5 383.2,179.2 392.8,175.5 399.2,184.4 389.8,204.3" fill="#477543" stroke="#477543" stroke-width="0.5"/><polygon points="389.8,204.3 399.2,184.4 412.4,187.8 411.2,203.4" fill="#416b3d" stroke="#416b3d" stroke-width="0.5"/><polygon points="411.2,203.4 412.4,187.8 418.7,183.1 436.6,194.5 436.8,197.4 418.3,211.7" fill="#487744" stroke="#487744" stroke-width="0.5"/><polygon points="436.8,197.4 436.6,194.5 445.2,182.6 458.5,180.8 465.8,194.0 462.6,204.0 445.5,206.2" fill="#599354" stroke="#599354" stroke-width="0.5"/><polygon points="462.6,204.0 465.8,194.0 493.1,189.4 487.1,211.5 467.1,211.5" fill="#548a4f" stroke="#548a4f" stroke-width="0.5"/><polygon points="491.8,220.8 487.1,211.5 490.8,197.9 506.2,198.3 511.5,212.6 504.9,220.1" fill="#345631" stroke="#345631" stroke-width="0.5"/><polygon points="511.5,212.6 506.2,198.3 513.6,190.2 529.3,190.8 525.8,213.2" fill="#3d7ea6" stroke="#3d7ea6" stroke-width="0.5"/><polygon points="530.2,218.3 525.8,213.2 529.1,191.6 545.3,193.5 551.5,206.4 550.9,207.9" fill="#3d7ea6" stroke="#3d7ea6" stroke-width="0.5"/><polygon points="576.0,187.1 576.0,203.3 551.5,206.4 545.3,193.5 552.4,183.7" fill="#1f4e6b" stroke="#1f4e6b" stroke-width="0.5"/><polygon points="0.0,223.7 0.0,203.1 22.5,210.0 21.2,222.5" fill="#1f4e6b" stroke="#1f4e6b" stroke-width="0.5"/><polygon points="21.2,222.5 22.8,207.7 46.4,205.1 52.8,214.6 47.5,228.8 41.8,232.5 22.9,225.8" fill="#1f4e6b" stroke="#1f4e6b" stroke-width="0.5"/><polygon points="47.5,228.8 52.8,214.6 65.1,213.7 74.0,232.8 66.1,239.1" fill="#3d7ea6" stroke="#3d7ea6" stroke-width="0.5"/><polygon points="74.0,232.8 65.1,213.7 74.0,206.6 85.5,212.1 85.5,232.3" fill="#fae6b3" stroke="#fae6b3" stroke-width="0.5"/><polygon points="85.5,229.5 85.5,212.1 93.5,209.0 107.8,218.3 105.8,229.5" fill="#64a45e" stroke="#64a45e" stroke-width="0.5"/><polygon points="105.6,230.9 107.8,218.3 116.2,211.9 128.3,213.2 135.1,228.8 125.4,238.9" fill="#5a9454" stroke="#5a9454" stroke-width="0.5"/><polygon points="135.1,228.8 128.3,213.2 135.3,203.8 157.4,204.9 156.7,220.7 146.2,230.1" fill="#5d9957" stroke="#5d9957" stroke-width="0.5"/><polygon points="156.7,220.7 157.4,204.8 176.2,204.8 185.5,214.0 182.0,225.7 175.1,230.4" fill="#b7d58a" stroke="#b7d58a" stroke-width="0.5"/><polygon points="182.0,225.7 185.5,214.0 194.1,210.7 210.9,223.1 211.4,227.7 200.9,236.8" fill="#cac37e" stroke="#cac37e" stroke-width="0.5"/><polygon points="194.1,210.7 199.4,200.0 217.1,201.9 219.3,209.5 210.9,223.1" fill="#f6fafe" stroke="#f6fafe" stroke-width="0.5"/><polygon points="211.4,227.7 210.9,223.1 219.3,209.5 241.4,215.0 242.0,219.2 223.5,234.0" fill="#ffffff" stroke="#ffffff" stroke-width="0.5"/><polygon points="242.0,219.2 241.6,216.2 264.1,199.4 273.6,209.1 274.6,212.7 270.7,221.3 253.3,230.0 251.5,229.8" fill="#ffffff" stroke="#ffffff" stroke-width="0.5"/><polygon points="270.7,221.3 274.6,212.7 290.3,218.4 294.9,241.4 279.4,239.2" fill="#f9fdff" stroke="#f9fdff" stroke-width="0.5"/><polygon points="293.7,235.6 290.3,218.4 303.3,209.7 308.9,213.6 310.9,227.9 304.4,235.2" fill="#ffffff" stroke="#ffffff" stroke-width="0.5"/><polygon points="310.9,227.9 308.9,213.6 334.1,207.3 327.4,230.5" fill="#ebeff3" stroke="#ebeff3" stroke-width="0.5"/><polygon points="327.4,230.5 332.7,212.3 346.8,213.1 352.7,234.1 331.5,238.6" fill="#9ea1a4" stroke="#9ea1a4" stroke-width="0.5"/><polygon points="353.5,237.0 346.8,213.1 356.0,204.8 374.1,212.6 370.5,232.1" fill="#708154" stroke="#708154" stroke-width="0.5"/><polygon points="370.5,232.1 374.1,212.6 385.5,206.8 399.0,226.8 382.8,241.1" fill="#8aa168" stroke="#8aa168" stroke-width="0.5"/><polygon points="399.0,226.8 385.5,206.8 389.8,204.3 411.2,203.4 418.3,211.7 418.3,217.6 404.8,227.6" fill="#477643" stroke="#477643" stroke-width="0.5"/><polygon points="418.3,217.6 418.3,211.7 436.8,197.4 445.6,206.2 442.8,222.3 427.5,224.2" fill="#4b7c47" stroke="#4b7c47" stroke-width="0.5"/><polygon points="442.8,222.3 445.6,206.2 462.6,204.0 467.1,211.5 463.9,227.2 447.8,227.2" fill="#53884d" stroke="#53884d" stroke-width="0.5"/><polygon points="464.0,226.8 467.1,211.5 487.1,211.5 491.8,220.8 490.0,224.8 481.5,231.2" fill="#44703f" stroke="#44703f" stroke-width="0.5"/><polygon points="502.6,245.9 490.0,224.8 491.8,220.8 504.9,220.1 515.4,238.3" fill="#345631" stroke="#345631" stroke-width="0.5"/><polygon points="513.9,235.6 504.9,220.0 511.5,212.6 525.8,213.2 531.4,219.6" fill="#8f8366" stroke="#8f8366" stroke-width="0.5"/><polygon points="529.2,218.8 550.9,207.9 557.5,234.4 538.9,231.8" fill="#1f4e6b" stroke="#1f4e6b" stroke-width="0.5"/><polygon points="576.0,203.3 576.0,227.2 555.8,227.2 550.9,207.9 551.5,206.4" fill="#1f4e6b" stroke="#1f4e6b" stroke-width="0.5"/><polygon points="0.0,247.3 0.0,223.7 21.2,222.5 22.9,225.8 14.2,246.7" fill="#1f4e6b" stroke="#1f4e6b" stroke-width="0.5"/><polygon points="14.2,246.7 22.9,225.8 41.8,232.5 40.9,247.9 22.5,255.0" fill="#1f4e6b" stroke="#1f4e6b" stroke-width="0.5"/><polygon points="40.9,247.9 41.8,232.5 47.5,228.8 66.1,239.1 64.8,255.1 50.5,257.5" fill="#3d7ea6" stroke="#3d7ea6" stroke-width="0.5"/><polygon points="64.7,257.1 66.1,239.1 74.0,232.8 82.6,232.4 88.1,247.5 84.0,253.5" fill="#fff3bd" stroke="#fff3bd" stroke-width="0.5"/><polygon points="88.1,247.5 81.5,229.5 107.5,229.5 100.9,247.5" fill="#53884d" stroke="#53884d" stroke-width="0.5"/><polygon points="100.9,247.5 106.8,231.4 125.4,238.9 125.6,246.9 109.9,258.7 108.4,258.5" fill="#558b4f" stroke="#558b4f" stroke-width="0.5"/><polygon points="125.6,246.9 125.4,238.9 135.1,228.8 146.2,230.1 154.4,249.6 149.9,254.8 134.0,254.8" fill="#bedc8f" stroke="#bedc8f" stroke-width="0.5"/><polygon points="154.4,249.6 146.2,230.1 156.7,220.7 175.1,230.4 172.8,244.9 169.3,249.0" fill="#c8e897" stroke="#c8e897" stroke-width="0.5"/><polygon points="172.8,244.9 175.1,230.4 182.0,225.7 200.9,236.8 199.2,249.5" fill="#ffffff" stroke="#ffffff" stroke-width="0.5"/><polygon points="199.9,251.3 199.2,249.5 200.9,236.8 211.4,227.7 223.5,234.0 226.6,243.6 218.0,256.5" fill="#ffffff" stroke="#ffffff" stroke-width="0.5"/><polygon points="226.6,243.6 223.5,234.0 242.0,219.2 251.5,229.8 242.6,247.5" fill="#ffffff" stroke="#ffffff" stroke-width="0.5"/><polygon points="245.5,253.7 242.6,247.5 251.5,229.8 253.3,230.0 267.9,246.4 264.6,257.0" fill="#ccd0d3" stroke="#ccd0d3" stroke-width="0.5"/><polygon points="253.3,230.0 270.7,221.3 279.4,239.2 267.9,246.4" fill="#ffffff" stroke="#ffffff" stroke-width="0.5"/><polygon points="291.2,254.5 287.5,235.9 304.4,235.2 314.2,250.3 309.1,259.0" fill="#ffffff" stroke="#ffffff" stroke-width="0.5"/><polygon points="314.2,250.3 304.4,235.2 310.9,227.9 327.4,230.5 331.5,238.6 328.9,246.3" fill="#ffffff" stroke="#ffffff" stroke-width="0.5"/><polygon points="328.9,246.3 331.5,238.6 356.4,233.3 355.5,256.5 335.4,256.5" fill="#9ea1a4" stroke="#9ea1a4" stroke-width="0.5"/><polygon points="355.5,256.5 356.2,236.2 370.5,232.1 382.8,241.1 383.5,245.0 378.0,255.7 359.4,261.5" fill="#7c8177" stroke="#7c8177" stroke-width="0.5"/><polygon points="383.5,245.0 382.8,241.1 399.0,226.8 404.8,227.6 412.4,247.1 404.0,254.7" fill="#3f673b" stroke="#3f673b" stroke-width="0.5"/><polygon points="412.4,247.1 404.8,227.6 418.3,217.6 427.5,224.2 427.5,248.2" fill="#416b3d" stroke="#416b3d" stroke-width="0.5"/><polygon points="427.5,245.2 427.5,224.2 442.8,222.3 447.8,227.3 443.2,245.2" fill="#487643" stroke="#487643" stroke-width="0.5"/><polygon points="442.5,248.3 447.8,227.2 463.5,227.2 463.5,249.3" fill="#52874d" stroke="#52874d" stroke-width="0.5"/><polygon points="463.5,250.3 463.5,226.7 481.5,231.2 481.5,245.8" fill="#457241" stroke="#457241" stroke-width="0.5"/><polygon points="481.5,245.8 481.5,231.2 490.0,224.8 503.6,247.6 490.0,252.2" fill="#345631" stroke="#345631" stroke-width="0.5"/><polygon points="511.2,238.1 530.4,220.5 538.9,231.7 527.6,248.1" fill="#3d7ea6" stroke="#3d7ea6" stroke-width="0.5"/><polygon points="530.1,255.3 527.6,248.1 538.9,231.8 549.7,233.3 554.0,249.8 549.0,256.2" fill="#3d7ea6" stroke="#3d7ea6" stroke-width="0.5"/><polygon points="576.0,227.2 576.0,249.8 554.0,249.8 548.1,227.2" fill="#1f4e6b" stroke="#1f4e6b" stroke-width="0.5"/><polygon points="0.0,273.4 0.0,247.3 14.2,246.7 22.5,255.0 22.5,271.1 13.5,275.6" fill="#1f4e6b" stroke="#1f4e6b" stroke-width="0.5"/><polygon points="22.5,271.1 22.5,255.0 40.9,247.9 49.5,256.5 30.7,275.2" fill="#1f4e6b" stroke="#1f4e6b" stroke-width="0.5"/><polygon points="51.8,257.2 66.5,254.8 70.5,269.7 66.6,280.4 56.4,283.1 51.8,278.9" fill="#3d7ea6" stroke="#3d7ea6" stroke-width="0.5"/><polygon points="70.5,269.7 67.0,256.7 84.0,253.5 93.7,270.9 93.3,272.2" fill="#cdbc92" stroke="#cdbc92" stroke-width="0.5"/><polygon points="93.7,270.9 84.0,253.5 88.1,247.5 100.9,247.5 108.4,258.5" fill="#52884d" stroke="#52884d" stroke-width="0.5"/><polygon points="109.9,258.7 125.6,246.9 134.0,254.8 128.3,274.9 122.4,275.7" fill="#c6cebd" stroke="#c6cebd" stroke-width="0.5"/><polygon points="126.9,279.9 134.0,254.8 149.9,254.8 151.3,270.9" fill="#dae3d0" stroke="#dae3d0" stroke-width="0.5"/><polygon points="151.3,270.9 149.9,254.8 154.4,249.6 169.3,249.0 176.1,266.9 173.5,271.5 156.5,275.3" fill="#bbc3b3" stroke="#bbc3b3" stroke-width="0.5"/><polygon points="176.1,266.9 169.3,249.0 172.8,244.9 199.2,249.5 199.9,251.3 193.2,265.7" fill="#a1a4a6" stroke="#a1a4a6" stroke-width="0.5"/><polygon points="199.9,277.4 193.2,265.7 199.9,251.3 218.0,256.5 221.5,265.5 218.1,274.2" fill="#6a6642" stroke="#6a6642" stroke-width="0.5"/><polygon points="221.5,265.5 218.0,256.5 226.6,243.6 242.6,247.5 245.5,253.7 239.6,265.5" fill="#c0c3c6" stroke="#c0c3c6" stroke-width="0.5"/><polygon points="244.7,275.7 239.6,265.5 245.5,253.7 264.6,257.0 267.6,262.9 263.2,274.0" fill="#6a6642" stroke="#6a6642" stroke-width="0.5"/><polygon points="264.6,257.0 267.9,246.4 279.4,239.2 288.4,240.5 291.2,254.5 283.9,264.2 267.6,262.9" fill="#ffffff" stroke="#ffffff" stroke-width="0.5"/><polygon points="283.9,264.2 291.2,254.5 309.1,259.0 311.7,270.9 291.8,279.8" fill="#ffffff" stroke="#ffffff" stroke-width="0.5"/><polygon points="311.7,270.9 309.1,259.0 314.2,250.3 328.9,246.3 335.4,256.5 331.1,270.4 316.3,273.9" fill="#ffffff" stroke="#ffffff" stroke-width="0.5"/><polygon points="331.1,270.4 335.4,256.5 355.5,256.5 361.0,263.5 353.7,273.6 337.5,276.2" fill="#9ea1a4" stroke="#9ea1a4" stroke-width="0.5"/><polygon points="355.4,262.8 378.0,255.7 386.4,270.8 383.2,281.3 379.4,283.4" fill="#8b9185" stroke="#8b9185" stroke-width="0.5"/><polygon points="386.4,270.8 378.0,255.7 383.5,245.0 404.0,254.7 403.4,263.2" fill="#7c8177" stroke="#7c8177" stroke-width="0.5"/><polygon points="403.4,263.2 404.0,254.7 412.4,247.1 424.1,248.0 428.2,266.0 420.5,273.9 410.8,272.9" fill="#8ea56b" stroke="#8ea56b" stroke-width="0.5"/><polygon points="428.2,266.0 423.5,245.2 447.0,245.2 443.4,268.2" fill="#416b3d" stroke="#416b3d" stroke-width="0.5"/><polygon points="443.4,268.2 446.5,248.5 464.3,249.3 466.2,265.6 447.8,273.0" fill="#3c6338" stroke="#3c6338" stroke-width="0.5"/><polygon points="466.2,265.6 464.4,250.1 481.5,245.8 490.0,252.2 485.8,266.4 471.5,269.3" fill="#345631" stroke="#345631" stroke-width="0.5"/><polygon points="485.8,266.4 490.0,252.2 500.9,248.5 511.9,267.2 505.7,275.2 494.5,275.6" fill="#8f8366" stroke="#8f8366" stroke-width="0.5"/><polygon points="500.2,247.3 513.5,239.5 527.6,248.1 530.1,255.3 524.9,264.7 511.9,267.2" fill="#8f8366" stroke="#8f8366" stroke-width="0.5"/><polygon points="533.0,279.1 524.9,264.7 530.1,255.3 549.0,256.2 553.1,270.8 544.0,281.1" fill="#3d7ea6" stroke="#3d7ea6" stroke-width="0.5"/><polygon points="576.0,249.8 576.0,275.4 553.1,270.8 549.0,256.2 554.0,249.8" fill="#1f4e6b" stroke="#1f4e6b" stroke-width="0.5"/><polygon points="13.5,302.3 13.5,275.6 22.5,271.1 32.2,276.0 33.5,294.7 17.8,304.3" fill="#1f4e6b" stroke="#1f4e6b" stroke-width="0.5"/><polygon points="33.5,294.7 32.3,277.2 51.8,278.9 56.4,283.1 50.3,301.8" fill="#1f4e6b" stroke="#1f4e6b" stroke-width="0.5"/><polygon points="29.1,276.9 51.8,254.2 51.8,278.9" fill="#1f4e6b" stroke="#1f4e6b" stroke-width="0.5"/><polygon points="66.6,280.4 70.5,269.7 93.3,272.2 94.5,279.2 81.1,293.8" fill="#e5d2a3" stroke="#e5d2a3" stroke-width="0.5"/><polygon points="94.5,279.2 93.3,272.2 93.7,270.9 108.4,258.5 109.9,258.7 122.4,275.7 111.9,287.8" fill="#c8d0bf" stroke="#c8d0bf" stroke-width="0.5"/><polygon points="112.3,287.3 122.4,275.7 132.2,274.4 139.1,292.5 130.5,304.7" fill="#c9d2c1" stroke="#c9d2c1" stroke-width="0.5"/><polygon points="139.1,292.5 133.4,277.5 151.3,270.9 156.5,275.3 155.7,292.5" fill="#b9c1b1" stroke="#b9c1b1" stroke-width="0.5"/><polygon points="155.7,293.5 156.5,275.3 173.5,271.5 181.3,296.9" fill="#adb4a6" stroke="#adb4a6" stroke-width="0.5"/><polygon points="179.1,289.6 173.5,271.5 176.1,266.9 193.2,265.7 199.9,277.4 196.8,286.1" fill="#7c8177" stroke="#7c8177" stroke-width="0.5"/><polygon points="205.5,301.0 196.8,286.1 199.9,277.4 218.1,274.2 222.3,282.6 218.0,295.5" fill="#7c8177" stroke="#7c8177" stroke-width="0.5"/><polygon points="222.3,282.6 218.1,274.2 221.5,265.5 239.6,265.5 244.7,275.7 240.7,285.5" fill="#9ea1a4" stroke="#9ea1a4" stroke-width="0.5"/><polygon points="242.8,291.9 240.7,285.5 244.7,275.7 263.2,274.0 266.9,283.5 263.6,294.1" fill="#7c8177" stroke="#7c8177" stroke-width="0.5"/><polygon points="266.9,283.5 263.2,274.0 267.6,262.9 283.9,264.2 291.8,279.8 290.5,283.5" fill="#9ea1a4" stroke="#9ea1a4" stroke-width="0.5"/><polygon points="291.4,287.7 290.5,283.5 291.8,279.8 311.7,270.9 316.3,273.9 317.8,291.3 303.5,299.2" fill="#9ea1a4" stroke="#9ea1a4" stroke-width="0.5"/><polygon points="317.8,291.3 316.3,273.9 331.1,270.4 337.5,276.2 337.5,289.9 327.4,296.8" fill="#9ea1a4" stroke="#9ea1a4" stroke-width="0.5"/><polygon points="337.5,289.9 337.5,276.2 353.7,273.6 357.4,297.2" fill="#9ea1a4" stroke="#9ea1a4" stroke-width="0.5"/><polygon points="356.9,293.6 353.7,273.6 359.2,266.1 379.4,283.4 376.4,288.5" fill="#7c8177" stroke="#7c8177" stroke-width="0.5"/><polygon points="383.2,281.3 386.4,270.8 403.4,263.2 410.8,272.9 400.9,288.5" fill="#a5ac9e" stroke="#a5ac9e" stroke-width="0.5"/><polygon points="403.1,293.9 400.9,288.5 410.8,272.9 420.5,273.9 428.2,292.2 421.7,296.5" fill="#a1a89a" stroke="#a1a89a" stroke-width="0.5"/><polygon points="428.2,292.2 420.5,273.9 428.2,266.0 443.4,268.2 447.8,273.0 447.3,283.3 434.0,293.2" fill="#858b7f" stroke="#858b7f" stroke-width="0.5"/><polygon points="447.3,283.3 447.8,273.0 466.2,265.6 471.5,269.3 471.5,288.7 463.6,294.1" fill="#7c8177" stroke="#7c8177" stroke-width="0.5"/><polygon points="471.5,288.7 471.5,269.3 485.8,266.4 494.5,275.6 486.4,291.7" fill="#7c8177" stroke="#7c8177" stroke-width="0.5"/><polygon points="490.9,299.2 486.4,291.7 494.5,275.6 505.7,275.2 513.4,292.1 506.2,299.2" fill="#8f8366" stroke="#8f8366" stroke-width="0.5"/><polygon points="513.4,292.1 505.7,275.2 511.9,267.2 524.9,264.7 533.0,279.1 521.6,292.7" fill="#3d7ea6" stroke="#3d7ea6" stroke-width="0.5"/><polygon points="529.3,303.0 521.6,292.7 533.0,279.1 544.0,281.1 549.4,294.7 546.3,300.6" fill="#1f4e6b" stroke="#1f4e6b" stroke-width="0.5"/><polygon points="576.0,275.4 576.0,293.3 549.4,294.7 544.0,281.1 553.1,270.8" fill="#1f4e6b" stroke="#1f4e6b" stroke-width="0.5"/><polygon points="0.0,303.9 0.0,273.4 13.5,275.6 13.5,302.3" fill="#1f4e6b" stroke="#1f4e6b" stroke-width="0.5"/><polygon points="17.8,304.3 33.5,294.7 50.1,301.8 49.6,308.9 38.6,320.3 22.7,316.1" fill="#1f4e6b" stroke="#1f4e6b" stroke-width="0.5"/><polygon points="50.4,301.5 56.4,283.1 66.6,280.4 82.4,294.9 76.2,301.5" fill="#3d7ea6" stroke="#3d7ea6" stroke-width="0.5"/><polygon points="65.2,323.4 49.6,308.9 50.1,301.5 76.2,301.5 73.5,320.5" fill="#1f4e6b" stroke="#1f4e6b" stroke-width="0.5"/><polygon points="79.7,295.3 94.5,279.2 111.4,287.5 102.6,306.0 97.8,307.7" fill="#bcc4b4" stroke="#bcc4b4" stroke-width="0.5"/><polygon points="102.6,306.0 111.8,286.8 130.5,304.7 130.5,308.9 118.8,315.0" fill="#abb2a3" stroke="#abb2a3" stroke-width="0.5"/><polygon points="130.5,308.9 130.5,304.7 139.1,292.5 157.0,292.5 152.7,313.6 137.7,314.8" fill="#a2a99b" stroke="#a2a99b" stroke-width="0.5"/><polygon points="152.7,313.6 156.8,293.7 175.0,296.1 180.1,313.0 157.5,317.5" fill="#9ba294" stroke="#9ba294" stroke-width="0.5"/><polygon points="178.2,306.9 173.5,290.7 196.8,286.1 205.5,301.0 202.6,310.4" fill="#adb4a5" stroke="#adb4a5" stroke-width="0.5"/><polygon points="202.4,311.2 205.5,301.0 218.0,295.5 236.5,307.6 236.6,308.4 220.5,322.2" fill="#7fa86a" stroke="#7fa86a" stroke-width="0.5"/><polygon points="218.0,295.5 222.3,282.6 240.7,285.5 242.8,291.9 236.5,307.6" fill="#546f46" stroke="#546f46" stroke-width="0.5"/><polygon points="236.6,308.4 236.5,307.6 242.8,291.9 263.6,294.1 266.9,302.3 259.7,311.7 245.3,314.5" fill="#c2cbba" stroke="#c2cbba" stroke-width="0.5"/><polygon points="266.9,302.3 263.6,294.1 266.9,283.5 290.5,283.5 291.4,287.7 276.9,304.6" fill="#7c8177" stroke="#7c8177" stroke-width="0.5"/><polygon points="276.9,304.6 291.4,287.7 303.5,299.2 302.9,307.0 284.6,314.6" fill="#81867b" stroke="#81867b" stroke-width="0.5"/><polygon points="302.9,307.0 303.5,299.2 317.8,291.3 327.4,296.8 329.8,311.2 312.0,318.8" fill="#7c8177" stroke="#7c8177" stroke-width="0.5"/><polygon points="330.0,312.4 327.4,296.8 337.5,289.9 354.8,296.3 354.5,305.0" fill="#9ea1a4" stroke="#9ea1a4" stroke-width="0.5"/><polygon points="354.4,307.4 354.8,294.1 376.4,288.5 381.4,306.0 374.6,312.5" fill="#7c8177" stroke="#7c8177" stroke-width="0.5"/><polygon points="381.4,306.0 376.4,288.5 379.4,283.4 383.2,281.3 400.9,288.5 403.1,293.9 396.9,309.0" fill="#83887d" stroke="#83887d" stroke-width="0.5"/><polygon points="396.9,309.0 403.1,293.9 421.7,296.5 417.1,321.6 400.7,316.1" fill="#7c8177" stroke="#7c8177" stroke-width="0.5"/><polygon points="417.0,322.2 421.7,296.5 428.2,292.2 434.0,293.2 440.9,307.8 429.1,325.2" fill="#7c8177" stroke="#7c8177" stroke-width="0.5"/><polygon points="440.9,307.8 434.0,293.2 447.3,283.3 463.6,294.1 461.6,311.1" fill="#7c8177" stroke="#7c8177" stroke-width="0.5"/><polygon points="461.9,308.6 463.6,294.1 471.5,288.7 486.4,291.7 490.9,299.2 486.2,311.1" fill="#7c8177" stroke="#7c8177" stroke-width="0.5"/><polygon points="487.1,313.9 486.2,311.1 490.9,299.2 506.2,299.2 512.0,322.2" fill="#3d7ea6" stroke="#3d7ea6" stroke-width="0.5"/><polygon points="511.8,321.3 506.2,299.2 513.4,292.1 521.6,292.7 529.3,303.0 526.3,314.7 513.2,321.3" fill="#3d7ea6" stroke="#3d7ea6" stroke-width="0.5"/><polygon points="526.3,314.7 529.3,303.0 546.3,300.6 551.1,316.0 535.5,320.8" fill="#1f4e6b" stroke="#1f4e6b" stroke-width="0.5"/><polygon points="576.0,293.3 576.0,314.5 551.7,318.0 546.3,300.6 549.4,294.7" fill="#1f4e6b" stroke="#1f4e6b" stroke-width="0.5"/><polygon points="0.0,334.9 0.0,303.9 13.5,302.3 17.8,304.3 22.7,316.1 12.2,335.5" fill="#1f4e6b" stroke="#1f4e6b" stroke-width="0.5"/><polygon points="11.8,336.3 22.7,316.1 38.6,320.3 43.2,339.6" fill="#1f4e6b" stroke="#1f4e6b" stroke-width="0.5"/><polygon points="42.4,336.4 38.6,320.3 49.6,308.9 65.2,323.4 60.0,334.4" fill="#1f4e6b" stroke="#1f4e6b" stroke-width="0.5"/><polygon points="73.5,320.5 76.2,301.5 81.1,296.3 97.8,307.7 92.2,327.1 89.1,328.6" fill="#3d7ea6" stroke="#3d7ea6" stroke-width="0.5"/><polygon points="92.2,327.1 97.8,307.7 102.6,306.0 118.8,315.0 113.0,333.5" fill="#b8a983" stroke="#b8a983" stroke-width="0.5"/><polygon points="113.0,333.5 118.8,315.0 130.5,308.9 137.7,314.8 137.0,335.8 130.8,339.5 114.5,335.9" fill="#a7ae9f" stroke="#a7ae9f" stroke-width="0.5"/><polygon points="137.0,335.8 137.7,314.8 152.7,313.6 157.5,317.5 157.5,336.9 152.4,339.8" fill="#a4ab9d" stroke="#a4ab9d" stroke-width="0.5"/><polygon points="157.5,336.9 157.5,317.5 174.4,314.1 180.5,330.9 173.4,340.3" fill="#b2b9aa" stroke="#b2b9aa" stroke-width="0.5"/><polygon points="180.5,330.9 171.4,305.9 203.6,310.5 193.9,329.9" fill="#bac2b2" stroke="#bac2b2" stroke-width="0.5"/><polygon points="193.9,329.8 203.1,311.6 220.5,322.2 222.0,335.0 204.6,344.0" fill="#6098b8" stroke="#6098b8" stroke-width="0.5"/><polygon points="222.0,335.0 220.5,322.2 236.6,308.4 245.3,314.5 246.4,336.1 230.0,340.1" fill="#cbd4c2" stroke="#cbd4c2" stroke-width="0.5"/><polygon points="246.3,333.5 245.3,314.5 259.7,311.7 268.8,329.8 264.2,334.3" fill="#c5cebd" stroke="#c5cebd" stroke-width="0.5"/><polygon points="268.8,329.8 259.7,311.7 266.9,302.3 276.9,304.6 284.6,314.6 283.1,328.1" fill="#c6cebd" stroke="#c6cebd" stroke-width="0.5"/><polygon points="283.0,328.4 284.6,314.6 302.9,307.0 312.0,318.8 310.6,325.4 300.1,331.8" fill="#bac2b2" stroke="#bac2b2" stroke-width="0.5"/><polygon points="310.6,325.4 312.0,318.8 330.6,310.9 339.9,331.1 329.0,339.8 323.7,339.5" fill="#a5ac9e" stroke="#a5ac9e" stroke-width="0.5"/><polygon points="339.9,331.1 331.1,312.0 356.9,304.2 353.4,327.1 344.0,331.6" fill="#7c8177" stroke="#7c8177" stroke-width="0.5"/><polygon points="353.4,327.1 356.3,307.9 374.6,312.5 375.2,327.6 366.9,332.4" fill="#7c8177" stroke="#7c8177" stroke-width="0.5"/><polygon points="375.2,327.6 374.6,312.5 381.4,306.0 396.9,309.0 400.7,316.1 388.3,332.4" fill="#7c8177" stroke="#7c8177" stroke-width="0.5"/><polygon points="394.2,348.9 388.3,332.4 400.7,316.1 418.0,321.9 403.3,352.9" fill="#7c8177" stroke="#7c8177" stroke-width="0.5"/><polygon points="429.1,325.2 440.9,307.8 460.1,310.9 460.3,318.3 435.6,333.1" fill="#7c8177" stroke="#7c8177" stroke-width="0.5"/><polygon points="436.9,337.7 435.6,333.1 460.3,318.3 466.2,329.4 461.2,338.5" fill="#7c8177" stroke="#7c8177" stroke-width="0.5"/><polygon points="466.2,329.4 460.3,318.3 460.0,308.4 486.2,311.1 487.1,313.9 482.4,331.3" fill="#7c8177" stroke="#7c8177" stroke-width="0.5"/><polygon points="483.8,333.0 482.4,331.3 487.1,313.9 511.1,321.9 505.5,333.0" fill="#3d7ea6" stroke="#3d7ea6" stroke-width="0.5"/><polygon points="513.2,321.2 526.3,314.7 535.5,320.8 535.5,343.5" fill="#1f4e6b" stroke="#1f4e6b" stroke-width="0.5"/><polygon points="535.5,336.6 535.5,320.8 553.7,315.2 552.3,334.2" fill="#1f4e6b" stroke="#1f4e6b" stroke-width="0.5"/><polygon points="576.0,314.5 576.0,337.5 552.0,337.5 553.5,317.7" fill="#1f4e6b" stroke="#1f4e6b" stroke-width="0.5"/><polygon points="0.0,365.8 0.0,334.9 12.8,335.6 20.0,361.1 14.7,365.8" fill="#1f4e6b" stroke="#1f4e6b" stroke-width="0.5"/><polygon points="20.0,361.1 13.1,336.4 40.5,339.3 40.5,352.4 30.8,361.1" fill="#1f4e6b" stroke="#1f4e6b" stroke-width="0.5"/><polygon points="40.5,352.4 40.5,336.6 60.0,334.4 68.1,347.5 59.3,360.9" fill="#1f4e6b" stroke="#1f4e6b" stroke-width="0.5"/><polygon points="68.1,347.5 60.0,334.4 65.2,323.4 73.5,320.5 89.1,328.6 83.7,346.8" fill="#1f4e6b" stroke="#1f4e6b" stroke-width="0.5"/><polygon points="83.7,346.8 89.1,328.6 92.2,327.1 113.0,333.5 114.5,335.9 105.1,359.3 90.5,356.1" fill="#3d7ea6" stroke="#3d7ea6" stroke-width="0.5"/><polygon points="106.4,361.0 105.1,359.3 114.5,335.9 130.8,339.5 132.6,368.0" fill="#3d7ea6" stroke="#3d7ea6" stroke-width="0.5"/><polygon points="132.5,366.6 130.8,339.5 137.0,335.8 152.4,339.8 150.9,362.9" fill="#acb3a5" stroke="#acb3a5" stroke-width="0.5"/><polygon points="150.9,362.9 152.4,339.8 157.5,336.9 173.4,340.3 175.7,347.2 159.9,367.7" fill="#7fa76a" stroke="#7fa76a" stroke-width="0.5"/><polygon points="175.8,347.2 173.4,340.3 180.5,330.9 194.0,329.9 204.6,344.0 200.7,356.7 194.3,360.1" fill="#85b06f" stroke="#85b06f" stroke-width="0.5"/><polygon points="200.7,356.7 204.6,344.0 222.0,335.0 230.0,340.1 230.0,361.3 220.5,367.1" fill="#c3ccbb" stroke="#c3ccbb" stroke-width="0.5"/><polygon points="230.0,361.3 230.0,340.1 243.2,336.9 255.6,361.2 248.7,366.8" fill="#bac2b2" stroke="#bac2b2" stroke-width="0.5"/><polygon points="255.6,361.2 241.3,333.2 264.2,334.3 266.6,358.9 266.5,358.9" fill="#bbc3b3" stroke="#bbc3b3" stroke-width="0.5"/><polygon points="266.6,358.9 264.2,334.3 268.8,329.8 283.5,328.0 283.5,352.7" fill="#c5cdbd" stroke="#c5cdbd" stroke-width="0.5"/><polygon points="283.5,352.7 283.5,328.5 300.1,331.8 303.0,359.8" fill="#b2baaa" stroke="#b2baaa" stroke-width="0.5"/><polygon points="302.8,358.1 300.1,331.8 310.6,325.4 323.7,339.5 306.0,358.5" fill="#aab1a3" stroke="#aab1a3" stroke-width="0.5"/><polygon points="337.9,362.6 329.0,339.8 339.9,331.1 344.0,331.6 355.4,357.5 346.2,364.4" fill="#9ca395" stroke="#9ca395" stroke-width="0.5"/><polygon points="355.4,357.5 344.0,331.6 353.4,327.1 366.9,332.4 366.1,355.7" fill="#7c8277" stroke="#7c8277" stroke-width="0.5"/><polygon points="366.1,355.7 366.9,332.4 375.2,327.6 388.3,332.4 394.2,348.9 371.2,357.9" fill="#7c8177" stroke="#7c8177" stroke-width="0.5"/><polygon points="403.3,352.9 417.8,322.4 429.1,325.2 435.6,333.1 436.9,337.7 436.1,342.8 418.4,358.9 404.1,353.9" fill="#7c8177" stroke="#7c8177" stroke-width="0.5"/><polygon points="424.1,369.2 418.4,358.9 436.1,342.8 451.2,359.6 445.8,370.3" fill="#7c8177" stroke="#7c8177" stroke-width="0.5"/><polygon points="451.2,359.6 436.1,342.8 436.9,337.7 461.2,338.5 464.1,355.2" fill="#7c8177" stroke="#7c8177" stroke-width="0.5"/><polygon points="464.1,355.2 461.2,338.5 466.2,329.4 482.4,331.3 483.8,333.0 483.8,357.1 473.3,359.1" fill="#8f8366" stroke="#8f8366" stroke-width="0.5"/><polygon points="483.8,357.1 483.8,333.0 505.5,333.0 509.9,350.7 502.9,357.7 490.5,360.4" fill="#3d7ea6" stroke="#3d7ea6" stroke-width="0.5"/><polygon points="509.9,350.7 505.5,333.0 511.3,321.3 513.2,321.2 532.1,340.1 528.9,350.9" fill="#1f4e6b" stroke="#1f4e6b" stroke-width="0.5"/><polygon points="528.9,350.9 533.1,337.0 555.7,333.8 551.8,358.6 547.8,360.3 531.5,354.1" fill="#1f4e6b" stroke="#1f4e6b" stroke-width="0.5"/><polygon points="576.0,337.5 576.0,362.6 551.8,358.6 555.2,337.5" fill="#1f4e6b" stroke="#1f4e6b" stroke-width="0.5"/><polygon points="42.0,396.0 19.9,396.0 14.7,365.8 20.0,361.1 30.8,361.1 43.8,386.1" fill="#1f4e6b" stroke="#1f4e6b" stroke-width="0.5"/><polygon points="43.8,386.1 30.8,361.1 40.5,352.4 59.3,360.9 60.5,366.7" fill="#1f4e6b" stroke="#1f4e6b" stroke-width="0.5"/><polygon points="83.8,396.0 42.0,396.0 43.8,386.1 60.5,366.7 77.0,375.3" fill="#1f4e6b" stroke="#1f4e6b" stroke-width="0.5"/><polygon points="77.0,375.3 60.5,366.7 59.3,360.9 68.1,347.5 83.7,346.8 90.5,356.1" fill="#1f4e6b" stroke="#1f4e6b" stroke-width="0.5"/><polygon points="98.8,396.0 83.8,396.0 77.0,375.3 90.5,356.1 105.1,359.3 106.4,361.0" fill="#1f4e6b" stroke="#1f4e6b" stroke-width="0.5"/><polygon points="130.0,396.0 98.8,396.0 106.4,361.0 131.4,367.7" fill="#1f4e6b" stroke="#1f4e6b" stroke-width="0.5"/><polygon points="164.0,396.0 130.0,396.0 131.5,366.9 150.9,362.9 159.9,367.7 164.2,374.8" fill="#3d7ea6" stroke="#3d7ea6" stroke-width="0.5"/><polygon points="164.2,374.8 159.9,367.7 175.8,347.2 194.3,360.1 191.7,366.0" fill="#afb7a8" stroke="#afb7a8" stroke-width="0.5"/><polygon points="197.0,396.0 164.0,396.0 164.2,374.8 191.7,366.0" fill="#759b62" stroke="#759b62" stroke-width="0.5"/><polygon points="219.0,396.0 197.0,396.0 191.7,366.0 194.3,360.1 200.7,356.7 220.5,367.1" fill="#81ab6c" stroke="#81ab6c" stroke-width="0.5"/><polygon points="247.7,396.0 219.0,396.0 220.5,367.1 230.0,361.3 248.7,366.8" fill="#81ab6c" stroke="#81ab6c" stroke-width="0.5"/><polygon points="283.5,396.0 247.7,396.0 248.7,366.8 255.6,361.2 266.5,358.9 283.5,392.8" fill="#c3cbbb" stroke="#c3cbbb" stroke-width="0.5"/><polygon points="283.5,392.8 266.5,358.9 266.6,358.9 283.5,352.7 300.5,358.9" fill="#b3bbac" stroke="#b3bbac" stroke-width="0.5"/><polygon points="318.6,396.0 283.5,396.0 283.5,392.8 301.0,357.8 306.0,358.5 320.0,370.2" fill="#bbc3b3" stroke="#bbc3b3" stroke-width="0.5"/><polygon points="320.0,370.2 306.0,358.5 323.7,339.5 329.0,339.8 337.9,362.6" fill="#b5bdad" stroke="#b5bdad" stroke-width="0.5"/><polygon points="352.4,396.0 318.6,396.0 320.0,370.2 337.9,362.6 346.2,364.4" fill="#aab1a3" stroke="#aab1a3" stroke-width="0.5"/><polygon points="381.9,396.0 352.4,396.0 346.2,364.4 355.4,357.5 366.1,355.7 371.2,357.9" fill="#7e8378" stroke="#7e8378" stroke-width="0.5"/><polygon points="387.9,396.0 381.9,396.0 371.2,357.9 394.2,348.9 403.3,352.9 404.1,353.9" fill="#7c8177" stroke="#7c8177" stroke-width="0.5"/><polygon points="418.0,396.0 387.9,396.0 404.1,353.9 418.4,358.9 424.1,369.2" fill="#7c8177" stroke="#7c8177" stroke-width="0.5"/><polygon points="457.1,396.0 418.0,396.0 424.1,369.2 445.8,370.3" fill="#3d7ea6" stroke="#3d7ea6" stroke-width="0.5"/><polygon points="463.3,396.0 457.1,396.0 445.8,370.3 451.2,359.6 464.1,355.2 473.3,359.1" fill="#3d7ea6" stroke="#3d7ea6" stroke-width="0.5"/><polygon points="490.5,396.0 463.3,396.0 473.3,359.1 483.8,357.1 490.5,360.4" fill="#3d7ea6" stroke="#3d7ea6" stroke-width="0.5"/><polygon points="521.6,396.0 490.5,396.0 490.5,360.4 502.9,357.7 520.5,387.6" fill="#1f4e6b" stroke="#1f4e6b" stroke-width="0.5"/><polygon points="520.5,387.6 502.9,357.7 509.9,350.7 528.9,350.9 531.5,354.1" fill="#1f4e6b" stroke="#1f4e6b" stroke-width="0.5"/><polygon points="543.9,396.0 521.6,396.0 520.5,387.6 531.5,354.1 547.8,360.3" fill="#1f4e6b" stroke="#1f4e6b" stroke-width="0.5"/><polygon points="576.0,362.6 576.0,396.0 543.9,396.0 547.8,360.3 551.8,358.6" fill="#1f4e6b" stroke="#1f4e6b" stroke-width="0.5"/><polygon points="19.9,396.0 0.0,396.0 0.0,365.8 14.7,365.8" fill="#1f4e6b" stroke="#1f4e6b" stroke-width="0.5"/></g><path d="M134.2,13.9 L132.5,0.0 M399.9,0.0 L394.7,22.8 M133.6,36.4 L130.1,18.7 M130.1,18.7 L134.2,13.9 M388.9,19.7 L420.3,20.9 M420.3,20.9 L420.3,37.6 M106.2,54.4 L112.4,41.1 M112.4,41.1 L129.8,41.8 M113.7,65.5 L106.2,54.4 M419.9,37.1 L446.7,40.1 M446.7,40.1 L436.2,60.5 M104.2,81.4 L113.7,65.5 M436.2,60.5 L446.5,70.4 M446.5,70.4 L454.8,68.0 M454.8,68.0 L469.6,79.9 M469.6,79.9 L459.4,95.2 M95.2,109.4 L93.9,82.1 M93.9,82.1 L104.2,81.4 M74.7,120.1 L85.7,110.7 M85.7,110.7 L95.2,109.4 M87.1,138.3 L76.3,126.2 M76.3,126.2 L74.7,120.1 M459.6,96.0 L465.4,101.8 M465.4,101.8 L483.8,102.6 M483.8,102.6 L483.8,122.4 M483.2,121.8 L504.8,124.5 M504.8,124.5 L500.4,147.7 M73.2,165.6 L71.4,151.7 M71.4,151.7 L87.1,138.3 M501.1,147.6 L510.4,168.4 M510.4,168.4 L505.5,175.1 M68.2,187.9 L74.3,165.7 M73.3,192.7 L68.2,187.9 M505.5,175.1 L513.6,190.2 M513.6,190.2 L506.2,198.3 M74.0,206.6 L73.3,192.7 M506.2,198.3 L511.5,212.6 M74.0,232.8 L65.1,213.7 M65.1,213.7 L74.0,206.6 M511.5,212.6 L525.8,213.2 M525.8,213.2 L531.4,219.6 M531.4,219.6 L513.9,235.6 M64.7,257.1 L66.1,239.1 M66.1,239.1 L74.0,232.8 M70.5,269.7 L67.0,256.7 M511.9,267.2 L505.7,275.2 M513.5,239.5 L527.6,248.1 M527.6,248.1 L530.1,255.3 M530.1,255.3 L524.9,264.7 M524.9,264.7 L511.9,267.2 M66.6,280.4 L70.5,269.7 M81.1,293.8 L66.6,280.4 M505.7,275.2 L513.4,292.1 M513.4,292.1 L506.2,299.2 M506.2,299.2 L490.9,299.2 M97.8,307.7 L79.7,295.3 M490.9,299.2 L486.2,311.1 M92.2,327.1 L97.8,307.7 M113.0,333.5 L92.2,327.1 M130.8,339.5 L114.5,335.9 M114.5,335.9 L113.0,333.5 M486.2,311.1 L487.1,313.9 M487.1,313.9 L482.4,331.3 M132.5,366.6 L130.8,339.5 M150.9,362.9 L132.5,366.6 M159.9,367.7 L150.9,362.9 M451.2,359.6 L445.8,370.3 M445.8,370.3 L424.1,369.2 M464.1,355.2 L451.2,359.6 M482.4,331.3 L483.8,333.0 M483.8,333.0 L483.8,357.1 M483.8,357.1 L473.3,359.1 M473.3,359.1 L464.1,355.2 M164.2,374.8 L159.9,367.7 M164.0,396.0 L164.2,374.8 M424.1,369.2 L418.0,396.0" fill="none" stroke="#283640" stroke-width="2.0" stroke-linecap="round"/><path d="M283.5,0.0 L283.5,18.9 M283.5,18.9 L290.2,22.9 M290.2,22.9 L290.2,40.5 M290.2,40.5 L264.7,40.5 M263.7,41.6 L267.9,60.8 M267.9,60.8 L265.5,64.1 M265.5,64.1 L268.9,85.5 M102.8,113.0 L95.2,109.4 M267.8,85.5 L267.8,103.5 M103.7,125.6 L102.8,113.0 M128.8,128.1 L112.5,132.2 M112.5,132.2 L103.7,125.6 M267.3,121.3 L269.5,105.7 M269.5,105.7 L289.3,104.7 M289.3,104.7 L292.4,124.4 M132.7,149.3 L132.7,131.4 M158.0,141.8 L154.8,147.0 M154.8,147.0 L132.7,149.3 M172.1,141.8 L157.9,141.8 M194.2,147.8 L178.3,150.0 M178.3,150.0 L172.1,141.8 M258.8,142.3 L258.8,126.5 M258.8,126.5 L267.3,121.3 M292.4,124.4 L312.2,121.1 M312.2,121.1 L317.5,125.4 M317.5,125.4 L315.6,145.1 M200.7,160.6 L194.2,147.8 M219.7,159.7 L200.7,160.6 M222.9,168.6 L219.7,159.7 M251.2,167.9 L246.6,150.3 M246.6,150.3 L258.8,142.3 M316.6,146.9 L334.2,149.8 M334.2,149.8 L340.5,141.7 M340.5,141.7 L361.7,143.0 M361.7,143.0 L362.4,144.7 M362.4,144.7 L381.4,152.7 M381.4,152.7 L392.7,143.4 M392.7,143.4 L403.6,164.7 M468.7,168.7 L473.9,148.6 M473.9,148.6 L482.6,146.2 M482.6,146.2 L491.5,149.6 M491.5,149.6 L501.1,147.6 M217.4,182.1 L222.9,168.6 M222.9,168.6 L244.4,174.8 M222.1,191.4 L217.4,182.1 M244.4,174.8 L251.2,167.9 M403.6,164.7 L421.4,164.5 M421.1,166.5 L435.0,166.5 M435.0,166.5 L446.4,155.1 M446.4,155.1 L463.4,171.4 M463.4,171.4 L468.7,168.7 M217.1,201.9 L222.1,191.4 M219.3,209.5 L217.1,201.9 M211.4,227.7 L210.9,223.1 M210.9,223.1 L219.3,209.5 M199.9,251.3 L199.2,249.5 M199.2,249.5 L200.9,236.8 M200.9,236.8 L211.4,227.7 M199.9,277.4 L193.2,265.7 M193.2,265.7 L199.9,251.3 M196.8,286.1 L199.9,277.4 M178.2,306.9 L173.5,290.7 M173.5,290.7 L196.8,286.1 M180.5,330.9 L171.4,305.9 M175.8,347.2 L173.4,340.3 M173.4,340.3 L180.5,330.9 M194.3,360.1 L175.8,347.2 M164.2,374.8 L191.7,366.0 M191.7,366.0 L194.3,360.1" fill="none" stroke="#78242c" stroke-width="2.2" stroke-linecap="round" stroke-linejoin="round" opacity="0.85"/><g font-family="Georgia, serif" font-size="12" text-anchor="middle" font-style="italic"><text x="346.5" y="283.5" stroke="#f7f3ea" stroke-width="3" paint-order="stroke" fill="#4a181e">Ragny March</text><text x="144.0" y="4.5" stroke="#f7f3ea" stroke-width="3" paint-order="stroke" fill="#4a181e">The Eirmund Reach</text><text x="406.8" y="30.6" stroke="#f7f3ea" stroke-width="3" paint-order="stroke" fill="#4a181e">Eirmund March</text><text x="77.4" y="244.8" stroke="#f7f3ea" stroke-width="3" paint-order="stroke" fill="#4a181e">Geirik</text></g><g opacity="0.9"><path d="M367.9,10.1 L388.5,6.0" fill="none" stroke="#4a82af" stroke-width="2.9" stroke-linecap="round" stroke-linejoin="round"/><path d="M189.0,342.0 L162.0,351.0" fill="none" stroke="#4a82af" stroke-width="2.1" stroke-linecap="round" stroke-linejoin="round"/><path d="M340.7,6.4 L367.9,10.1" fill="none" stroke="#4a82af" stroke-width="1.8" stroke-linecap="round" stroke-linejoin="round"/><path d="M315.0,9.0 L340.7,6.4" fill="none" stroke="#4a82af" stroke-width="1.8" stroke-linecap="round" stroke-linejoin="round"/><path d="M439.5,127.5 L455.4,109.8" fill="none" stroke="#4a82af" stroke-width="1.6" stroke-linecap="round" stroke-linejoin="round"/><path d="M187.2,158.4 L166.5,153.0" fill="none" stroke="#4a82af" stroke-width="1.6" stroke-linecap="round" stroke-linejoin="round"/><path d="M415.5,136.5 L439.5,127.5" fill="none" stroke="#4a82af" stroke-width="1.6" stroke-linecap="round" stroke-linejoin="round"/><path d="M206.2,374.7 L181.1,379.1" fill="none" stroke="#4a82af" stroke-width="1.5" stroke-linecap="round" stroke-linejoin="round"/><path d="M318.0,57.0 L324.0,36.0" fill="none" stroke="#4a82af" stroke-width="1.5" stroke-linecap="round" stroke-linejoin="round"/><path d="M406.5,153.0 L415.5,136.5" fill="none" stroke="#4a82af" stroke-width="1.5" stroke-linecap="round" stroke-linejoin="round"/><path d="M306.0,76.5 L318.0,57.0" fill="none" stroke="#4a82af" stroke-width="1.4" stroke-linecap="round" stroke-linejoin="round"/><path d="M234.0,376.2 L206.2,374.7" fill="none" stroke="#4a82af" stroke-width="1.4" stroke-linecap="round" stroke-linejoin="round"/><path d="M301.5,31.5 L315.0,9.0" fill="none" stroke="#4a82af" stroke-width="1.4" stroke-linecap="round" stroke-linejoin="round"/><path d="M301.5,94.5 L306.0,76.5" fill="none" stroke="#4a82af" stroke-width="1.4" stroke-linecap="round" stroke-linejoin="round"/><path d="M229.5,292.5 L219.9,307.3" fill="none" stroke="#4a82af" stroke-width="1.4" stroke-linecap="round" stroke-linejoin="round"/></g></svg>