<svg xmlns="http://www.w3.org/2000/svg" width="630" height="630" viewBox="0 0 630 630"><rect width="630" height="630" fill="#c9d2bb"/><polygon points="419.3,139.2 438.5,135.4 458.5,133.7 477.8,136.2 494.4,144.1 502.8,160.8 508.9,179.6 513.1,199.7 511.1,222.9 503.9,247.3 494.6,270.7 484.5,292.6 474.5,313.0 464.8,332.3 455.0,350.8 444.4,368.4 432.2,384.5 418.2,398.3 402.6,408.9 386.1,415.7 369.9,418.6 355.0,418.6 342.0,417.3 331.0,416.7 321.3,418.6 312.0,424.4 301.9,434.4 289.9,447.6 275.6,462.3 259.4,476.2 242.1,486.9 225.1,492.7 209.7,492.5 197.1,486.5 187.8,475.6 181.7,461.4 178.1,445.5 176.1,429.0 174.9,412.8 173.8,397.2 172.6,381.8 171.6,366.4 171.2,350.5 171.9,333.9 174.1,316.7 177.8,299.1 183.0,281.2 189.4,263.2 196.8,244.9 205.2,226.3 214.7,207.4 225.6,188.5 238.3,170.3 252.8,153.9 268.9,140.5 286.1,131.2 303.5,126.5 320.1,126.4 335.4,129.8 349.1,135.1 361.7,140.4 374.0,144.1 387.1,144.9 402.1,143.0" fill="#e6dcc0"/><g stroke="#4a4230" stroke-width="1" stroke-linejoin="round"><polygon points="419.3,139.2 434.5,136.2 443.5,177.3 437.2,193.5 397.6,208.2 378.5,198.5 380.5,144.5 387.1,144.9 402.1,143.0" fill="#b3a684"/><polygon points="171.4,356.6 171.2,350.5 171.9,333.9 174.1,316.7 177.8,299.1 183.0,281.2 188.4,266.0 247.7,289.5 234.5,335.4 182.7,357.5" fill="#b3a684"/><polygon points="282.1,420.3 235.3,436.0 222.9,426.3 224.8,397.3 264.3,371.3 280.5,375.5" fill="#cdbf9e"/><polygon points="299.6,436.9 289.9,447.6 275.6,462.3 259.4,476.2 242.5,486.7 235.3,436.0 282.1,420.3" fill="#b9a98c"/><polygon points="176.9,435.9 176.1,429.0 174.9,412.8 173.8,397.2 172.6,381.8 171.6,366.4 171.4,356.6 182.7,357.5 224.8,397.3 222.9,426.3" fill="#b3a684"/><polygon points="397.6,208.2 437.2,193.5 462.4,221.0 451.1,270.0 407.3,256.0" fill="#c2b48f"/><polygon points="505.9,170.4 508.9,179.6 513.1,199.7 512.2,210.1 462.4,221.0 437.2,193.5 443.5,177.3" fill="#b3a684"/><polygon points="188.4,266.0 189.4,263.2 196.8,244.9 205.2,226.3 214.7,207.4 225.6,188.5 227.8,185.3 263.0,206.4 274.9,278.4 273.8,280.0 247.7,289.5" fill="#c2b48f"/><polygon points="332.7,259.6 274.9,278.4 263.0,206.4 314.1,189.9 341.1,210.5" fill="#c2b48f"/><polygon points="434.6,381.3 432.2,384.5 418.2,398.3 402.6,408.9 386.1,415.7 369.9,418.6 357.4,418.6 330.7,354.4 371.9,323.7 401.6,336.3" fill="#cdbf9e"/><polygon points="280.5,375.5 264.3,371.3 234.5,335.4 247.7,289.5 273.8,280.0 317.0,352.8" fill="#b3a684"/><polygon points="264.3,371.3 224.8,397.3 182.7,357.5 234.5,335.4" fill="#c2b48f"/><polygon points="227.8,185.3 238.3,170.3 252.8,153.9 268.9,140.5 286.1,131.2 303.5,126.5 314.6,126.4 314.1,189.9 263.0,206.4" fill="#b3a684"/><polygon points="242.5,486.7 242.1,486.9 225.1,492.7 209.7,492.5 197.1,486.5 187.8,475.6 181.7,461.4 178.1,445.5 176.9,435.9 222.9,426.3 235.3,436.0" fill="#b3a684"/><polygon points="512.2,210.1 511.1,222.9 503.9,247.3 494.6,270.7 484.5,292.6 484.5,292.7 459.0,281.0 451.1,270.0 462.4,221.0" fill="#c2b48f"/><polygon points="484.5,292.7 474.5,313.0 464.8,332.3 455.0,350.8 444.4,368.4 434.6,381.3 401.6,336.3 459.0,281.0" fill="#b3a684"/><polygon points="371.9,323.7 330.7,354.4 317.0,352.8 273.8,280.0 274.9,278.4 332.7,259.6 367.8,287.9" fill="#d9c08a"/><polygon points="434.5,136.2 438.5,135.4 458.5,133.7 477.8,136.2 494.4,144.1 502.8,160.8 505.9,170.4 443.5,177.3" fill="#b9a98c"/><polygon points="357.4,418.6 355.0,418.6 342.0,417.3 331.0,416.7 321.3,418.6 312.0,424.4 301.9,434.4 299.6,436.9 282.1,420.3 280.5,375.5 317.0,352.8 330.7,354.4" fill="#b3a684"/><polygon points="314.6,126.4 320.1,126.4 335.4,129.8 349.1,135.1 361.7,140.4 374.0,144.1 380.5,144.5 378.5,198.5 341.1,210.5 314.1,189.9" fill="#cdbf9e"/><polygon points="378.5,198.5 397.6,208.2 407.3,256.0 367.8,287.9 332.7,259.6 341.1,210.5" fill="#b3a684"/><polygon points="407.3,256.0 451.1,270.0 459.0,281.0 401.6,336.3 371.9,323.7 367.8,287.9" fill="#c2b48f"/></g><g fill="#7d6c52" stroke="#4a3e2e" stroke-width="0.5" stroke-linejoin="round"><polygon points="380.4,180.9 380.7,172.1 383.2,172.2 382.8,181.0"/><polygon points="397.1,177.4 396.9,181.4 390.3,181.2 390.4,177.1"/><polygon points="390.4,172.3 397.5,172.5 397.4,175.1 390.3,174.8"/><polygon points="385.5,172.3 388.2,172.4 387.8,181.2 385.2,181.1"/><polygon points="399.7,172.8 402.5,172.9 402.2,181.6 399.4,181.5"/><polygon points="379.4,195.5 379.5,193.7 384.9,193.9 384.8,195.7"/><polygon points="380.2,191.6 380.5,183.5 384.6,183.6 384.3,191.7"/><polygon points="387.6,183.9 392.9,184.1 392.6,192.4 387.3,192.2"/><polygon points="393.3,194.7 393.2,196.0 386.4,195.8 386.4,194.5"/><polygon points="395.8,184.0 402.0,184.2 401.8,189.8 395.6,189.6"/><polygon points="401.9,192.3 401.8,195.9 395.2,195.7 395.3,192.1"/><polygon points="391.2,203.4 380.1,197.8 391.4,198.2"/><polygon points="395.0,205.9 393.5,205.1 393.8,197.7 395.3,197.8"/><polygon points="401.2,205.4 397.6,206.8 397.2,206.5 397.5,198.3 401.5,198.4"/><polygon points="430.3,195.0 422.2,198.0 421.0,194.6"/><polygon points="413.9,200.6 409.9,202.1 407.1,194.6 414.1,194.8"/><polygon points="420.4,198.7 416.3,200.2 416.6,194.4 418.8,194.5"/><polygon points="407.5,203.3 403.8,204.7 404.1,194.2"/><polygon points="412.8,172.8 413.4,172.8 413.1,181.4 412.5,181.4"/><polygon points="404.9,180.4 405.2,173.2 410.6,173.4 410.3,180.6"/><polygon points="415.6,173.7 421.5,173.9 421.2,180.9 415.4,180.7"/><polygon points="404.3,191.7 404.6,183.1 407.6,183.2 407.3,191.9"/><polygon points="410.4,183.6 415.9,183.8 415.6,191.8 410.1,191.6"/><polygon points="418.7,183.6 421.4,183.7 421.1,192.4 418.4,192.3"/><polygon points="424.2,173.7 431.0,173.9 430.9,177.5 424.1,177.3"/><polygon points="431.0,179.7 430.9,182.1 423.7,181.8 423.8,179.5"/><polygon points="430.5,184.4 430.3,189.0 423.8,188.8 423.9,184.1"/><polygon points="430.6,191.2 430.6,193.0 423.2,192.8 423.3,191.0"/><polygon points="437.2,191.4 436.6,192.9 432.2,194.5 432.3,191.3"/><polygon points="441.2,179.2 438.5,186.1 433.3,184.1 433.5,178.9"/><polygon points="438.2,188.6 437.7,189.8 432.5,189.6 432.6,186.4"/><polygon points="441.7,174.2 442.2,176.6 433.2,176.2 433.3,173.9"/><polygon points="435.8,148.3 438.2,159.1 435.4,159.7"/><polygon points="438.6,161.9 440.7,171.5 435.2,171.3 435.5,162.6"/><polygon points="421.3,140.3 433.3,137.9 433.4,138.1 433.2,142.0 421.2,141.6"/><polygon points="419.2,139.8 419.1,142.4 416.5,142.3 416.6,140.4"/><polygon points="433.1,145.0 432.8,150.9 425.5,150.6 425.7,144.7"/><polygon points="433.5,153.2 433.5,153.9 424.6,153.6 424.7,152.9"/><polygon points="433.4,155.6 433.3,156.7 424.6,156.4 424.7,155.3"/><polygon points="422.4,155.8 416.8,155.6 417.0,149.7 422.7,149.9"/><polygon points="416.9,147.3 417.0,144.0 423.1,144.2 423.0,147.5"/><polygon points="433.4,158.3 433.3,159.9 428.2,159.7 428.2,158.1"/><polygon points="432.6,162.0 432.2,171.3 428.5,171.2 428.8,161.9"/><polygon points="426.2,171.7 425.4,171.7 425.7,163.1 426.5,163.2"/><polygon points="423.9,171.7 415.6,171.4 415.6,170.8 423.9,171.1"/><polygon points="416.4,168.7 416.6,163.4 423.4,163.7 423.3,169.0"/><polygon points="416.5,160.8 416.6,158.2 426.2,158.5 426.1,161.1"/><polygon points="405.9,143.5 414.7,141.6 414.5,146.1 405.8,145.7"/><polygon points="414.4,148.7 414.3,152.1 405.6,151.8 405.7,148.4"/><polygon points="399.5,151.7 399.8,144.7 402.3,144.2 403.3,144.1 403.0,151.8"/><polygon points="399.3,162.2 399.6,154.3 403.6,154.4 403.3,162.3"/><polygon points="406.2,154.5 409.8,154.6 409.5,162.6 406.0,162.5"/><polygon points="412.1,154.5 414.4,154.6 414.1,162.9 411.8,162.9"/><polygon points="413.6,170.8 407.9,170.6 408.1,165.1 413.8,165.4"/><polygon points="405.6,170.9 403.4,170.8 403.6,164.6 405.9,164.7"/><polygon points="401.5,170.6 398.6,170.5 398.8,164.5 401.7,164.6"/><polygon points="395.6,145.0 397.3,144.8 396.9,156.3 395.2,156.3"/><polygon points="392.2,145.3 393.3,145.2 392.9,156.4 391.8,156.3"/><polygon points="384.8,146.0 387.2,145.7 390.4,145.9 390.4,146.2"/><polygon points="384.1,148.2 389.6,148.4 389.3,155.8 383.9,155.6"/><polygon points="380.8,156.2 381.2,147.4 381.9,147.4 381.6,156.2"/><polygon points="396.5,170.3 395.1,170.3 395.6,158.6 396.9,158.7"/><polygon points="383.8,166.9 384.2,158.4 387.3,158.5 387.0,167.1"/><polygon points="389.9,158.6 393.1,158.7 392.8,167.3 389.6,167.1"/><polygon points="393.1,170.4 383.4,170.1 383.4,169.1 393.1,169.5"/><polygon points="381.4,169.9 380.6,169.9 381.0,158.0 381.9,158.0"/><polygon points="187.4,272.5 189.2,267.6 194.2,269.6 192.3,274.4"/><polygon points="196.6,270.7 202.9,273.2 201.1,277.8 194.8,275.3"/><polygon points="205.5,274.3 212.0,276.8 210.2,281.4 203.7,278.8"/><polygon points="185.5,277.9 186.6,274.9 194.3,277.9 193.1,280.9"/><polygon points="183.6,283.8 184.3,281.6 184.7,280.3 192.2,283.3 190.8,286.7"/><polygon points="180.7,294.7 182.4,288.8 189.0,290.7 186.5,297.0"/><polygon points="182.3,286.5 182.5,285.5 190.6,288.7 190.6,288.9"/><polygon points="205.3,294.7 201.8,303.6 200.6,303.2 204.2,294.2"/><polygon points="198.6,302.0 195.9,301.0 199.3,292.6 202.0,293.6"/><polygon points="193.4,299.8 189.3,298.1 192.4,290.1 196.6,291.7"/><polygon points="207.1,288.9 205.8,292.2 196.7,288.6 198.0,285.3"/><polygon points="194.4,288.5 192.6,287.7 194.4,283.1 196.2,283.9"/><polygon points="196.8,279.2 209.0,284.0 208.2,286.2 195.9,281.3"/><polygon points="178.2,302.1 178.7,299.4 179.5,296.8 182.5,298.0 180.5,303.0"/><polygon points="184.2,298.6 186.3,299.5 184.2,304.6 182.1,303.8"/><polygon points="188.2,300.8 195.3,303.6 193.6,307.8 186.5,305.0"/><polygon points="197.7,304.1 201.0,305.5 199.1,310.3 195.7,309.0"/><polygon points="219.3,308.9 216.0,317.2 214.9,316.8 218.2,308.5"/><polygon points="209.1,313.9 204.9,312.2 207.8,304.9 212.0,306.6"/><polygon points="213.2,315.9 211.3,315.1 214.4,307.2 216.3,307.9"/><polygon points="202.4,311.7 200.9,311.1 204.2,303.0 205.7,303.6"/><polygon points="220.6,304.1 219.6,306.5 208.8,302.2 209.8,299.8"/><polygon points="206.6,302.1 204.5,301.3 206.0,297.5 208.1,298.3"/><polygon points="222.2,300.0 221.7,301.4 207.5,295.8 208.1,294.3"/><polygon points="227.2,282.9 228.8,283.5 223.3,297.3 221.8,296.7"/><polygon points="220.1,293.5 219.2,295.8 209.0,291.7 209.9,289.4"/><polygon points="222.7,280.9 224.8,281.8 221.1,291.1 219.0,290.3"/><polygon points="218.5,284.7 216.7,289.3 210.9,286.9 212.7,282.4"/><polygon points="214.4,277.4 220.7,279.9 219.6,282.6 213.3,280.1"/><polygon points="177.2,308.8 178.1,304.7 186.4,308.0 184.9,311.8"/><polygon points="175.6,316.5 176.6,311.6 183.9,314.5 182.1,319.0"/><polygon points="174.4,325.8 175.2,319.3 181.0,321.6 178.7,327.5"/><polygon points="173.1,341.5 173.4,334.1 174.1,328.8 177.6,330.2"/><polygon points="172.3,354.6 172.2,350.5 172.2,350.4 174.4,345.0 175.9,345.6"/><polygon points="184.3,353.5 183.5,355.7 182.5,356.1 174.6,355.4 176.6,350.4"/><polygon points="177.8,346.4 186.2,349.8 185.6,351.4 177.1,348.0"/><polygon points="188.1,350.4 192.8,352.2 186.2,355.0"/><polygon points="175.6,342.9 179.4,333.4 182.4,334.6 178.6,344.1"/><polygon points="180.6,330.7 185.1,319.4 187.9,320.5 183.4,331.8"/><polygon points="186.8,347.4 181.2,345.1 183.4,339.7 189.0,341.9"/><polygon points="192.4,349.8 189.1,348.5 191.5,342.6 194.7,343.9"/><polygon points="203.4,347.4 195.2,350.9 194.6,350.6 196.9,344.8"/><polygon points="190.4,320.9 197.2,323.6 196.5,325.4 189.7,322.7"/><polygon points="195.2,327.4 193.3,332.2 187.3,329.8 189.2,325.0"/><polygon points="192.3,334.7 190.4,339.5 184.4,337.1 186.3,332.3"/><polygon points="199.3,325.0 207.7,328.3 206.0,332.4 197.7,329.1"/><polygon points="210.0,328.4 211.4,329.0 209.3,334.5 207.9,333.9"/><polygon points="205.5,343.2 204.6,345.5 198.3,343.0 199.2,340.7"/><polygon points="208.0,336.2 206.1,341.0 200.3,338.7 202.2,333.9"/><polygon points="196.2,341.7 193.0,340.5 196.5,331.7 199.7,333.0"/><polygon points="185.9,316.7 187.3,313.1 194.3,315.9 192.9,319.4"/><polygon points="188.0,310.8 188.9,308.6 196.3,311.5 195.4,313.7"/><polygon points="198.3,312.3 200.1,313.0 196.8,321.2 195.0,320.5"/><polygon points="202.2,314.1 205.2,315.3 202.1,323.1 199.1,321.9"/><polygon points="207.3,315.5 215.5,318.8 215.2,319.4 207.1,316.2"/><polygon points="213.7,321.2 211.6,326.6 204.8,323.9 207.0,318.6"/><polygon points="217.9,340.9 207.3,345.4 210.3,337.9"/><polygon points="213.0,335.9 211.2,335.2 216.0,323.3 217.7,324.0"/><polygon points="217.1,337.6 215.5,336.9 220.2,325.0 221.9,325.6"/><polygon points="224.0,339.1 221.8,340.1 218.8,338.9 219.4,337.3"/><polygon points="221.7,336.3 220.4,335.8 224.2,326.2 225.5,326.8"/><polygon points="228.2,337.4 225.8,338.4 223.2,337.3 223.9,335.6"/><polygon points="234.3,330.7 233.2,334.3 229.9,335.7 225.5,333.9 227.8,328.1"/><polygon points="240.0,311.5 235.2,328.0 233.7,327.4 240.0,311.5"/><polygon points="218.4,317.1 223.3,304.9 224.9,305.5 220.1,317.7"/><polygon points="227.5,306.8 237.2,310.6 235.8,314.2 226.1,310.4"/><polygon points="234.6,317.1 232.5,322.4 225.4,319.6 227.5,314.3"/><polygon points="222.9,319.5 221.8,319.1 224.5,312.3 225.6,312.7"/><polygon points="231.2,326.4 217.0,320.8 217.4,319.6 231.6,325.2"/><polygon points="243.1,301.2 242.2,304.2 234.4,301.9 235.3,298.9"/><polygon points="244.9,294.5 243.7,298.6 236.2,296.5 237.4,292.3"/><polygon points="232.0,301.1 229.2,300.3 232.0,290.7 234.8,291.5"/><polygon points="233.6,285.5 246.0,290.4 245.6,291.8 232.9,288.1"/><polygon points="230.9,285.2 226.7,299.7 225.3,299.3"/><polygon points="241.2,306.7 240.6,308.7 224.4,302.3 224.6,301.9"/><polygon points="281.1,418.9 278.2,410.2 280.7,409.3"/><polygon points="278.2,407.0 273.2,392.0 279.0,390.0 279.6,406.6"/><polygon points="272.0,387.9 268.3,376.6 271.6,375.5 278.3,377.2 278.6,385.7"/><polygon points="265.8,374.5 265.0,372.1 269.5,373.2"/><polygon points="243.4,387.7 255.3,379.8 259.3,386.0 244.5,390.9"/><polygon points="235.2,391.8 240.2,388.5 241.7,393.0 236.1,394.8"/><polygon points="225.7,398.4 225.8,397.9 233.3,392.9 234.1,395.6"/><polygon points="258.2,377.3 263.3,373.9 266.7,384.1 263.4,385.2"/><polygon points="262.8,425.2 259.1,426.4 255.9,417.0 259.7,415.8"/><polygon points="255.9,427.2 250.4,429.1 247.4,420.1 252.9,418.3"/><polygon points="274.8,420.5 266.1,423.5 263.3,415.2 272.0,412.2"/><polygon points="279.3,420.1 278.2,420.5 274.7,410.2 275.9,409.8"/><polygon points="259.8,390.0 261.3,389.5 268.0,409.5 266.4,410.0"/><polygon points="255.6,404.1 260.3,402.5 263.2,411.3 258.5,412.8"/><polygon points="246.5,416.4 243.8,408.4 252.2,405.6 254.9,413.6"/><polygon points="249.9,393.3 256.3,391.2 259.0,399.3 252.6,401.5"/><polygon points="242.4,404.8 239.7,396.8 246.5,394.5 249.2,402.6"/><polygon points="265.1,388.5 267.5,387.7 274.0,407.2 271.6,408.0"/><polygon points="236.3,417.5 232.6,406.2 238.2,404.3 241.9,415.6"/><polygon points="230.8,403.3 229.6,399.6 236.5,397.2 237.8,401.0"/><polygon points="246.8,430.0 241.1,431.9 237.5,421.3 243.2,419.4"/><polygon points="225.2,407.0 225.6,400.6 227.3,400.0 229.2,405.6"/><polygon points="225.2,424.5 226.1,410.0 229.1,409.0 233.3,421.7"/><polygon points="237.8,433.4 235.6,434.1 227.4,427.7 235.0,425.2"/><polygon points="256.3,474.7 244.7,481.8 242.6,466.9 254.9,465.2"/><polygon points="269.8,464.8 260.8,472.5 259.6,463.5 269.5,462.1"/><polygon points="276.8,459.9 275.1,461.8 272.4,464.0 271.9,460.6"/><polygon points="248.8,460.2 241.7,461.2 238.4,437.9 241.1,437.0"/><polygon points="261.1,430.2 266.9,428.3 273.2,447.3 267.5,449.2"/><polygon points="250.5,447.7 246.3,435.2 255.9,431.9 260.1,444.5"/><polygon points="252.0,455.5 250.9,452.2 262.5,448.3 263.6,451.7"/><polygon points="276.9,456.8 254.2,460.0 253.9,459.1 275.3,452.0"/><polygon points="286.8,447.3 280.8,453.4 275.8,438.5 283.0,436.1"/><polygon points="274.0,434.4 271.2,426.1 279.3,423.4 282.0,431.7"/><polygon points="296.4,437.0 290.5,443.5 284.6,425.8"/><polygon points="200.1,375.1 205.3,380.0 204.4,381.0 199.2,376.1"/><polygon points="202.4,382.2 198.0,386.9 193.7,382.9 198.1,378.2"/><polygon points="197.0,389.0 196.4,389.7 191.0,384.6 191.7,384.0"/><polygon points="192.3,368.3 198.4,374.0 196.3,376.2 190.3,370.5"/><polygon points="195.3,377.9 189.9,383.7 189.4,383.2 194.8,377.4"/><polygon points="188.3,381.2 184.2,377.2 188.6,372.5 192.8,376.5"/><polygon points="185.8,362.6 190.1,366.6 185.2,371.8 180.9,367.8"/><polygon points="182.8,359.0 184.3,360.4 178.7,366.3 177.2,364.9"/><polygon points="172.7,360.5 172.6,357.9 180.2,358.5 175.7,363.3"/><polygon points="173.0,366.8 173.0,366.3 173.0,364.3 183.3,374.1 182.1,375.3"/><polygon points="173.4,378.0 172.9,370.0 177.2,374.0"/><polygon points="174.4,386.1 174.1,381.7 174.0,380.9 178.7,376.0 181.5,378.6"/><polygon points="178.5,386.0 183.5,380.7 187.6,384.5 182.6,389.8"/><polygon points="189.8,385.5 190.3,386.0 184.2,392.4 183.8,391.9"/><polygon points="175.4,388.6 176.4,387.4 182.9,393.5 181.8,394.6"/><polygon points="175.4,401.0 175.1,397.1 174.6,391.0 180.0,396.1"/><polygon points="188.5,390.4 191.4,387.4 194.9,390.8 192.0,393.8"/><polygon points="183.0,396.6 187.1,392.2 190.4,395.3 186.3,399.7"/><polygon points="177.9,401.8 181.3,398.2 184.7,401.4 181.3,405.0"/><polygon points="175.8,411.0 175.3,404.4 176.4,403.3 179.9,406.7"/><polygon points="208.7,409.1 209.8,410.1 201.1,419.3 200.1,418.3"/><polygon points="201.2,401.7 207.2,407.5 205.8,408.9 199.8,403.2"/><polygon points="204.0,410.4 201.3,413.3 195.7,407.9 198.4,405.1"/><polygon points="199.9,415.2 198.3,416.9 192.3,411.2 193.9,409.5"/><polygon points="197.4,398.7 199.1,400.3 190.7,409.3 189.0,407.7"/><polygon points="185.4,404.3 193.9,395.3 195.5,396.8 187.0,405.8"/><polygon points="195.4,393.3 198.4,390.1 201.7,393.2 198.6,396.4"/><polygon points="200.4,388.6 206.6,382.0 209.3,384.6 203.1,391.2"/><polygon points="208.9,405.4 200.9,397.9 203.4,395.2 211.4,402.7"/><polygon points="215.1,405.1 211.5,409.0 210.1,407.6 213.7,403.8"/><polygon points="211.4,386.6 214.4,389.4 208.4,395.7 205.4,392.9"/><polygon points="216.5,391.1 222.4,396.8 220.1,399.1 214.2,393.5"/><polygon points="218.4,401.0 216.2,403.3 210.2,397.7 212.5,395.4"/><polygon points="181.1,408.4 183.5,405.9 187.7,409.8 185.3,412.3"/><polygon points="176.4,415.7 176.3,413.9 179.7,410.3 183.5,413.9 179.2,418.4"/><polygon points="189.2,411.0 196.1,417.6 195.4,418.3 188.5,411.8"/><polygon points="194.0,419.7 193.0,420.8 186.2,414.4 187.2,413.3"/><polygon points="190.9,422.3 187.5,425.9 181.4,420.1 184.8,416.6"/><polygon points="177.8,431.2 177.6,428.9 176.9,420.0 183.0,425.7"/><polygon points="177.9,434.7 185.1,427.1 186.1,428.0 180.3,434.2"/><polygon points="185.6,433.7 182.1,434.4 184.1,432.3"/><polygon points="197.5,419.8 198.9,421.1 188.8,431.8 187.0,432.2 186.3,431.6"/><polygon points="199.6,430.2 192.4,431.7 196.5,427.3"/><polygon points="207.7,427.9 202.1,429.1 198.7,425.9 203.3,421.1 209.0,426.5"/><polygon points="212.5,428.1 209.6,428.7 211.2,427.0"/><polygon points="207.0,421.0 204.7,418.8 208.7,414.6 211.0,416.7"/><polygon points="215.3,426.4 213.7,426.8 209.0,422.4 212.5,418.7 217.8,423.8"/><polygon points="221.5,426.0 217.5,426.9 219.8,424.4"/><polygon points="222.4,418.6 222.0,424.3 217.8,420.4 220.8,417.1"/><polygon points="216.3,418.5 210.5,413.1 213.2,410.3 218.9,415.7"/><polygon points="222.6,413.9 222.5,415.8 214.6,408.4 215.6,407.3"/><polygon points="223.2,399.7 222.5,410.5 217.5,405.7"/><polygon points="432.3,249.8 419.3,246.8 419.6,245.6 432.6,248.6"/><polygon points="421.1,242.6 423.4,232.5 430.3,234.0 427.9,244.2"/><polygon points="433.7,234.1 435.7,234.6 433.1,246.1 431.0,245.7"/><polygon points="424.5,228.4 427.0,217.6 434.3,219.3 431.8,230.1"/><polygon points="437.9,219.1 439.3,219.5 436.4,232.1 435.0,231.8"/><polygon points="458.0,231.3 455.7,241.3 449.7,239.9 452.0,229.9"/><polygon points="446.3,239.6 443.3,238.9 445.8,228.1 448.8,228.8"/><polygon points="455.5,244.7 455.0,246.7 442.2,243.7 442.6,241.7"/><polygon points="439.2,242.8 437.0,242.3 440.5,227.0 442.7,227.6"/><polygon points="453.6,250.0 452.7,253.6 435.7,249.7 436.6,246.1"/><polygon points="459.5,224.8 458.9,227.6 441.6,223.6 442.2,220.8"/><polygon points="456.8,216.3 461.3,221.3 461.1,222.2 455.7,221.0"/><polygon points="444.0,204.2 452.7,213.8 448.1,218.0 441.2,216.4"/><polygon points="455.1,215.7 453.9,220.7 450.4,219.9"/><polygon points="440.1,201.3 438.0,210.6 429.1,208.5 431.2,199.2"/><polygon points="438.1,214.2 437.6,216.5 426.9,214.0 427.4,211.8"/><polygon points="432.4,196.3 437.0,194.6 440.2,198.1"/><polygon points="419.1,208.6 422.7,218.1 421.4,223.7 416.0,222.5"/><polygon points="407.0,206.2 417.2,202.4 415.9,208.2"/><polygon points="398.4,208.7 400.8,207.8 399.5,213.8"/><polygon points="403.5,208.9 411.4,210.8 409.1,220.7 401.9,219.1 401.6,217.3"/><polygon points="414.7,210.4 415.6,210.6 412.8,222.7 411.9,222.5"/><polygon points="420.4,201.6 427.3,199.0 424.3,212.0"/><polygon points="417.9,241.8 416.9,246.2 407.2,243.9"/><polygon points="406.0,239.8 402.6,223.4 409.4,225.0"/><polygon points="420.1,227.7 417.7,238.2 410.3,239.7 413.4,226.2"/><polygon points="409.6,255.4 408.4,255.0 406.6,246.4 411.4,247.5"/><polygon points="440.2,264.7 434.4,262.8 437.2,253.9 442.3,255.1"/><polygon points="431.1,261.9 426.4,260.4 429.1,251.9 434.0,253.0"/><polygon points="423.1,258.8 413.0,255.6 414.5,249.1 425.4,251.6"/><polygon points="452.0,257.5 449.7,267.6 443.7,265.6 445.9,256.1"/><polygon points="450.3,177.4 451.3,177.3 452.2,185.4 451.3,185.5"/><polygon points="453.5,177.6 458.1,177.1 458.9,184.0 454.2,184.6"/><polygon points="460.2,176.3 461.2,176.2 462.1,184.2 461.1,184.3"/><polygon points="462.9,176.1 464.3,175.9 465.1,183.8 463.8,184.0"/><polygon points="466.3,175.9 469.3,175.6 470.1,183.0 467.1,183.3"/><polygon points="471.2,175.1 472.2,174.9 473.1,183.0 472.1,183.1"/><polygon points="473.7,174.7 474.3,174.6 475.3,182.9 474.7,182.9"/><polygon points="476.5,175.1 481.8,174.5 482.5,181.3 477.3,181.9"/><polygon points="441.8,185.8 444.6,178.7 448.2,178.3 448.9,185.0"/><polygon points="477.4,217.1 475.0,217.6 474.2,213.6"/><polygon points="468.0,218.5 462.8,219.7 459.8,216.4 463.2,213.3"/><polygon points="472.9,217.3 470.8,217.7 465.3,211.7 468.6,208.7 471.8,212.2"/><polygon points="470.6,206.8 475.3,202.5 476.5,213.2"/><polygon points="458.1,214.8 455.0,211.4 458.4,208.4 461.5,211.8"/><polygon points="460.3,206.9 466.4,201.4 466.9,206.5 463.1,210.0"/><polygon points="439.4,193.9 438.8,193.2 440.5,188.8 446.2,188.2 446.7,193.1"/><polygon points="441.8,197.3 440.6,196.0 447.5,195.2 447.7,196.6"/><polygon points="448.5,187.6 450.3,187.4 451.2,196.0 449.5,196.2"/><polygon points="445.4,200.9 443.6,198.9 451.5,198.1 451.7,200.2"/><polygon points="452.6,208.8 447.1,202.8 451.9,202.3"/><polygon points="458.2,206.2 454.4,209.6 454.1,206.6"/><polygon points="462.6,201.7 459.7,204.3 454.3,204.9 454.0,202.6"/><polygon points="459.8,193.5 462.8,193.2 463.5,199.5 460.5,199.8"/><polygon points="453.9,200.4 453.3,194.5 457.6,194.0 458.3,199.9"/><polygon points="465.9,192.6 466.6,198.4 465.3,199.5 464.5,192.8"/><polygon points="465.3,189.8 465.4,190.8 452.9,192.2 452.8,191.2"/><polygon points="452.5,187.3 464.7,186.0 464.9,187.5 452.7,188.9"/><polygon points="471.4,203.5 468.7,206.0 468.4,203.8"/><polygon points="474.3,200.5 472.5,202.2 468.5,202.6 468.4,201.2"/><polygon points="475.0,196.3 475.3,198.7 468.5,199.4 468.2,197.0"/><polygon points="474.0,189.5 474.5,194.1 468.2,194.8 467.7,190.2"/><polygon points="466.9,185.5 473.7,184.8 474.0,187.2 467.2,188.0"/><polygon points="486.2,214.3 479.7,215.7 479.0,209.6 485.6,208.9"/><polygon points="478.7,206.7 478.0,201.0 484.6,200.2 485.3,206.0"/><polygon points="477.6,198.1 477.1,192.8 483.7,192.0 484.3,197.4"/><polygon points="476.7,190.0 476.1,184.9 482.9,184.1 483.5,189.2"/><polygon points="498.4,212.1 491.9,213.5 491.3,210.7 498.0,209.2"/><polygon points="491.0,208.5 490.1,204.7 497.3,203.9 497.7,207.0"/><polygon points="490.0,214.0 488.6,214.4 487.5,204.7 488.0,204.6"/><polygon points="486.8,192.7 486.3,188.1 495.1,187.1 495.6,191.7"/><polygon points="487.2,203.0 486.3,195.0 487.1,194.9 488.0,202.9"/><polygon points="489.5,195.4 496.0,194.7 496.7,201.2 490.2,201.9"/><polygon points="484.3,175.2 484.2,173.8 494.0,172.7 494.2,174.1"/><polygon points="485.3,181.5 484.8,177.4 491.7,176.6 492.2,180.7"/><polygon points="485.4,185.7 485.2,183.8 492.7,182.9 492.9,184.8"/><polygon points="493.7,175.9 494.6,175.9 495.5,184.7 494.7,184.8"/><polygon points="509.1,209.3 500.8,211.1 500.3,206.0 508.6,205.0"/><polygon points="512.1,203.8 511.6,209.6 511.3,209.7 510.7,203.9"/><polygon points="512.1,201.4 512.0,202.3 503.1,203.3 503.0,202.4"/><polygon points="510.0,191.7 511.5,199.1 506.4,199.7 505.6,192.2"/><polygon points="504.2,200.5 502.8,200.6 501.9,192.1 503.2,192.0"/><polygon points="501.1,203.2 499.6,203.4 498.4,192.7 499.9,192.5"/><polygon points="508.9,185.6 509.6,189.1 502.3,189.9 501.9,186.4"/><polygon points="507.1,178.3 507.6,180.0 508.3,183.1 501.7,183.8 501.1,178.9"/><polygon points="499.9,190.2 498.2,190.4 497.0,179.2 498.6,179.1"/><polygon points="504.9,171.9 506.1,175.6 496.9,176.6 496.5,172.8"/><polygon points="229.7,187.4 233.1,189.4 230.7,193.4"/><polygon points="234.9,192.1 244.3,197.7 241.5,202.4 233.8,203.7 232.5,196.0"/><polygon points="247.5,198.2 250.3,199.9 248.8,202.4 244.6,203.1"/><polygon points="251.8,200.3 254.5,201.9 250.4,202.6"/><polygon points="217.4,206.6 223.0,197.0 229.1,200.5 229.8,204.5"/><polygon points="223.9,193.8 226.6,189.2 227.7,187.6 229.3,196.9"/><polygon points="265.9,236.8 266.2,239.0 244.0,242.7 243.6,240.5"/><polygon points="262.5,210.4 262.6,211.3 249.7,213.5 249.5,212.5"/><polygon points="262.5,214.3 264.0,223.5 258.1,224.5 256.6,215.3"/><polygon points="255.0,225.3 252.0,225.8 250.3,215.9 253.4,215.4"/><polygon points="264.4,227.2 265.4,232.8 254.0,234.7 253.1,229.1"/><polygon points="251.1,236.0 242.1,237.5 241.8,235.6 250.8,234.1"/><polygon points="242.4,232.2 240.4,220.3 247.2,219.2 249.2,231.1"/><polygon points="238.9,217.1 238.4,214.5 247.2,213.0 247.6,215.7"/><polygon points="244.3,206.1 255.6,204.2 261.1,207.5 245.0,210.2"/><polygon points="237.0,206.5 241.2,205.8 242.1,211.4 238.0,212.1"/><polygon points="223.8,208.6 234.8,206.8 235.0,208.3 224.1,210.1"/><polygon points="234.6,211.6 236.0,219.8 226.9,221.3 225.5,213.1"/><polygon points="220.0,209.5 221.5,209.2 223.7,222.6 222.2,222.8"/><polygon points="208.5,224.3 215.2,211.1 216.7,210.8 218.7,222.6"/><polygon points="233.1,224.6 236.5,224.0 239.7,243.3 236.3,243.9"/><polygon points="223.9,225.9 228.9,225.0 231.0,237.8 226.1,238.7"/><polygon points="232.3,240.9 233.0,245.4 226.6,246.4 225.9,242.0"/><polygon points="207.0,228.8 219.9,226.6 220.9,232.3 208.0,234.5"/><polygon points="201.6,236.4 204.3,230.4 205.2,236.2 201.7,236.8"/><polygon points="206.2,249.8 204.3,250.1 202.4,238.8 204.4,238.5"/><polygon points="222.4,235.4 224.3,246.9 222.9,247.2 221.0,235.6"/><polygon points="219.7,246.8 212.4,248.0 210.7,238.2 218.0,237.0"/><polygon points="209.5,249.5 208.6,249.7 206.6,237.9 207.5,237.7"/><polygon points="195.7,251.4 198.1,245.5 200.1,241.2 201.6,250.4"/><polygon points="238.1,271.5 240.3,284.8 233.8,282.2"/><polygon points="235.7,259.8 236.6,264.9 230.4,280.4 227.9,279.4"/><polygon points="219.4,250.9 234.0,248.5 234.5,251.7 232.7,256.2"/><polygon points="227.9,258.8 231.0,260.0 224.0,277.8 220.8,276.5"/><polygon points="220.3,268.9 219.9,269.8 207.5,264.9 207.8,264.0"/><polygon points="212.7,251.7 214.4,252.4 210.4,262.5 208.7,261.8"/><polygon points="217.0,254.3 224.1,257.1 220.7,265.7 213.6,262.9"/><polygon points="208.5,252.0 210.1,251.7 205.3,263.9 204.0,263.4"/><polygon points="218.2,272.4 217.0,275.3 202.2,269.5 203.4,266.5"/><polygon points="192.6,260.9 194.9,255.0 204.4,253.5 200.2,263.9"/><polygon points="189.9,265.3 190.5,263.6 190.5,263.5 199.9,267.2 199.1,269.0"/><polygon points="247.3,287.3 244.1,286.1 241.5,270.3 244.4,269.8"/><polygon points="252.7,285.9 250.8,286.6 247.9,269.1 249.9,268.8"/><polygon points="269.0,280.3 255.6,285.2 255.2,282.6"/><polygon points="255.4,279.1 253.7,268.5 260.8,267.3 262.6,278.0"/><polygon points="264.2,266.1 266.9,265.7 268.9,277.5 266.2,278.0"/><polygon points="271.3,264.9 273.5,278.1 273.0,278.8 272.0,279.2 269.7,265.1"/><polygon points="237.9,247.9 244.4,246.8 246.2,257.6 239.7,258.7"/><polygon points="247.3,261.0 248.1,265.8 240.6,267.1 239.8,262.2"/><polygon points="258.2,257.5 259.3,263.7 251.2,265.1 250.2,258.8"/><polygon points="248.3,246.1 255.9,244.9 257.4,253.9 249.8,255.1"/><polygon points="260.0,244.4 266.9,243.3 268.8,255.2 262.0,256.4"/><polygon points="270.2,258.6 270.8,262.2 262.4,263.6 261.8,260.0"/><polygon points="310.1,265.9 307.0,266.9 305.2,261.3 308.3,260.3"/><polygon points="327.9,259.0 312.7,264.0 311.5,260.3 327.3,255.2"/><polygon points="304.8,258.9 302.0,250.4 305.6,249.2 308.3,257.8"/><polygon points="307.9,248.2 309.8,247.5 312.8,256.6 310.8,257.2"/><polygon points="313.4,247.5 325.2,243.7 326.4,251.0 315.6,254.5"/><polygon points="301.5,247.0 297.0,233.1 302.3,232.2 304.6,246.0"/><polygon points="319.3,240.4 319.5,241.7 307.9,245.5 307.3,242.4"/><polygon points="306.3,231.7 316.8,229.9 318.0,237.1 307.5,238.8"/><polygon points="320.3,228.8 323.3,228.3 325.2,239.7 322.3,240.7"/><polygon points="305.2,267.6 300.7,269.1 299.6,265.8 304.4,265.0"/><polygon points="297.3,268.8 276.7,275.5 275.9,271.0 296.9,267.5"/><polygon points="273.1,236.2 275.6,235.7 277.1,244.8 276.0,245.1"/><polygon points="279.0,236.3 292.9,234.0 294.3,238.1 280.1,242.7"/><polygon points="270.9,246.7 269.3,236.9 270.8,236.7 273.8,245.7"/><polygon points="297.2,245.4 302.8,262.6 300.1,263.0"/><polygon points="274.6,267.4 271.8,250.7 277.2,267.0"/><polygon points="280.7,246.2 293.5,242.1 293.8,244.1"/><polygon points="278.4,261.7 274.5,249.9 276.4,249.6"/><polygon points="296.2,260.7 296.7,263.6 282.1,266.0 281.6,263.2"/><polygon points="281.9,260.2 280.6,260.4 278.7,249.1 280.1,248.9"/><polygon points="294.0,247.2 295.6,257.3 290.6,258.2 288.9,248.0"/><polygon points="287.5,259.0 284.4,259.5 282.7,248.8 285.7,248.3"/><polygon points="326.2,228.2 326.1,227.6 337.2,225.8 336.4,230.0"/><polygon points="331.4,254.7 328.5,237.3 334.6,236.3"/><polygon points="327.0,234.3 326.4,230.7 336.2,232.4 336.2,232.7"/><polygon points="338.2,216.4 337.2,222.5 327.9,224.1 326.9,218.3"/><polygon points="322.6,197.6 326.7,200.7 323.7,204.7"/><polygon points="328.5,203.5 338.8,211.4 338.7,212.3 326.6,214.3 325.4,207.5"/><polygon points="322.6,216.4 323.9,224.5 314.0,226.1 312.7,218.1"/><polygon points="310.6,227.4 307.4,228.0 305.8,218.5 309.1,217.9"/><polygon points="309.3,215.0 305.4,215.6 303.9,206.6 307.8,206.0"/><polygon points="320.7,204.4 322.0,212.3 312.6,213.8 311.3,206.0"/><polygon points="315.7,192.8 320.1,196.1 320.9,201.0 317.1,201.7"/><polygon points="302.7,195.8 312.2,192.7 313.7,201.4 303.9,203.0"/><polygon points="283.4,201.7 298.9,196.8 299.6,201.0 283.8,203.6"/><polygon points="301.1,208.7 303.4,222.8 300.8,223.3 298.5,209.2"/><polygon points="296.9,223.3 287.7,224.8 286.1,215.4 295.4,213.8"/><polygon points="284.4,212.3 284.2,211.0 295.7,209.1 295.9,210.4"/><polygon points="300.5,204.2 300.7,205.6 284.2,208.4 283.9,207.0"/><polygon points="303.9,226.1 304.3,228.2 288.1,230.9 287.7,228.8"/><polygon points="265.8,213.8 264.8,207.4 270.6,205.6 272.9,212.6"/><polygon points="273.7,204.6 280.0,202.6 281.4,211.1 276.1,212.0"/><polygon points="269.2,234.0 268.8,231.9 284.5,229.3 284.8,231.4"/><polygon points="277.3,215.3 281.9,214.6 283.8,225.9 279.2,226.7"/><polygon points="268.6,228.1 266.9,217.3 273.6,216.2 275.4,227.0"/><polygon points="374.1,373.3 378.9,384.7 378.0,385.0 373.3,373.6"/><polygon points="374.7,385.3 367.5,388.3 363.6,378.8 370.8,375.8"/><polygon points="372.7,370.1 373.1,371.2 361.4,376.1 361.0,375.0"/><polygon points="364.5,390.2 362.9,390.9 357.1,376.9 358.6,376.2"/><polygon points="369.2,363.9 370.7,367.5 356.2,373.5 354.8,369.9"/><polygon points="352.0,363.8 366.8,357.7 367.9,360.3 353.1,366.5"/><polygon points="350.0,395.7 347.4,389.4 356.9,385.4 359.5,391.7"/><polygon points="345.8,385.8 343.5,380.1 353.1,376.1 355.5,381.8"/><polygon points="342.1,376.4 339.2,369.5 348.6,365.6 351.4,372.5"/><polygon points="370.8,390.9 379.4,387.3 381.3,391.8 372.6,395.4"/><polygon points="353.2,403.0 351.7,399.4 367.5,392.8 369.0,396.4"/><polygon points="387.4,383.7 389.5,388.7 384.1,391.0 382.0,385.9"/><polygon points="383.3,374.3 386.1,381.2 381.1,383.3 378.2,376.4"/><polygon points="370.6,356.5 374.4,354.9 381.2,371.2 377.4,372.8"/><polygon points="354.2,407.7 353.7,406.4 365.7,401.4 366.3,402.7"/><polygon points="355.4,410.8 355.0,410.0 367.3,404.9 367.7,405.7"/><polygon points="371.2,416.3 369.8,416.6 358.7,416.6 357.4,413.3 368.1,408.9"/><polygon points="377.0,415.6 375.0,416.0 368.6,400.7 370.5,399.9"/><polygon points="375.9,402.9 374.2,398.9 390.0,392.3 391.7,396.4"/><polygon points="384.1,414.5 380.3,415.2 376.7,406.6 380.2,405.2"/><polygon points="392.7,411.0 387.1,413.3 383.4,404.2 388.9,401.9"/><polygon points="398.0,409.3 395.8,410.3 391.6,400.2 393.9,399.3"/><polygon points="402.5,406.9 401.8,407.4 400.7,407.8 393.9,391.5 395.7,390.8"/><polygon points="407.4,403.9 405.2,405.4 400.6,394.2 402.9,393.2"/><polygon points="417.4,396.2 416.9,396.7 410.1,401.3 406.4,392.5 414.5,389.1"/><polygon points="399.5,391.4 398.7,389.4 412.7,383.6 413.5,385.6"/><polygon points="422.9,391.4 420.4,393.9 415.6,382.3 418.6,381.1"/><polygon points="432.2,381.3 430.8,383.3 425.4,388.5 421.9,380.0 429.1,377.0"/><polygon points="409.7,353.8 411.3,353.1 421.5,367.2 416.7,370.7"/><polygon points="424.2,369.7 427.4,374.1 418.9,377.7 417.6,374.6"/><polygon points="403.8,355.5 406.1,354.5 410.7,365.4 408.3,366.4"/><polygon points="389.7,361.2 391.1,360.6 395.8,371.9 394.4,372.4"/><polygon points="394.4,360.1 400.8,357.4 404.9,367.2 398.5,369.8"/><polygon points="411.4,368.8 415.5,378.5 409.2,381.1 405.2,371.4"/><polygon points="405.7,382.7 400.3,385.0 396.2,375.1 401.6,372.8"/><polygon points="392.7,388.1 387.4,375.4 391.5,373.7 396.8,386.4"/><polygon points="385.7,372.3 382.5,364.5 387.2,362.5 390.5,370.3"/><polygon points="404.8,342.3 410.5,350.1 408.4,351.0"/><polygon points="392.2,347.5 401.9,343.5 405.0,351.1 395.3,355.1"/><polygon points="381.6,360.8 378.5,353.2 388.1,349.2 391.3,356.8"/><polygon points="378.0,327.1 381.7,328.7 380.2,332.4"/><polygon points="383.8,330.9 391.8,334.3 387.3,345.0 386.9,345.2 382.3,334.3"/><polygon points="395.1,334.9 397.9,336.1 395.2,342.5 391.2,344.2"/><polygon points="400.0,336.6 401.0,337.0 403.0,339.7 397.8,341.9"/><polygon points="376.6,331.0 383.2,346.7 379.9,348.1 373.4,332.4"/><polygon points="369.9,326.5 372.0,324.9 375.8,326.5 376.4,327.8 371.3,329.9"/><polygon points="351.9,341.3 357.6,337.1 364.6,346.5 358.9,350.8"/><polygon points="360.2,334.4 362.6,332.6 370.3,343.0 368.0,344.7"/><polygon points="352.0,346.8 357.1,353.6 355.4,354.9"/><polygon points="372.1,346.1 375.1,350.1 357.5,357.5 357.4,357.1"/><polygon points="345.8,345.3 347.8,343.8 354.2,359.1 352.0,360.1"/><polygon points="365.1,330.8 367.9,328.7 373.4,341.9"/><polygon points="337.3,350.6 343.3,346.1 344.0,347.8"/><polygon points="338.9,352.9 344.1,350.8 348.5,361.3 343.3,363.4"/><polygon points="337.3,366.3 332.7,355.2 335.6,353.9 340.2,365.1"/><polygon points="254.6,287.8 255.9,287.4 258.3,293.9"/><polygon points="267.8,287.5 269.1,291.2 261.4,295.8 259.5,290.6"/><polygon points="257.6,287.0 266.9,283.6 267.4,284.9 258.1,288.3"/><polygon points="268.7,282.9 270.4,282.3 273.1,289.5 271.5,290.4"/><polygon points="272.2,281.6 273.4,281.1 277.0,287.2 274.7,288.5"/><polygon points="249.1,290.7 252.8,289.3 257.9,297.8 254.5,299.8"/><polygon points="245.3,303.3 247.8,294.4 252.0,301.4 246.2,304.9"/><polygon points="242.9,308.0 243.8,304.6 245.1,306.7"/><polygon points="269.4,294.3 277.9,289.3 279.2,291.6 270.8,296.6"/><polygon points="280.7,293.3 284.8,300.2 283.4,301.0 279.3,294.1"/><polygon points="281.0,301.8 275.9,304.8 272.4,298.9 277.5,295.9"/><polygon points="285.7,302.0 290.0,309.3 288.3,310.4 283.9,303.0"/><polygon points="285.9,311.3 281.3,314.0 277.4,307.4 282.0,304.7"/><polygon points="291.0,311.7 293.0,315.1 284.8,319.9 282.8,316.6"/><polygon points="300.4,326.3 305.4,334.9 304.8,335.3 299.7,326.7"/><polygon points="302.6,336.0 296.4,339.6 294.0,335.5 300.1,331.8"/><polygon points="292.4,333.6 291.4,331.9 298.2,327.8 299.2,329.6"/><polygon points="298.8,324.0 299.3,324.8 290.3,330.2 289.8,329.3"/><polygon points="296.9,321.0 297.7,322.3 288.9,327.5 288.1,326.2"/><polygon points="294.5,317.2 295.6,319.1 287.0,324.2 285.9,322.3"/><polygon points="259.5,300.5 264.3,297.7 268.3,304.5 263.6,307.3"/><polygon points="266.1,295.9 267.3,295.2 272.0,303.0 270.8,303.7"/><polygon points="260.1,306.7 261.5,309.1 255.1,312.9 253.7,310.5"/><polygon points="250.8,305.3 256.9,301.6 258.8,304.8 252.6,308.4"/><polygon points="248.2,306.4 248.8,306.0 253.6,314.1 253.0,314.5"/><polygon points="242.8,311.8 243.4,310.0 246.5,308.1 250.7,315.1 246.3,317.7"/><polygon points="239.4,322.3 241.6,314.6 244.4,319.3"/><polygon points="259.0,312.9 266.7,308.3 267.3,309.3 259.6,313.9"/><polygon points="268.3,310.8 268.7,311.4 260.8,316.1 260.4,315.4"/><polygon points="269.3,313.6 272.7,319.4 267.9,322.2 264.5,316.4"/><polygon points="266.4,323.9 265.6,324.3 261.6,317.4 262.3,317.0"/><polygon points="255.8,315.3 257.4,314.3 263.6,324.9 262.1,325.8"/><polygon points="269.1,307.6 272.8,305.4 277.3,313.1 273.6,315.3"/><polygon points="279.1,314.6 279.8,315.9 274.9,318.8 274.1,317.6"/><polygon points="280.5,317.7 283.8,323.4 281.0,325.1 277.6,319.4"/><polygon points="279.0,326.2 276.2,327.9 272.8,322.2 275.6,320.5"/><polygon points="274.5,329.1 272.7,330.2 269.2,324.2 271.0,323.1"/><polygon points="270.6,331.0 266.6,333.4 263.4,328.0 267.4,325.6"/><polygon points="285.1,324.9 287.3,328.6 284.9,330.0 282.7,326.3"/><polygon points="283.2,330.8 279.7,332.9 277.6,329.5 281.2,327.4"/><polygon points="277.5,333.8 269.6,338.5 268.0,335.7 275.9,331.0"/><polygon points="262.7,332.0 267.4,339.8 264.8,341.4 260.1,333.5"/><polygon points="262.2,342.6 256.5,346.0 253.2,340.6 259.0,337.2"/><polygon points="251.4,339.0 251.0,338.3 258.0,334.1 258.5,334.8"/><polygon points="250.7,318.5 253.5,316.9 259.1,326.2 256.2,327.9"/><polygon points="251.4,325.3 253.9,329.5 248.4,332.8 245.9,328.6"/><polygon points="242.5,323.1 248.2,319.7 250.2,323.0 244.5,326.4"/><polygon points="260.7,328.5 261.4,329.7 250.4,336.3 249.6,335.0"/><polygon points="236.9,330.7 238.5,325.2 240.5,324.1 242.4,327.4"/><polygon points="241.3,330.5 243.5,329.3 247.4,335.9 245.3,337.2"/><polygon points="240.1,340.1 235.9,335.1 236.3,333.7 239.4,331.9 243.1,338.2"/><polygon points="244.1,345.4 243.2,344.2 249.4,339.1 250.8,341.4"/><polygon points="249.0,350.8 245.9,347.1 251.7,343.6 254.2,347.7"/><polygon points="241.8,343.0 240.9,341.9 248.5,337.4"/><polygon points="252.8,355.8 252.2,355.1 259.5,349.1 260.7,351.1"/><polygon points="258.6,362.0 254.9,357.5 261.5,353.6 264.5,358.5"/><polygon points="250.9,353.8 250.0,352.7 258.0,347.9"/><polygon points="266.9,343.3 269.1,342.0 275.2,352.2 272.9,353.5"/><polygon points="275.4,338.2 279.6,335.7 283.1,341.5 278.8,344.0"/><polygon points="271.0,340.4 273.1,339.2 276.9,345.5 274.8,346.8"/><polygon points="284.5,343.7 285.9,346.0 277.6,351.0 276.2,348.6"/><polygon points="293.1,338.9 294.4,341.2 288.0,345.0 286.7,342.7"/><polygon points="289.5,333.2 291.7,337.0 285.6,340.6 283.4,336.8"/><polygon points="281.3,334.1 288.1,330.0 288.7,331.1 281.9,335.2"/><polygon points="265.9,347.3 270.5,355.0 267.0,357.0 262.5,349.4"/><polygon points="260.0,346.6 264.6,343.8 265.4,345.1 260.8,347.9"/><polygon points="267.9,370.9 265.0,370.2 260.1,364.3 263.0,362.6"/><polygon points="268.3,366.4 265.3,361.4 270.8,358.1 273.8,363.1"/><polygon points="272.3,356.4 273.1,356.0 276.8,362.2 276.0,362.6"/><polygon points="271.2,371.6 269.6,368.8 277.3,364.2 278.9,367.0"/><polygon points="280.3,374.3 274.2,372.7 280.3,369.0 282.6,372.8"/><polygon points="275.5,355.5 276.6,354.8 285.8,370.4 284.7,371.1"/><polygon points="293.7,358.1 296.9,363.5 291.4,366.9 288.0,361.5"/><polygon points="289.7,368.7 288.2,369.6 284.3,363.0 285.6,362.2"/><polygon points="278.4,353.0 279.1,352.6 284.1,361.0 283.4,361.5"/><polygon points="288.9,350.2 292.0,355.5 285.8,359.2 282.7,353.9"/><polygon points="280.5,351.7 288.0,347.2 288.4,347.8 280.8,352.3"/><polygon points="312.9,353.6 307.6,356.8 304.0,351.0 309.2,347.8"/><polygon points="311.7,345.4 316.0,352.5 315.2,353.0 310.8,345.9"/><polygon points="297.5,341.7 298.8,341.0 303.3,348.5 302.2,349.2"/><polygon points="301.2,340.2 306.1,337.3 309.9,343.7 305.1,346.7"/><polygon points="304.7,356.9 305.7,358.6 299.3,362.6 298.2,360.8"/><polygon points="299.3,348.9 301.5,352.3 295.6,356.0 293.5,352.3"/><polygon points="290.0,346.5 295.8,343.1 298.0,346.7 292.2,350.2"/><polygon points="302.9,353.9 303.8,355.3 297.1,359.2 296.4,358.0"/><polygon points="244.3,354.4 246.7,352.8 256.0,363.9 253.8,365.8"/><polygon points="240.4,364.5 245.4,361.2 251.1,368.0 246.5,371.8"/><polygon points="240.2,377.2 234.3,368.3 237.4,366.2 243.9,374.1"/><polygon points="232.6,365.6 230.9,363.1 241.4,356.1 243.4,358.5"/><polygon points="261.0,370.8 244.1,381.9 242.8,380.0 258.1,367.3"/><polygon points="235.5,338.6 245.1,350.2 243.8,351.1"/><polygon points="222.6,350.4 221.1,348.0 233.0,340.2 234.5,342.5"/><polygon points="229.2,360.1 224.7,353.2 231.1,349.1 235.6,355.9"/><polygon points="233.5,346.9 236.5,344.9 241.5,352.5 238.5,354.5"/><polygon points="219.1,345.8 218.2,344.5 219.5,343.1 230.0,338.6"/><polygon points="203.0,374.7 196.2,368.2 198.7,365.6 206.2,372.7"/><polygon points="205.3,358.5 213.1,350.3 215.1,352.1 206.9,360.9"/><polygon points="217.2,355.1 223.1,360.7 212.3,367.8 209.4,363.4"/><polygon points="200.6,363.4 203.3,360.6 209.7,370.4 208.7,371.1"/><polygon points="214.8,348.2 216.5,346.3 222.5,355.5"/><polygon points="229.3,390.5 223.2,381.3 227.8,376.5 235.6,383.8"/><polygon points="240.0,386.2 233.5,390.5 238.7,385.0"/><polygon points="226.9,393.9 225.0,395.2 216.7,387.4 220.2,383.7"/><polygon points="240.6,383.5 229.8,373.3 232.2,370.8"/><polygon points="214.3,384.4 206.4,376.9 214.6,371.5 219.5,378.9"/><polygon points="218.0,369.0 226.7,363.3 229.9,368.1 222.6,375.9"/><polygon points="194.0,365.7 186.0,358.1 193.3,355.0 196.7,362.9"/><polygon points="196.9,353.7 210.8,347.7 199.5,359.7"/><polygon points="305.9,127.7 313.4,127.6 313.4,131.1 305.9,131.0"/><polygon points="313.2,151.0 313.1,154.6 305.7,154.5 305.7,151.0"/><polygon points="313.1,143.5 313.0,148.4 305.9,148.3 305.9,143.5"/><polygon points="313.5,133.4 313.4,141.1 311.1,141.1 311.1,133.3"/><polygon points="308.8,140.9 305.7,140.9 305.8,133.4 308.9,133.4"/><polygon points="297.7,129.1 303.6,127.5 303.7,127.5 303.6,131.3 297.7,131.3"/><polygon points="303.7,133.3 303.6,136.0 297.6,136.0 297.7,133.3"/><polygon points="303.2,138.4 303.1,145.6 298.0,145.6 298.1,138.4"/><polygon points="303.2,148.4 303.1,154.4 297.8,154.4 297.9,148.3"/><polygon points="291.4,130.8 295.7,129.7 295.6,135.0 291.4,134.9"/><polygon points="295.2,140.6 295.1,150.3 291.6,150.3 291.7,140.6"/><polygon points="295.9,136.7 295.9,138.4 291.0,138.4 291.0,136.7"/><polygon points="295.7,152.6 295.7,154.9 290.9,154.8 291.0,152.5"/><polygon points="282.5,134.2 286.5,132.0 289.4,131.2 289.4,134.2"/><polygon points="286.3,136.2 289.2,136.3 289.1,143.9 286.3,143.9"/><polygon points="289.0,146.2 289.0,154.5 286.2,154.4 286.3,146.2"/><polygon points="282.4,136.4 283.9,136.4 283.8,150.2 282.3,150.2"/><polygon points="273.6,139.0 279.2,136.0 280.2,136.0 280.2,139.1"/><polygon points="275.6,141.4 279.7,141.4 279.6,150.0 275.6,150.0"/><polygon points="266.2,144.1 269.5,141.3 270.3,140.9 273.2,140.9 273.2,144.2"/><polygon points="273.0,146.4 272.9,150.2 266.0,150.1 266.0,146.3"/><polygon points="283.6,152.9 283.6,154.1 266.2,154.0 266.2,152.8"/><polygon points="255.0,153.9 263.4,147.0 263.3,154.0"/><polygon points="240.4,169.1 244.4,164.5 244.4,169.1"/><polygon points="235.5,176.7 239.3,171.3 243.8,171.3 243.7,176.7"/><polygon points="243.7,182.2 243.6,193.2 238.8,190.3"/><polygon points="236.8,178.9 243.1,178.9 241.5,181.7"/><polygon points="230.0,184.9 233.6,179.7 239.6,183.3 236.4,188.7"/><polygon points="253.1,156.2 254.4,156.2 254.3,164.6 253.0,164.6"/><polygon points="256.1,156.2 257.3,156.2 257.2,164.7 256.0,164.7"/><polygon points="259.6,156.8 264.6,156.8 264.5,164.2 259.6,164.1"/><polygon points="246.4,162.8 251.1,157.5 251.0,164.4 246.3,164.3"/><polygon points="264.4,167.1 264.3,175.1 259.3,175.0 259.4,167.1"/><polygon points="265.1,177.3 265.1,178.6 258.5,178.5 258.5,177.3"/><polygon points="256.2,177.7 252.4,177.7 252.5,167.1 256.3,167.1"/><polygon points="249.5,177.8 246.5,177.8 246.6,166.9 249.5,166.9"/><polygon points="249.4,190.1 246.4,190.1 246.4,180.5 249.5,180.5"/><polygon points="260.2,190.1 252.2,190.1 252.2,185.6 260.2,185.7"/><polygon points="252.0,183.0 252.0,180.4 260.5,180.5 260.5,183.1"/><polygon points="264.7,180.5 264.6,190.4 262.7,190.4 262.8,180.5"/><polygon points="264.2,193.1 264.1,204.4 263.1,204.7 258.3,201.8 263.5,193.1"/><polygon points="255.4,192.3 261.4,192.3 259.8,194.9"/><polygon points="255.8,200.4 249.3,196.6 251.6,192.9 252.2,192.9 258.2,196.4"/><polygon points="247.2,196.1 245.7,195.2 245.7,192.2 249.5,192.2"/><polygon points="303.1,169.2 296.9,169.1 295.3,164.1 300.9,162.3"/><polygon points="313.8,157.3 313.8,158.8 309.2,158.7"/><polygon points="312.9,160.8 312.8,166.7 306.6,166.6 306.6,160.7"/><polygon points="304.5,166.6 302.7,161.0 304.5,160.4"/><polygon points="313.4,168.9 313.4,169.9 305.6,169.9 305.3,168.8"/><polygon points="311.0,190.1 303.7,192.4 303.3,191.3 310.6,189.0"/><polygon points="303.3,188.9 301.4,183.2 307.4,181.2 309.3,187.0"/><polygon points="300.0,181.3 299.8,180.6 307.2,178.2 307.5,178.9"/><polygon points="312.9,176.9 312.8,189.0 309.3,178.1"/><polygon points="303.1,177.4 299.7,178.5 297.6,171.8 303.1,171.9"/><polygon points="313.0,172.0 313.0,174.3 305.6,176.6 305.6,171.9"/><polygon points="293.2,157.2 306.6,157.3 294.5,161.2"/><polygon points="297.2,193.8 287.0,197.1 285.5,192.3 297.2,192.4"/><polygon points="301.9,191.5 302.4,193.1 299.3,194.1 299.3,191.5"/><polygon points="284.8,198.3 282.6,199.0 280.3,191.7 282.7,191.8"/><polygon points="280.1,199.3 275.7,200.7 272.9,192.1 277.8,192.2"/><polygon points="272.9,201.6 267.1,203.5 267.1,195.0 270.8,195.1"/><polygon points="266.4,192.9 266.4,191.3 270.4,191.3 271.0,193.0"/><polygon points="269.7,156.5 273.8,156.6 273.7,162.6 271.8,163.2"/><polygon points="276.3,157.0 289.4,157.1 276.3,161.3"/><polygon points="267.0,156.4 267.5,156.4 269.9,163.9 266.9,164.8"/><polygon points="290.7,159.9 295.9,176.1 294.4,176.6 289.2,160.4"/><polygon points="283.2,180.6 282.3,180.9 279.5,172.2 283.3,172.3"/><polygon points="291.7,177.7 285.7,179.6 285.8,172.5 290.0,172.5"/><polygon points="280.0,181.5 276.3,182.7 276.4,172.3 277.0,172.3"/><polygon points="286.7,161.1 289.6,170.2 286.6,170.1"/><polygon points="276.6,167.4 276.6,164.2 284.2,161.8 284.2,167.5"/><polygon points="276.0,170.3 276.0,169.6 284.8,169.7 284.8,170.4"/><polygon points="297.1,178.7 300.6,189.6 296.7,189.6 296.8,178.8"/><polygon points="293.8,189.3 289.1,189.3 289.2,181.5 293.9,180.0"/><polygon points="277.4,190.1 275.6,190.1 275.6,184.8 275.7,184.8"/><polygon points="286.0,189.2 279.3,189.2 278.0,185.1 286.1,182.5"/><polygon points="267.5,166.5 274.4,164.3 274.4,166.6"/><polygon points="267.2,176.5 267.3,171.3 273.8,171.3 273.8,176.6"/><polygon points="266.7,169.1 266.7,168.1 274.4,168.2 274.4,169.2"/><polygon points="274.2,189.9 266.5,189.8 266.5,188.8 274.2,188.9"/><polygon points="267.3,186.5 267.4,179.4 273.5,179.5 273.5,186.6"/><polygon points="229.0,432.9 233.9,436.7 234.7,442.2 230.4,442.8"/><polygon points="227.8,441.6 228.1,443.6 221.7,444.6 221.4,442.5"/><polygon points="225.7,431.3 226.9,439.3 221.7,440.0 220.6,432.0"/><polygon points="219.2,427.9 222.7,427.1 225.1,429.0 219.5,429.8"/><polygon points="207.2,430.4 217.7,428.2 217.8,429.0 207.2,430.5"/><polygon points="210.3,439.9 208.7,440.1 207.6,432.2 209.1,432.0"/><polygon points="217.4,431.4 218.4,438.2 212.6,439.0 211.6,432.2"/><polygon points="218.9,441.0 219.4,444.4 210.0,445.7 209.5,442.3"/><polygon points="203.0,432.0 205.1,431.6 207.1,446.0 205.0,446.3"/><polygon points="194.9,433.7 200.0,432.6 201.1,440.5 196.0,441.2"/><polygon points="201.9,443.0 202.4,447.0 196.5,447.8 196.0,443.9"/><polygon points="178.2,436.9 178.2,436.8 192.3,433.8 192.5,434.9"/><polygon points="179.2,443.2 178.7,439.3 186.7,438.2 187.3,442.1"/><polygon points="180.5,449.9 179.6,445.9 187.6,444.8 188.2,448.8"/><polygon points="189.5,437.9 192.5,437.5 194.0,447.9 191.0,448.4"/><polygon points="181.8,456.6 180.9,452.4 187.0,451.6 187.6,455.8"/><polygon points="186.7,469.2 183.2,461.0 182.8,459.3 187.6,458.6 189.1,468.9"/><polygon points="191.0,477.9 188.6,475.2 187.1,471.7 190.1,471.2"/><polygon points="192.7,474.3 192.1,469.8 198.4,468.9 199.0,473.4"/><polygon points="191.6,467.5 191.1,464.4 197.7,463.4 198.2,466.6"/><polygon points="190.9,462.0 190.3,457.7 196.7,456.8 197.3,461.1"/><polygon points="190.0,455.3 189.4,451.2 195.8,450.3 196.4,454.4"/><polygon points="212.2,466.2 207.2,466.9 206.2,459.9 211.2,459.2"/><polygon points="222.9,457.3 223.9,464.8 220.9,465.2 219.9,457.7"/><polygon points="218.5,465.5 214.9,466.0 213.8,458.7 217.5,458.2"/><polygon points="204.7,449.3 208.8,448.7 209.9,456.6 205.8,457.2"/><polygon points="211.7,448.4 217.2,447.7 218.3,455.2 212.8,456.0"/><polygon points="219.7,446.8 221.5,446.5 222.7,455.1 220.9,455.4"/><polygon points="198.3,450.1 202.0,449.6 203.1,457.5 199.4,458.0"/><polygon points="203.5,460.0 204.5,467.4 200.8,468.0 199.7,460.6"/><polygon points="203.9,473.2 201.1,473.6 200.6,470.0 203.4,469.6"/><polygon points="219.2,470.4 206.0,472.2 205.7,470.0 218.9,468.2"/><polygon points="224.5,466.7 225.0,470.2 221.5,470.7 221.0,467.2"/><polygon points="194.2,482.1 193.0,480.6 192.3,476.3 193.4,476.2"/><polygon points="196.5,483.1 195.6,476.7 201.8,475.8 202.7,482.3"/><polygon points="204.4,475.1 207.5,474.7 208.5,481.8 205.4,482.2"/><polygon points="222.8,472.4 225.1,472.1 226.1,479.4 223.8,479.8"/><polygon points="216.0,473.6 220.5,473.0 221.5,479.8 217.0,480.4"/><polygon points="212.1,473.8 213.7,473.6 214.8,481.1 213.2,481.4"/><polygon points="209.3,474.1 210.4,473.9 211.5,481.7 210.4,481.9"/><polygon points="208.0,490.2 198.5,485.7 207.2,484.5"/><polygon points="222.2,491.3 218.0,491.3 218.1,483.0 220.9,482.6"/><polygon points="215.4,491.4 212.5,491.3 212.6,483.6 215.5,483.2"/><polygon points="210.6,491.7 210.4,491.7 209.2,483.6 210.7,483.4"/><polygon points="227.4,490.6 224.9,491.4 224.8,491.4 223.5,482.1 226.2,481.7"/><polygon points="231.9,489.3 229.7,490.0 228.6,482.2 230.8,481.8"/><polygon points="240.9,485.8 234.2,488.0 233.4,481.9 240.2,480.9"/><polygon points="228.6,479.6 228.2,476.8 239.4,475.2 239.8,478.1"/><polygon points="227.6,474.2 227.4,472.8 239.1,471.2 239.3,472.6"/><polygon points="227.4,470.1 226.9,466.4 237.8,464.9 238.3,468.5"/><polygon points="226.4,463.3 225.7,458.4 233.9,457.3 234.6,462.2"/><polygon points="236.1,456.2 237.4,456.0 238.3,462.4 237.0,462.6"/><polygon points="225.1,455.7 224.8,453.7 236.3,452.0 236.5,454.1"/><polygon points="224.0,451.7 223.2,446.0 224.8,445.8 225.6,451.5"/><polygon points="227.0,446.2 235.1,445.0 235.7,449.4 227.6,450.5"/><polygon points="453.2,269.0 455.3,259.9 462.2,261.5 463.3,266.8"/><polygon points="455.8,256.5 458.3,245.6 459.0,245.7 461.7,257.9"/><polygon points="457.8,243.3 458.7,239.4 459.6,243.7"/><polygon points="466.6,282.2 460.3,279.4 455.4,272.5 464.0,270.6"/><polygon points="481.0,222.1 482.7,229.8 473.5,231.8 471.8,224.1"/><polygon points="470.0,220.4 481.1,218.0 481.3,218.9 470.2,221.3"/><polygon points="463.4,224.1 463.8,222.5 467.5,221.7 469.9,232.9 465.5,233.8"/><polygon points="459.9,235.9 461.6,228.4 463.1,235.2"/><polygon points="473.7,286.8 470.2,285.2 469.5,282.2 472.5,281.6"/><polygon points="488.3,279.4 483.4,289.9 476.7,286.8 475.7,282.1"/><polygon points="480.3,277.1 469.9,279.3 468.7,273.7 479.1,271.4"/><polygon points="492.2,271.8 490.7,275.0 483.8,276.5 482.5,270.5 491.5,268.6"/><polygon points="461.7,244.5 460.3,238.1 464.6,237.1 466.0,243.6"/><polygon points="468.1,237.3 483.4,233.9 484.5,238.6 469.1,242.0"/><polygon points="482.0,243.1 485.7,242.3 488.5,255.0 484.8,255.8"/><polygon points="481.3,254.5 481.8,256.8 470.5,259.3 470.0,256.9"/><polygon points="468.4,246.4 478.4,244.2 480.0,251.3 469.9,253.5"/><polygon points="481.3,267.2 473.1,269.0 471.6,262.3 479.9,260.5"/><polygon points="489.3,258.2 490.9,265.3 484.7,266.7 483.1,259.5"/><polygon points="467.9,270.0 463.0,247.5 464.5,247.2 469.4,269.7"/><polygon points="500.8,249.2 494.6,264.8 491.6,251.2"/><polygon points="503.9,241.0 502.8,244.8 490.4,247.5 489.7,244.2"/><polygon points="485.8,229.9 485.6,228.9 496.8,226.5 497.0,227.5"/><polygon points="498.4,238.4 489.1,240.4 487.5,232.7 496.7,230.7"/><polygon points="503.6,238.0 501.8,238.4 499.1,226.2 501.0,225.8"/><polygon points="509.2,224.2 505.9,235.5 503.7,225.4"/><polygon points="504.0,222.5 501.2,223.1 499.2,214.3 502.0,213.6"/><polygon points="497.6,223.0 486.0,225.5 484.5,218.4 496.0,215.9"/><polygon points="510.5,212.0 509.8,221.0 506.6,221.7 504.8,213.3"/><polygon points="438.1,374.3 434.6,379.0 430.3,373.1 434.8,369.8"/><polygon points="428.5,371.4 427.0,369.4 432.2,365.6 433.7,367.6"/><polygon points="426.0,367.0 421.5,360.9 425.8,357.7 430.3,363.9"/><polygon points="419.6,358.8 416.7,354.7 421.4,351.3 424.3,355.3"/><polygon points="446.6,361.8 443.2,367.6 439.9,371.9 437.4,368.6"/><polygon points="442.6,361.3 435.7,366.4 433.6,363.6 440.6,358.5"/><polygon points="432.0,362.0 426.5,354.5 427.5,353.8 433.0,361.2"/><polygon points="429.9,352.8 434.0,349.8 438.7,356.3 434.6,359.3"/><polygon points="425.5,352.5 423.5,349.8 430.5,344.7 432.4,347.4"/><polygon points="453.5,350.8 450.7,355.5 444.8,359.8 443.5,358.1"/><polygon points="442.1,355.7 437.5,349.4 442.0,346.1 446.6,352.4"/><polygon points="444.2,344.2 447.6,341.8 452.4,348.4 449.0,350.8"/><polygon points="435.5,348.0 431.8,343.0 433.1,342.1 436.7,347.0"/><polygon points="435.4,341.3 443.0,335.8 445.7,339.5 438.2,345.0"/><polygon points="457.7,343.7 455.3,348.3 452.3,344.3 455.8,341.7"/><polygon points="451.2,342.2 445.1,333.9 446.7,332.8 453.9,340.2"/><polygon points="434.9,320.5 441.2,327.0 438.6,329.5 433.0,322.0"/><polygon points="426.6,313.6 427.7,312.6 433.5,318.7 431.4,320.2"/><polygon points="443.0,328.4 445.4,330.9 441.3,333.9 439.6,331.6"/><polygon points="413.2,326.7 414.6,325.4 420.5,331.6 418.0,333.4"/><polygon points="409.0,330.9 411.5,328.4 416.1,334.7 413.3,336.8"/><polygon points="415.8,323.7 421.3,318.4 422.2,319.3 416.6,324.6"/><polygon points="423.3,321.4 427.7,326.0 422.5,329.8 418.7,325.9"/><polygon points="423.0,317.3 425.1,315.3 431.2,323.7 430.0,324.6"/><polygon points="424.5,345.5 421.6,347.6 415.2,338.8 418.1,336.7"/><polygon points="432.6,325.9 439.2,334.9 437.2,336.4 430.5,327.4"/><polygon points="435.1,338.1 432.4,340.0 427.3,333.1 430.0,331.1"/><polygon points="430.2,341.5 427.0,343.9 422.0,337.1 425.2,334.7"/><polygon points="420.3,335.5 419.7,334.8 428.4,328.4 428.9,329.1"/><polygon points="404.3,338.3 402.9,336.4 407.2,332.2 409.1,334.8"/><polygon points="409.9,345.3 406.0,340.0 410.2,336.9 414.1,342.3"/><polygon points="415.2,352.6 411.5,347.5 415.7,344.4 419.4,349.5"/><polygon points="463.2,332.3 458.5,341.0 454.7,337.1 461.5,330.6"/><polygon points="468.3,323.3 464.7,330.4 462.9,328.5"/><polygon points="438.1,320.9 437.7,320.4 444.3,314.0 444.7,314.5"/><polygon points="437.4,307.8 437.9,307.3 443.3,312.9 442.7,313.4"/><polygon points="436.6,318.3 432.2,313.8 436.4,309.8 440.7,314.3"/><polygon points="430.2,312.3 429.1,311.2 435.4,305.1 436.5,306.3"/><polygon points="448.1,331.1 447.4,330.3 453.8,324.1 454.6,324.9"/><polygon points="442.1,324.3 439.9,322.0 445.8,316.3 448.0,318.6"/><polygon points="446.1,328.5 443.9,326.1 449.8,320.4 452.1,322.8"/><polygon points="458.5,329.6 452.7,335.2 450.0,332.4 455.8,326.8"/><polygon points="462.4,326.5 460.4,328.3 456.7,324.5 458.6,322.6"/><polygon points="465.6,323.3 463.7,325.2 460.0,321.3 461.9,319.4"/><polygon points="473.2,312.4 470.4,317.9 467.0,321.2 464.1,318.2 471.7,310.8"/><polygon points="476.8,306.8 474.8,310.8 472.8,308.7 475.8,305.8"/><polygon points="479.3,302.1 477.5,305.8 476.5,304.8"/><polygon points="468.5,310.6 465.7,313.2 462.8,310.3 465.6,307.6"/><polygon points="471.9,307.4 469.8,309.4 466.8,306.3 468.9,304.3"/><polygon points="480.3,297.9 479.8,299.0 473.1,305.4 470.9,303.1 478.4,295.9"/><polygon points="483.5,293.0 481.8,296.4 479.5,294.0 481.4,292.1"/><polygon points="455.0,287.1 459.3,282.9 463.8,284.9 460.3,292.6"/><polygon points="466.2,285.1 467.4,285.6 464.7,291.4 463.8,290.4"/><polygon points="468.7,286.3 469.6,286.7 466.6,293.3 465.8,292.5"/><polygon points="471.4,288.3 476.2,290.5 473.4,296.7 472.1,298.0 468.6,294.3"/><polygon points="478.5,290.6 480.2,291.4 476.5,295.0"/><polygon points="470.3,300.0 468.6,301.7 462.2,295.1 463.3,292.7"/><polygon points="461.5,308.1 457.2,303.6 462.0,298.9 466.4,303.4"/><polygon points="455.0,302.4 454.3,301.6 460.2,296.0 460.9,296.7"/><polygon points="453.2,299.6 449.7,295.9 454.7,291.1 458.2,294.7"/><polygon points="447.7,294.7 446.9,293.8 452.7,288.2 453.5,289.1"/><polygon points="439.5,305.8 437.5,303.7 445.6,295.9 447.6,297.9"/><polygon points="444.9,312.0 440.9,307.9 443.5,305.4 447.5,309.5"/><polygon points="445.4,303.9 449.6,299.8 453.2,303.6 449.0,307.7"/><polygon points="447.3,314.4 446.4,313.5 455.1,305.2 455.9,306.1"/><polygon points="454.4,316.1 451.8,313.4 457.5,308.0 460.1,310.7"/><polygon points="463.9,314.5 458.2,320.1 456.1,318.0 461.9,312.4"/><polygon points="456.6,321.8 455.4,322.9 448.8,316.0 449.9,314.8"/><polygon points="492.3,146.0 492.4,146.1 500.4,161.8 502.4,168.1 494.9,168.9"/><polygon points="489.8,166.3 490.3,170.0 473.7,171.9 473.3,168.1"/><polygon points="487.0,149.6 488.3,161.3 473.7,162.9 472.4,151.3"/><polygon points="484.1,141.3 487.3,142.9 487.5,144.5 470.8,146.4 470.4,142.9"/><polygon points="469.0,136.3 477.4,137.4 479.8,138.6 469.3,139.8"/><polygon points="468.8,168.0 469.3,172.1 445.4,174.7 445.1,173.3"/><polygon points="449.6,168.0 443.6,169.3 441.5,159.7 447.5,158.4"/><polygon points="467.1,154.9 468.0,163.1 453.8,166.2 452.0,158.3"/><polygon points="459.1,136.0 465.5,136.8 467.0,150.0 462.4,151.0"/><polygon points="456.0,144.5 457.6,151.6 441.4,155.2 439.8,148.0"/><polygon points="437.1,137.9 438.8,137.6 454.6,136.3 455.3,139.6 438.3,143.3"/><polygon points="338.6,376.2 341.4,383.0 339.0,384.0 336.2,377.1"/><polygon points="336.9,384.8 334.0,386.0 331.2,379.3 334.1,378.1"/><polygon points="331.5,386.8 326.9,388.7 324.3,382.4 328.9,380.5"/><polygon points="324.2,379.7 323.1,380.1 318.1,368.2 319.3,367.7"/><polygon points="326.6,375.5 325.2,376.1 321.3,366.8 322.7,366.2"/><polygon points="332.6,362.1 333.6,364.4 325.8,367.7 324.8,365.4"/><polygon points="334.3,366.9 336.1,371.1 328.8,374.2 327.0,369.9"/><polygon points="337.4,373.3 337.7,374.2 326.4,378.9 326.0,378.0"/><polygon points="327.2,355.0 330.0,355.3 332.0,360.1 329.7,361.1"/><polygon points="323.2,354.5 325.0,354.7 328.0,361.8 326.5,362.4"/><polygon points="321.6,357.2 324.0,362.8 317.4,365.5 315.1,359.9"/><polygon points="313.0,356.4 317.3,353.8 321.0,354.2 321.2,354.6 313.5,357.8"/><polygon points="297.1,366.6 304.2,362.2 306.1,365.2 297.9,368.6"/><polygon points="306.2,360.9 311.2,357.8 313.1,362.3 308.4,364.3"/><polygon points="313.8,364.9 315.5,368.9 307.5,372.3 305.8,368.2"/><polygon points="305.2,373.6 300.7,375.4 298.8,370.8 303.2,369.0"/><polygon points="316.6,371.8 319.5,378.7 314.1,381.0 311.2,374.0"/><polygon points="320.9,381.1 322.3,384.4 316.1,386.9 314.8,383.6"/><polygon points="314.0,387.8 307.1,390.7 305.9,387.7 312.7,384.8"/><polygon points="305.0,385.4 303.5,381.7 310.2,378.9 311.7,382.6"/><polygon points="302.4,379.7 301.5,377.5 308.6,374.6 309.5,376.7"/><polygon points="323.0,387.0 324.1,389.7 313.0,394.3 311.9,391.6"/><polygon points="311.2,395.9 309.2,396.8 307.5,392.6 309.5,391.8"/><polygon points="282.0,375.9 286.9,372.9 288.9,376.2 283.5,379.6"/><polygon points="290.1,378.2 292.3,381.6 285.6,384.4 284.5,381.7"/><polygon points="288.3,371.5 295.2,367.2 295.7,368.4"/><polygon points="295.8,370.8 299.0,378.4 294.6,380.2 290.2,373.2"/><polygon points="281.7,386.4 281.4,379.6 283.9,385.5"/><polygon points="294.2,383.1 300.5,380.4 301.3,382.4 295.1,385.0"/><polygon points="301.8,384.9 304.5,391.6 299.3,393.7 296.5,387.1"/><polygon points="305.9,393.9 307.3,397.1 301.3,399.6 300.0,396.3"/><polygon points="282.5,407.7 282.4,405.1 289.4,404.9"/><polygon points="282.7,403.1 282.6,402.2 296.2,401.7 293.9,402.7"/><polygon points="290.4,389.0 294.4,388.9 296.0,392.8 290.6,395.1"/><polygon points="296.9,395.0 298.7,399.3 290.8,399.6 290.7,397.6"/><polygon points="282.8,399.6 282.6,392.2 287.8,392.0 288.1,399.4"/><polygon points="281.7,390.0 281.7,388.9 288.4,388.7 288.5,389.8"/><polygon points="284.9,387.0 292.4,383.9 293.6,386.7"/><polygon points="294.4,407.8 297.6,415.5 296.5,416.0 293.3,408.3"/><polygon points="293.9,416.3 288.0,418.8 285.3,412.4 291.3,409.9"/><polygon points="283.4,409.4 293.3,405.3 293.6,406.2 283.8,410.3"/><polygon points="284.3,421.0 283.1,419.9 282.8,412.9 285.9,420.3"/><polygon points="293.1,428.9 292.3,428.2 299.4,420.8 301.3,425.5"/><polygon points="297.1,433.0 294.9,430.9 302.5,427.7 303.5,430.3"/><polygon points="302.6,432.7 301.4,433.9 299.4,435.9 298.0,434.6"/><polygon points="290.4,426.2 286.6,422.6 298.0,417.9 298.1,418.1"/><polygon points="308.8,426.7 305.3,430.2 304.6,428.5"/><polygon points="305.0,426.8 304.3,427.1 300.9,419.1 301.7,418.8"/><polygon points="312.5,421.8 311.1,423.2 309.7,424.1 306.9,425.2 304.2,418.6 310.1,416.1"/><polygon points="300.5,417.3 299.9,416.1 309.1,412.3 309.6,413.5"/><polygon points="299.4,413.5 297.6,408.9 305.7,405.6 307.6,410.1"/><polygon points="296.1,406.6 295.3,404.6 304.2,400.9 305.0,402.9"/><polygon points="309.5,407.7 306.3,400.0 308.8,399.0 312.0,406.7"/><polygon points="311.3,398.2 315.7,396.4 318.7,403.6 314.3,405.4"/><polygon points="318.1,395.2 320.8,394.0 324.0,401.7 321.3,402.8"/><polygon points="322.9,393.1 325.3,392.1 328.5,399.9 326.2,400.8"/><polygon points="314.4,418.7 311.7,412.3 316.6,410.3 319.2,416.7"/><polygon points="310.2,410.6 309.8,409.6 316.0,407.1 316.4,408.0"/><polygon points="318.2,406.9 321.3,405.6 324.9,414.3 321.8,415.6"/><polygon points="323.9,404.6 329.2,402.3 331.6,408.0 326.2,410.2"/><polygon points="333.0,409.9 333.6,411.3 327.2,414.0 326.6,412.5"/><polygon points="334.8,388.5 342.0,385.5 344.0,390.2 336.7,393.3"/><polygon points="345.3,392.7 346.4,395.5 338.7,398.7 337.5,395.9"/><polygon points="331.7,401.9 330.5,399.0 335.5,396.9 336.8,399.8"/><polygon points="329.9,396.8 327.6,391.3 332.1,389.4 334.4,394.9"/><polygon points="336.8,414.1 335.4,410.6 340.3,408.5 341.7,412.0"/><polygon points="334.6,408.5 332.7,403.9 337.4,401.9 339.3,406.5"/><polygon points="339.9,401.1 342.8,399.9 346.8,409.5 343.9,410.7"/><polygon points="345.3,398.7 347.4,397.9 351.5,407.7 349.4,408.6"/><polygon points="347.0,416.5 342.1,416.2 338.1,415.8 345.4,412.8"/><polygon points="355.4,417.3 355.1,417.3 349.7,416.7 347.8,412.1 352.4,410.2"/><polygon points="315.9,163.4 315.9,155.1 321.1,155.2 321.1,163.4"/><polygon points="323.9,154.9 326.6,154.9 326.6,163.8 323.8,163.8"/><polygon points="329.0,154.8 330.9,154.8 330.8,164.0 328.9,163.9"/><polygon points="334.0,155.8 344.8,155.9 344.8,163.1 334.0,163.0"/><polygon points="348.5,155.5 354.4,155.6 354.3,163.6 348.5,163.6"/><polygon points="328.4,166.8 334.2,166.8 334.1,176.4 328.4,176.3"/><polygon points="316.2,175.9 316.3,167.0 324.7,167.0 324.6,176.0"/><polygon points="319.3,191.1 316.3,188.8 316.4,180.2 325.0,180.3 324.9,191.2"/><polygon points="329.1,179.9 334.0,180.0 333.9,191.6 329.0,191.6"/><polygon points="345.4,177.5 345.3,187.8 337.8,187.8 337.9,177.4"/><polygon points="346.3,191.0 346.3,192.5 336.7,192.4 336.7,190.9"/><polygon points="346.4,172.0 346.3,174.2 337.0,174.2 337.0,172.0"/><polygon points="337.2,166.4 346.3,166.5 346.2,169.6 337.2,169.5"/><polygon points="340.7,209.2 337.8,207.0 340.7,203.1"/><polygon points="336.3,204.2 324.9,195.5 339.4,195.6 339.4,200.1"/><polygon points="345.7,207.4 343.0,208.3 343.1,195.1 345.8,195.1"/><polygon points="354.2,204.9 348.6,206.7 348.6,200.2 354.3,200.3"/><polygon points="348.8,197.4 348.9,190.0 354.2,190.1 354.1,197.5"/><polygon points="349.2,186.8 349.3,175.7 354.1,175.7 354.0,186.8"/><polygon points="348.9,172.5 348.9,166.6 354.5,166.6 354.5,172.6"/><polygon points="359.6,194.4 357.2,187.0 359.7,187.0"/><polygon points="367.1,200.2 362.9,201.5 362.4,199.8 362.5,188.0 367.2,188.0"/><polygon points="377.1,188.1 376.7,197.2 370.9,199.0 371.0,188.0"/><polygon points="360.1,203.1 356.8,204.1 356.9,193.2"/><polygon points="378.2,156.0 378.1,158.3 357.9,157.6 357.9,155.8"/><polygon points="358.1,176.4 356.9,176.4 357.0,164.2 358.2,164.2"/><polygon points="361.2,172.3 361.3,165.1 370.8,165.2 370.5,172.7"/><polygon points="371.3,176.9 360.2,176.5 360.3,175.3 371.3,175.7"/><polygon points="357.2,161.9 357.2,160.6 371.7,161.2 371.6,162.0"/><polygon points="378.1,162.0 377.5,176.4 374.1,176.3 374.7,161.9"/><polygon points="377.0,180.4 376.8,184.0 358.0,183.8 358.0,179.7"/><polygon points="366.6,145.7 373.6,146.1 378.3,147.5 378.1,152.1 366.6,151.9"/><polygon points="355.0,140.7 361.0,142.4 362.5,143.1 362.4,151.9 354.9,151.8"/><polygon points="351.6,150.7 351.6,152.7 342.0,152.7 342.0,150.6"/><polygon points="343.1,135.1 348.3,137.1 350.8,138.2 350.7,147.4 343.0,147.3"/><polygon points="338.9,150.3 338.9,151.9 316.3,151.7 316.3,150.1"/><polygon points="333.7,131.5 334.8,131.8 338.9,133.4 338.8,146.3 333.6,146.2"/><polygon points="330.1,144.9 330.1,146.8 315.9,146.7 315.9,144.8"/><polygon points="329.4,129.6 330.5,129.9 330.4,142.4 329.3,142.4"/><polygon points="326.9,140.0 326.8,142.2 315.8,142.1 315.8,139.9"/><polygon points="316.6,128.4 319.9,128.4 326.2,129.8 326.2,136.7 316.6,136.6"/><polygon points="390.1,268.3 383.7,273.5 381.8,271.2 388.2,266.1"/><polygon points="380.3,269.1 377.7,265.8 383.8,260.9 386.5,264.2"/><polygon points="375.9,264.2 374.9,262.9 381.6,257.5 382.6,258.8"/><polygon points="373.7,261.0 371.7,258.6 378.1,253.5 380.0,255.9"/><polygon points="370.2,256.8 368.4,254.5 374.7,249.4 376.6,251.6"/><polygon points="366.8,253.0 361.7,246.6 362.8,245.7 368.0,252.1"/><polygon points="364.9,244.6 368.4,241.8 373.0,247.5 369.5,250.3"/><polygon points="360.6,244.4 356.0,238.7 360.2,235.2 364.8,240.9"/><polygon points="361.5,233.2 362.0,232.9 367.5,239.7 367.1,240.1"/><polygon points="363.7,232.6 363.2,231.9 369.8,226.6 370.4,227.2"/><polygon points="369.9,238.9 365.8,233.9 371.2,229.6 375.3,234.6"/><polygon points="371.3,241.9 370.8,241.3 377.4,235.9 377.9,236.5"/><polygon points="379.8,246.2 376.2,246.9 373.3,243.2 378.7,238.8 382.8,243.8"/><polygon points="385.9,246.0 382.2,246.8 384.8,244.7"/><polygon points="393.9,207.9 396.3,209.2 396.9,211.9 386.3,214.1"/><polygon points="398.2,218.8 399.1,223.3 391.2,224.9 390.3,220.4"/><polygon points="397.7,214.3 398.1,216.2 389.4,218.0 389.0,216.1"/><polygon points="380.2,224.1 379.3,219.9 381.6,218.0 386.6,217.0 387.7,222.6"/><polygon points="389.0,225.9 380.3,227.7 380.1,226.6 388.8,224.8"/><polygon points="378.2,227.8 374.1,228.6 371.7,225.7 376.9,221.5"/><polygon points="380.5,237.0 375.4,230.6 379.1,229.9"/><polygon points="385.8,243.0 383.6,240.3 381.4,229.7 383.0,229.4"/><polygon points="399.9,225.9 400.1,227.1 385.8,230.0 385.6,228.8"/><polygon points="400.5,229.7 402.0,236.8 397.2,237.8 395.7,230.7"/><polygon points="394.7,238.6 391.9,239.1 390.4,231.5 393.2,231.0"/><polygon points="402.6,239.4 403.1,241.7 393.0,243.8 392.5,241.5"/><polygon points="390.5,244.2 388.8,244.6 386.3,232.5 388.0,232.2"/><polygon points="381.4,253.7 380.6,252.7 387.1,247.5 387.9,247.3 388.9,252.2"/><polygon points="391.4,265.8 383.6,256.0 389.2,254.9"/><polygon points="379.0,251.4 377.1,249.1 383.5,247.8"/><polygon points="400.1,259.8 399.3,260.4 391.9,251.3 398.2,250.0"/><polygon points="404.4,248.5 405.8,255.5 402.7,258.0 400.9,249.2"/><polygon points="397.4,262.4 394.0,265.2 392.1,255.9"/><polygon points="403.5,244.3 403.9,245.9 390.8,248.6 390.5,246.9"/><polygon points="383.5,202.3 391.8,206.5 388.8,208.9"/><polygon points="368.9,219.1 365.8,215.3 370.7,211.4 373.8,215.2"/><polygon points="376.9,218.6 371.6,222.9 370.1,221.1 375.5,216.8"/><polygon points="369.8,224.1 368.4,225.3 362.4,217.9 363.8,216.7"/><polygon points="375.0,212.7 372.7,209.7 378.1,205.3 380.5,208.3"/><polygon points="384.1,212.6 378.5,217.1 376.5,214.6 382.1,210.1"/><polygon points="387.1,210.2 385.9,211.3 379.8,203.7 381.1,202.7"/><polygon points="366.0,226.6 362.1,229.8 356.6,223.1 360.6,219.9"/><polygon points="359.7,231.8 354.1,236.3 350.5,231.9 356.1,227.3"/><polygon points="348.5,230.4 347.7,229.4 354.3,224.1 355.1,225.1"/><polygon points="378.4,199.7 380.3,200.6 375.2,204.7 372.6,201.5"/><polygon points="368.1,209.9 364.5,212.8 359.2,206.3 366.2,204.1"/><polygon points="373.7,206.0 370.3,208.7 368.5,202.8 370.5,202.1"/><polygon points="362.5,214.7 360.9,216.1 354.1,207.6 356.2,207.0"/><polygon points="358.9,217.6 355.2,220.6 351.4,215.8 355.0,212.8"/><polygon points="349.7,214.0 346.4,209.9 351.6,208.3 353.7,210.9"/><polygon points="342.0,216.4 341.2,215.5 342.0,211.2 344.2,210.5 346.2,213.0"/><polygon points="352.9,222.1 349.5,224.9 344.0,218.0 347.4,215.3"/><polygon points="347.8,226.8 346.6,227.7 340.6,220.2 340.9,218.3"/><polygon points="338.4,234.1 340.2,223.8 344.6,229.2"/><polygon points="344.4,232.4 346.4,230.8 350.7,236.2 348.7,237.8"/><polygon points="338.8,237.3 342.7,234.1 346.7,239.1 342.8,242.2"/><polygon points="336.2,245.4 337.3,239.2 341.1,243.9 337.4,246.9"/><polygon points="334.8,249.9 335.3,246.7 336.7,248.3"/><polygon points="339.1,248.9 345.3,243.9 348.7,248.0 342.5,253.0"/><polygon points="347.5,241.9 352.0,238.3 355.6,242.7 351.1,246.4"/><polygon points="334.7,259.6 334.1,259.1 335.4,251.6 336.7,250.5 340.4,255.0"/><polygon points="346.8,269.2 337.0,261.3 339.1,259.6"/><polygon points="343.0,260.7 340.7,257.7 344.4,254.8 346.7,257.7"/><polygon points="346.7,253.6 357.2,245.1 358.9,247.1 348.3,255.6"/><polygon points="351.6,270.7 348.9,267.5 354.4,263.1 357.0,266.3"/><polygon points="347.3,265.5 344.7,262.2 350.2,257.8 352.8,261.0"/><polygon points="352.2,256.2 353.9,254.8 360.8,263.3 359.0,264.7"/><polygon points="356.6,277.7 352.5,272.7 353.8,271.6 357.9,276.7"/><polygon points="356.1,270.7 362.4,265.6 365.6,269.6 359.3,274.7"/><polygon points="355.7,253.2 360.9,249.0 363.1,251.7 357.9,255.9"/><polygon points="364.5,253.9 368.4,258.8 363.7,262.6 359.8,257.7"/><polygon points="370.2,260.7 372.9,264.1 367.9,268.1 365.2,264.8"/><polygon points="372.8,282.0 367.8,286.0 364.2,283.2 369.0,277.2"/><polygon points="362.0,281.5 358.7,278.9 365.8,273.1 367.3,274.9"/><polygon points="382.3,275.1 375.0,281.0 374.4,280.3 381.7,274.4"/><polygon points="373.4,277.9 370.0,273.7 376.2,268.6 379.6,272.9"/><polygon points="367.9,272.2 367.3,271.4 374.5,265.5 375.2,266.3"/><polygon points="445.4,292.0 443.2,294.2 435.6,286.3 437.9,284.2"/><polygon points="456.4,282.1 455.6,282.8 447.5,274.3 448.2,273.6"/><polygon points="452.8,284.2 447.6,289.2 440.7,282.1 446.0,277.1"/><polygon points="450.7,271.1 457.0,279.9 449.6,272.2"/><polygon points="410.7,259.4 425.8,264.2 423.2,272.4"/><polygon points="439.3,267.5 448.4,270.4 445.1,273.5"/><polygon points="431.9,265.3 434.4,266.1 443.2,275.2 442.3,276.0"/><polygon points="427.1,269.4 428.6,264.7 430.3,266.4"/><polygon points="439.1,277.9 433.6,283.2 426.7,276.0 427.7,272.7 431.1,269.5"/><polygon points="417.2,286.6 411.5,280.6 418.5,273.8 424.3,279.8"/><polygon points="440.9,296.2 433.0,303.8 430.4,301.0 438.2,293.4"/><polygon points="428.1,298.5 424.9,295.1 432.5,287.7 435.8,291.1"/><polygon points="422.5,292.7 419.5,289.6 427.3,282.2 430.2,285.3"/><polygon points="408.5,278.0 404.9,274.2 412.4,266.9 416.1,270.7"/><polygon points="402.4,271.4 397.5,266.4 405.5,259.9 409.7,264.3"/><polygon points="391.2,271.7 394.5,269.1 406.3,281.4 403.3,284.3"/><polygon points="399.2,285.7 400.8,287.3 387.7,299.9 386.2,298.3"/><polygon points="383.7,280.9 388.9,287.4 381.6,293.2 376.5,287.8"/><polygon points="391.6,289.0 391.7,289.1 383.7,296.9 382.8,296.0"/><polygon points="372.7,285.3 382.2,277.6 382.5,277.8 373.6,286.3"/><polygon points="384.1,276.3 385.0,275.6 393.9,286.6 393.1,287.4"/><polygon points="387.1,274.0 387.9,273.3 397.4,283.1 395.7,284.7"/><polygon points="370.9,300.0 369.6,288.7 371.0,287.6 377.6,294.5 371.4,300.5"/><polygon points="380.0,297.1 385.1,302.3 378.9,308.2 373.9,303.0"/><polygon points="372.3,315.3 371.1,304.7 376.9,310.8"/><polygon points="373.9,322.1 373.5,319.0 389.0,304.1 390.7,305.9"/><polygon points="400.8,333.6 392.7,330.1 396.5,321.1 404.6,324.5"/><polygon points="410.9,325.9 405.1,331.5 408.0,324.6"/><polygon points="396.8,317.6 397.3,316.5 405.6,319.9 407.8,322.2"/><polygon points="397.7,314.6 398.7,312.3 403.1,316.8"/><polygon points="385.6,328.2 376.4,324.3 379.3,321.6"/><polygon points="388.7,312.7 393.7,307.9 396.9,311.2 395.1,315.4"/><polygon points="382.1,320.0 386.7,315.5 393.2,318.2 389.3,327.5"/><polygon points="392.4,302.6 391.0,301.1 400.6,291.9 402.1,293.3"/><polygon points="403.3,295.6 404.0,295.0 413.3,304.6 412.6,305.2"/><polygon points="395.4,306.0 394.1,304.6 401.7,297.3 403.0,298.7"/><polygon points="403.2,313.1 398.1,307.8 404.7,301.5 409.8,306.8"/><polygon points="405.9,316.8 405.0,315.9 414.8,306.4 415.8,307.4"/><polygon points="403.7,289.9 409.3,284.5 416.7,292.2 411.1,297.6"/><polygon points="419.7,293.9 421.2,295.5 414.2,302.2 412.7,300.7"/><polygon points="422.9,297.3 424.5,299.0 417.6,305.7 415.9,303.9"/><polygon points="430.6,306.0 424.5,311.8 420.2,307.3 426.2,301.5"/><polygon points="421.6,314.2 412.7,322.8 408.8,318.7 417.7,310.1"/></g><g fill="none" stroke-linecap="round" stroke-linejoin="round"><path d="M409.5,171.9 L439.0,156.7 L467.4,155.4" stroke="#6c604a" stroke-width="3.4"/><path d="M467.4,155.4 L474.7,173.8 L477.5,194.4" stroke="#6c604a" stroke-width="3.4"/><path d="M477.5,194.4 L487.3,215.6 L480.7,248.9" stroke="#6c604a" stroke-width="3.4"/><path d="M480.7,248.9 L456.7,245.5 L430.7,230.9" stroke="#6c604a" stroke-width="3.4"/><path d="M430.7,230.9 L402.4,232.1 L369.7,240.9" stroke="#6c604a" stroke-width="3.4"/><path d="M409.5,171.9 L379.5,171.5 L345.6,168.6" stroke="#6c604a" stroke-width="3.4"/><path d="M369.7,240.9 L387.5,271.9 L407.9,293.8" stroke="#6c604a" stroke-width="3.4"/><path d="M407.9,293.8 L430.3,308.6 L443.2,327.9" stroke="#6c604a" stroke-width="3.4"/><path d="M345.6,168.6 L314.3,158.2 L279.2,168.4" stroke="#6c604a" stroke-width="3.4"/><path d="M279.2,168.4 L288.5,198.1 L301.4,232.1" stroke="#6c604a" stroke-width="3.4"/><path d="M301.4,232.1 L268.9,242.4 L235.7,242.9" stroke="#6c604a" stroke-width="3.4"/><path d="M235.7,242.9 L218.1,277.8 L205.2,312.6" stroke="#6c604a" stroke-width="3.4"/><path d="M205.2,312.6 L208.6,346.5 L225.5,365.3" stroke="#6c604a" stroke-width="3.4"/><path d="M225.5,365.3 L203.8,377.4 L194.9,400.0" stroke="#6c604a" stroke-width="3.4"/><path d="M225.5,365.3 L244.6,384.3 L254.0,404.8" stroke="#6c604a" stroke-width="3.4"/><path d="M254.0,404.8 L258.7,428.1 L262.9,449.0" stroke="#6c604a" stroke-width="3.4"/><path d="M262.9,449.0 L238.9,461.3 L211.5,459.6" stroke="#6c604a" stroke-width="3.4"/><path d="M225.5,365.3 L249.4,353.3 L272.3,330.7" stroke="#6c604a" stroke-width="3.4"/><path d="M254.0,404.8 L281.3,397.9 L313.6,393.8" stroke="#6c604a" stroke-width="3.4"/><path d="M272.3,330.7 L295.4,316.4 L327.2,304.5" stroke="#6c604a" stroke-width="3.4"/><path d="M313.6,393.8 L344.0,386.5 L380.3,372.9" stroke="#6c604a" stroke-width="3.4"/><path d="M235.7,242.9 L260.8,284.7 L272.3,330.7" stroke="#6c604a" stroke-width="3.4"/><path d="M480.7,248.9 L455.0,275.5 L407.9,293.8" stroke="#6c604a" stroke-width="3.4"/><path d="M327.2,304.5 L183.0,281.2" stroke="#6c604a" stroke-width="4.8"/><path d="M327.2,304.5 L477.8,136.2" stroke="#6c604a" stroke-width="4.8"/><path d="M327.2,304.5 L321.3,418.6" stroke="#6c604a" stroke-width="4.8"/><path d="M409.5,171.9 L439.0,156.7 L467.4,155.4" stroke="#e4d9bc" stroke-width="1.8"/><path d="M467.4,155.4 L474.7,173.8 L477.5,194.4" stroke="#e4d9bc" stroke-width="1.8"/><path d="M477.5,194.4 L487.3,215.6 L480.7,248.9" stroke="#e4d9bc" stroke-width="1.8"/><path d="M480.7,248.9 L456.7,245.5 L430.7,230.9" stroke="#e4d9bc" stroke-width="1.8"/><path d="M430.7,230.9 L402.4,232.1 L369.7,240.9" stroke="#e4d9bc" stroke-width="1.8"/><path d="M409.5,171.9 L379.5,171.5 L345.6,168.6" stroke="#e4d9bc" stroke-width="1.8"/><path d="M369.7,240.9 L387.5,271.9 L407.9,293.8" stroke="#e4d9bc" stroke-width="1.8"/><path d="M407.9,293.8 L430.3,308.6 L443.2,327.9" stroke="#e4d9bc" stroke-width="1.8"/><path d="M345.6,168.6 L314.3,158.2 L279.2,168.4" stroke="#e4d9bc" stroke-width="1.8"/><path d="M279.2,168.4 L288.5,198.1 L301.4,232.1" stroke="#e4d9bc" stroke-width="1.8"/><path d="M301.4,232.1 L268.9,242.4 L235.7,242.9" stroke="#e4d9bc" stroke-width="1.8"/><path d="M235.7,242.9 L218.1,277.8 L205.2,312.6" stroke="#e4d9bc" stroke-width="1.8"/><path d="M205.2,312.6 L208.6,346.5 L225.5,365.3" stroke="#e4d9bc" stroke-width="1.8"/><path d="M225.5,365.3 L203.8,377.4 L194.9,400.0" stroke="#e4d9bc" stroke-width="1.8"/><path d="M225.5,365.3 L244.6,384.3 L254.0,404.8" stroke="#e4d9bc" stroke-width="1.8"/><path d="M254.0,404.8 L258.7,428.1 L262.9,449.0" stroke="#e4d9bc" stroke-width="1.8"/><path d="M262.9,449.0 L238.9,461.3 L211.5,459.6" stroke="#e4d9bc" stroke-width="1.8"/><path d="M225.5,365.3 L249.4,353.3 L272.3,330.7" stroke="#e4d9bc" stroke-width="1.8"/><path d="M254.0,404.8 L281.3,397.9 L313.6,393.8" stroke="#e4d9bc" stroke-width="1.8"/><path d="M272.3,330.7 L295.4,316.4 L327.2,304.5" stroke="#e4d9bc" stroke-width="1.8"/><path d="M313.6,393.8 L344.0,386.5 L380.3,372.9" stroke="#e4d9bc" stroke-width="1.8"/><path d="M235.7,242.9 L260.8,284.7 L272.3,330.7" stroke="#e4d9bc" stroke-width="1.8"/><path d="M480.7,248.9 L455.0,275.5 L407.9,293.8" stroke="#e4d9bc" stroke-width="1.8"/><path d="M327.2,304.5 L183.0,281.2" stroke="#e4d9bc" stroke-width="3.2"/><path d="M327.2,304.5 L477.8,136.2" stroke="#e4d9bc" stroke-width="3.2"/><path d="M327.2,304.5 L321.3,418.6" stroke="#e4d9bc" stroke-width="3.2"/></g><polygon points="419.3,139.2 438.5,135.4 458.5,133.7 477.8,136.2 494.4,144.1 502.8,160.8 508.9,179.6 513.1,199.7 511.1,222.9 503.9,247.3 494.6,270.7 484.5,292.6 474.5,313.0 464.8,332.3 455.0,350.8 444.4,368.4 432.2,384.5 418.2,398.3 402.6,408.9 386.1,415.7 369.9,418.6 355.0,418.6 342.0,417.3 331.0,416.7 321.3,418.6 312.0,424.4 301.9,434.4 289.9,447.6 275.6,462.3 259.4,476.2 242.1,486.9 225.1,492.7 209.7,492.5 197.1,486.5 187.8,475.6 181.7,461.4 178.1,445.5 176.1,429.0 174.9,412.8 173.8,397.2 172.6,381.8 171.6,366.4 171.2,350.5 171.9,333.9 174.1,316.7 177.8,299.1 183.0,281.2 189.4,263.2 196.8,244.9 205.2,226.3 214.7,207.4 225.6,188.5 238.3,170.3 252.8,153.9 268.9,140.5 286.1,131.2 303.5,126.5 320.1,126.4 335.4,129.8 349.1,135.1 361.7,140.4 374.0,144.1 387.1,144.9 402.1,143.0" fill="none" stroke="#3c3628" stroke-width="1.5"/><g font-family="Georgia, serif" font-size="8" text-anchor="middle"><text x="409.5" y="174.9" stroke="#f7f3ea" stroke-width="2.5" paint-order="stroke" fill="#23211c">Slums</text><text x="205.2" y="315.6" stroke="#f7f3ea" stroke-width="2.5" paint-order="stroke" fill="#23211c">Slums</text><text x="254.0" y="407.8" stroke="#f7f3ea" stroke-width="2.5" paint-order="stroke" fill="#23211c">Residential</text><text x="262.9" y="452.0" stroke="#f7f3ea" stroke-width="2.5" paint-order="stroke" fill="#23211c">Garrison</text><text x="194.9" y="403.0" stroke="#f7f3ea" stroke-width="2.5" paint-order="stroke" fill="#23211c">Slums</text><text x="430.7" y="233.9" stroke="#f7f3ea" stroke-width="2.5" paint-order="stroke" fill="#23211c">Craftsmen</text><text x="477.5" y="197.4" stroke="#f7f3ea" stroke-width="2.5" paint-order="stroke" fill="#23211c">Slums</text><text x="235.7" y="245.9" stroke="#f7f3ea" stroke-width="2.5" paint-order="stroke" fill="#23211c">Craftsmen</text><text x="301.4" y="235.1" stroke="#f7f3ea" stroke-width="2.5" paint-order="stroke" fill="#23211c">Craftsmen</text><text x="380.3" y="375.9" stroke="#f7f3ea" stroke-width="2.5" paint-order="stroke" fill="#23211c">Residential</text><text x="272.3" y="333.7" stroke="#f7f3ea" stroke-width="2.5" paint-order="stroke" fill="#23211c">Slums</text><text x="225.5" y="368.3" stroke="#f7f3ea" stroke-width="2.5" paint-order="stroke" fill="#23211c">Craftsmen</text><text x="279.2" y="171.4" stroke="#f7f3ea" stroke-width="2.5" paint-order="stroke" fill="#23211c">Slums</text><text x="211.5" y="462.6" stroke="#f7f3ea" stroke-width="2.5" paint-order="stroke" fill="#23211c">Slums</text><text x="480.7" y="251.9" stroke="#f7f3ea" stroke-width="2.5" paint-order="stroke" fill="#23211c">Craftsmen</text><text x="443.2" y="330.9" stroke="#f7f3ea" stroke-width="2.5" paint-order="stroke" fill="#23211c">Slums</text><text x="327.2" y="307.5" stroke="#f7f3ea" stroke-width="2.5" paint-order="stroke" fill="#23211c">Market</text><text x="467.4" y="158.4" stroke="#f7f3ea" stroke-width="2.5" paint-order="stroke" fill="#23211c">Garrison</text><text x="313.6" y="396.8" stroke="#f7f3ea" stroke-width="2.5" paint-order="stroke" fill="#23211c">Slums</text><text x="345.6" y="171.6" stroke="#f7f3ea" stroke-width="2.5" paint-order="stroke" fill="#23211c">Residential</text><text x="369.7" y="243.9" stroke="#f7f3ea" stroke-width="2.5" paint-order="stroke" fill="#23211c">Slums</text><text x="407.9" y="296.8" stroke="#f7f3ea" stroke-width="2.5" paint-order="stroke" fill="#23211c">Craftsmen</text></g><text x="315.0" y="20" text-anchor="middle" font-family="Georgia, serif" font-size="16" font-weight="bold" stroke="#f7f3ea" stroke-width="3" paint-order="stroke" fill="#23211c">Kelmontwick</text></svg>