<svg xmlns="http://www.w3.org/2000/svg" width="576" height="396" viewBox="0 0 576 396"><rect width="576" height="396" fill="#183e56"/><g stroke-linejoin="round"><polygon points="0.0,0.0 22.5,0.0 22.5,21.1 0.0,16.6" fill="#1f4e6b" stroke="#1f4e6b" stroke-width="0.5"/><polygon points="22.5,0.0 47.4,0.0 45.2,17.5 41.1,21.3 22.5,21.0" fill="#1f4e6b" stroke="#1f4e6b" stroke-width="0.5"/><polygon points="47.4,0.0 62.5,0.0 69.6,15.9 64.8,21.5 45.2,17.5" fill="#1f4e6b" stroke="#1f4e6b" stroke-width="0.5"/><polygon points="62.5,0.0 87.8,0.0 84.7,14.2 69.6,15.9" fill="#1f4e6b" stroke="#1f4e6b" stroke-width="0.5"/><polygon points="87.8,0.0 111.1,0.0 108.8,20.2 89.6,20.2 84.7,14.2" fill="#1f4e6b" stroke="#1f4e6b" stroke-width="0.5"/><polygon points="111.1,0.0 130.5,0.0 131.8,21.5 107.7,29.2" fill="#1f4e6b" stroke="#1f4e6b" stroke-width="0.5"/><polygon points="130.5,0.0 151.3,0.0 153.6,21.3 137.4,24.3 131.8,21.5" fill="#1f4e6b" stroke="#1f4e6b" stroke-width="0.5"/><polygon points="151.3,0.0 175.3,0.0 177.2,14.6 174.0,18.9 153.4,19.5" fill="#1f4e6b" stroke="#1f4e6b" stroke-width="0.5"/><polygon points="175.3,0.0 203.6,0.0 201.0,15.8 177.2,14.6" fill="#1f4e6b" stroke="#1f4e6b" stroke-width="0.5"/><polygon points="203.6,0.0 227.9,0.0 229.8,16.2 219.4,24.1 203.7,20.3 201.0,15.8" fill="#1f4e6b" stroke="#1f4e6b" stroke-width="0.5"/><polygon points="227.9,0.0 253.5,0.0 246.2,21.8 229.8,16.2" fill="#1f4e6b" stroke="#1f4e6b" stroke-width="0.5"/><polygon points="253.5,0.0 262.9,0.0 273.1,20.5 269.7,23.5 246.8,20.0" fill="#3d7ea6" stroke="#3d7ea6" stroke-width="0.5"/><polygon points="262.9,0.0 286.9,0.0 275.3,24.8" fill="#1f4e6b" stroke="#1f4e6b" stroke-width="0.5"/><polygon points="286.9,0.0 300.6,0.0 305.0,22.0 294.3,27.9 277.7,19.6" fill="#3d7ea6" stroke="#3d7ea6" stroke-width="0.5"/><polygon points="300.6,0.0 327.2,0.0 328.6,11.9 311.1,23.5 305.0,22.0" fill="#3d7ea6" stroke="#3d7ea6" stroke-width="0.5"/><polygon points="327.2,0.0 356.7,0.0 357.0,13.2 336.5,17.3 328.6,11.9" fill="#3d7ea6" stroke="#3d7ea6" stroke-width="0.5"/><polygon points="356.7,0.0 386.8,0.0 373.6,17.1 357.0,12.0" fill="#3d7ea6" stroke="#3d7ea6" stroke-width="0.5"/><polygon points="386.8,0.0 391.7,0.0 400.3,21.0 394.3,26.3 375.6,21.0 373.6,17.1" fill="#3d7ea6" stroke="#3d7ea6" stroke-width="0.5"/><polygon points="391.7,0.0 415.8,0.0 418.3,15.7 412.7,22.0 400.3,21.0" fill="#1f4e6b" stroke="#1f4e6b" stroke-width="0.5"/><polygon points="415.8,0.0 439.8,0.0 438.6,15.8 418.3,15.8" fill="#1f4e6b" stroke="#1f4e6b" stroke-width="0.5"/><polygon points="439.8,0.0 465.5,0.0 464.3,19.5 438.6,14.7" fill="#1f4e6b" stroke="#1f4e6b" stroke-width="0.5"/><polygon points="465.5,0.0 497.4,0.0 497.6,1.3 494.7,9.8 486.1,19.3 464.3,19.3" fill="#1f4e6b" stroke="#1f4e6b" stroke-width="0.5"/><polygon points="494.7,9.8 497.6,1.3 521.6,15.7 522.1,18.9 510.2,31.5" fill="#1f4e6b" stroke="#1f4e6b" stroke-width="0.5"/><polygon points="497.4,0.0 531.7,0.0 521.6,15.7 497.6,1.2" fill="#1f4e6b" stroke="#1f4e6b" stroke-width="0.5"/><polygon points="531.7,0.0 543.8,0.0 548.3,14.3 538.1,28.6 522.1,18.9 521.6,15.7" fill="#1f4e6b" stroke="#1f4e6b" stroke-width="0.5"/><polygon points="543.8,0.0 576.0,0.0 576.0,22.9 548.3,14.3" fill="#1f4e6b" stroke="#1f4e6b" stroke-width="0.5"/><polygon points="0.0,40.9 0.0,16.6 22.4,21.1 20.1,32.3 9.3,41.5" fill="#1f4e6b" stroke="#1f4e6b" stroke-width="0.5"/><polygon points="20.1,32.3 22.5,21.0 41.1,21.3 46.7,39.4 34.0,46.9" fill="#1f4e6b" stroke="#1f4e6b" stroke-width="0.5"/><polygon points="46.7,39.4 41.1,21.3 45.2,17.5 64.8,21.5 65.9,38.0 58.8,44.0" fill="#1f4e6b" stroke="#1f4e6b" stroke-width="0.5"/><polygon points="65.9,38.0 64.8,21.5 69.6,15.9 84.7,14.2 89.5,20.2 85.5,40.6" fill="#1f4e6b" stroke="#1f4e6b" stroke-width="0.5"/><polygon points="85.1,42.4 89.5,20.2 115.8,20.2 112.7,40.6" fill="#1f4e6b" stroke="#1f4e6b" stroke-width="0.5"/><polygon points="113.3,37.2 114.8,26.9 131.8,21.5 137.4,24.3 137.4,50.5 136.9,50.7" fill="#1f4e6b" stroke="#1f4e6b" stroke-width="0.5"/><polygon points="137.4,47.8 137.4,24.3 151.5,21.7 157.9,42.6" fill="#1f4e6b" stroke="#1f4e6b" stroke-width="0.5"/><polygon points="158.2,43.6 150.8,19.6 174.0,18.9 177.4,36.2" fill="#1f4e6b" stroke="#1f4e6b" stroke-width="0.5"/><polygon points="177.4,36.2 174.0,18.9 177.2,14.6 201.0,15.8 203.7,20.3 196.2,36.4 182.2,39.7" fill="#1f4e6b" stroke="#1f4e6b" stroke-width="0.5"/><polygon points="203.7,20.3 219.4,24.1 223.3,44.3 206.8,49.0 196.2,36.4" fill="#1f4e6b" stroke="#1f4e6b" stroke-width="0.5"/><polygon points="223.3,44.3 219.4,24.1 229.8,16.2 244.7,21.3 244.7,40.1 226.4,46.2" fill="#1f4e6b" stroke="#1f4e6b" stroke-width="0.5"/><polygon points="244.7,19.7 269.7,23.5 267.8,36.8 244.7,43.4" fill="#3d7ea6" stroke="#3d7ea6" stroke-width="0.5"/><polygon points="267.8,36.8 269.7,23.5 275.4,18.4 294.3,27.9 291.7,46.6 285.8,49.2 275.6,48.8" fill="#fff5be" stroke="#fff5be" stroke-width="0.5"/><polygon points="291.7,46.6 294.3,27.9 305.0,22.0 311.1,23.5 322.0,43.0 321.9,43.4 302.1,52.3" fill="#ffedb9" stroke="#ffedb9" stroke-width="0.5"/><polygon points="322.0,43.0 311.1,23.5 328.6,11.9 336.5,17.3 336.5,37.9" fill="#f1ddac" stroke="#f1ddac" stroke-width="0.5"/><polygon points="336.5,37.9 336.5,17.3 355.5,13.5 355.5,39.0 346.3,42.1" fill="#3d7ea6" stroke="#3d7ea6" stroke-width="0.5"/><polygon points="355.5,11.6 373.6,17.1 375.6,21.0 371.2,38.2 364.8,42.1 355.5,39.0" fill="#f2dead" stroke="#f2dead" stroke-width="0.5"/><polygon points="375.6,21.0 394.3,26.3 391.6,43.3 371.2,38.2" fill="#3d7ea6" stroke="#3d7ea6" stroke-width="0.5"/><polygon points="391.6,43.3 394.3,26.3 400.3,21.0 412.7,22.0 418.0,37.8 404.3,50.2 396.2,51.4" fill="#3d7ea6" stroke="#3d7ea6" stroke-width="0.5"/><polygon points="418.0,37.8 412.7,22.0 418.3,15.8 437.5,15.8 437.5,39.4 430.8,42.0" fill="#1f4e6b" stroke="#1f4e6b" stroke-width="0.5"/><polygon points="437.5,14.5 464.2,19.5 462.5,34.2 445.2,41.9 437.5,39.4" fill="#1f4e6b" stroke="#1f4e6b" stroke-width="0.5"/><polygon points="462.5,34.2 464.2,19.3 486.1,19.3 491.6,40.1 465.2,37.1" fill="#1f4e6b" stroke="#1f4e6b" stroke-width="0.5"/><polygon points="492.0,41.7 486.1,19.4 494.7,9.8 510.2,31.5 508.2,39.0" fill="#1f4e6b" stroke="#1f4e6b" stroke-width="0.5"/><polygon points="507.8,40.5 510.2,31.5 522.1,18.9 538.1,28.6 540.3,40.5" fill="#1f4e6b" stroke="#1f4e6b" stroke-width="0.5"/><polygon points="539.8,37.8 538.1,28.6 548.3,14.3 573.8,22.2 548.4,40.4" fill="#1f4e6b" stroke="#1f4e6b" stroke-width="0.5"/><polygon points="576.0,20.7 576.0,49.5 555.2,49.5 548.4,40.4" fill="#1f4e6b" stroke="#1f4e6b" stroke-width="0.5"/><polygon points="0.0,70.1 0.0,40.9 9.3,41.5 16.3,58.2" fill="#1f4e6b" stroke="#1f4e6b" stroke-width="0.5"/><polygon points="16.3,58.2 9.3,41.5 20.1,32.3 34.0,46.9 30.5,61.1" fill="#1f4e6b" stroke="#1f4e6b" stroke-width="0.5"/><polygon points="30.5,61.1 34.0,46.9 46.7,39.4 58.8,44.0 59.4,57.8 37.3,64.5 31.4,62.5" fill="#1f4e6b" stroke="#1f4e6b" stroke-width="0.5"/><polygon points="59.4,58.6 58.8,44.0 65.9,38.0 86.8,40.8 86.8,58.1 80.0,64.4" fill="#1f4e6b" stroke="#1f4e6b" stroke-width="0.5"/><polygon points="86.8,58.1 86.8,42.3 109.9,40.8 110.4,61.8 105.6,65.2" fill="#1f4e6b" stroke="#1f4e6b" stroke-width="0.5"/><polygon points="109.8,35.2 136.9,50.7 125.2,63.6 110.4,61.8" fill="#1f4e6b" stroke="#1f4e6b" stroke-width="0.5"/><polygon points="131.9,49.1 158.8,42.4 162.9,60.7 154.7,70.0" fill="#1f4e6b" stroke="#1f4e6b" stroke-width="0.5"/><polygon points="162.9,60.8 159.0,43.3 177.4,36.2 182.2,39.7 182.2,60.8" fill="#1f4e6b" stroke="#1f4e6b" stroke-width="0.5"/><polygon points="182.2,59.4 182.2,39.7 196.2,36.4 206.8,49.0 202.2,60.3" fill="#1f4e6b" stroke="#1f4e6b" stroke-width="0.5"/><polygon points="202.2,60.2 206.8,49.0 223.3,44.3 226.4,46.2 229.9,65.5 221.4,71.4 204.6,65.0" fill="#3d7ea6" stroke="#3d7ea6" stroke-width="0.5"/><polygon points="229.9,65.5 226.4,46.2 247.0,39.3 253.6,59.3 239.6,68.7" fill="#3d7ea6" stroke="#3d7ea6" stroke-width="0.5"/><polygon points="253.6,59.3 248.0,42.4 267.8,36.8 276.3,50.0 254.2,59.5" fill="#3d7ea6" stroke="#3d7ea6" stroke-width="0.5"/><polygon points="268.4,78.8 254.2,59.5 273.4,51.3 273.4,75.9" fill="#ffffc6" stroke="#ffffc6" stroke-width="0.5"/><polygon points="285.8,74.3 285.8,49.2 291.7,46.6 302.1,52.3 305.4,68.9 290.4,76.4" fill="#71824e" stroke="#71824e" stroke-width="0.5"/><polygon points="305.4,68.9 302.1,52.3 321.9,43.4 328.4,66.8 308.1,70.4" fill="#6098b8" stroke="#6098b8" stroke-width="0.5"/><polygon points="328.8,68.1 321.9,43.4 322.0,43.0 336.5,37.9 346.3,42.1 345.0,62.3" fill="#f0fae6" stroke="#f0fae6" stroke-width="0.5"/><polygon points="345.0,62.3 346.3,42.1 355.5,39.0 364.8,42.1 368.2,58.9 357.0,68.8" fill="#eaf4e0" stroke="#eaf4e0" stroke-width="0.5"/><polygon points="368.2,58.9 364.8,42.1 371.2,38.2 391.6,43.3 396.2,51.5 380.8,62.5" fill="#c5cebd" stroke="#c5cebd" stroke-width="0.5"/><polygon points="404.3,50.1 418.0,37.8 430.8,42.0 427.5,62.2 422.0,65.3" fill="#3d7ea6" stroke="#3d7ea6" stroke-width="0.5"/><polygon points="427.5,62.2 430.8,42.0 437.5,39.4 445.2,41.9 451.3,64.9 445.4,68.2" fill="#3d7ea6" stroke="#3d7ea6" stroke-width="0.5"/><polygon points="451.3,64.9 445.2,41.9 462.5,34.2 465.2,37.1 469.3,58.4 461.6,66.6" fill="#3d7ea6" stroke="#3d7ea6" stroke-width="0.5"/><polygon points="465.2,37.1 493.4,40.3 487.7,57.4 469.3,58.4" fill="#1f4e6b" stroke="#1f4e6b" stroke-width="0.5"/><polygon points="487.7,57.4 493.0,41.5 509.3,38.9 516.3,61.3 513.5,65.3 493.0,66.4" fill="#1f4e6b" stroke="#1f4e6b" stroke-width="0.5"/><polygon points="516.3,61.3 509.8,40.5 537.0,40.5 532.0,59.5" fill="#1f4e6b" stroke="#1f4e6b" stroke-width="0.5"/><polygon points="537.8,37.1 548.4,40.4 555.2,49.5 551.2,65.2 537.8,65.2 532.0,59.5" fill="#1f4e6b" stroke="#1f4e6b" stroke-width="0.5"/><polygon points="576.0,49.5 576.0,67.5 550.7,67.5 555.2,49.5" fill="#1f4e6b" stroke="#1f4e6b" stroke-width="0.5"/><polygon points="0.0,75.6 0.0,70.1 16.3,58.2 30.5,61.1 31.4,62.5 22.0,85.1" fill="#1f4e6b" stroke="#1f4e6b" stroke-width="0.5"/><polygon points="22.2,84.6 31.4,62.5 37.3,64.5 51.3,88.1" fill="#1f4e6b" stroke="#1f4e6b" stroke-width="0.5"/><polygon points="49.4,84.9 37.3,64.5 60.4,57.5 57.6,83.9" fill="#1f4e6b" stroke="#1f4e6b" stroke-width="0.5"/><polygon points="57.6,83.9 60.2,58.9 80.0,64.4 80.0,77.7 64.4,87.3" fill="#1f4e6b" stroke="#1f4e6b" stroke-width="0.5"/><polygon points="80.0,77.7 80.0,64.4 86.8,58.1 105.6,65.2 103.6,84.1 93.6,86.8" fill="#1f4e6b" stroke="#1f4e6b" stroke-width="0.5"/><polygon points="103.6,84.1 105.6,65.2 110.4,61.8 125.2,63.6 131.1,81.4 110.4,88.5" fill="#1f4e6b" stroke="#1f4e6b" stroke-width="0.5"/><polygon points="131.2,81.6 125.2,63.6 135.4,52.3 154.7,70.0 154.1,73.9" fill="#1f4e6b" stroke="#1f4e6b" stroke-width="0.5"/><polygon points="154.1,73.9 154.7,70.0 162.9,60.8 180.9,60.8 182.6,80.4 171.3,87.1 160.3,83.4" fill="#1f4e6b" stroke="#1f4e6b" stroke-width="0.5"/><polygon points="182.6,80.4 180.8,59.3 202.2,60.3 204.6,65.0 195.8,84.8" fill="#1f4e6b" stroke="#1f4e6b" stroke-width="0.5"/><polygon points="204.6,65.0 221.4,71.4 218.9,87.1 195.9,84.7" fill="#3d7ea6" stroke="#3d7ea6" stroke-width="0.5"/><polygon points="218.9,87.1 221.4,71.4 229.9,65.5 239.6,68.7 245.9,87.3 223.6,95.7" fill="#fff9c2" stroke="#fff9c2" stroke-width="0.5"/><polygon points="246.3,88.5 239.6,68.7 253.6,59.3 254.2,59.5 268.4,78.8 267.0,81.8" fill="#ecf6e2" stroke="#ecf6e2" stroke-width="0.5"/><polygon points="273.4,75.9 273.4,48.7 285.8,49.2 285.8,74.3" fill="#ebf5e1" stroke="#ebf5e1" stroke-width="0.5"/><polygon points="294.4,95.6 290.5,76.4 305.4,68.9 308.1,70.4 312.6,90.6" fill="#609e5a" stroke="#609e5a" stroke-width="0.5"/><polygon points="312.6,90.6 308.1,70.4 329.7,66.6 331.4,78.7 317.8,93.0" fill="#65a65f" stroke="#65a65f" stroke-width="0.5"/><polygon points="331.4,78.7 329.8,67.7 345.0,62.3 357.0,68.8 358.2,77.4 346.5,90.4" fill="#f1fbe6" stroke="#f1fbe6" stroke-width="0.5"/><polygon points="358.2,77.4 357.0,68.8 368.2,58.9 380.8,62.5 383.2,81.7 377.1,87.2" fill="#c3cbba" stroke="#c3cbba" stroke-width="0.5"/><polygon points="383.2,81.7 380.8,62.5 396.0,51.7 403.7,79.0 401.1,82.2" fill="#9ca396" stroke="#9ca396" stroke-width="0.5"/><polygon points="403.7,79.0 396.0,51.5 404.3,50.2 422.0,65.3 418.0,75.2" fill="#c2b28a" stroke="#c2b28a" stroke-width="0.5"/><polygon points="418.0,75.2 422.0,65.3 427.5,62.2 445.4,68.2 440.0,84.5 428.4,87.2" fill="#3d7ea6" stroke="#3d7ea6" stroke-width="0.5"/><polygon points="440.0,84.5 445.4,68.2 451.3,64.9 461.6,66.6 466.6,77.9 460.3,93.3 449.9,93.7" fill="#b8a984" stroke="#b8a984" stroke-width="0.5"/><polygon points="466.6,77.9 461.6,66.6 469.3,58.4 487.7,57.4 493.0,66.4 488.7,82.0" fill="#3d7ea6" stroke="#3d7ea6" stroke-width="0.5"/><polygon points="488.2,83.5 493.0,66.4 513.5,65.3 517.7,86.6" fill="#1f4e6b" stroke="#1f4e6b" stroke-width="0.5"/><polygon points="517.1,83.2 513.5,65.3 516.3,61.3 532.0,59.5 537.8,65.2 533.2,83.2" fill="#1f4e6b" stroke="#1f4e6b" stroke-width="0.5"/><polygon points="532.7,85.5 537.8,65.2 553.5,65.2 553.5,85.5" fill="#1f4e6b" stroke="#1f4e6b" stroke-width="0.5"/><polygon points="576.0,67.5 576.0,85.5 553.5,85.5 553.5,67.5" fill="#1f4e6b" stroke="#1f4e6b" stroke-width="0.5"/><polygon points="0.0,104.5 0.0,75.6 21.7,85.0 20.4,99.2 12.4,106.3" fill="#1f4e6b" stroke="#1f4e6b" stroke-width="0.5"/><polygon points="20.4,99.2 21.8,84.6 46.5,87.6 41.2,107.1" fill="#1f4e6b" stroke="#1f4e6b" stroke-width="0.5"/><polygon points="41.2,107.1 47.1,85.2 57.6,83.9 64.4,87.3 68.0,99.4 46.1,114.0 44.3,113.3" fill="#1f4e6b" stroke="#1f4e6b" stroke-width="0.5"/><polygon points="68.0,99.4 64.4,87.3 80.0,77.7 93.6,86.8 85.9,105.2 73.4,103.7" fill="#1f4e6b" stroke="#1f4e6b" stroke-width="0.5"/><polygon points="85.9,105.2 93.6,86.8 103.6,84.1 110.4,88.5 113.1,102.4 108.6,110.1 89.8,110.7" fill="#1f4e6b" stroke="#1f4e6b" stroke-width="0.5"/><polygon points="113.1,102.4 110.4,88.5 131.4,81.3 138.0,101.8 132.8,105.5" fill="#1f4e6b" stroke="#1f4e6b" stroke-width="0.5"/><polygon points="138.0,101.8 131.5,81.5 154.1,73.9 160.3,83.4 147.4,103.8" fill="#1f4e6b" stroke="#1f4e6b" stroke-width="0.5"/><polygon points="147.4,103.8 160.3,83.4 171.3,87.1 174.4,102.7 153.3,111.2" fill="#1f4e6b" stroke="#1f4e6b" stroke-width="0.5"/><polygon points="174.6,103.5 171.3,87.1 182.6,80.4 195.8,84.8 195.8,103.5" fill="#1f4e6b" stroke="#1f4e6b" stroke-width="0.5"/><polygon points="195.8,103.5 195.8,84.7 218.9,87.1 223.6,95.7 221.9,103.5" fill="#3d7ea6" stroke="#3d7ea6" stroke-width="0.5"/><polygon points="222.0,102.9 223.6,95.7 247.2,86.8 252.8,110.5 241.0,114.6" fill="#65a65f" stroke="#65a65f" stroke-width="0.5"/><polygon points="253.1,111.9 247.5,88.1 267.0,81.8 273.9,97.0 260.6,111.3" fill="#63a35d" stroke="#63a35d" stroke-width="0.5"/><polygon points="267.0,81.8 268.4,78.8 273.4,75.9 285.7,74.3 290.5,76.4 294.4,95.6 291.3,100.7 289.4,101.5 273.9,97.0" fill="#e7f1dd" stroke="#e7f1dd" stroke-width="0.5"/><polygon points="291.3,100.7 294.4,95.6 312.6,90.6 317.8,93.0 322.4,103.0 310.5,118.5" fill="#63a35d" stroke="#63a35d" stroke-width="0.5"/><polygon points="322.4,103.0 317.8,93.0 331.4,78.7 345.9,89.9 336.2,105.6" fill="#65a65f" stroke="#65a65f" stroke-width="0.5"/><polygon points="337.9,103.0 346.5,89.0 365.1,105.3 358.1,114.5" fill="#b0aa6e" stroke="#b0aa6e" stroke-width="0.5"/><polygon points="365.1,105.3 347.2,89.6 358.2,77.4 377.1,87.2 376.0,98.0 372.6,102.8" fill="#5f9c59" stroke="#5f9c59" stroke-width="0.5"/><polygon points="376.0,98.0 377.1,87.2 383.2,81.7 401.1,82.2 405.0,99.0 399.1,104.9" fill="#50844b" stroke="#50844b" stroke-width="0.5"/><polygon points="405.0,99.0 401.1,82.2 403.7,79.0 418.0,75.2 428.4,87.2 423.0,101.7 421.0,102.8" fill="#51854c" stroke="#51854c" stroke-width="0.5"/><polygon points="423.0,101.7 428.4,87.2 440.0,84.5 449.9,93.7 440.9,109.9" fill="#4c7d47" stroke="#4c7d47" stroke-width="0.5"/><polygon points="445.1,120.8 440.9,109.9 449.9,93.7 460.3,93.3 465.9,100.5 453.2,119.0" fill="#345631" stroke="#345631" stroke-width="0.5"/><polygon points="465.9,100.5 460.3,93.3 466.6,77.9 489.6,82.2 487.8,95.4 472.8,103.2" fill="#3d7ea6" stroke="#3d7ea6" stroke-width="0.5"/><polygon points="487.8,95.4 489.4,83.6 514.6,86.3 514.4,93.7 498.7,107.6" fill="#1f4e6b" stroke="#1f4e6b" stroke-width="0.5"/><polygon points="514.4,93.7 514.8,83.2 535.5,83.2 535.5,101.8 527.3,109.2" fill="#1f4e6b" stroke="#1f4e6b" stroke-width="0.5"/><polygon points="535.5,101.8 535.5,85.5 553.5,85.5 553.5,104.7" fill="#1f4e6b" stroke="#1f4e6b" stroke-width="0.5"/><polygon points="576.0,85.5 576.0,103.5 553.5,103.5 553.5,85.5" fill="#1f4e6b" stroke="#1f4e6b" stroke-width="0.5"/><polygon points="0.0,138.6 0.0,104.5 12.4,106.3 16.9,120.7 1.0,138.5" fill="#1f4e6b" stroke="#1f4e6b" stroke-width="0.5"/><polygon points="16.9,120.7 12.4,106.3 20.4,99.2 41.2,107.1 44.3,113.3 29.9,125.4" fill="#1f4e6b" stroke="#1f4e6b" stroke-width="0.5"/><polygon points="46.1,114.0 68.0,99.4 73.4,103.7 66.4,124.9 53.1,122.2" fill="#1f4e6b" stroke="#1f4e6b" stroke-width="0.5"/><polygon points="66.4,124.9 73.4,103.7 85.9,105.2 89.8,110.7 88.6,119.1 76.4,129.0 70.2,128.6" fill="#1f4e6b" stroke="#1f4e6b" stroke-width="0.5"/><polygon points="88.6,119.1 89.8,110.7 108.6,110.1 113.5,122.6 102.4,135.2" fill="#1f4e6b" stroke="#1f4e6b" stroke-width="0.5"/><polygon points="113.5,122.6 108.6,110.1 113.1,102.4 132.8,105.5 127.8,125.5" fill="#1f4e6b" stroke="#1f4e6b" stroke-width="0.5"/><polygon points="127.8,125.5 132.8,105.5 138.0,101.8 147.4,103.8 153.3,111.2 153.8,116.0 146.4,129.6 129.6,127.7" fill="#1f4e6b" stroke="#1f4e6b" stroke-width="0.5"/><polygon points="153.8,116.0 153.3,111.2 175.3,102.4 177.6,127.9" fill="#1f4e6b" stroke="#1f4e6b" stroke-width="0.5"/><polygon points="177.4,125.8 175.4,103.5 195.8,103.5 195.8,121.0" fill="#3d7ea6" stroke="#3d7ea6" stroke-width="0.5"/><polygon points="195.8,121.0 195.8,103.5 221.3,103.5 216.6,119.7 199.5,123.9" fill="#fff1bc" stroke="#fff1bc" stroke-width="0.5"/><polygon points="221.6,102.7 241.0,114.6 234.7,131.3 223.9,130.3 216.6,119.7" fill="#65a65f" stroke="#65a65f" stroke-width="0.5"/><polygon points="255.4,137.7 255.4,111.7 260.6,111.3 276.5,123.3 261.8,139.8" fill="#65a65f" stroke="#65a65f" stroke-width="0.5"/><polygon points="276.5,123.3 260.6,111.3 273.9,97.0 289.4,101.5 281.2,123.3" fill="#5d9a58" stroke="#5d9a58" stroke-width="0.5"/><polygon points="281.2,123.3 289.4,101.5 291.3,100.7 310.5,118.5 310.5,120.1 301.8,129.0 285.6,127.6" fill="#65a65f" stroke="#65a65f" stroke-width="0.5"/><polygon points="310.5,120.1 310.5,118.5 322.4,103.0 334.1,105.2 337.3,125.0 328.2,131.9" fill="#cdc580" stroke="#cdc580" stroke-width="0.5"/><polygon points="333.3,100.4 358.1,114.5 357.1,120.0 348.8,126.5 337.3,125.0" fill="#ffffff" stroke="#ffffff" stroke-width="0.5"/><polygon points="357.1,120.0 358.1,114.5 365.1,105.3 372.6,102.8 383.8,123.2 374.5,132.5" fill="#908b5a" stroke="#908b5a" stroke-width="0.5"/><polygon points="383.8,123.2 372.6,102.8 376.0,98.0 399.1,104.9 397.1,119.3 393.7,122.7" fill="#b0a96e" stroke="#b0a96e" stroke-width="0.5"/><polygon points="397.1,119.3 399.1,104.9 405.0,99.0 421.0,102.8 417.9,122.6" fill="#4f834a" stroke="#4f834a" stroke-width="0.5"/><polygon points="417.9,122.6 421.0,102.8 423.0,101.7 440.9,109.9 445.3,121.4 421.5,128.2" fill="#345631" stroke="#345631" stroke-width="0.5"/><polygon points="453.2,119.0 465.9,100.5 472.8,103.2 478.6,128.3" fill="#8f8366" stroke="#8f8366" stroke-width="0.5"/><polygon points="477.3,122.7 472.8,103.2 487.8,95.4 498.7,107.6 499.0,109.7 487.6,122.1" fill="#3d7ea6" stroke="#3d7ea6" stroke-width="0.5"/><polygon points="499.0,109.7 498.7,107.6 514.4,93.7 527.3,109.2 527.2,109.6 518.0,115.9 508.0,115.9" fill="#1f4e6b" stroke="#1f4e6b" stroke-width="0.5"/><polygon points="504.7,138.9 508.0,115.9 518.0,115.9 522.0,143.7" fill="#1f4e6b" stroke="#1f4e6b" stroke-width="0.5"/><polygon points="527.2,109.6 527.3,109.2 535.5,101.8 552.5,104.5 551.8,119.6 545.5,125.9 539.6,125.5" fill="#1f4e6b" stroke="#1f4e6b" stroke-width="0.5"/><polygon points="576.0,103.5 576.0,123.4 551.8,119.6 552.5,103.5" fill="#1f4e6b" stroke="#1f4e6b" stroke-width="0.5"/><polygon points="1.0,138.5 16.9,120.7 29.9,125.4 31.6,138.6 19.2,149.0" fill="#1f4e6b" stroke="#1f4e6b" stroke-width="0.5"/><polygon points="31.6,138.6 29.9,125.4 44.3,113.3 46.1,114.0 53.1,122.2 47.1,144.2" fill="#1f4e6b" stroke="#1f4e6b" stroke-width="0.5"/><polygon points="47.1,144.2 53.1,122.2 66.4,124.9 70.1,128.7 64.2,145.1 50.5,149.1" fill="#1f4e6b" stroke="#1f4e6b" stroke-width="0.5"/><polygon points="64.2,145.1 70.2,128.7 76.4,129.0 87.7,144.5 75.4,152.4" fill="#1f4e6b" stroke="#1f4e6b" stroke-width="0.5"/><polygon points="87.7,144.5 76.4,129.0 88.6,119.1 102.4,135.2 102.0,137.8 89.9,144.8" fill="#1f4e6b" stroke="#1f4e6b" stroke-width="0.5"/><polygon points="102.0,137.8 102.4,135.2 113.5,122.6 127.8,125.5 129.6,127.7 124.9,144.9 114.3,149.1" fill="#3d7ea6" stroke="#3d7ea6" stroke-width="0.5"/><polygon points="124.9,144.9 129.6,127.7 146.4,129.6 151.6,140.2 137.3,152.7" fill="#3d7ea6" stroke="#3d7ea6" stroke-width="0.5"/><polygon points="151.6,140.2 146.4,129.6 153.8,116.0 176.1,127.2 174.9,133.8 157.6,142.8" fill="#3d7ea6" stroke="#3d7ea6" stroke-width="0.5"/><polygon points="174.9,133.8 176.3,126.1 195.7,121.0 199.5,123.9 202.1,140.3 192.6,148.7 186.3,148.7" fill="#fff0bb" stroke="#fff0bb" stroke-width="0.5"/><polygon points="202.1,140.3 199.5,123.9 216.6,119.7 223.9,130.3 214.0,142.7" fill="#65a65f" stroke="#65a65f" stroke-width="0.5"/><polygon points="222.3,158.0 214.0,142.7 223.9,130.3 234.7,131.3 242.5,141.2 242.1,142.3 222.5,158.0" fill="#64a55e" stroke="#64a55e" stroke-width="0.5"/><polygon points="234.7,131.3 241.0,114.6 255.4,109.7 255.4,137.7 242.5,141.2" fill="#65a65f" stroke="#65a65f" stroke-width="0.5"/><polygon points="261.8,139.8 276.5,123.3 281.2,123.3 285.6,127.6 282.8,145.3 274.5,150.9 269.8,151.0" fill="#8b8657" stroke="#8b8657" stroke-width="0.5"/><polygon points="282.8,145.3 285.6,127.6 301.8,129.0 305.4,151.7" fill="#355731" stroke="#355731" stroke-width="0.5"/><polygon points="305.1,150.1 301.8,129.0 310.5,120.1 328.2,131.9 327.4,146.7 307.6,151.0" fill="#837e52" stroke="#837e52" stroke-width="0.5"/><polygon points="327.3,149.8 328.2,131.9 337.3,125.0 348.8,126.5 354.5,149.8" fill="#8d8758" stroke="#8d8758" stroke-width="0.5"/><polygon points="354.3,148.9 348.8,126.5 357.1,120.0 374.5,132.5 373.7,139.5" fill="#6a6642" stroke="#6a6642" stroke-width="0.5"/><polygon points="373.7,139.5 374.5,132.5 383.8,123.2 393.7,122.7 400.5,140.6 392.4,147.5 382.1,148.2" fill="#817c51" stroke="#817c51" stroke-width="0.5"/><polygon points="400.5,140.6 393.7,122.7 397.1,119.3 417.9,122.6 421.5,128.2 419.6,138.1 412.9,142.7" fill="#726e47" stroke="#726e47" stroke-width="0.5"/><polygon points="419.6,138.1 421.5,128.2 444.7,121.6 447.9,138.7 437.9,149.8" fill="#345631" stroke="#345631" stroke-width="0.5"/><polygon points="447.9,138.7 444.6,120.9 453.2,119.0 473.6,126.4 472.0,135.8 463.4,143.1" fill="#345631" stroke="#345631" stroke-width="0.5"/><polygon points="472.0,135.8 474.1,122.9 487.6,122.1 500.6,139.5 490.5,149.6" fill="#3d7ea6" stroke="#3d7ea6" stroke-width="0.5"/><polygon points="487.6,122.1 499.0,109.7 508.0,115.9 504.7,138.9 500.6,139.5" fill="#1f4e6b" stroke="#1f4e6b" stroke-width="0.5"/><polygon points="521.4,139.5 518.0,115.9 527.2,109.6 539.6,125.5 524.7,139.5" fill="#1f4e6b" stroke="#1f4e6b" stroke-width="0.5"/><polygon points="541.3,155.1 524.7,139.5 539.6,125.5 545.5,125.8 553.4,141.5 545.1,154.2" fill="#1f4e6b" stroke="#1f4e6b" stroke-width="0.5"/><polygon points="576.0,123.4 576.0,140.8 553.4,141.5 545.5,125.9 551.8,119.6" fill="#1f4e6b" stroke="#1f4e6b" stroke-width="0.5"/><polygon points="0.0,174.9 0.0,138.6 1.0,138.5 19.2,149.0 20.6,156.3 12.0,170.7 3.5,175.2" fill="#1f4e6b" stroke="#1f4e6b" stroke-width="0.5"/><polygon points="20.6,156.3 19.2,149.0 31.6,138.6 47.1,144.2 50.5,149.1 49.3,156.2 40.8,164.7" fill="#1f4e6b" stroke="#1f4e6b" stroke-width="0.5"/><polygon points="49.3,156.2 50.5,149.1 64.2,145.1 75.4,152.4 74.8,164.4 68.0,170.2" fill="#1f4e6b" stroke="#1f4e6b" stroke-width="0.5"/><polygon points="74.8,164.4 75.4,152.4 87.7,144.5 89.9,144.8 97.4,170.0" fill="#1f4e6b" stroke="#1f4e6b" stroke-width="0.5"/><polygon points="96.6,167.1 89.9,144.8 102.0,137.8 114.3,149.1 111.4,165.4" fill="#3d7ea6" stroke="#3d7ea6" stroke-width="0.5"/><polygon points="111.0,167.7 114.3,149.1 124.9,144.9 137.3,152.7 138.7,164.8" fill="#f6e1b0" stroke="#f6e1b0" stroke-width="0.5"/><polygon points="138.8,166.1 137.3,152.7 151.6,140.2 157.6,142.8 162.2,158.4 154.8,168.5" fill="#5f9c59" stroke="#5f9c59" stroke-width="0.5"/><polygon points="162.2,158.4 157.6,142.8 174.9,133.8 186.3,148.7 178.0,159.6" fill="#3d7ea6" stroke="#3d7ea6" stroke-width="0.5"/><polygon points="182.0,173.4 178.0,159.6 186.3,148.7 192.6,148.7 202.9,164.8 198.7,174.6" fill="#ffffc6" stroke="#ffffc6" stroke-width="0.5"/><polygon points="202.9,164.8 192.6,148.7 202.1,140.3 214.0,142.7 223.0,159.3" fill="#609e5a" stroke="#609e5a" stroke-width="0.5"/><polygon points="222.5,158.0 242.1,142.3 250.3,165.0 241.3,170.2" fill="#53884d" stroke="#53884d" stroke-width="0.5"/><polygon points="250.3,165.0 242.1,142.3 242.5,141.2 255.4,137.7 261.8,139.8 269.8,151.0 260.3,166.3" fill="#5a9555" stroke="#5a9555" stroke-width="0.5"/><polygon points="265.2,175.0 260.3,166.3 269.8,151.0 274.5,150.9 289.3,169.1 289.1,173.5" fill="#446f3f" stroke="#446f3f" stroke-width="0.5"/><polygon points="289.3,169.1 274.5,150.9 282.8,145.3 302.9,151.0" fill="#345631" stroke="#345631" stroke-width="0.5"/><polygon points="307.6,151.0 330.8,146.0 330.8,171.5 314.1,174.8" fill="#345631" stroke="#345631" stroke-width="0.5"/><polygon points="330.8,171.4 330.8,149.8 353.7,149.8 358.5,166.7 355.3,171.0 335.2,175.0" fill="#6098b8" stroke="#6098b8" stroke-width="0.5"/><polygon points="358.5,166.7 353.6,149.2 373.7,139.5 382.1,148.2 377.8,165.9 375.3,168.2" fill="#345631" stroke="#345631" stroke-width="0.5"/><polygon points="377.8,165.9 382.1,148.2 392.4,147.5 401.9,167.8" fill="#385c35" stroke="#385c35" stroke-width="0.5"/><polygon points="400.7,165.2 392.4,147.5 400.5,140.6 412.9,142.7 412.9,160.5" fill="#6a6642" stroke="#6a6642" stroke-width="0.5"/><polygon points="412.9,160.5 412.9,142.7 419.6,138.1 437.9,149.8 438.3,159.2 434.5,165.0 423.0,166.9" fill="#345631" stroke="#345631" stroke-width="0.5"/><polygon points="438.3,159.2 437.9,149.8 447.9,138.7 463.4,143.1 465.1,161.1 463.5,163.1" fill="#345631" stroke="#345631" stroke-width="0.5"/><polygon points="465.1,161.1 463.4,143.1 472.0,135.8 490.5,149.6 489.0,159.1" fill="#8f8366" stroke="#8f8366" stroke-width="0.5"/><polygon points="504.7,138.9 515.8,141.9 515.0,165.4 492.0,164.2 489.0,159.1 490.5,149.6 500.6,139.5" fill="#3d7ea6" stroke="#3d7ea6" stroke-width="0.5"/><polygon points="515.0,164.1 515.9,139.5 524.7,139.5 541.3,155.1 534.8,164.7" fill="#1f4e6b" stroke="#1f4e6b" stroke-width="0.5"/><polygon points="545.3,183.7 536.8,174.2 534.8,164.7 541.3,155.1 545.1,154.2 561.8,167.4 548.9,184.1" fill="#1f4e6b" stroke="#1f4e6b" stroke-width="0.5"/><polygon points="576.0,140.8 576.0,166.0 561.8,167.4 545.1,154.2 553.4,141.5" fill="#1f4e6b" stroke="#1f4e6b" stroke-width="0.5"/><polygon points="16.1,196.5 3.5,175.2 12.0,170.7 34.7,182.3 33.1,190.7" fill="#1f4e6b" stroke="#1f4e6b" stroke-width="0.5"/><polygon points="34.7,182.3 12.0,170.7 20.6,156.3 40.8,164.7 40.2,176.4" fill="#1f4e6b" stroke="#1f4e6b" stroke-width="0.5"/><polygon points="40.2,176.4 40.8,164.7 49.3,156.2 68.0,170.2 65.6,184.9" fill="#1f4e6b" stroke="#1f4e6b" stroke-width="0.5"/><polygon points="65.3,186.5 68.0,170.2 74.8,164.4 94.0,169.2 90.8,184.9" fill="#1f4e6b" stroke="#1f4e6b" stroke-width="0.5"/><polygon points="90.8,184.9 94.3,167.4 113.0,165.3 116.0,179.1 107.1,193.3 97.5,194.0" fill="#1f4e6b" stroke="#1f4e6b" stroke-width="0.5"/><polygon points="116.0,179.1 113.5,167.5 140.5,164.6 133.7,186.9" fill="#3d7ea6" stroke="#3d7ea6" stroke-width="0.5"/><polygon points="135.5,190.9 133.7,186.9 140.0,166.3 154.8,168.5 158.8,177.8 151.3,190.7" fill="#63a35d" stroke="#63a35d" stroke-width="0.5"/><polygon points="154.8,168.5 162.2,158.4 178.0,159.6 182.0,173.4 175.1,182.4 158.8,177.8" fill="#64a55e" stroke="#64a55e" stroke-width="0.5"/><polygon points="177.9,194.5 175.1,182.4 182.0,173.4 198.7,174.6 204.3,185.8 200.1,194.5" fill="#62a15c" stroke="#62a15c" stroke-width="0.5"/><polygon points="204.3,185.8 198.7,174.6 202.9,164.8 220.5,160.0 220.5,184.1" fill="#6098b8" stroke="#6098b8" stroke-width="0.5"/><polygon points="220.5,184.1 220.5,158.1 222.5,158.0 241.3,170.2 237.1,185.7 227.4,188.0" fill="#65a65f" stroke="#65a65f" stroke-width="0.5"/><polygon points="237.1,185.7 241.3,170.2 250.3,165.0 260.3,166.3 265.2,175.0 263.1,186.5 246.0,191.9" fill="#5f9d59" stroke="#5f9d59" stroke-width="0.5"/><polygon points="283.9,193.5 268.8,193.5 263.1,186.5 265.2,175.0 291.5,173.3" fill="#365832" stroke="#365832" stroke-width="0.5"/><polygon points="289.0,175.3 289.3,169.1 303.9,149.7 307.6,151.0 314.1,174.8 308.5,181.4" fill="#345631" stroke="#345631" stroke-width="0.5"/><polygon points="308.5,181.4 314.1,174.8 330.8,171.4 335.2,175.0 335.2,192.6 320.4,196.5 310.7,192.0" fill="#345631" stroke="#345631" stroke-width="0.5"/><polygon points="335.2,191.8 335.2,175.1 355.3,171.0 358.9,193.9" fill="#345631" stroke="#345631" stroke-width="0.5"/><polygon points="358.7,192.3 355.3,171.0 358.5,166.7 375.3,168.2 381.3,187.3 378.5,191.3" fill="#3c6338" stroke="#3c6338" stroke-width="0.5"/><polygon points="381.3,187.3 375.3,168.2 377.8,165.9 399.1,167.5 400.6,185.1" fill="#467442" stroke="#467442" stroke-width="0.5"/><polygon points="400.7,187.0 398.9,165.8 412.9,160.5 423.0,166.9 415.3,185.0" fill="#345631" stroke="#345631" stroke-width="0.5"/><polygon points="415.3,184.9 423.0,166.9 434.5,165.0 440.0,178.6 429.3,195.4" fill="#345631" stroke="#345631" stroke-width="0.5"/><polygon points="440.0,178.6 434.5,165.0 438.3,159.2 463.5,163.1 463.5,185.8" fill="#345631" stroke="#345631" stroke-width="0.5"/><polygon points="463.5,183.6 463.5,163.1 465.1,161.1 489.0,159.1 492.0,164.2 488.3,186.6" fill="#345631" stroke="#345631" stroke-width="0.5"/><polygon points="488.2,187.0 492.0,164.2 513.8,165.3 515.3,185.6" fill="#3d7ea6" stroke="#3d7ea6" stroke-width="0.5"/><polygon points="515.3,186.5 513.7,164.0 534.8,164.7 536.8,174.2" fill="#1f4e6b" stroke="#1f4e6b" stroke-width="0.5"/><polygon points="536.8,174.3 545.3,183.7 534.1,194.9 518.1,190.8 515.9,186.2" fill="#1f4e6b" stroke="#1f4e6b" stroke-width="0.5"/><polygon points="576.0,166.0 576.0,193.5 557.0,193.5 548.9,184.1 561.8,167.4" fill="#1f4e6b" stroke="#1f4e6b" stroke-width="0.5"/><polygon points="0.0,207.5 0.0,174.9 3.5,175.2 16.1,196.5 12.5,204.5" fill="#1f4e6b" stroke="#1f4e6b" stroke-width="0.5"/><polygon points="25.1,220.5 12.5,204.5 16.1,196.5 33.1,190.7 42.9,204.0 42.8,205.4 27.6,220.5" fill="#1f4e6b" stroke="#1f4e6b" stroke-width="0.5"/><polygon points="42.9,204.0 33.1,190.7 34.7,182.3 40.2,176.4 66.5,185.2 65.4,190.9" fill="#1f4e6b" stroke="#1f4e6b" stroke-width="0.5"/><polygon points="65.4,190.9 66.2,186.5 90.8,184.9 97.5,194.0 90.7,207.5 69.8,200.0" fill="#1f4e6b" stroke="#1f4e6b" stroke-width="0.5"/><polygon points="88.7,211.5 97.5,194.0 107.1,193.3 118.7,204.2 113.6,219.1 100.3,220.4" fill="#1f4e6b" stroke="#1f4e6b" stroke-width="0.5"/><polygon points="107.1,193.3 116.0,179.1 133.7,186.9 135.5,190.9 131.3,200.5 118.7,204.2" fill="#3d7ea6" stroke="#3d7ea6" stroke-width="0.5"/><polygon points="140.1,212.9 131.3,200.5 135.5,190.9 151.3,190.7 159.6,203.9 152.6,213.9" fill="#5c9756" stroke="#5c9756" stroke-width="0.5"/><polygon points="151.3,190.7 158.8,177.8 175.1,182.4 177.9,194.5 173.6,202.2 159.6,203.9" fill="#64a55e" stroke="#64a55e" stroke-width="0.5"/><polygon points="173.6,202.2 177.9,194.5 200.1,194.5 203.5,206.0 194.3,218.0 176.6,208.1" fill="#599253" stroke="#599253" stroke-width="0.5"/><polygon points="203.5,206.0 200.1,194.5 204.3,185.8 220.5,184.1 227.4,188.0 222.7,211.2" fill="#65a65f" stroke="#65a65f" stroke-width="0.5"/><polygon points="223.0,209.8 227.4,188.0 237.1,185.7 246.0,191.9 247.1,211.7" fill="#b2a89b" stroke="#b2a89b" stroke-width="0.5"/><polygon points="247.1,212.0 246.0,191.9 263.1,186.5 268.8,193.5 265.3,212.7" fill="#9f968a" stroke="#9f968a" stroke-width="0.5"/><polygon points="265.7,210.3 268.8,193.5 283.9,193.5 291.9,204.8 285.2,213.4" fill="#5c5751" stroke="#5c5751" stroke-width="0.5"/><polygon points="283.9,193.5 290.6,175.8 308.5,181.4 310.7,192.0 299.3,204.4 291.9,204.8" fill="#345631" stroke="#345631" stroke-width="0.5"/><polygon points="322.9,218.9 320.4,196.5 334.4,192.8 338.8,208.9 333.7,220.9" fill="#3d7ea6" stroke="#3d7ea6" stroke-width="0.5"/><polygon points="338.8,208.9 334.1,191.7 357.5,193.8 356.8,204.4" fill="#3d7ea6" stroke="#3d7ea6" stroke-width="0.5"/><polygon points="356.8,204.4 357.6,192.4 378.5,191.3 382.2,210.0 376.5,213.9 359.5,209.7" fill="#5d9957" stroke="#5d9957" stroke-width="0.5"/><polygon points="382.2,210.0 378.5,191.3 381.3,187.3 402.8,184.8 402.8,204.9 392.6,212.7" fill="#4c7d47" stroke="#4c7d47" stroke-width="0.5"/><polygon points="402.8,204.9 402.8,186.8 415.4,185.0 429.3,195.4 431.1,202.8 430.5,205.8 421.8,212.2" fill="#355731" stroke="#355731" stroke-width="0.5"/><polygon points="431.1,202.8 429.3,195.4 440.0,178.6 461.6,185.2 459.0,194.2" fill="#345631" stroke="#345631" stroke-width="0.5"/><polygon points="430.5,205.8 431.1,202.8 459.0,194.2 463.8,212.5 445.2,218.4" fill="#345631" stroke="#345631" stroke-width="0.5"/><polygon points="463.8,212.5 459.0,194.2 462.1,183.5 488.6,186.7 489.1,193.7 470.8,217.1" fill="#8f8366" stroke="#8f8366" stroke-width="0.5"/><polygon points="489.1,193.7 488.6,187.0 515.6,185.6 518.1,190.8 513.8,207.5 505.9,212.7 502.7,211.9" fill="#3d7ea6" stroke="#3d7ea6" stroke-width="0.5"/><polygon points="513.8,207.5 518.1,190.8 534.1,194.8 539.7,217.1" fill="#1f4e6b" stroke="#1f4e6b" stroke-width="0.5"/><polygon points="537.7,209.2 534.1,194.9 545.3,183.7 548.9,184.1 557.0,193.5 551.0,209.2" fill="#1f4e6b" stroke="#1f4e6b" stroke-width="0.5"/><polygon points="576.0,193.5 576.0,215.8 563.5,217.6 549.7,212.8 557.0,193.5" fill="#1f4e6b" stroke="#1f4e6b" stroke-width="0.5"/><polygon points="0.0,229.5 0.0,207.5 12.5,204.5 25.1,220.5 13.5,232.0" fill="#1f4e6b" stroke="#1f4e6b" stroke-width="0.5"/><polygon points="40.6,234.5 27.6,220.5 42.8,205.4 57.5,220.7 50.9,232.7" fill="#1f4e6b" stroke="#1f4e6b" stroke-width="0.5"/><polygon points="42.8,205.4 42.9,204.0 65.4,190.9 69.8,200.0 65.1,218.9 57.5,220.7" fill="#1f4e6b" stroke="#1f4e6b" stroke-width="0.5"/><polygon points="65.1,218.9 69.8,200.0 97.2,209.9 75.8,225.0" fill="#1f4e6b" stroke="#1f4e6b" stroke-width="0.5"/><polygon points="77.7,238.0 75.8,225.0 91.7,213.8 100.3,220.4 95.8,244.3 90.7,245.9" fill="#1f4e6b" stroke="#1f4e6b" stroke-width="0.5"/><polygon points="113.6,219.1 118.7,204.2 131.3,200.5 140.1,212.9 129.5,229.5 123.3,229.5" fill="#3d7ea6" stroke="#3d7ea6" stroke-width="0.5"/><polygon points="129.5,229.5 140.1,212.9 152.6,213.9 159.2,230.4 139.5,237.9" fill="#99ca7f" stroke="#99ca7f" stroke-width="0.5"/><polygon points="159.7,231.7 152.6,213.9 159.6,203.9 173.6,202.2 176.6,208.1 169.7,229.0" fill="#92c17a" stroke="#92c17a" stroke-width="0.5"/><polygon points="169.7,229.0 176.6,208.1 194.2,217.9 180.8,232.3" fill="#84ae6e" stroke="#84ae6e" stroke-width="0.5"/><polygon points="194.4,217.8 203.5,206.0 221.7,210.9 221.1,229.5 203.5,229.5" fill="#cbc37f" stroke="#cbc37f" stroke-width="0.5"/><polygon points="221.1,229.5 221.8,209.8 247.5,211.7 243.9,229.5" fill="#aaa094" stroke="#aaa094" stroke-width="0.5"/><polygon points="243.9,229.5 247.4,212.1 263.0,212.6 267.2,229.5 261.3,237.4 247.7,235.8" fill="#888355" stroke="#888355" stroke-width="0.5"/><polygon points="267.2,229.5 262.3,209.8 285.2,213.4 286.6,229.5" fill="#5c5751" stroke="#5c5751" stroke-width="0.5"/><polygon points="286.5,228.5 285.2,213.4 291.9,204.8 299.3,204.4 312.4,223.0 309.2,228.5" fill="#6a6642" stroke="#6a6642" stroke-width="0.5"/><polygon points="299.3,204.4 310.7,192.0 320.4,196.5 322.9,218.9 312.4,223.0" fill="#3d7ea6" stroke="#3d7ea6" stroke-width="0.5"/><polygon points="334.1,220.1 338.8,208.9 356.8,204.4 359.5,209.7 353.9,221.9" fill="#a3d788" stroke="#a3d788" stroke-width="0.5"/><polygon points="353.9,221.9 359.5,209.7 376.5,213.9 373.1,228.9 358.5,231.0" fill="#65a65f" stroke="#65a65f" stroke-width="0.5"/><polygon points="373.1,228.9 376.5,213.9 382.2,210.0 392.6,212.7 397.7,227.9 382.4,240.1" fill="#62a15c" stroke="#62a15c" stroke-width="0.5"/><polygon points="397.7,227.9 392.6,212.7 402.8,204.9 421.8,212.2 418.5,226.4 408.3,231.9" fill="#406a3c" stroke="#406a3c" stroke-width="0.5"/><polygon points="418.5,226.4 421.8,212.2 430.5,205.8 445.2,218.4 443.1,234.5 430.9,236.2" fill="#345631" stroke="#345631" stroke-width="0.5"/><polygon points="442.6,238.0 445.2,218.4 463.8,212.5 469.3,216.1 464.7,232.3 451.1,239.1" fill="#3d7ea6" stroke="#3d7ea6" stroke-width="0.5"/><polygon points="471.6,216.0 489.1,193.7 502.7,211.9 485.1,223.1" fill="#3d7ea6" stroke="#3d7ea6" stroke-width="0.5"/><polygon points="488.5,236.0 485.1,223.1 502.7,211.9 505.9,212.7 511.6,231.2 505.9,237.1" fill="#1f4e6b" stroke="#1f4e6b" stroke-width="0.5"/><polygon points="511.6,231.2 505.9,212.7 513.8,207.5 532.6,214.4 532.2,223.0 520.0,232.4" fill="#1f4e6b" stroke="#1f4e6b" stroke-width="0.5"/><polygon points="532.2,223.0 532.8,209.2 558.9,209.2 544.7,232.9" fill="#1f4e6b" stroke="#1f4e6b" stroke-width="0.5"/><polygon points="547.6,241.2 544.7,232.9 555.6,214.8 563.5,217.6 559.3,238.7" fill="#1f4e6b" stroke="#1f4e6b" stroke-width="0.5"/><polygon points="0.0,257.7 0.0,229.5 13.5,232.0 18.4,249.0" fill="#1f4e6b" stroke="#1f4e6b" stroke-width="0.5"/><polygon points="18.4,249.0 13.5,232.0 25.1,220.5 27.6,220.5 40.6,234.5 35.1,246.6 20.6,250.1" fill="#1f4e6b" stroke="#1f4e6b" stroke-width="0.5"/><polygon points="43.1,256.1 35.1,246.6 40.6,234.5 50.9,232.7 62.5,246.9" fill="#1f4e6b" stroke="#1f4e6b" stroke-width="0.5"/><polygon points="50.9,232.7 57.5,220.7 65.1,218.9 75.8,225.0 77.7,238.0 61.9,246.2" fill="#1f4e6b" stroke="#1f4e6b" stroke-width="0.5"/><polygon points="95.8,244.3 100.3,220.4 113.6,219.1 123.3,229.5 116.3,240.9 98.1,245.0" fill="#3d7ea6" stroke="#3d7ea6" stroke-width="0.5"/><polygon points="116.3,240.9 123.3,229.5 129.5,229.5 139.5,237.9 139.5,258.8 124.4,257.1" fill="#5d9a57" stroke="#5d9a57" stroke-width="0.5"/><polygon points="139.5,253.4 139.5,237.9 160.8,229.7 163.3,248.9 156.8,254.7" fill="#64a45d" stroke="#64a45d" stroke-width="0.5"/><polygon points="163.3,248.9 161.0,231.3 169.7,229.0 180.8,232.3 187.7,246.2 177.8,254.2" fill="#65a65e" stroke="#65a65e" stroke-width="0.5"/><polygon points="187.7,246.2 180.8,232.3 194.3,217.7 203.5,229.5 195.6,247.2" fill="#5e9b58" stroke="#5e9b58" stroke-width="0.5"/><polygon points="195.6,247.2 203.5,229.5 221.1,229.5 221.6,244.1 200.1,251.3" fill="#bdb676" stroke="#bdb676" stroke-width="0.5"/><polygon points="221.6,244.1 221.1,229.5 243.9,229.5 247.7,235.8 239.1,253.1 226.9,250.3" fill="#a89e92" stroke="#a89e92" stroke-width="0.5"/><polygon points="239.2,252.8 247.7,235.8 261.3,237.4 267.2,249.8 263.3,256.2" fill="#726b63" stroke="#726b63" stroke-width="0.5"/><polygon points="267.2,249.8 261.3,237.4 267.2,229.5 285.8,229.5 285.8,249.8" fill="#546f46" stroke="#546f46" stroke-width="0.5"/><polygon points="285.8,249.3 285.8,228.5 309.2,228.5 311.7,243.3 303.0,251.2" fill="#546f46" stroke="#546f46" stroke-width="0.5"/><polygon points="311.7,243.3 309.2,228.5 312.4,223.0 322.9,218.9 333.1,220.8 336.9,240.2 327.8,249.3" fill="#678856" stroke="#678856" stroke-width="0.5"/><polygon points="336.9,240.2 332.9,219.9 353.9,221.9 358.5,231.0 353.0,242.5" fill="#a3d788" stroke="#a3d788" stroke-width="0.5"/><polygon points="353.0,242.5 358.5,231.0 373.1,228.9 382.4,240.1 382.0,246.1 376.1,249.6 355.2,246.3" fill="#cdc580" stroke="#cdc580" stroke-width="0.5"/><polygon points="382.0,246.1 382.4,240.1 397.7,227.9 408.3,231.9 408.6,249.0 393.3,255.4" fill="#8c8757" stroke="#8c8757" stroke-width="0.5"/><polygon points="408.6,249.0 408.3,231.9 418.5,226.4 430.9,236.2 424.3,254.3 420.6,256.6" fill="#345631" stroke="#345631" stroke-width="0.5"/><polygon points="442.3,257.2 424.3,254.3 430.9,236.2 449.0,233.7" fill="#345631" stroke="#345631" stroke-width="0.5"/><polygon points="462.2,252.9 451.1,239.1 464.7,232.3 479.1,248.7" fill="#3d7ea6" stroke="#3d7ea6" stroke-width="0.5"/><polygon points="464.7,232.3 469.6,214.9 485.1,223.1 488.5,236.0 480.0,248.9 479.1,248.7" fill="#1f4e6b" stroke="#1f4e6b" stroke-width="0.5"/><polygon points="481.2,247.1 488.5,236.0 505.9,237.1 507.4,254.0 502.0,259.4" fill="#1f4e6b" stroke="#1f4e6b" stroke-width="0.5"/><polygon points="507.4,254.0 505.9,237.1 511.6,231.2 520.0,232.4 529.5,248.6 525.2,255.6" fill="#1f4e6b" stroke="#1f4e6b" stroke-width="0.5"/><polygon points="529.5,248.6 520.0,232.4 532.2,223.0 544.7,232.9 547.6,241.2 546.0,244.2" fill="#1f4e6b" stroke="#1f4e6b" stroke-width="0.5"/><polygon points="576.0,215.8 576.0,243.8 559.3,238.7 563.5,217.6" fill="#1f4e6b" stroke="#1f4e6b" stroke-width="0.5"/><polygon points="0.0,268.7 0.0,257.7 18.4,249.0 20.6,250.1 27.4,278.4" fill="#1f4e6b" stroke="#1f4e6b" stroke-width="0.5"/><polygon points="26.4,274.6 20.6,250.1 35.1,246.6 43.1,256.1 43.3,265.0 37.4,273.2" fill="#1f4e6b" stroke="#1f4e6b" stroke-width="0.5"/><polygon points="43.3,265.0 43.1,256.1 61.7,247.4 68.4,268.0" fill="#1f4e6b" stroke="#1f4e6b" stroke-width="0.5"/><polygon points="67.6,265.5 61.4,246.5 77.7,238.0 90.7,245.9 82.7,267.7" fill="#1f4e6b" stroke="#1f4e6b" stroke-width="0.5"/><polygon points="82.6,268.0 90.7,245.9 95.8,244.3 98.1,245.0 111.8,265.5 109.2,272.7" fill="#3d7ea6" stroke="#3d7ea6" stroke-width="0.5"/><polygon points="98.1,245.0 116.3,240.9 124.4,257.1 111.8,265.5" fill="#3d7ea6" stroke="#3d7ea6" stroke-width="0.5"/><polygon points="135.6,260.1 133.9,253.0 156.8,254.7 159.5,269.5 152.2,276.7" fill="#5e9b59" stroke="#5e9b59" stroke-width="0.5"/><polygon points="159.5,269.5 156.8,254.7 163.3,248.9 177.8,254.2 177.8,271.0" fill="#65a65f" stroke="#65a65f" stroke-width="0.5"/><polygon points="177.8,271.0 177.8,254.2 187.7,246.2 195.6,247.2 200.1,251.3 202.4,262.2 182.4,277.2" fill="#609e5a" stroke="#609e5a" stroke-width="0.5"/><polygon points="202.4,262.2 200.1,251.3 221.6,244.1 226.9,250.3 214.4,270.9" fill="#97915e" stroke="#97915e" stroke-width="0.5"/><polygon points="214.4,270.9 226.9,250.3 238.8,253.1 240.4,265.8 236.7,274.3 215.6,273.8" fill="#615c55" stroke="#615c55" stroke-width="0.5"/><polygon points="240.4,265.8 238.8,252.7 263.2,256.2 263.2,269.0" fill="#5c5751" stroke="#5c5751" stroke-width="0.5"/><polygon points="263.2,269.0 263.2,256.2 267.2,249.8 285.2,249.8 283.7,273.1 278.5,277.3 265.3,272.9" fill="#5c5751" stroke="#5c5751" stroke-width="0.5"/><polygon points="283.7,273.1 285.3,249.3 303.0,251.2 307.3,273.9" fill="#345631" stroke="#345631" stroke-width="0.5"/><polygon points="307.5,275.1 303.0,251.2 311.7,243.3 327.8,249.3 330.7,264.3" fill="#497844" stroke="#497844" stroke-width="0.5"/><polygon points="330.7,264.3 327.8,249.3 336.9,240.2 353.0,242.5 355.2,246.3 352.4,263.9 336.5,268.2" fill="#65a65f" stroke="#65a65f" stroke-width="0.5"/><polygon points="352.4,263.9 355.2,246.3 376.1,249.6 367.3,274.1" fill="#5a9455" stroke="#5a9455" stroke-width="0.5"/><polygon points="367.6,273.1 376.1,249.6 382.0,246.1 393.3,255.4 393.4,270.8 382.3,276.3 373.2,276.2" fill="#cdc580" stroke="#cdc580" stroke-width="0.5"/><polygon points="393.4,270.8 393.3,255.4 408.6,249.0 420.6,256.6 419.6,268.0 416.4,271.5 399.3,274.2" fill="#6a6642" stroke="#6a6642" stroke-width="0.5"/><polygon points="419.6,268.0 420.6,256.6 424.3,254.3 442.3,257.2 448.3,266.0 437.5,275.9" fill="#345631" stroke="#345631" stroke-width="0.5"/><polygon points="448.3,266.0 442.3,257.2 447.6,238.6 451.1,239.1 462.2,252.9 454.3,266.8" fill="#375a33" stroke="#375a33" stroke-width="0.5"/><polygon points="454.3,266.8 462.2,252.9 478.1,248.9 478.1,268.8 463.0,275.5" fill="#3d7ea6" stroke="#3d7ea6" stroke-width="0.5"/><polygon points="478.1,245.2 502.0,259.4 501.7,261.2 486.9,273.6 478.1,268.8" fill="#1f4e6b" stroke="#1f4e6b" stroke-width="0.5"/><polygon points="501.7,261.2 502.0,259.4 507.4,254.0 525.2,255.6 529.0,270.0 511.7,276.6" fill="#1f4e6b" stroke="#1f4e6b" stroke-width="0.5"/><polygon points="529.0,270.0 525.2,255.6 529.5,248.6 546.0,244.2 553.5,265.4 531.3,271.6" fill="#1f4e6b" stroke="#1f4e6b" stroke-width="0.5"/><polygon points="576.0,243.8 576.0,263.9 553.5,265.4 546.0,244.2 547.6,241.2 559.3,238.7" fill="#1f4e6b" stroke="#1f4e6b" stroke-width="0.5"/><polygon points="0.0,292.1 0.0,268.7 23.6,277.1 20.5,290.8" fill="#1f4e6b" stroke="#1f4e6b" stroke-width="0.5"/><polygon points="19.7,294.2 24.1,274.9 37.3,273.2 49.5,286.9 43.9,300.8" fill="#1f4e6b" stroke="#1f4e6b" stroke-width="0.5"/><polygon points="49.5,286.9 37.4,273.2 43.3,265.0 64.9,267.6 58.6,284.4" fill="#1f4e6b" stroke="#1f4e6b" stroke-width="0.5"/><polygon points="58.6,284.4 65.8,265.3 82.9,267.7 83.1,286.0 70.4,293.0" fill="#1f4e6b" stroke="#1f4e6b" stroke-width="0.5"/><polygon points="83.1,286.0 82.9,268.0 109.2,272.7 112.6,282.3 107.1,290.8 94.6,294.6" fill="#3d7ea6" stroke="#3d7ea6" stroke-width="0.5"/><polygon points="112.6,282.3 109.2,272.7 111.8,265.5 124.4,257.1 135.2,258.3 135.6,260.1 128.4,284.1" fill="#f1ddac" stroke="#f1ddac" stroke-width="0.5"/><polygon points="126.9,289.2 135.6,260.1 152.2,276.7 151.2,282.9" fill="#5d9957" stroke="#5d9957" stroke-width="0.5"/><polygon points="151.2,282.9 152.2,276.8 159.5,269.5 177.8,271.0 182.4,277.2 182.6,279.5 174.9,287.8 157.2,290.0" fill="#54894e" stroke="#54894e" stroke-width="0.5"/><polygon points="182.6,279.5 182.4,277.2 202.4,262.2 214.4,270.9 215.6,273.8 212.3,284.2 192.0,286.1" fill="#76714a" stroke="#76714a" stroke-width="0.5"/><polygon points="194.6,310.4 192.0,286.1 212.3,284.2 215.6,292.0 204.4,309.5" fill="#345631" stroke="#345631" stroke-width="0.5"/><polygon points="215.6,292.0 212.3,284.2 215.6,273.8 236.7,274.3 243.8,289.3 241.4,292.3 229.0,297.5" fill="#345631" stroke="#345631" stroke-width="0.5"/><polygon points="245.8,293.6 236.7,274.3 240.4,265.8 263.2,269.0 265.3,272.9" fill="#6a6642" stroke="#6a6642" stroke-width="0.5"/><polygon points="250.2,289.0 265.3,272.9 278.5,277.3 280.4,293.0 266.2,302.3" fill="#6a6642" stroke="#6a6642" stroke-width="0.5"/><polygon points="280.4,293.0 278.5,277.3 283.7,273.1 308.2,274.0 310.1,287.2 287.9,297.6" fill="#6a6642" stroke="#6a6642" stroke-width="0.5"/><polygon points="310.2,288.4 308.3,274.8 330.7,264.3 336.5,268.2 338.7,292.5" fill="#548b4f" stroke="#548b4f" stroke-width="0.5"/><polygon points="338.6,290.7 336.5,268.2 352.4,263.9 365.9,273.1 349.3,294.7 349.1,294.7" fill="#548a4e" stroke="#548a4e" stroke-width="0.5"/><polygon points="349.3,294.7 366.4,272.4 373.2,276.2 372.4,302.9" fill="#96ae71" stroke="#96ae71" stroke-width="0.5"/><polygon points="382.3,276.3 393.4,270.8 399.3,274.2 402.8,296.5 397.7,302.1 390.4,300.3" fill="#6a6642" stroke="#6a6642" stroke-width="0.5"/><polygon points="402.8,296.5 399.3,274.2 416.4,271.5 419.8,293.1" fill="#345631" stroke="#345631" stroke-width="0.5"/><polygon points="419.8,293.1 416.4,271.5 419.6,268.0 437.5,275.9 437.7,291.0 425.3,295.9" fill="#345631" stroke="#345631" stroke-width="0.5"/><polygon points="437.7,291.0 437.5,275.9 448.3,266.0 454.3,266.8 463.0,275.5 462.6,284.7 444.0,294.0" fill="#8f8366" stroke="#8f8366" stroke-width="0.5"/><polygon points="462.6,284.7 463.0,275.5 478.1,268.8 486.9,273.6 490.5,285.1 483.9,293.8 470.5,293.8" fill="#3d7ea6" stroke="#3d7ea6" stroke-width="0.5"/><polygon points="490.5,285.1 486.9,273.6 501.7,261.2 511.7,276.6 507.7,286.5" fill="#1f4e6b" stroke="#1f4e6b" stroke-width="0.5"/><polygon points="507.7,286.5 511.7,276.6 529.0,270.0 531.3,271.6 535.7,293.6 510.1,290.9" fill="#1f4e6b" stroke="#1f4e6b" stroke-width="0.5"/><polygon points="535.7,293.6 531.3,271.6 553.5,265.4 553.5,288.4 538.9,294.3" fill="#1f4e6b" stroke="#1f4e6b" stroke-width="0.5"/><polygon points="576.0,263.9 576.0,290.6 564.0,292.6 553.5,288.4 553.5,265.4" fill="#1f4e6b" stroke="#1f4e6b" stroke-width="0.5"/><polygon points="0.0,310.5 0.0,292.1 23.9,290.5 18.1,310.5" fill="#1f4e6b" stroke="#1f4e6b" stroke-width="0.5"/><polygon points="25.1,323.4 18.1,310.5 22.6,295.0 44.1,300.8 39.7,317.8 27.1,323.6" fill="#1f4e6b" stroke="#1f4e6b" stroke-width="0.5"/><polygon points="43.8,301.0 49.5,286.9 58.6,284.4 70.4,293.0 68.4,309.9" fill="#1f4e6b" stroke="#1f4e6b" stroke-width="0.5"/><polygon points="68.5,309.5 70.4,293.0 83.1,286.0 94.6,294.6 89.9,311.0" fill="#1f4e6b" stroke="#1f4e6b" stroke-width="0.5"/><polygon points="93.4,316.5 89.9,311.0 94.6,294.6 107.1,290.8 116.0,308.5 110.4,320.5" fill="#3d7ea6" stroke="#3d7ea6" stroke-width="0.5"/><polygon points="116.0,308.5 107.1,290.8 112.6,282.3 132.7,284.6 133.7,304.5" fill="#3d7ea6" stroke="#3d7ea6" stroke-width="0.5"/><polygon points="133.7,304.5 132.9,287.7 151.2,282.9 157.2,290.0 154.9,307.9 137.9,308.3" fill="#457140" stroke="#457140" stroke-width="0.5"/><polygon points="154.4,311.7 157.2,290.0 174.9,287.8 177.0,307.8" fill="#345631" stroke="#345631" stroke-width="0.5"/><polygon points="177.0,307.8 174.9,287.8 182.6,279.5 192.0,286.1 194.6,310.9 183.6,311.8" fill="#355732" stroke="#355732" stroke-width="0.5"/><polygon points="204.4,309.5 215.6,292.0 229.0,297.5 227.3,315.0 218.3,320.3" fill="#345631" stroke="#345631" stroke-width="0.5"/><polygon points="227.3,315.0 229.0,297.5 241.4,292.3 248.1,319.2 243.6,320.6" fill="#546f46" stroke="#546f46" stroke-width="0.5"/><polygon points="248.1,319.2 241.4,292.3 246.5,285.9 266.2,302.3 264.7,311.2 252.2,320.0" fill="#345631" stroke="#345631" stroke-width="0.5"/><polygon points="264.7,311.2 266.2,302.3 280.4,293.0 287.9,297.6 291.7,309.7 283.1,324.2" fill="#345631" stroke="#345631" stroke-width="0.5"/><polygon points="291.7,309.7 287.9,297.6 311.2,286.7 312.4,312.7" fill="#345631" stroke="#345631" stroke-width="0.5"/><polygon points="312.3,311.7 311.3,288.6 335.7,292.1 327.1,311.5" fill="#345631" stroke="#345631" stroke-width="0.5"/><polygon points="327.1,311.5 336.6,290.0 349.1,294.7 348.3,315.9 335.7,320.8" fill="#426c3e" stroke="#426c3e" stroke-width="0.5"/><polygon points="353.7,319.2 348.3,315.9 349.1,294.7 349.3,294.7 373.8,303.4 372.1,312.4" fill="#3a5f36" stroke="#3a5f36" stroke-width="0.5"/><polygon points="372.4,304.6 373.2,276.2 382.3,276.3 390.4,300.3" fill="#a19b65" stroke="#a19b65" stroke-width="0.5"/><polygon points="401.7,316.1 397.7,302.1 402.8,296.5 419.8,293.1 425.2,295.9 425.2,315.6 418.3,322.0 412.8,323.3" fill="#345631" stroke="#345631" stroke-width="0.5"/><polygon points="425.2,315.6 425.2,295.9 437.7,291.0 444.0,294.0 449.7,309.7 442.8,317.8" fill="#345631" stroke="#345631" stroke-width="0.5"/><polygon points="449.7,309.8 444.0,294.0 462.6,284.7 470.5,293.8 463.9,311.0" fill="#8f8366" stroke="#8f8366" stroke-width="0.5"/><polygon points="464.4,309.7 470.5,293.8 483.9,293.8 490.4,308.6 480.7,316.2" fill="#3d7ea6" stroke="#3d7ea6" stroke-width="0.5"/><polygon points="490.4,308.6 483.9,293.8 490.5,285.1 507.7,286.5 510.1,290.9 507.4,307.8 501.0,311.9" fill="#1f4e6b" stroke="#1f4e6b" stroke-width="0.5"/><polygon points="523.9,313.5 507.4,307.8 510.1,290.9 535.7,293.6" fill="#1f4e6b" stroke="#1f4e6b" stroke-width="0.5"/><polygon points="538.9,294.3 553.5,288.4 564.0,292.6 558.0,310.5 548.4,311.9" fill="#1f4e6b" stroke="#1f4e6b" stroke-width="0.5"/><polygon points="576.0,290.6 576.0,324.0 558.0,310.5 564.0,292.6" fill="#1f4e6b" stroke="#1f4e6b" stroke-width="0.5"/><polygon points="0.0,330.7 0.0,310.5 18.1,310.5 25.1,323.4 13.6,333.5" fill="#1f4e6b" stroke="#1f4e6b" stroke-width="0.5"/><polygon points="41.8,348.2 27.1,323.6 39.7,317.8 52.6,325.9 49.5,344.8" fill="#1f4e6b" stroke="#1f4e6b" stroke-width="0.5"/><polygon points="52.6,325.9 39.7,317.8 44.0,301.1 68.1,309.8 65.1,320.5" fill="#1f4e6b" stroke="#1f4e6b" stroke-width="0.5"/><polygon points="65.1,320.5 68.2,309.4 89.9,311.0 93.4,316.5 83.0,336.6 76.1,335.2" fill="#1f4e6b" stroke="#1f4e6b" stroke-width="0.5"/><polygon points="88.4,343.5 83.0,336.6 93.4,316.5 110.4,320.5 114.7,329.2 111.2,339.0" fill="#3d7ea6" stroke="#3d7ea6" stroke-width="0.5"/><polygon points="114.7,329.2 110.4,320.5 116.0,308.5 133.7,304.5 137.9,308.3 134.0,328.3" fill="#d2c096" stroke="#d2c096" stroke-width="0.5"/><polygon points="134.0,328.3 137.9,308.3 158.0,307.8 158.8,329.8 138.3,332.3" fill="#3d7ea6" stroke="#3d7ea6" stroke-width="0.5"/><polygon points="158.7,328.7 158.1,311.1 177.0,307.8 183.6,311.8 175.0,332.0" fill="#52884d" stroke="#52884d" stroke-width="0.5"/><polygon points="175.0,332.0 183.6,311.8 193.8,311.0 197.2,337.8 180.6,339.3" fill="#416b3d" stroke="#416b3d" stroke-width="0.5"/><polygon points="197.2,337.8 193.7,310.5 204.4,309.5 218.3,320.3 217.2,329.9 211.9,337.2 202.4,340.8" fill="#475131" stroke="#475131" stroke-width="0.5"/><polygon points="217.2,329.9 218.3,320.3 227.3,315.0 243.6,320.6 236.0,335.8" fill="#546f46" stroke="#546f46" stroke-width="0.5"/><polygon points="241.6,355.0 236.0,335.8 243.6,320.6 248.1,319.2 252.2,320.0 258.4,334.4 241.9,355.0" fill="#3d6439" stroke="#3d6439" stroke-width="0.5"/><polygon points="258.4,334.4 252.2,320.0 264.7,311.2 283.1,324.2 283.5,326.8 272.4,338.4" fill="#345631" stroke="#345631" stroke-width="0.5"/><polygon points="283.5,326.8 283.1,324.2 291.7,309.7 311.4,312.6 310.2,327.0 294.2,333.0" fill="#345631" stroke="#345631" stroke-width="0.5"/><polygon points="310.2,327.0 311.5,311.7 327.1,311.5 335.7,320.8 332.4,333.9 319.0,335.6" fill="#618051" stroke="#618051" stroke-width="0.5"/><polygon points="332.4,333.9 335.7,320.8 348.3,315.9 353.7,319.2 358.6,338.5 332.5,333.9" fill="#345631" stroke="#345631" stroke-width="0.5"/><polygon points="357.2,333.0 353.7,319.2 372.1,312.4 379.6,328.2 374.1,333.0" fill="#345631" stroke="#345631" stroke-width="0.5"/><polygon points="379.6,328.2 372.1,312.4 373.6,304.3 390.4,300.3 397.7,302.1 401.7,316.1 382.6,328.7" fill="#6a6642" stroke="#6a6642" stroke-width="0.5"/><polygon points="395.9,345.9 382.6,328.7 401.7,316.1 412.8,323.3 408.5,339.0" fill="#345631" stroke="#345631" stroke-width="0.5"/><polygon points="418.3,322.0 425.2,315.6 442.8,317.8 446.6,333.0 435.9,342.2" fill="#345631" stroke="#345631" stroke-width="0.5"/><polygon points="446.6,333.0 442.8,317.8 449.7,309.8 462.4,310.9 464.4,336.9" fill="#3d7ea6" stroke="#3d7ea6" stroke-width="0.5"/><polygon points="464.2,334.1 462.2,308.8 480.7,316.2 479.7,330.7" fill="#1f4e6b" stroke="#1f4e6b" stroke-width="0.5"/><polygon points="479.7,330.7 480.7,316.2 490.4,308.6 501.0,311.9 501.5,328.6 487.4,335.7" fill="#1f4e6b" stroke="#1f4e6b" stroke-width="0.5"/><polygon points="501.5,328.6 501.0,311.9 507.4,307.8 523.9,313.5 527.7,321.8 521.9,331.1 509.8,334.0" fill="#1f4e6b" stroke="#1f4e6b" stroke-width="0.5"/><polygon points="527.7,321.8 523.9,313.5 535.7,293.5 538.9,294.3 548.4,311.9 542.5,323.3" fill="#1f4e6b" stroke="#1f4e6b" stroke-width="0.5"/><polygon points="576.0,324.0 576.0,329.6 548.3,331.9 542.5,323.3 548.4,311.9 558.0,310.5" fill="#1f4e6b" stroke="#1f4e6b" stroke-width="0.5"/><polygon points="0.0,361.5 0.0,330.7 13.6,333.5 17.2,350.5" fill="#1f4e6b" stroke="#1f4e6b" stroke-width="0.5"/><polygon points="17.2,350.5 13.6,333.5 25.1,323.4 27.1,323.6 41.8,348.2 34.8,357.5" fill="#1f4e6b" stroke="#1f4e6b" stroke-width="0.5"/><polygon points="49.5,344.8 52.6,325.9 65.1,320.5 76.1,335.2 60.1,347.9" fill="#1f4e6b" stroke="#1f4e6b" stroke-width="0.5"/><polygon points="60.1,347.9 76.1,335.2 83.0,336.6 88.4,343.5 86.8,361.9 68.4,363.3" fill="#1f4e6b" stroke="#1f4e6b" stroke-width="0.5"/><polygon points="90.5,366.0 86.8,361.9 88.4,343.5 111.2,339.0 119.0,356.5 111.3,366.0" fill="#1f4e6b" stroke="#1f4e6b" stroke-width="0.5"/><polygon points="119.0,356.5 111.2,339.0 114.7,329.2 134.0,328.3 138.3,332.3 137.0,356.7" fill="#3d7ea6" stroke="#3d7ea6" stroke-width="0.5"/><polygon points="137.0,356.5 138.3,332.3 157.5,329.9 157.5,357.0" fill="#3d7ea6" stroke="#3d7ea6" stroke-width="0.5"/><polygon points="157.5,356.7 157.5,328.5 175.0,332.0 180.6,339.3 173.0,358.3" fill="#436e3e" stroke="#436e3e" stroke-width="0.5"/><polygon points="173.0,358.3 180.6,339.3 197.2,337.8 202.4,340.8 201.5,362.2 193.6,367.4 176.9,362.8" fill="#95896b" stroke="#95896b" stroke-width="0.5"/><polygon points="201.5,362.2 202.4,340.8 211.9,337.2 231.9,357.2 219.9,367.8" fill="#b9aa84" stroke="#b9aa84" stroke-width="0.5"/><polygon points="211.9,337.2 217.2,329.9 236.0,335.8 241.6,355.0 231.9,357.2" fill="#6098b8" stroke="#6098b8" stroke-width="0.5"/><polygon points="240.4,356.9 258.4,334.4 272.4,338.4 274.7,356.5 265.5,361.1" fill="#345631" stroke="#345631" stroke-width="0.5"/><polygon points="274.7,356.5 272.4,338.4 283.5,326.8 294.2,333.0 298.4,355.6 285.8,360.5" fill="#3d7ea6" stroke="#3d7ea6" stroke-width="0.5"/><polygon points="298.4,355.6 294.2,333.0 310.2,327.0 319.0,335.6 309.8,358.6" fill="#355732" stroke="#355732" stroke-width="0.5"/><polygon points="309.7,358.8 319.0,335.6 332.4,333.9 332.5,333.9 336.6,354.8 326.4,361.7" fill="#546f46" stroke="#546f46" stroke-width="0.5"/><polygon points="336.6,354.8 332.5,333.9 353.7,337.7 355.5,358.3" fill="#9b8f6f" stroke="#9b8f6f" stroke-width="0.5"/><polygon points="355.5,358.9 353.3,333.0 374.1,333.0 371.7,356.0 363.2,360.5" fill="#345631" stroke="#345631" stroke-width="0.5"/><polygon points="371.7,356.0 374.1,333.0 379.6,328.2 382.6,328.7 395.9,345.9 392.1,358.1" fill="#345631" stroke="#345631" stroke-width="0.5"/><polygon points="393.4,360.2 392.1,358.1 395.9,345.9 408.5,339.0 426.6,355.5 408.8,366.8" fill="#345631" stroke="#345631" stroke-width="0.5"/><polygon points="426.6,355.5 408.5,339.0 412.8,323.3 418.3,322.0 435.9,342.2 432.0,355.5" fill="#345631" stroke="#345631" stroke-width="0.5"/><polygon points="432.0,355.5 435.9,342.2 446.6,333.0 461.8,336.4 464.4,356.4 453.4,363.7 435.2,358.9" fill="#3d7ea6" stroke="#3d7ea6" stroke-width="0.5"/><polygon points="464.4,356.4 461.6,334.7 479.7,330.7 487.4,335.7 488.3,355.1 479.7,360.3" fill="#1f4e6b" stroke="#1f4e6b" stroke-width="0.5"/><polygon points="488.3,355.1 487.4,335.7 501.5,328.6 509.8,334.0 507.4,359.2" fill="#1f4e6b" stroke="#1f4e6b" stroke-width="0.5"/><polygon points="508.2,359.9 507.4,359.2 509.8,334.0 521.9,331.1 531.3,347.9 520.8,360.2" fill="#1f4e6b" stroke="#1f4e6b" stroke-width="0.5"/><polygon points="531.3,347.9 521.9,331.1 527.7,321.8 542.5,323.3 548.3,331.9 543.8,346.5" fill="#1f4e6b" stroke="#1f4e6b" stroke-width="0.5"/><polygon points="576.0,329.6 576.0,360.1 554.6,358.8 543.8,346.5 548.3,331.9" fill="#1f4e6b" stroke="#1f4e6b" stroke-width="0.5"/><polygon points="0.0,369.8 0.0,361.5 17.2,350.5 34.8,357.5 35.1,359.9 26.8,377.8" fill="#1f4e6b" stroke="#1f4e6b" stroke-width="0.5"/><polygon points="59.8,396.0 30.4,396.0 26.8,377.8 35.1,359.9 59.3,375.5" fill="#1f4e6b" stroke="#1f4e6b" stroke-width="0.5"/><polygon points="35.1,359.9 34.8,357.5 41.8,348.2 49.5,344.8 60.1,347.9 68.4,363.3 59.3,375.5" fill="#1f4e6b" stroke="#1f4e6b" stroke-width="0.5"/><polygon points="86.2,396.0 59.8,396.0 59.3,375.5 68.4,363.3 86.8,361.9 90.5,366.0" fill="#1f4e6b" stroke="#1f4e6b" stroke-width="0.5"/><polygon points="120.6,396.0 86.2,396.0 90.5,366.0 111.3,366.0" fill="#1f4e6b" stroke="#1f4e6b" stroke-width="0.5"/><polygon points="138.1,396.0 120.6,396.0 111.3,366.0 119.0,356.5 136.8,356.7" fill="#1f4e6b" stroke="#1f4e6b" stroke-width="0.5"/><polygon points="153.6,396.0 138.1,396.0 136.8,356.5 156.8,357.0" fill="#1f4e6b" stroke="#1f4e6b" stroke-width="0.5"/><polygon points="165.2,396.0 153.6,396.0 156.9,356.6 173.0,358.3 176.9,362.8" fill="#3d7ea6" stroke="#3d7ea6" stroke-width="0.5"/><polygon points="194.8,396.0 165.2,396.0 176.9,362.8 193.6,367.4" fill="#3d7ea6" stroke="#3d7ea6" stroke-width="0.5"/><polygon points="223.2,396.0 194.8,396.0 193.6,367.4 201.5,362.2 219.9,367.8" fill="#3d7ea6" stroke="#3d7ea6" stroke-width="0.5"/><polygon points="246.9,396.0 223.2,396.0 219.9,367.8 231.9,357.2 241.6,355.0 244.6,355.8" fill="#b2a37f" stroke="#b2a37f" stroke-width="0.5"/><polygon points="265.5,396.0 246.9,396.0 244.7,357.7 265.5,361.1" fill="#3d7ea6" stroke="#3d7ea6" stroke-width="0.5"/><polygon points="285.8,396.0 265.5,396.0 265.5,361.1 274.7,356.5 285.8,360.5" fill="#3d7ea6" stroke="#3d7ea6" stroke-width="0.5"/><polygon points="307.6,396.0 285.8,396.0 285.8,360.5 298.4,355.6 310.0,358.7" fill="#3d7ea6" stroke="#3d7ea6" stroke-width="0.5"/><polygon points="337.5,396.0 307.6,396.0 310.0,358.9 326.4,361.7 338.0,390.9" fill="#3d7ea6" stroke="#3d7ea6" stroke-width="0.5"/><polygon points="338.0,390.9 326.4,361.7 336.6,354.8 356.6,358.5" fill="#3d7ea6" stroke="#3d7ea6" stroke-width="0.5"/><polygon points="376.3,396.0 337.5,396.0 338.0,390.9 356.3,359.1 363.2,360.5" fill="#3d7ea6" stroke="#3d7ea6" stroke-width="0.5"/><polygon points="380.6,396.0 376.3,396.0 363.2,360.5 371.7,356.0 392.1,358.1 393.4,360.2" fill="#8f8366" stroke="#8f8366" stroke-width="0.5"/><polygon points="413.6,396.0 380.6,396.0 393.4,360.2 408.8,366.8" fill="#3d7ea6" stroke="#3d7ea6" stroke-width="0.5"/><polygon points="427.8,396.0 413.6,396.0 408.8,366.8 426.6,355.5 432.0,355.5 435.2,358.9" fill="#3d7ea6" stroke="#3d7ea6" stroke-width="0.5"/><polygon points="457.8,396.0 427.8,396.0 435.2,358.9 453.4,363.7" fill="#1f4e6b" stroke="#1f4e6b" stroke-width="0.5"/><polygon points="482.3,396.0 457.8,396.0 453.4,363.7 464.4,356.4 479.7,360.3" fill="#1f4e6b" stroke="#1f4e6b" stroke-width="0.5"/><polygon points="501.0,396.0 482.3,396.0 479.7,360.3 488.3,355.1 507.4,359.2 508.2,359.9" fill="#1f4e6b" stroke="#1f4e6b" stroke-width="0.5"/><polygon points="537.0,396.0 501.0,396.0 508.2,359.9 520.8,360.2 536.8,379.5" fill="#1f4e6b" stroke="#1f4e6b" stroke-width="0.5"/><polygon points="536.8,379.5 520.8,360.2 531.3,347.9 543.8,346.5 554.6,358.8" fill="#1f4e6b" stroke="#1f4e6b" stroke-width="0.5"/><polygon points="576.0,360.1 576.0,396.0 537.0,396.0 536.8,379.5 554.6,358.8" fill="#1f4e6b" stroke="#1f4e6b" stroke-width="0.5"/><polygon points="30.4,396.0 0.0,396.0 0.0,369.8 26.8,377.8" fill="#1f4e6b" stroke="#1f4e6b" stroke-width="0.5"/></g><path d="M267.8,36.8 L269.7,23.5 M269.7,23.5 L275.4,18.4 M275.4,18.4 L294.3,27.9 M275.6,48.8 L267.8,36.8 M294.3,27.9 L305.0,22.0 M305.0,22.0 L311.1,23.5 M311.1,23.5 L328.6,11.9 M328.6,11.9 L336.5,17.3 M336.5,17.3 L336.5,37.9 M355.5,11.6 L373.6,17.1 M373.6,17.1 L375.6,21.0 M375.6,21.0 L371.2,38.2 M355.5,39.0 L355.5,11.6 M254.2,59.5 L273.4,51.3 M336.5,37.9 L346.3,42.1 M346.3,42.1 L355.5,39.0 M371.2,38.2 L391.6,43.3 M391.6,43.3 L396.2,51.5 M218.9,87.1 L221.4,71.4 M221.4,71.4 L229.9,65.5 M229.9,65.5 L239.6,68.7 M223.6,95.7 L218.9,87.1 M239.6,68.7 L253.6,59.3 M253.6,59.3 L254.2,59.5 M396.0,51.5 L404.3,50.2 M404.3,50.2 L422.0,65.3 M422.0,65.3 L418.0,75.2 M440.0,84.5 L445.4,68.2 M445.4,68.2 L451.3,64.9 M451.3,64.9 L461.6,66.6 M461.6,66.6 L466.6,77.9 M466.6,77.9 L460.3,93.3 M222.0,102.9 L223.6,95.7 M418.0,75.2 L428.4,87.2 M428.4,87.2 L440.0,84.5 M460.3,93.3 L465.9,100.5 M195.8,121.0 L195.8,103.5 M195.8,103.5 L221.3,103.5 M465.9,100.5 L472.8,103.2 M472.8,103.2 L478.6,128.3 M174.9,133.8 L176.3,126.1 M176.3,126.1 L195.7,121.0 M186.3,148.7 L174.9,133.8 M473.6,126.4 L472.0,135.8 M111.0,167.7 L114.3,149.1 M114.3,149.1 L124.9,144.9 M124.9,144.9 L137.3,152.7 M138.7,164.8 L111.0,167.7 M137.3,152.7 L151.6,140.2 M151.6,140.2 L157.6,142.8 M157.6,142.8 L162.2,158.4 M178.0,159.6 L186.3,148.7 M472.0,135.8 L490.5,149.6 M490.5,149.6 L489.0,159.1 M135.5,190.9 L133.7,186.9 M133.7,186.9 L140.0,166.3 M162.2,158.4 L178.0,159.6 M335.2,192.6 L320.4,196.5 M320.4,196.5 L310.7,192.0 M358.9,193.9 L335.2,191.8 M489.0,159.1 L492.0,164.2 M492.0,164.2 L488.3,186.6 M140.1,212.9 L131.3,200.5 M131.3,200.5 L135.5,190.9 M310.7,192.0 L299.3,204.4 M356.8,204.4 L357.6,192.4 M463.8,212.5 L445.2,218.4 M488.6,186.7 L489.1,193.7 M489.1,193.7 L470.8,217.1 M470.8,217.1 L463.8,212.5 M129.5,229.5 L140.1,212.9 M299.3,204.4 L312.4,223.0 M334.1,220.1 L338.8,208.9 M338.8,208.9 L356.8,204.4 M445.2,218.4 L443.1,234.5 M116.3,240.9 L123.3,229.5 M123.3,229.5 L129.5,229.5 M124.4,257.1 L116.3,240.9 M312.4,223.0 L322.9,218.9 M322.9,218.9 L333.1,220.8 M447.6,238.6 L451.1,239.1 M451.1,239.1 L462.2,252.9 M462.2,252.9 L454.3,266.8 M112.6,282.3 L109.2,272.7 M109.2,272.7 L111.8,265.5 M111.8,265.5 L124.4,257.1 M128.4,284.1 L112.6,282.3 M454.3,266.8 L463.0,275.5 M463.0,275.5 L462.6,284.7 M133.7,304.5 L132.9,287.7 M154.9,307.9 L137.9,308.3 M449.7,309.7 L442.8,317.8 M462.6,284.7 L470.5,293.8 M470.5,293.8 L463.9,311.0 M463.9,311.0 L449.7,309.8 M114.7,329.2 L110.4,320.5 M110.4,320.5 L116.0,308.5 M116.0,308.5 L133.7,304.5 M137.9,308.3 L134.0,328.3 M134.0,328.3 L114.7,329.2 M158.7,328.7 L158.1,311.1 M283.5,326.8 L272.4,338.4 M294.2,333.0 L283.5,326.8 M442.8,317.8 L446.6,333.0 M446.6,333.0 L435.9,342.2 M157.5,356.7 L157.5,328.5 M173.0,358.3 L157.5,356.7 M201.5,362.2 L193.6,367.4 M193.6,367.4 L176.9,362.8 M176.9,362.8 L173.0,358.3 M219.9,367.8 L201.5,362.2 M272.4,338.4 L274.7,356.5 M274.7,356.5 L265.5,361.1 M265.5,361.1 L240.4,356.9 M298.4,355.6 L294.2,333.0 M309.8,358.6 L298.4,355.6 M336.6,354.8 L326.4,361.7 M326.4,361.7 L309.7,358.8 M355.5,358.3 L336.6,354.8 M363.2,360.5 L355.5,358.9 M426.6,355.5 L408.8,366.8 M408.8,366.8 L393.4,360.2 M435.9,342.2 L432.0,355.5 M432.0,355.5 L426.6,355.5 M223.2,396.0 L219.9,367.8 M244.6,355.8 L246.9,396.0 M376.3,396.0 L363.2,360.5 M393.4,360.2 L380.6,396.0" fill="none" stroke="#283640" stroke-width="2.0" stroke-linecap="round"/><g opacity="0.9"><path d="M166.5,216.0 L144.0,225.0" fill="none" stroke="#4a82af" stroke-width="1.0" stroke-linecap="round" stroke-linejoin="round"/><path d="M297.0,238.5 L324.0,234.0" fill="none" stroke="#4a82af" stroke-width="1.0" stroke-linecap="round" stroke-linejoin="round"/><path d="M322.5,322.5 L325.8,347.4" fill="none" stroke="#4a82af" stroke-width="1.0" stroke-linecap="round" stroke-linejoin="round"/><path d="M180.0,220.5 L166.5,216.0" fill="none" stroke="#4a82af" stroke-width="0.9" stroke-linecap="round" stroke-linejoin="round"/><path d="M274.5,238.5 L297.0,238.5" fill="none" stroke="#4a82af" stroke-width="0.9" stroke-linecap="round" stroke-linejoin="round"/><path d="M346.5,229.5 L348.0,213.0" fill="none" stroke="#4a82af" stroke-width="0.9" stroke-linecap="round" stroke-linejoin="round"/><path d="M237.6,307.8 L231.0,327.0" fill="none" stroke="#4a82af" stroke-width="0.9" stroke-linecap="round" stroke-linejoin="round"/></g></svg>