<svg xmlns="http://www.w3.org/2000/svg" width="576" height="396" viewBox="0 0 576 396"><rect width="576" height="396" fill="#183e56"/><g stroke-linejoin="round"><polygon points="0.0,0.0 13.4,0.0 16.9,15.8 0.0,29.2" fill="#1f4e6b" stroke="#1f4e6b" stroke-width="0.5"/><polygon points="13.4,0.0 42.1,0.0 41.9,11.4 28.3,20.3 16.9,15.8" fill="#1f4e6b" stroke="#1f4e6b" stroke-width="0.5"/><polygon points="42.1,0.0 68.9,0.0 65.1,20.0 53.6,21.0 41.9,11.4" fill="#1f4e6b" stroke="#1f4e6b" stroke-width="0.5"/><polygon points="68.9,0.0 87.3,0.0 83.2,23.6 64.6,23.0" fill="#1f4e6b" stroke="#1f4e6b" stroke-width="0.5"/><polygon points="87.3,0.0 96.4,0.0 104.6,14.0 92.6,29.5 91.4,29.6 83.2,23.6" fill="#1f4e6b" stroke="#1f4e6b" stroke-width="0.5"/><polygon points="96.4,0.0 123.9,0.0 122.7,15.6 104.6,14.0" fill="#1f4e6b" stroke="#1f4e6b" stroke-width="0.5"/><polygon points="123.9,0.0 151.6,0.0 149.1,14.3 133.8,19.8 122.9,12.8" fill="#1f4e6b" stroke="#1f4e6b" stroke-width="0.5"/><polygon points="151.6,0.0 174.9,0.0 177.1,15.4 159.1,23.9 149.1,14.3" fill="#1f4e6b" stroke="#1f4e6b" stroke-width="0.5"/><polygon points="174.9,0.0 200.9,0.0 200.5,12.5 185.8,21.7 177.1,15.4" fill="#1f4e6b" stroke="#1f4e6b" stroke-width="0.5"/><polygon points="200.9,0.0 221.8,0.0 219.6,20.9 216.5,22.4 200.5,12.5" fill="#1f4e6b" stroke="#1f4e6b" stroke-width="0.5"/><polygon points="221.8,0.0 241.6,0.0 242.8,14.8 233.7,22.7 219.6,20.9" fill="#1f4e6b" stroke="#1f4e6b" stroke-width="0.5"/><polygon points="241.6,0.0 270.4,0.0 266.6,14.7 257.4,20.5 242.8,14.8" fill="#1f4e6b" stroke="#1f4e6b" stroke-width="0.5"/><polygon points="270.4,0.0 285.9,0.0 293.0,22.2 284.8,29.2 266.6,14.7" fill="#1f4e6b" stroke="#1f4e6b" stroke-width="0.5"/><polygon points="285.9,0.0 311.4,0.0 310.5,21.3 293.0,22.2" fill="#1f4e6b" stroke="#1f4e6b" stroke-width="0.5"/><polygon points="311.4,0.0 335.2,0.0 335.2,21.0 330.8,24.0 310.5,20.6" fill="#1f4e6b" stroke="#1f4e6b" stroke-width="0.5"/><polygon points="335.2,0.0 356.7,0.0 358.0,24.8 335.2,21.0" fill="#1f4e6b" stroke="#1f4e6b" stroke-width="0.5"/><polygon points="356.7,0.0 379.9,0.0 380.4,17.5 357.8,20.0" fill="#1f4e6b" stroke="#1f4e6b" stroke-width="0.5"/><polygon points="379.9,0.0 401.8,0.0 399.8,18.7 380.4,17.1" fill="#1f4e6b" stroke="#1f4e6b" stroke-width="0.5"/><polygon points="401.8,0.0 420.9,0.0 421.7,17.6 419.2,20.2 399.7,20.2" fill="#1f4e6b" stroke="#1f4e6b" stroke-width="0.5"/><polygon points="420.9,0.0 446.4,0.0 445.5,20.2 421.7,17.6" fill="#1f4e6b" stroke="#1f4e6b" stroke-width="0.5"/><polygon points="446.4,0.0 471.7,0.0 470.6,20.8 445.6,18.8" fill="#1f4e6b" stroke="#1f4e6b" stroke-width="0.5"/><polygon points="471.7,0.0 491.1,0.0 495.7,20.4 481.8,25.3 470.6,21.2" fill="#1f4e6b" stroke="#1f4e6b" stroke-width="0.5"/><polygon points="491.1,0.0 514.4,0.0 509.4,25.0 495.7,20.4" fill="#1f4e6b" stroke="#1f4e6b" stroke-width="0.5"/><polygon points="514.4,0.0 533.9,0.0 536.4,14.6 525.8,23.5 510.4,20.3" fill="#1f4e6b" stroke="#1f4e6b" stroke-width="0.5"/><polygon points="533.9,0.0 558.0,0.0 551.7,20.7 536.4,14.6" fill="#1f4e6b" stroke="#1f4e6b" stroke-width="0.5"/><polygon points="558.0,0.0 576.0,0.0 576.0,21.7 551.7,20.7" fill="#1f4e6b" stroke="#1f4e6b" stroke-width="0.5"/><polygon points="0.0,31.2 0.0,29.2 16.9,15.8 28.3,20.3 30.4,38.6 21.6,43.5" fill="#1f4e6b" stroke="#1f4e6b" stroke-width="0.5"/><polygon points="30.4,38.6 28.3,20.3 41.9,11.4 53.6,21.0 47.4,37.3 37.8,41.1" fill="#1f4e6b" stroke="#1f4e6b" stroke-width="0.5"/><polygon points="47.4,37.3 53.6,21.0 69.6,19.6 66.8,45.8 63.6,47.8" fill="#1f4e6b" stroke="#1f4e6b" stroke-width="0.5"/><polygon points="66.8,45.8 69.2,23.1 83.2,23.6 91.4,29.6 83.2,47.8" fill="#1f4e6b" stroke="#1f4e6b" stroke-width="0.5"/><polygon points="92.6,29.5 104.6,14.0 118.2,15.2 111.8,40.7" fill="#1f4e6b" stroke="#1f4e6b" stroke-width="0.5"/><polygon points="119.3,10.5 133.8,19.8 134.0,35.2 128.6,40.9 112.4,38.2" fill="#1f4e6b" stroke="#1f4e6b" stroke-width="0.5"/><polygon points="134.0,35.2 133.8,19.8 149.1,14.3 159.1,23.9 158.4,41.3" fill="#1f4e6b" stroke="#1f4e6b" stroke-width="0.5"/><polygon points="158.5,38.7 159.1,23.9 177.1,15.4 185.8,21.7 187.2,31.6 181.8,41.0 175.1,43.9" fill="#1f4e6b" stroke="#1f4e6b" stroke-width="0.5"/><polygon points="198.0,58.0 181.8,41.0 187.2,31.6 213.3,38.1" fill="#3d7ea6" stroke="#3d7ea6" stroke-width="0.5"/><polygon points="187.2,31.6 185.8,21.7 200.5,12.5 216.5,22.4 210.8,37.5" fill="#1f4e6b" stroke="#1f4e6b" stroke-width="0.5"/><polygon points="210.1,39.4 216.5,22.4 219.6,20.9 233.7,22.7 239.4,42.2 237.1,45.4 222.5,47.4" fill="#1f4e6b" stroke="#1f4e6b" stroke-width="0.5"/><polygon points="239.4,42.2 233.7,22.7 242.8,14.8 257.4,20.5 257.7,39.1" fill="#1f4e6b" stroke="#1f4e6b" stroke-width="0.5"/><polygon points="257.7,39.1 257.4,20.5 266.6,14.7 284.8,29.2 283.9,32.9 260.8,41.5" fill="#1f4e6b" stroke="#1f4e6b" stroke-width="0.5"/><polygon points="283.9,32.9 284.8,29.2 293.0,22.2 309.5,21.4 309.5,46.5 290.3,48.1" fill="#1f4e6b" stroke="#1f4e6b" stroke-width="0.5"/><polygon points="309.5,20.5 330.8,24.0 330.8,47.2 309.5,47.2" fill="#1f4e6b" stroke="#1f4e6b" stroke-width="0.5"/><polygon points="330.8,45.9 330.8,24.0 335.2,21.0 354.2,24.2 357.5,38.9 353.8,47.9" fill="#1f4e6b" stroke="#1f4e6b" stroke-width="0.5"/><polygon points="357.5,38.9 353.3,20.5 380.0,17.5 380.8,38.7" fill="#1f4e6b" stroke="#1f4e6b" stroke-width="0.5"/><polygon points="380.0,17.0 401.7,18.8 398.9,38.4 388.7,45.5 380.9,42.2" fill="#1f4e6b" stroke="#1f4e6b" stroke-width="0.5"/><polygon points="398.9,38.4 401.5,20.2 419.2,20.2 421.3,44.0" fill="#1f4e6b" stroke="#1f4e6b" stroke-width="0.5"/><polygon points="421.0,40.7 419.2,20.3 421.7,17.6 444.3,20.1 443.6,39.2 438.8,43.1" fill="#1f4e6b" stroke="#1f4e6b" stroke-width="0.5"/><polygon points="444.4,18.7 471.2,20.9 460.7,44.5 443.6,39.2" fill="#1f4e6b" stroke="#1f4e6b" stroke-width="0.5"/><polygon points="471.0,21.3 481.8,25.3 484.0,48.6 463.0,47.7 460.7,44.5" fill="#1f4e6b" stroke="#1f4e6b" stroke-width="0.5"/><polygon points="483.9,47.8 481.8,25.3 495.7,20.4 504.7,23.4 505.6,42.0 498.4,49.4" fill="#1f4e6b" stroke="#1f4e6b" stroke-width="0.5"/><polygon points="504.5,19.1 525.8,23.5 532.1,44.1 531.1,47.3 528.7,49.1 505.6,42.0" fill="#1f4e6b" stroke="#1f4e6b" stroke-width="0.5"/><polygon points="532.1,44.1 525.8,23.5 536.4,14.6 551.7,20.7 550.2,32.7" fill="#1f4e6b" stroke="#1f4e6b" stroke-width="0.5"/><polygon points="551.7,20.7 576.0,21.7 576.0,40.3 559.1,41.6 550.2,32.7" fill="#1f4e6b" stroke="#1f4e6b" stroke-width="0.5"/><polygon points="0.0,59.7 0.0,31.2 21.6,43.5 18.1,56.3" fill="#1f4e6b" stroke="#1f4e6b" stroke-width="0.5"/><polygon points="18.1,56.3 21.6,43.5 30.4,38.6 37.8,41.1 43.0,61.6 42.4,62.7 27.0,68.8" fill="#1f4e6b" stroke="#1f4e6b" stroke-width="0.5"/><polygon points="43.0,61.6 37.8,41.1 47.4,37.3 63.6,47.8 61.2,54.9" fill="#1f4e6b" stroke="#1f4e6b" stroke-width="0.5"/><polygon points="67.5,67.5 61.2,54.9 63.6,47.8 66.8,45.8 83.2,47.8 89.5,59.2 85.3,67.5" fill="#1f4e6b" stroke="#1f4e6b" stroke-width="0.5"/><polygon points="89.5,59.2 83.2,47.8 91.4,29.6 92.6,29.5 109.6,39.4 105.4,56.9" fill="#1f4e6b" stroke="#1f4e6b" stroke-width="0.5"/><polygon points="105.4,56.9 110.0,37.8 128.6,40.9 131.4,57.2 109.5,60.6" fill="#3d7ea6" stroke="#3d7ea6" stroke-width="0.5"/><polygon points="131.7,58.7 128.6,40.9 134.0,35.2 155.8,40.6 149.7,59.8" fill="#3d7ea6" stroke="#3d7ea6" stroke-width="0.5"/><polygon points="156.7,38.1 175.1,43.9 172.9,66.9 149.6,60.3" fill="#3d7ea6" stroke="#3d7ea6" stroke-width="0.5"/><polygon points="172.6,70.3 175.1,43.9 181.8,41.0 200.3,60.4" fill="#3d7ea6" stroke="#3d7ea6" stroke-width="0.5"/><polygon points="196.7,59.7 211.6,40.3 222.5,47.4 219.7,65.2 203.7,68.0" fill="#3d7ea6" stroke="#3d7ea6" stroke-width="0.5"/><polygon points="219.7,65.2 222.5,47.4 237.1,45.4 240.7,57.8 227.5,71.0" fill="#3d7ea6" stroke="#3d7ea6" stroke-width="0.5"/><polygon points="240.7,57.8 237.1,45.4 239.4,42.2 257.7,39.1 260.8,41.5 265.0,57.9 252.2,65.2" fill="#3d7ea6" stroke="#3d7ea6" stroke-width="0.5"/><polygon points="265.0,57.9 260.8,41.5 283.9,32.9 291.0,49.9 270.1,60.4" fill="#3d7ea6" stroke="#3d7ea6" stroke-width="0.5"/><polygon points="288.0,48.3 310.5,46.4 310.5,68.5 295.7,69.1" fill="#1f4e6b" stroke="#1f4e6b" stroke-width="0.5"/><polygon points="310.5,72.3 310.5,47.2 329.4,47.2 330.2,67.1" fill="#3d7ea6" stroke="#3d7ea6" stroke-width="0.5"/><polygon points="330.2,67.1 329.3,45.8 353.8,47.9 355.1,52.1 337.1,71.8" fill="#3d7ea6" stroke="#3d7ea6" stroke-width="0.5"/><polygon points="355.1,52.1 353.8,47.9 357.5,38.9 394.9,38.5 363.7,60.7" fill="#1f4e6b" stroke="#1f4e6b" stroke-width="0.5"/><polygon points="386.4,44.6 388.7,45.5 392.6,57.1 372.6,68.5 364.2,62.2 363.8,60.8" fill="#1f4e6b" stroke="#1f4e6b" stroke-width="0.5"/><polygon points="393.0,58.5 388.7,45.5 398.9,38.4 418.0,43.2 414.9,58.5" fill="#3d7ea6" stroke="#3d7ea6" stroke-width="0.5"/><polygon points="418.5,40.4 438.8,43.1 438.8,63.4 421.3,69.2 414.9,58.5" fill="#3d7ea6" stroke="#3d7ea6" stroke-width="0.5"/><polygon points="438.8,63.4 438.8,43.1 443.6,39.2 460.7,44.5 463.0,47.7 459.3,66.0 447.7,68.9" fill="#3d7ea6" stroke="#3d7ea6" stroke-width="0.5"/><polygon points="458.5,70.1 463.0,47.7 482.8,48.6 479.7,68.5" fill="#1f4e6b" stroke="#1f4e6b" stroke-width="0.5"/><polygon points="483.0,47.7 498.4,49.4 502.3,63.7 488.8,76.3 479.7,68.5" fill="#1f4e6b" stroke="#1f4e6b" stroke-width="0.5"/><polygon points="515.2,68.5 502.3,63.7 498.4,49.4 505.6,42.0 528.7,49.1 525.2,61.7" fill="#1f4e6b" stroke="#1f4e6b" stroke-width="0.5"/><polygon points="531.1,47.3 532.1,44.1 550.2,32.7 559.1,41.6 552.5,58.0" fill="#1f4e6b" stroke="#1f4e6b" stroke-width="0.5"/><polygon points="576.0,40.3 576.0,61.0 551.6,60.2 559.1,41.6" fill="#1f4e6b" stroke="#1f4e6b" stroke-width="0.5"/><polygon points="0.0,77.8 0.0,59.7 18.1,56.3 27.0,68.8 24.0,79.4" fill="#1f4e6b" stroke="#1f4e6b" stroke-width="0.5"/><polygon points="24.7,77.1 27.0,68.8 42.4,62.7 53.3,79.5 42.4,88.6" fill="#1f4e6b" stroke="#1f4e6b" stroke-width="0.5"/><polygon points="42.4,62.7 43.0,61.6 61.2,54.9 67.5,67.5 60.0,79.9 53.3,79.5" fill="#1f4e6b" stroke="#1f4e6b" stroke-width="0.5"/><polygon points="60.0,79.9 67.5,67.5 85.3,67.5 88.1,78.6 83.7,84.6 65.8,87.4" fill="#3d7ea6" stroke="#3d7ea6" stroke-width="0.5"/><polygon points="88.1,78.6 85.3,67.5 89.5,59.2 105.4,56.9 109.5,60.6 112.2,78.2 105.7,84.1" fill="#3d7ea6" stroke="#3d7ea6" stroke-width="0.5"/><polygon points="112.2,78.2 109.5,60.6 133.7,56.8 127.8,80.5" fill="#f1fbe6" stroke="#f1fbe6" stroke-width="0.5"/><polygon points="127.8,80.5 133.2,58.8 150.2,59.8 148.5,81.9 132.1,85.2" fill="#bfc7b7" stroke="#bfc7b7" stroke-width="0.5"/><polygon points="148.5,81.9 150.2,60.4 174.9,67.5 174.6,76.5 156.1,87.3" fill="#bcac86" stroke="#bcac86" stroke-width="0.5"/><polygon points="174.6,76.5 174.8,69.5 198.0,61.2 203.7,68.0 202.5,84.0 183.5,87.5" fill="#e7d3a5" stroke="#e7d3a5" stroke-width="0.5"/><polygon points="202.6,82.7 203.7,68.0 219.7,65.2 227.5,71.0 228.9,75.5 222.8,87.8" fill="#d8c69a" stroke="#d8c69a" stroke-width="0.5"/><polygon points="228.9,75.5 227.5,71.0 240.7,57.8 252.2,65.2 249.3,80.5" fill="#3d7ea6" stroke="#3d7ea6" stroke-width="0.5"/><polygon points="249.3,80.5 252.2,65.2 265.0,57.9 270.1,60.4 276.9,78.8 264.4,86.1 250.8,83.4" fill="#ebd8a8" stroke="#ebd8a8" stroke-width="0.5"/><polygon points="277.2,79.4 270.1,60.4 289.0,50.9 295.7,69.1 289.5,76.9" fill="#3d7ea6" stroke="#3d7ea6" stroke-width="0.5"/><polygon points="289.5,76.9 295.7,69.1 314.1,68.3 313.5,87.1 303.6,93.7" fill="#3d7ea6" stroke="#3d7ea6" stroke-width="0.5"/><polygon points="313.5,87.1 314.0,71.4 330.2,67.1 337.1,71.8 339.8,77.3 334.7,91.6 329.9,94.0" fill="#f7e3b0" stroke="#f7e3b0" stroke-width="0.5"/><polygon points="337.1,71.8 355.1,52.1 363.8,60.8 364.2,62.2 353.6,78.2 339.8,77.3" fill="#3d7ea6" stroke="#3d7ea6" stroke-width="0.5"/><polygon points="364.2,62.2 372.6,68.5 377.3,80.8 374.5,86.2 362.0,88.7 353.6,78.2" fill="#3d7ea6" stroke="#3d7ea6" stroke-width="0.5"/><polygon points="377.3,80.8 372.6,68.5 393.7,56.5 395.1,77.1" fill="#3d7ea6" stroke="#3d7ea6" stroke-width="0.5"/><polygon points="395.1,77.1 393.8,58.5 414.9,58.5 421.3,69.2 418.9,76.4 399.3,80.3" fill="#fce7b4" stroke="#fce7b4" stroke-width="0.5"/><polygon points="418.9,76.4 421.3,69.2 438.8,63.4 447.7,68.9 445.1,85.3 438.0,90.7 423.1,85.3" fill="#ffecb8" stroke="#ffecb8" stroke-width="0.5"/><polygon points="445.1,85.3 447.7,68.9 464.0,64.8 466.6,94.6" fill="#aeb5a6" stroke="#aeb5a6" stroke-width="0.5"/><polygon points="466.4,92.2 464.5,69.6 479.7,68.5 488.8,76.3 489.8,85.5" fill="#3d7ea6" stroke="#3d7ea6" stroke-width="0.5"/><polygon points="489.4,82.4 488.8,76.3 502.3,63.7 515.2,68.5 515.2,82.1 508.5,87.2" fill="#1f4e6b" stroke="#1f4e6b" stroke-width="0.5"/><polygon points="526.2,87.6 515.2,82.1 515.2,68.5 525.2,61.7 541.3,77.8" fill="#1f4e6b" stroke="#1f4e6b" stroke-width="0.5"/><polygon points="541.3,77.8 525.2,61.7 528.7,49.1 531.1,47.3 554.1,58.8 548.6,76.8 546.2,78.4" fill="#1f4e6b" stroke="#1f4e6b" stroke-width="0.5"/><polygon points="576.0,61.0 576.0,84.3 548.6,76.8 553.6,60.3" fill="#1f4e6b" stroke="#1f4e6b" stroke-width="0.5"/><polygon points="0.0,98.7 0.0,77.8 21.9,79.3 18.7,102.2 16.1,103.6" fill="#1f4e6b" stroke="#1f4e6b" stroke-width="0.5"/><polygon points="18.7,102.2 22.5,75.7 42.4,88.6 42.0,100.5 35.3,106.3" fill="#1f4e6b" stroke="#1f4e6b" stroke-width="0.5"/><polygon points="42.0,100.5 42.4,88.6 53.3,79.5 60.0,79.9 65.8,87.4 64.2,106.0" fill="#1f4e6b" stroke="#1f4e6b" stroke-width="0.5"/><polygon points="64.0,107.8 65.8,87.4 83.7,84.6 86.6,102.7" fill="#3d7ea6" stroke="#3d7ea6" stroke-width="0.5"/><polygon points="86.6,102.7 83.7,84.6 88.1,78.6 105.7,84.1 106.1,101.4 93.3,106.5" fill="#fff0bb" stroke="#fff0bb" stroke-width="0.5"/><polygon points="106.1,101.4 105.7,84.1 112.2,78.2 127.8,80.5 132.1,85.2 129.9,102.1 110.8,104.0" fill="#f1fbe6" stroke="#f1fbe6" stroke-width="0.5"/><polygon points="129.7,103.5 132.1,85.2 148.5,81.9 156.1,87.3 158.0,103.5" fill="#436e3f" stroke="#436e3f" stroke-width="0.5"/><polygon points="157.8,101.5 156.1,87.3 174.6,76.5 183.5,87.5 180.7,99.6" fill="#447140" stroke="#447140" stroke-width="0.5"/><polygon points="180.1,102.4 183.5,87.5 201.1,84.3 204.2,103.5 197.4,111.1" fill="#8f8366" stroke="#8f8366" stroke-width="0.5"/><polygon points="204.2,103.5 200.8,82.3 222.8,87.8 225.8,96.8 220.0,103.5" fill="#b3a480" stroke="#b3a480" stroke-width="0.5"/><polygon points="225.8,96.8 222.8,87.8 228.9,75.5 249.3,80.5 250.8,83.4 244.1,96.7 237.9,99.6" fill="#d3c197" stroke="#d3c197" stroke-width="0.5"/><polygon points="244.1,96.7 250.8,83.4 264.4,86.1 267.4,105.2 260.3,110.7" fill="#b2a37f" stroke="#b2a37f" stroke-width="0.5"/><polygon points="267.4,105.2 264.4,86.1 277.8,78.3 286.4,106.9" fill="#3d7ea6" stroke="#3d7ea6" stroke-width="0.5"/><polygon points="285.5,103.8 278.1,79.2 289.5,76.9 303.6,93.7 301.8,98.4" fill="#f5e0af" stroke="#f5e0af" stroke-width="0.5"/><polygon points="312.6,116.0 301.8,98.4 303.6,93.7 313.5,87.1 329.9,94.0 325.7,109.9" fill="#568d50" stroke="#568d50" stroke-width="0.5"/><polygon points="334.7,91.6 339.8,77.3 353.6,78.2 362.0,88.7 355.7,100.3 351.2,101.9" fill="#e4d1a3" stroke="#e4d1a3" stroke-width="0.5"/><polygon points="355.7,100.3 362.0,88.7 374.5,86.2 382.4,101.2 372.0,112.5" fill="#578e51" stroke="#578e51" stroke-width="0.5"/><polygon points="382.4,101.2 374.5,86.2 377.3,80.8 395.1,77.1 399.3,80.3 398.1,102.7" fill="#dce6d3" stroke="#dce6d3" stroke-width="0.5"/><polygon points="398.1,103.2 399.3,80.3 418.9,76.4 423.1,85.3 415.1,101.2" fill="#d5decc" stroke="#d5decc" stroke-width="0.5"/><polygon points="423.1,85.3 438.0,90.7 439.1,100.9 426.6,113.4 415.1,101.2" fill="#62a15c" stroke="#62a15c" stroke-width="0.5"/><polygon points="439.1,100.9 438.0,90.7 445.1,85.3 465.1,93.9 464.8,98.0 454.5,109.8" fill="#d4ddcb" stroke="#d4ddcb" stroke-width="0.5"/><polygon points="464.8,98.0 465.2,92.6 487.2,86.3 491.4,105.1 483.0,113.6" fill="#406a3c" stroke="#406a3c" stroke-width="0.5"/><polygon points="486.1,81.6 508.5,87.2 508.5,106.6 491.4,105.1" fill="#3d7ea6" stroke="#3d7ea6" stroke-width="0.5"/><polygon points="508.5,106.9 508.5,87.2 515.2,82.1 526.2,87.6 528.5,103.7" fill="#1f4e6b" stroke="#1f4e6b" stroke-width="0.5"/><polygon points="528.5,103.7 526.2,87.6 541.3,77.8 546.2,78.4 547.7,97.4 531.3,105.6" fill="#1f4e6b" stroke="#1f4e6b" stroke-width="0.5"/><polygon points="576.0,84.3 576.0,98.1 555.4,102.2 547.7,97.4 546.2,78.4 548.6,76.8" fill="#1f4e6b" stroke="#1f4e6b" stroke-width="0.5"/><polygon points="0.0,126.5 0.0,98.7 16.1,103.6 11.8,123.6" fill="#1f4e6b" stroke="#1f4e6b" stroke-width="0.5"/><polygon points="11.8,123.6 16.1,103.6 18.7,102.2 35.3,106.3 37.9,123.0 22.5,131.6" fill="#1f4e6b" stroke="#1f4e6b" stroke-width="0.5"/><polygon points="37.9,123.0 35.3,106.3 42.0,100.5 65.2,106.3 65.1,109.5 53.9,125.8 48.2,128.4" fill="#1f4e6b" stroke="#1f4e6b" stroke-width="0.5"/><polygon points="65.1,109.5 65.2,107.5 86.6,102.7 93.3,106.5 91.5,122.1 80.1,127.1" fill="#3d7ea6" stroke="#3d7ea6" stroke-width="0.5"/><polygon points="91.5,122.1 93.3,106.5 106.1,101.4 110.8,104.0 113.6,130.6 104.7,131.9" fill="#3c6338" stroke="#3c6338" stroke-width="0.5"/><polygon points="113.5,129.6 110.8,104.0 130.9,102.0 133.2,121.6" fill="#345631" stroke="#345631" stroke-width="0.5"/><polygon points="133.2,121.6 131.1,103.5 156.7,103.5 158.3,118.5 136.5,123.9" fill="#345631" stroke="#345631" stroke-width="0.5"/><polygon points="158.8,122.3 156.5,101.6 185.5,99.2 172.4,122.9" fill="#345631" stroke="#345631" stroke-width="0.5"/><polygon points="182.9,130.9 172.4,122.9 183.0,103.9 199.4,112.1" fill="#3d7ea6" stroke="#3d7ea6" stroke-width="0.5"/><polygon points="196.3,112.3 204.2,103.5 220.0,103.5 222.3,126.0 208.5,124.5" fill="#3d7ea6" stroke="#3d7ea6" stroke-width="0.5"/><polygon points="222.2,124.6 220.0,103.5 225.8,96.8 237.9,99.6 239.1,124.8 237.3,126.5" fill="#3d7ea6" stroke="#3d7ea6" stroke-width="0.5"/><polygon points="239.1,124.8 237.9,99.6 244.1,96.7 260.3,110.7 257.8,119.7" fill="#3d7ea6" stroke="#3d7ea6" stroke-width="0.5"/><polygon points="257.8,119.7 260.3,110.7 267.4,105.2 283.3,106.6 285.7,120.0 281.5,127.6 265.9,128.9" fill="#3d7ea6" stroke="#3d7ea6" stroke-width="0.5"/><polygon points="285.7,120.0 282.9,104.7 301.8,98.4 312.6,116.0 310.3,122.5" fill="#3d7ea6" stroke="#3d7ea6" stroke-width="0.5"/><polygon points="330.9,138.9 311.4,119.4 312.6,116.0 325.7,109.9 342.0,120.9 333.4,139.0" fill="#3d7ea6" stroke="#3d7ea6" stroke-width="0.5"/><polygon points="342.0,120.9 325.7,109.9 329.9,94.0 334.7,91.6 351.2,101.9 344.7,119.8" fill="#345631" stroke="#345631" stroke-width="0.5"/><polygon points="344.7,119.8 351.2,101.9 355.7,100.3 372.0,112.5 371.7,121.2 362.3,127.0" fill="#8f8366" stroke="#8f8366" stroke-width="0.5"/><polygon points="371.7,121.2 372.0,112.5 382.4,101.2 398.5,102.7 399.1,118.7 379.4,125.8" fill="#8f8366" stroke="#8f8366" stroke-width="0.5"/><polygon points="399.3,123.8 398.5,103.1 415.1,101.2 426.6,113.4 427.0,124.7" fill="#375a33" stroke="#375a33" stroke-width="0.5"/><polygon points="426.8,120.1 426.6,113.4 439.1,100.9 453.1,109.0 443.5,123.3" fill="#345631" stroke="#345631" stroke-width="0.5"/><polygon points="451.7,136.3 443.5,123.3 454.5,106.9 466.8,125.2 466.0,127.4" fill="#345631" stroke="#345631" stroke-width="0.5"/><polygon points="466.8,125.3 455.6,108.5 464.8,98.0 483.0,113.6 482.7,115.2" fill="#345631" stroke="#345631" stroke-width="0.5"/><polygon points="482.7,115.2 483.0,113.6 491.4,105.1 508.7,106.6 509.9,130.5 493.0,130.5" fill="#345631" stroke="#345631" stroke-width="0.5"/><polygon points="509.8,128.2 508.8,106.8 528.5,103.7 531.3,105.6 534.4,118.0 528.3,127.4" fill="#3d7ea6" stroke="#3d7ea6" stroke-width="0.5"/><polygon points="534.4,118.0 531.3,105.6 547.7,97.4 555.4,102.2 552.3,121.3" fill="#1f4e6b" stroke="#1f4e6b" stroke-width="0.5"/><polygon points="576.0,98.1 576.0,121.5 552.3,121.5 555.4,102.2" fill="#1f4e6b" stroke="#1f4e6b" stroke-width="0.5"/><polygon points="0.0,149.8 0.0,126.5 11.8,123.6 22.5,131.6 22.5,149.8" fill="#1f4e6b" stroke="#1f4e6b" stroke-width="0.5"/><polygon points="22.5,145.0 22.5,131.6 37.9,123.0 48.2,128.4 47.9,144.9 42.7,149.6" fill="#1f4e6b" stroke="#1f4e6b" stroke-width="0.5"/><polygon points="47.9,144.9 48.2,128.4 53.9,125.8 76.3,139.8 67.1,150.9" fill="#1f4e6b" stroke="#1f4e6b" stroke-width="0.5"/><polygon points="53.9,125.8 65.1,109.5 80.1,127.1 75.3,139.2" fill="#1f4e6b" stroke="#1f4e6b" stroke-width="0.5"/><polygon points="74.7,140.6 80.1,127.1 91.5,122.1 104.7,131.9 93.8,148.9" fill="#3d7ea6" stroke="#3d7ea6" stroke-width="0.5"/><polygon points="112.3,130.1 133.2,121.6 136.5,123.9 140.4,141.1 131.4,150.2 123.5,150.1" fill="#3d7ea6" stroke="#3d7ea6" stroke-width="0.5"/><polygon points="140.4,141.1 136.5,123.9 163.4,117.2 156.8,142.5" fill="#3d7ea6" stroke="#3d7ea6" stroke-width="0.5"/><polygon points="156.8,142.5 162.0,122.5 172.4,122.9 182.9,130.9 186.3,141.3 181.5,146.2 160.2,147.3" fill="#3d7ea6" stroke="#3d7ea6" stroke-width="0.5"/><polygon points="186.3,141.3 182.9,130.9 197.8,113.8 208.5,124.5 194.8,142.6" fill="#3d7ea6" stroke="#3d7ea6" stroke-width="0.5"/><polygon points="194.8,142.6 208.5,124.5 220.0,125.7 216.0,146.4 201.7,148.2" fill="#1f4e6b" stroke="#1f4e6b" stroke-width="0.5"/><polygon points="216.0,146.4 220.2,124.3 237.3,126.5 241.2,143.5 236.7,150.8 224.7,153.8" fill="#3d7ea6" stroke="#3d7ea6" stroke-width="0.5"/><polygon points="241.2,143.5 237.3,126.5 239.1,124.8 257.8,119.7 265.9,128.9 261.4,145.8" fill="#1f4e6b" stroke="#1f4e6b" stroke-width="0.5"/><polygon points="260.0,151.2 265.9,128.9 281.5,127.6 287.4,139.9 284.2,147.8" fill="#1f4e6b" stroke="#1f4e6b" stroke-width="0.5"/><polygon points="287.4,139.9 281.5,127.6 285.7,120.0 307.8,122.3 303.5,138.3" fill="#1f4e6b" stroke="#1f4e6b" stroke-width="0.5"/><polygon points="309.2,117.2 330.9,138.9 311.5,149.1 303.5,138.4" fill="#1f4e6b" stroke="#1f4e6b" stroke-width="0.5"/><polygon points="333.4,139.0 342.0,120.9 344.7,119.8 362.3,127.0 360.4,141.9 353.5,146.4 337.6,144.2" fill="#3d7ea6" stroke="#3d7ea6" stroke-width="0.5"/><polygon points="360.4,141.9 362.3,127.0 371.7,121.2 379.4,125.8 383.5,138.1 374.6,149.0" fill="#3d7ea6" stroke="#3d7ea6" stroke-width="0.5"/><polygon points="383.5,138.1 379.4,125.8 405.1,116.5 399.4,142.0" fill="#3d7ea6" stroke="#3d7ea6" stroke-width="0.5"/><polygon points="399.4,142.0 403.5,123.9 423.4,124.6 424.8,139.2 414.4,148.5 399.9,143.0" fill="#3d7ea6" stroke="#3d7ea6" stroke-width="0.5"/><polygon points="424.8,139.2 422.8,119.3 443.5,123.3 451.7,136.3 450.7,140.1 439.7,146.2" fill="#3d7ea6" stroke="#3d7ea6" stroke-width="0.5"/><polygon points="450.7,140.1 451.7,136.3 466.0,127.4 481.5,145.5 481.5,145.7 463.8,154.1" fill="#3d7ea6" stroke="#3d7ea6" stroke-width="0.5"/><polygon points="481.5,145.5 466.0,127.4 466.8,125.3 482.7,115.2 493.0,130.5" fill="#3d7ea6" stroke="#3d7ea6" stroke-width="0.5"/><polygon points="481.5,145.7 481.5,145.5 493.0,130.5 507.7,130.5 511.2,149.5 508.7,153.5 495.6,158.6 490.7,157.6" fill="#3d7ea6" stroke="#3d7ea6" stroke-width="0.5"/><polygon points="511.2,149.5 507.3,128.4 528.3,127.4 535.7,142.2 531.3,149.5" fill="#1f4e6b" stroke="#1f4e6b" stroke-width="0.5"/><polygon points="535.7,142.2 528.3,127.4 534.4,118.0 552.5,121.3 551.7,140.3" fill="#1f4e6b" stroke="#1f4e6b" stroke-width="0.5"/><polygon points="576.0,121.5 576.0,141.8 551.6,141.8 552.5,121.5" fill="#1f4e6b" stroke="#1f4e6b" stroke-width="0.5"/><polygon points="0.0,175.7 0.0,149.8 18.3,149.8 21.9,168.0 13.2,178.0" fill="#1f4e6b" stroke="#1f4e6b" stroke-width="0.5"/><polygon points="21.9,168.0 17.1,143.8 42.8,149.6 42.8,169.8" fill="#1f4e6b" stroke="#1f4e6b" stroke-width="0.5"/><polygon points="42.8,166.5 42.8,149.6 47.9,144.9 67.1,150.9 68.2,166.5" fill="#1f4e6b" stroke="#1f4e6b" stroke-width="0.5"/><polygon points="68.1,164.9 67.1,150.9 75.4,140.9 93.8,148.9 96.3,156.6 88.7,166.7" fill="#3d7ea6" stroke="#3d7ea6" stroke-width="0.5"/><polygon points="96.3,156.6 93.8,148.9 104.7,131.9 112.6,130.7 123.5,150.1 113.4,161.1" fill="#3d7ea6" stroke="#3d7ea6" stroke-width="0.5"/><polygon points="115.6,171.7 113.4,161.1 123.5,150.1 131.4,150.2 145.0,170.4 130.6,178.7" fill="#53884e" stroke="#53884e" stroke-width="0.5"/><polygon points="146.9,173.2 131.4,150.2 140.4,141.1 156.8,142.5 160.2,147.3 156.9,165.3" fill="#3d7ea6" stroke="#3d7ea6" stroke-width="0.5"/><polygon points="156.9,165.3 160.2,147.3 181.5,146.2 181.5,170.6" fill="#3d7ea6" stroke="#3d7ea6" stroke-width="0.5"/><polygon points="181.5,170.6 181.5,146.2 186.3,141.3 194.8,142.6 201.7,148.2 201.7,166.6 197.6,170.4 183.8,173.5" fill="#3d7ea6" stroke="#3d7ea6" stroke-width="0.5"/><polygon points="201.7,166.6 201.7,148.2 216.0,146.4 224.7,153.8 219.6,167.9" fill="#3d7ea6" stroke="#3d7ea6" stroke-width="0.5"/><polygon points="223.6,175.5 219.6,167.9 224.7,153.8 236.7,150.8 246.4,169.5 243.6,174.0" fill="#578f51" stroke="#578f51" stroke-width="0.5"/><polygon points="246.4,169.5 236.7,150.8 241.2,143.5 265.1,146.2 263.0,165.6" fill="#3d7ea6" stroke="#3d7ea6" stroke-width="0.5"/><polygon points="262.7,168.7 264.6,150.6 284.2,147.7 290.7,160.6 285.7,169.5" fill="#3d7ea6" stroke="#3d7ea6" stroke-width="0.5"/><polygon points="290.7,160.6 284.2,147.7 287.4,139.9 303.4,138.3 311.5,149.1 309.6,158.5" fill="#3d7ea6" stroke="#3d7ea6" stroke-width="0.5"/><polygon points="309.6,158.5 311.5,149.1 330.9,138.9 333.4,139.0 337.6,144.2 334.2,166.2 314.1,165.3" fill="#3d7ea6" stroke="#3d7ea6" stroke-width="0.5"/><polygon points="333.8,168.4 337.6,144.2 353.5,146.4 356.8,167.4" fill="#558c50" stroke="#558c50" stroke-width="0.5"/><polygon points="356.8,167.0 353.5,146.4 360.4,141.9 374.6,149.1 377.5,159.8 374.5,164.1" fill="#589052" stroke="#589052" stroke-width="0.5"/><polygon points="377.5,159.8 374.6,149.1 383.5,138.1 399.4,142.0 399.9,143.0 391.5,159.8" fill="#3d7ea6" stroke="#3d7ea6" stroke-width="0.5"/><polygon points="399.9,143.0 414.4,148.5 416.1,159.7 399.9,169.2 391.5,159.8" fill="#53884d" stroke="#53884d" stroke-width="0.5"/><polygon points="416.1,159.7 414.4,148.5 424.8,139.2 439.7,146.2 437.3,166.6 427.1,168.2" fill="#568d50" stroke="#568d50" stroke-width="0.5"/><polygon points="437.4,166.4 439.7,146.2 450.7,140.1 463.8,154.1 461.7,164.1" fill="#599353" stroke="#599353" stroke-width="0.5"/><polygon points="466.8,172.9 461.7,164.1 463.8,154.1 481.5,145.7 490.7,157.6 477.6,174.7" fill="#a8a169" stroke="#a8a169" stroke-width="0.5"/><polygon points="501.9,179.2 495.6,158.6 508.7,153.5 519.7,172.7" fill="#345631" stroke="#345631" stroke-width="0.5"/><polygon points="519.7,172.7 508.7,153.5 511.2,149.5 531.3,149.5 535.4,163.7 524.0,174.3" fill="#3d7ea6" stroke="#3d7ea6" stroke-width="0.5"/><polygon points="535.4,163.7 531.3,149.5 535.7,142.2 553.5,140.1 553.5,168.0" fill="#1f4e6b" stroke="#1f4e6b" stroke-width="0.5"/><polygon points="576.0,141.8 576.0,164.2 553.5,164.2 553.5,141.8" fill="#1f4e6b" stroke="#1f4e6b" stroke-width="0.5"/><polygon points="0.0,209.1 0.0,175.7 13.2,178.0 17.3,187.0 4.5,208.2" fill="#1f4e6b" stroke="#1f4e6b" stroke-width="0.5"/><polygon points="17.3,187.0 13.2,178.0 21.9,168.0 40.3,169.6 43.2,185.3 41.9,187.9 30.6,193.4" fill="#3d7ea6" stroke="#3d7ea6" stroke-width="0.5"/><polygon points="43.2,185.3 39.7,166.5 66.9,166.5 66.4,182.8" fill="#3d7ea6" stroke="#3d7ea6" stroke-width="0.5"/><polygon points="66.2,185.8 67.0,164.9 88.7,166.7 92.7,183.3 86.5,188.3" fill="#65a65f" stroke="#65a65f" stroke-width="0.5"/><polygon points="92.7,183.3 88.7,166.7 96.3,156.6 113.4,161.1 115.6,171.7 104.1,185.5" fill="#61a05b" stroke="#61a05b" stroke-width="0.5"/><polygon points="104.1,185.5 115.6,171.7 130.6,178.7 129.5,190.9 110.1,196.1" fill="#53884e" stroke="#53884e" stroke-width="0.5"/><polygon points="129.5,190.9 130.6,178.7 148.5,168.4 157.6,193.3 135.9,199.5" fill="#579052" stroke="#579052" stroke-width="0.5"/><polygon points="156.5,190.3 149.5,171.2 156.9,165.3 181.5,170.6 183.8,173.5 182.1,182.0 175.3,190.3" fill="#599354" stroke="#599354" stroke-width="0.5"/><polygon points="182.1,182.0 183.8,173.5 197.6,170.4 210.1,190.5 202.4,197.2" fill="#5c9756" stroke="#5c9756" stroke-width="0.5"/><polygon points="210.1,190.5 197.6,170.4 201.7,166.6 219.6,167.9 223.6,175.5 219.4,189.0" fill="#52874d" stroke="#52874d" stroke-width="0.5"/><polygon points="218.4,192.4 223.6,175.5 243.6,174.0 247.3,192.4" fill="#548b4f" stroke="#548b4f" stroke-width="0.5"/><polygon points="247.1,191.3 243.6,174.0 246.4,169.5 266.5,164.7 266.5,194.8" fill="#5a9454" stroke="#5a9454" stroke-width="0.5"/><polygon points="266.5,193.4 266.5,168.8 285.7,169.5 292.1,186.1" fill="#568d51" stroke="#568d51" stroke-width="0.5"/><polygon points="291.8,185.4 285.7,169.5 290.7,160.6 309.6,158.5 314.1,165.3 310.2,180.1" fill="#5d9957" stroke="#5d9957" stroke-width="0.5"/><polygon points="310.2,180.1 314.1,165.3 336.1,166.3 335.6,181.4 324.3,190.9 319.4,190.4" fill="#b8b173" stroke="#b8b173" stroke-width="0.5"/><polygon points="335.6,181.4 336.0,168.3 356.4,167.4 358.1,185.7 350.8,191.3" fill="#99935f" stroke="#99935f" stroke-width="0.5"/><polygon points="358.1,185.7 356.4,167.1 374.5,164.1 379.8,183.7 372.5,188.8" fill="#a9a36a" stroke="#a9a36a" stroke-width="0.5"/><polygon points="379.8,183.7 374.5,164.1 377.5,159.8 391.5,159.8 399.9,169.2 399.1,182.4 393.8,186.0" fill="#aaa46a" stroke="#aaa46a" stroke-width="0.5"/><polygon points="399.1,182.4 399.9,169.2 416.1,159.7 427.1,168.2 417.0,187.7" fill="#ada66c" stroke="#ada66c" stroke-width="0.5"/><polygon points="417.0,187.7 427.1,168.2 437.1,166.7 444.6,185.3 440.7,193.4 421.7,195.8" fill="#c8c07d" stroke="#c8c07d" stroke-width="0.5"/><polygon points="444.6,185.3 437.0,166.4 461.7,164.1 466.8,172.9 460.3,183.0" fill="#b8b273" stroke="#b8b273" stroke-width="0.5"/><polygon points="467.7,203.0 460.4,183.0 466.8,172.9 477.6,174.7 484.3,183.8 473.5,202.2" fill="#797269" stroke="#797269" stroke-width="0.5"/><polygon points="477.6,174.7 490.7,157.6 495.6,158.6 501.9,179.2 498.2,186.1 484.3,183.8" fill="#6a6642" stroke="#6a6642" stroke-width="0.5"/><polygon points="498.2,186.1 501.9,179.2 519.7,172.7 524.0,174.3 528.2,189.3 519.1,195.6 500.4,190.9" fill="#345631" stroke="#345631" stroke-width="0.5"/><polygon points="528.2,189.3 524.0,174.3 535.4,163.7 549.9,167.2 551.3,185.3 533.6,191.5" fill="#3d7ea6" stroke="#3d7ea6" stroke-width="0.5"/><polygon points="576.0,164.2 576.0,185.3 551.4,186.4 549.6,164.2" fill="#1f4e6b" stroke="#1f4e6b" stroke-width="0.5"/><polygon points="4.5,208.2 17.3,187.0 30.6,193.4 29.5,209.3 22.2,215.5" fill="#1f4e6b" stroke="#1f4e6b" stroke-width="0.5"/><polygon points="29.5,209.3 30.6,193.4 41.9,187.9 52.5,204.3 46.7,213.6" fill="#3d7ea6" stroke="#3d7ea6" stroke-width="0.5"/><polygon points="52.5,204.3 41.9,187.9 43.2,185.3 69.5,182.5 64.3,202.3" fill="#fde8b4" stroke="#fde8b4" stroke-width="0.5"/><polygon points="64.3,202.3 68.6,186.0 86.5,188.3 86.5,209.4 72.0,210.3" fill="#558c50" stroke="#558c50" stroke-width="0.5"/><polygon points="86.5,209.4 86.5,188.3 92.7,183.3 104.1,185.5 110.1,196.1 109.2,203.9 107.2,206.7 92.6,214.2" fill="#c7c07c" stroke="#c7c07c" stroke-width="0.5"/><polygon points="109.2,203.9 110.1,196.1 129.5,190.9 135.9,199.5 132.9,211.4" fill="#426d3e" stroke="#426d3e" stroke-width="0.5"/><polygon points="132.0,214.9 135.9,199.5 154.2,194.3 158.5,213.3 154.7,219.2" fill="#447040" stroke="#447040" stroke-width="0.5"/><polygon points="158.5,213.3 153.3,190.4 175.3,190.4 178.8,203.4 175.2,210.9" fill="#619f5b" stroke="#619f5b" stroke-width="0.5"/><polygon points="178.8,203.4 175.3,190.3 182.1,182.0 202.4,197.1 200.0,205.8" fill="#65a65f" stroke="#65a65f" stroke-width="0.5"/><polygon points="200.0,205.8 202.4,197.2 210.1,190.5 222.0,188.6 225.5,210.9 202.5,213.3" fill="#cac37e" stroke="#cac37e" stroke-width="0.5"/><polygon points="225.5,210.9 222.6,192.4 245.8,192.4 241.2,209.3 227.2,212.4" fill="#b3a99c" stroke="#b3a99c" stroke-width="0.5"/><polygon points="241.2,209.3 246.2,191.2 265.5,194.6 265.6,195.1 259.0,213.9 250.8,217.7" fill="#9d9489" stroke="#9d9489" stroke-width="0.5"/><polygon points="265.6,195.1 265.4,193.7 291.4,186.3 294.9,200.1 284.3,213.8" fill="#b5af71" stroke="#b5af71" stroke-width="0.5"/><polygon points="294.9,200.1 291.3,185.5 310.2,180.1 319.4,190.4 308.8,205.4" fill="#b8b173" stroke="#b8b173" stroke-width="0.5"/><polygon points="311.9,213.4 308.8,205.4 319.4,190.4 324.3,190.9 332.7,204.2 329.9,212.1" fill="#b2a79b" stroke="#b2a79b" stroke-width="0.5"/><polygon points="332.7,204.3 324.3,190.9 335.6,181.4 350.8,191.3 349.3,200.1" fill="#9e9589" stroke="#9e9589" stroke-width="0.5"/><polygon points="349.3,200.1 350.8,191.3 358.1,185.7 372.5,188.8 372.5,210.9 357.0,212.0" fill="#a49b8f" stroke="#a49b8f" stroke-width="0.5"/><polygon points="372.5,210.2 372.5,188.8 379.8,183.7 393.8,186.0 393.8,207.6" fill="#a79d91" stroke="#a79d91" stroke-width="0.5"/><polygon points="393.8,207.6 393.8,186.0 399.1,182.4 417.0,187.7 421.7,195.8 417.4,211.6 398.9,212.3" fill="#968d83" stroke="#968d83" stroke-width="0.5"/><polygon points="417.3,212.0 421.7,195.8 440.7,193.4 449.6,207.3 441.5,219.0" fill="#68625a" stroke="#68625a" stroke-width="0.5"/><polygon points="440.7,193.4 444.6,185.3 460.4,183.0 468.9,206.2 449.6,207.3" fill="#9c9388" stroke="#9c9388" stroke-width="0.5"/><polygon points="473.5,202.2 484.3,183.8 498.2,186.1 500.4,190.9 496.3,205.5 487.5,210.1" fill="#6a6642" stroke="#6a6642" stroke-width="0.5"/><polygon points="496.3,205.5 500.4,190.9 519.1,195.6 517.0,210.3 510.3,214.5" fill="#345631" stroke="#345631" stroke-width="0.5"/><polygon points="517.0,210.3 519.1,195.6 528.2,189.3 533.6,191.5 539.9,211.7 533.2,217.5" fill="#8f8366" stroke="#8f8366" stroke-width="0.5"/><polygon points="539.9,211.7 533.6,191.5 552.6,184.8 557.7,213.1" fill="#3d7ea6" stroke="#3d7ea6" stroke-width="0.5"/><polygon points="576.0,185.3 576.0,211.0 557.2,210.4 552.8,186.3" fill="#1f4e6b" stroke="#1f4e6b" stroke-width="0.5"/><polygon points="0.0,230.9 0.0,209.1 4.5,208.2 22.2,215.5 24.0,229.2 15.9,237.4" fill="#1f4e6b" stroke="#1f4e6b" stroke-width="0.5"/><polygon points="24.0,229.2 22.2,215.5 29.5,209.3 46.7,213.6 49.4,223.6 40.2,233.9" fill="#3d7ea6" stroke="#3d7ea6" stroke-width="0.5"/><polygon points="49.4,223.6 46.7,213.6 52.5,204.3 64.3,202.3 72.0,210.3 64.8,227.3" fill="#ebd8a8" stroke="#ebd8a8" stroke-width="0.5"/><polygon points="64.8,227.3 72.0,210.3 86.5,209.4 92.6,214.2 92.8,217.8 85.7,231.1 70.4,236.5" fill="#4d7e48" stroke="#4d7e48" stroke-width="0.5"/><polygon points="92.8,217.8 92.6,214.2 107.2,206.7 120.0,228.6 110.6,233.4" fill="#3f673b" stroke="#3f673b" stroke-width="0.5"/><polygon points="120.0,228.6 107.2,206.7 109.2,203.9 135.6,212.3 126.6,228.4" fill="#847f52" stroke="#847f52" stroke-width="0.5"/><polygon points="126.6,228.4 133.9,215.3 154.7,219.2 157.7,232.0 156.1,235.2 133.5,238.8" fill="#345631" stroke="#345631" stroke-width="0.5"/><polygon points="157.7,232.0 154.7,219.2 158.5,213.3 175.2,210.9 182.5,225.5 179.5,231.3" fill="#436e3f" stroke="#436e3f" stroke-width="0.5"/><polygon points="175.2,210.9 178.8,203.4 200.0,205.8 202.5,213.3 200.5,220.2 182.5,225.5" fill="#4e8049" stroke="#4e8049" stroke-width="0.5"/><polygon points="200.5,220.2 202.5,213.3 225.5,210.9 227.2,212.4 227.2,226.1 220.5,231.2 204.8,227.2" fill="#6a6642" stroke="#6a6642" stroke-width="0.5"/><polygon points="227.2,226.1 227.2,212.4 241.2,209.3 250.8,217.7 248.6,228.5 239.3,232.1" fill="#6a6642" stroke="#6a6642" stroke-width="0.5"/><polygon points="260.7,239.3 248.6,228.5 250.8,217.7 259.0,213.9 273.9,223.8 265.6,239.5" fill="#6a6642" stroke="#6a6642" stroke-width="0.5"/><polygon points="259.0,213.9 265.6,195.1 284.3,213.8 284.2,219.4 273.9,223.8" fill="#5c5751" stroke="#5c5751" stroke-width="0.5"/><polygon points="284.2,219.4 284.3,213.8 294.9,200.1 308.8,205.4 311.9,213.4 309.0,220.8 290.5,224.6" fill="#7e776e" stroke="#7e776e" stroke-width="0.5"/><polygon points="317.0,234.6 309.0,220.8 311.9,213.4 329.9,212.1 335.5,223.3 332.4,230.2" fill="#6a6642" stroke="#6a6642" stroke-width="0.5"/><polygon points="335.5,223.3 329.9,212.1 332.7,204.3 349.3,200.1 357.0,212.0 351.9,220.4" fill="#5c5751" stroke="#5c5751" stroke-width="0.5"/><polygon points="357.3,234.6 351.9,220.4 357.0,212.0 371.9,210.9 376.3,228.0 368.8,238.0" fill="#676159" stroke="#676159" stroke-width="0.5"/><polygon points="376.3,228.0 371.7,210.3 393.8,207.6 398.9,212.3 393.3,230.4" fill="#5c5751" stroke="#5c5751" stroke-width="0.5"/><polygon points="393.3,230.4 398.9,212.3 417.8,211.6 417.4,236.0 396.6,236.7" fill="#6a6642" stroke="#6a6642" stroke-width="0.5"/><polygon points="417.4,238.6 417.8,212.1 441.5,219.0 442.8,224.9 432.2,239.5" fill="#6a6642" stroke="#6a6642" stroke-width="0.5"/><polygon points="442.8,224.9 441.5,219.0 449.6,207.3 463.9,206.5 468.1,231.7 458.9,234.2" fill="#6a6642" stroke="#6a6642" stroke-width="0.5"/><polygon points="468.1,231.7 463.4,203.6 473.5,202.2 487.5,210.1 486.9,228.3 469.2,232.1" fill="#6a6642" stroke="#6a6642" stroke-width="0.5"/><polygon points="486.7,234.3 487.5,210.1 496.3,205.5 510.3,214.5 508.0,227.7" fill="#345631" stroke="#345631" stroke-width="0.5"/><polygon points="507.9,228.3 510.3,214.5 517.0,210.3 533.2,217.5 531.3,230.1" fill="#345631" stroke="#345631" stroke-width="0.5"/><polygon points="531.2,230.7 533.2,217.5 539.9,211.7 553.5,212.7 553.5,234.8 547.7,239.0" fill="#3d7ea6" stroke="#3d7ea6" stroke-width="0.5"/><polygon points="576.0,211.0 576.0,237.7 553.5,234.8 553.5,210.3" fill="#1f4e6b" stroke="#1f4e6b" stroke-width="0.5"/><polygon points="0.0,254.1 0.0,230.9 15.9,237.4 15.9,244.6" fill="#1f4e6b" stroke="#1f4e6b" stroke-width="0.5"/><polygon points="15.9,244.6 15.9,237.4 24.0,229.2 40.2,233.9 43.6,246.5 38.9,254.9 26.6,258.5" fill="#1f4e6b" stroke="#1f4e6b" stroke-width="0.5"/><polygon points="43.6,246.5 40.2,233.9 49.4,223.6 64.8,227.3 71.0,237.5 63.7,246.5" fill="#3d7ea6" stroke="#3d7ea6" stroke-width="0.5"/><polygon points="68.4,237.3 85.7,231.1 99.4,246.8 87.2,254.5" fill="#395d35" stroke="#395d35" stroke-width="0.5"/><polygon points="99.4,246.8 85.7,231.1 92.8,217.8 110.6,233.4 104.2,246.9" fill="#477442" stroke="#477442" stroke-width="0.5"/><polygon points="103.2,248.9 110.6,233.4 120.0,228.6 126.6,228.4 133.5,238.8 132.1,248.8 127.2,255.7" fill="#395e35" stroke="#395e35" stroke-width="0.5"/><polygon points="132.1,248.8 133.5,238.8 156.1,235.2 160.6,258.3" fill="#365933" stroke="#365933" stroke-width="0.5"/><polygon points="159.4,252.4 156.1,235.2 157.7,232.0 179.5,231.3 184.2,245.5 175.1,254.7" fill="#345631" stroke="#345631" stroke-width="0.5"/><polygon points="184.2,245.5 179.5,231.3 182.5,225.5 200.5,220.2 204.8,227.2 199.4,248.8" fill="#345631" stroke="#345631" stroke-width="0.5"/><polygon points="199.7,247.5 204.8,227.2 220.5,231.2 220.5,247.5" fill="#546f46" stroke="#546f46" stroke-width="0.5"/><polygon points="220.5,249.4 220.5,231.2 227.3,226.1 239.3,232.1 236.9,247.1" fill="#345631" stroke="#345631" stroke-width="0.5"/><polygon points="245.8,255.0 236.9,247.1 239.3,232.1 248.6,228.5 260.7,239.3" fill="#375b34" stroke="#375b34" stroke-width="0.5"/><polygon points="265.6,239.5 273.9,223.8 284.2,219.4 290.5,224.6 293.3,248.6 273.9,248.9" fill="#6a6642" stroke="#6a6642" stroke-width="0.5"/><polygon points="292.9,245.5 290.5,224.6 309.0,220.8 317.0,234.6 316.0,237.2 297.1,246.2" fill="#6a6642" stroke="#6a6642" stroke-width="0.5"/><polygon points="325.0,258.6 316.0,237.2 317.0,234.6 332.4,230.2 343.2,247.4" fill="#8b8557" stroke="#8b8557" stroke-width="0.5"/><polygon points="332.4,230.2 335.5,223.3 351.9,220.4 357.3,234.6 343.1,247.1" fill="#787169" stroke="#787169" stroke-width="0.5"/><polygon points="342.9,247.3 357.3,234.6 368.8,238.0 372.0,247.5 354.7,260.5" fill="#706961" stroke="#706961" stroke-width="0.5"/><polygon points="372.8,249.8 368.8,238.0 376.3,228.0 393.3,230.4 396.6,236.7 394.3,243.7" fill="#5c5751" stroke="#5c5751" stroke-width="0.5"/><polygon points="411.9,258.8 398.4,254.3 394.3,243.7 396.6,236.7 420.6,235.9 414.9,257.9" fill="#6a6642" stroke="#6a6642" stroke-width="0.5"/><polygon points="432.2,271.2 438.2,247.5 452.2,247.5 459.9,262.8" fill="#6098b8" stroke="#6098b8" stroke-width="0.5"/><polygon points="432.2,239.5 442.8,224.9 458.9,234.2 452.2,247.5 438.2,247.5" fill="#77724a" stroke="#77724a" stroke-width="0.5"/><polygon points="469.2,232.1 492.5,227.1 493.7,242.6 484.8,256.7 474.8,254.3" fill="#6a6642" stroke="#6a6642" stroke-width="0.5"/><polygon points="493.7,242.6 492.9,232.4 508.7,227.5 516.1,250.7 512.7,253.5" fill="#345631" stroke="#345631" stroke-width="0.5"/><polygon points="516.1,250.7 509.0,228.4 532.2,230.2 522.5,249.5" fill="#8f8366" stroke="#8f8366" stroke-width="0.5"/><polygon points="522.5,249.5 531.8,231.0 547.7,239.0 546.9,249.4 535.5,257.7" fill="#3d7ea6" stroke="#3d7ea6" stroke-width="0.5"/><polygon points="576.0,237.7 576.0,255.4 559.3,258.9 546.9,249.4 547.7,239.0 553.5,234.8" fill="#1f4e6b" stroke="#1f4e6b" stroke-width="0.5"/><polygon points="0.0,264.7 0.0,254.1 15.9,244.6 26.6,258.5 26.2,259.4 12.1,269.1" fill="#1f4e6b" stroke="#1f4e6b" stroke-width="0.5"/><polygon points="33.6,284.1 26.2,259.4 26.6,258.5 38.9,254.9 50.4,268.9 44.4,282.9" fill="#1f4e6b" stroke="#1f4e6b" stroke-width="0.5"/><polygon points="50.4,268.9 38.9,254.9 43.6,246.5 63.7,246.5 66.1,265.8" fill="#3d7ea6" stroke="#3d7ea6" stroke-width="0.5"/><polygon points="66.0,264.6 63.7,246.5 70.0,238.7 87.2,254.5 84.0,263.8" fill="#52864c" stroke="#52864c" stroke-width="0.5"/><polygon points="84.0,263.8 87.2,254.5 99.4,246.8 106.7,247.0 104.6,271.1 88.4,270.4" fill="#5f9c59" stroke="#5f9c59" stroke-width="0.5"/><polygon points="104.6,271.1 106.4,249.8 127.2,255.7 128.0,261.4 112.0,278.5" fill="#416a3d" stroke="#416a3d" stroke-width="0.5"/><polygon points="128.0,261.4 127.2,255.7 132.1,248.8 155.6,256.6 153.9,262.9 137.9,269.7" fill="#345631" stroke="#345631" stroke-width="0.5"/><polygon points="153.9,262.9 156.9,252.1 175.1,254.7 181.4,278.8 159.1,273.2" fill="#345631" stroke="#345631" stroke-width="0.5"/><polygon points="180.0,273.5 175.1,254.7 184.2,245.5 198.3,248.6 201.0,267.0" fill="#345631" stroke="#345631" stroke-width="0.5"/><polygon points="201.4,269.9 198.2,247.5 222.3,247.5 221.6,262.5" fill="#638353" stroke="#638353" stroke-width="0.5"/><polygon points="221.6,262.5 222.2,249.2 236.9,247.1 245.8,255.0 247.1,264.4 228.2,268.3" fill="#3f683b" stroke="#3f683b" stroke-width="0.5"/><polygon points="247.1,264.4 245.8,255.0 260.7,239.3 265.6,239.5 273.9,248.9 266.8,265.4 258.3,268.9" fill="#375b34" stroke="#375b34" stroke-width="0.5"/><polygon points="266.8,265.4 273.9,248.9 288.4,248.7 290.3,270.8 283.3,275.9" fill="#345631" stroke="#345631" stroke-width="0.5"/><polygon points="290.3,270.8 288.1,244.8 297.1,246.2 312.9,265.1 308.2,273.5" fill="#96ae71" stroke="#96ae71" stroke-width="0.5"/><polygon points="297.1,246.2 316.0,237.2 325.1,258.9 312.9,265.1" fill="#416b3d" stroke="#416b3d" stroke-width="0.5"/><polygon points="324.6,258.8 343.0,247.5 354.7,260.5 355.0,265.6 338.2,276.6" fill="#837e52" stroke="#837e52" stroke-width="0.5"/><polygon points="355.0,265.6 354.7,260.5 373.7,246.2 381.0,265.5 373.9,272.6 364.2,273.8" fill="#858053" stroke="#858053" stroke-width="0.5"/><polygon points="381.0,265.5 374.8,249.2 394.3,243.7 398.4,254.3 388.6,266.0" fill="#6a6642" stroke="#6a6642" stroke-width="0.5"/><polygon points="401.2,281.7 388.6,266.0 398.4,254.3 411.9,258.8" fill="#6a6642" stroke="#6a6642" stroke-width="0.5"/><polygon points="414.9,257.9 419.9,238.8 432.2,239.5 438.2,247.5 433.5,266.2 428.3,267.0" fill="#858053" stroke="#858053" stroke-width="0.5"/><polygon points="460.1,263.3 452.2,247.5 458.9,234.2 468.1,231.7 469.2,232.1 474.8,254.3" fill="#757149" stroke="#757149" stroke-width="0.5"/><polygon points="466.9,281.0 460.5,263.0 474.8,254.3 484.8,256.7 490.7,266.6 488.0,275.1" fill="#6a6642" stroke="#6a6642" stroke-width="0.5"/><polygon points="490.7,266.6 484.8,256.7 493.7,242.6 512.7,253.5 509.2,263.4" fill="#345631" stroke="#345631" stroke-width="0.5"/><polygon points="509.2,263.4 512.7,253.5 516.1,250.7 522.5,249.5 535.5,257.7 535.5,273.9 515.1,272.5" fill="#3d7ea6" stroke="#3d7ea6" stroke-width="0.5"/><polygon points="535.5,272.4 535.5,257.7 546.9,249.4 559.3,258.9 553.3,272.6" fill="#1f4e6b" stroke="#1f4e6b" stroke-width="0.5"/><polygon points="576.0,255.4 576.0,284.6 559.4,281.1 553.3,272.6 559.3,258.9" fill="#1f4e6b" stroke="#1f4e6b" stroke-width="0.5"/><polygon points="0.0,293.9 0.0,264.7 12.1,269.1 14.2,283.8" fill="#1f4e6b" stroke="#1f4e6b" stroke-width="0.5"/><polygon points="14.2,283.8 12.1,269.1 26.2,259.4 35.1,289.2" fill="#1f4e6b" stroke="#1f4e6b" stroke-width="0.5"/><polygon points="44.4,282.9 50.4,268.9 64.8,266.0 69.6,285.2 64.4,291.2 54.0,292.5" fill="#3d7ea6" stroke="#3d7ea6" stroke-width="0.5"/><polygon points="69.6,285.2 64.5,264.7 84.0,263.8 88.4,270.4 84.1,284.5" fill="#4d7e48" stroke="#4d7e48" stroke-width="0.5"/><polygon points="84.1,284.5 88.4,270.4 104.6,271.1 112.0,278.5 113.3,286.6 89.9,291.9" fill="#436e3e" stroke="#436e3e" stroke-width="0.5"/><polygon points="112.6,282.4 112.0,278.5 128.0,261.4 137.9,269.7 138.6,285.2" fill="#345631" stroke="#345631" stroke-width="0.5"/><polygon points="138.7,288.5 137.9,269.7 153.9,262.9 159.1,273.2 149.9,287.1" fill="#345631" stroke="#345631" stroke-width="0.5"/><polygon points="149.9,287.1 159.1,273.2 177.7,277.9 177.8,279.1 164.1,296.2" fill="#345631" stroke="#345631" stroke-width="0.5"/><polygon points="177.8,279.1 177.3,274.3 203.0,266.4 207.7,283.2 195.0,298.5" fill="#345631" stroke="#345631" stroke-width="0.5"/><polygon points="207.7,283.2 203.7,269.1 221.6,262.5 228.2,268.3 225.0,286.9" fill="#638352" stroke="#638352" stroke-width="0.5"/><polygon points="225.0,286.9 228.2,268.3 247.1,264.4 238.1,291.4 228.8,291.5" fill="#436e3e" stroke="#436e3e" stroke-width="0.5"/><polygon points="238.1,291.4 247.1,264.4 258.3,268.9 259.5,283.4 246.4,295.2" fill="#406a3c" stroke="#406a3c" stroke-width="0.5"/><polygon points="259.5,283.4 258.3,268.9 266.8,265.4 283.3,275.9 281.4,288.9 272.8,291.0" fill="#345631" stroke="#345631" stroke-width="0.5"/><polygon points="281.2,290.3 283.3,275.9 290.3,270.8 308.2,273.5 310.2,281.2 301.7,293.2" fill="#688a57" stroke="#688a57" stroke-width="0.5"/><polygon points="310.2,281.2 308.2,273.5 312.9,265.1 324.8,259.1 338.2,276.6 336.8,285.0 329.8,290.8" fill="#9c9661" stroke="#9c9661" stroke-width="0.5"/><polygon points="336.8,285.0 338.2,276.6 355.0,265.6 364.2,273.8 360.3,289.6 355.2,292.6" fill="#79754c" stroke="#79754c" stroke-width="0.5"/><polygon points="360.3,289.6 364.2,273.8 373.9,272.6 384.1,290.9 374.1,295.9" fill="#8e8859" stroke="#8e8859" stroke-width="0.5"/><polygon points="384.1,290.9 373.9,272.6 381.0,265.5 388.6,266.0 400.7,281.2 391.1,292.0" fill="#635d56" stroke="#635d56" stroke-width="0.5"/><polygon points="401.5,281.0 411.9,258.8 414.9,257.9 428.3,267.0 417.8,286.4" fill="#99935f" stroke="#99935f" stroke-width="0.5"/><polygon points="417.8,286.4 428.3,267.0 438.0,265.5 445.9,293.4 420.8,291.9" fill="#6a6642" stroke="#6a6642" stroke-width="0.5"/><polygon points="444.9,289.8 439.0,269.2 460.4,262.6 467.8,283.7" fill="#6098b8" stroke="#6098b8" stroke-width="0.5"/><polygon points="471.1,296.9 464.4,281.7 488.0,275.1 496.4,289.7 485.5,302.4 485.2,302.5" fill="#345631" stroke="#345631" stroke-width="0.5"/><polygon points="496.4,289.7 488.0,275.1 490.7,266.6 509.2,263.4 515.1,272.5 508.1,290.6" fill="#345631" stroke="#345631" stroke-width="0.5"/><polygon points="507.0,293.5 515.1,272.5 534.3,273.8 535.0,293.5" fill="#3d7ea6" stroke="#3d7ea6" stroke-width="0.5"/><polygon points="535.0,293.8 534.2,272.4 553.3,272.6 559.4,281.1 546.4,296.2" fill="#1f4e6b" stroke="#1f4e6b" stroke-width="0.5"/><polygon points="576.0,284.6 576.0,299.6 552.5,303.3 546.4,296.2 559.4,281.1" fill="#1f4e6b" stroke="#1f4e6b" stroke-width="0.5"/><polygon points="0.0,299.0 0.0,293.9 14.2,283.8 29.1,287.6 28.2,309.2 21.1,310.7" fill="#1f4e6b" stroke="#1f4e6b" stroke-width="0.5"/><polygon points="28.1,311.9 29.3,284.6 44.4,282.9 54.0,292.5 48.3,308.2" fill="#1f4e6b" stroke="#1f4e6b" stroke-width="0.5"/><polygon points="48.3,308.2 54.0,292.5 64.4,291.2 74.6,308.7 59.4,318.9" fill="#3d7ea6" stroke="#3d7ea6" stroke-width="0.5"/><polygon points="74.6,308.7 64.4,291.2 69.6,285.2 84.1,284.5 89.9,291.9 86.4,310.4" fill="#9e9171" stroke="#9e9171" stroke-width="0.5"/><polygon points="86.2,311.1 89.9,291.9 110.7,287.2 115.3,303.7 110.7,311.3" fill="#345631" stroke="#345631" stroke-width="0.5"/><polygon points="115.3,303.8 109.3,282.1 141.8,285.5 136.7,303.8" fill="#345631" stroke="#345631" stroke-width="0.5"/><polygon points="136.7,303.8 141.0,288.2 149.9,287.1 164.1,296.2 166.3,309.5 139.7,308.8" fill="#365933" stroke="#365933" stroke-width="0.5"/><polygon points="166.0,307.8 164.1,296.2 177.8,279.1 195.0,298.5 194.9,300.6" fill="#628252" stroke="#628252" stroke-width="0.5"/><polygon points="180.1,329.8 166.0,314.1 165.0,308.1 194.3,300.8 187.2,328.8" fill="#658655" stroke="#658655" stroke-width="0.5"/><polygon points="194.9,300.1 195.0,298.5 207.7,283.2 225.0,286.9 228.8,291.5 222.0,307.7 211.6,310.3" fill="#70945e" stroke="#70945e" stroke-width="0.5"/><polygon points="222.0,307.7 228.8,291.5 238.1,291.4 246.4,295.2 248.5,299.7 244.2,318.7 240.6,320.7 233.1,319.3" fill="#5b683f" stroke="#5b683f" stroke-width="0.5"/><polygon points="248.5,299.7 246.4,295.2 259.5,283.4 272.8,291.0 265.4,304.5" fill="#385b34" stroke="#385b34" stroke-width="0.5"/><polygon points="265.4,304.5 272.8,291.0 283.0,288.5 285.2,312.7 268.7,313.0" fill="#436e3f" stroke="#436e3f" stroke-width="0.5"/><polygon points="285.2,312.7 283.2,290.5 301.7,293.2 305.7,308.2 301.7,315.0 288.3,315.0" fill="#638252" stroke="#638252" stroke-width="0.5"/><polygon points="305.7,308.2 301.7,293.2 310.2,281.2 329.8,290.8 328.4,303.7" fill="#355832" stroke="#355832" stroke-width="0.5"/><polygon points="328.6,301.9 329.8,290.8 336.8,285.0 355.2,292.6 353.5,308.3 350.0,311.0" fill="#95ad70" stroke="#95ad70" stroke-width="0.5"/><polygon points="353.5,308.3 355.2,292.6 360.3,289.6 374.1,295.9 371.5,312.8" fill="#9b9561" stroke="#9b9561" stroke-width="0.5"/><polygon points="371.5,312.8 374.1,295.9 384.1,290.9 391.1,292.0 394.9,303.1 377.5,321.4" fill="#6b6743" stroke="#6b6743" stroke-width="0.5"/><polygon points="394.9,303.1 391.1,292.0 401.0,280.9 417.8,286.4 420.8,291.9 414.8,311.5 410.5,311.9" fill="#6a6642" stroke="#6a6642" stroke-width="0.5"/><polygon points="414.8,311.5 420.8,291.9 442.7,293.2 446.0,311.2 420.2,316.0" fill="#345631" stroke="#345631" stroke-width="0.5"/><polygon points="445.7,309.4 442.2,290.5 465.6,284.3 471.1,296.9 460.1,310.7" fill="#546f46" stroke="#546f46" stroke-width="0.5"/><polygon points="467.1,320.9 460.1,310.7 471.1,296.9 485.2,302.5 479.0,319.2" fill="#345631" stroke="#345631" stroke-width="0.5"/><polygon points="485.5,302.4 496.4,289.7 510.7,290.8 511.5,312.0 502.3,316.8" fill="#3d7ea6" stroke="#3d7ea6" stroke-width="0.5"/><polygon points="511.5,312.0 510.8,293.5 535.4,293.5 527.9,319.8" fill="#1f4e6b" stroke="#1f4e6b" stroke-width="0.5"/><polygon points="528.4,317.8 535.3,293.8 546.4,296.2 552.5,303.3 551.3,319.6" fill="#1f4e6b" stroke="#1f4e6b" stroke-width="0.5"/><polygon points="576.0,299.6 576.0,319.5 551.3,319.5 552.5,303.3" fill="#1f4e6b" stroke="#1f4e6b" stroke-width="0.5"/><polygon points="0.0,328.5 0.0,299.0 21.1,310.7 9.8,328.5" fill="#1f4e6b" stroke="#1f4e6b" stroke-width="0.5"/><polygon points="9.8,328.5 21.1,310.7 31.2,308.5 35.6,330.5 22.0,341.4" fill="#1f4e6b" stroke="#1f4e6b" stroke-width="0.5"/><polygon points="35.6,330.5 31.7,311.3 48.3,308.2 59.4,318.9 59.1,326.9 47.4,334.6" fill="#1f4e6b" stroke="#1f4e6b" stroke-width="0.5"/><polygon points="59.1,326.9 59.4,318.9 74.6,308.7 87.0,310.5 86.7,327.8 67.1,333.1" fill="#3d7ea6" stroke="#3d7ea6" stroke-width="0.5"/><polygon points="86.7,328.5 87.0,311.1 110.7,311.3 116.6,330.5 115.4,332.9 106.7,336.8" fill="#3d7ea6" stroke="#3d7ea6" stroke-width="0.5"/><polygon points="116.6,330.5 110.7,311.3 115.3,303.8 136.7,303.8 139.7,308.8 137.5,324.5" fill="#365933" stroke="#365933" stroke-width="0.5"/><polygon points="137.5,324.5 139.7,308.8 165.2,309.5 166.0,314.1 148.4,334.6" fill="#3c6238" stroke="#3c6238" stroke-width="0.5"/><polygon points="149.6,338.5 148.4,334.6 166.0,314.1 180.1,329.8 173.5,339.2" fill="#b2a47f" stroke="#b2a47f" stroke-width="0.5"/><polygon points="187.6,327.5 194.5,299.8 211.6,310.3 208.1,327.2" fill="#6098b8" stroke="#6098b8" stroke-width="0.5"/><polygon points="208.1,327.2 211.6,310.3 222.0,307.7 233.1,319.3 217.0,337.4 215.7,337.7" fill="#58653d" stroke="#58653d" stroke-width="0.5"/><polygon points="242.1,345.6 217.0,337.4 233.1,319.3 240.6,320.7" fill="#678856" stroke="#678856" stroke-width="0.5"/><polygon points="244.2,318.7 248.5,299.7 265.4,304.5 268.7,313.0 262.3,323.4" fill="#677747" stroke="#677747" stroke-width="0.5"/><polygon points="262.3,323.4 268.7,313.0 285.2,312.7 288.3,315.0 279.9,338.3 266.3,334.6" fill="#779d63" stroke="#779d63" stroke-width="0.5"/><polygon points="286.3,345.4 279.9,338.3 288.3,315.0 307.0,315.0 293.5,344.0" fill="#426c3d" stroke="#426c3d" stroke-width="0.5"/><polygon points="300.1,317.8 305.7,308.2 326.8,304.0 328.8,329.1 323.9,333.5" fill="#6d905b" stroke="#6d905b" stroke-width="0.5"/><polygon points="328.8,329.1 326.6,301.0 350.0,311.0 346.8,327.2" fill="#4d7e48" stroke="#4d7e48" stroke-width="0.5"/><polygon points="354.9,334.7 346.8,327.2 350.0,311.0 353.5,308.3 371.5,312.8 378.8,323.2" fill="#4d7f48" stroke="#4d7f48" stroke-width="0.5"/><polygon points="376.5,322.4 394.9,303.1 410.5,311.9 396.0,330.0 383.3,329.5" fill="#345631" stroke="#345631" stroke-width="0.5"/><polygon points="396.0,330.0 410.5,311.9 414.8,311.5 420.2,316.0 422.5,329.0 407.3,342.2" fill="#345631" stroke="#345631" stroke-width="0.5"/><polygon points="422.5,329.0 420.2,316.0 444.0,311.6 445.8,332.7 436.8,339.6" fill="#345631" stroke="#345631" stroke-width="0.5"/><polygon points="445.8,332.7 443.8,309.2 460.1,310.7 467.1,320.9 461.8,335.5" fill="#546f46" stroke="#546f46" stroke-width="0.5"/><polygon points="461.0,337.5 467.1,320.9 479.0,319.2 491.9,333.9 489.1,337.5" fill="#3d7ea6" stroke="#3d7ea6" stroke-width="0.5"/><polygon points="491.9,333.9 479.0,319.2 485.2,302.5 485.6,302.4 502.3,316.8 496.1,332.4" fill="#3d7ea6" stroke="#3d7ea6" stroke-width="0.5"/><polygon points="496.1,332.4 502.3,316.8 511.5,312.0 526.6,319.1 525.3,331.1 510.9,339.4" fill="#1f4e6b" stroke="#1f4e6b" stroke-width="0.5"/><polygon points="525.3,331.1 526.7,317.7 551.2,319.6 551.2,337.2 534.7,340.1" fill="#1f4e6b" stroke="#1f4e6b" stroke-width="0.5"/><polygon points="576.0,319.5 576.0,337.5 551.2,337.5 551.2,319.5" fill="#1f4e6b" stroke="#1f4e6b" stroke-width="0.5"/><polygon points="0.0,356.5 0.0,328.5 9.8,328.5 22.0,341.4 21.8,345.1 11.7,356.8" fill="#1f4e6b" stroke="#1f4e6b" stroke-width="0.5"/><polygon points="21.8,345.1 22.0,341.4 35.6,330.5 47.4,334.6 49.4,362.7" fill="#1f4e6b" stroke="#1f4e6b" stroke-width="0.5"/><polygon points="49.1,357.6 47.4,334.6 59.1,326.9 67.1,333.1 69.4,347.7 59.6,358.0" fill="#1f4e6b" stroke="#1f4e6b" stroke-width="0.5"/><polygon points="69.4,347.7 67.1,333.1 87.9,327.4 83.2,349.4" fill="#1f4e6b" stroke="#1f4e6b" stroke-width="0.5"/><polygon points="83.2,349.4 87.6,328.9 106.7,336.8 95.5,362.0" fill="#1f4e6b" stroke="#1f4e6b" stroke-width="0.5"/><polygon points="106.8,367.6 97.0,358.6 106.7,336.8 115.4,332.9 130.0,356.9 129.1,359.4" fill="#3d7ea6" stroke="#3d7ea6" stroke-width="0.5"/><polygon points="130.0,356.9 115.4,332.9 116.6,330.5 137.5,324.5 148.4,334.6 149.6,338.5 146.9,346.9" fill="#b1a27e" stroke="#b1a27e" stroke-width="0.5"/><polygon points="146.9,346.9 149.6,338.5 173.5,339.2 176.7,360.2 172.7,364.7 163.5,364.6" fill="#a39675" stroke="#a39675" stroke-width="0.5"/><polygon points="176.7,360.2 173.5,339.2 180.1,329.8 185.7,329.0 202.5,356.6" fill="#3d7ea6" stroke="#3d7ea6" stroke-width="0.5"/><polygon points="201.6,355.0 184.8,327.5 208.1,327.2 215.7,337.7 208.2,352.9" fill="#d6c499" stroke="#d6c499" stroke-width="0.5"/><polygon points="208.2,352.9 215.7,337.7 217.0,337.4 242.1,345.6 247.6,353.3 247.6,356.4 224.2,364.4" fill="#7aa166" stroke="#7aa166" stroke-width="0.5"/><polygon points="247.6,353.3 242.1,345.6 240.6,320.7 244.2,318.7 262.3,323.4 266.3,334.6" fill="#6098b8" stroke="#6098b8" stroke-width="0.5"/><polygon points="247.6,353.9 247.6,353.3 266.3,334.6 279.9,338.3 286.3,345.4 281.1,362.5 273.5,366.3" fill="#497744" stroke="#497744" stroke-width="0.5"/><polygon points="293.5,344.0 304.4,320.7 324.0,333.5 306.3,348.2" fill="#84af6e" stroke="#84af6e" stroke-width="0.5"/><polygon points="312.3,364.4 306.3,348.2 323.9,333.6 335.1,357.0 324.0,365.8" fill="#51864c" stroke="#51864c" stroke-width="0.5"/><polygon points="335.1,357.0 323.9,333.5 328.8,329.1 346.8,327.2 354.9,334.7 355.5,354.0 348.7,358.1" fill="#9eb877" stroke="#9eb877" stroke-width="0.5"/><polygon points="355.5,354.0 354.9,334.7 377.7,323.7 383.3,329.5 379.8,356.2 373.5,359.4" fill="#6a6642" stroke="#6a6642" stroke-width="0.5"/><polygon points="379.8,356.2 383.3,329.5 396.0,330.0 407.3,342.2 407.9,355.0 398.2,360.1" fill="#345631" stroke="#345631" stroke-width="0.5"/><polygon points="407.9,355.0 407.3,342.2 422.5,329.0 436.8,339.6 436.3,343.3 413.8,357.2" fill="#345631" stroke="#345631" stroke-width="0.5"/><polygon points="424.5,371.3 413.8,357.2 436.3,343.3 447.8,363.7" fill="#8f8366" stroke="#8f8366" stroke-width="0.5"/><polygon points="447.8,363.7 436.3,343.3 436.8,339.6 445.8,332.7 463.1,335.7 463.3,354.9 457.3,364.9 454.6,366.5" fill="#3d7ea6" stroke="#3d7ea6" stroke-width="0.5"/><polygon points="463.3,354.9 463.2,337.5 489.1,337.5 487.3,352.2" fill="#1f4e6b" stroke="#1f4e6b" stroke-width="0.5"/><polygon points="493.5,363.9 487.3,352.2 489.1,337.5 491.9,333.9 496.1,332.4 510.9,339.4 513.7,360.8" fill="#1f4e6b" stroke="#1f4e6b" stroke-width="0.5"/><polygon points="514.1,364.1 510.9,339.4 525.3,331.1 534.7,340.1 531.3,360.4" fill="#1f4e6b" stroke="#1f4e6b" stroke-width="0.5"/><polygon points="530.2,367.1 534.7,340.1 551.5,337.2 554.7,359.7 554.7,359.7" fill="#1f4e6b" stroke="#1f4e6b" stroke-width="0.5"/><polygon points="576.0,337.5 576.0,357.3 554.7,359.7 551.6,337.5" fill="#1f4e6b" stroke="#1f4e6b" stroke-width="0.5"/><polygon points="5.6,396.0 0.0,396.0 0.0,356.5 11.7,356.8 19.6,371.8" fill="#1f4e6b" stroke="#1f4e6b" stroke-width="0.5"/><polygon points="19.6,371.8 11.7,356.8 21.8,345.1 45.3,360.1 40.0,371.8" fill="#1f4e6b" stroke="#1f4e6b" stroke-width="0.5"/><polygon points="73.6,396.0 47.8,396.0 40.0,371.8 46.5,357.5 59.6,358.0 74.1,374.8" fill="#1f4e6b" stroke="#1f4e6b" stroke-width="0.5"/><polygon points="74.1,374.8 59.6,358.0 69.4,347.7 83.3,349.4 92.0,358.4" fill="#1f4e6b" stroke="#1f4e6b" stroke-width="0.5"/><polygon points="105.1,396.0 73.6,396.0 74.1,374.8 94.4,356.2 106.8,367.6" fill="#1f4e6b" stroke="#1f4e6b" stroke-width="0.5"/><polygon points="140.6,396.0 105.1,396.0 106.8,367.6 129.1,359.4 141.8,383.9" fill="#1f4e6b" stroke="#1f4e6b" stroke-width="0.5"/><polygon points="141.8,383.9 129.1,359.4 130.0,356.9 146.9,346.9 163.5,364.6" fill="#3d7ea6" stroke="#3d7ea6" stroke-width="0.5"/><polygon points="182.5,396.0 140.6,396.0 141.8,383.9 163.5,364.6 172.7,364.7" fill="#3d7ea6" stroke="#3d7ea6" stroke-width="0.5"/><polygon points="201.9,396.0 182.5,396.0 172.7,364.7 176.7,360.2 199.5,357.0" fill="#3d7ea6" stroke="#3d7ea6" stroke-width="0.5"/><polygon points="219.3,396.0 201.9,396.0 199.5,355.7 208.2,352.9 224.2,364.4" fill="#3d7ea6" stroke="#3d7ea6" stroke-width="0.5"/><polygon points="248.1,396.0 219.3,396.0 224.2,364.4 245.2,357.2" fill="#3d7ea6" stroke="#3d7ea6" stroke-width="0.5"/><polygon points="265.5,396.0 248.1,396.0 244.8,352.6 273.5,366.3" fill="#3d7ea6" stroke="#3d7ea6" stroke-width="0.5"/><polygon points="300.2,396.0 265.5,396.0 273.5,366.3 281.1,362.5 299.7,375.6" fill="#79a065" stroke="#79a065" stroke-width="0.5"/><polygon points="281.1,362.5 286.3,345.4 293.5,344.0 306.3,348.2 312.3,364.4 299.7,375.6" fill="#789f64" stroke="#789f64" stroke-width="0.5"/><polygon points="332.0,396.0 300.2,396.0 299.7,375.6 312.3,364.4 324.0,365.8" fill="#a2a99b" stroke="#a2a99b" stroke-width="0.5"/><polygon points="348.8,396.0 332.0,396.0 324.0,365.8 335.1,357.0 348.8,358.1" fill="#50834b" stroke="#50834b" stroke-width="0.5"/><polygon points="373.5,396.0 348.8,396.0 348.8,358.1 355.5,354.0 373.5,359.4" fill="#90968a" stroke="#90968a" stroke-width="0.5"/><polygon points="398.2,396.0 373.5,396.0 373.5,359.4 379.8,356.2 398.2,360.1" fill="#7c8177" stroke="#7c8177" stroke-width="0.5"/><polygon points="419.9,396.0 398.2,396.0 398.2,360.1 407.9,355.0 413.8,357.2 424.5,371.3" fill="#345631" stroke="#345631" stroke-width="0.5"/><polygon points="453.7,396.0 419.9,396.0 424.5,371.3 447.8,363.7 454.6,366.5" fill="#3d7ea6" stroke="#3d7ea6" stroke-width="0.5"/><polygon points="489.7,396.0 453.7,396.0 454.6,366.5 457.3,364.9 487.5,375.2" fill="#1f4e6b" stroke="#1f4e6b" stroke-width="0.5"/><polygon points="457.3,364.9 463.3,354.9 487.3,352.2 493.5,363.9 487.5,375.2" fill="#1f4e6b" stroke="#1f4e6b" stroke-width="0.5"/><polygon points="516.8,396.0 489.7,396.0 487.5,375.2 493.5,363.9 518.0,360.1" fill="#1f4e6b" stroke="#1f4e6b" stroke-width="0.5"/><polygon points="542.9,396.0 516.8,396.0 517.9,363.3 538.7,358.8" fill="#1f4e6b" stroke="#1f4e6b" stroke-width="0.5"/><polygon points="564.6,396.0 542.9,396.0 539.3,364.3 554.7,359.7" fill="#1f4e6b" stroke="#1f4e6b" stroke-width="0.5"/><polygon points="576.0,357.3 576.0,396.0 564.6,396.0 554.7,359.7 554.7,359.7" fill="#1f4e6b" stroke="#1f4e6b" stroke-width="0.5"/><polygon points="47.8,396.0 5.6,396.0 19.6,371.8 40.0,371.8" fill="#1f4e6b" stroke="#1f4e6b" stroke-width="0.5"/></g><path d="M112.2,78.2 L109.5,60.6 M109.5,60.6 L133.7,56.8 M133.2,58.8 L150.2,59.8 M150.2,60.4 L174.9,67.5 M174.8,69.5 L198.0,61.2 M198.0,61.2 L203.7,68.0 M203.7,68.0 L219.7,65.2 M219.7,65.2 L227.5,71.0 M227.5,71.0 L228.9,75.5 M249.3,80.5 L252.2,65.2 M252.2,65.2 L265.0,57.9 M265.0,57.9 L270.1,60.4 M270.1,60.4 L276.9,78.8 M276.9,78.8 L264.4,86.1 M313.5,87.1 L314.0,71.4 M314.0,71.4 L330.2,67.1 M330.2,67.1 L337.1,71.8 M337.1,71.8 L339.8,77.3 M395.1,77.1 L393.8,58.5 M393.8,58.5 L414.9,58.5 M414.9,58.5 L421.3,69.2 M421.3,69.2 L438.8,63.4 M438.8,63.4 L447.7,68.9 M447.7,68.9 L464.0,64.8 M464.0,64.8 L466.6,94.6 M86.6,102.7 L83.7,84.6 M83.7,84.6 L88.1,78.6 M88.1,78.6 L105.7,84.1 M93.3,106.5 L86.6,102.7 M105.7,84.1 L112.2,78.2 M204.2,103.5 L197.4,111.1 M197.4,111.1 L180.1,102.4 M225.8,96.8 L220.0,103.5 M220.0,103.5 L204.2,103.5 M228.9,75.5 L249.3,80.5 M244.1,96.7 L237.9,99.6 M237.9,99.6 L225.8,96.8 M264.4,86.1 L267.4,105.2 M267.4,105.2 L260.3,110.7 M260.3,110.7 L244.1,96.7 M285.5,103.8 L278.1,79.2 M278.1,79.2 L289.5,76.9 M289.5,76.9 L303.6,93.7 M301.8,98.4 L285.5,103.8 M312.6,116.0 L301.8,98.4 M303.6,93.7 L313.5,87.1 M325.7,109.9 L312.6,116.0 M339.8,77.3 L353.6,78.2 M353.6,78.2 L362.0,88.7 M362.0,88.7 L374.5,86.2 M374.5,86.2 L377.3,80.8 M377.3,80.8 L395.1,77.1 M465.2,92.6 L487.2,86.3 M487.2,86.3 L491.4,105.1 M91.5,122.1 L93.3,106.5 M113.6,130.6 L104.7,131.9 M104.7,131.9 L91.5,122.1 M133.2,121.6 L113.5,129.6 M158.3,118.5 L136.5,123.9 M136.5,123.9 L133.2,121.6 M185.5,99.2 L172.4,122.9 M172.4,122.9 L158.8,122.3 M342.0,120.9 L325.7,109.9 M344.7,119.8 L342.0,120.9 M371.7,121.2 L362.3,127.0 M362.3,127.0 L344.7,119.8 M399.1,118.7 L379.4,125.8 M379.4,125.8 L371.7,121.2 M427.0,124.7 L399.3,123.8 M443.5,123.3 L426.8,120.1 M451.7,136.3 L443.5,123.3 M466.8,125.2 L466.0,127.4 M466.0,127.4 L451.7,136.3 M482.7,115.2 L466.8,125.3 M491.4,105.1 L508.7,106.6 M508.7,106.6 L509.9,130.5 M509.9,130.5 L493.0,130.5 M493.0,130.5 L482.7,115.2 M113.4,161.1 L123.5,150.1 M123.5,150.1 L131.4,150.2 M131.4,150.2 L145.0,170.4 M219.6,167.9 L224.7,153.8 M224.7,153.8 L236.7,150.8 M236.7,150.8 L246.4,169.5 M333.8,168.4 L337.6,144.2 M337.6,144.2 L353.5,146.4 M353.5,146.4 L360.4,141.9 M360.4,141.9 L374.6,149.1 M374.6,149.1 L377.5,159.8 M399.9,143.0 L414.4,148.5 M391.5,159.8 L399.9,143.0 M414.4,148.5 L424.8,139.2 M424.8,139.2 L439.7,146.2 M439.7,146.2 L450.7,140.1 M450.7,140.1 L463.8,154.1 M463.8,154.1 L481.5,145.7 M481.5,145.7 L490.7,157.6 M495.6,158.6 L508.7,153.5 M508.7,153.5 L519.7,172.7 M66.2,185.8 L67.0,164.9 M67.0,164.9 L88.7,166.7 M88.7,166.7 L96.3,156.6 M96.3,156.6 L113.4,161.1 M149.5,171.2 L156.9,165.3 M156.9,165.3 L181.5,170.6 M181.5,170.6 L183.8,173.5 M183.8,173.5 L197.6,170.4 M197.6,170.4 L201.7,166.6 M201.7,166.6 L219.6,167.9 M246.4,169.5 L266.5,164.7 M266.5,168.8 L285.7,169.5 M285.7,169.5 L290.7,160.6 M290.7,160.6 L309.6,158.5 M309.6,158.5 L314.1,165.3 M314.1,165.3 L336.1,166.3 M377.5,159.8 L391.5,159.8 M490.7,157.6 L495.6,158.6 M519.7,172.7 L524.0,174.3 M524.0,174.3 L528.2,189.3 M52.5,204.3 L41.9,187.9 M41.9,187.9 L43.2,185.3 M43.2,185.3 L69.5,182.5 M528.2,189.3 L533.6,191.5 M533.6,191.5 L539.9,211.7 M539.9,211.7 L533.2,217.5 M49.4,223.6 L46.7,213.6 M46.7,213.6 L52.5,204.3 M64.8,227.3 L49.4,223.6 M70.4,236.5 L64.8,227.3 M533.2,217.5 L531.3,230.1 M516.1,250.7 L512.7,253.5 M532.2,230.2 L522.5,249.5 M522.5,249.5 L516.1,250.7 M66.0,264.6 L63.7,246.5 M63.7,246.5 L70.0,238.7 M512.7,253.5 L509.2,263.4 M69.6,285.2 L64.5,264.7 M496.4,289.7 L485.5,302.4 M485.5,302.4 L485.2,302.5 M509.2,263.4 L515.1,272.5 M515.1,272.5 L508.1,290.6 M508.1,290.6 L496.4,289.7 M74.6,308.7 L64.4,291.2 M64.4,291.2 L69.6,285.2 M86.4,310.4 L74.6,308.7 M110.7,311.3 L86.2,311.1 M187.2,328.8 L180.1,329.8 M485.2,302.5 L479.0,319.2 M479.0,319.2 L467.1,320.9 M116.6,330.5 L110.7,311.3 M180.1,329.8 L173.5,339.2 M445.8,332.7 L436.8,339.6 M467.1,320.9 L461.8,335.5 M461.8,335.5 L445.8,332.7 M130.0,356.9 L115.4,332.9 M115.4,332.9 L116.6,330.5 M146.9,346.9 L130.0,356.9 M173.5,339.2 L176.7,360.2 M176.7,360.2 L172.7,364.7 M172.7,364.7 L163.5,364.6 M163.5,364.6 L146.9,346.9 M201.6,355.0 L184.8,327.5 M208.2,352.9 L201.6,355.0 M247.6,356.4 L224.2,364.4 M224.2,364.4 L208.2,352.9 M273.5,366.3 L247.6,353.9 M436.8,339.6 L436.3,343.3 M436.3,343.3 L447.8,363.7 M447.8,363.7 L424.5,371.3 M265.5,396.0 L273.5,366.3 M424.5,371.3 L419.9,396.0" fill="none" stroke="#283640" stroke-width="2.0" stroke-linecap="round"/><g opacity="0.9"><path d="M457.5,298.5 L455.4,322.2" fill="none" stroke="#4a82af" stroke-width="1.6" stroke-linecap="round" stroke-linejoin="round"/><path d="M217.8,273.6 L213.0,296.0" fill="none" stroke="#4a82af" stroke-width="1.4" stroke-linecap="round" stroke-linejoin="round"/><path d="M292.5,301.5 L276.4,322.7" fill="none" stroke="#4a82af" stroke-width="1.4" stroke-linecap="round" stroke-linejoin="round"/><path d="M211.5,256.5 L217.8,273.6" fill="none" stroke="#4a82af" stroke-width="1.3" stroke-linecap="round" stroke-linejoin="round"/><path d="M298.1,358.9 L283.5,379.8" fill="none" stroke="#4a82af" stroke-width="1.3" stroke-linecap="round" stroke-linejoin="round"/><path d="M211.5,238.5 L211.5,256.5" fill="none" stroke="#4a82af" stroke-width="1.3" stroke-linecap="round" stroke-linejoin="round"/><path d="M295.2,282.6 L292.5,301.5" fill="none" stroke="#4a82af" stroke-width="1.3" stroke-linecap="round" stroke-linejoin="round"/><path d="M177.0,295.5 L181.5,313.5" fill="none" stroke="#4a82af" stroke-width="1.3" stroke-linecap="round" stroke-linejoin="round"/><path d="M306.0,334.8 L298.1,358.9" fill="none" stroke="#4a82af" stroke-width="1.3" stroke-linecap="round" stroke-linejoin="round"/><path d="M231.8,333.0 L226.3,349.7" fill="none" stroke="#4a82af" stroke-width="1.2" stroke-linecap="round" stroke-linejoin="round"/><path d="M318.0,316.5 L306.0,334.8" fill="none" stroke="#4a82af" stroke-width="1.2" stroke-linecap="round" stroke-linejoin="round"/></g></svg>