<svg xmlns="http://www.w3.org/2000/svg" width="630" height="630" viewBox="0 0 630 630"><rect width="630" height="630" fill="#c9d2bb"/><polygon points="453.2,0.0 630.0,0.0 630.0,630.0 331.8,630.0" fill="#2f6d8f"/><polygon points="392.5,315.0 392.2,321.8 391.4,328.5 399.3,337.6 397.0,344.8 394.1,351.9 398.9,363.5 394.4,370.6 396.7,383.5 383.5,383.5 371.1,381.8 365.0,386.5 353.8,382.2 351.9,394.1 351.5,415.2 352.6,455.4 352.0,525.0 335.6,549.9 315.0,551.6 294.3,551.9 273.4,550.8 252.5,548.2 231.7,544.0 211.0,538.0 190.8,530.1 171.3,520.3 153.0,508.0 136.8,493.2 122.0,477.0 108.6,459.5 96.8,441.0 86.6,421.5 78.2,401.2 71.6,380.2 67.2,358.7 66.2,336.8 67.3,315.0 70.2,293.6 74.8,272.6 80.8,252.2 88.1,232.4 148.1,237.2 180.7,237.5 203.8,237.2 203.6,221.5 205.3,205.3 202.9,181.4 203.8,156.2 203.5,121.9 220.8,113.0 232.1,87.3 249.8,71.6 271.2,66.8 293.0,64.0 315.0,63.0 337.0,64.0 358.8,66.8 380.2,71.6 401.2,78.2 421.5,86.6 431.3,113.5 454.0,116.5 470.8,129.4 472.6,157.4 470.9,184.2 465.8,209.4 466.1,227.8 473.1,241.3 424.3,275.2 427.3,284.9 429.5,294.8 421.2,305.7" fill="#e6dcc0"/><g stroke="#4a4230" stroke-width="1" stroke-linejoin="round"><polygon points="304.7,63.5 315.0,63.0 337.0,64.0 358.8,66.8 378.5,71.2 364.0,102.7 323.9,115.7" fill="#dfd6c0"/><polygon points="310.3,479.3 256.0,479.1 247.1,464.4 270.9,428.2 298.1,432.1 313.4,472.3" fill="#cdbf9e"/><polygon points="469.4,191.9 467.8,199.7 405.3,228.3 388.8,185.8 389.5,182.0 420.9,164.0" fill="#d8cdb0"/><polygon points="375.1,143.4 385.2,176.8 335.9,166.1 333.9,148.6" fill="#cdbf9e"/><polygon points="446.4,115.5 454.0,116.5 470.8,129.4 472.6,157.4 470.9,184.2 469.4,191.9 420.9,164.0 417.3,132.1" fill="#d8cdb0"/><polygon points="139.9,236.5 148.1,237.2 180.7,237.5 200.5,237.2 203.7,228.5 203.6,221.5 205.2,207.1 210.2,211.3 186.4,274.6 154.5,287.3 136.2,263.6" fill="#b3a684"/><polygon points="177.7,383.2 139.4,390.3 121.6,368.1 154.9,320.1 186.6,348.7" fill="#cdbf9e"/><polygon points="388.8,185.8 405.3,228.3 405.1,228.7 351.0,227.8 354.8,200.8" fill="#c2b48f"/><polygon points="319.5,129.7 333.9,148.6 335.9,166.1 332.8,178.1 314.3,192.0 264.4,185.6 267.0,146.9" fill="#dfd6c0"/><polygon points="335.9,166.1 385.2,176.8 389.5,182.0 388.8,185.8 354.8,200.8 332.8,178.1" fill="#cdbf9e"/><polygon points="179.1,524.2 171.3,520.3 153.0,508.0 136.8,493.2 122.0,477.0 108.6,459.5 106.3,456.0 134.6,438.2 155.9,441.4 192.1,475.2" fill="#dfd6c0"/><polygon points="320.2,252.9 327.0,295.7 316.1,306.1 284.5,298.4 271.1,271.2" fill="#b3a684"/><polygon points="281.2,551.3 273.4,550.8 252.5,548.2 231.7,544.0 211.0,538.0 200.8,534.0 253.1,502.0 281.0,536.1" fill="#cdbf9e"/><polygon points="392.5,315.0 392.2,321.8 391.4,328.5 399.3,337.6 397.7,342.5 372.7,337.9 366.9,303.3 382.3,279.9 407.3,269.0 425.8,280.0 427.3,284.9 429.5,294.8 421.2,305.7" fill="#aebbb0"/><polygon points="106.3,456.0 96.8,441.0 86.6,421.5 78.2,401.2 71.6,380.2 68.6,365.5 121.6,368.1 139.4,390.3 134.6,438.2" fill="#c2b48f"/><polygon points="298.1,432.1 270.9,428.2 258.4,399.4 285.9,374.1 301.4,376.4 327.1,402.2 326.1,406.9" fill="#cdbf9e"/><polygon points="270.9,428.2 247.1,464.4 220.9,458.0 209.4,410.0 234.4,393.0 258.4,399.4" fill="#cdbf9e"/><polygon points="68.6,365.5 67.2,358.7 66.2,336.8 67.2,318.4 151.2,296.7 154.9,320.1 121.6,368.1" fill="#cdbf9e"/><polygon points="67.2,318.4 67.3,315.0 70.2,293.6 74.8,272.6 80.8,252.2 82.2,248.4 136.2,263.6 154.5,287.3 151.2,296.7" fill="#d8cdb0"/><polygon points="281.0,536.1 253.1,502.0 256.0,479.1 310.3,479.3 316.3,499.3" fill="#cdbf9e"/><polygon points="82.2,248.4 88.1,232.4 139.9,236.5 136.2,263.6" fill="#cdbf9e"/><polygon points="420.9,164.0 389.5,182.0 385.2,176.8 375.1,143.4 384.7,129.4 406.9,127.3 417.3,132.1" fill="#c2b48f"/><polygon points="352.1,520.9 352.0,525.0 335.6,549.9 315.0,551.6 294.3,551.9 281.2,551.3 281.0,536.1 316.3,499.3" fill="#d8cdb0"/><polygon points="155.9,441.4 134.6,438.2 139.4,390.3 177.7,383.2 198.6,407.6" fill="#d8cdb0"/><polygon points="154.5,287.3 186.4,274.6 226.2,294.7 235.6,332.2 225.1,344.9 186.6,348.7 154.9,320.1 151.2,296.7" fill="#cdbf9e"/><polygon points="397.7,342.5 397.0,344.8 394.1,351.9 398.9,363.5 394.4,370.6 396.7,383.5 383.5,383.5 371.1,381.8 365.0,386.5 357.7,383.6 361.1,349.2 372.7,337.9" fill="#cdbf9e"/><polygon points="323.9,115.7 364.0,102.7 384.7,129.4 375.1,143.4 333.9,148.6 319.5,129.7" fill="#cdbf9e"/><polygon points="327.0,295.7 320.2,252.9 325.2,244.2 327.1,242.8 335.3,241.5 382.3,279.9 366.9,303.3" fill="#cdbf9e"/><polygon points="354.8,200.8 351.0,227.8 335.3,241.5 327.1,242.8 314.3,192.0 332.8,178.1" fill="#c2b48f"/><polygon points="378.5,71.2 380.2,71.6 401.1,78.2 406.9,127.3 384.7,129.4 364.0,102.7" fill="#b3a684"/><polygon points="325.2,244.2 320.2,252.9 271.1,271.2 262.9,267.8 246.3,209.3 251.7,205.1" fill="#cdbf9e"/><polygon points="177.7,383.2 186.6,348.7 225.1,344.9 234.4,393.0 209.4,410.0 198.6,407.6" fill="#c2b48f"/><polygon points="327.1,242.8 325.2,244.2 251.7,205.1 264.4,185.6 314.3,192.0" fill="#cdbf9e"/><polygon points="352.3,445.2 352.6,454.0 313.4,472.3 298.1,432.1 326.1,406.9" fill="#cdbf9e"/><polygon points="357.7,383.6 353.8,382.2 352.9,387.5 327.1,402.2 301.4,376.4 325.0,342.3 361.1,349.2" fill="#b3a684"/><polygon points="316.1,306.1 327.0,295.7 366.9,303.3 372.7,337.9 361.1,349.2 325.0,342.3 315.5,328.1" fill="#d8cdb0"/><polygon points="205.2,207.1 205.3,205.3 202.9,181.4 203.8,156.2 203.5,121.9 220.8,113.0 226.0,101.2 267.0,146.9 264.4,185.6 251.7,205.1 246.3,209.3 210.2,211.3" fill="#cdbf9e"/><polygon points="186.4,274.6 200.5,237.2 203.8,237.2 203.7,228.5 210.2,211.3 246.3,209.3 262.9,267.8 226.2,294.7" fill="#cdbf9e"/><polygon points="357.5,384.9 352.9,387.5 351.9,394.1 351.5,415.2 352.3,445.2 326.1,406.9 327.1,402.2 357.5,384.9" fill="#b3a684"/><polygon points="226.0,101.2 232.1,87.3 249.8,71.6 271.2,66.8 293.0,64.0 304.7,63.5 323.9,115.7 319.5,129.7 267.0,146.9" fill="#dfd6c0"/><polygon points="401.1,78.2 401.2,78.2 421.5,86.6 431.3,113.5 446.4,115.5 417.3,132.1 406.9,127.3" fill="#b3a684"/><polygon points="315.5,328.1 325.0,342.3 301.4,376.4 285.9,374.1 271.4,340.3" fill="#cdbf9e"/><polygon points="352.6,454.0 352.6,455.4 352.1,520.9 316.3,499.3 310.3,479.3 313.4,472.3" fill="#b9a98c"/><polygon points="192.1,475.2 155.9,441.4 198.6,407.6 209.4,410.0 220.9,458.0" fill="#c2b48f"/><polygon points="284.5,298.4 316.1,306.1 315.5,328.1 271.4,340.3 264.7,334.9" fill="#d9c08a"/><polygon points="262.9,267.8 271.1,271.2 284.5,298.4 264.7,334.9 235.6,332.2 226.2,294.7" fill="#c2b48f"/><polygon points="407.3,269.0 382.3,279.9 335.3,241.5 351.0,227.8 405.1,228.7" fill="#cdbf9e"/><polygon points="200.8,534.0 190.8,530.1 179.1,524.2 192.1,475.2 220.9,458.0 247.1,464.4 256.0,479.1 253.1,502.0" fill="#c2b48f"/><polygon points="225.1,344.9 235.6,332.2 264.7,334.9 271.4,340.3 285.9,374.1 258.4,399.4 234.4,393.0" fill="#b3a684"/><polygon points="467.8,199.7 465.8,209.4 466.1,227.8 473.1,241.3 424.3,275.2 425.8,280.0 407.3,269.0 405.1,228.7 405.3,228.3" fill="#c2b48f"/></g><g fill="#7d6c52" stroke="#4a3e2e" stroke-width="0.5" stroke-linejoin="round"><polygon points="320.2,96.8 315.4,83.9 326.7,79.7 331.5,92.6"/><polygon points="337.6,108.4 325.6,112.3 321.9,102.3 333.7,98.0"/><polygon points="346.6,106.2 342.4,107.6 337.2,93.4 341.3,91.8"/><polygon points="361.7,100.4 351.0,103.8 346.3,91.0 356.8,87.1"/><polygon points="336.1,88.8 331.9,77.4 341.4,73.9 345.6,85.3"/><polygon points="345.7,71.8 351.2,69.7 355.8,82.1 350.2,84.1"/><polygon points="370.7,84.0 365.1,96.1 361.8,87.3"/><polygon points="356.4,69.4 358.3,69.6 374.5,73.2 372.0,78.7 361.2,82.6"/><polygon points="339.3,65.5 349.3,66.8 340.9,69.9"/><polygon points="317.9,65.8 335.6,66.5 336.8,70.0 321.6,75.6"/><polygon points="307.6,65.4 312.7,65.2 317.4,77.7 312.8,79.4"/><polygon points="308.5,476.6 294.4,476.6 294.4,468.0 308.9,468.0 310.5,472.2"/><polygon points="294.2,462.9 294.2,454.1 303.9,454.2 307.3,463.0"/><polygon points="294.1,449.5 294.1,433.8 296.5,434.2 302.3,449.5"/><polygon points="266.8,439.8 272.3,431.4 288.9,433.8 288.9,439.9"/><polygon points="275.3,445.5 289.2,445.5 289.1,454.7 275.3,454.6"/><polygon points="256.3,454.8 262.6,445.2 270.2,445.2 270.2,454.8"/><polygon points="259.7,476.6 257.4,476.6 250.1,464.5 253.2,459.8 259.8,459.8"/><polygon points="274.9,463.4 274.9,459.3 289.8,459.3 289.8,463.4"/><polygon points="289.1,476.7 275.5,476.6 275.5,467.9 289.2,468.0"/><polygon points="270.5,476.7 264.7,476.7 264.8,459.7 270.5,459.7"/><polygon points="433.3,195.7 420.8,168.4 420.9,168.3 442.1,180.5"/><polygon points="464.7,194.0 464.1,196.8 439.4,208.1 437.6,204.1 448.7,184.8"/><polygon points="394.4,190.5 392.4,185.4 392.7,184.2 414.4,171.8 418.0,179.7"/><polygon points="402.4,209.2 397.9,197.4 420.6,187.0 425.8,198.5"/><polygon points="432.7,211.9 407.3,223.5 404.7,216.7 429.6,205.3"/><polygon points="373.0,146.6 377.3,160.8 364.4,164.7 368.2,147.2"/><polygon points="379.5,165.5 382.0,173.9 364.4,170.0"/><polygon points="337.2,157.0 336.5,150.6 350.7,148.8 351.5,155.2"/><polygon points="353.2,167.6 337.9,164.3 337.6,161.5 352.2,159.7"/><polygon points="358.2,168.5 357.9,168.4 355.3,148.3 362.8,147.3"/><polygon points="467.2,177.1 466.7,183.6 466.4,185.4 434.6,167.0 438.4,160.5"/><polygon points="458.6,125.4 466.7,131.6 468.4,157.4 467.8,167.8 442.6,153.2"/><polygon points="447.3,119.9 451.8,120.5 427.3,162.8 424.9,161.4 421.8,134.4"/><polygon points="208.6,211.7 205.1,221.0 206.3,209.8"/><polygon points="188.6,239.1 191.8,239.0 197.2,241.1 195.0,246.9 186.8,243.9"/><polygon points="193.4,250.3 190.3,258.6 182.6,255.7 185.8,247.4"/><polygon points="167.0,239.8 180.7,239.6 184.2,239.7 181.6,246.7 166.6,241.0"/><polygon points="180.2,250.7 178.9,254.3 163.6,248.5 165.0,244.9"/><polygon points="163.1,262.5 158.6,260.8 161.9,251.9 166.5,253.6"/><polygon points="171.1,265.5 166.3,263.7 169.6,254.8 174.4,256.6"/><polygon points="189.2,262.2 185.9,271.0 180.9,269.2 184.2,260.3"/><polygon points="177.8,268.2 174.0,266.8 177.5,257.6 181.3,259.0"/><polygon points="157.3,238.1 164.4,238.2 163.6,240.5"/><polygon points="151.1,239.3 152.1,239.3 161.3,242.8 158.7,249.8 148.6,245.9"/><polygon points="141.1,238.5 147.6,238.6 145.0,245.3 140.4,243.6"/><polygon points="146.4,256.1 139.4,253.5 140.2,246.9 148.7,250.1"/><polygon points="157.9,253.4 155.5,259.8 149.4,257.5 151.8,251.1"/><polygon points="147.3,263.7 150.7,261.1 158.3,264.0 157.1,267.4"/><polygon points="151.6,280.0 142.5,268.3 144.7,266.6 155.1,270.5"/><polygon points="139.8,265.7 137.9,263.2 138.8,256.8 147.2,260.0"/><polygon points="164.4,276.3 160.5,266.7 161.1,265.2 167.6,267.6"/><polygon points="182.5,273.9 166.9,280.1 170.9,269.5"/><polygon points="163.0,282.0 155.1,285.1 154.3,284.1 158.9,271.8"/><polygon points="139.5,347.1 144.8,339.5 156.6,347.7 151.3,355.3"/><polygon points="126.9,364.3 129.9,360.0 142.5,368.8 139.6,373.1"/><polygon points="132.6,356.4 136.3,351.1 148.7,359.7 145.0,365.0"/><polygon points="134.4,381.1 123.9,368.0 124.3,367.5 137.5,376.6"/><polygon points="165.4,382.6 150.1,385.4 147.4,370.7 147.7,370.3"/><polygon points="145.6,387.2 140.2,388.2 136.9,384.2 143.3,375.0"/><polygon points="176.2,381.5 173.0,382.1 170.4,380.3 180.0,366.5"/><polygon points="167.1,377.2 162.3,373.9 172.8,358.7 177.6,362.1"/><polygon points="158.0,370.4 151.0,365.6 161.1,351.1 168.1,355.9"/><polygon points="178.1,344.1 184.1,349.5 181.6,358.9 172.3,352.5"/><polygon points="169.1,335.8 174.8,341.0 168.6,350.0 162.3,345.6"/><polygon points="148.1,334.9 155.4,324.4 164.8,332.9 158.5,342.1"/><polygon points="387.6,188.8 394.3,205.9 387.1,208.7 387.5,188.8"/><polygon points="395.5,210.9 401.3,225.8 387.5,225.5 387.7,213.9"/><polygon points="362.6,200.3 382.6,191.4 382.4,200.6"/><polygon points="382.2,225.9 363.5,225.6 363.5,220.8 382.3,221.1"/><polygon points="364.3,215.4 364.5,206.0 381.9,206.3 381.7,215.7"/><polygon points="358.7,225.6 353.6,225.5 356.6,205.1 359.1,205.2"/><polygon points="268.4,169.7 269.8,149.1 273.0,148.0 279.0,166.2"/><polygon points="285.1,185.2 267.6,183.0 268.1,176.0 280.8,171.8"/><polygon points="282.9,159.8 278.4,146.1 287.4,143.1 291.9,156.8"/><polygon points="287.9,175.8 284.3,164.9 293.8,161.8 297.4,172.7"/><polygon points="302.7,188.2 291.2,186.7 289.2,180.5 299.1,177.2"/><polygon points="312.5,189.7 307.5,189.1 303.3,176.1 307.5,174.8"/><polygon points="326.3,179.5 316.6,186.9 312.3,173.9 323.3,170.3"/><polygon points="302.1,172.1 297.8,159.0 303.1,157.2 307.4,170.4"/><polygon points="307.9,156.3 317.7,153.0 321.7,165.1 311.8,168.4"/><polygon points="330.6,149.1 331.1,149.7 332.9,165.9 330.7,174.5 323.1,151.5"/><polygon points="318.4,133.2 326.8,144.1 313.4,148.5 309.3,136.2"/><polygon points="307.8,150.4 296.9,154.0 292.8,141.5 303.7,137.9"/><polygon points="337.8,169.2 347.7,171.4 344.4,186.3 335.7,177.3"/><polygon points="373.5,176.5 384.0,178.8 387.2,182.6 386.9,184.2 378.6,187.9"/><polygon points="358.7,173.9 367.7,175.9 373.7,189.4 366.9,192.4"/><polygon points="352.7,174.6 361.6,194.6 355.5,197.3 349.2,190.8"/><polygon points="188.1,482.3 187.3,485.5 170.1,481.0 171.0,477.8"/><polygon points="175.4,463.1 189.2,476.0 188.8,477.7 172.7,473.5"/><polygon points="170.2,463.9 166.1,479.7 161.3,478.4 165.5,462.6"/><polygon points="149.5,474.6 139.8,472.1 143.7,457.5 153.3,460.1"/><polygon points="157.2,477.6 154.0,476.8 158.3,460.4 161.5,461.3"/><polygon points="147.6,443.3 154.5,444.4 169.2,458.0 145.4,451.8"/><polygon points="127.3,446.3 135.3,441.3 141.6,442.2 137.8,456.7 125.5,453.4"/><polygon points="114.6,452.3 122.7,447.2 120.9,454.0"/><polygon points="116.8,466.7 110.4,458.3 109.4,456.7 111.8,455.2 121.9,457.8 119.4,467.4"/><polygon points="126.3,459.2 137.0,462.0 134.6,471.2 123.9,468.4"/><polygon points="139.1,491.2 138.9,491.1 124.2,475.1 123.2,473.8 142.3,478.8"/><polygon points="144.4,494.2 148.1,480.3 158.7,483.1 155.0,497.0"/><polygon points="154.0,506.9 153.9,506.9 145.3,499.1 155.4,501.7"/><polygon points="171.4,486.1 185.5,489.8 183.4,497.8 169.3,494.1"/><polygon points="182.7,502.5 181.5,506.9 166.5,502.9 167.6,498.6"/><polygon points="159.2,501.0 163.8,483.5 167.0,484.4 162.4,501.8"/><polygon points="177.3,520.1 172.7,517.8 158.1,508.0 158.7,505.9 179.6,511.4"/><polygon points="285.0,295.0 281.7,288.3 289.7,284.3 292.6,292.2"/><polygon points="280.0,284.6 276.4,277.3 285.3,272.9 288.2,280.6"/><polygon points="274.3,274.5 273.0,271.9 284.2,267.8 284.8,269.4"/><polygon points="287.4,267.1 291.3,265.7 296.1,278.6 292.2,280.0"/><polygon points="295.2,264.5 301.2,262.3 305.7,274.6 299.8,276.8"/><polygon points="304.5,287.8 296.3,290.8 293.6,283.6 301.8,280.5"/><polygon points="307.7,277.7 310.9,286.1 307.7,287.2 304.6,278.8"/><polygon points="316.3,303.0 315.5,303.7 306.3,301.5 309.0,290.5 311.3,289.6"/><polygon points="302.2,300.7 289.5,297.6 304.3,292.1"/><polygon points="325.4,294.0 325.7,295.3 319.3,301.3 317.6,296.9"/><polygon points="322.2,275.9 323.0,281.3 312.9,282.9 311.7,279.7"/><polygon points="323.4,284.8 324.4,291.1 317.1,293.8 314.3,286.2"/><polygon points="314.3,268.4 308.1,269.4 304.8,260.6 310.6,258.5"/><polygon points="318.9,255.3 320.8,267.6 317.9,268.0 313.9,257.1"/><polygon points="321.5,270.8 321.7,272.6 310.5,276.7 309.0,272.7"/><polygon points="225.0,539.4 211.8,535.6 206.4,533.5 217.3,526.8"/><polygon points="221.2,524.1 225.2,521.6 234.1,536.1 230.1,538.6"/><polygon points="240.3,544.4 232.0,542.7 230.7,542.4 236.8,538.6"/><polygon points="246.2,508.9 252.5,505.1 260.5,514.8 254.8,519.5"/><polygon points="238.0,513.7 242.2,511.1 251.5,522.5 247.7,525.6"/><polygon points="237.9,533.2 229.4,519.4 234.2,516.4 243.9,528.2"/><polygon points="252.7,545.5 244.6,543.9 240.7,537.5 248.5,531.2 257.2,541.9"/><polygon points="253.2,527.9 263.4,519.5 271.6,529.5 261.4,537.9"/><polygon points="278.3,548.2 273.7,547.9 260.6,546.3 275.6,534.0 278.1,537.2"/><polygon points="379.1,336.7 374.7,335.9 371.7,318.0 375.8,317.3"/><polygon points="384.8,324.9 388.6,329.3 387.5,337.9 384.2,337.3 382.2,325.3"/><polygon points="390.6,317.5 390.5,319.4 380.6,321.1 380.6,320.8"/><polygon points="395.5,313.3 395.3,312.4 401.4,311.4"/><polygon points="396.0,308.5 388.6,309.7 385.3,289.8 392.6,288.5"/><polygon points="416.2,304.1 410.6,305.9 401.9,307.4 400.0,295.8 414.3,293.3"/><polygon points="398.2,290.8 397.5,286.8 413.7,284.0 414.4,288.1"/><polygon points="424.1,282.6 425.0,285.5 426.9,294.2 421.3,301.5 418.3,283.6"/><polygon points="411.1,273.0 421.2,279.1 412.3,280.6"/><polygon points="383.9,282.6 384.1,282.2 406.6,272.4 407.9,280.0 384.1,284.1"/><polygon points="371.6,312.4 370.2,304.0 379.1,290.4 382.6,310.6"/><polygon points="74.0,381.0 73.5,379.7 71.1,367.7 77.9,368.0 77.3,381.2"/><polygon points="82.9,369.2 97.6,369.9 97.1,381.1 82.4,380.4"/><polygon points="76.9,389.2 75.7,385.5 97.5,386.5 97.3,390.2"/><polygon points="82.9,407.8 79.9,400.6 77.7,393.4 83.6,393.7"/><polygon points="88.1,394.9 96.6,395.3 95.9,411.2 87.4,410.8"/><polygon points="95.2,432.9 88.8,420.5 86.9,416.0 96.0,416.4"/><polygon points="104.7,449.3 99.5,441.1 100.0,431.5 105.6,431.7"/><polygon points="122.8,432.1 133.4,432.6 133.0,437.1 128.0,440.3"/><polygon points="110.7,432.7 117.9,433.0 123.4,441.8 109.9,450.3"/><polygon points="100.7,426.4 101.2,416.2 114.9,416.9 114.4,427.1"/><polygon points="101.4,410.7 101.9,400.8 115.6,401.5 115.2,411.4"/><polygon points="121.1,401.7 135.5,402.4 134.5,411.8 120.7,410.4"/><polygon points="134.9,416.4 134.6,419.7 119.4,418.2 119.6,414.9"/><polygon points="133.9,423.6 133.4,428.7 119.3,428.0 119.5,422.2"/><polygon points="129.3,382.6 136.2,391.2 135.6,396.6 120.8,395.9 121.5,382.3"/><polygon points="120.5,369.5 120.9,369.5 127.7,378.0 120.1,377.6"/><polygon points="102.2,395.3 102.7,384.6 115.5,385.2 115.0,395.9"/><polygon points="102.8,379.2 103.3,369.8 116.3,370.4 115.9,379.9"/><polygon points="321.7,399.8 324.8,402.9 324.2,405.8 315.9,413.3 311.8,408.8"/><polygon points="302.9,381.9 311.6,390.6 303.5,398.6 294.9,389.1"/><polygon points="315.5,393.3 319.0,396.8 308.9,405.9 306.1,402.7"/><polygon points="284.3,378.4 286.6,376.3 299.6,378.3 291.1,385.9"/><polygon points="265.5,396.2 270.6,391.5 280.7,402.5 275.4,407.3"/><polygon points="274.6,388.2 281.2,382.1 291.0,392.9 284.4,398.8"/><polygon points="267.4,415.1 260.8,399.9 261.9,399.0 272.4,410.6"/><polygon points="272.9,425.4 270.2,419.3 286.1,404.9 290.4,409.6"/><polygon points="297.1,428.8 280.8,426.5 294.3,414.3 302.8,423.7"/><polygon points="290.6,400.9 294.6,397.4 311.4,416.1 307.5,419.6"/><polygon points="235.7,458.9 223.1,455.8 221.3,448.1 232.5,445.4"/><polygon points="249.7,455.3 245.8,461.2 241.7,460.2 237.9,444.3 246.6,442.2"/><polygon points="262.3,437.6 253.6,450.7 251.1,440.3"/><polygon points="258.1,433.7 249.7,435.7 246.2,420.9 254.5,418.9"/><polygon points="244.6,437.1 237.4,438.8 233.8,423.7 241.0,422.0"/><polygon points="268.4,428.0 265.4,432.5 263.0,433.1 259.2,417.3 263.3,416.3"/><polygon points="249.4,399.5 256.6,401.4 261.2,412.0 252.9,414.0"/><polygon points="232.9,418.1 230.3,407.1 244.8,403.6 247.4,414.6"/><polygon points="228.1,402.4 227.5,400.1 234.8,395.1 244.5,397.7 244.7,398.4"/><polygon points="215.2,421.6 212.7,411.3 223.4,404.1 226.9,418.8"/><polygon points="231.7,439.6 220.4,442.3 216.8,427.5 228.1,424.8"/><polygon points="80.1,317.5 88.2,315.5 91.2,327.2 83.1,329.3"/><polygon points="68.8,333.0 69.4,320.3 75.4,318.7 78.5,330.5"/><polygon points="80.6,335.3 92.1,332.4 95.1,344.0 83.6,347.0"/><polygon points="97.0,348.6 98.5,354.5 85.7,357.8 84.2,351.9"/><polygon points="68.0,342.3 67.8,337.4 76.0,335.2 77.2,339.9"/><polygon points="70.5,361.1 69.9,358.4 69.4,346.4 77.1,344.4 80.8,358.4"/><polygon points="80.6,363.8 99.4,358.9 100.9,364.7"/><polygon points="120.1,365.2 106.2,364.5 104.1,356.5 117.0,353.1"/><polygon points="124.7,349.9 126.7,357.9 123.8,362.1 120.9,350.9"/><polygon points="92.6,314.2 105.6,310.8 107.2,317.3 94.3,320.6"/><polygon points="108.4,321.6 110.0,327.9 97.0,331.2 95.4,325.0"/><polygon points="109.8,309.6 113.5,308.7 117.9,325.9 114.2,326.9"/><polygon points="118.8,330.4 119.7,334.1 99.3,339.4 98.3,335.6"/><polygon points="120.6,339.3 122.3,345.9 102.8,350.9 101.1,344.3"/><polygon points="142.4,333.1 129.7,351.4 126.0,337.3"/><polygon points="118.8,308.3 135.7,303.9 138.1,313.3 121.2,317.6"/><polygon points="139.8,319.1 141.9,327.2 124.6,331.6 122.5,323.5"/><polygon points="141.5,302.3 148.7,300.4 151.8,319.4 147.5,325.5"/><polygon points="117.8,262.8 133.8,267.3 149.8,288.1 147.9,293.2 127.1,298.6"/><polygon points="112.5,275.7 118.9,300.7 96.6,306.5 90.1,281.5"/><polygon points="83.8,256.9 84.8,253.6 84.8,253.5 108.5,260.2 110.4,267.6 88.0,273.3"/><polygon points="71.9,312.9 74.4,294.3 78.9,273.7 79.2,272.6 88.4,308.6"/><polygon points="281.7,481.6 287.8,481.6 287.7,497.6 281.7,497.6"/><polygon points="271.0,481.6 276.9,481.6 276.9,497.6 270.9,497.6"/><polygon points="256.4,497.2 258.4,481.9 265.9,481.9 265.8,497.2"/><polygon points="281.2,532.2 275.1,524.7 287.5,514.5 287.5,525.6"/><polygon points="269.3,517.8 256.7,502.4 269.4,502.5"/><polygon points="274.7,502.7 287.4,502.8 287.3,507.7 274.6,518.1"/><polygon points="308.2,503.6 293.0,519.5 293.0,503.5"/><polygon points="302.9,482.0 308.3,482.0 313.1,498.0 302.9,498.0"/><polygon points="292.6,481.6 297.9,481.6 297.8,498.3 292.5,498.3"/><polygon points="124.2,237.8 137.1,238.8 136.0,247.1 122.1,245.3"/><polygon points="135.2,252.1 134.1,260.4 119.0,256.2 120.7,250.1"/><polygon points="112.6,236.9 119.0,237.4 114.1,254.7 108.1,253.0"/><polygon points="102.4,235.8 107.8,236.3 103.4,252.0 98.2,250.6"/><polygon points="85.4,246.8 89.7,235.0 97.5,235.6 93.7,249.1"/><polygon points="416.8,154.5 403.1,130.7 406.4,130.4 414.5,134.2"/><polygon points="383.9,136.2 386.4,132.4 396.4,131.4 402.1,141.3 390.6,147.9"/><polygon points="380.7,154.8 377.3,143.7 380.0,139.8 386.7,151.4"/><polygon points="415.9,164.0 404.0,170.9 400.0,163.9 411.9,157.0"/><polygon points="397.5,159.6 393.5,152.7 405.4,145.8 409.4,152.7"/><polygon points="398.8,173.1 390.3,178.0 388.0,175.3 383.2,159.3 389.0,156.0"/><polygon points="304.9,548.4 294.3,548.6 284.5,548.1 284.4,537.4 288.7,532.9"/><polygon points="313.1,545.9 294.5,528.1 308.0,514.1 326.5,531.8"/><polygon points="338.3,541.0 334.0,547.4 320.0,548.5 332.5,535.5"/><polygon points="347.8,523.2 347.8,523.7 341.0,534.1 313.8,508.0 317.0,504.6"/><polygon points="177.7,389.6 192.6,407.0 169.7,425.2 155.5,407.2"/><polygon points="142.7,392.8 167.7,388.2 150.1,402.1"/><polygon points="154.7,437.0 139.2,434.6 142.2,404.0 163.1,430.4"/><polygon points="187.7,278.6 210.3,290.0 208.1,294.5 185.4,283.1"/><polygon points="176.3,311.1 172.1,309.1 182.7,288.1 186.8,290.1"/><polygon points="198.9,313.2 195.2,320.6 181.1,313.6 184.9,306.1"/><polygon points="205.5,299.7 201.3,308.1 187.5,301.2 191.8,292.8"/><polygon points="162.0,287.2 180.9,279.7 174.1,293.2"/><polygon points="156.4,290.6 171.4,298.1 167.2,306.4 154.6,300.1 154.1,297.0"/><polygon points="160.5,322.0 157.1,318.9 155.0,306.1 165.8,311.5"/><polygon points="192.3,325.7 184.0,342.3 175.4,334.6 186.2,322.6"/><polygon points="171.0,330.8 164.7,325.1 170.1,314.3 181.0,319.7"/><polygon points="224.2,342.8 224.1,342.9 210.2,344.3 209.3,335.3"/><polygon points="205.1,343.9 189.1,345.5 196.8,330.1 204.1,333.7"/><polygon points="215.6,333.0 199.3,324.8 202.7,318.2 219.0,326.4"/><polygon points="232.7,332.4 226.8,339.5 219.7,335.9 223.7,327.9"/><polygon points="227.0,308.2 231.7,326.8 220.5,321.2"/><polygon points="219.6,312.1 216.1,319.1 204.6,313.3 208.1,306.3"/><polygon points="215.5,292.2 223.9,296.5 225.0,300.8 221.6,307.5 210.6,302.0"/><polygon points="392.8,378.8 393.1,380.5 383.7,380.5 378.7,379.8 381.5,377.6"/><polygon points="389.5,360.6 391.2,370.0 389.7,372.3 378.5,371.2 379.6,359.6"/><polygon points="387.5,343.4 391.0,351.9 389.8,354.8 379.9,353.8 381.1,342.3"/><polygon points="365.5,347.6 373.3,339.9 376.6,340.5 375.8,348.6"/><polygon points="372.3,370.5 362.2,369.5 363.9,352.4 374.0,353.4"/><polygon points="338.4,113.8 352.7,109.2 355.3,117.1 341.0,121.7"/><polygon points="325.8,117.6 333.5,115.1 336.2,123.5 322.6,128.0"/><polygon points="341.5,144.8 335.2,145.6 325.3,132.6 336.4,129.0"/><polygon points="357.0,122.0 359.1,128.6 343.6,133.6 341.5,127.1"/><polygon points="360.7,133.6 363.4,142.2 347.2,144.3 345.3,138.6"/><polygon points="381.1,130.8 373.8,141.3 368.5,142.0 366.4,135.6"/><polygon points="372.5,118.1 379.0,126.4 365.3,130.8 362.3,121.4"/><polygon points="357.2,107.2 363.2,105.3 369.9,113.9 360.3,117.0"/><polygon points="334.3,270.7 350.4,268.2 352.4,280.9 350.1,283.7"/><polygon points="355.0,266.4 361.5,265.4 364.5,267.8 356.7,277.3"/><polygon points="328.0,287.8 325.4,271.4 326.8,271.2 335.6,278.5"/><polygon points="329.6,293.5 339.1,281.9 346.8,288.2 340.7,295.6"/><polygon points="339.5,248.4 355.7,261.7 342.0,263.8"/><polygon points="323.3,251.1 326.6,245.4 327.9,244.5 334.2,243.5 335.1,249.3"/><polygon points="325.1,266.5 323.4,255.7 334.9,253.8 336.6,264.7"/><polygon points="362.8,300.4 345.7,297.1 351.0,290.6"/><polygon points="367.5,270.9 379.1,280.4 376.0,285.0 363.0,276.4"/><polygon points="372.7,289.2 367.2,297.5 354.7,287.2 360.0,280.8"/><polygon points="345.9,228.1 333.9,238.6 329.4,239.3 326.7,228.6 344.8,224.0"/><polygon points="324.9,223.1 323.5,217.3 342.3,212.5 343.8,218.3"/><polygon points="351.9,209.2 349.7,223.9 346.4,210.5"/><polygon points="352.0,201.7 351.6,204.7 343.4,206.7 338.6,188.0"/><polygon points="319.3,199.4 317.7,193.2 331.5,182.8 334.7,195.5"/><polygon points="338.2,208.1 322.1,212.1 320.3,205.0 336.4,200.9"/><polygon points="399.6,82.7 400.3,89.4 389.0,90.7 388.2,84.1"/><polygon points="386.6,75.2 399.1,79.1 387.2,80.6"/><polygon points="384.2,86.5 384.7,91.1 371.0,92.7 375.7,82.6"/><polygon points="379.4,73.0 379.8,73.1 383.4,74.2 384.3,82.4 376.7,78.9"/><polygon points="366.2,102.2 368.6,97.1 378.6,95.9 379.1,100.7"/><polygon points="371.0,109.1 368.1,105.5 379.7,104.1 380.2,108.0"/><polygon points="381.3,114.9 375.5,115.5 372.7,111.9 380.9,110.9"/><polygon points="401.0,93.3 401.6,98.4 389.4,99.8 388.8,94.8"/><polygon points="402.6,101.5 403.9,112.2 401.9,112.5 400.6,101.7"/><polygon points="398.6,112.1 391.0,113.0 389.9,103.7 397.5,102.8"/><polygon points="387.1,113.5 384.5,113.8 382.3,95.6 385.0,95.3"/><polygon points="387.9,127.3 385.5,127.5 378.3,118.3 386.8,117.3"/><polygon points="403.7,115.3 404.9,125.7 399.4,126.2 398.4,115.9"/><polygon points="395.9,126.7 391.4,127.1 390.2,116.8 394.9,116.2"/><polygon points="257.9,239.2 257.1,236.6 277.3,230.9 269.6,245.5"/><polygon points="262.8,260.1 258.6,245.2 268.1,250.3"/><polygon points="255.5,230.9 251.4,216.5 261.5,213.6 266.8,216.5 259.8,229.7"/><polygon points="248.7,212.7 247.9,209.8 251.8,206.7 258.1,210.1"/><polygon points="271.7,218.2 282.0,223.7 281.7,224.3 266.1,228.7"/><polygon points="279.5,239.4 279.1,238.2 285.8,225.6 289.9,227.7 282.7,241.1"/><polygon points="293.9,230.9 304.5,236.6 298.3,248.4 287.6,242.7"/><polygon points="292.3,260.6 288.4,262.1 282.5,246.2 296.2,253.4"/><polygon points="320.9,245.4 318.1,250.4 300.7,256.8 309.9,239.6"/><polygon points="279.6,265.8 271.1,268.9 264.6,266.3 264.5,265.7 267.8,259.5"/><polygon points="283.2,262.5 270.3,255.6 276.4,244.2"/><polygon points="227.2,367.1 228.5,374.2 216.7,376.5 215.3,369.4"/><polygon points="212.2,349.1 222.7,348.1 225.5,362.1 215.1,364.2"/><polygon points="200.7,369.9 211.6,372.7 212.5,377.5 202.5,379.4"/><polygon points="181.1,382.4 185.1,366.9 195.4,369.5 197.3,379.4 181.2,382.5"/><polygon points="207.1,349.9 210.6,368.1 202.9,366.1"/><polygon points="186.4,361.1 188.9,351.4 201.8,350.1 198.2,364.1"/><polygon points="208.7,407.2 200.0,405.3 195.3,399.7 205.6,391.0"/><polygon points="191.9,395.8 184.8,387.5 204.2,383.8 204.5,385.1"/><polygon points="230.7,389.0 231.2,391.6 213.6,403.6 211.5,392.8"/><polygon points="229.1,378.9 230.1,383.6 210.1,387.5 209.2,382.8"/><polygon points="311.4,218.3 316.8,208.1 318.9,216.4"/><polygon points="323.2,239.6 306.5,230.8 310.5,223.2 318.5,221.2"/><polygon points="301.4,228.6 289.5,222.3 293.4,215.0 305.3,221.3"/><polygon points="285.3,220.6 278.3,216.9 282.7,208.7 289.7,212.4"/><polygon points="313.4,197.8 314.9,203.7 307.7,217.2 304.2,215.3"/><polygon points="298.6,191.5 311.6,193.2 309.4,197.3"/><polygon points="284.9,205.0 291.7,192.2 296.9,194.9 290.1,207.8"/><polygon points="300.9,197.2 306.9,200.4 300.1,213.0 294.2,209.9"/><polygon points="268.0,188.3 287.4,190.8 284.2,196.9"/><polygon points="274.7,214.9 270.7,212.7 278.2,198.6 282.2,200.7"/><polygon points="266.5,209.6 256.0,204.0 263.9,191.9 273.3,196.9"/><polygon points="317.4,418.0 325.7,410.5 331.3,418.6 322.1,424.9"/><polygon points="333.9,422.8 340.2,432.1 331.4,438.1 325.0,428.8"/><polygon points="303.4,438.4 301.3,432.9 313.8,421.6 318.3,428.2"/><polygon points="311.6,439.1 321.3,432.5 327.1,441.0 317.4,447.6"/><polygon points="308.6,454.5 304.4,443.2 307.5,441.1 314.1,450.8"/><polygon points="335.2,458.7 322.3,464.8 317.4,454.4 327.6,447.5"/><polygon points="318.4,467.9 314.4,469.8 309.9,458.1 312.9,456.1"/><polygon points="349.2,446.2 349.4,452.0 340.8,456.0 332.7,444.1 343.0,437.1"/><polygon points="318.8,354.1 321.7,349.9 328.9,354.9 326.0,359.1"/><polygon points="311.7,365.0 317.1,357.3 323.6,361.9 318.3,369.5"/><polygon points="331.6,356.8 335.9,359.8 330.9,367.0 326.6,364.0"/><polygon points="338.6,361.6 342.9,364.7 338.0,371.8 333.6,368.8"/><polygon points="335.5,374.6 332.3,379.2 321.7,371.9 324.9,367.2"/><polygon points="316.4,380.6 320.8,376.2 330.0,382.6 326.5,387.7"/><polygon points="322.0,394.7 312.0,384.6 313.4,383.2 324.6,390.9"/><polygon points="309.5,381.5 304.2,376.2 309.5,368.5 317.2,373.9"/><polygon points="346.4,389.4 341.0,392.4 335.0,381.8 335.1,381.6"/><polygon points="337.5,393.8 327.4,399.5 325.0,397.1 332.9,385.7"/><polygon points="351.4,386.6 349.5,387.7 336.9,379.0 338.1,377.3"/><polygon points="353.4,374.2 352.5,379.9 350.1,379.0"/><polygon points="346.1,378.6 340.3,374.6 345.7,366.9 351.4,370.9"/><polygon points="358.6,357.6 357.3,370.6 352.1,367.0"/><polygon points="347.4,348.5 359.1,350.7 359.1,350.8 354.8,357.0 345.8,350.7"/><polygon points="352.6,360.0 349.3,364.8 340.4,358.6 343.8,353.8"/><polygon points="322.9,347.4 325.5,343.6 328.9,344.3 327.6,350.6"/><polygon points="331.9,345.8 343.1,347.9 337.3,356.2 330.7,351.7"/><polygon points="320.3,307.9 328.3,300.2 341.7,302.8 334.7,339.9 327.5,338.5 319.7,326.9"/><polygon points="366.5,326.5 368.2,336.5 359.7,344.7 342.9,341.5 346.5,322.7"/><polygon points="349.3,303.4 363.9,306.2 366.0,318.7 347.1,315.1"/><polygon points="221.3,116.6 222.3,114.4 225.9,112.5"/><polygon points="232.7,113.2 240.1,121.6 228.8,131.8 221.3,123.4"/><polygon points="244.3,124.8 246.9,127.6 234.0,139.1 231.5,136.3"/><polygon points="249.6,131.9 255.9,138.9 244.3,149.4 238.0,142.3"/><polygon points="205.8,134.1 205.7,123.2 211.4,120.2 215.8,125.1"/><polygon points="207.7,139.1 218.6,129.3 225.3,136.9 214.4,146.6"/><polygon points="205.5,156.2 206.0,144.0 211.9,150.5"/><polygon points="217.9,150.6 229.2,140.5 233.5,145.3 222.2,155.5"/><polygon points="236.7,148.8 240.8,153.3 229.3,163.5 225.3,159.0"/><polygon points="206.7,163.9 206.8,161.6 214.2,154.9 224.7,166.6 216.0,174.3"/><polygon points="205.3,185.5 204.9,181.3 205.3,170.1 212.9,178.6"/><polygon points="208.5,205.9 208.5,205.3 210.3,187.9 214.1,184.5 222.3,193.6 208.6,205.9"/><polygon points="226.6,196.9 229.4,200.0 219.7,208.6 213.0,209.0"/><polygon points="232.3,202.4 237.4,208.2 225.1,208.9"/><polygon points="247.6,205.5 245.5,207.2 241.8,207.4 233.3,197.9 237.5,194.2"/><polygon points="254.6,180.2 260.1,186.4 250.6,200.9 242.1,191.4"/><polygon points="235.7,177.3 241.6,183.9 230.4,193.9 224.5,187.3"/><polygon points="217.5,180.2 229.4,169.6 232.7,173.3 220.8,184.0"/><polygon points="233.5,166.7 238.7,162.0 250.9,175.5 245.7,180.2"/><polygon points="241.9,158.2 248.5,152.3 257.0,161.8 244.4,161.0"/><polygon points="252.3,149.6 259.8,142.9 264.3,147.9 263.4,161.7 263.2,161.7"/><polygon points="263.2,166.9 262.3,180.3 249.4,166.0"/><polygon points="253.0,243.5 256.2,254.6 243.7,258.1 240.5,247.1"/><polygon points="238.7,260.0 230.2,262.4 226.8,250.5 235.3,248.1"/><polygon points="248.0,223.6 249.6,229.3 234.9,233.4 233.3,227.8"/><polygon points="250.9,233.6 252.3,238.5 237.4,242.7 236.0,237.8"/><polygon points="232.7,243.6 225.5,245.7 221.4,231.4 228.7,229.3"/><polygon points="216.1,213.3 224.6,212.8 225.3,225.2 219.9,226.8"/><polygon points="229.7,213.0 244.3,212.2 246.1,218.8 230.2,223.4"/><polygon points="206.1,232.1 206.1,228.9 211.6,214.4 215.8,229.4"/><polygon points="211.1,235.5 217.1,233.8 221.0,247.4 215.0,249.1"/><polygon points="197.2,253.4 201.3,242.3 201.5,252.6 197.3,253.8"/><polygon points="209.9,268.2 201.8,270.5 198.5,258.7 206.6,256.4"/><polygon points="222.0,252.3 225.2,263.6 214.8,266.6 211.5,255.2"/><polygon points="188.9,273.7 194.2,259.7 197.7,272.1 190.1,274.3"/><polygon points="226.7,292.2 226.1,292.7 218.8,289.0 223.3,280.1"/><polygon points="215.2,286.0 203.9,280.3 206.8,274.6 219.5,271.0 220.7,275.1"/><polygon points="199.6,279.9 193.3,276.7 202.5,274.1"/><polygon points="257.8,260.0 259.7,266.7 249.2,274.4 242.0,264.5"/><polygon points="244.8,277.7 230.2,288.3 227.2,277.8 241.8,273.6"/><polygon points="225.2,273.4 224.0,268.8 236.6,265.3 239.5,269.3"/><polygon points="350.0,425.5 350.4,439.3 343.8,429.7"/><polygon points="333.6,414.0 328.4,406.4 329.0,403.6 334.1,400.6 339.7,410.6"/><polygon points="347.0,423.0 341.9,426.5 335.8,417.5 341.9,414.1"/><polygon points="349.6,407.1 349.8,415.2 349.7,420.4 344.0,410.3"/><polygon points="348.4,403.6 342.4,407.0 337.6,398.5 343.6,395.1"/><polygon points="350.7,395.9 350.6,401.1 345.9,392.8 348.2,391.5"/><polygon points="349.5,390.2 351.3,389.2 351.3,393.3"/><polygon points="280.8,106.3 289.8,98.2 295.0,104.0 285.9,112.1"/><polygon points="298.0,107.5 303.6,113.8 294.7,121.8 289.1,115.5"/><polygon points="282.5,132.1 275.8,111.6 277.3,110.2 290.5,124.9"/><polygon points="316.3,128.1 304.5,131.9 301.4,122.4 306.8,117.5"/><polygon points="300.0,133.7 284.1,138.9 283.8,137.8 297.4,125.6"/><polygon points="259.9,124.5 271.6,114.1 273.6,120.1"/><polygon points="270.1,143.3 267.8,144.0 255.7,130.6 265.0,127.5"/><polygon points="279.7,140.3 274.8,141.9 269.5,125.9 274.5,124.2"/><polygon points="316.0,102.4 320.9,115.8 318.7,122.8 307.4,110.1"/><polygon points="307.5,103.3 303.6,106.8 293.2,95.2 297.1,91.7"/><polygon points="308.7,81.7 314.2,96.8 310.8,99.8 300.9,88.7"/><polygon points="295.6,87.4 290.9,91.6 283.9,83.8 288.6,79.6"/><polygon points="303.3,67.3 306.7,76.6 298.5,83.9 292.4,77.1"/><polygon points="272.6,69.6 293.3,66.9 295.6,66.8 281.4,79.5"/><polygon points="269.6,75.5 277.1,83.8 265.6,94.1 258.1,85.8"/><polygon points="281.3,88.0 286.8,94.1 274.8,104.9 269.3,98.7"/><polygon points="248.4,76.0 250.9,73.8 266.1,70.4 266.5,70.9 253.9,82.2"/><polygon points="233.4,91.2 234.4,89.0 244.8,79.7 250.3,85.8 238.3,96.6"/><polygon points="254.0,89.5 258.1,94.1 245.6,105.2 241.5,100.6"/><polygon points="228.6,100.8 230.8,95.7 242.3,108.5 238.6,111.8"/><polygon points="261.3,98.4 270.4,108.6 261.8,116.3 252.7,106.2"/><polygon points="257.9,120.3 251.6,125.9 242.1,115.2 248.3,109.6"/><polygon points="434.8,115.1 443.1,116.2 437.3,119.5"/><polygon points="415.0,112.0 420.5,111.3 421.7,121.6 416.2,122.3"/><polygon points="408.2,123.3 406.9,112.8 411.5,112.3 412.7,122.8"/><polygon points="422.6,127.3 417.2,130.3 409.1,126.5 422.3,125.0"/><polygon points="424.8,114.8 429.8,115.5 431.9,121.4 426.0,124.7"/><polygon points="424.2,100.3 426.6,106.7 414.1,108.2 413.3,101.6"/><polygon points="410.7,109.3 406.3,109.8 405.4,101.9 409.7,101.3"/><polygon points="423.0,94.7 423.8,96.8 411.4,98.3 411.2,96.1"/><polygon points="413.5,85.3 420.1,88.0 421.4,91.7 411.2,92.9 410.4,85.6"/><polygon points="408.4,98.4 405.2,98.8 403.7,86.2 406.9,85.9"/><polygon points="402.3,79.8 409.8,82.9 402.8,83.7"/><polygon points="278.1,350.3 274.4,341.8 284.6,339.0 287.0,347.9"/><polygon points="293.3,372.4 287.8,371.6 280.6,354.8 287.9,352.8"/><polygon points="314.2,331.4 321.5,342.3 318.6,346.6 301.7,334.9"/><polygon points="311.4,357.3 300.1,373.5 299.2,373.4 295.9,361.6"/><polygon points="295.0,356.1 294.6,356.2 289.6,338.2 294.5,336.9 303.9,343.3"/><polygon points="316.5,351.1 301.5,355.2 308.3,345.4"/><polygon points="349.4,459.0 349.3,470.4 325.5,470.2"/><polygon points="322.1,498.5 320.7,498.5 318.8,497.4 313.4,479.5 314.8,476.2 322.3,476.3"/><polygon points="348.2,477.8 348.1,497.5 329.2,497.3 329.4,477.6"/><polygon points="349.4,504.5 349.3,515.9 330.1,504.3"/><polygon points="192.5,471.3 179.8,459.5 185.9,453.0 200.5,466.5"/><polygon points="215.8,449.6 216.9,451.0 218.3,457.0 205.9,464.3 203.9,462.4"/><polygon points="189.7,448.4 195.8,441.8 206.8,452.0 200.6,458.6"/><polygon points="198.8,437.8 203.0,433.3 213.1,446.1 210.6,448.7"/><polygon points="175.3,456.5 169.2,450.7 177.0,442.4 182.3,449.0"/><polygon points="165.9,447.5 159.5,441.6 169.8,433.4 174.0,438.8"/><polygon points="186.7,419.6 190.2,416.8 200.6,429.8 199.2,431.3"/><polygon points="190.0,429.0 195.6,434.2 185.4,445.1 179.3,437.5"/><polygon points="173.0,430.5 183.5,422.1 187.1,425.4 175.9,434.2"/><polygon points="214.0,434.7 216.4,444.7 210.6,437.4"/><polygon points="194.9,414.5 199.4,411.0 206.8,412.6 211.3,431.3 209.4,432.8"/><polygon points="237.7,289.4 244.0,284.8 252.5,296.3 246.2,301.0"/><polygon points="247.2,281.7 250.2,279.5 259.3,292.1 256.4,294.2"/><polygon points="229.2,296.8 228.9,295.6 233.7,292.1 242.4,304.0 237.2,307.8"/><polygon points="249.5,316.3 245.1,319.5 239.1,311.4 243.6,308.2"/><polygon points="261.4,296.4 266.1,302.8 252.5,312.8 247.8,306.3"/><polygon points="236.1,325.5 231.8,308.0 241.6,321.5"/><polygon points="263.8,330.0 262.9,331.6 239.8,329.4 255.1,318.2"/><polygon points="273.6,312.9 267.1,324.8 259.5,314.4 269.4,307.1"/><polygon points="275.1,286.2 281.2,298.4 276.4,307.1 266.0,292.9"/><polygon points="263.3,271.2 268.9,273.5 272.5,280.7 262.5,288.0 254.8,277.5"/><polygon points="391.1,272.7 382.8,276.4 369.2,265.2 374.3,259.0"/><polygon points="404.1,267.1 397.5,270.0 390.0,263.9 402.1,249.1 403.2,250.1"/><polygon points="385.2,259.9 378.3,254.2 390.3,239.6 397.2,245.2"/><polygon points="392.9,234.8 396.3,230.8 403.1,230.9 403.8,243.7"/><polygon points="350.2,231.5 351.8,230.1 363.3,230.3 363.1,242.1"/><polygon points="382.9,229.6 392.6,229.8 388.8,234.4"/><polygon points="368.0,230.4 378.4,230.6 385.6,236.5 381.4,241.8 368.0,230.8"/><polygon points="378.6,245.4 373.9,251.1 367.5,245.9 367.7,236.5"/><polygon points="364.4,261.3 349.8,249.3 355.2,242.6 369.9,254.6"/><polygon points="345.1,246.8 338.6,241.4 346.6,234.3 351.8,238.6"/><polygon points="240.3,506.7 227.6,514.5 223.3,507.5 236.0,499.8"/><polygon points="220.4,503.6 217.8,499.4 231.3,491.2 233.9,495.4"/><polygon points="215.6,495.4 212.4,490.2 225.6,482.1 228.8,487.4"/><polygon points="252.3,488.6 250.8,500.5 244.7,504.2 239.8,496.2"/><polygon points="245.9,486.4 237.4,491.6 230.2,479.8 238.7,474.6"/><polygon points="247.1,468.7 253.8,479.6 253.4,482.5 250.4,484.3 242.5,471.5"/><polygon points="232.4,462.6 244.9,465.6 237.2,470.3"/><polygon points="220.3,460.9 221.2,460.4 227.5,461.9 233.6,471.9 228.8,474.8"/><polygon points="202.2,472.5 210.7,467.4 218.4,480.3 210.1,485.4"/><polygon points="214.3,464.1 216.7,462.7 225.5,477.2 223.0,478.7"/><polygon points="186.0,507.3 189.2,494.9 201.0,498.0"/><polygon points="191.3,490.0 194.7,477.1 197.2,475.6 207.9,493.1 206.4,494.0"/><polygon points="196.7,529.6 191.8,527.8 182.1,522.9 184.5,513.8 186.3,512.7"/><polygon points="217.4,507.6 223.3,517.3 215.3,522.2 209.3,512.5"/><polygon points="202.6,502.2 211.3,496.9 215.3,503.6 206.7,508.9"/><polygon points="207.4,518.2 211.5,524.9 202.6,530.3 198.5,523.6"/><polygon points="190.5,510.1 198.9,504.9 204.7,514.4 196.3,519.5"/><polygon points="234.3,384.6 233.6,380.9 243.1,379.1 243.8,382.8"/><polygon points="233.3,377.7 232.2,372.0 241.1,370.3 242.3,376.0"/><polygon points="244.3,369.4 247.0,368.9 249.4,381.6 246.8,382.1"/><polygon points="250.5,368.6 255.5,367.7 257.8,379.6 252.8,380.6"/><polygon points="249.2,394.7 236.3,391.3 235.6,388.0 247.4,385.7"/><polygon points="260.5,394.5 257.8,397.0 253.7,395.9 251.6,385.0 258.4,383.6"/><polygon points="279.1,363.1 283.6,373.6 281.9,375.2 272.0,364.5"/><polygon points="274.7,381.9 264.0,391.7 262.6,384.2"/><polygon points="279.1,377.5 272.4,378.8 270.3,367.9"/><polygon points="268.5,379.0 262.2,380.2 259.7,367.2 266.0,365.9"/><polygon points="272.0,347.2 277.2,359.3 270.1,360.7 267.6,348.0"/><polygon points="266.4,361.9 263.3,362.5 260.7,348.9 263.8,348.3"/><polygon points="260.1,363.2 247.0,365.8 246.5,363.2 259.6,360.6"/><polygon points="246.4,359.4 245.0,352.5 256.9,350.2 258.3,357.1"/><polygon points="260.1,336.3 264.0,336.6 269.9,341.4 270.7,343.4 261.8,345.1"/><polygon points="241.4,334.7 248.0,335.3 246.9,347.9 244.0,348.4"/><polygon points="251.9,335.6 256.2,336.0 258.1,345.8 250.8,347.2"/><polygon points="227.8,344.6 236.4,334.1 237.4,334.2 239.0,342.4"/><polygon points="242.8,362.1 243.6,366.2 231.5,368.5 230.7,364.4"/><polygon points="241.4,354.6 242.2,358.6 230.0,360.9 229.3,357.0"/><polygon points="239.6,346.1 240.6,351.1 228.7,353.4 227.8,348.4"/><polygon points="444.0,247.9 438.0,239.3 448.6,232.0 453.8,243.4"/><polygon points="457.9,249.8 448.6,256.3 445.6,252.1 456.6,247.0"/><polygon points="434.7,235.9 424.7,221.6 428.8,219.7 435.9,235.1"/><polygon points="433.2,218.4 440.9,214.9 446.4,227.0 439.4,231.9"/><polygon points="411.8,268.3 410.2,267.3 409.6,256.6 430.2,255.5"/><polygon points="414.9,226.7 421.0,223.9 429.6,236.3 424.2,240.1"/><polygon points="407.5,231.7 407.4,229.8 410.4,228.4 420.5,242.9 417.0,245.4"/><polygon points="408.1,252.0 407.4,238.4 414.1,248.0 408.3,252.0"/><polygon points="432.4,240.5 438.6,249.5 417.9,250.6"/><polygon points="444.0,257.9 425.9,270.4 424.7,266.6 441.8,254.7"/><polygon points="467.0,234.3 470.2,240.6 460.9,247.0 457.1,238.8"/><polygon points="460.0,221.6 463.6,228.4 463.6,230.6 455.4,234.4 451.4,225.5"/><polygon points="462.9,205.1 462.9,209.1 461.8,214.8 449.5,220.4 446.0,212.9"/></g><g fill="none" stroke-linecap="round" stroke-linejoin="round"><path d="M340.2,85.3 L343.9,109.2 L351.5,127.4" stroke="#6c604a" stroke-width="3.4"/><path d="M351.5,127.4 L354.5,146.0 L359.9,159.1" stroke="#6c604a" stroke-width="3.4"/><path d="M359.9,159.1 L360.5,171.4 L359.1,182.4" stroke="#6c604a" stroke-width="3.4"/><path d="M359.1,182.4 L371.8,193.3 L377.2,211.6" stroke="#6c604a" stroke-width="3.4"/><path d="M359.1,182.4 L343.8,189.4 L334.8,209.9" stroke="#6c604a" stroke-width="3.4"/><path d="M377.2,211.6 L378.0,228.2 L377.6,249.3" stroke="#6c604a" stroke-width="3.4"/><path d="M359.9,159.1 L380.1,160.1 L398.4,151.7" stroke="#6c604a" stroke-width="3.4"/><path d="M377.6,249.3 L358.8,260.7 L347.0,275.1" stroke="#6c604a" stroke-width="3.4"/><path d="M334.8,209.9 L320.7,217.4 L293.0,209.6" stroke="#6c604a" stroke-width="3.4"/><path d="M293.0,209.6 L288.4,224.6 L280.2,240.9" stroke="#6c604a" stroke-width="3.4"/><path d="M351.5,127.4 L374.3,116.1 L387.4,101.4" stroke="#6c604a" stroke-width="3.4"/><path d="M387.4,101.4 L404.0,102.7 L417.2,107.5" stroke="#6c604a" stroke-width="3.4"/><path d="M347.0,275.1 L323.6,274.3 L302.7,280.9" stroke="#6c604a" stroke-width="3.4"/><path d="M302.7,280.9 L300.3,302.3 L292.1,319.7" stroke="#6c604a" stroke-width="3.4"/><path d="M292.1,319.7 L293.4,334.2 L298.3,350.8" stroke="#6c604a" stroke-width="3.4"/><path d="M292.1,319.7 L274.6,316.7 L255.4,303.2" stroke="#6c604a" stroke-width="3.4"/><path d="M298.3,350.8 L313.2,359.4 L333.6,370.5" stroke="#6c604a" stroke-width="3.4"/><path d="M333.6,370.5 L340.0,394.9 L342.7,412.3" stroke="#6c604a" stroke-width="3.4"/><path d="M342.7,412.3 L339.2,426.0 L324.7,441.2" stroke="#6c604a" stroke-width="3.4"/><path d="M333.6,370.5 L359.4,366.4 L378.1,362.7" stroke="#6c604a" stroke-width="3.4"/><path d="M324.7,441.2 L333.0,463.1 L335.6,486.2" stroke="#6c604a" stroke-width="3.4"/><path d="M324.7,441.2 L305.8,452.2 L281.0,457.5" stroke="#6c604a" stroke-width="3.4"/><path d="M281.0,457.5 L283.1,479.2 L283.4,500.7" stroke="#6c604a" stroke-width="3.4"/><path d="M283.4,500.7 L298.7,517.7 L316.2,530.3" stroke="#6c604a" stroke-width="3.4"/><path d="M283.4,500.7 L267.0,519.0 L247.2,530.4" stroke="#6c604a" stroke-width="3.4"/><path d="M247.2,530.4 L226.9,518.0 L217.3,494.5" stroke="#6c604a" stroke-width="3.4"/><path d="M298.3,350.8 L278.6,357.2 L253.3,364.3" stroke="#6c604a" stroke-width="3.4"/><path d="M293.0,209.6 L289.4,188.8 L300.8,163.1" stroke="#6c604a" stroke-width="3.4"/><path d="M347.0,275.1 L346.9,299.5 L343.7,322.4" stroke="#6c604a" stroke-width="3.4"/><path d="M253.3,364.3 L229.8,368.9 L206.7,376.1" stroke="#6c604a" stroke-width="3.4"/><path d="M398.4,151.7 L419.1,148.0 L448.0,150.4" stroke="#6c604a" stroke-width="3.4"/><path d="M324.7,441.2 L312.1,419.5 L291.6,403.9" stroke="#6c604a" stroke-width="3.4"/><path d="M448.0,150.4 L445.2,178.0 L424.5,194.7" stroke="#6c604a" stroke-width="3.4"/><path d="M424.5,194.7 L436.6,214.0 L436.6,239.5" stroke="#6c604a" stroke-width="3.4"/><path d="M281.0,457.5 L259.0,446.3 L239.3,427.4" stroke="#6c604a" stroke-width="3.4"/><path d="M239.3,427.4 L215.1,434.0 L192.9,441.8" stroke="#6c604a" stroke-width="3.4"/><path d="M192.9,441.8 L177.3,424.5 L161.7,410.9" stroke="#6c604a" stroke-width="3.4"/><path d="M161.7,410.9 L158.5,386.7 L155.8,359.7" stroke="#6c604a" stroke-width="3.4"/><path d="M192.9,441.8 L174.0,458.3 L153.7,476.0" stroke="#6c604a" stroke-width="3.4"/><path d="M155.8,359.7 L138.2,344.1 L108.3,334.4" stroke="#6c604a" stroke-width="3.4"/><path d="M108.3,334.4 L109.2,307.6 L105.7,283.8" stroke="#6c604a" stroke-width="3.4"/><path d="M105.7,283.8 L109.2,256.0 L113.7,245.8" stroke="#6c604a" stroke-width="3.4"/><path d="M113.7,245.8 L138.1,250.1 L166.7,256.7" stroke="#6c604a" stroke-width="3.4"/><path d="M161.7,410.9 L137.0,414.2 L107.2,404.2" stroke="#6c604a" stroke-width="3.4"/><path d="M347.0,275.1 L374.6,291.6 L395.0,302.0" stroke="#6c604a" stroke-width="3.4"/><path d="M280.2,240.9 L254.6,238.6 L226.0,251.7" stroke="#6c604a" stroke-width="3.4"/><path d="M155.8,359.7 L170.8,334.4 L193.3,312.9" stroke="#6c604a" stroke-width="3.4"/><path d="M300.8,163.1 L293.3,138.3 L277.6,103.2" stroke="#6c604a" stroke-width="3.4"/><path d="M300.8,163.1 L265.7,166.2 L232.0,162.7" stroke="#6c604a" stroke-width="3.4"/><path d="M340.2,85.3 L314.3,89.6 L277.6,103.2" stroke="#6c604a" stroke-width="3.4"/><path d="M166.7,256.7 L198.3,243.0 L226.0,251.7" stroke="#6c604a" stroke-width="3.4"/><path d="M377.2,211.6 L405.2,228.5 L436.6,239.5" stroke="#6c604a" stroke-width="3.4"/><path d="M377.2,211.6 L352.9,214.3 L334.8,209.9" stroke="#6c604a" stroke-width="3.4"/><path d="M302.7,280.9 L321.5,300.9 L343.7,322.4" stroke="#6c604a" stroke-width="3.4"/><path d="M395.0,302.0 L369.8,320.6 L343.7,322.4" stroke="#6c604a" stroke-width="3.4"/><path d="M283.4,500.7 L313.3,489.3 L335.6,486.2" stroke="#6c604a" stroke-width="3.4"/><path d="M378.1,362.7 L366.9,343.6 L343.7,322.4" stroke="#6c604a" stroke-width="3.4"/><path d="M280.2,240.9 L249.0,207.2 L232.0,162.7" stroke="#6c604a" stroke-width="3.4"/><path d="M206.7,376.1 L204.0,408.8 L192.9,441.8" stroke="#6c604a" stroke-width="3.4"/><path d="M343.7,322.4 L320.2,335.2 L298.3,350.8" stroke="#6c604a" stroke-width="3.4"/><path d="M292.1,319.7 L70.2,293.6" stroke="#6c604a" stroke-width="4.8"/><path d="M292.1,319.7 L454.0,116.5" stroke="#6c604a" stroke-width="4.8"/><path d="M292.1,319.7 L351.9,394.1" stroke="#6c604a" stroke-width="4.8"/><path d="M292.1,319.7 L391.7,319.3" stroke="#6c604a" stroke-width="4.8"/><path d="M340.2,85.3 L343.9,109.2 L351.5,127.4" stroke="#e4d9bc" stroke-width="1.8"/><path d="M351.5,127.4 L354.5,146.0 L359.9,159.1" stroke="#e4d9bc" stroke-width="1.8"/><path d="M359.9,159.1 L360.5,171.4 L359.1,182.4" stroke="#e4d9bc" stroke-width="1.8"/><path d="M359.1,182.4 L371.8,193.3 L377.2,211.6" stroke="#e4d9bc" stroke-width="1.8"/><path d="M359.1,182.4 L343.8,189.4 L334.8,209.9" stroke="#e4d9bc" stroke-width="1.8"/><path d="M377.2,211.6 L378.0,228.2 L377.6,249.3" stroke="#e4d9bc" stroke-width="1.8"/><path d="M359.9,159.1 L380.1,160.1 L398.4,151.7" stroke="#e4d9bc" stroke-width="1.8"/><path d="M377.6,249.3 L358.8,260.7 L347.0,275.1" stroke="#e4d9bc" stroke-width="1.8"/><path d="M334.8,209.9 L320.7,217.4 L293.0,209.6" stroke="#e4d9bc" stroke-width="1.8"/><path d="M293.0,209.6 L288.4,224.6 L280.2,240.9" stroke="#e4d9bc" stroke-width="1.8"/><path d="M351.5,127.4 L374.3,116.1 L387.4,101.4" stroke="#e4d9bc" stroke-width="1.8"/><path d="M387.4,101.4 L404.0,102.7 L417.2,107.5" stroke="#e4d9bc" stroke-width="1.8"/><path d="M347.0,275.1 L323.6,274.3 L302.7,280.9" stroke="#e4d9bc" stroke-width="1.8"/><path d="M302.7,280.9 L300.3,302.3 L292.1,319.7" stroke="#e4d9bc" stroke-width="1.8"/><path d="M292.1,319.7 L293.4,334.2 L298.3,350.8" stroke="#e4d9bc" stroke-width="1.8"/><path d="M292.1,319.7 L274.6,316.7 L255.4,303.2" stroke="#e4d9bc" stroke-width="1.8"/><path d="M298.3,350.8 L313.2,359.4 L333.6,370.5" stroke="#e4d9bc" stroke-width="1.8"/><path d="M333.6,370.5 L340.0,394.9 L342.7,412.3" stroke="#e4d9bc" stroke-width="1.8"/><path d="M342.7,412.3 L339.2,426.0 L324.7,441.2" stroke="#e4d9bc" stroke-width="1.8"/><path d="M333.6,370.5 L359.4,366.4 L378.1,362.7" stroke="#e4d9bc" stroke-width="1.8"/><path d="M324.7,441.2 L333.0,463.1 L335.6,486.2" stroke="#e4d9bc" stroke-width="1.8"/><path d="M324.7,441.2 L305.8,452.2 L281.0,457.5" stroke="#e4d9bc" stroke-width="1.8"/><path d="M281.0,457.5 L283.1,479.2 L283.4,500.7" stroke="#e4d9bc" stroke-width="1.8"/><path d="M283.4,500.7 L298.7,517.7 L316.2,530.3" stroke="#e4d9bc" stroke-width="1.8"/><path d="M283.4,500.7 L267.0,519.0 L247.2,530.4" stroke="#e4d9bc" stroke-width="1.8"/><path d="M247.2,530.4 L226.9,518.0 L217.3,494.5" stroke="#e4d9bc" stroke-width="1.8"/><path d="M298.3,350.8 L278.6,357.2 L253.3,364.3" stroke="#e4d9bc" stroke-width="1.8"/><path d="M293.0,209.6 L289.4,188.8 L300.8,163.1" stroke="#e4d9bc" stroke-width="1.8"/><path d="M347.0,275.1 L346.9,299.5 L343.7,322.4" stroke="#e4d9bc" stroke-width="1.8"/><path d="M253.3,364.3 L229.8,368.9 L206.7,376.1" stroke="#e4d9bc" stroke-width="1.8"/><path d="M398.4,151.7 L419.1,148.0 L448.0,150.4" stroke="#e4d9bc" stroke-width="1.8"/><path d="M324.7,441.2 L312.1,419.5 L291.6,403.9" stroke="#e4d9bc" stroke-width="1.8"/><path d="M448.0,150.4 L445.2,178.0 L424.5,194.7" stroke="#e4d9bc" stroke-width="1.8"/><path d="M424.5,194.7 L436.6,214.0 L436.6,239.5" stroke="#e4d9bc" stroke-width="1.8"/><path d="M281.0,457.5 L259.0,446.3 L239.3,427.4" stroke="#e4d9bc" stroke-width="1.8"/><path d="M239.3,427.4 L215.1,434.0 L192.9,441.8" stroke="#e4d9bc" stroke-width="1.8"/><path d="M192.9,441.8 L177.3,424.5 L161.7,410.9" stroke="#e4d9bc" stroke-width="1.8"/><path d="M161.7,410.9 L158.5,386.7 L155.8,359.7" stroke="#e4d9bc" stroke-width="1.8"/><path d="M192.9,441.8 L174.0,458.3 L153.7,476.0" stroke="#e4d9bc" stroke-width="1.8"/><path d="M155.8,359.7 L138.2,344.1 L108.3,334.4" stroke="#e4d9bc" stroke-width="1.8"/><path d="M108.3,334.4 L109.2,307.6 L105.7,283.8" stroke="#e4d9bc" stroke-width="1.8"/><path d="M105.7,283.8 L109.2,256.0 L113.7,245.8" stroke="#e4d9bc" stroke-width="1.8"/><path d="M113.7,245.8 L138.1,250.1 L166.7,256.7" stroke="#e4d9bc" stroke-width="1.8"/><path d="M161.7,410.9 L137.0,414.2 L107.2,404.2" stroke="#e4d9bc" stroke-width="1.8"/><path d="M347.0,275.1 L374.6,291.6 L395.0,302.0" stroke="#e4d9bc" stroke-width="1.8"/><path d="M280.2,240.9 L254.6,238.6 L226.0,251.7" stroke="#e4d9bc" stroke-width="1.8"/><path d="M155.8,359.7 L170.8,334.4 L193.3,312.9" stroke="#e4d9bc" stroke-width="1.8"/><path d="M300.8,163.1 L293.3,138.3 L277.6,103.2" stroke="#e4d9bc" stroke-width="1.8"/><path d="M300.8,163.1 L265.7,166.2 L232.0,162.7" stroke="#e4d9bc" stroke-width="1.8"/><path d="M340.2,85.3 L314.3,89.6 L277.6,103.2" stroke="#e4d9bc" stroke-width="1.8"/><path d="M166.7,256.7 L198.3,243.0 L226.0,251.7" stroke="#e4d9bc" stroke-width="1.8"/><path d="M377.2,211.6 L405.2,228.5 L436.6,239.5" stroke="#e4d9bc" stroke-width="1.8"/><path d="M377.2,211.6 L352.9,214.3 L334.8,209.9" stroke="#e4d9bc" stroke-width="1.8"/><path d="M302.7,280.9 L321.5,300.9 L343.7,322.4" stroke="#e4d9bc" stroke-width="1.8"/><path d="M395.0,302.0 L369.8,320.6 L343.7,322.4" stroke="#e4d9bc" stroke-width="1.8"/><path d="M283.4,500.7 L313.3,489.3 L335.6,486.2" stroke="#e4d9bc" stroke-width="1.8"/><path d="M378.1,362.7 L366.9,343.6 L343.7,322.4" stroke="#e4d9bc" stroke-width="1.8"/><path d="M280.2,240.9 L249.0,207.2 L232.0,162.7" stroke="#e4d9bc" stroke-width="1.8"/><path d="M206.7,376.1 L204.0,408.8 L192.9,441.8" stroke="#e4d9bc" stroke-width="1.8"/><path d="M343.7,322.4 L320.2,335.2 L298.3,350.8" stroke="#e4d9bc" stroke-width="1.8"/><path d="M292.1,319.7 L70.2,293.6" stroke="#e4d9bc" stroke-width="3.2"/><path d="M292.1,319.7 L454.0,116.5" stroke="#e4d9bc" stroke-width="3.2"/><path d="M292.1,319.7 L351.9,394.1" stroke="#e4d9bc" stroke-width="3.2"/><path d="M292.1,319.7 L391.7,319.3" stroke="#e4d9bc" stroke-width="3.2"/></g><polygon points="392.5,315.0 392.2,321.8 391.4,328.5 399.3,337.6 397.0,344.8 394.1,351.9 398.9,363.5 394.4,370.6 396.7,383.5 383.5,383.5 371.1,381.8 365.0,386.5 353.8,382.2 351.9,394.1 351.5,415.2 352.6,455.4 352.0,525.0 335.6,549.9 315.0,551.6 294.3,551.9 273.4,550.8 252.5,548.2 231.7,544.0 211.0,538.0 190.8,530.1 171.3,520.3 153.0,508.0 136.8,493.2 122.0,477.0 108.6,459.5 96.8,441.0 86.6,421.5 78.2,401.2 71.6,380.2 67.2,358.7 66.2,336.8 67.3,315.0 70.2,293.6 74.8,272.6 80.8,252.2 88.1,232.4 148.1,237.2 180.7,237.5 203.8,237.2 203.6,221.5 205.3,205.3 202.9,181.4 203.8,156.2 203.5,121.9 220.8,113.0 232.1,87.3 249.8,71.6 271.2,66.8 293.0,64.0 315.0,63.0 337.0,64.0 358.8,66.8 380.2,71.6 401.2,78.2 421.5,86.6 431.3,113.5 454.0,116.5 470.8,129.4 472.6,157.4 470.9,184.2 465.8,209.4 466.1,227.8 473.1,241.3 424.3,275.2 427.3,284.9 429.5,294.8 421.2,305.7" fill="none" stroke="#3c3628" stroke-width="1.5"/><g font-family="Georgia, serif" font-size="8" text-anchor="middle"><text x="340.2" y="88.3" stroke="#f7f3ea" stroke-width="2.5" paint-order="stroke" fill="#23211c">Temple</text><text x="281.0" y="460.5" stroke="#f7f3ea" stroke-width="2.5" paint-order="stroke" fill="#23211c">Residential</text><text x="424.5" y="197.7" stroke="#f7f3ea" stroke-width="2.5" paint-order="stroke" fill="#23211c">Noble</text><text x="359.9" y="162.1" stroke="#f7f3ea" stroke-width="2.5" paint-order="stroke" fill="#23211c">Residential</text><text x="448.0" y="153.4" stroke="#f7f3ea" stroke-width="2.5" paint-order="stroke" fill="#23211c">Noble</text><text x="166.7" y="259.7" stroke="#f7f3ea" stroke-width="2.5" paint-order="stroke" fill="#23211c">Slums</text><text x="155.8" y="362.7" stroke="#f7f3ea" stroke-width="2.5" paint-order="stroke" fill="#23211c">Residential</text><text x="377.2" y="214.6" stroke="#f7f3ea" stroke-width="2.5" paint-order="stroke" fill="#23211c">Craftsmen</text><text x="300.8" y="166.1" stroke="#f7f3ea" stroke-width="2.5" paint-order="stroke" fill="#23211c">Temple</text><text x="359.1" y="185.4" stroke="#f7f3ea" stroke-width="2.5" paint-order="stroke" fill="#23211c">Residential</text><text x="153.7" y="479.0" stroke="#f7f3ea" stroke-width="2.5" paint-order="stroke" fill="#23211c">Temple</text><text x="302.7" y="283.9" stroke="#f7f3ea" stroke-width="2.5" paint-order="stroke" fill="#23211c">Slums</text><text x="247.2" y="533.4" stroke="#f7f3ea" stroke-width="2.5" paint-order="stroke" fill="#23211c">Residential</text><text x="395.0" y="305.0" stroke="#f7f3ea" stroke-width="2.5" paint-order="stroke" fill="#23211c">Docks</text><text x="107.2" y="407.2" stroke="#f7f3ea" stroke-width="2.5" paint-order="stroke" fill="#23211c">Craftsmen</text><text x="291.6" y="406.9" stroke="#f7f3ea" stroke-width="2.5" paint-order="stroke" fill="#23211c">Residential</text><text x="239.3" y="430.4" stroke="#f7f3ea" stroke-width="2.5" paint-order="stroke" fill="#23211c">Residential</text><text x="108.3" y="337.4" stroke="#f7f3ea" stroke-width="2.5" paint-order="stroke" fill="#23211c">Residential</text><text x="105.7" y="286.8" stroke="#f7f3ea" stroke-width="2.5" paint-order="stroke" fill="#23211c">Noble</text><text x="283.4" y="503.7" stroke="#f7f3ea" stroke-width="2.5" paint-order="stroke" fill="#23211c">Residential</text><text x="113.7" y="248.8" stroke="#f7f3ea" stroke-width="2.5" paint-order="stroke" fill="#23211c">Residential</text><text x="398.4" y="154.7" stroke="#f7f3ea" stroke-width="2.5" paint-order="stroke" fill="#23211c">Craftsmen</text><text x="316.2" y="533.3" stroke="#f7f3ea" stroke-width="2.5" paint-order="stroke" fill="#23211c">Noble</text><text x="161.7" y="413.9" stroke="#f7f3ea" stroke-width="2.5" paint-order="stroke" fill="#23211c">Noble</text><text x="193.3" y="315.9" stroke="#f7f3ea" stroke-width="2.5" paint-order="stroke" fill="#23211c">Residential</text><text x="378.1" y="365.7" stroke="#f7f3ea" stroke-width="2.5" paint-order="stroke" fill="#23211c">Residential</text><text x="351.5" y="130.4" stroke="#f7f3ea" stroke-width="2.5" paint-order="stroke" fill="#23211c">Residential</text><text x="347.0" y="278.1" stroke="#f7f3ea" stroke-width="2.5" paint-order="stroke" fill="#23211c">Residential</text><text x="334.8" y="212.9" stroke="#f7f3ea" stroke-width="2.5" paint-order="stroke" fill="#23211c">Craftsmen</text><text x="387.4" y="104.4" stroke="#f7f3ea" stroke-width="2.5" paint-order="stroke" fill="#23211c">Slums</text><text x="280.2" y="243.9" stroke="#f7f3ea" stroke-width="2.5" paint-order="stroke" fill="#23211c">Residential</text><text x="206.7" y="379.1" stroke="#f7f3ea" stroke-width="2.5" paint-order="stroke" fill="#23211c">Craftsmen</text><text x="293.0" y="212.6" stroke="#f7f3ea" stroke-width="2.5" paint-order="stroke" fill="#23211c">Residential</text><text x="324.7" y="444.2" stroke="#f7f3ea" stroke-width="2.5" paint-order="stroke" fill="#23211c">Residential</text><text x="333.6" y="373.5" stroke="#f7f3ea" stroke-width="2.5" paint-order="stroke" fill="#23211c">Slums</text><text x="343.7" y="325.4" stroke="#f7f3ea" stroke-width="2.5" paint-order="stroke" fill="#23211c">Noble</text><text x="232.0" y="165.7" stroke="#f7f3ea" stroke-width="2.5" paint-order="stroke" fill="#23211c">Residential</text><text x="226.0" y="254.7" stroke="#f7f3ea" stroke-width="2.5" paint-order="stroke" fill="#23211c">Residential</text><text x="342.7" y="415.3" stroke="#f7f3ea" stroke-width="2.5" paint-order="stroke" fill="#23211c">Slums</text><text x="277.6" y="106.2" stroke="#f7f3ea" stroke-width="2.5" paint-order="stroke" fill="#23211c">Temple</text><text x="417.2" y="110.5" stroke="#f7f3ea" stroke-width="2.5" paint-order="stroke" fill="#23211c">Slums</text><text x="298.3" y="353.8" stroke="#f7f3ea" stroke-width="2.5" paint-order="stroke" fill="#23211c">Residential</text><text x="335.6" y="489.2" stroke="#f7f3ea" stroke-width="2.5" paint-order="stroke" fill="#23211c">Garrison</text><text x="192.9" y="444.8" stroke="#f7f3ea" stroke-width="2.5" paint-order="stroke" fill="#23211c">Craftsmen</text><text x="292.1" y="322.7" stroke="#f7f3ea" stroke-width="2.5" paint-order="stroke" fill="#23211c">Market</text><text x="255.4" y="306.2" stroke="#f7f3ea" stroke-width="2.5" paint-order="stroke" fill="#23211c">Craftsmen</text><text x="377.6" y="252.3" stroke="#f7f3ea" stroke-width="2.5" paint-order="stroke" fill="#23211c">Residential</text><text x="217.3" y="497.5" stroke="#f7f3ea" stroke-width="2.5" paint-order="stroke" fill="#23211c">Craftsmen</text><text x="253.3" y="367.3" stroke="#f7f3ea" stroke-width="2.5" paint-order="stroke" fill="#23211c">Slums</text><text x="436.6" y="242.5" stroke="#f7f3ea" stroke-width="2.5" paint-order="stroke" fill="#23211c">Craftsmen</text></g><text x="315.0" y="20" text-anchor="middle" font-family="Georgia, serif" font-size="16" font-weight="bold" stroke="#f7f3ea" stroke-width="3" paint-order="stroke" fill="#23211c">Faronholt</text></svg>