<svg xmlns="http://www.w3.org/2000/svg" width="630" height="630" viewBox="0 0 630 630"><rect width="630" height="630" fill="#05060a"/><polygon points="141.3,466.7 132.0,453.0 124.4,438.2 118.8,422.2 115.2,405.3 113.8,387.6 114.6,369.3 117.2,350.7 121.6,332.0 127.4,313.4 134.5,294.9 142.8,276.4 152.4,258.2 163.4,240.1 175.9,222.6 190.1,205.8 206.0,190.2 223.3,176.1 241.7,163.8 260.9,153.5 280.4,145.1 299.9,138.2 319.4,132.7 338.8,128.3 358.1,125.0 377.4,122.8 396.5,122.1 415.2,123.2 433.0,126.7 449.3,132.8 463.8,141.6 475.9,152.8 485.6,166.1 492.9,180.8 498.3,196.5 502.1,212.7 504.8,229.2 506.6,245.9 507.5,262.9 507.2,280.3 505.2,298.2 501.1,316.6 494.5,335.0 485.4,353.2 473.8,370.5 460.3,386.7 445.3,401.6 429.6,415.3 413.6,427.9 397.4,439.9 381.2,451.6 364.7,463.2 347.6,474.7 329.6,485.8 310.6,495.9 290.9,504.4 270.6,510.6 250.4,514.1 230.7,514.6 212.0,512.1 194.7,507.0 179.0,499.5 164.8,490.1 152.3,479.1" fill="#0a1420"/><g stroke="#00e5ff" stroke-width="1" stroke-linejoin="round"><polygon points="437.9,271.2 412.2,273.9 388.6,252.7 386.0,232.7 437.0,193.4 478.3,215.0" fill="#0e2233"/><polygon points="256.2,252.5 267.1,304.7 230.8,330.4 182.2,286.9" fill="#10202e"/><polygon points="471.7,373.1 460.3,386.7 445.3,401.6 429.6,415.3 413.6,427.9 397.4,439.9 388.9,446.1 372.3,408.4 427.2,359.3" fill="#0e2233"/><polygon points="356.1,194.3 386.0,232.7 388.6,252.7 333.1,278.1 290.8,233.2 340.7,188.2" fill="#0e2233"/><polygon points="260.2,441.6 258.8,460.4 229.6,485.7 192.5,459.8 191.1,454.1 192.9,447.1 241.7,424.7" fill="#1b2a52"/><polygon points="339.4,387.7 337.8,387.9 297.4,338.3 298.2,320.9 328.5,301.7 366.2,334.8" fill="#103a4a"/><polygon points="229.3,514.4 212.0,512.1 194.7,507.0 179.0,499.5 176.2,497.6 192.5,459.8 229.6,485.7" fill="#10202e"/><polygon points="388.9,446.1 381.2,451.6 364.7,463.2 347.6,474.7 334.9,482.6 303.8,428.5 313.9,405.2 337.8,387.9 339.4,387.7 372.3,408.4" fill="#13314a"/><polygon points="388.6,252.7 412.2,273.9 399.0,328.0 366.2,334.8 328.5,301.7 333.1,278.1" fill="#0e2233"/><polygon points="137.0,460.4 132.0,453.0 124.4,438.2 118.8,422.2 115.8,408.0 166.3,399.6 192.9,447.1 191.1,454.1" fill="#1b2a52"/><polygon points="334.9,482.6 329.6,485.8 310.6,495.9 294.3,502.9 258.8,460.4 260.2,441.6 303.8,428.5" fill="#0e2233"/><polygon points="421.0,148.7 437.0,193.4 386.0,232.7 356.1,194.3" fill="#10202e"/><polygon points="294.3,502.9 290.9,504.4 270.6,510.6 250.4,514.1 230.7,514.6 229.3,514.4 229.6,485.7 258.8,460.4" fill="#13314a"/><polygon points="412.2,273.9 437.9,271.2 499.8,320.1 494.5,335.0 485.4,353.2 473.8,370.5 471.7,373.1 427.2,359.3 399.0,328.0" fill="#0e2233"/><polygon points="427.2,359.3 372.3,408.4 339.4,387.7 366.2,334.8 399.0,328.0" fill="#0e2838"/><polygon points="223.8,175.8 241.7,163.8 260.9,153.5 280.4,145.1 299.9,138.2 319.4,132.7 320.3,132.5 340.7,188.2 290.8,233.2 265.5,233.9" fill="#0e2838"/><polygon points="257.7,374.0 297.4,338.3 337.8,387.9 313.9,405.2" fill="#10202e"/><polygon points="425.9,125.3 433.0,126.7 449.3,132.8 463.8,141.6 475.9,152.8 485.6,166.1 492.9,180.8 498.3,196.5 501.5,210.0 478.3,215.0 437.0,193.4 421.0,148.7" fill="#0e2233"/><polygon points="139.1,284.8 140.5,281.6 182.2,286.9 230.8,330.4 230.5,372.5 184.3,378.1" fill="#0e2838"/><polygon points="320.3,132.5 338.8,128.3 358.1,125.0 377.4,122.8 396.5,122.1 415.2,123.2 425.9,125.3 421.0,148.7 356.1,194.3 340.7,188.2" fill="#0e2838"/><polygon points="230.5,372.5 230.8,330.4 267.1,304.7 298.2,320.9 297.4,338.3 257.7,374.0 236.3,376.9" fill="#0e2838"/><polygon points="115.8,408.0 115.2,405.3 113.8,387.6 114.6,369.3 117.2,350.7 121.6,332.0 127.4,313.4 134.5,294.9 139.1,284.8 184.3,378.1 166.3,399.6" fill="#10202e"/><polygon points="501.5,210.0 502.1,212.7 504.8,229.2 506.6,245.9 507.5,262.9 507.2,280.3 505.2,298.2 501.1,316.6 499.8,320.1 437.9,271.2 478.3,215.0" fill="#0e2233"/><polygon points="267.1,304.7 256.2,252.5 265.5,233.9 290.8,233.2 333.1,278.1 328.5,301.7 298.2,320.9" fill="#0e2233"/><polygon points="241.7,424.7 192.9,447.1 166.3,399.6 184.3,378.1 230.5,372.5 236.3,376.9" fill="#0e2233"/><polygon points="141.3,466.7 137.0,460.4 191.1,454.1 192.5,459.8 176.2,497.6 164.8,490.1 152.3,479.1" fill="#1b2a52"/><polygon points="140.5,281.6 142.8,276.4 152.4,258.2 163.4,240.1 175.9,222.6 190.1,205.8 206.0,190.2 223.3,176.1 223.8,175.8 265.5,233.9 256.2,252.5 182.2,286.9" fill="#0e2233"/><polygon points="260.2,441.6 241.7,424.7 236.3,376.9 257.7,374.0 313.9,405.2 303.8,428.5" fill="#0e2838"/></g><g fill="#0a3a4a" stroke="#00e5ff" stroke-width="0.5" stroke-linejoin="round"><polygon points="451.6,203.8 463.8,210.1 460.0,217.4 448.0,208.8"/><polygon points="467.9,211.9 475.2,215.7 469.1,224.3 463.5,220.3"/><polygon points="439.0,234.5 433.2,230.4 445.3,213.5 451.1,217.6"/><polygon points="456.8,241.3 453.4,246.0 442.6,238.2 445.9,233.6"/><polygon points="465.7,227.8 459.1,237.0 449.3,230.0 455.9,220.8"/><polygon points="429.1,202.9 437.3,196.6 446.9,201.6 440.2,210.9"/><polygon points="430.9,210.7 437.2,215.3 428.4,227.5 422.1,222.9"/><polygon points="411.7,215.8 424.6,205.8 427.1,207.6 418.0,220.3"/><polygon points="421.5,228.6 430.0,234.7 424.4,242.5 415.9,236.3"/><polygon points="421.7,246.3 416.4,253.7 407.8,247.5 413.1,240.1"/><polygon points="403.2,222.1 407.9,218.5 418.0,225.7 414.7,230.4"/><polygon points="403.8,228.4 411.5,233.9 403.9,244.4 396.3,238.9"/><polygon points="388.0,233.9 387.9,233.5 399.7,224.4 400.7,225.2 392.2,237.0"/><polygon points="394.2,254.7 390.6,251.6 389.1,239.6 399.6,247.2"/><polygon points="407.3,266.0 398.0,257.6 403.2,250.3 413.3,257.6"/><polygon points="434.2,268.6 413.2,270.8 411.7,269.4 419.7,258.2"/><polygon points="443.7,245.2 449.9,249.6 438.9,264.8 432.8,260.4"/><polygon points="422.9,253.4 434.0,238.0 439.2,241.8 428.1,257.2"/><polygon points="225.0,321.0 207.4,305.2 214.1,297.6"/><polygon points="202.7,300.4 188.7,287.9 205.4,280.1 210.7,291.5"/><polygon points="248.4,314.2 233.5,324.8 229.1,315.2 245.4,307.7"/><polygon points="226.8,308.8 220.6,295.4 235.7,288.4 241.9,301.8"/><polygon points="257.4,278.8 262.4,302.9 253.9,308.9 243.0,285.5"/><polygon points="240.9,277.3 217.7,288.0 212.7,277.4 235.9,266.6"/><polygon points="254.0,256.9 257.0,271.0 247.9,275.3 241.9,262.5"/><polygon points="379.9,405.6 390.9,395.7 398.0,403.7 386.9,413.5"/><polygon points="402.0,406.9 405.0,410.3 392.7,421.2 389.8,417.9"/><polygon points="383.9,428.8 375.1,409.0 375.5,408.7 389.2,424.1"/><polygon points="398.1,436.6 396.1,438.1 389.8,442.7 385.7,433.4 390.9,428.7"/><polygon points="415.0,422.9 411.7,425.4 401.8,432.8 395.5,425.8 407.8,414.8"/><polygon points="410.3,409.0 401.3,398.9 408.3,392.6 417.3,402.7"/><polygon points="411.9,389.1 417.2,384.3 426.6,394.8 421.3,399.6"/><polygon points="397.7,395.1 394.7,391.7 410.8,377.4 413.8,380.8"/><polygon points="435.5,406.0 427.6,412.8 419.8,418.9 414.6,413.0 429.7,399.5"/><polygon points="433.7,363.7 439.3,365.5 434.7,380.2 429.2,378.5"/><polygon points="414.5,373.8 427.8,362.0 429.2,362.4 424.7,377.0"/><polygon points="430.9,392.9 419.6,380.2 433.5,384.5"/><polygon points="453.1,389.7 443.3,399.4 440.3,402.1 435.2,396.4 438.7,385.2"/><polygon points="453.5,383.5 440.5,379.5 444.1,367.7 457.2,371.8"/><polygon points="468.5,374.0 458.9,385.5 458.2,386.2 457.9,386.1 462.2,372.1"/><polygon points="318.2,257.9 306.4,245.5 313.1,239.2 324.9,251.8"/><polygon points="316.6,235.1 326.6,225.7 331.5,231.2 321.4,240.2"/><polygon points="334.7,234.6 339.3,239.8 329.3,248.8 324.6,243.7"/><polygon points="302.3,241.9 294.2,233.3 301.0,227.2 308.8,235.8"/><polygon points="305.2,224.0 315.8,214.5 322.7,222.1 312.3,231.9"/><polygon points="359.2,262.8 350.7,266.7 341.0,245.4 342.4,244.1"/><polygon points="326.8,267.0 322.3,262.3 336.3,249.6 341.3,260.4"/><polygon points="346.4,269.6 333.6,275.4 329.8,271.4 344.2,264.8"/><polygon points="372.3,256.9 364.9,260.3 353.1,247.1 358.8,242.0"/><polygon points="385.4,243.5 386.4,251.5 377.7,255.5 375.1,252.7"/><polygon points="380.2,241.7 372.6,248.5 363.1,238.0 370.7,231.1"/><polygon points="377.0,224.2 384.2,233.5 384.8,238.7 384.4,239.2 373.6,227.2"/><polygon points="355.4,237.6 349.1,243.3 339.8,233.0 346.1,227.3"/><polygon points="364.6,229.5 359.2,234.3 349.7,223.8 355.1,218.9"/><polygon points="365.1,210.0 373.8,221.1 368.3,226.1 358.9,215.7"/><polygon points="355.9,198.0 362.2,206.0 354.8,212.7 347.9,205.1"/><polygon points="352.2,195.1 344.7,201.9 337.5,194.0 341.2,190.7"/><polygon points="323.3,214.7 319.7,210.6 334.3,197.5 337.9,201.5"/><polygon points="350.8,215.9 343.7,222.2 334.4,211.9 341.4,205.5"/><polygon points="340.4,225.9 336.3,229.6 326.3,218.5 330.4,214.8"/><polygon points="222.7,475.7 196.2,457.3 195.4,454.1 196.5,450.0 208.4,444.6"/><polygon points="255.5,455.7 255.3,458.6 232.5,478.3 227.9,468.3"/><polygon points="256.6,443.0 256.3,447.5 246.9,451.8 237.2,430.6 241.1,428.8"/><polygon points="239.6,454.3 225.1,461.0 216.0,441.1 230.5,434.5"/><polygon points="195.5,503.1 181.0,496.2 187.5,481.2 202.2,487.5"/><polygon points="204.5,507.2 201.1,506.2 208.6,488.9 215.4,491.8"/><polygon points="190.3,474.2 194.1,465.4 219.8,483.4 217.9,486.1"/><polygon points="226.0,510.5 212.7,508.8 211.0,508.3 225.8,487.2 226.2,487.5"/><polygon points="339.9,476.9 335.7,479.5 327.5,465.3 331.8,462.8"/><polygon points="351.4,468.9 346.1,472.4 343.9,473.8 336.4,460.7 344.1,456.3"/><polygon points="325.3,461.3 316.9,446.6 321.3,444.1 329.8,458.7"/><polygon points="326.0,441.9 333.3,437.7 341.3,451.5 334.0,455.7"/><polygon points="367.1,458.2 363.1,460.9 355.9,465.8 350.5,456.4 362.2,449.7"/><polygon points="347.5,452.3 344.7,447.4 357.3,440.1 360.2,445.1"/><polygon points="342.7,442.9 338.0,434.9 349.9,428.0 354.5,436.1"/><polygon points="385.2,445.1 379.5,449.2 371.7,454.7 366.8,446.3 381.9,437.6"/><polygon points="363.7,442.0 354.1,425.3 357.9,423.1 367.5,439.8"/><polygon points="363.0,421.0 372.1,415.8 379.3,432.1 371.9,436.4"/><polygon points="337.5,391.5 338.8,390.6 354.0,400.1 347.9,409.7"/><polygon points="358.6,403.2 369.8,410.2 353.7,419.5 351.2,415.1"/><polygon points="323.6,402.0 332.9,395.2 340.5,408.4 330.6,414.1"/><polygon points="343.7,413.2 349.0,422.4 338.4,428.5 333.1,419.3"/><polygon points="310.7,417.7 315.6,406.6 318.9,404.1 322.8,410.8"/><polygon points="316.1,420.6 324.5,415.8 333.2,431.0 324.8,435.8"/><polygon points="314.7,442.2 306.7,428.3 308.4,424.5 310.9,423.0 320.1,439.1"/><polygon points="350.0,273.1 358.5,269.2 363.6,280.3 355.1,284.2"/><polygon points="333.1,293.6 335.8,280.2 345.2,275.9 349.8,286.0"/><polygon points="341.1,309.6 331.1,300.8 331.1,300.5 340.8,296.1 346.0,307.4"/><polygon points="344.8,294.0 350.3,291.5 355.6,303.2 350.2,305.7"/><polygon points="348.4,316.5 344.3,313.0 357.5,306.9 359.5,311.4"/><polygon points="354.3,289.8 365.8,284.5 368.8,291.0 357.3,296.3"/><polygon points="370.5,295.5 374.5,304.0 363.4,309.1 359.5,300.5"/><polygon points="368.0,332.0 366.9,332.2 352.4,319.5 360.6,315.8"/><polygon points="368.1,320.8 364.9,313.8 376.6,308.4 379.9,315.4"/><polygon points="385.7,328.3 372.8,331.0 370.1,325.2 381.8,319.8"/><polygon points="407.4,282.2 404.2,295.1 387.9,291.1"/><polygon points="400.5,309.9 396.7,325.6 390.8,326.9 386.1,316.6"/><polygon points="382.6,310.2 376.0,296.0 379.8,294.3 386.1,295.8"/><polygon points="403.2,300.3 402.5,303.2 387.5,310.0 390.7,297.2"/><polygon points="399.8,265.7 409.7,274.6 409.5,275.7 401.6,279.3 396.2,267.4"/><polygon points="397.4,281.1 390.3,284.3 385.0,272.6 392.0,269.4"/><polygon points="388.1,255.6 395.7,262.4 383.1,268.2 379.2,259.7"/><polygon points="385.7,286.2 374.3,291.4 370.3,282.7 381.8,277.5"/><polygon points="368.3,277.7 363.5,267.2 374.5,262.2 379.3,272.7"/><polygon points="183.1,438.2 188.4,447.7 187.8,450.2 158.5,453.6 157.1,441.2"/><polygon points="153.0,406.1 164.1,404.2 178.7,430.2 156.1,432.8"/><polygon points="125.4,428.5 122.8,421.1 120.8,411.4 144.7,407.4 146.9,426.0"/><polygon points="139.0,455.9 135.6,450.9 128.3,436.6 147.8,434.3 150.2,454.6"/><polygon points="313.7,450.4 317.0,456.3 304.6,463.4 301.2,457.6"/><polygon points="308.4,441.1 311.4,446.4 298.8,453.6 295.8,448.4"/><polygon points="288.8,435.7 302.6,431.5 305.8,437.1 293.6,444.0"/><polygon points="272.0,440.3 283.9,436.8 286.8,441.8 276.3,447.8"/><polygon points="261.5,456.3 262.4,443.3 267.6,441.8 272.4,450.0"/><polygon points="277.6,478.5 263.2,461.2 269.5,457.6 280.5,476.8"/><polygon points="296.0,458.9 299.9,465.6 285.3,474.0 281.4,467.2"/><polygon points="274.4,454.8 288.8,446.5 293.1,454.0 278.7,462.3"/><polygon points="288.2,491.8 280.6,482.7 289.2,477.8 295.0,487.8"/><polygon points="293.1,475.3 298.9,471.9 304.9,482.4 299.1,485.8"/><polygon points="310.6,493.1 309.5,493.6 295.1,499.8 291.5,495.6 306.9,486.7"/><polygon points="307.9,477.3 303.7,470.0 319.2,461.2 323.3,468.4"/><polygon points="330.8,481.5 328.1,483.2 315.3,490.0 310.9,482.4 326.2,473.6"/><polygon points="393.7,222.2 386.6,227.7 371.7,208.5 378.8,203.0"/><polygon points="405.2,213.6 399.4,218.0 384.3,198.5 390.9,193.3"/><polygon points="367.3,202.7 361.4,195.1 381.8,180.7 386.7,187.6"/><polygon points="407.9,187.1 397.6,190.8 387.5,176.4 396.1,170.4"/><polygon points="418.9,155.3 427.5,179.3 414.8,183.8 402.8,166.7"/><polygon points="430.4,187.0 432.2,192.0 410.8,208.5 402.7,196.9"/><polygon points="245.5,475.3 251.4,470.1 260.7,480.8 254.5,486.0"/><polygon points="254.7,466.8 258.6,463.4 268.2,475.0 264.5,478.1"/><polygon points="232.7,491.9 232.7,487.2 241.6,479.4 249.7,489.2 238.3,498.7"/><polygon points="230.7,507.3 230.8,496.8 236.0,502.9"/><polygon points="257.4,509.7 250.1,511.0 232.9,511.4 248.1,498.6"/><polygon points="257.7,501.3 252.0,494.6 261.4,486.7 267.1,493.5"/><polygon points="263.9,509.4 260.3,505.1 270.3,496.7 273.9,501.1"/><polygon points="265.6,483.6 270.9,479.1 282.5,493.0 277.1,497.5"/><polygon points="290.7,502.1 290.1,502.3 272.7,507.7 286.1,496.5"/><polygon points="464.3,309.6 458.7,316.7 447.3,307.6 452.9,300.6"/><polygon points="459.7,291.4 471.7,300.9 467.8,305.8 455.8,296.3"/><polygon points="444.7,279.3 456.2,288.4 453.0,292.5 441.5,283.4"/><polygon points="449.4,296.0 443.0,304.1 432.5,295.8 438.9,287.7"/><polygon points="456.1,320.8 446.8,332.7 442.8,329.5 452.1,317.7"/><polygon points="439.3,325.9 431.5,319.8 440.1,308.9 447.9,315.1"/><polygon points="427.2,316.5 420.2,311.0 429.0,300.0 435.9,305.5"/><polygon points="417.1,276.4 437.0,274.4 440.0,276.8 431.4,287.7"/><polygon points="422.0,301.0 416.2,308.4 407.7,301.7 408.6,297.7"/><polygon points="427.9,292.5 424.7,296.5 410.5,293.0 413.4,281.1"/><polygon points="408.0,334.1 401.9,327.3 403.8,319.5 417.0,322.7"/><polygon points="404.6,314.7 406.6,306.5 421.2,318.0 420.7,318.6"/><polygon points="443.7,336.1 437.9,343.4 428.5,335.9 434.2,328.7"/><polygon points="424.7,333.4 418.5,328.5 424.7,320.6 430.9,325.5"/><polygon points="417.0,344.8 410.9,338.1 415.9,331.8 422.9,337.3"/><polygon points="434.8,347.3 427.8,356.2 420.4,347.9 426.2,340.5"/><polygon points="477.2,360.9 471.8,369.0 470.8,370.2 462.8,367.7 465.9,357.4"/><polygon points="482.8,352.6 480.1,356.6 467.4,352.7 470.5,342.9"/><polygon points="457.6,365.5 444.8,361.5 449.3,346.9 460.6,355.9"/><polygon points="439.4,360.7 432.1,358.4 444.8,342.4 445.0,342.5"/><polygon points="448.6,338.7 454.7,331.0 465.7,339.7 462.6,349.7"/><polygon points="490.2,337.4 485.0,347.7 474.6,339.4 481.6,330.5"/><polygon points="491.9,316.9 497.0,320.9 492.8,332.8 484.5,326.2"/><polygon points="480.0,323.9 470.3,336.2 464.6,331.8 474.4,319.4"/><polygon points="460.6,329.2 457.2,326.5 467.5,313.4 470.9,316.1"/><polygon points="475.4,304.2 487.8,314.0 483.2,319.8 470.8,310.0"/><polygon points="406.5,361.9 399.0,353.5 409.5,344.1 417.0,352.4"/><polygon points="424.2,359.1 412.3,369.7 409.3,366.3 421.1,355.7"/><polygon points="387.3,369.4 384.0,365.7 394.6,356.2 397.9,360.0"/><polygon points="408.2,372.5 398.7,381.0 391.2,372.6 400.7,364.1"/><polygon points="389.1,332.7 398.1,330.8 406.1,339.7 400.1,345.0"/><polygon points="381.3,361.4 376.4,356.0 390.9,343.0 395.8,348.4"/><polygon points="372.4,335.9 383.4,333.6 387.9,338.7 380.7,345.2"/><polygon points="372.5,352.6 364.4,343.5 367.5,337.3 377.3,348.2"/><polygon points="349.1,390.1 343.5,386.6 351.1,371.5 363.1,377.6"/><polygon points="353.1,365.6 362.2,347.7 367.0,353.2"/><polygon points="369.9,357.4 377.1,365.4 368.2,373.4 357.9,368.2"/><polygon points="374.4,402.7 372.0,404.9 354.1,393.6 360.8,387.6"/><polygon points="378.8,382.5 373.0,376.0 381.0,368.9 386.8,375.4"/><polygon points="395.3,384.8 387.2,392.0 381.8,385.9 389.8,378.7"/><polygon points="383.1,395.0 378.5,399.0 365.0,383.9 369.5,379.8"/><polygon points="251.4,209.0 245.2,200.3 258.2,191.0 264.4,199.7"/><polygon points="262.0,224.8 254.2,213.9 261.0,209.1 268.8,219.9"/><polygon points="264.4,206.0 268.3,203.3 276.6,214.9 272.7,217.6"/><polygon points="261.5,187.1 273.4,178.6 275.7,181.8 263.8,190.3"/><polygon points="277.8,185.8 283.0,193.2 272.3,200.9 267.0,193.6"/><polygon points="286.1,197.3 290.9,204.0 280.0,211.8 275.2,205.1"/><polygon points="289.8,229.9 289.5,230.1 267.1,230.8 265.8,229.0 281.2,217.9"/><polygon points="301.7,219.6 294.4,226.2 285.8,214.2 293.8,208.5"/><polygon points="323.7,200.7 319.8,204.3 311.2,194.8 316.6,190.9"/><polygon points="315.5,207.0 305.9,215.6 298.3,205.1 307.7,198.3"/><polygon points="294.9,200.7 286.5,189.0 293.6,184.0 301.9,195.6"/><polygon points="297.9,180.9 305.0,175.7 313.4,187.4 306.3,192.5"/><polygon points="283.3,185.2 277.1,176.5 284.5,171.1 290.8,179.8"/><polygon points="288.4,168.4 296.1,162.9 302.3,171.5 294.6,177.1"/><polygon points="332.9,191.8 326.9,197.2 318.1,184.9 324.6,180.2"/><polygon points="333.2,173.4 338.4,187.6 336.6,189.2 328.0,177.1"/><polygon points="308.9,171.8 300.6,160.2 308.6,154.4 317.0,166.0"/><polygon points="324.2,174.8 314.9,181.4 311.1,176.2 320.4,169.5"/><polygon points="322.1,144.3 326.2,155.5 318.0,158.5 312.7,151.0"/><polygon points="328.0,159.6 331.7,169.4 327.6,172.4 320.4,162.4"/><polygon points="299.4,141.3 300.8,140.9 318.6,135.9 319.9,139.4 305.5,149.7"/><polygon points="298.7,148.9 301.7,153.1 289.0,162.3 285.9,158.1"/><polygon points="278.9,148.2 281.2,147.2 294.1,142.7 296.0,145.3 283.3,154.4"/><polygon points="281.0,159.6 284.8,164.8 270.1,175.4 266.4,170.1"/><polygon points="258.0,158.2 262.1,156.0 274.4,150.7 277.7,155.3 263.3,165.6"/><polygon points="261.7,172.5 265.9,178.5 253.3,187.5 249.1,181.6"/><polygon points="240.0,168.4 243.2,166.3 253.0,161.0 258.3,168.3 246.2,177.0"/><polygon points="242.9,181.5 249.3,190.5 241.4,196.2 235.0,187.2"/><polygon points="226.9,176.4 235.4,170.7 240.4,177.6 232.1,183.6"/><polygon points="308.8,358.9 318.2,370.4 294.5,389.7 292.4,388.5"/><polygon points="323.4,376.9 331.8,387.1 313.6,400.2 302.4,394.0"/><polygon points="264.2,373.3 275.9,362.8 289.3,377.7 285.3,384.9"/><polygon points="281.7,357.7 296.9,344.0 303.4,352.0 293.2,370.4"/><polygon points="472.5,209.7 462.4,204.4 467.3,195.0"/><polygon points="453.6,200.0 441.0,193.4 450.1,190.2"/><polygon points="455.1,188.2 464.1,184.9 465.9,189.8 464.3,192.9"/><polygon points="458.9,203.0 458.3,202.7 454.2,191.4 462.7,195.8"/><polygon points="473.7,202.6 472.0,197.8 478.8,195.4 480.5,200.2"/><polygon points="484.3,211.9 478.5,213.1 477.6,212.7 475.1,205.5 481.2,203.3"/><polygon points="498.3,203.9 499.4,208.6 487.8,211.2 486.7,208.0"/><polygon points="491.0,202.6 485.6,204.6 482.0,194.7 487.5,192.7"/><polygon points="494.4,190.0 496.8,197.0 497.6,200.6 494.4,201.7 490.6,191.3"/><polygon points="488.7,176.2 491.4,181.5 493.2,186.9 489.2,188.3 485.4,177.5"/><polygon points="486.1,189.5 482.1,190.8 478.3,180.0 482.2,178.6"/><polygon points="478.4,191.7 471.4,194.2 467.8,184.2 474.8,181.7"/><polygon points="481.4,163.6 483.9,167.1 486.9,173.1 480.7,175.3 477.1,165.1"/><polygon points="476.8,176.5 469.5,179.1 466.0,169.3 473.4,166.7"/><polygon points="466.0,180.8 461.8,182.3 458.1,171.7 462.2,170.2"/><polygon points="477.1,157.2 479.5,160.5 468.9,164.3 467.5,160.6"/><polygon points="466.9,147.0 474.5,154.0 474.7,154.4 466.6,157.3 463.4,148.3"/><polygon points="465.9,165.4 456.8,168.7 455.3,164.5 464.4,161.2"/><polygon points="454.5,160.9 451.6,152.7 459.8,149.8 462.7,158.0"/><polygon points="456.2,139.5 462.5,143.3 463.3,144.1 450.3,148.8 448.0,142.4"/><polygon points="443.6,132.2 448.7,134.1 453.2,136.8 446.2,139.3"/><polygon points="439.2,131.2 439.7,131.4 442.5,139.2 434.6,142.0 431.7,133.8"/><polygon points="428.2,126.9 432.7,127.8 436.1,129.0 429.8,131.3"/><polygon points="426.6,131.2 431.0,143.4 423.5,146.0"/><polygon points="443.8,142.9 446.0,149.1 435.6,152.8 433.4,146.7"/><polygon points="447.5,152.5 450.9,162.0 446.2,163.8 442.8,154.2"/><polygon points="443.2,165.0 439.8,166.2 436.3,156.3 439.7,155.1"/><polygon points="425.7,156.7 423.2,149.9 429.8,147.6 432.2,154.4"/><polygon points="436.5,167.0 430.4,169.2 427.1,160.0 433.2,157.8"/><polygon points="452.0,165.5 453.6,169.9 442.1,174.1 440.5,169.6"/><polygon points="449.6,186.9 446.6,187.9 442.9,177.3 445.8,176.3"/><polygon points="454.8,173.5 458.3,183.3 452.6,185.3 449.1,175.5"/><polygon points="443.4,188.7 437.9,190.7 434.5,181.1 440.0,179.1"/><polygon points="433.1,178.1 431.1,172.5 437.2,170.3 439.2,175.9"/><polygon points="179.8,330.2 186.4,327.0 195.1,345.1 188.5,348.3"/><polygon points="176.1,354.2 167.4,336.3 174.4,332.9 183.1,350.8"/><polygon points="184.4,372.6 177.9,359.4 184.1,356.4 190.6,369.6"/><polygon points="189.0,354.5 197.8,350.2 203.9,362.8 195.1,367.1"/><polygon points="209.4,372.8 189.8,375.2 206.6,367.0"/><polygon points="221.0,371.0 214.3,371.8 207.1,356.8 212.8,354.0"/><polygon points="227.9,347.0 227.7,369.9 226.6,370.1 217.8,351.9"/><polygon points="217.7,345.4 205.0,351.5 199.8,340.8 212.5,334.6"/><polygon points="224.6,328.1 228.4,331.4 228.3,340.9 222.9,343.5 217.2,331.7"/><polygon points="210.1,314.4 221.6,324.7 215.3,327.7 209.1,314.9"/><polygon points="210.2,328.9 197.1,335.2 191.9,324.5 205.0,318.2"/><polygon points="191.0,298.6 205.3,311.4 194.9,316.4 187.1,300.4"/><polygon points="189.7,319.0 182.6,322.4 174.8,306.4 181.9,302.9"/><polygon points="157.5,318.2 155.8,314.7 170.1,307.7 171.8,311.3"/><polygon points="177.5,324.9 164.7,331.1 160.3,322.2 173.2,316.0"/><polygon points="171.2,287.9 181.2,289.2 187.2,294.5 176.9,299.5"/><polygon points="167.1,290.9 172.3,301.5 163.0,306.0 157.8,295.4"/><polygon points="159.0,308.6 154.1,311.0 148.4,299.4 153.4,296.9"/><polygon points="142.0,284.8 142.1,284.4 163.0,287.1 146.9,294.9"/><polygon points="410.6,152.4 404.0,157.0 393.3,141.8 400.0,137.2"/><polygon points="380.9,162.8 375.2,154.6 388.5,145.3 394.2,153.4"/><polygon points="400.2,160.6 385.6,170.9 383.3,167.5 397.9,157.2"/><polygon points="421.6,135.0 419.0,147.4 415.3,150.0 410.3,142.9"/><polygon points="415.3,125.8 422.9,127.3 422.7,128.5 407.9,138.9 404.2,133.7"/><polygon points="382.6,125.6 396.5,125.1 405.9,125.7 390.3,136.6"/><polygon points="376.1,125.7 386.3,140.3 382.5,143.0 372.3,128.4"/><polygon points="378.1,145.5 371.7,150.0 362.0,136.2 368.4,131.7"/><polygon points="354.6,127.4 358.4,126.8 369.1,125.6 358.5,133.0"/><polygon points="354.2,190.6 342.9,186.1 339.5,176.8 348.0,173.7"/><polygon points="364.0,185.7 359.2,189.1 352.8,171.6 358.1,169.7"/><polygon points="374.6,164.3 380.8,173.2 368.5,181.9 363.5,168.3"/><polygon points="363.3,147.8 371.4,159.2 360.2,163.3 355.5,150.7"/><polygon points="355.4,165.4 348.3,168.0 343.5,154.7 350.5,152.2"/><polygon points="343.8,169.7 337.4,172.1 332.5,158.7 338.9,156.3"/><polygon points="344.1,130.3 350.2,129.2 359.9,143.1 350.1,146.7"/><polygon points="341.3,139.2 344.8,148.6 331.1,153.6 327.6,144.2"/><polygon points="323.2,134.1 338.9,130.6 340.2,134.2 325.3,139.7"/><polygon points="281.5,349.0 271.1,358.4 265.0,351.6 275.5,342.2"/><polygon points="261.4,347.3 254.0,339.0 264.1,329.9 271.6,338.2"/><polygon points="295.3,328.0 294.9,337.1 285.5,345.6 281.2,340.7"/><polygon points="280.6,314.4 294.8,321.8 288.0,328.0 278.0,316.8"/><polygon points="284.1,331.1 277.7,336.8 268.1,326.0 274.4,320.3"/><polygon points="261.7,311.2 267.3,307.3 276.4,312.0 268.7,319.0"/><polygon points="241.6,325.8 249.6,320.2 256.3,329.7 250.1,335.3"/><polygon points="253.1,317.2 258.1,313.6 265.6,321.9 260.0,326.9"/><polygon points="232.9,365.5 233.0,353.5 246.2,353.6"/><polygon points="232.7,340.9 232.8,331.4 237.6,327.9 241.8,332.7"/><polygon points="233.5,348.4 233.5,346.4 244.3,336.7 253.2,346.6 251.1,348.5"/><polygon points="233.8,371.5 244.8,361.6 253.9,371.7 237.0,374.1"/><polygon points="249.1,358.0 256.9,351.0 266.7,361.9 259.0,368.9"/><polygon points="130.8,312.8 137.3,296.0 139.2,291.7 145.8,305.5"/><polygon points="131.7,320.3 147.8,312.5 156.8,330.9 140.6,338.7"/><polygon points="120.7,349.6 124.6,332.9 126.6,326.5 134.5,342.9"/><polygon points="176.5,371.3 179.6,377.5 164.2,395.9 163.0,396.1 159.4,374.1"/><polygon points="154.1,341.5 160.5,338.4 172.7,363.7 158.2,366.1"/><polygon points="137.8,349.0 146.6,344.8 151.0,371.6 141.8,373.1"/><polygon points="118.2,376.9 118.5,369.7 120.2,357.7 130.6,352.7 134.1,374.2"/><polygon points="139.5,381.1 152.4,379.0 155.4,397.6 142.6,399.8"/><polygon points="119.0,403.4 117.8,387.5 117.9,384.9 132.0,382.6 135.0,400.8"/><polygon points="502.0,303.0 499.1,316.0 498.8,316.7 492.0,311.3 499.9,301.3"/><polygon points="488.7,308.1 481.0,302.0 488.4,292.8 496.0,298.8"/><polygon points="504.0,286.2 502.7,297.7 491.5,288.8 497.5,281.2"/><polygon points="505.7,269.4 505.5,280.2 505.3,282.0 499.4,277.4"/><polygon points="455.4,252.3 459.6,246.4 477.8,259.5 473.6,265.3"/><polygon points="460.0,285.4 455.2,281.6 466.5,267.3 470.8,270.3"/><polygon points="448.8,259.6 451.5,255.8 463.1,264.2 459.9,268.3"/><polygon points="451.2,278.5 441.4,270.7 446.5,263.6 456.7,271.6"/><polygon points="496.8,273.0 490.5,281.1 477.4,270.8 482.9,263.1"/><polygon points="467.6,291.6 463.7,288.6 473.7,274.7 478.2,278.3"/><polygon points="487.3,285.8 477.1,298.8 471.7,294.5 481.9,281.6"/><polygon points="503.8,247.9 504.6,262.9 504.6,263.5 500.7,268.5 492.0,262.2 502.8,247.1"/><polygon points="487.2,258.6 479.9,253.3 490.5,238.6 497.8,243.8"/><polygon points="501.3,222.6 502.4,229.5 503.7,241.2 493.3,233.7"/><polygon points="499.3,213.4 499.7,215.6 491.2,227.4 479.2,218.7 480.0,217.6"/><polygon points="479.7,243.8 475.0,250.3 462.6,241.4 467.3,234.9"/><polygon points="488.0,232.1 482.8,239.4 470.5,230.5 475.8,223.3"/><polygon points="302.6,248.7 305.3,251.6 293.7,262.6 291.0,259.7"/><polygon points="308.1,255.3 313.3,260.8 302.3,271.1 297.2,265.6"/><polygon points="298.5,274.6 292.6,280.1 282.1,269.0 288.0,263.4"/><polygon points="289.1,236.1 289.6,236.1 298.6,245.7 290.4,253.5 281.2,243.6"/><polygon points="271.6,235.3 283.8,235.0 277.1,241.2"/><polygon points="261.5,247.4 267.0,236.3 274.6,244.4 266.2,252.4"/><polygon points="277.9,248.4 286.4,257.4 278.4,265.0 269.9,255.9"/><polygon points="267.2,278.5 280.5,275.7 288.1,283.7 279.6,291.7"/><polygon points="269.1,302.7 265.2,284.4 276.2,296.0"/><polygon points="263.5,273.0 259.3,252.9 275.8,270.5"/><polygon points="281.8,309.1 274.1,305.1 287.6,292.4 293.2,298.4"/><polygon points="306.4,312.3 298.0,317.6 287.2,311.9 297.2,302.5"/><polygon points="299.5,297.8 290.7,288.4 295.0,284.4 303.8,293.7"/><polygon points="298.8,281.5 306.1,274.6 314.3,283.2 306.9,290.2"/><polygon points="318.9,304.7 311.2,309.6 303.0,300.9 309.5,294.8"/><polygon points="327.0,296.5 326.3,300.3 323.3,302.2 313.0,291.3 317.8,286.7"/><polygon points="331.1,280.0 328.7,292.4 323.6,287.0"/><polygon points="316.7,265.0 327.9,276.8 321.5,282.9 310.3,271.0"/><polygon points="200.1,431.1 197.2,425.0 207.0,419.5 210.3,425.4"/><polygon points="215.5,434.5 204.0,439.7 201.7,434.9 212.4,428.9"/><polygon points="190.2,438.3 186.2,431.0 193.6,426.8 197.4,435.0"/><polygon points="201.0,441.8 193.5,445.2 191.4,441.5 199.3,437.9"/><polygon points="213.2,422.7 210.2,417.3 217.4,413.2 220.4,418.6"/><polygon points="220.1,411.5 225.4,408.5 228.7,414.2 223.3,417.2"/><polygon points="234.6,425.8 227.0,429.2 223.4,421.2 229.9,417.5"/><polygon points="223.8,431.0 219.1,433.2 214.8,425.6 220.0,422.7"/><polygon points="228.7,408.3 228.0,407.0 237.6,401.6 238.2,407.2"/><polygon points="239.6,423.5 238.2,424.2 231.0,411.4 238.2,410.6"/><polygon points="212.9,393.5 214.1,403.0 203.4,404.3 201.0,400.1"/><polygon points="215.1,406.8 215.5,410.4 208.4,414.4 204.9,408.0"/><polygon points="188.7,379.2 194.0,378.6 195.6,391.5"/><polygon points="212.2,386.5 212.5,388.8 199.9,395.9 198.9,388.1"/><polygon points="197.8,378.5 211.0,376.9 211.7,382.4 198.5,384.0"/><polygon points="235.9,391.6 236.6,398.1 229.9,401.9 224.9,393.0"/><polygon points="226.3,403.9 219.0,408.0 217.3,393.9 220.4,393.5"/><polygon points="227.6,374.9 229.9,374.6 234.3,378.0 235.4,387.5 229.3,388.3"/><polygon points="214.7,376.1 223.9,375.0 224.5,380.4 215.4,381.5"/><polygon points="224.9,383.7 225.6,389.1 216.5,390.2 215.8,384.8"/><polygon points="176.9,394.0 185.6,401.3 182.1,403.2"/><polygon points="173.0,407.5 168.7,399.8 173.3,394.3 178.9,404.3"/><polygon points="176.5,389.9 185.1,379.6 185.2,379.6 187.8,384.2 176.9,390.3"/><polygon points="189.1,387.6 193.7,395.8 188.1,399.0 180.4,392.5"/><polygon points="184.3,427.5 179.9,419.6 187.3,415.5 191.7,423.3"/><polygon points="177.8,416.4 174.7,410.9 182.6,406.5 185.7,412.0"/><polygon points="202.1,410.6 205.1,415.9 195.2,421.4 192.3,416.0"/><polygon points="186.3,404.9 195.7,399.7 199.8,407.0 190.4,412.2"/><polygon points="143.5,465.0 141.9,462.6 154.1,461.2 156.2,478.8 154.2,477.1"/><polygon points="161.2,461.8 187.9,458.7 188.1,459.4 174.3,491.4 167.4,486.8 163.8,483.6"/><polygon points="215.7,185.5 223.2,179.3 230.2,189.0 222.3,194.6"/><polygon points="200.5,199.5 207.9,192.3 211.8,189.1 217.8,197.5 205.4,206.4"/><polygon points="212.8,217.4 208.1,210.9 218.2,203.6 222.9,210.2"/><polygon points="229.2,218.4 218.6,226.0 215.2,221.2 225.8,213.7"/><polygon points="238.2,200.3 243.4,207.6 232.7,215.3 227.4,208.0"/><polygon points="233.2,192.4 235.9,196.2 224.3,204.6 221.6,200.8"/><polygon points="186.0,214.8 192.1,207.6 196.4,203.3 201.9,210.9 188.6,220.4"/><polygon points="205.1,214.7 215.0,228.4 211.1,231.2 201.2,217.5"/><polygon points="206.6,233.7 197.9,240.0 191.2,225.4 197.4,221.0"/><polygon points="204.4,253.9 200.4,245.2 212.1,236.8 217.6,244.5"/><polygon points="231.1,261.9 226.2,264.2 219.3,249.3 221.1,248.0"/><polygon points="221.5,265.6 211.8,270.1 206.8,259.2 215.6,252.9"/><polygon points="222.2,241.8 216.1,233.4 224.2,227.5 230.3,236.0"/><polygon points="243.4,255.2 235.2,259.0 225.8,245.8 232.9,240.7"/><polygon points="257.5,243.8 254.2,250.4 248.8,252.9 242.0,243.5 252.1,236.3"/><polygon points="260.1,229.2 263.6,234.1 260.4,240.4 255.0,232.8"/><polygon points="247.5,232.3 238.9,238.5 229.2,224.9 237.8,218.7"/><polygon points="246.5,211.7 257.0,226.3 252.5,229.5 242.0,214.9"/><polygon points="168.6,238.2 178.4,224.5 182.1,220.1 187.6,231.8 169.5,240.2"/><polygon points="190.3,237.1 192.9,242.7 174.4,251.3 171.7,245.7"/><polygon points="153.9,261.0 154.7,259.5 164.6,243.2 169.5,253.8"/><polygon points="145.0,279.1 145.6,277.8 150.1,269.0 156.2,266.2 163.2,281.4"/><polygon points="160.9,263.4 170.1,259.1 174.5,268.6 165.3,272.9"/><polygon points="176.6,272.9 181.9,284.5 181.9,284.5 169.8,282.9 167.2,277.3"/><polygon points="175.2,257.3 195.2,248.0 197.9,253.9 177.9,263.2"/><polygon points="200.5,259.3 206.6,272.3 196.8,276.9 190.7,263.8"/><polygon points="192.1,279.6 186.2,282.4 179.7,268.4 185.6,265.6"/><polygon points="267.3,382.5 274.6,386.5 267.1,400.1 259.8,396.0"/><polygon points="255.8,376.9 257.2,376.7 262.7,379.8 255.1,393.6 248.5,389.9"/><polygon points="239.3,385.4 238.6,378.7 250.3,377.1 244.2,388.1"/><polygon points="248.9,408.7 264.1,407.0 259.8,414.7"/><polygon points="250.8,429.2 244.4,423.3 242.9,410.8 256.8,418.5"/><polygon points="242.3,404.6 240.8,391.9 260.1,402.6"/><polygon points="282.5,419.4 297.9,427.9 286.1,431.4"/><polygon points="260.9,438.7 254.7,433.1 258.2,426.9 273.0,435.1"/><polygon points="278.3,420.0 282.2,432.9 279.7,433.7 272.8,429.8"/><polygon points="260.8,422.4 267.1,411.1 275.4,415.8 269.1,427.0"/><polygon points="305.0,403.6 310.2,406.5 302.4,424.5 295.5,420.7"/><polygon points="293.4,397.2 299.9,400.8 290.5,417.8 283.9,414.2"/><polygon points="276.0,394.0 279.1,388.3 289.4,394.0 286.2,399.7"/><polygon points="269.4,406.6 274.1,398.1 283.7,403.4 279.0,412.0"/></g><g fill="none" stroke-linecap="round" stroke-linejoin="round"><path d="M429.3,234.7 L411.5,213.1 L399.3,191.8" stroke="#1a0a2a" stroke-width="3.4"/><path d="M399.3,191.8 L388.6,171.5 L370.5,151.0" stroke="#1a0a2a" stroke-width="3.4"/><path d="M429.3,234.7 L458.1,243.1 L481.5,262.8" stroke="#1a0a2a" stroke-width="3.4"/><path d="M399.3,191.8 L429.0,171.0 L459.0,172.4" stroke="#1a0a2a" stroke-width="3.4"/><path d="M481.5,262.8 L468.9,295.6 L446.6,322.4" stroke="#1a0a2a" stroke-width="3.4"/><path d="M399.3,191.8 L371.1,213.5 L342.4,234.4" stroke="#1a0a2a" stroke-width="3.4"/><path d="M342.4,234.4 L311.9,255.6 L292.1,276.5" stroke="#1a0a2a" stroke-width="3.4"/><path d="M292.1,276.5 L261.6,278.6 L231.8,291.8" stroke="#1a0a2a" stroke-width="3.4"/><path d="M231.8,291.8 L249.0,317.5 L260.8,340.7" stroke="#1a0a2a" stroke-width="3.4"/><path d="M260.8,340.7 L277.5,356.2 L299.5,374.2" stroke="#1a0a2a" stroke-width="3.4"/><path d="M299.5,374.2 L285.8,389.6 L270.1,408.1" stroke="#1a0a2a" stroke-width="3.4"/><path d="M299.5,374.2 L317.6,363.1 L330.8,340.7" stroke="#1a0a2a" stroke-width="3.4"/><path d="M330.8,340.7 L352.8,361.3 L381.4,366.1" stroke="#1a0a2a" stroke-width="3.4"/><path d="M381.4,366.1 L399.7,383.8 L417.4,398.3" stroke="#1a0a2a" stroke-width="3.4"/><path d="M231.8,291.8 L206.5,308.6 L189.9,330.7" stroke="#1a0a2a" stroke-width="3.4"/><path d="M189.9,330.7 L161.7,331.4 L143.8,359.1" stroke="#1a0a2a" stroke-width="3.4"/><path d="M231.8,291.8 L219.2,269.7 L206.0,238.7" stroke="#1a0a2a" stroke-width="3.4"/><path d="M270.1,408.1 L282.0,435.0 L295.2,464.9" stroke="#1a0a2a" stroke-width="3.4"/><path d="M295.2,464.9 L276.6,481.6 L256.7,492.7" stroke="#1a0a2a" stroke-width="3.4"/><path d="M256.7,492.7 L244.2,473.0 L228.5,454.2" stroke="#1a0a2a" stroke-width="3.4"/><path d="M228.5,454.2 L211.0,472.8 L204.8,490.5" stroke="#1a0a2a" stroke-width="3.4"/><path d="M204.8,490.5 L184.3,478.7 L168.1,471.4" stroke="#1a0a2a" stroke-width="3.4"/><path d="M168.1,471.4 L164.0,457.2 L153.1,431.0" stroke="#1a0a2a" stroke-width="3.4"/><path d="M228.5,454.2 L217.3,435.9 L206.7,406.3" stroke="#1a0a2a" stroke-width="3.4"/><path d="M295.2,464.9 L319.3,455.5 L344.5,433.2" stroke="#1a0a2a" stroke-width="3.4"/><path d="M330.8,340.7 L347.3,318.3 L372.8,294.4" stroke="#1a0a2a" stroke-width="3.4"/><path d="M342.4,234.4 L315.8,210.7 L286.0,183.7" stroke="#1a0a2a" stroke-width="3.4"/><path d="M429.3,234.7 L387.3,242.7 L342.4,234.4" stroke="#1a0a2a" stroke-width="3.4"/><path d="M228.5,454.2 L192.0,450.6 L153.1,431.0" stroke="#1a0a2a" stroke-width="3.4"/><path d="M153.1,431.0 L179.6,423.3 L206.7,406.3" stroke="#1a0a2a" stroke-width="3.4"/><path d="M446.6,322.4 L413.1,343.7 L381.4,366.1" stroke="#1a0a2a" stroke-width="3.4"/><path d="M459.0,172.4 L423.5,137.0 L370.5,151.0" stroke="#1a0a2a" stroke-width="3.4"/><path d="M189.9,330.7 L207.4,375.3 L206.7,406.3" stroke="#1a0a2a" stroke-width="3.4"/><path d="M330.8,340.7 L127.4,313.4" stroke="#1a0a2a" stroke-width="4.8"/><path d="M330.8,340.7 L463.8,141.6" stroke="#1a0a2a" stroke-width="4.8"/><path d="M330.8,340.7 L364.7,463.2" stroke="#1a0a2a" stroke-width="4.8"/><path d="M429.3,234.7 L411.5,213.1 L399.3,191.8" stroke="#ff2bd6" stroke-width="1.8"/><path d="M399.3,191.8 L388.6,171.5 L370.5,151.0" stroke="#ff2bd6" stroke-width="1.8"/><path d="M429.3,234.7 L458.1,243.1 L481.5,262.8" stroke="#ff2bd6" stroke-width="1.8"/><path d="M399.3,191.8 L429.0,171.0 L459.0,172.4" stroke="#ff2bd6" stroke-width="1.8"/><path d="M481.5,262.8 L468.9,295.6 L446.6,322.4" stroke="#ff2bd6" stroke-width="1.8"/><path d="M399.3,191.8 L371.1,213.5 L342.4,234.4" stroke="#ff2bd6" stroke-width="1.8"/><path d="M342.4,234.4 L311.9,255.6 L292.1,276.5" stroke="#ff2bd6" stroke-width="1.8"/><path d="M292.1,276.5 L261.6,278.6 L231.8,291.8" stroke="#ff2bd6" stroke-width="1.8"/><path d="M231.8,291.8 L249.0,317.5 L260.8,340.7" stroke="#ff2bd6" stroke-width="1.8"/><path d="M260.8,340.7 L277.5,356.2 L299.5,374.2" stroke="#ff2bd6" stroke-width="1.8"/><path d="M299.5,374.2 L285.8,389.6 L270.1,408.1" stroke="#ff2bd6" stroke-width="1.8"/><path d="M299.5,374.2 L317.6,363.1 L330.8,340.7" stroke="#ff2bd6" stroke-width="1.8"/><path d="M330.8,340.7 L352.8,361.3 L381.4,366.1" stroke="#ff2bd6" stroke-width="1.8"/><path d="M381.4,366.1 L399.7,383.8 L417.4,398.3" stroke="#ff2bd6" stroke-width="1.8"/><path d="M231.8,291.8 L206.5,308.6 L189.9,330.7" stroke="#ff2bd6" stroke-width="1.8"/><path d="M189.9,330.7 L161.7,331.4 L143.8,359.1" stroke="#ff2bd6" stroke-width="1.8"/><path d="M231.8,291.8 L219.2,269.7 L206.0,238.7" stroke="#ff2bd6" stroke-width="1.8"/><path d="M270.1,408.1 L282.0,435.0 L295.2,464.9" stroke="#ff2bd6" stroke-width="1.8"/><path d="M295.2,464.9 L276.6,481.6 L256.7,492.7" stroke="#ff2bd6" stroke-width="1.8"/><path d="M256.7,492.7 L244.2,473.0 L228.5,454.2" stroke="#ff2bd6" stroke-width="1.8"/><path d="M228.5,454.2 L211.0,472.8 L204.8,490.5" stroke="#ff2bd6" stroke-width="1.8"/><path d="M204.8,490.5 L184.3,478.7 L168.1,471.4" stroke="#ff2bd6" stroke-width="1.8"/><path d="M168.1,471.4 L164.0,457.2 L153.1,431.0" stroke="#ff2bd6" stroke-width="1.8"/><path d="M228.5,454.2 L217.3,435.9 L206.7,406.3" stroke="#ff2bd6" stroke-width="1.8"/><path d="M295.2,464.9 L319.3,455.5 L344.5,433.2" stroke="#ff2bd6" stroke-width="1.8"/><path d="M330.8,340.7 L347.3,318.3 L372.8,294.4" stroke="#ff2bd6" stroke-width="1.8"/><path d="M342.4,234.4 L315.8,210.7 L286.0,183.7" stroke="#ff2bd6" stroke-width="1.8"/><path d="M429.3,234.7 L387.3,242.7 L342.4,234.4" stroke="#ff2bd6" stroke-width="1.8"/><path d="M228.5,454.2 L192.0,450.6 L153.1,431.0" stroke="#ff2bd6" stroke-width="1.8"/><path d="M153.1,431.0 L179.6,423.3 L206.7,406.3" stroke="#ff2bd6" stroke-width="1.8"/><path d="M446.6,322.4 L413.1,343.7 L381.4,366.1" stroke="#ff2bd6" stroke-width="1.8"/><path d="M459.0,172.4 L423.5,137.0 L370.5,151.0" stroke="#ff2bd6" stroke-width="1.8"/><path d="M189.9,330.7 L207.4,375.3 L206.7,406.3" stroke="#ff2bd6" stroke-width="1.8"/><path d="M330.8,340.7 L127.4,313.4" stroke="#ff2bd6" stroke-width="3.2"/><path d="M330.8,340.7 L463.8,141.6" stroke="#ff2bd6" stroke-width="3.2"/><path d="M330.8,340.7 L364.7,463.2" stroke="#ff2bd6" stroke-width="3.2"/></g><path d="M141.3,466.7 L132.0,453.0 M132.0,453.0 L124.4,438.2 M124.4,438.2 L118.8,422.2 M118.8,422.2 L115.2,405.3 M115.2,405.3 L113.8,387.6 M113.8,387.6 L114.6,369.3 M114.6,369.3 L117.2,350.7 M117.2,350.7 L121.6,332.0 M121.6,332.0 L124.7,322.1 M130.7,304.9 L134.5,294.9 M134.5,294.9 L142.8,276.4 M142.8,276.4 L152.4,258.2 M152.4,258.2 L163.4,240.1 M163.4,240.1 L175.9,222.6 M175.9,222.6 L190.1,205.8 M190.1,205.8 L206.0,190.2 M206.0,190.2 L223.3,176.1 M223.3,176.1 L241.7,163.8 M241.7,163.8 L260.9,153.5 M260.9,153.5 L280.4,145.1 M280.4,145.1 L299.9,138.2 M299.9,138.2 L319.4,132.7 M319.4,132.7 L338.8,128.3 M338.8,128.3 L358.1,125.0 M358.1,125.0 L377.4,122.8 M377.4,122.8 L396.5,122.1 M396.5,122.1 L415.2,123.2 M415.2,123.2 L433.0,126.7 M433.0,126.7 L449.3,132.8 M449.3,132.8 L456.5,137.2 M469.8,147.2 L475.9,152.8 M475.9,152.8 L485.6,166.1 M485.6,166.1 L492.9,180.8 M492.9,180.8 L498.3,196.5 M498.3,196.5 L502.1,212.7 M502.1,212.7 L504.8,229.2 M504.8,229.2 L506.6,245.9 M506.6,245.9 L507.5,262.9 M507.5,262.9 L507.2,280.3 M507.2,280.3 L505.2,298.2 M505.2,298.2 L501.1,316.6 M501.1,316.6 L494.5,335.0 M494.5,335.0 L485.4,353.2 M485.4,353.2 L473.8,370.5 M473.8,370.5 L460.3,386.7 M460.3,386.7 L445.3,401.6 M445.3,401.6 L429.6,415.3 M429.6,415.3 L413.6,427.9 M413.6,427.9 L397.4,439.9 M397.4,439.9 L381.2,451.6 M381.2,451.6 L372.1,458.0 M357.1,468.3 L347.6,474.7 M347.6,474.7 L329.6,485.8 M329.6,485.8 L310.6,495.9 M310.6,495.9 L290.9,504.4 M290.9,504.4 L270.6,510.6 M270.6,510.6 L250.4,514.1 M250.4,514.1 L230.7,514.6 M230.7,514.6 L212.0,512.1 M212.0,512.1 L194.7,507.0 M194.7,507.0 L179.0,499.5 M179.0,499.5 L164.8,490.1 M164.8,490.1 L152.3,479.1 M152.3,479.1 L141.3,466.7" fill="none" stroke="#00343f" stroke-width="3" stroke-linecap="round" stroke-linejoin="round"/><g fill="#00343f" stroke="#00e5ff" stroke-width="0.6"><circle cx="141.3" cy="466.7" r="2.6"/><circle cx="132.0" cy="453.0" r="2.6"/><circle cx="124.4" cy="438.2" r="2.6"/><circle cx="118.8" cy="422.2" r="2.6"/><circle cx="115.2" cy="405.3" r="2.6"/><circle cx="113.8" cy="387.6" r="2.6"/><circle cx="114.6" cy="369.3" r="2.6"/><circle cx="117.2" cy="350.7" r="2.6"/><circle cx="121.6" cy="332.0" r="2.6"/><circle cx="127.4" cy="313.4" r="2.6"/><circle cx="134.5" cy="294.9" r="2.6"/><circle cx="142.8" cy="276.4" r="2.6"/><circle cx="152.4" cy="258.2" r="2.6"/><circle cx="163.4" cy="240.1" r="2.6"/><circle cx="175.9" cy="222.6" r="2.6"/><circle cx="190.1" cy="205.8" r="2.6"/><circle cx="206.0" cy="190.2" r="2.6"/><circle cx="223.3" cy="176.1" r="2.6"/><circle cx="241.7" cy="163.8" r="2.6"/><circle cx="260.9" cy="153.5" r="2.6"/><circle cx="280.4" cy="145.1" r="2.6"/><circle cx="299.9" cy="138.2" r="2.6"/><circle cx="319.4" cy="132.7" r="2.6"/><circle cx="338.8" cy="128.3" r="2.6"/><circle cx="358.1" cy="125.0" r="2.6"/><circle cx="377.4" cy="122.8" r="2.6"/><circle cx="396.5" cy="122.1" r="2.6"/><circle cx="415.2" cy="123.2" r="2.6"/><circle cx="433.0" cy="126.7" r="2.6"/><circle cx="449.3" cy="132.8" r="2.6"/><circle cx="463.8" cy="141.6" r="2.6"/><circle cx="475.9" cy="152.8" r="2.6"/><circle cx="485.6" cy="166.1" r="2.6"/><circle cx="492.9" cy="180.8" r="2.6"/><circle cx="498.3" cy="196.5" r="2.6"/><circle cx="502.1" cy="212.7" r="2.6"/><circle cx="504.8" cy="229.2" r="2.6"/><circle cx="506.6" cy="245.9" r="2.6"/><circle cx="507.5" cy="262.9" r="2.6"/><circle cx="507.2" cy="280.3" r="2.6"/><circle cx="505.2" cy="298.2" r="2.6"/><circle cx="501.1" cy="316.6" r="2.6"/><circle cx="494.5" cy="335.0" r="2.6"/><circle cx="485.4" cy="353.2" r="2.6"/><circle cx="473.8" cy="370.5" r="2.6"/><circle cx="460.3" cy="386.7" r="2.6"/><circle cx="445.3" cy="401.6" r="2.6"/><circle cx="429.6" cy="415.3" r="2.6"/><circle cx="413.6" cy="427.9" r="2.6"/><circle cx="397.4" cy="439.9" r="2.6"/><circle cx="381.2" cy="451.6" r="2.6"/><circle cx="364.7" cy="463.2" r="2.6"/><circle cx="347.6" cy="474.7" r="2.6"/><circle cx="329.6" cy="485.8" r="2.6"/><circle cx="310.6" cy="495.9" r="2.6"/><circle cx="290.9" cy="504.4" r="2.6"/><circle cx="270.6" cy="510.6" r="2.6"/><circle cx="250.4" cy="514.1" r="2.6"/><circle cx="230.7" cy="514.6" r="2.6"/><circle cx="212.0" cy="512.1" r="2.6"/><circle cx="194.7" cy="507.0" r="2.6"/><circle cx="179.0" cy="499.5" r="2.6"/><circle cx="164.8" cy="490.1" r="2.6"/><circle cx="152.3" cy="479.1" r="2.6"/></g><g fill="#00343f" stroke="#00e5ff" stroke-width="0.8"><rect x="124.4" y="310.4" width="6.0" height="6.0"/><rect x="460.8" y="138.6" width="6.0" height="6.0"/><rect x="361.7" y="460.2" width="6.0" height="6.0"/></g><g font-family="Georgia, serif" font-size="8" text-anchor="middle"><text x="429.3" y="237.7" stroke="#05060a" stroke-width="2.5" paint-order="stroke" fill="#aef7ff">Residential</text><text x="231.8" y="294.8" stroke="#05060a" stroke-width="2.5" paint-order="stroke" fill="#aef7ff">Garrison</text><text x="417.4" y="401.3" stroke="#05060a" stroke-width="2.5" paint-order="stroke" fill="#aef7ff">Residential</text><text x="342.4" y="237.4" stroke="#05060a" stroke-width="2.5" paint-order="stroke" fill="#aef7ff">Residential</text><text x="228.5" y="457.2" stroke="#05060a" stroke-width="2.5" paint-order="stroke" fill="#aef7ff">Noble</text><text x="330.8" y="343.7" stroke="#05060a" stroke-width="2.5" paint-order="stroke" fill="#aef7ff">Market</text><text x="204.8" y="493.5" stroke="#05060a" stroke-width="2.5" paint-order="stroke" fill="#aef7ff">Garrison</text><text x="344.5" y="436.2" stroke="#05060a" stroke-width="2.5" paint-order="stroke" fill="#aef7ff">Temple</text><text x="372.8" y="297.4" stroke="#05060a" stroke-width="2.5" paint-order="stroke" fill="#aef7ff">Residential</text><text x="153.1" y="434.0" stroke="#05060a" stroke-width="2.5" paint-order="stroke" fill="#aef7ff">Noble</text><text x="295.2" y="467.9" stroke="#05060a" stroke-width="2.5" paint-order="stroke" fill="#aef7ff">Residential</text><text x="399.3" y="194.8" stroke="#05060a" stroke-width="2.5" paint-order="stroke" fill="#aef7ff">Garrison</text><text x="256.7" y="495.7" stroke="#05060a" stroke-width="2.5" paint-order="stroke" fill="#aef7ff">Temple</text><text x="446.6" y="325.4" stroke="#05060a" stroke-width="2.5" paint-order="stroke" fill="#aef7ff">Residential</text><text x="381.4" y="369.1" stroke="#05060a" stroke-width="2.5" paint-order="stroke" fill="#aef7ff">Craftsmen</text><text x="286.0" y="186.7" stroke="#05060a" stroke-width="2.5" paint-order="stroke" fill="#aef7ff">Craftsmen</text><text x="299.5" y="377.2" stroke="#05060a" stroke-width="2.5" paint-order="stroke" fill="#aef7ff">Garrison</text><text x="459.0" y="175.4" stroke="#05060a" stroke-width="2.5" paint-order="stroke" fill="#aef7ff">Slums</text><text x="189.9" y="333.7" stroke="#05060a" stroke-width="2.5" paint-order="stroke" fill="#aef7ff">Craftsmen</text><text x="370.5" y="154.0" stroke="#05060a" stroke-width="2.5" paint-order="stroke" fill="#aef7ff">Craftsmen</text><text x="260.8" y="343.7" stroke="#05060a" stroke-width="2.5" paint-order="stroke" fill="#aef7ff">Craftsmen</text><text x="143.8" y="362.1" stroke="#05060a" stroke-width="2.5" paint-order="stroke" fill="#aef7ff">Garrison</text><text x="481.5" y="265.8" stroke="#05060a" stroke-width="2.5" paint-order="stroke" fill="#aef7ff">Residential</text><text x="292.1" y="279.5" stroke="#05060a" stroke-width="2.5" paint-order="stroke" fill="#aef7ff">Residential</text><text x="206.7" y="409.3" stroke="#05060a" stroke-width="2.5" paint-order="stroke" fill="#aef7ff">Slums</text><text x="168.1" y="474.4" stroke="#05060a" stroke-width="2.5" paint-order="stroke" fill="#aef7ff">Noble</text><text x="206.0" y="241.7" stroke="#05060a" stroke-width="2.5" paint-order="stroke" fill="#aef7ff">Residential</text><text x="270.1" y="411.1" stroke="#05060a" stroke-width="2.5" paint-order="stroke" fill="#aef7ff">Craftsmen</text></g><text x="315.0" y="20" text-anchor="middle" font-family="Georgia, serif" font-size="16" font-weight="bold" stroke="#05060a" stroke-width="3" paint-order="stroke" fill="#aef7ff">Caldwingate</text></svg>