<svg xmlns="http://www.w3.org/2000/svg" width="624" height="408" viewBox="0 0 624 408"><rect width="624" height="408" fill="#071925"/><g fill="#123a55"><rect x="12.0" y="12.0" width="60.0" height="12.0"/><rect x="120.0" y="12.0" width="36.0" height="12.0"/><rect x="540.0" y="12.0" width="72.0" height="12.0"/><rect x="12.0" y="24.0" width="60.0" height="12.0"/><rect x="120.0" y="24.0" width="36.0" height="12.0"/><rect x="540.0" y="24.0" width="72.0" height="12.0"/><rect x="12.0" y="36.0" width="60.0" height="12.0"/><rect x="120.0" y="36.0" width="36.0" height="12.0"/><rect x="360.0" y="36.0" width="144.0" height="12.0"/><rect x="540.0" y="36.0" width="72.0" height="12.0"/><rect x="12.0" y="48.0" width="60.0" height="12.0"/><rect x="120.0" y="48.0" width="36.0" height="12.0"/><rect x="360.0" y="48.0" width="144.0" height="12.0"/><rect x="540.0" y="48.0" width="72.0" height="12.0"/><rect x="12.0" y="60.0" width="60.0" height="12.0"/><rect x="120.0" y="60.0" width="36.0" height="12.0"/><rect x="360.0" y="60.0" width="144.0" height="12.0"/><rect x="540.0" y="60.0" width="72.0" height="12.0"/><rect x="12.0" y="72.0" width="600.0" height="12.0"/><rect x="12.0" y="84.0" width="60.0" height="12.0"/><rect x="120.0" y="84.0" width="36.0" height="12.0"/><rect x="252.0" y="84.0" width="360.0" height="12.0"/><rect x="12.0" y="96.0" width="60.0" height="12.0"/><rect x="120.0" y="96.0" width="36.0" height="12.0"/><rect x="252.0" y="96.0" width="72.0" height="12.0"/><rect x="360.0" y="96.0" width="144.0" height="12.0"/><rect x="540.0" y="96.0" width="72.0" height="12.0"/><rect x="12.0" y="108.0" width="60.0" height="12.0"/><rect x="120.0" y="108.0" width="36.0" height="12.0"/><rect x="252.0" y="108.0" width="72.0" height="12.0"/><rect x="360.0" y="108.0" width="144.0" height="12.0"/><rect x="540.0" y="108.0" width="72.0" height="12.0"/><rect x="12.0" y="120.0" width="60.0" height="12.0"/><rect x="120.0" y="120.0" width="36.0" height="12.0"/><rect x="252.0" y="120.0" width="72.0" height="12.0"/><rect x="396.0" y="120.0" width="12.0" height="12.0"/><rect x="540.0" y="120.0" width="72.0" height="12.0"/><rect x="12.0" y="132.0" width="60.0" height="12.0"/><rect x="132.0" y="132.0" width="12.0" height="12.0"/><rect x="252.0" y="132.0" width="72.0" height="12.0"/><rect x="396.0" y="132.0" width="12.0" height="12.0"/><rect x="540.0" y="132.0" width="72.0" height="12.0"/><rect x="36.0" y="144.0" width="24.0" height="12.0"/><rect x="132.0" y="144.0" width="12.0" height="12.0"/><rect x="252.0" y="144.0" width="72.0" height="12.0"/><rect x="396.0" y="144.0" width="12.0" height="12.0"/><rect x="540.0" y="144.0" width="72.0" height="12.0"/><rect x="36.0" y="156.0" width="24.0" height="12.0"/><rect x="132.0" y="156.0" width="12.0" height="12.0"/><rect x="300.0" y="156.0" width="12.0" height="12.0"/><rect x="396.0" y="156.0" width="12.0" height="12.0"/><rect x="576.0" y="156.0" width="12.0" height="12.0"/><rect x="12.0" y="168.0" width="72.0" height="12.0"/><rect x="132.0" y="168.0" width="12.0" height="12.0"/><rect x="300.0" y="168.0" width="12.0" height="12.0"/><rect x="396.0" y="168.0" width="12.0" height="12.0"/><rect x="576.0" y="168.0" width="12.0" height="12.0"/><rect x="12.0" y="180.0" width="72.0" height="12.0"/><rect x="120.0" y="180.0" width="84.0" height="12.0"/><rect x="300.0" y="180.0" width="12.0" height="12.0"/><rect x="396.0" y="180.0" width="12.0" height="12.0"/><rect x="576.0" y="180.0" width="12.0" height="12.0"/><rect x="12.0" y="192.0" width="72.0" height="12.0"/><rect x="120.0" y="192.0" width="84.0" height="12.0"/><rect x="300.0" y="192.0" width="12.0" height="12.0"/><rect x="396.0" y="192.0" width="12.0" height="12.0"/><rect x="576.0" y="192.0" width="12.0" height="12.0"/><rect x="12.0" y="204.0" width="192.0" height="12.0"/><rect x="276.0" y="204.0" width="48.0" height="12.0"/><rect x="396.0" y="204.0" width="12.0" height="12.0"/><rect x="468.0" y="204.0" width="120.0" height="12.0"/><rect x="12.0" y="216.0" width="72.0" height="12.0"/><rect x="120.0" y="216.0" width="84.0" height="12.0"/><rect x="276.0" y="216.0" width="48.0" height="12.0"/><rect x="360.0" y="216.0" width="84.0" height="12.0"/><rect x="468.0" y="216.0" width="120.0" height="12.0"/><rect x="12.0" y="228.0" width="72.0" height="12.0"/><rect x="132.0" y="228.0" width="12.0" height="12.0"/><rect x="276.0" y="228.0" width="312.0" height="12.0"/><rect x="36.0" y="240.0" width="12.0" height="12.0"/><rect x="60.0" y="240.0" width="12.0" height="12.0"/><rect x="132.0" y="240.0" width="12.0" height="12.0"/><rect x="276.0" y="240.0" width="48.0" height="12.0"/><rect x="360.0" y="240.0" width="84.0" height="12.0"/><rect x="468.0" y="240.0" width="108.0" height="12.0"/><rect x="36.0" y="252.0" width="12.0" height="12.0"/><rect x="60.0" y="252.0" width="12.0" height="12.0"/><rect x="132.0" y="252.0" width="12.0" height="12.0"/><rect x="396.0" y="252.0" width="12.0" height="12.0"/><rect x="552.0" y="252.0" width="12.0" height="12.0"/><rect x="36.0" y="264.0" width="48.0" height="12.0"/><rect x="132.0" y="264.0" width="12.0" height="12.0"/><rect x="156.0" y="264.0" width="36.0" height="12.0"/><rect x="396.0" y="264.0" width="12.0" height="12.0"/><rect x="552.0" y="264.0" width="12.0" height="12.0"/><rect x="36.0" y="276.0" width="48.0" height="12.0"/><rect x="132.0" y="276.0" width="12.0" height="12.0"/><rect x="156.0" y="276.0" width="36.0" height="12.0"/><rect x="396.0" y="276.0" width="12.0" height="12.0"/><rect x="552.0" y="276.0" width="12.0" height="12.0"/><rect x="36.0" y="288.0" width="48.0" height="12.0"/><rect x="132.0" y="288.0" width="12.0" height="12.0"/><rect x="156.0" y="288.0" width="36.0" height="12.0"/><rect x="348.0" y="288.0" width="96.0" height="12.0"/><rect x="552.0" y="288.0" width="12.0" height="12.0"/><rect x="36.0" y="300.0" width="48.0" height="12.0"/><rect x="132.0" y="300.0" width="12.0" height="12.0"/><rect x="156.0" y="300.0" width="36.0" height="12.0"/><rect x="348.0" y="300.0" width="96.0" height="12.0"/><rect x="552.0" y="300.0" width="12.0" height="12.0"/><rect x="36.0" y="312.0" width="48.0" height="12.0"/><rect x="132.0" y="312.0" width="12.0" height="12.0"/><rect x="156.0" y="312.0" width="36.0" height="12.0"/><rect x="348.0" y="312.0" width="96.0" height="12.0"/><rect x="552.0" y="312.0" width="12.0" height="12.0"/><rect x="36.0" y="324.0" width="408.0" height="12.0"/><rect x="504.0" y="324.0" width="96.0" height="12.0"/><rect x="48.0" y="336.0" width="36.0" height="12.0"/><rect x="132.0" y="336.0" width="12.0" height="12.0"/><rect x="156.0" y="336.0" width="36.0" height="12.0"/><rect x="264.0" y="336.0" width="36.0" height="12.0"/><rect x="348.0" y="336.0" width="96.0" height="12.0"/><rect x="504.0" y="336.0" width="96.0" height="12.0"/><rect x="48.0" y="348.0" width="36.0" height="12.0"/><rect x="132.0" y="348.0" width="12.0" height="12.0"/><rect x="156.0" y="348.0" width="36.0" height="12.0"/><rect x="264.0" y="348.0" width="36.0" height="12.0"/><rect x="348.0" y="348.0" width="96.0" height="12.0"/><rect x="504.0" y="348.0" width="96.0" height="12.0"/><rect x="48.0" y="360.0" width="36.0" height="12.0"/><rect x="132.0" y="360.0" width="468.0" height="12.0"/><rect x="48.0" y="372.0" width="36.0" height="12.0"/><rect x="156.0" y="372.0" width="36.0" height="12.0"/><rect x="264.0" y="372.0" width="36.0" height="12.0"/><rect x="504.0" y="372.0" width="96.0" height="12.0"/><rect x="48.0" y="384.0" width="36.0" height="12.0"/><rect x="504.0" y="384.0" width="96.0" height="12.0"/></g><g fill="#1a5e78" stroke="#8fe6ff" stroke-width="2" stroke-linejoin="round"><rect x="12.0" y="12.0" width="60.0" height="132.0"/><rect x="120.0" y="12.0" width="36.0" height="120.0"/><rect x="12.0" y="168.0" width="72.0" height="72.0"/><rect x="120.0" y="180.0" width="84.0" height="48.0"/><rect x="48.0" y="264.0" width="36.0" height="132.0"/><rect x="156.0" y="264.0" width="36.0" height="120.0"/><rect x="252.0" y="72.0" width="72.0" height="84.0"/><rect x="360.0" y="36.0" width="144.0" height="84.0"/><rect x="540.0" y="12.0" width="72.0" height="144.0"/><rect x="276.0" y="204.0" width="48.0" height="48.0"/><rect x="360.0" y="216.0" width="84.0" height="36.0"/><rect x="264.0" y="336.0" width="36.0" height="48.0"/><rect x="348.0" y="288.0" width="96.0" height="72.0"/><rect x="468.0" y="204.0" width="108.0" height="48.0"/><rect x="504.0" y="324.0" width="96.0" height="72.0"/></g><g font-family="Georgia, serif" font-size="11" text-anchor="middle"><text x="42.0" y="82.0" stroke="#071925" stroke-width="3" paint-order="stroke" fill="#d8f4ff">1</text><text x="138.0" y="76.0" stroke="#071925" stroke-width="3" paint-order="stroke" fill="#d8f4ff">2</text><text x="48.0" y="208.0" stroke="#071925" stroke-width="3" paint-order="stroke" fill="#d8f4ff">3</text><text x="162.0" y="208.0" stroke="#071925" stroke-width="3" paint-order="stroke" fill="#d8f4ff">4</text><text x="66.0" y="334.0" stroke="#071925" stroke-width="3" paint-order="stroke" fill="#d8f4ff">5</text><text x="174.0" y="328.0" stroke="#071925" stroke-width="3" paint-order="stroke" fill="#d8f4ff">6</text><text x="288.0" y="118.0" stroke="#071925" stroke-width="3" paint-order="stroke" fill="#d8f4ff">7</text><text x="432.0" y="82.0" stroke="#071925" stroke-width="3" paint-order="stroke" fill="#d8f4ff">8</text><text x="576.0" y="88.0" stroke="#071925" stroke-width="3" paint-order="stroke" fill="#d8f4ff">9</text><text x="300.0" y="232.0" stroke="#071925" stroke-width="3" paint-order="stroke" fill="#d8f4ff">10</text><text x="402.0" y="238.0" stroke="#071925" stroke-width="3" paint-order="stroke" fill="#d8f4ff">11</text><text x="282.0" y="364.0" stroke="#071925" stroke-width="3" paint-order="stroke" fill="#d8f4ff">12</text><text x="396.0" y="328.0" stroke="#071925" stroke-width="3" paint-order="stroke" fill="#d8f4ff">13</text><text x="522.0" y="232.0" stroke="#071925" stroke-width="3" paint-order="stroke" fill="#d8f4ff">14</text><text x="552.0" y="364.0" stroke="#071925" stroke-width="3" paint-order="stroke" fill="#d8f4ff">15</text></g></svg>