<svg xmlns="http://www.w3.org/2000/svg" width="576" height="396" viewBox="0 0 576 396"><rect width="576" height="396" fill="#183e56"/><g stroke-linejoin="round"><polygon points="0.0,0.0 17.7,0.0 20.2,22.5 0.0,23.4" fill="#1f4e6b" stroke="#1f4e6b" stroke-width="0.5"/><polygon points="17.7,0.0 42.1,0.0 40.0,21.2 20.2,22.6" fill="#1f4e6b" stroke="#1f4e6b" stroke-width="0.5"/><polygon points="42.1,0.0 62.7,0.0 65.0,20.8 40.1,20.0" fill="#1f4e6b" stroke="#1f4e6b" stroke-width="0.5"/><polygon points="62.7,0.0 86.4,0.0 87.2,15.2 75.3,23.5 65.1,21.5" fill="#1f4e6b" stroke="#1f4e6b" stroke-width="0.5"/><polygon points="86.4,0.0 111.4,0.0 105.1,22.1 87.2,15.2" fill="#1f4e6b" stroke="#1f4e6b" stroke-width="0.5"/><polygon points="111.4,0.0 127.0,0.0 131.7,23.7 105.1,21.8" fill="#1f4e6b" stroke="#1f4e6b" stroke-width="0.5"/><polygon points="127.0,0.0 153.0,0.0 154.1,13.4 146.4,19.7 130.9,19.7" fill="#1f4e6b" stroke="#1f4e6b" stroke-width="0.5"/><polygon points="153.0,0.0 181.5,0.0 179.8,13.0 166.3,19.2 154.1,13.4" fill="#1f4e6b" stroke="#1f4e6b" stroke-width="0.5"/><polygon points="181.5,0.0 202.2,0.0 206.2,15.4 195.2,26.7 179.8,13.0" fill="#1f4e6b" stroke="#1f4e6b" stroke-width="0.5"/><polygon points="202.2,0.0 225.5,0.0 218.4,16.0 206.2,15.4" fill="#1f4e6b" stroke="#1f4e6b" stroke-width="0.5"/><polygon points="225.5,0.0 236.1,0.0 241.7,15.0 227.2,24.9 218.4,16.0" fill="#1f4e6b" stroke="#1f4e6b" stroke-width="0.5"/><polygon points="236.1,0.0 259.2,0.0 256.2,18.9 241.7,15.0" fill="#1f4e6b" stroke="#1f4e6b" stroke-width="0.5"/><polygon points="259.2,0.0 283.9,0.0 276.2,21.0 268.9,22.9 256.6,16.5" fill="#1f4e6b" stroke="#1f4e6b" stroke-width="0.5"/><polygon points="283.9,0.0 294.3,0.0 303.8,21.8 294.5,30.1 290.4,30.7 276.2,21.0" fill="#1f4e6b" stroke="#1f4e6b" stroke-width="0.5"/><polygon points="294.3,0.0 323.8,0.0 323.6,11.5 310.6,21.9 303.8,21.8" fill="#1f4e6b" stroke="#1f4e6b" stroke-width="0.5"/><polygon points="323.8,0.0 353.9,0.0 352.5,20.7 337.5,22.4 323.6,11.5" fill="#1f4e6b" stroke="#1f4e6b" stroke-width="0.5"/><polygon points="353.9,0.0 376.2,0.0 380.7,14.4 377.6,20.3 352.5,21.7" fill="#1f4e6b" stroke="#1f4e6b" stroke-width="0.5"/><polygon points="376.2,0.0 401.1,0.0 399.0,11.8 380.7,14.4" fill="#1f4e6b" stroke="#1f4e6b" stroke-width="0.5"/><polygon points="401.1,0.0 423.3,0.0 420.8,22.6 406.3,21.6 399.0,11.8" fill="#1f4e6b" stroke="#1f4e6b" stroke-width="0.5"/><polygon points="423.3,0.0 443.3,0.0 444.3,18.7 436.9,24.5 420.9,21.0" fill="#1f4e6b" stroke="#1f4e6b" stroke-width="0.5"/><polygon points="443.3,0.0 462.2,0.0 464.6,22.7 444.3,18.7" fill="#1f4e6b" stroke="#1f4e6b" stroke-width="0.5"/><polygon points="462.2,0.0 482.7,0.0 481.3,16.7 464.4,20.8" fill="#1f4e6b" stroke="#1f4e6b" stroke-width="0.5"/><polygon points="482.7,0.0 504.7,0.0 507.4,14.1 490.5,23.6 481.3,16.7" fill="#1f4e6b" stroke="#1f4e6b" stroke-width="0.5"/><polygon points="504.7,0.0 533.3,0.0 530.7,12.7 508.1,18.0" fill="#1f4e6b" stroke="#1f4e6b" stroke-width="0.5"/><polygon points="533.3,0.0 551.8,0.0 555.6,15.2 549.6,22.2 539.2,22.9 530.7,12.7" fill="#3d7ea6" stroke="#3d7ea6" stroke-width="0.5"/><polygon points="551.8,0.0 576.0,0.0 576.0,14.3 555.6,15.2" fill="#3d7ea6" stroke="#3d7ea6" stroke-width="0.5"/><polygon points="0.0,48.9 0.0,23.4 20.2,22.5 20.2,44.6" fill="#1f4e6b" stroke="#1f4e6b" stroke-width="0.5"/><polygon points="20.2,44.6 20.2,22.6 38.7,21.3 43.3,38.7 38.7,46.2 27.4,50.7" fill="#1f4e6b" stroke="#1f4e6b" stroke-width="0.5"/><polygon points="43.3,38.7 38.4,19.9 66.2,20.8 57.8,39.7" fill="#1f4e6b" stroke="#1f4e6b" stroke-width="0.5"/><polygon points="57.8,39.7 65.9,21.6 75.3,23.5 82.4,42.1 63.0,48.6" fill="#1f4e6b" stroke="#1f4e6b" stroke-width="0.5"/><polygon points="82.4,42.1 75.3,23.5 87.2,15.2 104.9,22.0 102.9,35.7 85.0,43.8" fill="#1f4e6b" stroke="#1f4e6b" stroke-width="0.5"/><polygon points="102.9,35.7 104.9,21.8 127.5,23.4 129.1,42.3 112.4,46.4" fill="#1f4e6b" stroke="#1f4e6b" stroke-width="0.5"/><polygon points="128.9,40.5 127.2,19.7 146.4,19.7 149.7,40.5" fill="#1f4e6b" stroke="#1f4e6b" stroke-width="0.5"/><polygon points="149.9,41.7 146.4,19.7 154.1,13.4 166.3,19.2 167.9,38.4" fill="#1f4e6b" stroke="#1f4e6b" stroke-width="0.5"/><polygon points="167.9,38.4 166.3,19.2 179.8,13.0 195.2,26.7 195.2,29.0 174.3,42.8" fill="#1f4e6b" stroke="#1f4e6b" stroke-width="0.5"/><polygon points="195.2,29.0 195.2,26.7 206.2,15.4 218.4,16.0 227.2,24.9 227.6,37.0 223.6,39.5 202.4,38.1" fill="#1f4e6b" stroke="#1f4e6b" stroke-width="0.5"/><polygon points="227.6,37.0 227.2,24.9 241.7,15.0 252.4,17.9 246.2,38.5 238.8,42.0" fill="#1f4e6b" stroke="#1f4e6b" stroke-width="0.5"/><polygon points="253.3,14.8 268.9,22.9 264.4,43.0 246.2,38.5" fill="#1f4e6b" stroke="#1f4e6b" stroke-width="0.5"/><polygon points="267.4,48.4 264.4,43.0 268.9,22.9 276.2,21.0 290.4,30.7 282.5,46.7" fill="#1f4e6b" stroke="#1f4e6b" stroke-width="0.5"/><polygon points="294.5,30.1 303.8,21.8 310.6,21.9 321.0,40.0 306.1,47.4" fill="#1f4e6b" stroke="#1f4e6b" stroke-width="0.5"/><polygon points="321.0,40.0 310.6,21.9 323.6,11.5 337.5,22.4 327.8,42.0" fill="#1f4e6b" stroke="#1f4e6b" stroke-width="0.5"/><polygon points="327.8,42.0 337.5,22.4 353.3,20.6 356.4,39.3 350.8,46.1 331.5,47.7" fill="#1f4e6b" stroke="#1f4e6b" stroke-width="0.5"/><polygon points="356.4,39.3 353.5,21.6 377.6,20.3 382.8,33.3 374.1,44.6" fill="#1f4e6b" stroke="#1f4e6b" stroke-width="0.5"/><polygon points="382.8,33.3 377.6,20.3 380.7,14.4 399.0,11.8 406.3,21.6 396.0,35.2" fill="#1f4e6b" stroke="#1f4e6b" stroke-width="0.5"/><polygon points="406.3,21.6 418.5,22.4 418.5,48.9 401.6,46.9 396.0,35.2" fill="#1f4e6b" stroke="#1f4e6b" stroke-width="0.5"/><polygon points="418.5,20.5 436.9,24.5 440.1,40.5 436.9,45.9 418.5,47.2" fill="#3d7ea6" stroke="#3d7ea6" stroke-width="0.5"/><polygon points="440.1,40.5 436.9,24.5 444.3,18.7 462.9,22.4 464.2,40.5" fill="#3d7ea6" stroke="#3d7ea6" stroke-width="0.5"/><polygon points="464.3,41.9 462.8,21.2 481.3,16.7 490.5,23.6 490.5,40.6" fill="#3d7ea6" stroke="#3d7ea6" stroke-width="0.5"/><polygon points="490.5,39.5 490.5,23.6 511.3,11.9 516.5,39.5" fill="#3d7ea6" stroke="#3d7ea6" stroke-width="0.5"/><polygon points="516.7,40.5 512.3,17.1 530.7,12.7 539.2,22.9 531.5,39.5" fill="#3d7ea6" stroke="#3d7ea6" stroke-width="0.5"/><polygon points="539.1,48.0 531.5,39.5 539.2,22.9 549.6,22.2 560.1,38.7 551.6,47.5" fill="#3d7ea6" stroke="#3d7ea6" stroke-width="0.5"/><polygon points="576.0,14.3 576.0,38.7 560.1,38.7 549.6,22.2 555.6,15.2" fill="#fff8c1" stroke="#fff8c1" stroke-width="0.5"/><polygon points="0.0,63.2 0.0,48.9 20.3,44.6 27.4,50.7 26.9,59.9 16.0,69.8" fill="#1f4e6b" stroke="#1f4e6b" stroke-width="0.5"/><polygon points="26.9,59.9 27.4,50.7 38.7,46.2 51.2,58.7 42.4,72.3" fill="#1f4e6b" stroke="#1f4e6b" stroke-width="0.5"/><polygon points="38.7,46.2 43.3,38.7 57.8,39.7 63.0,48.6 61.0,56.4 51.2,58.7" fill="#1f4e6b" stroke="#1f4e6b" stroke-width="0.5"/><polygon points="61.0,56.4 63.0,48.6 82.4,42.1 85.0,43.8 87.1,55.7 69.3,66.8" fill="#1f4e6b" stroke="#1f4e6b" stroke-width="0.5"/><polygon points="87.1,55.7 85.0,43.8 102.9,35.7 112.4,46.4 109.2,58.4 93.4,61.1" fill="#1f4e6b" stroke="#1f4e6b" stroke-width="0.5"/><polygon points="109.2,58.4 112.4,46.4 127.3,42.8 134.3,61.6 125.7,70.9 116.5,68.5" fill="#3d7ea6" stroke="#3d7ea6" stroke-width="0.5"/><polygon points="134.3,61.6 126.5,40.5 151.0,40.5 149.2,60.7" fill="#1f4e6b" stroke="#1f4e6b" stroke-width="0.5"/><polygon points="149.2,60.7 150.9,41.5 167.9,38.4 174.3,42.8 176.1,52.8 154.0,65.1" fill="#1f4e6b" stroke="#1f4e6b" stroke-width="0.5"/><polygon points="176.1,52.8 174.3,42.8 195.2,29.0 202.4,38.1 199.5,56.4 194.9,60.6 183.3,60.1" fill="#1f4e6b" stroke="#1f4e6b" stroke-width="0.5"/><polygon points="199.5,56.4 202.4,38.1 223.6,39.5 218.6,59.4" fill="#1f4e6b" stroke="#1f4e6b" stroke-width="0.5"/><polygon points="218.6,59.4 223.6,39.5 227.6,37.0 238.8,42.0 242.3,59.5 236.8,67.5 223.5,67.5" fill="#3d7ea6" stroke="#3d7ea6" stroke-width="0.5"/><polygon points="242.3,59.5 238.8,42.0 246.2,38.5 264.4,43.0 267.4,48.4 263.7,59.5" fill="#1f4e6b" stroke="#1f4e6b" stroke-width="0.5"/><polygon points="265.6,64.2 263.7,59.5 267.4,48.4 282.5,46.7 292.2,58.0 287.5,69.9 284.8,71.5" fill="#3d7ea6" stroke="#3d7ea6" stroke-width="0.5"/><polygon points="282.5,46.7 290.4,30.7 294.5,30.1 306.1,47.4 303.6,54.6 292.2,58.0" fill="#1f4e6b" stroke="#1f4e6b" stroke-width="0.5"/><polygon points="303.6,54.6 306.1,47.4 321.0,40.0 327.8,42.0 331.5,47.7 330.2,55.0 312.8,63.8" fill="#1f4e6b" stroke="#1f4e6b" stroke-width="0.5"/><polygon points="330.2,55.1 331.5,47.7 350.8,46.1 356.0,66.0 348.6,71.7 335.5,65.8" fill="#3d7ea6" stroke="#3d7ea6" stroke-width="0.5"/><polygon points="356.0,66.0 350.8,46.1 356.4,39.3 374.1,44.6 378.0,59.6 370.9,66.8" fill="#3d7ea6" stroke="#3d7ea6" stroke-width="0.5"/><polygon points="378.0,59.6 374.1,44.6 382.8,33.3 396.0,35.2 401.6,46.9 391.5,61.1" fill="#3d7ea6" stroke="#3d7ea6" stroke-width="0.5"/><polygon points="391.5,61.1 401.6,46.9 416.9,48.7 418.2,60.7 415.1,66.9 397.6,69.6" fill="#3d7ea6" stroke="#3d7ea6" stroke-width="0.5"/><polygon points="418.2,60.7 416.7,47.3 436.9,45.9 441.7,59.6 436.6,65.3" fill="#fff7c1" stroke="#fff7c1" stroke-width="0.5"/><polygon points="441.7,59.5 436.9,45.9 440.1,40.5 465.3,40.5 463.4,56.9 455.5,62.3" fill="#fff7c0" stroke="#fff7c0" stroke-width="0.5"/><polygon points="463.4,56.9 465.2,41.8 489.7,40.6 492.0,58.5 486.2,68.9 482.9,69.8" fill="#e7f1dd" stroke="#e7f1dd" stroke-width="0.5"/><polygon points="492.0,58.5 489.5,39.5 517.7,39.5 513.9,58.5" fill="#d1dac8" stroke="#d1dac8" stroke-width="0.5"/><polygon points="513.9,58.5 517.5,40.4 531.5,39.5 539.1,48.0 535.2,63.2 519.5,67.8" fill="#a39574" stroke="#a39574" stroke-width="0.5"/><polygon points="535.2,63.2 539.1,48.0 551.6,47.5 558.0,61.9 542.4,69.7" fill="#3d7ea6" stroke="#3d7ea6" stroke-width="0.5"/><polygon points="576.0,38.7 576.0,67.5 569.2,67.5 558.0,61.9 551.6,47.5 560.1,38.7" fill="#fee9b6" stroke="#fee9b6" stroke-width="0.5"/><polygon points="0.0,92.0 0.0,63.2 16.0,69.8 17.8,81.8" fill="#1f4e6b" stroke="#1f4e6b" stroke-width="0.5"/><polygon points="17.8,81.8 16.0,69.8 26.9,59.9 42.4,72.3 43.6,78.5 41.5,83.0 30.1,89.2" fill="#1f4e6b" stroke="#1f4e6b" stroke-width="0.5"/><polygon points="43.6,78.5 42.4,72.3 51.2,58.7 61.0,56.4 69.3,66.8 69.3,76.9" fill="#1f4e6b" stroke="#1f4e6b" stroke-width="0.5"/><polygon points="69.3,76.9 69.3,66.8 87.1,55.7 93.4,61.1 91.7,80.1" fill="#1f4e6b" stroke="#1f4e6b" stroke-width="0.5"/><polygon points="91.7,80.1 93.4,61.1 109.2,58.4 116.5,68.5 100.1,85.8 95.5,84.7" fill="#3d7ea6" stroke="#3d7ea6" stroke-width="0.5"/><polygon points="100.1,85.8 116.5,68.5 125.7,70.9 132.0,87.8 127.5,92.2 108.6,95.1" fill="#65a65f" stroke="#65a65f" stroke-width="0.5"/><polygon points="132.0,87.8 125.7,70.9 134.3,61.6 149.2,60.7 154.0,65.1 157.3,79.3 156.3,80.9 138.4,88.6" fill="#3d7ea6" stroke="#3d7ea6" stroke-width="0.5"/><polygon points="157.3,79.3 154.0,65.1 176.1,52.8 183.3,60.1 176.2,77.8" fill="#3d7ea6" stroke="#3d7ea6" stroke-width="0.5"/><polygon points="176.2,77.8 183.3,60.1 194.9,60.6 202.7,80.1 193.8,89.1 186.4,89.7" fill="#3d7ea6" stroke="#3d7ea6" stroke-width="0.5"/><polygon points="202.7,80.1 194.9,60.6 199.5,56.4 218.6,59.4 223.5,67.5 214.6,80.3" fill="#3d7ea6" stroke="#3d7ea6" stroke-width="0.5"/><polygon points="214.6,80.3 223.5,67.5 236.8,67.5 244.8,83.1 237.7,92.1 221.0,90.9" fill="#589153" stroke="#589153" stroke-width="0.5"/><polygon points="236.8,67.5 242.3,59.5 263.7,59.5 265.6,64.2 257.7,83.8 244.8,83.1" fill="#3d7ea6" stroke="#3d7ea6" stroke-width="0.5"/><polygon points="265.6,64.2 284.8,71.5 281.6,85.5 257.0,85.5" fill="#578f52" stroke="#578f52" stroke-width="0.5"/><polygon points="287.5,69.9 292.2,58.0 303.6,54.6 312.8,63.8 312.8,82.5" fill="#3d7ea6" stroke="#3d7ea6" stroke-width="0.5"/><polygon points="312.8,77.6 312.8,63.7 330.1,55.0 335.5,65.8 321.7,80.8" fill="#3d7ea6" stroke="#3d7ea6" stroke-width="0.5"/><polygon points="335.5,65.8 348.6,71.7 347.6,82.1 327.8,88.7 321.7,80.8" fill="#52874d" stroke="#52874d" stroke-width="0.5"/><polygon points="347.6,82.1 348.6,71.7 356.0,66.0 370.9,66.8 375.5,89.2 373.1,92.7 352.4,89.5" fill="#548b4f" stroke="#548b4f" stroke-width="0.5"/><polygon points="375.5,89.2 370.9,66.8 378.0,59.6 391.5,61.1 397.6,69.6 396.7,85.2" fill="#ffebb7" stroke="#ffebb7" stroke-width="0.5"/><polygon points="396.7,85.5 397.6,69.6 415.1,66.9 421.3,80.5 417.9,85.5" fill="#e7f1dd" stroke="#e7f1dd" stroke-width="0.5"/><polygon points="421.3,80.5 415.1,66.9 418.2,60.7 436.6,65.3 434.5,78.4" fill="#65a65e" stroke="#65a65e" stroke-width="0.5"/><polygon points="434.5,78.4 436.6,65.3 441.8,59.5 455.5,62.3 455.5,84.6 444.1,86.9" fill="#64a45d" stroke="#64a45d" stroke-width="0.5"/><polygon points="458.9,86.4 455.5,84.6 455.5,62.3 463.4,56.9 482.9,69.8 475.7,81.1" fill="#dce6d3" stroke="#dce6d3" stroke-width="0.5"/><polygon points="486.2,68.9 492.0,58.5 513.9,58.5 519.5,67.8 518.4,71.5 499.2,79.6" fill="#aab2a3" stroke="#aab2a3" stroke-width="0.5"/><polygon points="500.8,98.1 499.2,79.6 518.4,71.5 524.3,85.5 517.2,95.5 504.5,98.9" fill="#355731" stroke="#355731" stroke-width="0.5"/><polygon points="524.3,85.5 518.4,71.5 519.5,67.8 535.2,63.2 542.4,69.7 544.0,78.7 535.3,87.2" fill="#c2b28b" stroke="#c2b28b" stroke-width="0.5"/><polygon points="553.2,82.2 544.0,78.7 542.4,69.7 558.0,61.9 569.2,67.5" fill="#fff6c0" stroke="#fff6c0" stroke-width="0.5"/><polygon points="0.0,100.4 0.0,92.0 17.8,81.8 30.1,89.2 27.5,106.7" fill="#1f4e6b" stroke="#1f4e6b" stroke-width="0.5"/><polygon points="27.6,106.9 27.5,106.7 30.1,89.2 41.5,83.0 56.5,101.3 42.7,112.2" fill="#1f4e6b" stroke="#1f4e6b" stroke-width="0.5"/><polygon points="56.5,101.3 41.5,83.0 43.6,78.5 69.3,76.9 67.3,101.8" fill="#1f4e6b" stroke="#1f4e6b" stroke-width="0.5"/><polygon points="67.5,99.2 69.3,76.9 91.7,80.1 95.5,84.7 82.7,101.3" fill="#1f4e6b" stroke="#1f4e6b" stroke-width="0.5"/><polygon points="88.9,111.4 82.7,101.3 95.5,84.7 100.1,85.8 108.6,95.1 106.0,109.8" fill="#3d7ea6" stroke="#3d7ea6" stroke-width="0.5"/><polygon points="128.5,121.3 127.5,92.2 132.0,87.8 138.4,88.6 148.8,110.9" fill="#65a65f" stroke="#65a65f" stroke-width="0.5"/><polygon points="148.8,110.9 138.4,88.6 156.3,80.9 164.7,102.8 153.3,111.7" fill="#61a05b" stroke="#61a05b" stroke-width="0.5"/><polygon points="164.7,102.8 156.3,80.9 157.3,79.3 176.2,77.8 186.4,89.7 176.0,104.7" fill="#53884d" stroke="#53884d" stroke-width="0.5"/><polygon points="178.1,108.8 176.0,104.7 186.4,89.7 193.8,89.1 215.3,123.9" fill="#4e8049" stroke="#4e8049" stroke-width="0.5"/><polygon points="205.9,108.8 193.8,89.1 202.7,80.1 214.6,80.3 221.0,90.9 215.1,105.4" fill="#599253" stroke="#599253" stroke-width="0.5"/><polygon points="215.1,105.4 221.0,90.9 237.7,92.1 239.2,99.8 226.4,112.6" fill="#5f9d59" stroke="#5f9d59" stroke-width="0.5"/><polygon points="239.2,99.8 237.7,92.1 244.8,83.1 259.0,83.9 262.6,103.7 254.8,111.6 250.0,110.5" fill="#5c9857" stroke="#5c9857" stroke-width="0.5"/><polygon points="262.6,103.7 259.3,85.5 281.6,85.5 286.3,94.8 278.7,105.8" fill="#4b7b46" stroke="#4b7b46" stroke-width="0.5"/><polygon points="286.3,94.8 281.6,85.5 284.8,71.5 287.5,69.9 308.0,80.1 300.6,95.7" fill="#558c4f" stroke="#558c4f" stroke-width="0.5"/><polygon points="309.8,76.5 321.7,80.8 327.8,88.7 327.3,99.5 318.8,107.2 306.3,104.1 300.6,95.7" fill="#4e8049" stroke="#4e8049" stroke-width="0.5"/><polygon points="327.3,99.5 327.8,88.7 347.6,82.1 352.4,89.5 345.1,106.3" fill="#52874d" stroke="#52874d" stroke-width="0.5"/><polygon points="345.1,106.3 352.4,89.5 373.1,92.7 373.8,102.6 347.4,111.4" fill="#50844b" stroke="#50844b" stroke-width="0.5"/><polygon points="374.1,106.9 373.1,92.7 375.5,89.2 396.9,85.2 401.6,106.0 399.3,110.2" fill="#63a25c" stroke="#63a25c" stroke-width="0.5"/><polygon points="401.6,106.0 397.0,85.5 417.9,85.5 421.5,101.1" fill="#589153" stroke="#589153" stroke-width="0.5"/><polygon points="421.5,101.1 417.9,85.5 421.3,80.5 434.5,78.4 444.1,86.9 436.3,103.6 427.8,105.4" fill="#5e9b58" stroke="#5e9b58" stroke-width="0.5"/><polygon points="436.3,103.6 444.1,86.9 455.5,84.6 458.9,86.4 464.1,106.2 462.7,109.3 446.2,111.9" fill="#4a7a46" stroke="#4a7a46" stroke-width="0.5"/><polygon points="464.1,106.2 458.9,86.4 475.7,81.1 485.5,100.8" fill="#3c6339" stroke="#3c6339" stroke-width="0.5"/><polygon points="475.7,81.1 482.9,69.8 486.2,68.9 499.2,79.6 500.8,98.1 491.4,103.4 485.5,100.8" fill="#4e8149" stroke="#4e8149" stroke-width="0.5"/><polygon points="517.2,95.5 524.3,85.5 535.3,87.2 542.1,102.9 532.5,112.5 532.0,112.5" fill="#6098b8" stroke="#6098b8" stroke-width="0.5"/><polygon points="542.1,102.9 535.3,87.2 544.0,78.7 553.2,82.2 558.6,94.5 550.7,102.6" fill="#64a45e" stroke="#64a45e" stroke-width="0.5"/><polygon points="576.0,67.5 576.0,94.5 558.6,94.5 553.2,82.2 569.2,67.5" fill="#609e5a" stroke="#609e5a" stroke-width="0.5"/><polygon points="0.0,122.3 0.0,100.4 27.5,106.7 27.6,106.9 19.5,124.4" fill="#1f4e6b" stroke="#1f4e6b" stroke-width="0.5"/><polygon points="19.5,124.4 27.6,106.9 42.7,112.2 47.5,127.1 42.2,132.4 21.9,129.2" fill="#1f4e6b" stroke="#1f4e6b" stroke-width="0.5"/><polygon points="47.5,127.1 42.7,112.2 56.5,101.3 64.2,101.7 67.1,122.0 60.1,128.8" fill="#1f4e6b" stroke="#1f4e6b" stroke-width="0.5"/><polygon points="67.1,122.0 63.8,98.6 82.7,101.3 88.9,111.4 83.7,124.6" fill="#1f4e6b" stroke="#1f4e6b" stroke-width="0.5"/><polygon points="87.3,131.1 83.7,124.6 88.9,111.4 106.0,109.8 112.1,118.4 106.3,129.3" fill="#3d7ea6" stroke="#3d7ea6" stroke-width="0.5"/><polygon points="106.0,109.8 108.6,95.1 127.5,92.2 128.4,118.7 112.1,118.4" fill="#5c9857" stroke="#5c9857" stroke-width="0.5"/><polygon points="132.8,128.3 130.6,120.2 148.8,110.9 153.3,111.7 158.8,126.0 151.6,139.3" fill="#62a25c" stroke="#62a25c" stroke-width="0.5"/><polygon points="158.8,126.0 153.3,111.7 164.7,102.8 176.0,104.7 178.1,108.8 173.8,126.0" fill="#65a65f" stroke="#65a65f" stroke-width="0.5"/><polygon points="172.5,131.3 178.1,108.8 200.8,118.0 200.9,118.8 191.8,132.2" fill="#64a55e" stroke="#64a55e" stroke-width="0.5"/><polygon points="200.9,118.8 200.2,110.9 215.1,105.4 226.4,112.6 230.7,123.7 230.5,125.1 220.4,134.2" fill="#5f9d59" stroke="#5f9d59" stroke-width="0.5"/><polygon points="230.7,123.7 226.4,112.6 239.2,99.7 250.0,110.5" fill="#63a35d" stroke="#63a35d" stroke-width="0.5"/><polygon points="230.5,125.1 230.7,123.7 250.0,110.5 254.8,111.6 258.6,125.5 246.4,133.9" fill="#c9c27e" stroke="#c9c27e" stroke-width="0.5"/><polygon points="258.6,125.5 254.8,111.6 262.6,103.7 278.7,105.8 283.4,120.0 267.8,130.4" fill="#9c9662" stroke="#9c9662" stroke-width="0.5"/><polygon points="283.4,120.0 278.7,105.8 286.3,94.8 300.6,95.7 306.3,104.1 293.5,124.1" fill="#497844" stroke="#497844" stroke-width="0.5"/><polygon points="293.5,124.1 306.3,104.1 318.8,107.2 322.3,121.6 313.1,131.5 296.3,128.7" fill="#b5af71" stroke="#b5af71" stroke-width="0.5"/><polygon points="322.3,121.6 318.8,107.2 327.3,99.5 345.1,106.3 347.4,111.4 347.3,115.8 334.8,125.2" fill="#a59f67" stroke="#a59f67" stroke-width="0.5"/><polygon points="347.3,115.8 347.4,111.4 377.3,101.5 373.6,119.8 358.3,125.6" fill="#558c50" stroke="#558c50" stroke-width="0.5"/><polygon points="373.6,119.8 376.2,107.2 399.3,110.2 402.3,123.7 399.1,129.0 380.7,129.0" fill="#5c9756" stroke="#5c9756" stroke-width="0.5"/><polygon points="402.3,123.8 399.3,110.2 401.6,106.0 421.5,101.1 427.8,105.4 422.4,123.8" fill="#5f9d59" stroke="#5f9d59" stroke-width="0.5"/><polygon points="422.4,123.7 427.8,105.4 436.3,103.6 446.2,111.9 444.2,126.0 428.9,132.4" fill="#4b7c47" stroke="#4b7c47" stroke-width="0.5"/><polygon points="444.2,126.0 446.2,111.9 462.7,109.3 468.3,123.4 453.7,132.8" fill="#5e9a58" stroke="#5e9a58" stroke-width="0.5"/><polygon points="468.3,123.4 462.7,109.3 464.1,106.2 485.5,100.8 491.4,103.4 490.1,118.8 469.4,124.0" fill="#3b6137" stroke="#3b6137" stroke-width="0.5"/><polygon points="500.8,98.1 504.5,98.9 516.2,122.3 512.2,130.3 510.8,130.4 489.8,121.8 491.4,103.4" fill="#457241" stroke="#457241" stroke-width="0.5"/><polygon points="516.2,122.2 504.5,98.9 517.2,95.5 532.0,112.5" fill="#525e39" stroke="#525e39" stroke-width="0.5"/><polygon points="545.0,131.3 532.5,112.5 542.1,102.9 550.7,102.6 561.1,120.5" fill="#64a45e" stroke="#64a45e" stroke-width="0.5"/><polygon points="576.0,94.5 576.0,122.0 561.1,120.5 550.7,102.6 558.6,94.5" fill="#53894e" stroke="#53894e" stroke-width="0.5"/><polygon points="0.0,146.2 0.0,122.3 19.5,124.4 21.9,129.2 18.4,146.2" fill="#1f4e6b" stroke="#1f4e6b" stroke-width="0.5"/><polygon points="17.9,149.1 21.9,129.2 42.2,132.4 41.5,146.9" fill="#1f4e6b" stroke="#1f4e6b" stroke-width="0.5"/><polygon points="41.5,148.5 42.2,132.4 47.5,127.1 60.1,128.8 66.2,148.5" fill="#1f4e6b" stroke="#1f4e6b" stroke-width="0.5"/><polygon points="66.2,148.3 60.1,128.8 67.1,122.0 83.7,124.6 87.3,131.1 83.7,147.4" fill="#3d7ea6" stroke="#3d7ea6" stroke-width="0.5"/><polygon points="83.9,146.6 87.3,131.1 106.3,129.3 114.1,149.7" fill="#f6e1af" stroke="#f6e1af" stroke-width="0.5"/><polygon points="106.3,129.3 112.1,118.4 130.2,118.7 132.8,128.2 121.9,146.9 113.2,147.2" fill="#5f9c59" stroke="#5f9c59" stroke-width="0.5"/><polygon points="134.8,158.1 121.9,146.9 132.7,128.3 152.5,139.8 136.2,157.9" fill="#5f9c59" stroke="#5f9c59" stroke-width="0.5"/><polygon points="150.3,141.8 158.8,126.0 180.4,126.0 173.7,141.8" fill="#65a65f" stroke="#65a65f" stroke-width="0.5"/><polygon points="178.3,154.2 173.7,141.8 178.0,131.6 191.8,132.2 196.6,146.1" fill="#64a55e" stroke="#64a55e" stroke-width="0.5"/><polygon points="196.6,146.1 191.8,132.2 200.9,118.8 220.1,134.0 208.4,149.2 203.7,150.2" fill="#cdc580" stroke="#cdc580" stroke-width="0.5"/><polygon points="220.8,133.9 230.5,125.1 246.4,133.9 245.8,146.4 237.6,153.5" fill="#c2bb79" stroke="#c2bb79" stroke-width="0.5"/><polygon points="245.8,146.4 246.4,133.9 258.6,125.5 267.8,130.4 269.8,141.8 262.1,150.5" fill="#ffffff" stroke="#ffffff" stroke-width="0.5"/><polygon points="269.8,141.8 267.8,130.4 283.4,120.0 293.5,124.1 296.3,128.7 291.3,144.2 284.3,147.6" fill="#76724a" stroke="#76724a" stroke-width="0.5"/><polygon points="291.3,144.2 296.3,128.7 313.1,131.5 317.7,145.2 307.0,156.8" fill="#a7a068" stroke="#a7a068" stroke-width="0.5"/><polygon points="317.7,145.2 313.1,131.5 322.3,121.6 334.8,125.2 338.8,142.7 334.3,148.9" fill="#b2ab6f" stroke="#b2ab6f" stroke-width="0.5"/><polygon points="338.8,142.7 334.8,125.2 347.3,115.8 358.3,125.6 357.0,139.8" fill="#9c9661" stroke="#9c9661" stroke-width="0.5"/><polygon points="357.0,139.8 358.3,125.6 373.6,119.8 380.7,129.0 374.1,145.8 365.0,147.6" fill="#4a7a45" stroke="#4a7a45" stroke-width="0.5"/><polygon points="374.1,145.8 380.7,129.0 399.1,129.0 400.7,138.6 380.9,150.0" fill="#ada66c" stroke="#ada66c" stroke-width="0.5"/><polygon points="400.7,138.6 399.1,129.0 402.3,123.8 422.4,123.8 428.9,132.4 428.2,141.3 424.6,146.2 406.2,146.2" fill="#a29c65" stroke="#a29c65" stroke-width="0.5"/><polygon points="428.2,141.3 428.9,132.4 444.2,126.0 453.7,132.8 454.1,149.2" fill="#c8e897" stroke="#c8e897" stroke-width="0.5"/><polygon points="454.1,147.8 453.7,132.8 468.3,123.4 469.4,124.0 476.2,142.5 467.2,150.6" fill="#96905e" stroke="#96905e" stroke-width="0.5"/><polygon points="476.2,142.5 469.4,124.0 495.9,117.3 484.0,142.8" fill="#4b7b46" stroke="#4b7b46" stroke-width="0.5"/><polygon points="493.1,123.2 510.8,130.4 493.7,150.5 484.0,142.8" fill="#c1ba79" stroke="#c1ba79" stroke-width="0.5"/><polygon points="512.2,130.3 516.2,122.3 532.0,112.5 532.5,112.5 545.3,131.7 520.1,139.4" fill="#6098b8" stroke="#6098b8" stroke-width="0.5"/><polygon points="520.7,144.9 520.1,139.4 544.9,131.8 548.1,141.0 537.6,155.0" fill="#6098b8" stroke="#6098b8" stroke-width="0.5"/><polygon points="576.0,122.0 576.0,149.8 563.4,150.0 548.1,141.0 544.8,131.4 561.1,120.5" fill="#c9c27e" stroke="#c9c27e" stroke-width="0.5"/><polygon points="0.0,166.5 0.0,146.2 20.3,146.2 21.6,166.5" fill="#1f4e6b" stroke="#1f4e6b" stroke-width="0.5"/><polygon points="21.3,161.0 20.5,148.8 42.9,146.8 42.3,166.3" fill="#1f4e6b" stroke="#1f4e6b" stroke-width="0.5"/><polygon points="42.3,167.1 42.8,148.5 66.0,148.5 62.0,165.2" fill="#1f4e6b" stroke="#1f4e6b" stroke-width="0.5"/><polygon points="62.0,165.2 66.0,148.3 83.1,147.5 87.9,167.9 84.1,174.0 67.4,173.5" fill="#3d7ea6" stroke="#3d7ea6" stroke-width="0.5"/><polygon points="87.9,167.9 82.8,146.4 110.8,149.4 106.7,166.3" fill="#3d7ea6" stroke="#3d7ea6" stroke-width="0.5"/><polygon points="112.9,174.5 106.7,166.3 111.3,147.3 121.9,146.9 134.8,158.1 126.5,175.1" fill="#51854c" stroke="#51854c" stroke-width="0.5"/><polygon points="136.2,157.9 152.5,139.8 152.8,139.8 163.8,161.9 156.8,170.9" fill="#62a15c" stroke="#62a15c" stroke-width="0.5"/><polygon points="153.8,141.8 173.7,141.8 179.7,158.0 163.8,161.9" fill="#d3f49e" stroke="#d3f49e" stroke-width="0.5"/><polygon points="174.4,156.0 196.6,146.1 203.7,150.2 199.1,166.9 185.7,170.7" fill="#c7bf7c" stroke="#c7bf7c" stroke-width="0.5"/><polygon points="212.8,180.0 199.1,166.9 203.7,150.2 208.4,149.2 221.6,160.7" fill="#a49b8f" stroke="#a49b8f" stroke-width="0.5"/><polygon points="208.4,149.2 220.5,133.5 237.6,153.5 236.2,158.5 221.6,160.7" fill="#a7a168" stroke="#a7a168" stroke-width="0.5"/><polygon points="236.2,158.5 237.6,153.5 245.8,146.4 262.1,150.5 264.1,166.2 246.5,171.2 241.8,169.2" fill="#aca295" stroke="#aca295" stroke-width="0.5"/><polygon points="264.6,170.9 262.1,150.5 269.8,141.8 284.3,147.6 281.9,164.4" fill="#f7fbff" stroke="#f7fbff" stroke-width="0.5"/><polygon points="281.9,164.4 284.3,147.6 291.3,144.2 307.0,156.8 306.8,164.8 293.0,170.3" fill="#8a8278" stroke="#8a8278" stroke-width="0.5"/><polygon points="306.7,169.6 307.0,156.8 317.7,145.2 334.3,148.9 338.4,167.4" fill="#ffffff" stroke="#ffffff" stroke-width="0.5"/><polygon points="338.3,166.9 334.3,148.9 338.8,142.7 357.0,139.8 365.0,147.6 360.5,160.9 345.6,168.3" fill="#f6fafe" stroke="#f6fafe" stroke-width="0.5"/><polygon points="360.5,160.9 365.0,147.6 374.1,145.8 380.9,150.0 386.6,160.4 375.5,174.4" fill="#877f75" stroke="#877f75" stroke-width="0.5"/><polygon points="386.6,160.4 380.9,150.0 400.7,138.6 406.2,146.3 400.4,162.5" fill="#968e83" stroke="#968e83" stroke-width="0.5"/><polygon points="400.4,162.5 406.2,146.2 424.6,146.2 428.5,167.7 401.8,164.9" fill="#9c9488" stroke="#9c9488" stroke-width="0.5"/><polygon points="428.2,165.8 424.6,146.2 428.2,141.3 452.6,148.7 444.6,167.0" fill="#847d73" stroke="#847d73" stroke-width="0.5"/><polygon points="444.6,167.0 453.1,147.6 467.2,150.6 473.2,168.7 450.8,174.9" fill="#6a6642" stroke="#6a6642" stroke-width="0.5"/><polygon points="472.9,167.7 467.2,150.6 476.2,142.5 484.0,142.8 493.7,150.5 495.5,156.6 486.4,167.2" fill="#928c5b" stroke="#928c5b" stroke-width="0.5"/><polygon points="493.7,150.5 510.8,130.4 512.2,130.3 520.1,139.4 520.7,144.9 512.8,159.5 509.2,160.9 495.5,156.6" fill="#6a6642" stroke="#6a6642" stroke-width="0.5"/><polygon points="520.7,144.9 537.6,155.0 538.9,165.4 529.2,170.1 512.8,159.5" fill="#6098b8" stroke="#6098b8" stroke-width="0.5"/><polygon points="538.9,165.4 537.6,155.0 548.1,141.0 563.4,150.0 547.1,169.2" fill="#c9c17d" stroke="#c9c17d" stroke-width="0.5"/><polygon points="576.0,149.8 576.0,176.1 550.6,174.6 547.1,169.2 563.4,150.0" fill="#a39d66" stroke="#a39d66" stroke-width="0.5"/><polygon points="0.0,184.5 0.0,166.5 17.6,166.5 21.6,184.5" fill="#1f4e6b" stroke="#1f4e6b" stroke-width="0.5"/><polygon points="21.4,183.6 16.1,159.8 42.9,166.4 40.7,178.4" fill="#1f4e6b" stroke="#1f4e6b" stroke-width="0.5"/><polygon points="40.7,178.4 42.8,167.0 62.0,165.2 67.4,173.5 60.6,187.1 48.0,187.9" fill="#1f4e6b" stroke="#1f4e6b" stroke-width="0.5"/><polygon points="60.6,187.1 67.4,173.5 84.1,174.0 88.2,187.0 68.2,197.1" fill="#3d7ea6" stroke="#3d7ea6" stroke-width="0.5"/><polygon points="88.2,187.0 84.1,174.0 87.9,167.9 106.7,166.3 112.9,174.5 104.1,191.5 93.7,191.5" fill="#f1ddac" stroke="#f1ddac" stroke-width="0.5"/><polygon points="104.1,191.5 112.9,174.5 126.5,175.1 134.1,186.5 115.0,203.3" fill="#599253" stroke="#599253" stroke-width="0.5"/><polygon points="134.1,186.5 126.5,175.1 134.8,158.1 136.2,157.9 156.8,170.9 156.8,176.3 134.4,186.6" fill="#52874d" stroke="#52874d" stroke-width="0.5"/><polygon points="156.8,177.0 156.8,170.9 163.8,161.9 176.5,158.8 185.7,170.7 183.3,180.3 176.2,184.3" fill="#c7c07c" stroke="#c7c07c" stroke-width="0.5"/><polygon points="183.3,180.2 185.7,170.7 199.1,166.9 212.0,179.2 196.8,191.0" fill="#b3a99c" stroke="#b3a99c" stroke-width="0.5"/><polygon points="213.2,179.3 221.6,160.7 236.2,158.5 241.8,169.2 225.4,185.6 221.8,185.8" fill="#aaa094" stroke="#aaa094" stroke-width="0.5"/><polygon points="225.4,185.6 241.8,169.2 246.5,171.2 251.3,190.7 242.8,198.5" fill="#5c5751" stroke="#5c5751" stroke-width="0.5"/><polygon points="251.3,190.7 246.5,171.2 268.5,165.0 271.0,184.9 263.4,191.8" fill="#756e66" stroke="#756e66" stroke-width="0.5"/><polygon points="271.0,184.9 269.0,169.2 281.9,164.4 293.0,170.3 290.1,189.4 287.6,190.9" fill="#5c5751" stroke="#5c5751" stroke-width="0.5"/><polygon points="290.1,189.4 293.0,170.3 311.3,163.0 313.0,194.0" fill="#5c5751" stroke="#5c5751" stroke-width="0.5"/><polygon points="312.8,191.2 311.7,169.2 337.6,167.4 330.5,190.4" fill="#5c5751" stroke="#5c5751" stroke-width="0.5"/><polygon points="330.5,190.4 337.8,166.8 345.6,168.3 357.1,188.4 341.5,199.4 338.5,199.3" fill="#5c5751" stroke="#5c5751" stroke-width="0.5"/><polygon points="357.1,188.4 345.6,168.3 360.5,160.9 375.5,174.4 376.1,180.8 362.5,189.5" fill="#6d675f" stroke="#6d675f" stroke-width="0.5"/><polygon points="376.1,180.8 375.5,174.4 386.6,160.4 400.4,162.5 401.8,164.9 400.1,180.8 390.4,189.1" fill="#706961" stroke="#706961" stroke-width="0.5"/><polygon points="400.1,180.8 401.8,164.9 426.5,167.5 422.4,185.9 420.4,186.9" fill="#5c5751" stroke="#5c5751" stroke-width="0.5"/><polygon points="422.4,185.9 426.9,165.7 444.6,167.0 450.8,174.9 450.1,185.6 435.1,193.1" fill="#6a6642" stroke="#6a6642" stroke-width="0.5"/><polygon points="450.1,185.6 450.8,174.9 471.7,169.2 474.0,190.9 457.0,192.4" fill="#6a6642" stroke="#6a6642" stroke-width="0.5"/><polygon points="474.0,190.9 471.6,167.7 486.4,167.2 495.1,184.7 486.8,195.3 479.7,194.9" fill="#868154" stroke="#868154" stroke-width="0.5"/><polygon points="495.1,184.7 486.4,167.2 495.5,156.6 509.2,160.9 506.9,183.2" fill="#7c774d" stroke="#7c774d" stroke-width="0.5"/><polygon points="506.9,183.2 509.2,160.9 512.8,159.5 529.2,170.1 524.6,183.4 516.5,188.7" fill="#8d8858" stroke="#8d8858" stroke-width="0.5"/><polygon points="524.6,183.4 529.2,170.1 538.9,165.4 547.1,169.2 550.6,174.6 546.2,192.6" fill="#6098b8" stroke="#6098b8" stroke-width="0.5"/><polygon points="576.0,176.1 576.0,195.8 546.2,192.6 550.6,174.6" fill="#a59f67" stroke="#a59f67" stroke-width="0.5"/><polygon points="0.0,204.8 0.0,184.5 20.9,184.5 23.2,204.8" fill="#1f4e6b" stroke="#1f4e6b" stroke-width="0.5"/><polygon points="23.0,202.9 20.8,183.7 40.7,178.4 48.0,187.9 41.8,202.6" fill="#1f4e6b" stroke="#1f4e6b" stroke-width="0.5"/><polygon points="41.8,202.6 48.0,187.9 60.6,187.1 68.2,197.1 68.2,205.6 56.9,213.9 49.1,212.4" fill="#1f4e6b" stroke="#1f4e6b" stroke-width="0.5"/><polygon points="68.2,205.6 68.2,197.1 88.2,187.0 93.7,191.5 85.8,215.0" fill="#3d7ea6" stroke="#3d7ea6" stroke-width="0.5"/><polygon points="85.8,215.0 93.7,191.5 104.1,191.5 115.0,203.3 115.8,210.1 89.3,218.1 86.5,216.4" fill="#fff2bd" stroke="#fff2bd" stroke-width="0.5"/><polygon points="115.5,207.6 115.0,203.3 134.1,186.5 134.4,186.6 145.6,205.1 139.5,214.2" fill="#5f9c59" stroke="#5f9c59" stroke-width="0.5"/><polygon points="145.6,205.1 134.4,186.6 157.5,176.0 157.5,202.9" fill="#5e9b58" stroke="#5e9b58" stroke-width="0.5"/><polygon points="157.5,202.9 157.5,177.3 176.2,184.3 173.9,200.4 165.3,206.3" fill="#5c9756" stroke="#5c9756" stroke-width="0.5"/><polygon points="173.9,200.4 176.2,184.3 183.3,180.3 196.8,191.0 196.2,206.0" fill="#aaa094" stroke="#aaa094" stroke-width="0.5"/><polygon points="196.2,206.5 196.8,191.0 212.5,178.8 221.8,185.8 216.9,203.7" fill="#6b655d" stroke="#6b655d" stroke-width="0.5"/><polygon points="226.4,214.5 216.9,203.7 221.8,185.8 225.4,185.6 248.2,202.5" fill="#6a635c" stroke="#6a635c" stroke-width="0.5"/><polygon points="238.4,202.5 251.3,190.7 263.4,191.8 268.3,211.5 248.3,211.5" fill="#6b655d" stroke="#6b655d" stroke-width="0.5"/><polygon points="268.1,210.6 263.4,191.8 271.0,184.9 287.6,190.8 284.0,208.8" fill="#6b655e" stroke="#6b655e" stroke-width="0.5"/><polygon points="283.7,210.4 287.6,190.9 290.1,189.4 310.5,193.5 310.5,210.4" fill="#5c5751" stroke="#5c5751" stroke-width="0.5"/><polygon points="310.5,209.5 310.5,191.3 330.5,190.4 338.5,199.3 328.2,215.8" fill="#5c5751" stroke="#5c5751" stroke-width="0.5"/><polygon points="341.5,199.4 357.1,188.4 362.5,189.5 368.6,210.3 355.1,215.7" fill="#625c55" stroke="#625c55" stroke-width="0.5"/><polygon points="368.6,210.3 362.5,189.5 376.1,180.8 389.0,188.3 382.1,207.7 370.6,211.1" fill="#666059" stroke="#666059" stroke-width="0.5"/><polygon points="382.1,207.7 389.9,185.7 407.9,206.7 393.8,215.6" fill="#716b63" stroke="#716b63" stroke-width="0.5"/><polygon points="409.9,208.9 391.8,187.9 400.1,180.8 420.4,186.9" fill="#5c5751" stroke="#5c5751" stroke-width="0.5"/><polygon points="410.9,206.9 420.4,186.9 422.4,185.9 435.1,193.1 435.9,207.8 418.5,214.5" fill="#6a6642" stroke="#6a6642" stroke-width="0.5"/><polygon points="435.9,207.8 435.1,193.1 450.1,185.6 457.0,192.5 455.4,210.8 445.0,214.2" fill="#6a6642" stroke="#6a6642" stroke-width="0.5"/><polygon points="466.6,216.4 455.4,210.8 457.1,192.4 474.0,190.9 479.7,194.9" fill="#78744b" stroke="#78744b" stroke-width="0.5"/><polygon points="486.8,195.3 495.1,184.7 506.9,183.2 516.5,188.7 516.7,192.5 502.4,213.2 496.0,211.4" fill="#8d8858" stroke="#8d8858" stroke-width="0.5"/><polygon points="507.9,219.8 502.4,213.2 516.7,192.5 527.8,205.0 526.8,211.5" fill="#698b57" stroke="#698b57" stroke-width="0.5"/><polygon points="527.8,205.0 516.7,192.5 516.5,188.7 524.6,183.4 546.2,192.6 544.6,198.2" fill="#7ca568" stroke="#7ca568" stroke-width="0.5"/><polygon points="576.0,195.8 576.0,211.5 549.4,211.5 544.6,198.2 546.2,192.6" fill="#9b9561" stroke="#9b9561" stroke-width="0.5"/><polygon points="0.0,227.2 0.0,204.8 21.5,204.8 22.5,227.2" fill="#1f4e6b" stroke="#1f4e6b" stroke-width="0.5"/><polygon points="22.5,227.4 21.4,202.9 41.8,202.6 49.1,212.4 36.8,228.4" fill="#1f4e6b" stroke="#1f4e6b" stroke-width="0.5"/><polygon points="36.8,228.4 49.1,212.4 56.9,213.9 63.2,231.1 48.8,242.5" fill="#1f4e6b" stroke="#1f4e6b" stroke-width="0.5"/><polygon points="63.2,231.1 56.9,213.9 68.2,205.6 85.8,215.0 86.5,216.4 69.5,232.5" fill="#3d7ea6" stroke="#3d7ea6" stroke-width="0.5"/><polygon points="89.3,218.1 113.8,210.7 116.2,229.5 110.8,237.0 95.2,232.0" fill="#5f9c59" stroke="#5f9c59" stroke-width="0.5"/><polygon points="116.2,229.5 113.3,207.0 139.5,214.2 141.3,229.5" fill="#5f9c59" stroke="#5f9c59" stroke-width="0.5"/><polygon points="141.3,229.5 139.5,214.2 145.6,205.1 157.5,202.9 165.3,206.3 168.2,219.7 156.1,230.2" fill="#5c9756" stroke="#5c9756" stroke-width="0.5"/><polygon points="168.2,219.7 165.3,206.3 173.9,200.4 196.5,206.1 196.0,210.9 185.8,220.5 169.9,220.5" fill="#898177" stroke="#898177" stroke-width="0.5"/><polygon points="189.3,239.4 185.8,220.5 196.0,210.9 209.7,230.6 198.3,241.6" fill="#5c5751" stroke="#5c5751" stroke-width="0.5"/><polygon points="209.7,230.6 196.0,210.9 196.5,206.4 216.9,203.7 226.4,214.5 225.2,220.7 211.7,230.5" fill="#756e66" stroke="#756e66" stroke-width="0.5"/><polygon points="225.2,220.7 226.4,214.5 242.1,205.9 248.3,211.5 248.3,234.9 245.1,238.7" fill="#6b655d" stroke="#6b655d" stroke-width="0.5"/><polygon points="248.3,234.9 248.3,211.5 267.3,211.5 266.6,227.8" fill="#756e66" stroke="#756e66" stroke-width="0.5"/><polygon points="266.6,227.8 267.3,210.7 285.3,208.6 288.3,227.7 276.1,234.6" fill="#6b655d" stroke="#6b655d" stroke-width="0.5"/><polygon points="288.3,227.7 285.6,210.4 309.6,210.4 303.3,233.7" fill="#67615a" stroke="#67615a" stroke-width="0.5"/><polygon points="303.9,231.5 309.9,209.3 328.2,215.8 330.5,221.8 316.4,236.5" fill="#655f58" stroke="#655f58" stroke-width="0.5"/><polygon points="330.5,221.8 328.2,215.8 338.5,199.3 341.5,199.4 355.1,215.7 351.8,222.2 337.0,225.5" fill="#635d56" stroke="#635d56" stroke-width="0.5"/><polygon points="351.8,222.2 355.1,215.7 368.6,210.3 370.6,211.1 375.6,231.0 372.7,236.7 362.9,241.3 361.3,241.0" fill="#635d56" stroke="#635d56" stroke-width="0.5"/><polygon points="375.6,231.0 370.6,211.1 382.1,207.7 393.8,215.6 393.8,225.8" fill="#6a645d" stroke="#6a645d" stroke-width="0.5"/><polygon points="393.8,225.8 393.8,215.6 409.6,205.6 418.5,214.5 418.5,227.2 400.3,233.3" fill="#69635c" stroke="#69635c" stroke-width="0.5"/><polygon points="418.5,227.2 418.5,214.5 435.9,207.8 445.0,214.2 442.3,227.4 425.2,233.9" fill="#6a6642" stroke="#6a6642" stroke-width="0.5"/><polygon points="442.3,227.4 445.0,214.2 455.4,210.8 466.6,216.4 467.8,218.5 461.2,235.7 452.4,238.1" fill="#6a6642" stroke="#6a6642" stroke-width="0.5"/><polygon points="467.8,218.5 466.6,216.4 479.7,194.9 486.8,195.3 496.0,211.4 481.9,222.7" fill="#837e52" stroke="#837e52" stroke-width="0.5"/><polygon points="487.2,244.5 481.9,222.7 496.0,211.4 502.4,213.2 507.9,219.8 509.3,226.6" fill="#6098b8" stroke="#6098b8" stroke-width="0.5"/><polygon points="516.3,233.0 509.3,226.6 507.9,219.8 526.8,211.5 537.3,223.7 532.7,230.0" fill="#97925e" stroke="#97925e" stroke-width="0.5"/><polygon points="526.8,211.5 527.8,205.0 544.6,198.2 549.4,211.5 544.2,221.9 537.3,223.7" fill="#a09a64" stroke="#a09a64" stroke-width="0.5"/><polygon points="576.0,211.5 576.0,228.6 555.6,232.7 544.2,221.9 549.4,211.5" fill="#a8a169" stroke="#a8a169" stroke-width="0.5"/><polygon points="0.0,249.8 0.0,227.2 22.6,227.2 19.8,249.8" fill="#1f4e6b" stroke="#1f4e6b" stroke-width="0.5"/><polygon points="19.5,252.0 22.6,227.4 36.8,228.4 48.8,242.5 48.4,246.2" fill="#1f4e6b" stroke="#1f4e6b" stroke-width="0.5"/><polygon points="48.4,246.8 48.8,242.5 63.2,231.1 69.5,232.5 79.5,247.5 67.5,259.5" fill="#1f4e6b" stroke="#1f4e6b" stroke-width="0.5"/><polygon points="69.5,232.5 86.5,216.4 89.3,218.1 95.2,232.0 82.8,247.5 79.5,247.5" fill="#3d7ea6" stroke="#3d7ea6" stroke-width="0.5"/><polygon points="82.8,247.5 95.2,232.0 110.8,237.0 112.8,246.4 111.4,250.5 95.2,257.8" fill="#5a9454" stroke="#5a9454" stroke-width="0.5"/><polygon points="112.8,246.4 110.8,237.0 116.2,229.5 141.4,229.5 138.6,246.4" fill="#5e9a58" stroke="#5e9a58" stroke-width="0.5"/><polygon points="138.7,245.3 141.4,229.5 156.1,230.2 166.9,249.1 157.8,256.2" fill="#50834b" stroke="#50834b" stroke-width="0.5"/><polygon points="166.9,249.1 156.1,230.2 168.2,219.7 169.9,220.5 178.9,243.0 173.0,248.9" fill="#345631" stroke="#345631" stroke-width="0.5"/><polygon points="169.9,220.5 185.8,220.5 189.3,239.4 178.9,243.0" fill="#5c5751" stroke="#5c5751" stroke-width="0.5"/><polygon points="201.5,253.1 198.3,241.6 209.7,230.6 211.7,230.5 226.4,249.3 221.9,259.4" fill="#958d82" stroke="#958d82" stroke-width="0.5"/><polygon points="226.4,249.3 211.7,230.5 225.2,220.7 245.7,239.2" fill="#7b746b" stroke="#7b746b" stroke-width="0.5"/><polygon points="245.5,238.2 248.3,234.9 266.6,227.8 276.1,234.6 275.9,248.6 269.8,253.0" fill="#69635b" stroke="#69635b" stroke-width="0.5"/><polygon points="275.9,248.6 276.1,234.6 288.3,227.7 300.8,232.7 295.8,250.0 290.4,253.6" fill="#6b6743" stroke="#6b6743" stroke-width="0.5"/><polygon points="295.8,250.0 301.4,230.5 316.4,236.5 322.7,250.1 312.2,256.6" fill="#878254" stroke="#878254" stroke-width="0.5"/><polygon points="322.7,250.1 316.4,236.5 330.5,221.8 337.0,225.5 339.2,246.6 325.4,251.0" fill="#898456" stroke="#898456" stroke-width="0.5"/><polygon points="339.2,246.6 337.0,225.5 351.8,222.2 361.3,241.0 346.3,248.9" fill="#878154" stroke="#878154" stroke-width="0.5"/><polygon points="371.6,264.4 362.9,241.3 372.7,236.7 387.7,247.8 379.8,265.2" fill="#7b774d" stroke="#7b774d" stroke-width="0.5"/><polygon points="372.7,236.7 375.6,231.0 393.8,225.8 400.3,233.3 398.2,244.9 387.7,247.8" fill="#6e6a45" stroke="#6e6a45" stroke-width="0.5"/><polygon points="397.3,249.9 400.3,233.3 418.5,227.2 425.2,233.9 425.7,243.8 418.5,253.0" fill="#6a6642" stroke="#6a6642" stroke-width="0.5"/><polygon points="425.7,243.8 425.2,233.9 442.3,227.4 452.4,238.1 446.4,252.5" fill="#6a6642" stroke="#6a6642" stroke-width="0.5"/><polygon points="446.9,251.2 452.4,238.1 461.2,235.7 474.6,246.1 465.5,260.5" fill="#6a6642" stroke="#6a6642" stroke-width="0.5"/><polygon points="461.2,235.7 467.8,218.5 481.9,222.7 487.0,243.8 474.6,246.1" fill="#746f48" stroke="#746f48" stroke-width="0.5"/><polygon points="486.5,247.1 487.2,244.5 509.3,226.6 516.3,233.0 516.5,245.0 506.0,253.4" fill="#6098b8" stroke="#6098b8" stroke-width="0.5"/><polygon points="516.5,245.0 516.3,233.0 532.7,230.0 538.1,246.2 529.8,253.6" fill="#b8b173" stroke="#b8b173" stroke-width="0.5"/><polygon points="538.1,246.2 532.7,230.0 537.3,223.7 544.2,221.9 555.6,232.7 550.1,247.2" fill="#b6af72" stroke="#b6af72" stroke-width="0.5"/><polygon points="576.0,228.6 576.0,252.6 554.9,254.1 550.1,247.2 555.6,232.7" fill="#b7b072" stroke="#b7b072" stroke-width="0.5"/><polygon points="0.0,270.9 0.0,249.8 21.0,249.8 23.5,264.5 14.2,273.8" fill="#1f4e6b" stroke="#1f4e6b" stroke-width="0.5"/><polygon points="23.5,264.5 21.3,251.6 49.1,246.1 40.0,271.2" fill="#1f4e6b" stroke="#1f4e6b" stroke-width="0.5"/><polygon points="40.0,271.2 48.8,247.0 67.5,259.5 67.5,263.9 54.1,276.2 40.5,271.9" fill="#1f4e6b" stroke="#1f4e6b" stroke-width="0.5"/><polygon points="67.5,263.9 67.5,259.5 79.5,247.5 82.8,247.5 95.2,257.8 94.0,270.2 79.9,275.2" fill="#3d7ea6" stroke="#3d7ea6" stroke-width="0.5"/><polygon points="94.0,270.2 95.2,257.8 111.4,250.5 119.2,264.7 108.1,282.4 107.6,282.5" fill="#589052" stroke="#589052" stroke-width="0.5"/><polygon points="119.2,264.7 111.4,250.5 112.8,246.4 137.5,246.4 132.7,265.6" fill="#51854c" stroke="#51854c" stroke-width="0.5"/><polygon points="132.7,265.6 137.9,244.8 157.8,256.2 155.2,268.9 136.5,269.9" fill="#457241" stroke="#457241" stroke-width="0.5"/><polygon points="157.3,272.1 155.2,268.9 157.8,256.2 166.9,249.1 173.0,248.9 185.3,269.5 176.6,275.1" fill="#a0ba78" stroke="#a0ba78" stroke-width="0.5"/><polygon points="173.0,248.9 178.9,243.0 189.3,239.4 198.3,241.6 201.5,253.1 190.3,270.2 185.3,269.5" fill="#6a6642" stroke="#6a6642" stroke-width="0.5"/><polygon points="185.0,278.3 201.5,253.1 221.9,259.4 223.0,263.5 214.6,276.3" fill="#635e57" stroke="#635e57" stroke-width="0.5"/><polygon points="223.0,263.5 221.9,259.4 226.4,249.3 243.9,240.2 249.2,268.4 241.2,272.1" fill="#6f6961" stroke="#6f6961" stroke-width="0.5"/><polygon points="249.4,269.5 243.2,236.8 269.8,253.0 267.0,261.0" fill="#777068" stroke="#777068" stroke-width="0.5"/><polygon points="267.0,261.0 269.8,253.0 275.9,248.6 290.4,253.6 291.3,266.5 282.0,279.8" fill="#698b57" stroke="#698b57" stroke-width="0.5"/><polygon points="291.3,266.5 290.4,253.6 295.8,250.0 312.2,256.6 308.9,269.8" fill="#72965f" stroke="#72965f" stroke-width="0.5"/><polygon points="308.9,269.8 312.2,256.6 322.7,250.1 325.4,251.0 331.2,273.9 314.1,280.7" fill="#6f935d" stroke="#6f935d" stroke-width="0.5"/><polygon points="331.2,273.9 325.4,251.0 339.2,246.6 346.3,248.9 349.6,267.0 335.9,275.5" fill="#98935f" stroke="#98935f" stroke-width="0.5"/><polygon points="349.6,267.0 346.3,248.9 361.3,241.0 362.9,241.3 371.6,264.4 361.0,271.5" fill="#858053" stroke="#858053" stroke-width="0.5"/><polygon points="379.4,266.0 387.7,247.8 406.3,242.6 398.3,268.4" fill="#698a57" stroke="#698a57" stroke-width="0.5"/><polygon points="398.3,268.4 403.7,250.9 418.5,253.0 422.2,266.7 417.0,274.4 402.1,273.1" fill="#628152" stroke="#628152" stroke-width="0.5"/><polygon points="422.2,266.7 418.5,253.0 425.7,243.8 445.4,252.1 439.9,267.6" fill="#6a6642" stroke="#6a6642" stroke-width="0.5"/><polygon points="439.9,267.6 445.9,250.7 465.5,260.5 466.0,263.4 445.9,277.2" fill="#7a754c" stroke="#7a754c" stroke-width="0.5"/><polygon points="466.0,263.4 465.5,260.5 474.6,246.1 491.5,242.9 487.1,269.8 478.9,275.5 476.3,274.9" fill="#6e925c" stroke="#6e925c" stroke-width="0.5"/><polygon points="487.1,269.8 490.6,248.5 506.0,253.4 511.0,268.5 506.6,274.9" fill="#8cb975" stroke="#8cb975" stroke-width="0.5"/><polygon points="511.0,268.5 506.0,253.4 516.5,245.0 529.8,253.6 529.3,265.6" fill="#b7b073" stroke="#b7b073" stroke-width="0.5"/><polygon points="529.3,265.6 529.8,253.6 538.1,246.2 550.1,247.2 554.9,254.1 550.6,268.6 532.8,269.2" fill="#b9b273" stroke="#b9b273" stroke-width="0.5"/><polygon points="576.0,252.6 576.0,273.4 551.0,267.1 554.9,254.1" fill="#b1aa6e" stroke="#b1aa6e" stroke-width="0.5"/><polygon points="0.0,293.0 0.0,270.9 14.3,273.8 17.5,290.2" fill="#1f4e6b" stroke="#1f4e6b" stroke-width="0.5"/><polygon points="17.5,290.2 14.2,273.8 23.5,264.5 40.0,271.2 40.5,271.9 31.4,293.8 21.4,293.8" fill="#1f4e6b" stroke="#1f4e6b" stroke-width="0.5"/><polygon points="31.4,293.8 40.5,271.9 54.1,276.2 58.2,288.7 39.2,300.2" fill="#1f4e6b" stroke="#1f4e6b" stroke-width="0.5"/><polygon points="58.2,288.8 54.1,276.2 67.5,263.9 79.9,275.3 77.5,287.6 66.3,293.6" fill="#1f4e6b" stroke="#1f4e6b" stroke-width="0.5"/><polygon points="77.5,287.6 79.9,275.2 94.0,270.2 107.6,282.5 101.3,293.7 90.9,296.0" fill="#3d7ea6" stroke="#3d7ea6" stroke-width="0.5"/><polygon points="108.1,282.4 119.2,264.7 132.7,265.6 136.5,269.9 132.1,291.7" fill="#4d7f48" stroke="#4d7f48" stroke-width="0.5"/><polygon points="132.4,290.2 136.5,269.9 155.2,268.9 157.3,272.1 154.3,291.3" fill="#50834a" stroke="#50834a" stroke-width="0.5"/><polygon points="153.3,297.4 157.3,272.1 176.6,275.1 173.5,294.6" fill="#365933" stroke="#365933" stroke-width="0.5"/><polygon points="173.5,294.6 176.6,275.1 185.3,269.5 197.2,271.1 196.2,284.6 180.4,299.1" fill="#345631" stroke="#345631" stroke-width="0.5"/><polygon points="205.0,299.1 196.2,284.6 196.7,277.5 214.6,276.3 222.4,292.7 217.2,302.4" fill="#345631" stroke="#345631" stroke-width="0.5"/><polygon points="222.4,292.7 214.6,276.3 223.0,263.5 241.2,272.1 237.3,288.4" fill="#a9acae" stroke="#a9acae" stroke-width="0.5"/><polygon points="237.3,288.4 241.2,272.1 250.4,267.9 264.0,289.0 245.2,295.9" fill="#9ea1a4" stroke="#9ea1a4" stroke-width="0.5"/><polygon points="264.1,289.1 250.9,268.8 267.0,261.0 281.1,278.6" fill="#6a645d" stroke="#6a645d" stroke-width="0.5"/><polygon points="282.7,278.8 291.3,266.5 308.9,269.8 315.8,284.2 290.5,287.4" fill="#847f53" stroke="#847f53" stroke-width="0.5"/><polygon points="313.9,280.8 331.2,273.9 335.9,275.5 341.1,290.0 328.8,303.0" fill="#7c784e" stroke="#7c784e" stroke-width="0.5"/><polygon points="341.1,290.0 335.9,275.5 349.6,267.0 361.0,271.5 361.9,285.6 352.3,292.9" fill="#706c46" stroke="#706c46" stroke-width="0.5"/><polygon points="361.9,285.6 361.0,271.5 371.6,264.4 380.7,265.4 383.3,289.7 375.9,292.6" fill="#7d794e" stroke="#7d794e" stroke-width="0.5"/><polygon points="383.3,289.7 380.8,266.2 398.3,268.4 402.1,273.1 393.5,292.4" fill="#908b5a" stroke="#908b5a" stroke-width="0.5"/><polygon points="394.1,291.1 402.1,273.1 417.0,274.4 421.1,289.6 413.8,296.1" fill="#6a6642" stroke="#6a6642" stroke-width="0.5"/><polygon points="421.1,289.6 417.0,274.4 422.2,266.7 439.9,267.6 445.9,277.2 446.1,280.2 433.7,292.6" fill="#628252" stroke="#628252" stroke-width="0.5"/><polygon points="446.1,280.2 445.9,277.2 466.0,263.4 476.3,274.9 458.5,287.8" fill="#7aa165" stroke="#7aa165" stroke-width="0.5"/><polygon points="462.1,301.4 458.5,287.8 476.3,274.9 478.9,275.5 485.2,293.6 483.8,296.3 471.3,302.5" fill="#a19b65" stroke="#a19b65" stroke-width="0.5"/><polygon points="485.2,293.6 478.9,275.5 487.1,269.8 506.6,274.9 508.8,290.5" fill="#aaa46a" stroke="#aaa46a" stroke-width="0.5"/><polygon points="508.4,288.2 506.6,274.9 511.0,268.5 529.3,265.6 532.8,269.2 530.4,291.3" fill="#8bb874" stroke="#8bb874" stroke-width="0.5"/><polygon points="530.6,289.4 532.8,269.2 549.6,268.6 553.4,285.2 546.8,292.6" fill="#a8a169" stroke="#a8a169" stroke-width="0.5"/><polygon points="576.0,273.4 576.0,287.0 553.4,285.2 549.1,266.7" fill="#9d9762" stroke="#9d9762" stroke-width="0.5"/><polygon points="0.0,309.2 0.0,293.0 17.5,290.2 21.4,293.8 14.4,311.3" fill="#1f4e6b" stroke="#1f4e6b" stroke-width="0.5"/><polygon points="17.9,318.5 14.4,311.3 21.4,293.8 31.4,293.8 39.2,300.2 42.4,312.3 39.5,318.5" fill="#1f4e6b" stroke="#1f4e6b" stroke-width="0.5"/><polygon points="42.4,312.3 39.2,300.2 58.2,288.7 66.3,293.6 66.9,310.7" fill="#1f4e6b" stroke="#1f4e6b" stroke-width="0.5"/><polygon points="66.9,309.7 66.3,293.6 77.5,287.6 90.9,296.0 83.6,312.4" fill="#1f4e6b" stroke="#1f4e6b" stroke-width="0.5"/><polygon points="89.6,320.6 83.6,312.4 90.9,296.0 101.3,293.7 109.6,311.3 95.1,321.4" fill="#3d7ea6" stroke="#3d7ea6" stroke-width="0.5"/><polygon points="109.6,311.3 101.3,293.7 107.6,282.5 108.1,282.4 131.0,291.3 129.0,307.5 112.2,312.0" fill="#4b7b46" stroke="#4b7b46" stroke-width="0.5"/><polygon points="128.5,311.4 131.1,290.1 159.7,291.6 155.1,312.8" fill="#345631" stroke="#345631" stroke-width="0.5"/><polygon points="156.7,315.5 155.1,312.8 158.6,296.7 173.5,294.6 180.4,299.1 185.8,311.7 176.8,321.0" fill="#345631" stroke="#345631" stroke-width="0.5"/><polygon points="185.8,311.7 180.4,299.1 196.2,284.6 205.0,299.1 186.0,311.8" fill="#345631" stroke="#345631" stroke-width="0.5"/><polygon points="186.0,311.8 205.0,299.1 217.2,302.4 219.5,310.4 201.2,322.2" fill="#345631" stroke="#345631" stroke-width="0.5"/><polygon points="219.5,310.5 217.2,302.4 222.4,292.7 237.3,288.4 245.2,295.9 245.2,310.5" fill="#7e794f" stroke="#7e794f" stroke-width="0.5"/><polygon points="245.2,312.8 245.2,295.9 264.1,289.0 270.8,309.1" fill="#6a6642" stroke="#6a6642" stroke-width="0.5"/><polygon points="270.3,307.6 264.1,289.0 282.1,278.1 290.5,287.4 288.9,302.4" fill="#6a6642" stroke="#6a6642" stroke-width="0.5"/><polygon points="288.9,302.4 290.5,287.4 308.2,285.2 308.2,308.0 300.8,314.3" fill="#6a6642" stroke="#6a6642" stroke-width="0.5"/><polygon points="308.2,308.0 308.2,280.0 313.9,280.8 329.9,304.7" fill="#546f46" stroke="#546f46" stroke-width="0.5"/><polygon points="327.9,304.0 341.1,290.0 352.3,292.9 355.2,309.0 346.2,314.8 331.5,310.5" fill="#6a6642" stroke="#6a6642" stroke-width="0.5"/><polygon points="355.2,309.0 352.3,292.9 361.9,285.6 375.9,292.6 371.1,310.2 367.5,312.8" fill="#6a6642" stroke="#6a6642" stroke-width="0.5"/><polygon points="371.1,310.2 375.9,292.6 383.3,289.7 392.0,292.0 393.5,315.4" fill="#6a6642" stroke="#6a6642" stroke-width="0.5"/><polygon points="393.5,315.4 391.9,290.5 413.8,296.1 412.9,308.3 395.8,318.3" fill="#7a754c" stroke="#7a754c" stroke-width="0.5"/><polygon points="412.9,308.3 413.8,296.1 421.1,289.6 433.7,292.6 437.9,303.8 427.5,319.5" fill="#837e52" stroke="#837e52" stroke-width="0.5"/><polygon points="437.9,303.8 433.7,292.6 446.1,280.2 458.5,287.8 462.1,301.4 454.8,308.7" fill="#9b9561" stroke="#9b9561" stroke-width="0.5"/><polygon points="477.9,322.2 471.3,302.5 483.8,296.2 494.0,316.8" fill="#999460" stroke="#999460" stroke-width="0.5"/><polygon points="494.0,316.8 483.8,296.3 485.2,293.6 506.2,290.8 507.5,309.7 498.1,318.2" fill="#9e9863" stroke="#9e9863" stroke-width="0.5"/><polygon points="507.5,309.7 506.0,287.8 528.3,291.0 527.3,314.2" fill="#84af6e" stroke="#84af6e" stroke-width="0.5"/><polygon points="527.4,313.0 528.4,289.0 546.8,292.6 552.6,310.6" fill="#81ab6c" stroke="#81ab6c" stroke-width="0.5"/><polygon points="576.0,287.0 576.0,303.5 551.8,307.9 546.8,292.6 553.4,285.2" fill="#8e8959" stroke="#8e8959" stroke-width="0.5"/><polygon points="0.0,330.8 0.0,309.2 14.4,311.3 17.9,318.5 13.0,330.8" fill="#1f4e6b" stroke="#1f4e6b" stroke-width="0.5"/><polygon points="17.1,337.5 13.0,330.8 17.9,318.5 39.5,318.5 42.6,330.7 38.1,337.5" fill="#1f4e6b" stroke="#1f4e6b" stroke-width="0.5"/><polygon points="42.6,330.7 39.5,318.5 42.4,312.3 65.9,310.7 64.9,335.3" fill="#1f4e6b" stroke="#1f4e6b" stroke-width="0.5"/><polygon points="64.7,341.6 65.9,309.5 83.6,312.4 89.6,320.6 76.2,337.9" fill="#1f4e6b" stroke="#1f4e6b" stroke-width="0.5"/><polygon points="95.1,321.4 109.6,311.3 112.2,312.0 118.2,335.9 104.7,339.5" fill="#8f8366" stroke="#8f8366" stroke-width="0.5"/><polygon points="118.2,335.9 112.2,312.0 133.2,306.4 132.1,339.9" fill="#8f8366" stroke="#8f8366" stroke-width="0.5"/><polygon points="132.2,335.8 133.0,311.6 155.1,312.8 156.7,315.5 149.1,339.7" fill="#345631" stroke="#345631" stroke-width="0.5"/><polygon points="149.7,337.8 156.7,315.5 176.8,321.0 177.5,331.4 170.6,340.8" fill="#345631" stroke="#345631" stroke-width="0.5"/><polygon points="177.5,331.4 176.8,321.0 185.8,311.7 186.0,311.8 201.2,322.2 202.2,334.4 195.4,339.4" fill="#345631" stroke="#345631" stroke-width="0.5"/><polygon points="202.2,334.4 201.2,322.2 219.6,310.3 225.1,329.1 214.9,338.6" fill="#345631" stroke="#345631" stroke-width="0.5"/><polygon points="225.1,329.1 219.7,310.5 246.9,310.5 246.3,328.1 239.8,333.3" fill="#6a6642" stroke="#6a6642" stroke-width="0.5"/><polygon points="246.3,328.1 246.9,312.5 269.5,309.3 273.5,327.5 264.7,334.2" fill="#6a6642" stroke="#6a6642" stroke-width="0.5"/><polygon points="273.5,327.5 269.2,307.9 288.9,302.4 299.2,312.8 287.2,328.8 283.5,330.0" fill="#6a6642" stroke="#6a6642" stroke-width="0.5"/><polygon points="287.2,328.8 301.0,310.4 314.5,329.0 303.8,339.8" fill="#6a6642" stroke="#6a6642" stroke-width="0.5"/><polygon points="314.5,329.0 302.7,312.7 308.2,308.0 328.4,304.9 331.5,310.5 324.0,330.1" fill="#587449" stroke="#587449" stroke-width="0.5"/><polygon points="324.0,330.1 331.5,310.5 346.2,314.8 347.7,331.3 330.2,338.0" fill="#807b50" stroke="#807b50" stroke-width="0.5"/><polygon points="347.7,331.3 346.2,314.8 355.2,309.0 367.5,312.8 368.5,331.5 368.3,331.7 356.2,335.8" fill="#7a754c" stroke="#7a754c" stroke-width="0.5"/><polygon points="368.5,331.5 367.5,312.8 371.1,310.2 393.5,315.4 395.8,318.3 396.0,330.0" fill="#7f7a4f" stroke="#7f7a4f" stroke-width="0.5"/><polygon points="396.0,329.1 395.8,318.3 412.9,308.3 428.3,320.1 420.5,333.4" fill="#847f53" stroke="#847f53" stroke-width="0.5"/><polygon points="426.7,320.7 437.9,303.8 454.8,308.7 455.2,315.0 448.1,328.7" fill="#98925f" stroke="#98925f" stroke-width="0.5"/><polygon points="448.1,328.7 455.2,315.0 474.7,326.6 473.6,335.2 462.7,343.1 450.5,336.4" fill="#aea76d" stroke="#aea76d" stroke-width="0.5"/><polygon points="455.2,315.0 454.8,308.7 462.1,301.4 471.3,302.5 480.6,330.2" fill="#a49e66" stroke="#a49e66" stroke-width="0.5"/><polygon points="473.6,335.2 475.1,323.1 494.0,316.8 498.1,318.2 502.5,331.9 487.8,341.9" fill="#ada66c" stroke="#ada66c" stroke-width="0.5"/><polygon points="502.5,331.9 498.1,318.2 507.5,309.7 526.5,314.0 526.5,328.3 510.1,336.0" fill="#a8a169" stroke="#a8a169" stroke-width="0.5"/><polygon points="526.5,328.3 526.5,313.1 550.1,310.9 553.8,329.9 534.5,334.6" fill="#a09a64" stroke="#a09a64" stroke-width="0.5"/><polygon points="576.0,303.5 576.0,329.9 553.7,329.1 549.6,308.3" fill="#958f5d" stroke="#958f5d" stroke-width="0.5"/><polygon points="0.0,354.3 0.0,330.8 13.0,330.8 17.1,337.5 13.9,353.5" fill="#1f4e6b" stroke="#1f4e6b" stroke-width="0.5"/><polygon points="13.9,353.5 17.1,337.5 38.1,337.5 40.0,358.0 22.2,362.4" fill="#1f4e6b" stroke="#1f4e6b" stroke-width="0.5"/><polygon points="40.0,358.0 38.1,337.5 42.6,330.7 70.0,336.3 69.0,341.5 49.4,363.3" fill="#1f4e6b" stroke="#1f4e6b" stroke-width="0.5"/><polygon points="82.6,366.9 69.0,341.5 69.2,340.1 76.2,337.9 99.5,347.3 100.0,358.7" fill="#1f4e6b" stroke="#1f4e6b" stroke-width="0.5"/><polygon points="76.2,337.9 89.6,320.6 95.1,321.4 104.7,339.5 99.5,347.3" fill="#3d7ea6" stroke="#3d7ea6" stroke-width="0.5"/><polygon points="100.0,358.7 99.5,347.3 104.7,339.5 118.2,335.9 126.7,338.3 123.9,363.3 109.9,365.7" fill="#3d7ea6" stroke="#3d7ea6" stroke-width="0.5"/><polygon points="123.9,363.3 127.1,334.6 147.4,339.3 149.5,362.2 131.2,367.8" fill="#3d7ea6" stroke="#3d7ea6" stroke-width="0.5"/><polygon points="149.5,362.2 147.3,337.5 170.6,340.8 174.3,354.7 167.0,364.7 158.8,367.8" fill="#3d7ea6" stroke="#3d7ea6" stroke-width="0.5"/><polygon points="174.3,354.7 170.6,340.8 177.5,331.4 195.4,339.4 192.8,355.2" fill="#3d7ea6" stroke="#3d7ea6" stroke-width="0.5"/><polygon points="192.2,359.1 195.4,339.4 202.2,334.4 214.9,338.6 219.6,358.0 216.5,360.3" fill="#928668" stroke="#928668" stroke-width="0.5"/><polygon points="219.6,358.0 214.9,338.6 225.1,329.1 239.8,333.3 239.8,359.1" fill="#345631" stroke="#345631" stroke-width="0.5"/><polygon points="239.8,358.1 239.8,333.3 246.3,328.1 264.7,334.2 263.4,358.7" fill="#6a6642" stroke="#6a6642" stroke-width="0.5"/><polygon points="263.4,358.4 264.7,334.2 273.5,327.5 283.5,330.0 285.7,357.5" fill="#7c8177" stroke="#7c8177" stroke-width="0.5"/><polygon points="285.7,357.5 283.5,330.0 287.2,328.8 303.8,339.8 303.8,356.5 292.4,360.8" fill="#546f46" stroke="#546f46" stroke-width="0.5"/><polygon points="303.8,356.5 303.8,339.8 314.5,329.0 324.0,330.1 330.2,338.0 329.8,347.0 309.6,358.2" fill="#6e925c" stroke="#6e925c" stroke-width="0.5"/><polygon points="329.8,347.0 330.2,338.0 347.7,331.3 356.2,335.8 352.4,360.0 351.5,360.7 342.6,359.8" fill="#7fa86a" stroke="#7fa86a" stroke-width="0.5"/><polygon points="352.4,360.0 356.2,335.8 368.3,331.7 377.9,358.5" fill="#86b270" stroke="#86b270" stroke-width="0.5"/><polygon points="377.9,358.5 368.3,331.7 368.5,331.5 395.3,330.0 393.2,357.4 379.8,359.4" fill="#80a96a" stroke="#80a96a" stroke-width="0.5"/><polygon points="393.3,356.5 395.4,329.0 420.5,333.4 426.7,353.4 426.3,354.9 422.2,358.0" fill="#afa96e" stroke="#afa96e" stroke-width="0.5"/><polygon points="426.7,353.4 420.5,333.4 427.7,321.1 448.1,328.7 450.5,336.4" fill="#a6a068" stroke="#a6a068" stroke-width="0.5"/><polygon points="426.3,354.9 426.7,353.4 450.5,336.4 462.7,343.1 463.2,357.1 446.2,367.0" fill="#bab374" stroke="#bab374" stroke-width="0.5"/><polygon points="463.2,357.1 462.7,343.1 473.6,335.2 487.8,341.9 490.9,361.5 475.2,365.9" fill="#afa86d" stroke="#afa86d" stroke-width="0.5"/><polygon points="490.9,361.5 487.8,341.9 502.5,331.9 510.1,336.0 512.6,353.8 507.5,359.9 495.4,363.4" fill="#9c9662" stroke="#9c9662" stroke-width="0.5"/><polygon points="512.6,353.8 510.1,336.0 526.5,328.3 534.5,334.6 533.9,354.8" fill="#9a9560" stroke="#9a9560" stroke-width="0.5"/><polygon points="533.8,357.3 534.5,334.6 552.6,330.2 555.5,357.8 547.2,361.4" fill="#9e9862" stroke="#9e9862" stroke-width="0.5"/><polygon points="576.0,329.9 576.0,360.1 555.5,357.8 552.5,329.0" fill="#a09a64" stroke="#a09a64" stroke-width="0.5"/><polygon points="0.0,377.0 0.0,354.3 13.9,353.5 22.2,362.4 19.4,371.7" fill="#1f4e6b" stroke="#1f4e6b" stroke-width="0.5"/><polygon points="45.3,396.0 29.1,396.0 19.4,371.7 22.2,362.4 40.0,358.0 51.3,364.4" fill="#1f4e6b" stroke="#1f4e6b" stroke-width="0.5"/><polygon points="82.8,396.0 45.3,396.0 50.8,366.8 79.4,372.8" fill="#1f4e6b" stroke="#1f4e6b" stroke-width="0.5"/><polygon points="46.9,366.0 69.0,341.5 82.6,366.9 79.4,372.8" fill="#1f4e6b" stroke="#1f4e6b" stroke-width="0.5"/><polygon points="104.7,396.0 82.8,396.0 79.4,372.8 82.6,366.9 100.0,358.7 109.9,365.7" fill="#1f4e6b" stroke="#1f4e6b" stroke-width="0.5"/><polygon points="132.7,396.0 104.7,396.0 109.9,365.7 123.9,363.3 131.2,367.8" fill="#1f4e6b" stroke="#1f4e6b" stroke-width="0.5"/><polygon points="156.8,396.0 132.7,396.0 131.2,367.8 149.5,362.2 158.8,367.8" fill="#1f4e6b" stroke="#1f4e6b" stroke-width="0.5"/><polygon points="193.0,396.0 156.8,396.0 158.8,367.8 167.0,364.7 189.6,382.5" fill="#1f4e6b" stroke="#1f4e6b" stroke-width="0.5"/><polygon points="189.6,382.5 167.0,364.7 174.3,354.7 197.4,355.3" fill="#1f4e6b" stroke="#1f4e6b" stroke-width="0.5"/><polygon points="212.1,396.0 193.0,396.0 189.6,382.5 196.3,359.3 216.5,360.3" fill="#3d7ea6" stroke="#3d7ea6" stroke-width="0.5"/><polygon points="238.5,396.0 212.1,396.0 216.5,360.3 219.6,358.0 238.5,359.0" fill="#3d7ea6" stroke="#3d7ea6" stroke-width="0.5"/><polygon points="266.3,396.0 238.5,396.0 238.5,358.0 263.1,358.7" fill="#8f8366" stroke="#8f8366" stroke-width="0.5"/><polygon points="289.6,396.0 266.3,396.0 263.1,358.4 285.7,357.5 292.4,360.8" fill="#6098b8" stroke="#6098b8" stroke-width="0.5"/><polygon points="322.7,396.0 289.6,396.0 292.4,360.8 303.8,356.5 309.6,358.2 323.3,381.4" fill="#93c37b" stroke="#93c37b" stroke-width="0.5"/><polygon points="323.3,381.4 309.6,358.2 329.8,347.0 342.6,359.8" fill="#91c079" stroke="#91c079" stroke-width="0.5"/><polygon points="358.0,396.0 322.7,396.0 323.3,381.4 342.6,359.8 351.5,360.7" fill="#c7c07d" stroke="#c7c07d" stroke-width="0.5"/><polygon points="370.6,396.0 358.0,396.0 351.5,360.7 352.4,360.0 377.9,358.5 379.8,359.4" fill="#c0b978" stroke="#c0b978" stroke-width="0.5"/><polygon points="401.9,396.0 370.6,396.0 379.8,359.4 392.1,357.5" fill="#bdb576" stroke="#bdb576" stroke-width="0.5"/><polygon points="416.3,396.0 401.9,396.0 391.8,356.5 422.2,358.0" fill="#b3ac70" stroke="#b3ac70" stroke-width="0.5"/><polygon points="448.5,396.0 416.3,396.0 422.2,358.0 426.3,354.9 446.2,367.0" fill="#b7b072" stroke="#b7b072" stroke-width="0.5"/><polygon points="469.8,396.0 448.5,396.0 446.2,367.0 463.2,357.1 475.2,365.9" fill="#aca56b" stroke="#aca56b" stroke-width="0.5"/><polygon points="499.2,396.0 469.8,396.0 475.2,365.9 490.9,361.5 495.4,363.4" fill="#918b5a" stroke="#918b5a" stroke-width="0.5"/><polygon points="522.2,396.0 499.2,396.0 495.4,363.4 507.5,359.9 522.0,380.4" fill="#918c5b" stroke="#918c5b" stroke-width="0.5"/><polygon points="522.0,380.4 507.5,359.9 512.6,353.8 539.3,355.1" fill="#999360" stroke="#999360" stroke-width="0.5"/><polygon points="547.7,396.0 522.2,396.0 522.0,380.4 537.1,358.3 547.2,361.4" fill="#999360" stroke="#999360" stroke-width="0.5"/><polygon points="576.0,360.1 576.0,396.0 547.7,396.0 547.2,361.4 555.5,357.8" fill="#a8a169" stroke="#a8a169" stroke-width="0.5"/><polygon points="29.1,396.0 0.0,396.0 0.0,377.0 19.4,371.7" fill="#1f4e6b" stroke="#1f4e6b" stroke-width="0.5"/></g><path d="M560.1,38.7 L549.6,22.2 M549.6,22.2 L555.6,15.2 M555.6,15.2 L576.0,14.3 M418.2,60.7 L416.7,47.3 M416.7,47.3 L436.9,45.9 M436.9,45.9 L440.1,40.5 M440.1,40.5 L465.3,40.5 M465.2,41.8 L489.7,40.6 M489.5,39.5 L517.7,39.5 M517.5,40.4 L531.5,39.5 M531.5,39.5 L539.1,48.0 M539.1,48.0 L535.2,63.2 M558.0,61.9 L551.6,47.5 M551.6,47.5 L560.1,38.7 M100.1,85.8 L116.5,68.5 M116.5,68.5 L125.7,70.9 M125.7,70.9 L132.0,87.8 M108.6,95.1 L100.1,85.8 M214.6,80.3 L223.5,67.5 M223.5,67.5 L236.8,67.5 M236.8,67.5 L244.8,83.1 M265.6,64.2 L284.8,71.5 M257.0,85.5 L265.6,64.2 M335.5,65.8 L348.6,71.7 M321.7,80.8 L335.5,65.8 M348.6,71.7 L356.0,66.0 M356.0,66.0 L370.9,66.8 M370.9,66.8 L378.0,59.6 M378.0,59.6 L391.5,61.1 M391.5,61.1 L397.6,69.6 M397.6,69.6 L415.1,66.9 M415.1,66.9 L418.2,60.7 M535.2,63.2 L542.4,69.7 M542.4,69.7 L558.0,61.9 M132.0,87.8 L138.4,88.6 M138.4,88.6 L156.3,80.9 M156.3,80.9 L157.3,79.3 M157.3,79.3 L176.2,77.8 M176.2,77.8 L186.4,89.7 M186.4,89.7 L193.8,89.1 M193.8,89.1 L202.7,80.1 M202.7,80.1 L214.6,80.3 M244.8,83.1 L259.0,83.9 M284.8,71.5 L287.5,69.9 M287.5,69.9 L308.0,80.1 M309.8,76.5 L321.7,80.8 M106.0,109.8 L108.6,95.1 M112.1,118.4 L106.0,109.8 M83.9,146.6 L87.3,131.1 M87.3,131.1 L106.3,129.3 M114.1,149.7 L83.9,146.6 M106.3,129.3 L112.1,118.4 M106.7,166.3 L111.3,147.3 M88.2,187.0 L84.1,174.0 M84.1,174.0 L87.9,167.9 M87.9,167.9 L106.7,166.3 M93.7,191.5 L88.2,187.0 M85.8,215.0 L93.7,191.5 M89.3,218.1 L86.5,216.4 M86.5,216.4 L85.8,215.0 M95.2,232.0 L89.3,218.1 M82.8,247.5 L95.2,232.0 M95.2,257.8 L82.8,247.5 M94.0,270.2 L95.2,257.8 M107.6,282.5 L94.0,270.2 M109.6,311.3 L101.3,293.7 M101.3,293.7 L107.6,282.5 M95.1,321.4 L109.6,311.3 M118.2,335.9 L104.7,339.5 M104.7,339.5 L95.1,321.4 M132.1,339.9 L118.2,335.9 M149.1,339.7 L132.2,335.8 M177.5,331.4 L170.6,340.8 M170.6,340.8 L149.7,337.8 M195.4,339.4 L177.5,331.4 M192.2,359.1 L195.4,339.4 M219.6,358.0 L216.5,360.3 M216.5,360.3 L192.2,359.1 M239.8,359.1 L219.6,358.0 M238.5,396.0 L238.5,358.0" fill="none" stroke="#283640" stroke-width="2.0" stroke-linecap="round"/><g opacity="0.9"><path d="M517.5,207.0 L531.0,195.0" fill="none" stroke="#4a82af" stroke-width="3.4" stroke-linecap="round" stroke-linejoin="round"/><path d="M315.0,342.0 L292.5,342.0" fill="none" stroke="#4a82af" stroke-width="2.4" stroke-linecap="round" stroke-linejoin="round"/><path d="M318.0,316.5 L315.0,342.0" fill="none" stroke="#4a82af" stroke-width="2.4" stroke-linecap="round" stroke-linejoin="round"/><path d="M315.0,297.0 L318.0,316.5" fill="none" stroke="#4a82af" stroke-width="2.1" stroke-linecap="round" stroke-linejoin="round"/><path d="M319.5,265.5 L315.0,297.0" fill="none" stroke="#4a82af" stroke-width="2.1" stroke-linecap="round" stroke-linejoin="round"/><path d="M478.5,259.5 L498.6,262.8" fill="none" stroke="#4a82af" stroke-width="2.0" stroke-linecap="round" stroke-linejoin="round"/><path d="M326.2,362.2 L305.2,374.7" fill="none" stroke="#4a82af" stroke-width="1.9" stroke-linecap="round" stroke-linejoin="round"/><path d="M345.0,343.5 L326.2,362.2" fill="none" stroke="#4a82af" stroke-width="1.9" stroke-linecap="round" stroke-linejoin="round"/><path d="M301.5,261.0 L319.5,265.5" fill="none" stroke="#4a82af" stroke-width="1.8" stroke-linecap="round" stroke-linejoin="round"/><path d="M520.9,277.9 L498.6,262.8" fill="none" stroke="#4a82af" stroke-width="1.7" stroke-linecap="round" stroke-linejoin="round"/><path d="M364.5,346.5 L345.0,343.5" fill="none" stroke="#4a82af" stroke-width="1.7" stroke-linecap="round" stroke-linejoin="round"/><path d="M460.8,275.4 L478.5,259.5" fill="none" stroke="#4a82af" stroke-width="1.6" stroke-linecap="round" stroke-linejoin="round"/><path d="M380.6,340.7 L364.5,346.5" fill="none" stroke="#4a82af" stroke-width="1.6" stroke-linecap="round" stroke-linejoin="round"/><path d="M517.5,301.5 L520.9,277.9" fill="none" stroke="#4a82af" stroke-width="1.6" stroke-linecap="round" stroke-linejoin="round"/><path d="M430.9,277.9 L460.8,275.4" fill="none" stroke="#4a82af" stroke-width="1.5" stroke-linecap="round" stroke-linejoin="round"/><path d="M280.5,262.5 L301.5,261.0" fill="none" stroke="#4a82af" stroke-width="1.4" stroke-linecap="round" stroke-linejoin="round"/><path d="M408.6,262.8 L430.9,277.9" fill="none" stroke="#4a82af" stroke-width="1.4" stroke-linecap="round" stroke-linejoin="round"/><path d="M538.2,302.4 L517.5,301.5" fill="none" stroke="#4a82af" stroke-width="1.4" stroke-linecap="round" stroke-linejoin="round"/><path d="M393.0,258.0 L408.6,262.8" fill="none" stroke="#4a82af" stroke-width="1.4" stroke-linecap="round" stroke-linejoin="round"/></g><g fill="none" stroke-linecap="round" stroke-linejoin="round"><path d="M563.4,25.2 L563.4,52.2 L553.5,72.0 L546.8,90.0 L547.5,115.5 L560.6,135.0 L549.0,154.8 M549.0,154.8 L561.0,165.0 L559.8,185.4 L558.0,202.5 L537.0,210.0 L531.0,195.0 L502.9,196.9 L480.0,210.0 L454.5,225.0 L439.2,239.4 L432.0,256.5 L408.6,262.8 M408.6,262.8 L411.8,240.8 L405.0,220.5 L394.2,203.4 L375.4,196.7 L361.3,174.9 L349.9,151.9 L346.5,130.5 L333.0,112.5 M333.0,112.5 L326.6,135.0 L304.5,142.5 L292.5,157.5 L282.0,177.0 L274.5,198.0 L256.5,202.5 L240.0,220.5 M240.0,220.5 L226.5,235.5 L213.0,246.0 L188.0,253.0 L183.6,286.2 L169.9,307.1 L142.9,322.9" stroke="#f5eede" stroke-width="3.4" opacity="0.7"/><path d="M563.4,25.2 L563.4,52.2 L553.5,72.0 L546.8,90.0 L547.5,115.5 L560.6,135.0 L549.0,154.8 M549.0,154.8 L561.0,165.0 L559.8,185.4 L558.0,202.5 L537.0,210.0 L531.0,195.0 L502.9,196.9 L480.0,210.0 L454.5,225.0 L439.2,239.4 L432.0,256.5 L408.6,262.8 M408.6,262.8 L411.8,240.8 L405.0,220.5 L394.2,203.4 L375.4,196.7 L361.3,174.9 L349.9,151.9 L346.5,130.5 L333.0,112.5 M333.0,112.5 L326.6,135.0 L304.5,142.5 L292.5,157.5 L282.0,177.0 L274.5,198.0 L256.5,202.5 L240.0,220.5 M240.0,220.5 L226.5,235.5 L213.0,246.0 L188.0,253.0 L183.6,286.2 L169.9,307.1 L142.9,322.9" stroke="#6e4e32" stroke-width="1.6" stroke-dasharray="5,3"/></g><g font-family="Georgia, serif"><circle cx="563.4" cy="25.2" r="5.5" fill="#f4ead8" stroke="#2b2b2b" stroke-width="1.2"/><text x="570.9" y="28.2" font-size="11" stroke="#f7f3ea" stroke-width="3" paint-order="stroke" fill="#23211c">Faronhollowford</text><circle cx="333.0" cy="112.5" r="4.0" fill="#f4ead8" stroke="#2b2b2b" stroke-width="1.2"/><text x="339.0" y="115.5" font-size="9" stroke="#f7f3ea" stroke-width="3" paint-order="stroke" fill="#23211c">Eldrickgate</text><circle cx="549.0" cy="154.8" r="3.0" fill="#f4ead8" stroke="#2b2b2b" stroke-width="1.2"/><text x="554.0" y="157.8" font-size="9" stroke="#f7f3ea" stroke-width="3" paint-order="stroke" fill="#23211c">Aldorford</text><circle cx="240.0" cy="220.5" r="5.5" fill="#f4ead8" stroke="#2b2b2b" stroke-width="1.2"/><text x="247.5" y="223.5" font-size="11" stroke="#f7f3ea" stroke-width="3" paint-order="stroke" fill="#23211c">Faronholt</text><circle cx="408.6" cy="262.8" r="4.0" fill="#f4ead8" stroke="#2b2b2b" stroke-width="1.2"/><text x="414.6" y="265.8" font-size="9" stroke="#f7f3ea" stroke-width="3" paint-order="stroke" fill="#23211c">Ulmardley</text><circle cx="142.9" cy="322.9" r="3.0" fill="#f4ead8" stroke="#2b2b2b" stroke-width="1.2"/><text x="147.9" y="325.9" font-size="9" stroke="#f7f3ea" stroke-width="3" paint-order="stroke" fill="#23211c">Ironhollowaygate</text></g></svg>