<svg xmlns="http://www.w3.org/2000/svg" width="630" height="630" viewBox="0 0 630 630"><rect width="630" height="630" fill="#c9d2bb"/><polygon points="172.1,315.0 181.3,250.6 223.8,200.7 281.4,167.8 315.0,173.1 375.4,189.6 430.2,223.1 466.1,315.0 457.6,347.6 444.1,377.2 409.9,434.0 375.8,441.2 344.8,445.7 315.0,448.3 254.0,441.6 226.8,425.6 198.6,407.8 182.8,378.6" fill="#e6dcc0"/><g stroke="#4a4230" stroke-width="1" stroke-linejoin="round"><polygon points="263.3,178.1 281.4,167.8 315.0,173.1 370.1,188.2 344.9,252.7 291.8,241.0" fill="#dfd6c0"/><polygon points="404.4,362.6 358.0,407.9 319.2,364.1 391.6,336.9" fill="#c2b48f"/><polygon points="441.2,382.0 409.9,434.0 375.8,441.2 362.1,443.2 358.0,407.9 404.4,362.6" fill="#cdbf9e"/><polygon points="291.8,241.0 344.9,252.7 355.5,267.5 356.8,282.5 292.9,345.9 251.1,303.4" fill="#c2b48f"/><polygon points="319.2,364.1 358.0,407.9 362.1,443.2 344.8,445.7 315.0,448.3 254.0,441.6 246.0,436.9 295.1,354.2" fill="#dfd6c0"/><polygon points="391.6,336.9 319.2,364.1 295.1,354.2 292.9,345.9 356.8,282.5 392.5,320.2" fill="#d9c08a"/><polygon points="370.1,188.2 375.4,189.6 430.2,223.1 437.8,242.5 355.5,267.5 344.9,252.7" fill="#b3a684"/><polygon points="174.5,298.6 181.3,250.6 223.8,200.7 263.3,178.1 291.8,241.0 251.1,303.4" fill="#dfd6c0"/><polygon points="455.8,288.7 466.1,315.0 457.6,347.6 444.1,377.2 441.2,382.0 404.4,362.6 391.6,336.9 392.5,320.2" fill="#cdbf9e"/><polygon points="437.8,242.5 455.8,288.7 392.5,320.2 356.8,282.5 355.5,267.5" fill="#d8cdb0"/><polygon points="172.1,315.0 174.5,298.6 251.1,303.4 292.9,345.9 295.1,354.2 246.0,436.9 226.8,425.6 198.6,407.8 182.8,378.6" fill="#c2b48f"/></g><g fill="#7d6c52" stroke="#4a3e2e" stroke-width="0.5" stroke-linejoin="round"><polygon points="341.4,183.0 346.2,184.3 341.2,202.5 334.8,200.0"/><polygon points="351.3,186.0 366.3,190.1 362.7,199.4 349.1,194.1"/><polygon points="361.3,204.3 359.2,209.9 345.7,204.6 347.3,198.8"/><polygon points="356.8,214.5 355.2,218.6 331.4,209.3 333.0,205.2"/><polygon points="315.1,176.3 335.7,182.0 332.6,190.0 312.8,182.3"/><polygon points="330.8,195.5 326.2,207.4 316.3,203.5 320.9,191.7"/><polygon points="311.4,202.1 305.1,199.7 310.1,187.0 316.4,189.4"/><polygon points="296.2,172.0 310.5,174.3 308.6,179.4 295.3,174.2"/><polygon points="305.6,183.6 300.4,197.0 289.4,192.7 294.6,179.3"/><polygon points="276.2,173.2 281.8,170.0 292.0,171.6 289.4,178.4"/><polygon points="267.1,179.3 271.5,176.8 286.8,182.8 283.7,190.7 269.7,185.2"/><polygon points="290.1,226.9 308.2,218.8 303.0,232.0"/><polygon points="300.2,240.9 293.1,239.4 289.6,231.5 302.0,236.4"/><polygon points="286.6,222.5 281.6,211.4 297.8,204.1 291.5,220.3"/><polygon points="279.1,206.3 272.9,192.5 292.6,200.2"/><polygon points="303.5,204.1 312.7,207.7 311.0,212.0 298.2,217.8"/><polygon points="349.4,233.8 343.3,249.6 337.4,248.3 341.0,231.9"/><polygon points="354.0,223.5 351.7,229.4 341.5,227.1 343.2,219.3"/><polygon points="322.3,244.7 314.4,243.0 318.0,226.4 328.0,230.3"/><polygon points="332.6,247.8 327.0,246.6 333.0,231.4 336.0,232.5"/><polygon points="309.3,242.6 304.4,241.5 311.6,223.1 313.4,223.8"/><polygon points="327.7,213.7 338.6,218.0 336.5,227.7 324.1,222.8"/><polygon points="313.0,219.1 317.0,209.0 323.5,211.5 319.5,221.6"/><polygon points="341.6,383.6 355.9,370.9 358.3,377.3"/><polygon points="350.9,395.7 344.1,388.0 359.4,382.2 362.8,391.2"/><polygon points="366.1,397.4 358.1,405.3 353.2,399.8 365.3,395.2"/><polygon points="337.5,381.1 323.3,365.2 330.9,362.3 337.9,380.8"/><polygon points="352.8,363.5 354.0,366.6 341.8,377.4 338.6,368.8"/><polygon points="335.1,360.4 349.8,354.9 351.4,359.2 336.7,364.7"/><polygon points="401.0,362.0 397.1,365.9 385.6,354.1 393.3,346.6"/><polygon points="381.7,351.0 375.9,345.1 390.5,339.6 391.5,341.5"/><polygon points="393.1,369.8 380.1,382.5 372.6,374.8 391.2,367.8"/><polygon points="376.6,386.4 369.3,393.5 363.4,377.9 367.0,376.6"/><polygon points="368.3,348.9 371.3,347.8 386.5,363.4 375.3,367.6"/><polygon points="362.0,372.5 355.0,353.9 362.5,351.1 369.5,369.7"/><polygon points="376.6,392.6 378.9,390.4 391.8,403.7 389.6,405.8"/><polygon points="364.3,405.2 373.7,396.0 379.5,401.9 370.1,411.1"/><polygon points="382.9,404.9 386.6,408.7 376.7,418.4 373.0,414.7"/><polygon points="363.3,430.5 360.9,409.1 372.8,421.3"/><polygon points="381.4,437.4 375.3,438.7 364.3,440.3 363.9,437.3 372.8,428.6"/><polygon points="392.4,435.4 387.2,436.5 376.1,425.1 379.3,421.9"/><polygon points="390.5,425.9 383.5,418.8 394.7,407.9 401.6,415.0"/><polygon points="411.9,425.3 408.2,431.5 397.8,433.7 394.4,430.2 405.8,419.0"/><polygon points="436.8,383.2 427.3,399.1 417.7,393.3 431.1,380.2"/><polygon points="425.7,404.0 423.8,407.2 410.2,399.0 413.0,396.3"/><polygon points="420.5,410.8 414.8,420.2 402.6,407.7 407.5,403.0"/><polygon points="397.4,373.3 404.9,366.0 413.1,370.3 406.5,382.6"/><polygon points="417.8,372.6 426.2,377.1 413.3,389.7 410.4,386.8"/><polygon points="398.6,404.8 396.0,402.2 407.8,390.7 410.4,393.3"/><polygon points="393.2,398.5 382.5,387.6 387.7,382.5 398.4,393.5"/><polygon points="390.6,379.0 393.5,376.1 404.9,387.8 402.0,390.6"/><polygon points="343.4,291.9 340.3,294.9 321.9,276.3 324.9,273.2"/><polygon points="352.1,267.7 352.7,268.5 353.8,281.4 347.4,287.8 339.7,279.9"/><polygon points="343.1,255.5 348.4,262.9 335.6,275.5 329.3,269.2"/><polygon points="328.5,252.3 335.9,253.9 317.8,271.8 313.3,267.3"/><polygon points="292.8,243.5 303.3,245.8 301.0,256.2 291.0,246.2"/><polygon points="308.0,247.5 321.8,250.5 308.9,263.3 305.4,259.7"/><polygon points="267.1,282.9 269.1,279.7 281.8,288.0 276.9,292.8"/><polygon points="260.1,308.2 255.0,303.0 264.8,288.0 272.6,295.8"/><polygon points="272.8,275.8 279.0,266.3 293.0,275.4 284.8,283.6"/><polygon points="281.5,261.3 288.6,250.3 295.8,257.6 287.9,265.4"/><polygon points="299.3,260.5 304.4,265.7 297.7,272.3 291.4,268.2"/><polygon points="328.6,307.2 323.5,312.3 314.1,302.8 319.2,297.7"/><polygon points="337.0,298.9 332.0,303.9 322.5,294.4 327.6,289.4"/><polygon points="310.8,299.3 307.3,295.8 320.6,282.5 324.1,286.1"/><polygon points="301.3,275.2 307.3,269.3 317.0,279.1 311.0,285.0"/><polygon points="303.8,292.6 293.6,282.4 297.7,278.3 307.9,288.6"/><polygon points="320.0,315.6 312.8,322.7 305.2,314.9 312.3,307.8"/><polygon points="301.7,311.8 296.0,306.0 303.5,298.6 309.2,304.3"/><polygon points="309.5,326.2 305.3,330.3 294.1,318.9 298.3,314.9"/><polygon points="301.0,333.6 292.9,341.6 282.7,331.2 290.8,323.2"/><polygon points="278.4,327.8 276.3,325.6 292.8,309.4 295.0,311.5"/><polygon points="282.2,294.7 290.5,286.4 299.5,295.5 291.1,303.8"/><polygon points="273.0,321.8 263.9,312.5 271.0,305.5 280.2,314.7"/><polygon points="274.1,301.7 278.1,297.7 288.0,307.8 284.0,311.7"/><polygon points="261.7,439.6 254.9,438.9 249.9,435.9 256.5,424.8 266.9,431.0"/><polygon points="270.0,441.8 265.7,441.4 271.3,432.1 274.6,434.1"/><polygon points="289.9,443.6 274.0,441.9 277.4,436.2"/><polygon points="283.3,434.9 279.1,432.4 287.2,418.8 291.3,421.3"/><polygon points="275.4,430.6 272.8,429.0 281.2,414.9 283.8,416.5"/><polygon points="269.2,425.6 259.5,419.9 266.8,407.7 276.4,413.4"/><polygon points="269.9,402.5 281.5,383.1 287.1,386.4 275.6,405.9"/><polygon points="292.2,388.9 305.5,396.8 301.7,403.1 288.5,395.2"/><polygon points="298.6,407.6 293.3,416.5 280.7,409.0 286.0,400.1"/><polygon points="303.7,444.4 299.5,443.9 287.7,436.9 291.5,430.6 306.5,439.5"/><polygon points="294.5,425.9 298.7,418.8 313.4,427.6 309.3,434.6"/><polygon points="301.6,413.9 310.0,399.8 317.4,404.2 309.0,418.3"/><polygon points="322.1,406.2 325.6,408.3 316.6,423.6 313.0,421.4"/><polygon points="318.7,445.1 315.0,445.4 309.9,444.8 320.4,427.2 327.0,431.2"/><polygon points="336.8,444.0 324.9,445.1 331.8,433.4 340.2,438.4"/><polygon points="350.8,443.5 344.7,444.4 340.7,444.7 343.9,439.3"/><polygon points="357.8,427.7 359.4,441.1 355.2,441.7 348.1,437.5 354.9,426.0"/><polygon points="343.7,434.2 332.5,427.6 338.8,417.0 350.0,423.7"/><polygon points="327.6,425.6 322.4,422.5 329.4,410.6 334.7,413.7"/><polygon points="350.7,403.6 355.5,409.0 356.9,421.3 344.5,414.0"/><polygon points="338.0,390.1 346.4,399.6 339.9,410.6 329.5,404.4"/><polygon points="311.7,394.8 307.1,392.1 315.4,378.3 319.9,381.0"/><polygon points="332.0,388.7 324.3,401.7 316.4,397.0 324.1,384.0"/><polygon points="320.7,369.1 334.1,384.2 317.5,374.4"/><polygon points="317.0,366.0 314.1,370.9 294.9,359.5 296.2,357.4"/><polygon points="311.5,375.3 303.1,389.4 297.5,386.1 305.9,372.0"/><polygon points="293.0,382.9 284.5,377.9 292.4,364.5 301.0,369.5"/><polygon points="412.7,218.8 408.1,226.4 401.2,222.2"/><polygon points="406.2,229.1 401.4,236.9 396.3,233.8 401.1,226.0"/><polygon points="393.4,232.3 389.7,230.1 393.0,224.6 397.3,223.3 398.5,224.1"/><polygon points="399.6,239.9 397.8,242.8 386.5,235.9 388.3,232.9"/><polygon points="383.6,234.3 378.1,230.9 377.6,229.4 388.6,226.1"/><polygon points="393.9,249.8 390.5,255.4 385.8,256.8 384.5,252.7"/><polygon points="396.0,245.7 395.9,245.9 383.9,249.6 382.6,245.1 390.8,242.6"/><polygon points="381.3,242.3 379.1,234.9 387.8,240.3"/><polygon points="371.3,190.6 374.6,191.5 383.8,197.1 381.3,201.3 369.8,194.3"/><polygon points="379.9,204.5 378.5,206.7 368.9,200.8 368.0,197.8 368.1,197.3"/><polygon points="377.1,209.2 373.3,215.5 370.1,205.0"/><polygon points="376.3,224.3 374.7,219.2 379.9,210.7 383.3,212.8"/><polygon points="393.2,219.0 391.7,221.5 380.2,225.0 386.3,214.9"/><polygon points="387.0,198.5 389.7,200.1 384.0,209.5 381.3,207.8"/><polygon points="392.5,202.6 400.1,207.2 395.1,215.4 387.5,210.8"/><polygon points="403.8,209.4 412.9,214.9 397.6,219.6"/><polygon points="405.1,250.9 394.6,254.1 398.9,247.2"/><polygon points="405.8,247.4 401.1,244.5 407.5,234.1 412.2,237.0"/><polygon points="424.4,244.5 409.5,249.0 415.5,239.1"/><polygon points="426.7,223.6 428.4,224.6 431.8,233.2 421.0,237.4 419.0,236.2"/><polygon points="433.8,236.5 435.7,241.5 429.5,243.4 424.3,240.2"/><polygon points="417.5,217.6 423.3,221.1 418.3,229.5 412.4,225.9"/><polygon points="417.2,232.5 415.5,235.3 408.5,231.0 410.2,228.3"/><polygon points="350.1,244.9 353.4,236.2 364.4,240.5"/><polygon points="355.1,232.5 357.8,225.6 368.4,229.8 365.8,236.6"/><polygon points="372.1,230.5 375.1,231.6 376.8,237.2 370.4,239.1 368.9,238.6"/><polygon points="359.3,221.6 361.6,215.8 370.7,219.3 373.0,226.9"/><polygon points="362.5,212.1 366.2,202.7 369.9,214.9"/><polygon points="356.2,246.9 364.6,244.3 366.5,250.6 358.1,253.2"/><polygon points="349.3,256.1 346.7,252.4 348.0,249.1 352.9,247.7 354.9,254.4"/><polygon points="357.2,265.7 356.0,266.0 350.7,258.6 354.7,257.4"/><polygon points="369.5,261.2 360.1,264.0 358.0,257.2 367.4,254.3"/><polygon points="382.9,257.6 373.0,260.6 371.9,257.0 381.9,254.0"/><polygon points="371.5,253.2 368.6,243.6 377.2,241.0 380.1,250.6"/><polygon points="284.8,248.1 280.6,254.6 269.1,247.1"/><polygon points="277.5,258.1 271.1,268.0 262.2,262.2 268.6,252.3"/><polygon points="257.8,259.3 248.9,253.5 249.3,246.6 260.9,247.3 264.2,249.5"/><polygon points="267.7,272.5 264.0,278.2 248.3,268.0 248.8,260.1"/><polygon points="258.8,286.9 249.8,300.7 245.9,300.5 246.8,286.1"/><polygon points="261.2,282.4 246.5,281.4 247.0,273.2"/><polygon points="288.4,239.8 288.9,240.8 287.0,243.7 264.8,242.3 265.0,238.4"/><polygon points="283.2,225.5 287.9,235.8 282.6,235.5"/><polygon points="279.1,222.1 278.4,233.8 265.7,233.0 266.4,221.3"/><polygon points="250.1,230.8 250.8,220.0 261.1,220.6 260.4,231.4"/><polygon points="260.1,242.6 249.0,241.9 249.4,235.3 260.6,236.0"/><polygon points="255.5,185.7 262.1,182.0 269.2,197.6 262.3,200.7"/><polygon points="252.3,190.1 258.3,203.3 251.2,206.5"/><polygon points="271.3,202.8 277.4,216.2 260.7,215.2 261.2,207.4"/><polygon points="256.2,216.3 250.1,215.9 250.5,210.8 256.7,207.9"/><polygon points="230.7,199.6 247.7,189.9 247.1,200.6"/><polygon points="237.3,205.4 246.4,205.9 245.4,221.5 236.3,220.9"/><polygon points="222.5,206.6 224.2,204.5 231.6,205.0 230.6,220.6 221.6,220.0"/><polygon points="209.3,220.4 217.7,210.4 217.1,220.9"/><polygon points="223.8,225.3 227.6,225.5 226.3,245.7 222.5,245.4"/><polygon points="244.7,237.3 244.1,246.5 231.2,245.7 231.8,236.5"/><polygon points="232.1,225.7 245.7,226.6 245.4,232.6 231.7,231.7"/><polygon points="207.2,224.3 219.1,225.0 218.6,233.1 206.7,232.3"/><polygon points="218.4,237.7 217.9,245.2 205.9,244.4 206.3,236.9"/><polygon points="190.5,243.4 202.2,229.7 201.3,244.1"/><polygon points="204.9,249.7 218.7,250.6 217.9,262.9 204.2,262.0"/><polygon points="224.3,250.3 232.2,250.8 231.4,264.3 223.4,263.8"/><polygon points="237.0,251.0 244.0,251.5 243.1,265.2 236.2,264.7"/><polygon points="240.9,294.7 240.5,300.0 218.5,298.6 218.9,293.3"/><polygon points="242.5,270.2 241.3,289.3 235.1,288.9 236.3,269.8"/><polygon points="229.3,288.0 219.6,287.4 220.8,269.3 230.4,269.9"/><polygon points="202.7,278.8 203.4,267.7 215.0,268.4 214.3,279.5"/><polygon points="212.9,298.2 201.7,297.4 202.5,284.3 213.7,285.0"/><polygon points="197.9,248.0 200.2,248.1 199.1,265.3 196.8,265.1"/><polygon points="182.3,263.2 184.0,251.8 187.0,248.3 193.3,248.7 192.3,263.8"/><polygon points="190.9,280.8 197.4,281.7 196.4,297.5 189.9,297.1"/><polygon points="177.4,296.2 179.9,279.3 185.8,280.1 184.8,296.7"/><polygon points="180.5,274.2 181.4,268.5 198.1,269.5 197.6,276.6"/><polygon points="400.9,319.5 409.5,315.3 417.5,331.3 408.9,335.6"/><polygon points="397.0,342.1 394.1,336.4 395.0,321.8 395.6,321.5 404.1,338.6"/><polygon points="403.9,355.7 399.5,346.8 411.1,341.0 415.5,349.9"/><polygon points="415.0,338.3 420.8,335.4 425.8,345.5 420.0,348.4"/><polygon points="420.3,368.1 419.1,367.5 427.9,350.8 433.3,361.6"/><polygon points="441.3,377.2 440.3,378.9 425.4,371.0 435.6,365.9"/><polygon points="414.7,365.5 406.1,360.9 405.8,360.3 421.6,352.4"/><polygon points="450.4,358.1 443.9,372.4 439.0,362.6 449.9,357.2"/><polygon points="432.5,348.3 427.2,337.5 437.1,332.6 442.4,343.4"/><polygon points="437.1,358.8 434.2,352.9 445.1,347.5 448.0,353.3"/><polygon points="461.8,320.4 458.1,334.4 442.1,330.3 442.1,330.2"/><polygon points="457.2,339.6 455.3,346.7 452.7,352.4 444.7,336.4"/><polygon points="450.8,320.0 440.2,325.3 436.2,317.1 446.7,311.9"/><polygon points="434.0,312.7 429.8,304.4 440.4,299.2 444.5,307.5"/><polygon points="419.5,322.2 414.6,312.3 425.3,306.9 430.3,316.8"/><polygon points="436.0,327.5 424.5,333.2 421.4,326.8 432.9,321.1"/><polygon points="454.4,292.6 459.8,306.5 451.5,309.8 445.2,297.1"/><polygon points="462.5,310.3 464.0,314.3 454.8,318.8 452.5,314.2"/><polygon points="367.0,287.1 360.9,280.7 360.0,270.5 385.0,262.9 390.2,280.1"/><polygon points="391.8,259.9 400.6,257.2 406.4,276.2 397.6,278.8"/><polygon points="384.8,308.3 370.4,293.2 379.4,290.4"/><polygon points="414.1,304.8 393.8,314.9 386.3,290.0 407.6,283.6"/><polygon points="444.2,270.4 450.5,286.7 421.7,301.0 415.1,279.2"/><polygon points="435.3,247.6 441.1,262.5 412.7,271.2 408.0,255.9"/><polygon points="287.1,362.4 281.4,371.9 271.3,365.9 276.9,356.3"/><polygon points="279.5,376.3 276.6,381.3 265.3,374.6 268.3,369.7"/><polygon points="248.0,363.4 242.4,360.1 253.0,342.3 258.6,345.6"/><polygon points="261.8,372.7 251.7,366.7 254.6,361.8 264.7,367.8"/><polygon points="257.5,358.2 263.4,348.2 272.4,353.5 266.5,363.5"/><polygon points="286.1,342.4 290.7,347.2 292.5,353.8 290.0,358.1 280.2,352.3"/><polygon points="279.4,335.1 283.0,338.8 276.2,350.3 271.9,347.7"/><polygon points="271.3,340.0 268.2,345.3 255.2,337.5 258.3,332.3"/><polygon points="265.1,321.0 276.0,332.1 273.7,335.9 260.8,328.2"/><polygon points="216.6,313.3 216.1,321.5 199.4,320.5 207.0,307.7"/><polygon points="208.6,302.3 218.6,302.9 218.2,309.1 208.1,303.1"/><polygon points="216.2,327.0 215.1,344.3 205.8,338.8 213.0,326.8"/><polygon points="201.6,336.5 192.5,331.0 195.7,325.5 207.6,326.3"/><polygon points="178.1,301.8 202.8,303.3 197.0,313.0"/><polygon points="173.5,315.0 174.9,304.9 178.8,307.2 173.6,315.9"/><polygon points="181.7,310.8 194.0,318.1 188.2,327.8 176.1,320.6 176.0,320.3"/><polygon points="255.6,327.4 252.2,333.1 238.1,324.8 241.5,319.1"/><polygon points="249.5,306.1 249.9,306.1 261.2,317.5 258.1,322.8 244.4,314.7"/><polygon points="238.2,305.1 243.9,305.4 233.8,322.3 229.5,319.7"/><polygon points="222.4,303.9 233.0,304.6 225.3,317.4 221.7,315.3"/><polygon points="225.7,351.4 219.2,347.5 219.4,343.2 230.2,343.9"/><polygon points="221.1,338.3 222.1,321.8 236.7,330.5 231.6,339.0"/><polygon points="250.3,337.3 246.6,343.5 238.0,338.4 241.7,332.1"/><polygon points="243.9,347.1 237.6,357.7 229.8,353.1 236.1,342.5"/><polygon points="197.4,363.4 212.6,360.8 207.5,369.3"/><polygon points="185.0,372.7 184.0,366.7 191.2,365.5 204.0,373.2 199.2,381.2"/><polygon points="193.1,393.4 185.3,378.9 197.5,386.1"/><polygon points="182.8,360.8 180.4,346.1 191.7,344.2 193.4,354.5 190.4,359.5"/><polygon points="195.8,342.0 201.7,341.0 202.8,341.6 197.3,350.9"/><polygon points="179.1,340.6 176.9,327.6 194.5,338.0"/><polygon points="205.8,345.0 217.1,351.7 214.7,355.6 197.8,358.4"/><polygon points="239.8,365.2 246.3,369.1 237.1,384.6 230.6,380.7"/><polygon points="217.2,362.4 221.9,354.5 235.0,362.3 230.3,370.2"/><polygon points="211.8,370.3 214.2,366.4 228.3,374.8 225.9,378.7"/><polygon points="203.5,386.1 209.9,375.3 221.4,382.2 215.0,392.9"/><polygon points="226.5,384.7 234.4,389.4 227.6,400.9 219.7,396.2"/><polygon points="201.2,406.7 200.4,406.1 195.8,397.6 200.1,390.4 208.0,395.1"/><polygon points="217.9,416.4 206.2,409.0 212.4,398.5 224.3,405.6"/><polygon points="273.5,385.1 266.9,396.1 257.5,390.5 264.0,379.5"/><polygon points="252.7,387.9 244.4,382.9 251.1,371.7 259.4,376.6"/><polygon points="237.7,409.8 231.2,406.0 241.9,388.1 248.3,391.9"/><polygon points="264.6,400.8 260.6,407.6 249.3,401.0 253.4,394.1"/><polygon points="257.9,411.8 253.2,419.7 242.3,413.1 246.9,405.3"/><polygon points="229.7,424.6 228.0,423.6 222.1,419.9 227.8,410.3 235.5,414.8"/><polygon points="250.4,424.1 245.0,433.2 234.2,426.9 239.7,417.7"/></g><g fill="none" stroke-linecap="round" stroke-linejoin="round"><path d="M317.0,207.2 L357.5,220.4 L386.6,231.1" stroke="#6c604a" stroke-width="3.4"/><path d="M386.6,231.1 L396.7,255.0 L406.5,280.1" stroke="#6c604a" stroke-width="3.4"/><path d="M406.5,280.1 L424.2,304.5 L430.8,334.7" stroke="#6c604a" stroke-width="3.4"/><path d="M430.8,334.7 L398.0,349.8 L364.6,369.5" stroke="#6c604a" stroke-width="3.4"/><path d="M364.6,369.5 L355.4,350.5 L345.6,328.3" stroke="#6c604a" stroke-width="3.4"/><path d="M364.6,369.5 L381.2,385.3 L396.5,404.8" stroke="#6c604a" stroke-width="3.4"/><path d="M345.6,328.3 L324.9,314.2 L304.2,288.4" stroke="#6c604a" stroke-width="3.4"/><path d="M364.6,369.5 L338.6,386.0 L307.6,410.9" stroke="#6c604a" stroke-width="3.4"/><path d="M304.2,288.4 L271.5,272.2 L234.1,249.5" stroke="#6c604a" stroke-width="3.4"/><path d="M307.6,410.9 L270.5,395.5 L229.5,358.7" stroke="#6c604a" stroke-width="3.4"/><path d="M317.0,207.2 L318.4,246.8 L304.2,288.4" stroke="#6c604a" stroke-width="3.4"/><path d="M304.2,288.4 L272.0,324.7 L229.5,358.7" stroke="#6c604a" stroke-width="3.4"/><path d="M345.6,328.3 L181.3,250.6" stroke="#6c604a" stroke-width="4.8"/><path d="M345.6,328.3 L466.1,315.0" stroke="#6c604a" stroke-width="4.8"/><path d="M345.6,328.3 L315.0,448.3" stroke="#6c604a" stroke-width="4.8"/><path d="M317.0,207.2 L357.5,220.4 L386.6,231.1" stroke="#e4d9bc" stroke-width="1.8"/><path d="M386.6,231.1 L396.7,255.0 L406.5,280.1" stroke="#e4d9bc" stroke-width="1.8"/><path d="M406.5,280.1 L424.2,304.5 L430.8,334.7" stroke="#e4d9bc" stroke-width="1.8"/><path d="M430.8,334.7 L398.0,349.8 L364.6,369.5" stroke="#e4d9bc" stroke-width="1.8"/><path d="M364.6,369.5 L355.4,350.5 L345.6,328.3" stroke="#e4d9bc" stroke-width="1.8"/><path d="M364.6,369.5 L381.2,385.3 L396.5,404.8" stroke="#e4d9bc" stroke-width="1.8"/><path d="M345.6,328.3 L324.9,314.2 L304.2,288.4" stroke="#e4d9bc" stroke-width="1.8"/><path d="M364.6,369.5 L338.6,386.0 L307.6,410.9" stroke="#e4d9bc" stroke-width="1.8"/><path d="M304.2,288.4 L271.5,272.2 L234.1,249.5" stroke="#e4d9bc" stroke-width="1.8"/><path d="M307.6,410.9 L270.5,395.5 L229.5,358.7" stroke="#e4d9bc" stroke-width="1.8"/><path d="M317.0,207.2 L318.4,246.8 L304.2,288.4" stroke="#e4d9bc" stroke-width="1.8"/><path d="M304.2,288.4 L272.0,324.7 L229.5,358.7" stroke="#e4d9bc" stroke-width="1.8"/><path d="M345.6,328.3 L181.3,250.6" stroke="#e4d9bc" stroke-width="3.2"/><path d="M345.6,328.3 L466.1,315.0" stroke="#e4d9bc" stroke-width="3.2"/><path d="M345.6,328.3 L315.0,448.3" stroke="#e4d9bc" stroke-width="3.2"/></g><polygon points="172.1,315.0 181.3,250.6 223.8,200.7 281.4,167.8 315.0,173.1 375.4,189.6 430.2,223.1 466.1,315.0 457.6,347.6 444.1,377.2 409.9,434.0 375.8,441.2 344.8,445.7 315.0,448.3 254.0,441.6 226.8,425.6 198.6,407.8 182.8,378.6" fill="none" stroke="#3c3628" stroke-width="1.5"/><g font-family="Georgia, serif" font-size="8" text-anchor="middle"><text x="317.0" y="210.2" stroke="#f7f3ea" stroke-width="2.5" paint-order="stroke" fill="#23211c">Temple</text><text x="364.6" y="372.5" stroke="#f7f3ea" stroke-width="2.5" paint-order="stroke" fill="#23211c">Craftsmen</text><text x="396.5" y="407.8" stroke="#f7f3ea" stroke-width="2.5" paint-order="stroke" fill="#23211c">Residential</text><text x="304.2" y="291.4" stroke="#f7f3ea" stroke-width="2.5" paint-order="stroke" fill="#23211c">Craftsmen</text><text x="307.6" y="413.9" stroke="#f7f3ea" stroke-width="2.5" paint-order="stroke" fill="#23211c">Temple</text><text x="345.6" y="331.3" stroke="#f7f3ea" stroke-width="2.5" paint-order="stroke" fill="#23211c">Market</text><text x="386.6" y="234.1" stroke="#f7f3ea" stroke-width="2.5" paint-order="stroke" fill="#23211c">Slums</text><text x="234.1" y="252.5" stroke="#f7f3ea" stroke-width="2.5" paint-order="stroke" fill="#23211c">Temple</text><text x="430.8" y="337.7" stroke="#f7f3ea" stroke-width="2.5" paint-order="stroke" fill="#23211c">Residential</text><text x="406.5" y="283.1" stroke="#f7f3ea" stroke-width="2.5" paint-order="stroke" fill="#23211c">Noble</text><text x="229.5" y="361.7" stroke="#f7f3ea" stroke-width="2.5" paint-order="stroke" fill="#23211c">Craftsmen</text></g><text x="315.0" y="20" text-anchor="middle" font-family="Georgia, serif" font-size="16" font-weight="bold" stroke="#f7f3ea" stroke-width="3" paint-order="stroke" fill="#23211c">Kelmont</text></svg>