<svg xmlns="http://www.w3.org/2000/svg" width="630" height="630" viewBox="0 0 630 630"><rect width="630" height="630" fill="#c9d2bb"/><polygon points="437.8,229.8 440.9,240.0 443.5,250.2 445.8,260.5 447.8,270.8 449.2,281.5 449.9,292.6 449.5,304.2 447.8,316.3 444.6,328.7 439.8,341.4 433.3,353.9 425.1,366.2 415.3,377.8 404.0,388.5 391.4,397.9 377.9,405.6 363.8,411.4 349.7,415.2 336.0,417.1 323.0,417.4 311.0,416.4 300.0,414.7 289.9,412.9 280.2,411.2 270.7,409.8 261.1,408.7 251.4,407.6 241.6,406.1 232.0,403.7 223.0,400.2 214.8,395.4 207.8,389.4 202.0,382.3 197.4,374.3 193.6,365.6 190.7,356.4 188.4,346.6 187.0,336.2 186.7,325.3 188.0,313.7 191.4,301.9 197.1,290.1 205.2,278.9 215.4,268.7 227.2,260.0 239.9,252.9 252.6,247.3 264.8,242.7 276.2,238.4 286.9,233.8 297.2,228.4 307.7,221.9 318.9,214.4 331.3,206.6 344.8,199.2 359.1,193.1 373.8,189.2 387.9,188.1 400.9,189.9 412.1,194.5 421.3,201.4 428.4,210.0 433.8,219.6" fill="#e6dcc0"/><g stroke="#4a4230" stroke-width="1" stroke-linejoin="round"><polygon points="380.0,220.6 418.7,268.4 398.2,284.4 363.9,277.4 352.7,246.1" fill="#d8cdb0"/><polygon points="352.7,246.1 363.9,277.4 324.0,316.2 317.8,316.1 311.2,237.3" fill="#d9c08a"/><polygon points="437.8,229.8 440.9,240.0 443.5,250.2 445.8,260.5 446.6,264.5 418.7,268.4 380.0,220.6 385.6,188.3 387.9,188.1 400.9,189.9 412.1,194.5 421.3,201.4 428.4,210.0 433.8,219.6" fill="#b9a98c"/><polygon points="363.9,277.4 398.2,284.4 395.7,335.4 365.0,342.4 324.0,316.2" fill="#c2b48f"/><polygon points="446.6,264.5 447.8,270.8 449.2,281.5 449.9,292.6 449.5,304.2 447.8,316.3 444.6,328.7 439.8,341.4 433.3,353.9 431.5,356.6 395.7,335.4 398.2,284.4 418.7,268.4" fill="#cdbf9e"/><polygon points="193.3,364.5 190.7,356.4 188.4,346.6 187.0,336.2 186.7,325.3 188.0,313.7 191.4,301.9 197.1,290.1 205.2,278.9 215.4,268.7 227.2,260.0 239.9,252.9 241.7,252.1 279.6,323.5" fill="#d8cdb0"/><polygon points="304.4,415.4 300.0,414.7 289.9,412.9 280.2,411.2 270.7,409.8 261.1,408.7 251.4,407.6 241.6,406.1 232.0,403.7 223.0,400.2 214.8,395.4 207.8,389.4 202.0,382.3 197.4,374.3 193.6,365.6 193.3,364.5 279.6,323.5 293.2,327.6" fill="#cdbf9e"/><polygon points="241.7,252.1 252.6,247.3 264.8,242.7 276.2,238.4 286.9,233.8 297.2,228.4 300.1,226.6 311.2,237.3 317.8,316.1 293.2,327.6 279.6,323.5" fill="#b3a684"/><polygon points="300.1,226.6 307.7,221.9 318.9,214.4 331.3,206.6 344.8,199.2 359.1,193.1 373.8,189.2 385.6,188.3 380.0,220.6 352.7,246.1 311.2,237.3" fill="#cdbf9e"/><polygon points="350.5,415.0 349.7,415.2 336.0,417.1 323.0,417.4 311.0,416.4 304.4,415.4 293.2,327.6 317.8,316.1 324.0,316.2 365.0,342.4" fill="#d8cdb0"/><polygon points="431.5,356.6 425.1,366.2 415.3,377.8 404.0,388.5 391.4,397.9 377.9,405.6 363.8,411.4 350.5,415.0 365.0,342.4 395.7,335.4" fill="#cdbf9e"/></g><g fill="#7d6c52" stroke="#4a3e2e" stroke-width="0.5" stroke-linejoin="round"><polygon points="379.6,226.7 396.3,247.4 379.7,260.8 363.9,241.3"/><polygon points="374.4,266.2 365.9,273.1 356.6,247.0 357.8,245.8"/><polygon points="401.6,253.9 412.7,267.8 397.2,279.9 375.0,275.4"/><polygon points="429.3,264.0 419.9,265.3 410.3,253.4 416.6,248.4"/><polygon points="435.2,234.6 437.1,241.1 439.7,251.2 441.9,261.2 436.4,261.9 422.6,244.8"/><polygon points="406.7,248.4 392.3,230.5 398.4,225.6 412.8,243.4"/><polygon points="403.8,221.5 410.8,215.8 425.0,233.3 418.0,239.0"/><polygon points="415.7,211.3 421.6,206.6 425.9,211.7 431.0,220.9 433.4,227.1 430.4,229.5"/><polygon points="388.2,224.4 384.2,219.5 384.3,219.1 410.3,198.0 415.8,202.2"/><polygon points="385.1,209.3 388.2,191.3 400.1,192.9 403.6,194.3"/><polygon points="350.7,329.8 345.3,326.4 355.2,310.9 362.5,318.4"/><polygon points="359.8,336.3 354.8,333.1 366.6,321.7 370.6,325.8"/><polygon points="340.6,324.2 327.6,315.9 333.0,310.6 342.8,320.7"/><polygon points="336.8,307.5 344.8,299.7 351.5,306.5 345.3,316.2"/><polygon points="381.0,336.4 365.4,339.9 363.7,338.9 373.8,329.1"/><polygon points="394.1,307.1 393.3,324.0 377.6,323.2"/><polygon points="394.0,329.0 393.7,333.8 386.1,335.5 379.2,328.3"/><polygon points="395.3,287.7 394.7,298.5 385.4,307.6 380.3,302.3"/><polygon points="378.1,283.3 389.3,285.6 376.4,298.2 369.8,291.4"/><polygon points="364.3,312.0 356.6,304.1 365.7,295.3 373.3,303.1"/><polygon points="382.1,311.5 372.3,320.9 367.5,315.9 377.2,306.5"/><polygon points="364.8,280.6 371.1,281.9 352.7,299.8 349.0,296.0"/><polygon points="399.2,324.6 399.8,311.2 411.3,311.8 410.7,325.2"/><polygon points="399.4,306.0 399.8,299.0 412.6,299.6 412.2,306.7"/><polygon points="410.4,341.4 398.1,334.1 398.3,329.9 411.0,330.5"/><polygon points="424.3,348.9 415.6,343.8 416.3,329.5 425.2,330.0"/><polygon points="440.8,330.7 437.2,340.2 430.8,352.5 430.6,352.7 429.9,352.3 431.0,330.2"/><polygon points="430.7,324.5 416.5,323.8 416.9,313.9 431.1,314.6"/><polygon points="417.0,308.5 417.4,300.2 432.0,300.9 431.6,309.2"/><polygon points="446.0,309.7 445.2,315.8 442.8,325.2 436.1,324.9 436.9,309.3"/><polygon points="447.9,300.8 447.8,304.1 447.6,305.3 436.2,304.8 436.4,300.3"/><polygon points="446.0,281.3 446.1,281.8 446.8,292.7 446.7,295.9 434.0,295.3 434.7,280.8"/><polygon points="444.8,267.0 445.5,271.2 446.2,276.0 434.1,275.4 434.4,268.5"/><polygon points="419.0,281.9 419.6,271.0 419.7,270.9 429.6,269.5 428.9,282.4"/><polygon points="428.6,295.9 418.1,295.3 418.5,286.7 429.0,287.3"/><polygon points="412.8,294.3 400.8,293.7 401.2,286.0 413.7,276.2"/><polygon points="217.4,272.7 218.2,271.9 229.5,263.5 239.9,257.7 248.2,273.2 223.8,286.2"/><polygon points="252.1,280.6 259.9,295.3 234.5,308.8 227.4,293.8"/><polygon points="263.9,302.7 273.9,321.5 246.7,334.4 238.1,316.4"/><polygon points="205.3,285.5 208.2,281.4 211.1,278.5 224.6,306.8 217.1,310.4"/><polygon points="191.1,322.5 192.1,314.5 195.2,303.3 200.1,293.3 209.8,313.7"/><polygon points="209.6,322.9 227.8,314.3 239.1,338.0 220.9,346.7"/><polygon points="198.1,327.2 202.5,325.1 214.7,350.8 210.3,352.9"/><polygon points="195.4,359.6 194.0,355.4 191.9,346.0 190.5,336.0 190.4,331.3 192.3,330.4 204.2,355.5"/><polygon points="201.3,375.6 199.8,373.1 196.7,365.8 207.5,360.7 212.2,370.4"/><polygon points="204.4,382.5 203.4,381.3 202.6,379.8 215.0,373.9 216.3,376.8"/><polygon points="212.2,358.3 217.4,355.8 225.0,371.8 219.8,374.3"/><polygon points="222.7,353.9 231.9,349.5 239.0,364.5 229.8,368.9"/><polygon points="213.8,390.7 209.9,387.4 208.5,385.6 227.3,376.7 230.3,382.9"/><polygon points="232.5,401.0 224.2,397.7 218.8,394.6 232.8,387.9 237.8,398.5"/><polygon points="247.9,381.9 252.5,391.7 242.7,396.4 238.0,386.6"/><polygon points="231.8,374.0 242.0,369.1 245.9,377.4 235.7,382.2"/><polygon points="259.4,406.0 251.7,405.1 242.1,403.6 240.2,403.1 254.8,396.2"/><polygon points="292.1,334.9 294.0,349.5 289.8,350.0 287.9,335.5"/><polygon points="284.9,349.7 273.4,351.2 271.8,338.4 283.2,337.0"/><polygon points="270.3,330.5 279.8,326.0 291.1,329.4 291.2,330.7 270.6,333.3"/><polygon points="250.6,339.8 253.5,338.4 260.6,353.4 252.5,354.4"/><polygon points="241.0,355.8 236.6,346.5 246.2,342.0 247.8,354.9"/><polygon points="257.9,336.6 265.7,332.9 268.1,352.2 265.5,352.5"/><polygon points="258.2,390.8 251.7,377.2 260.0,373.3 267.7,389.6"/><polygon points="264.8,370.6 272.1,367.1 274.9,389.0 273.6,389.2"/><polygon points="248.9,372.9 242.9,360.2 251.4,359.1 253.0,370.9"/><polygon points="256.2,358.8 270.9,357.0 271.5,361.8 257.4,368.5"/><polygon points="291.7,353.6 294.6,353.3 296.7,369.7 293.8,370.1"/><polygon points="276.3,356.7 287.0,355.3 288.9,369.6 278.1,371.0"/><polygon points="288.5,387.4 279.9,388.5 278.3,376.4 287.0,375.3"/><polygon points="297.0,373.6 298.6,386.5 293.1,387.2 291.4,374.3"/><polygon points="273.6,407.6 271.0,407.3 265.3,406.4 260.3,396.1 272.0,394.6"/><polygon points="277.3,397.1 276.9,393.8 298.9,391.0 299.3,394.3"/><polygon points="287.8,410.2 282.4,409.4 278.5,408.7 277.6,401.6 286.6,400.4"/><polygon points="301.5,412.5 300.4,412.3 292.5,410.9 291.1,400.2 299.8,399.1"/><polygon points="271.9,304.3 268.0,296.9 277.3,292.0 281.2,299.4"/><polygon points="281.0,289.9 288.5,285.9 292.6,293.5 285.1,297.5"/><polygon points="279.2,319.0 273.4,308.0 277.0,306.1 282.8,317.1"/><polygon points="280.7,304.7 287.4,301.1 292.8,311.3 286.1,314.8"/><polygon points="290.7,298.9 294.6,296.8 300.3,307.7 296.5,309.7"/><polygon points="289.9,325.2 280.5,322.3 280.3,321.9 286.4,318.6"/><polygon points="299.9,322.5 293.6,325.4 289.5,317.6 295.6,314.4"/><polygon points="306.9,319.5 303.1,321.3 298.5,312.5 302.1,310.6"/><polygon points="312.4,272.8 312.9,278.4 299.8,279.5"/><polygon points="309.0,304.3 302.9,304.8 299.0,297.5 303.9,294.8"/><polygon points="313.7,289.8 314.9,303.7 312.9,303.9 307.2,293.2"/><polygon points="298.1,294.2 297.2,294.6 291.5,283.8 292.1,283.5 297.2,283.0"/><polygon points="312.9,282.2 313.2,285.6 301.6,291.8 300.8,283.2"/><polygon points="315.1,307.6 315.7,314.9 309.9,317.6 305.0,308.4"/><polygon points="305.1,272.8 296.6,277.3 294.1,272.6 302.6,268.1"/><polygon points="292.4,269.9 290.8,266.9 299.8,262.1 301.4,265.2"/><polygon points="310.8,256.9 311.8,268.9 308.3,270.8 303.1,261.0"/><polygon points="302.9,256.7 295.5,260.7 292.1,254.3 299.6,250.3"/><polygon points="292.9,262.6 289.4,264.4 285.5,257.2 289.0,255.4"/><polygon points="310.1,244.6 310.8,252.7 306.1,255.1 302.6,248.5"/><polygon points="305.8,235.1 309.2,238.3 309.4,240.6 299.2,246.1 296.1,240.2"/><polygon points="292.0,233.5 298.0,229.8 300.0,228.8 303.4,232.1 293.9,237.2"/><polygon points="292.1,240.1 296.5,248.3 293.8,249.8 289.4,241.5"/><polygon points="290.7,250.8 284.4,254.2 280.5,246.8 286.8,243.4"/><polygon points="277.3,240.9 283.7,237.5 289.2,235.4 290.3,237.5 278.7,243.7"/><polygon points="282.2,257.4 285.5,263.6 279.3,267.0 275.9,260.7"/><polygon points="275.9,268.4 266.1,273.5 263.1,267.9 272.8,262.7"/><polygon points="286.9,267.2 290.3,273.8 280.4,279.0 277.0,272.5"/><polygon points="292.6,276.7 293.9,279.0 282.8,284.9 281.6,282.6"/><polygon points="279.4,286.1 274.3,288.7 268.1,277.1 273.2,274.4"/><polygon points="270.9,290.8 265.8,293.4 260.6,283.5 265.6,280.8"/><polygon points="258.7,280.3 254.4,272.2 259.7,269.4 264.0,277.5"/><polygon points="268.3,243.7 273.3,241.8 280.0,254.2 275.2,256.7"/><polygon points="266.4,249.3 271.4,258.7 264.3,262.5 259.3,253.0"/><polygon points="255.3,247.6 264.7,244.1 265.6,245.8 256.8,250.4"/><polygon points="256.4,256.8 260.6,264.6 252.9,268.7 248.7,260.9"/><polygon points="244.0,252.9 252.8,249.0 255.0,253.3 246.6,257.7"/><polygon points="362.7,233.0 351.9,243.1 345.8,241.8 348.4,230.0"/><polygon points="362.2,194.9 374.2,191.7 382.6,191.0 381.4,198.2"/><polygon points="373.4,222.7 367.5,228.2 349.7,224.5 351.1,218.0"/><polygon points="372.6,201.8 380.3,203.2 377.8,217.9 369.5,216.2"/><polygon points="355.1,199.2 366.9,201.2 364.1,214.6 352.4,212.2"/><polygon points="338.4,205.9 346.0,201.8 348.9,200.5 345.0,218.7 336.1,216.9"/><polygon points="321.6,214.9 332.2,208.1 333.3,207.5 331.3,216.9"/><polygon points="322.0,220.0 332.6,222.2 329.3,237.9 318.7,235.7"/><polygon points="338.3,222.8 344.2,224.1 340.7,240.9 334.7,239.7"/><polygon points="304.1,227.1 309.0,223.9 316.5,219.2 313.1,235.3 312.3,235.1"/><polygon points="302.2,367.5 300.7,355.3 318.3,353.0 320.6,371.1"/><polygon points="326.4,352.3 345.8,349.8 349.2,376.5 328.9,372.5"/><polygon points="352.7,347.7 361.1,346.6 355.9,372.6"/><polygon points="312.6,412.3 311.5,412.2 308.1,411.7 303.6,376.0 319.3,379.1"/><polygon points="347.0,411.5 335.7,413.0 323.1,413.3 320.9,413.1 323.7,399.1 348.5,404.1"/><polygon points="325.2,391.2 327.4,380.6 352.2,385.5 350.1,396.1"/><polygon points="333.3,326.3 356.0,340.8 335.5,343.4"/><polygon points="299.9,347.2 297.8,330.1 318.7,320.3 322.7,320.4 325.0,321.9 327.8,343.6"/><polygon points="374.4,404.0 362.9,408.8 354.1,411.2 356.4,399.7 374.6,403.3"/><polygon points="357.8,393.9 359.7,384.6 377.3,388.1 375.4,397.4"/><polygon points="360.6,378.7 363.7,363.2 372.4,364.9 369.3,380.5"/><polygon points="377.6,365.4 382.5,366.4 379.1,383.0 374.2,382.0"/><polygon points="400.8,387.0 389.7,395.3 381.2,400.1 384.5,383.8"/><polygon points="395.7,380.2 385.0,378.1 387.1,367.6 397.8,369.7"/><polygon points="415.9,373.3 413.5,376.1 406.8,382.5 400.6,381.3 402.7,370.7"/><polygon points="427.5,357.5 422.8,364.5 419.4,368.5 413.1,367.3 416.3,351.0"/><polygon points="398.8,364.5 388.2,362.4 390.7,349.9 401.3,352.0"/><polygon points="408.1,367.1 403.4,366.2 406.2,352.3 410.9,353.2"/><polygon points="391.4,344.8 392.7,338.6 395.3,338.0 411.6,347.7 411.4,348.7"/><polygon points="366.9,345.7 367.2,344.5 387.3,340.0 385.4,349.4"/><polygon points="382.8,361.3 364.7,357.7 366.1,351.0 384.2,354.6"/></g><g fill="none" stroke-linecap="round" stroke-linejoin="round"><path d="M383.2,256.8 L399.3,244.5 L412.8,228.2" stroke="#6c604a" stroke-width="3.4"/><path d="M383.2,256.8 L366.3,233.3 L348.1,218.6" stroke="#6c604a" stroke-width="3.4"/><path d="M383.2,256.8 L358.3,261.7 L333.8,272.9" stroke="#6c604a" stroke-width="3.4"/><path d="M333.8,272.9 L314.5,276.7 L286.7,276.4" stroke="#6c604a" stroke-width="3.4"/><path d="M333.8,272.9 L343.9,296.8 L368.1,310.4" stroke="#6c604a" stroke-width="3.4"/><path d="M368.1,310.4 L397.0,309.9 L423.7,307.8" stroke="#6c604a" stroke-width="3.4"/><path d="M368.1,310.4 L380.3,338.9 L386.2,371.4" stroke="#6c604a" stroke-width="3.4"/><path d="M386.2,371.4 L357.7,378.7 L327.5,367.2" stroke="#6c604a" stroke-width="3.4"/><path d="M286.7,276.4 L260.7,287.8 L227.2,310.1" stroke="#6c604a" stroke-width="3.4"/><path d="M227.2,310.1 L236.5,344.0 L257.2,372.4" stroke="#6c604a" stroke-width="3.4"/><path d="M257.2,372.4 L298.8,371.5 L327.5,367.2" stroke="#6c604a" stroke-width="3.4"/><path d="M257.2,372.4 L286.4,325.5 L286.7,276.4" stroke="#6c604a" stroke-width="3.4"/><path d="M333.8,272.9 L191.4,301.9" stroke="#6c604a" stroke-width="4.8"/><path d="M333.8,272.9 L428.4,210.0" stroke="#6c604a" stroke-width="4.8"/><path d="M333.8,272.9 L336.0,417.1" stroke="#6c604a" stroke-width="4.8"/><path d="M383.2,256.8 L399.3,244.5 L412.8,228.2" stroke="#e4d9bc" stroke-width="1.8"/><path d="M383.2,256.8 L366.3,233.3 L348.1,218.6" stroke="#e4d9bc" stroke-width="1.8"/><path d="M383.2,256.8 L358.3,261.7 L333.8,272.9" stroke="#e4d9bc" stroke-width="1.8"/><path d="M333.8,272.9 L314.5,276.7 L286.7,276.4" stroke="#e4d9bc" stroke-width="1.8"/><path d="M333.8,272.9 L343.9,296.8 L368.1,310.4" stroke="#e4d9bc" stroke-width="1.8"/><path d="M368.1,310.4 L397.0,309.9 L423.7,307.8" stroke="#e4d9bc" stroke-width="1.8"/><path d="M368.1,310.4 L380.3,338.9 L386.2,371.4" stroke="#e4d9bc" stroke-width="1.8"/><path d="M386.2,371.4 L357.7,378.7 L327.5,367.2" stroke="#e4d9bc" stroke-width="1.8"/><path d="M286.7,276.4 L260.7,287.8 L227.2,310.1" stroke="#e4d9bc" stroke-width="1.8"/><path d="M227.2,310.1 L236.5,344.0 L257.2,372.4" stroke="#e4d9bc" stroke-width="1.8"/><path d="M257.2,372.4 L298.8,371.5 L327.5,367.2" stroke="#e4d9bc" stroke-width="1.8"/><path d="M257.2,372.4 L286.4,325.5 L286.7,276.4" stroke="#e4d9bc" stroke-width="1.8"/><path d="M333.8,272.9 L191.4,301.9" stroke="#e4d9bc" stroke-width="3.2"/><path d="M333.8,272.9 L428.4,210.0" stroke="#e4d9bc" stroke-width="3.2"/><path d="M333.8,272.9 L336.0,417.1" stroke="#e4d9bc" stroke-width="3.2"/></g><polygon points="437.8,229.8 440.9,240.0 443.5,250.2 445.8,260.5 447.8,270.8 449.2,281.5 449.9,292.6 449.5,304.2 447.8,316.3 444.6,328.7 439.8,341.4 433.3,353.9 425.1,366.2 415.3,377.8 404.0,388.5 391.4,397.9 377.9,405.6 363.8,411.4 349.7,415.2 336.0,417.1 323.0,417.4 311.0,416.4 300.0,414.7 289.9,412.9 280.2,411.2 270.7,409.8 261.1,408.7 251.4,407.6 241.6,406.1 232.0,403.7 223.0,400.2 214.8,395.4 207.8,389.4 202.0,382.3 197.4,374.3 193.6,365.6 190.7,356.4 188.4,346.6 187.0,336.2 186.7,325.3 188.0,313.7 191.4,301.9 197.1,290.1 205.2,278.9 215.4,268.7 227.2,260.0 239.9,252.9 252.6,247.3 264.8,242.7 276.2,238.4 286.9,233.8 297.2,228.4 307.7,221.9 318.9,214.4 331.3,206.6 344.8,199.2 359.1,193.1 373.8,189.2 387.9,188.1 400.9,189.9 412.1,194.5 421.3,201.4 428.4,210.0 433.8,219.6" fill="none" stroke="#3c3628" stroke-width="1.5"/><g font-family="Georgia, serif" font-size="8" text-anchor="middle"><text x="383.2" y="259.8" stroke="#f7f3ea" stroke-width="2.5" paint-order="stroke" fill="#23211c">Noble</text><text x="333.8" y="275.9" stroke="#f7f3ea" stroke-width="2.5" paint-order="stroke" fill="#23211c">Market</text><text x="412.8" y="231.2" stroke="#f7f3ea" stroke-width="2.5" paint-order="stroke" fill="#23211c">Garrison</text><text x="368.1" y="313.4" stroke="#f7f3ea" stroke-width="2.5" paint-order="stroke" fill="#23211c">Craftsmen</text><text x="423.7" y="310.8" stroke="#f7f3ea" stroke-width="2.5" paint-order="stroke" fill="#23211c">Residential</text><text x="227.2" y="313.1" stroke="#f7f3ea" stroke-width="2.5" paint-order="stroke" fill="#23211c">Noble</text><text x="257.2" y="375.4" stroke="#f7f3ea" stroke-width="2.5" paint-order="stroke" fill="#23211c">Residential</text><text x="286.7" y="279.4" stroke="#f7f3ea" stroke-width="2.5" paint-order="stroke" fill="#23211c">Slums</text><text x="348.1" y="221.6" stroke="#f7f3ea" stroke-width="2.5" paint-order="stroke" fill="#23211c">Residential</text><text x="327.5" y="370.2" stroke="#f7f3ea" stroke-width="2.5" paint-order="stroke" fill="#23211c">Noble</text><text x="386.2" y="374.4" stroke="#f7f3ea" stroke-width="2.5" paint-order="stroke" fill="#23211c">Residential</text></g><text x="315.0" y="20" text-anchor="middle" font-family="Georgia, serif" font-size="16" font-weight="bold" stroke="#f7f3ea" stroke-width="3" paint-order="stroke" fill="#23211c">Kelmont</text></svg>