<svg xmlns="http://www.w3.org/2000/svg" width="630" height="630" viewBox="0 0 630 630"><rect width="630" height="630" fill="#c9d2bb"/><polygon points="187.7,364.2 188.1,346.5 191.4,328.6 197.3,310.9 205.6,293.7 216.0,277.2 228.5,261.5 242.8,247.1 258.8,234.0 276.2,222.6 294.8,213.3 314.1,206.3 333.8,201.9 353.3,200.4 372.0,201.9 389.4,206.3 405.0,213.6 418.3,223.6 429.0,235.8 437.0,250.1 442.0,265.9 444.1,283.0 443.2,300.9 439.3,319.3 432.5,337.9 422.9,356.2 410.5,374.0 395.5,390.7 378.1,405.9 358.7,419.0 337.8,429.7 316.0,437.3 293.9,441.6 272.4,442.4 252.2,439.6 234.0,433.3 218.4,423.9 205.7,411.7 196.4,397.3 190.4,381.3" fill="#e6dcc0"/><g stroke="#4a4230" stroke-width="1" stroke-linejoin="round"><polygon points="214.9,279.0 216.0,277.2 228.5,261.5 242.8,247.1 258.8,234.0 276.2,222.6 286.2,217.6 303.0,254.5 299.0,266.7 258.2,298.2" fill="#b3a684"/><polygon points="396.0,390.1 395.5,390.7 378.1,405.9 358.7,419.0 337.8,429.7 316.0,437.3 293.9,441.6 292.3,441.7 293.4,358.7 313.7,350.4 393.6,387.2" fill="#c2b48f"/><polygon points="373.5,230.5 413.1,288.7 382.5,307.0 362.5,302.0 349.2,254.2" fill="#b3a684"/><polygon points="349.2,254.2 362.5,302.0 330.1,317.6 299.0,266.7 303.0,254.5" fill="#d9c08a"/><polygon points="381.0,204.2 389.4,206.3 405.0,213.6 418.3,223.6 429.0,235.8 437.0,250.1 442.0,265.9 444.1,283.0 443.8,287.7 413.1,288.7 373.5,230.5" fill="#cdbf9e"/><polygon points="393.6,387.2 313.7,350.4 330.1,317.6 362.5,302.0 382.5,307.0" fill="#cdbf9e"/><polygon points="443.8,287.7 443.2,300.9 439.3,319.3 432.5,337.9 422.9,356.2 410.5,374.0 396.0,390.1 393.6,387.2 382.5,307.0 413.1,288.7" fill="#b9a98c"/><polygon points="187.7,364.2 188.1,346.5 191.4,328.6 197.3,310.9 205.6,293.7 214.9,279.0 258.2,298.2 275.5,349.7 189.7,376.8" fill="#cdbf9e"/><polygon points="293.4,358.7 292.3,441.7 272.4,442.4 252.2,439.6 234.0,433.3 218.4,423.9 205.7,411.7 196.4,397.3 190.4,381.3 189.7,376.8 275.5,349.7" fill="#c2b48f"/><polygon points="258.2,298.2 299.0,266.7 330.1,317.6 313.7,350.4 293.4,358.7 275.5,349.7" fill="#b3a684"/><polygon points="286.2,217.6 294.8,213.3 314.1,206.3 333.8,201.9 353.3,200.4 372.0,201.9 381.0,204.2 373.5,230.5 349.2,254.2 303.0,254.5" fill="#b9a98c"/></g><g fill="#7d6c52" stroke="#4a3e2e" stroke-width="0.5" stroke-linejoin="round"><polygon points="285.2,274.6 277.4,280.6 271.9,273.4 279.7,267.4"/><polygon points="274.5,283.4 269.9,286.9 263.8,279.1 268.4,275.5"/><polygon points="261.6,275.9 256.8,269.7 264.0,264.1 268.8,270.4"/><polygon points="266.9,261.6 272.5,257.3 277.5,263.9 271.9,268.2"/><polygon points="290.7,271.2 288.6,272.9 280.9,262.8 283.0,261.2"/><polygon points="297.8,264.0 297.3,265.5 293.2,268.6 286.1,259.4 291.3,255.5"/><polygon points="279.1,259.7 275.6,255.2 285.3,247.7 288.8,252.2"/><polygon points="301.3,253.5 301.8,254.5 299.7,261.3 296.5,257.2"/><polygon points="294.5,240.6 299.3,251.2 295.4,254.2 288.5,245.2"/><polygon points="285.7,243.0 278.4,248.7 276.1,245.8 283.5,240.1"/><polygon points="274.4,243.0 270.3,237.6 277.1,232.4 281.2,237.8"/><polygon points="287.2,225.1 292.5,236.8 288.1,240.2 280.5,230.3"/><polygon points="266.1,231.7 277.2,224.4 285.2,220.4 285.5,221.0 268.1,234.4"/><polygon points="266.8,239.1 270.8,244.2 263.2,250.0 259.3,244.9"/><polygon points="273.1,246.8 275.8,250.4 268.0,256.5 265.2,252.9"/><polygon points="254.6,239.3 259.7,235.2 262.7,233.2 265.0,236.2 257.0,242.4"/><polygon points="249.1,244.1 252.2,241.5 259.5,251.0 256.3,253.5"/><polygon points="242.0,250.6 244.1,248.5 246.4,246.6 253.3,255.6 248.6,259.2"/><polygon points="261.6,254.2 264.8,258.4 254.3,266.4 251.1,262.2"/><polygon points="229.2,264.2 230.1,263.0 239.2,253.8 243.3,259.1 232.0,267.8"/><polygon points="246.1,262.1 248.3,265.0 236.5,274.1 234.2,271.3"/><polygon points="223.7,270.2 226.4,266.9 233.7,276.5 230.5,279.0"/><polygon points="217.2,278.3 217.3,278.1 221.6,272.8 227.9,281.1 226.3,282.3"/><polygon points="256.9,295.4 249.7,292.2 253.5,283.6 260.7,286.8"/><polygon points="267.6,288.9 267.9,289.3 260.6,294.9 264.0,287.3"/><polygon points="256.6,275.1 263.7,284.4 254.4,280.2"/><polygon points="241.2,288.9 229.6,283.8 234.4,280.1"/><polygon points="250.8,280.3 250.1,282.1 238.7,277.0 244.7,272.4"/><polygon points="250.7,267.4 254.6,272.5 252.5,277.3 247.1,270.2"/><polygon points="248.9,285.2 246.5,290.7 238.8,280.7"/><polygon points="307.0,436.3 295.0,438.7 295.2,426.7 307.1,426.8"/><polygon points="294.3,422.2 294.3,418.9 308.1,419.1 308.1,422.4"/><polygon points="314.3,435.2 312.0,435.7 312.2,419.8 321.4,419.9"/><polygon points="295.3,414.6 295.5,401.3 305.0,401.4 304.8,414.7"/><polygon points="310.4,401.5 320.5,401.6 320.3,414.8 310.2,414.7"/><polygon points="324.9,400.7 330.9,400.8 324.8,414.1"/><polygon points="342.1,375.5 338.8,382.6 325.4,376.5 325.5,375.3"/><polygon points="336.5,386.6 331.9,396.6 325.6,396.5 325.8,381.7"/><polygon points="326.4,359.3 344.8,367.8 343.6,370.6 326.2,370.4"/><polygon points="296.4,362.7 296.4,360.8 313.6,353.7 320.6,356.9 320.5,363.0"/><polygon points="295.4,396.1 295.5,386.1 306.9,386.3 306.7,396.2"/><polygon points="311.7,386.1 320.9,386.3 320.8,396.6 311.5,396.5"/><polygon points="295.3,381.5 295.4,367.9 301.4,368.0 301.2,381.5"/><polygon points="306.5,368.9 320.4,369.1 320.3,380.9 306.4,380.8"/><polygon points="333.3,429.2 319.6,434.0 323.8,424.9"/><polygon points="331.6,423.6 326.2,421.1 333.5,405.1 338.9,407.6"/><polygon points="357.3,416.5 357.2,416.5 338.2,426.2 336.7,425.5 343.7,410.3"/><polygon points="346.5,405.5 335.7,400.5 340.0,391.3 350.8,396.2"/><polygon points="356.3,410.6 350.5,407.9 355.2,397.6 361.0,400.3"/><polygon points="373.8,406.3 363.0,413.6 360.1,412.3 364.8,402.1"/><polygon points="371.5,399.6 363.4,395.9 370.7,380.0 378.8,383.7"/><polygon points="358.3,394.3 354.6,392.6 362.5,375.4 366.2,377.1"/><polygon points="350.1,389.9 342.6,386.4 350.0,370.3 357.5,373.8"/><polygon points="392.5,389.9 377.7,402.9 376.3,402.3 384.0,385.6 392.0,389.3"/><polygon points="373.3,253.8 367.7,257.6 360.1,246.5 363.2,243.5"/><polygon points="373.2,233.0 376.2,237.3 368.0,242.9 365.6,240.5"/><polygon points="377.9,240.5 382.7,247.5 376.8,251.6 370.8,245.3"/><polygon points="384.8,251.1 387.2,254.6 372.6,264.6 370.2,261.1"/><polygon points="350.8,255.7 350.4,254.5 357.2,248.0 358.7,250.3"/><polygon points="354.4,265.6 352.4,258.4 359.8,253.4 363.8,259.2"/><polygon points="369.1,267.1 357.2,275.2 355.6,269.7 366.0,262.6"/><polygon points="363.6,276.0 374.1,268.9 377.7,274.1 367.2,281.3"/><polygon points="380.2,277.3 382.5,280.6 371.4,288.2 369.1,284.8"/><polygon points="362.4,294.1 358.3,279.4 360.0,278.3 368.1,290.2"/><polygon points="382.4,305.7 382.3,305.7 375.5,304.0 377.0,297.9"/><polygon points="372.6,302.6 364.0,300.4 363.4,298.2 372.3,292.1 374.4,295.3"/><polygon points="379.7,295.9 375.7,290.0 384.5,284.0 388.6,289.9"/><polygon points="394.2,297.8 384.6,303.5 381.8,299.3 390.9,293.1"/><polygon points="389.8,257.7 394.3,264.3 388.2,268.5 383.7,261.9"/><polygon points="385.6,270.6 381.6,273.3 376.8,266.2 380.8,263.5"/><polygon points="390.5,281.5 388.0,283.2 383.0,275.7 385.5,274.0"/><polygon points="396.3,267.5 400.6,273.8 392.8,279.0 388.6,272.8"/><polygon points="402.8,277.1 410.2,288.0 405.4,290.9 398.7,279.9"/><polygon points="401.9,293.0 397.4,295.7 390.5,285.5 395.4,282.1"/><polygon points="403.7,270.1 399.1,263.3 412.1,254.4 416.8,261.2"/><polygon points="413.4,283.7 407.2,274.7 419.7,266.2 425.9,275.2"/><polygon points="434.4,286.0 418.4,286.5 429.6,278.9"/><polygon points="438.2,263.3 439.3,266.5 441.3,283.1 441.2,285.0 439.7,285.0 429.1,269.5"/><polygon points="437.0,255.5 437.8,258.2 425.6,266.4 424.1,264.2"/><polygon points="429.6,242.8 434.3,251.2 434.5,251.7 422.6,259.8 416.9,251.4"/><polygon points="417.6,226.9 426.8,237.4 427.0,237.7 418.9,243.3 410.8,231.5"/><polygon points="415.0,246.4 410.1,249.7 401.6,237.3 406.5,233.9"/><polygon points="411.7,221.2 414.5,223.3 399.0,233.8 397.1,231.1"/><polygon points="393.8,211.6 403.5,216.1 406.8,218.6 395.0,226.6 387.7,215.8"/><polygon points="382.0,205.9 388.9,207.7 390.7,208.5 384.0,213.0 381.2,208.8"/><polygon points="382.0,237.6 376.8,230.0 380.8,216.1 391.2,231.4"/><polygon points="387.9,247.8 384.2,242.4 394.8,235.2 398.4,240.6"/><polygon points="406.0,252.3 396.0,259.1 390.8,251.5 400.8,244.6"/><polygon points="375.3,356.1 384.0,337.2 386.4,354.6"/><polygon points="391.7,384.7 385.9,382.0 390.1,372.9"/><polygon points="382.7,379.5 377.7,377.1 385.6,359.9 387.3,359.6 388.4,367.3"/><polygon points="373.2,375.2 367.4,372.6 372.5,361.6 380.0,360.5"/><polygon points="363.0,370.0 350.5,364.3 354.7,355.2 367.2,360.9"/><polygon points="356.1,350.5 357.9,346.4 371.7,352.8 369.8,356.8"/><polygon points="345.4,361.9 338.8,358.9 346.5,342.0 353.2,345.1"/><polygon points="348.5,337.0 352.0,329.4 364.1,335.0 360.6,342.6"/><polygon points="353.4,325.1 355.4,320.8 368.4,326.8 366.5,331.1"/><polygon points="372.5,329.6 380.0,333.0 373.0,348.0 365.6,344.6"/><polygon points="381.5,314.0 383.4,327.6 382.7,329.1 376.0,326.0"/><polygon points="361.5,308.2 363.2,304.6 379.3,308.6 376.3,315.0"/><polygon points="357.4,317.0 359.5,312.4 374.5,319.3 372.3,323.9"/><polygon points="345.5,312.2 357.9,306.2 353.5,315.9"/><polygon points="333.1,318.9 341.3,314.9 351.1,319.4 348.2,325.8"/><polygon points="325.7,333.4 330.5,323.8 345.2,330.6 340.7,340.3"/><polygon points="333.8,356.9 325.4,353.0 330.5,341.9 338.9,345.8"/><polygon points="321.0,351.6 316.4,349.5 322.4,337.5 326.6,339.5"/><polygon points="418.8,354.8 407.2,371.4 397.2,382.5 393.8,358.2"/><polygon points="400.3,349.6 392.0,350.8 388.8,327.7 397.1,326.6"/><polygon points="419.3,346.5 407.5,348.2 404.5,326.0 416.3,324.4"/><polygon points="435.4,320.9 429.7,336.6 426.0,343.7 423.1,322.6"/><polygon points="439.4,292.1 439.0,300.3 436.2,313.4 424.6,315.0 421.5,292.6"/><polygon points="416.8,316.6 405.8,318.1 403.1,299.0 413.5,292.8"/><polygon points="399.1,319.6 387.6,321.2 385.9,308.7 396.6,302.2"/><polygon points="266.4,330.3 272.3,348.1 267.1,349.8 261.5,331.9"/><polygon points="262.3,351.3 257.4,352.8 251.8,334.9 256.7,333.4"/><polygon points="251.8,353.9 242.2,356.9 236.9,340.3 246.6,337.2"/><polygon points="257.8,304.9 260.2,312.2 246.3,316.8 244.0,309.3"/><polygon points="261.7,317.1 264.6,325.5 250.6,329.9 248.0,321.8"/><polygon points="245.5,331.5 234.7,334.9 231.3,323.9 242.1,320.6"/><polygon points="229.3,319.6 227.5,313.9 239.4,310.2 241.2,315.9"/><polygon points="236.7,299.0 232.7,307.9 226.3,309.9 224.1,302.9"/><polygon points="230.2,288.5 239.2,292.5 238.7,293.6 223.1,298.5 220.8,291.4"/><polygon points="216.5,281.3 226.4,285.6 218.7,288.1"/><polygon points="243.7,294.4 256.3,300.0 256.3,300.2 238.6,305.8"/><polygon points="204.6,301.4 207.7,294.9 213.8,285.3 217.6,297.3"/><polygon points="199.0,314.6 199.8,312.0 201.9,307.7 218.8,302.4 220.5,307.9"/><polygon points="203.8,318.8 209.9,316.9 215.4,334.2 209.3,336.2"/><polygon points="215.1,315.4 222.2,313.2 227.6,330.3 220.5,332.5"/><polygon points="192.0,341.4 194.2,329.3 196.9,321.2 198.6,320.7 204.0,337.6"/><polygon points="200.8,343.6 210.3,340.6 212.2,346.7 202.7,349.7"/><polygon points="212.8,351.3 217.2,365.3 209.2,367.8 204.8,353.8"/><polygon points="214.8,339.9 229.4,335.3 231.6,342.6 217.0,347.2"/><polygon points="232.9,348.0 236.3,358.9 222.5,363.2 219.1,352.4"/><polygon points="190.3,361.3 190.6,347.5 196.7,345.5 200.7,358.1"/><polygon points="202.3,362.6 204.5,369.6 191.5,373.7 190.4,366.4"/><polygon points="197.7,392.2 193.3,380.5 193.1,378.9 204.4,375.3 208.6,388.7"/><polygon points="207.5,409.4 199.7,397.5 210.6,394.1 214.8,407.2"/><polygon points="223.5,380.6 226.2,389.3 215.6,392.7 212.8,383.9"/><polygon points="209.1,372.9 220.2,369.4 222.3,376.2 211.2,379.7"/><polygon points="225.2,368.5 231.5,366.6 237.4,385.4 231.1,387.4"/><polygon points="238.9,391.2 241.1,398.4 220.2,405.0 218.0,397.8"/><polygon points="237.1,365.0 249.7,361.0 253.4,372.8 240.8,376.7"/><polygon points="255.4,378.1 258.2,386.9 245.0,391.1 242.2,382.3"/><polygon points="260.4,390.9 261.3,393.5 246.3,398.2 245.4,395.6"/><polygon points="224.0,424.4 219.9,421.9 211.3,413.7 222.0,410.3 226.2,423.7"/><polygon points="226.5,408.8 232.7,406.8 237.0,420.5 230.8,422.4"/><polygon points="241.7,433.9 234.8,431.5 228.4,427.7 238.7,424.4"/><polygon points="244.8,427.6 238.0,405.8 243.6,404.0 250.5,425.8"/><polygon points="248.2,401.7 262.1,397.3 263.6,401.9 249.6,406.3"/><polygon points="264.2,407.2 268.2,420.1 256.2,423.9 252.1,410.9"/><polygon points="252.4,438.2 245.8,435.9 244.6,432.2 250.0,430.5"/><polygon points="274.3,439.2 272.6,439.3 256.7,437.1 254.7,430.8 270.1,426.0"/><polygon points="290.1,401.0 289.9,410.6 271.3,410.4 270.3,407.2"/><polygon points="289.5,421.9 289.3,438.7 280.6,439.0 276.5,425.9"/><polygon points="290.6,415.5 290.6,416.1 274.0,421.3 272.1,415.2"/><polygon points="289.9,396.0 276.0,400.3 274.6,395.8 288.5,391.4"/><polygon points="273.6,391.3 271.2,383.6 284.3,379.5 286.7,387.2"/><polygon points="272.0,401.5 268.2,402.7 262.9,385.9 266.7,384.7"/><polygon points="262.1,381.0 260.4,375.7 280.8,369.3 282.5,374.6"/><polygon points="291.1,365.5 290.8,384.6 285.4,367.3"/><polygon points="290.8,360.3 290.8,360.6 276.4,365.1 272.7,353.3 275.3,352.5"/><polygon points="271.1,366.5 258.8,370.3 255.3,359.1 267.6,355.3"/><polygon points="282.4,281.9 283.8,280.8 294.2,294.2 291.1,296.1"/><polygon points="270.3,290.7 279.6,283.6 281.3,286.4 271.4,292.5"/><polygon points="281.0,302.7 278.6,304.2 272.9,294.9 275.3,293.4"/><polygon points="282.7,289.3 288.0,298.0 283.5,300.7 278.2,292.0"/><polygon points="287.2,278.6 294.1,273.3 300.4,281.5 292.9,286.0"/><polygon points="296.4,270.5 298.7,268.8 305.2,279.5 303.9,280.3"/><polygon points="306.5,282.4 308.4,285.5 297.3,292.3 295.0,289.4"/><polygon points="319.2,303.8 321.0,306.7 305.0,316.4 303.3,313.5"/><polygon points="310.3,288.3 312.6,292.0 304.2,297.2 301.9,293.4"/><polygon points="314.2,295.1 317.4,300.3 309.4,305.2 306.2,300.0"/><polygon points="305.9,307.0 301.1,309.9 294.2,298.7 299.0,295.8"/><polygon points="301.6,318.6 296.2,321.9 290.7,312.8 296.1,309.5"/><polygon points="293.7,324.2 291.5,325.5 285.4,315.4 287.5,314.1"/><polygon points="284.1,312.1 280.9,306.8 290.7,300.8 293.9,306.2"/><polygon points="266.1,293.9 268.0,292.4 274.3,302.6 272.2,303.9"/><polygon points="260.3,298.9 263.8,296.2 269.3,305.2 263.6,308.6"/><polygon points="282.3,317.3 288.1,326.7 282.1,330.3 275.6,319.5"/><polygon points="278.6,332.6 273.1,336.0 268.3,321.9 271.4,320.8"/><polygon points="275.7,305.2 280.9,313.8 275.5,315.6 272.7,307.1"/><polygon points="272.5,316.6 266.7,318.5 264.5,312.1 269.9,308.8"/><polygon points="275.7,344.5 274.2,339.9 284.1,333.8 286.6,337.9"/><polygon points="283.4,351.5 277.2,348.3 277.1,348.2 288.5,341.3 291.6,346.4"/><polygon points="287.3,331.9 290.6,329.9 298.3,342.5 295.0,344.5"/><polygon points="303.9,352.1 293.5,356.3 287.9,353.6 300.2,346.1"/><polygon points="312.6,348.4 312.3,349.0 307.8,350.8 302.0,341.3 306.6,338.5"/><polygon points="319.0,335.8 314.6,344.5 309.7,336.5 316.7,332.1"/><polygon points="299.9,338.4 293.5,327.8 296.4,326.1 302.8,336.6"/><polygon points="312.0,324.4 314.8,329.0 305.7,334.6 302.9,330.0"/><polygon points="299.1,324.3 308.7,318.4 310.5,321.4 300.9,327.3"/><polygon points="326.5,321.4 320.9,332.5 317.5,326.9"/><polygon points="323.3,309.6 327.7,316.8 323.0,319.7 318.6,312.5"/><polygon points="320.3,321.4 315.9,324.1 311.4,316.8 315.8,314.1"/><polygon points="357.8,239.9 347.5,250.0 324.1,250.1 324.0,240.1"/><polygon points="357.7,205.0 371.3,206.1 375.8,207.2 369.8,228.3 366.5,231.4 357.9,231.5"/><polygon points="323.5,208.1 334.4,205.7 349.7,204.6 349.8,215.1 323.5,215.3"/><polygon points="349.8,222.8 349.9,231.9 323.6,232.1 323.5,223.0"/><polygon points="291.7,219.5 296.4,217.1 315.3,210.3 315.4,210.3 315.6,231.4 297.2,231.6"/><polygon points="316.6,238.8 316.7,251.2 305.0,251.3 299.4,238.9"/></g><g fill="none" stroke-linecap="round" stroke-linejoin="round"><path d="M263.7,260.9 L278.6,282.5 L294.1,315.3" stroke="#6c604a" stroke-width="3.4"/><path d="M294.1,315.3 L314.6,292.2 L332.2,281.2" stroke="#6c604a" stroke-width="3.4"/><path d="M332.2,281.2 L355.8,278.1 L377.5,273.1" stroke="#6c604a" stroke-width="3.4"/><path d="M377.5,273.1 L393.3,259.6 L409.9,248.5" stroke="#6c604a" stroke-width="3.4"/><path d="M332.2,281.2 L326.1,254.3 L334.0,226.7" stroke="#6c604a" stroke-width="3.4"/><path d="M377.5,273.1 L397.8,297.8 L411.1,329.0" stroke="#6c604a" stroke-width="3.4"/><path d="M411.1,329.0 L388.0,347.1 L358.9,341.4" stroke="#6c604a" stroke-width="3.4"/><path d="M358.9,341.4 L353.6,368.8 L330.9,395.6" stroke="#6c604a" stroke-width="3.4"/><path d="M294.1,315.3 L266.9,324.0 L227.0,329.8" stroke="#6c604a" stroke-width="3.4"/><path d="M227.0,329.8 L232.6,363.2 L250.9,396.7" stroke="#6c604a" stroke-width="3.4"/><path d="M263.7,260.9 L294.6,236.0 L334.0,226.7" stroke="#6c604a" stroke-width="3.4"/><path d="M330.9,395.6 L303.5,354.6 L294.1,315.3" stroke="#6c604a" stroke-width="3.4"/><path d="M332.2,281.2 L197.3,310.9" stroke="#6c604a" stroke-width="4.8"/><path d="M332.2,281.2 L405.0,213.6" stroke="#6c604a" stroke-width="4.8"/><path d="M332.2,281.2 L358.7,419.0" stroke="#6c604a" stroke-width="4.8"/><path d="M263.7,260.9 L278.6,282.5 L294.1,315.3" stroke="#e4d9bc" stroke-width="1.8"/><path d="M294.1,315.3 L314.6,292.2 L332.2,281.2" stroke="#e4d9bc" stroke-width="1.8"/><path d="M332.2,281.2 L355.8,278.1 L377.5,273.1" stroke="#e4d9bc" stroke-width="1.8"/><path d="M377.5,273.1 L393.3,259.6 L409.9,248.5" stroke="#e4d9bc" stroke-width="1.8"/><path d="M332.2,281.2 L326.1,254.3 L334.0,226.7" stroke="#e4d9bc" stroke-width="1.8"/><path d="M377.5,273.1 L397.8,297.8 L411.1,329.0" stroke="#e4d9bc" stroke-width="1.8"/><path d="M411.1,329.0 L388.0,347.1 L358.9,341.4" stroke="#e4d9bc" stroke-width="1.8"/><path d="M358.9,341.4 L353.6,368.8 L330.9,395.6" stroke="#e4d9bc" stroke-width="1.8"/><path d="M294.1,315.3 L266.9,324.0 L227.0,329.8" stroke="#e4d9bc" stroke-width="1.8"/><path d="M227.0,329.8 L232.6,363.2 L250.9,396.7" stroke="#e4d9bc" stroke-width="1.8"/><path d="M263.7,260.9 L294.6,236.0 L334.0,226.7" stroke="#e4d9bc" stroke-width="1.8"/><path d="M330.9,395.6 L303.5,354.6 L294.1,315.3" stroke="#e4d9bc" stroke-width="1.8"/><path d="M332.2,281.2 L197.3,310.9" stroke="#e4d9bc" stroke-width="3.2"/><path d="M332.2,281.2 L405.0,213.6" stroke="#e4d9bc" stroke-width="3.2"/><path d="M332.2,281.2 L358.7,419.0" stroke="#e4d9bc" stroke-width="3.2"/></g><polygon points="187.7,364.2 188.1,346.5 191.4,328.6 197.3,310.9 205.6,293.7 216.0,277.2 228.5,261.5 242.8,247.1 258.8,234.0 276.2,222.6 294.8,213.3 314.1,206.3 333.8,201.9 353.3,200.4 372.0,201.9 389.4,206.3 405.0,213.6 418.3,223.6 429.0,235.8 437.0,250.1 442.0,265.9 444.1,283.0 443.2,300.9 439.3,319.3 432.5,337.9 422.9,356.2 410.5,374.0 395.5,390.7 378.1,405.9 358.7,419.0 337.8,429.7 316.0,437.3 293.9,441.6 272.4,442.4 252.2,439.6 234.0,433.3 218.4,423.9 205.7,411.7 196.4,397.3 190.4,381.3" fill="none" stroke="#3c3628" stroke-width="1.5"/><g font-family="Georgia, serif" font-size="8" text-anchor="middle"><text x="263.7" y="263.9" stroke="#f7f3ea" stroke-width="2.5" paint-order="stroke" fill="#23211c">Slums</text><text x="330.9" y="398.6" stroke="#f7f3ea" stroke-width="2.5" paint-order="stroke" fill="#23211c">Craftsmen</text><text x="377.5" y="276.1" stroke="#f7f3ea" stroke-width="2.5" paint-order="stroke" fill="#23211c">Slums</text><text x="332.2" y="284.2" stroke="#f7f3ea" stroke-width="2.5" paint-order="stroke" fill="#23211c">Market</text><text x="409.9" y="251.5" stroke="#f7f3ea" stroke-width="2.5" paint-order="stroke" fill="#23211c">Residential</text><text x="358.9" y="344.4" stroke="#f7f3ea" stroke-width="2.5" paint-order="stroke" fill="#23211c">Residential</text><text x="411.1" y="332.0" stroke="#f7f3ea" stroke-width="2.5" paint-order="stroke" fill="#23211c">Garrison</text><text x="227.0" y="332.8" stroke="#f7f3ea" stroke-width="2.5" paint-order="stroke" fill="#23211c">Residential</text><text x="250.9" y="399.7" stroke="#f7f3ea" stroke-width="2.5" paint-order="stroke" fill="#23211c">Craftsmen</text><text x="294.1" y="318.3" stroke="#f7f3ea" stroke-width="2.5" paint-order="stroke" fill="#23211c">Slums</text><text x="334.0" y="229.7" stroke="#f7f3ea" stroke-width="2.5" paint-order="stroke" fill="#23211c">Garrison</text></g><text x="315.0" y="20" text-anchor="middle" font-family="Georgia, serif" font-size="16" font-weight="bold" stroke="#f7f3ea" stroke-width="3" paint-order="stroke" fill="#23211c">Kelmont</text></svg>