<svg xmlns="http://www.w3.org/2000/svg" width="576" height="396" viewBox="0 0 576 396"><rect width="576" height="396" fill="#183e56"/><g stroke-linejoin="round"><polygon points="0.0,0.0 22.0,0.0 19.9,15.8 0.0,14.7" fill="#1f4e6b" stroke="#1f4e6b" stroke-width="0.5"/><polygon points="22.0,0.0 46.3,0.0 37.9,23.6 23.1,20.2 19.9,15.8" fill="#1f4e6b" stroke="#1f4e6b" stroke-width="0.5"/><polygon points="46.3,0.0 62.0,0.0 66.9,21.6 36.4,27.7" fill="#1f4e6b" stroke="#1f4e6b" stroke-width="0.5"/><polygon points="62.0,0.0 91.8,0.0 91.2,21.4 66.8,21.1" fill="#1f4e6b" stroke="#1f4e6b" stroke-width="0.5"/><polygon points="91.8,0.0 115.1,0.0 117.7,10.9 110.6,21.5 91.2,20.5" fill="#3d7ea6" stroke="#3d7ea6" stroke-width="0.5"/><polygon points="115.1,0.0 141.7,0.0 141.6,15.7 117.7,10.9" fill="#dfe9d6" stroke="#dfe9d6" stroke-width="0.5"/><polygon points="141.7,0.0 172.4,0.0 172.3,1.0 159.5,15.0 141.6,11.0" fill="#6098b8" stroke="#6098b8" stroke-width="0.5"/><polygon points="163.6,29.8 159.5,15.0 172.3,1.0 182.6,14.7 177.9,31.8" fill="#cdc580" stroke="#cdc580" stroke-width="0.5"/><polygon points="172.4,0.0 201.5,0.0 201.9,12.8 182.5,14.6 172.3,1.0" fill="#6098b8" stroke="#6098b8" stroke-width="0.5"/><polygon points="201.5,0.0 226.7,0.0 222.1,12.6 201.9,12.6" fill="#6098b8" stroke="#6098b8" stroke-width="0.5"/><polygon points="226.7,0.0 240.9,0.0 246.2,21.9 226.2,20.1 222.1,12.6" fill="#c2ba79" stroke="#c2ba79" stroke-width="0.5"/><polygon points="240.9,0.0 264.6,0.0 263.8,14.3 246.4,22.6" fill="#8a8456" stroke="#8a8456" stroke-width="0.5"/><polygon points="264.6,0.0 288.3,0.0 280.1,22.6 277.1,23.2 263.8,14.3" fill="#6a6642" stroke="#6a6642" stroke-width="0.5"/><polygon points="288.3,0.0 301.7,0.0 307.0,13.7 292.8,27.8 280.1,22.6" fill="#475131" stroke="#475131" stroke-width="0.5"/><polygon points="301.7,0.0 334.4,0.0 334.2,8.0 316.7,17.9 307.0,13.7" fill="#73844f" stroke="#73844f" stroke-width="0.5"/><polygon points="334.4,0.0 365.8,0.0 365.0,6.9 355.8,15.2 336.4,10.4 334.2,8.0" fill="#4b7c46" stroke="#4b7c46" stroke-width="0.5"/><polygon points="356.4,24.3 355.7,15.2 365.0,6.9 379.1,21.0 373.5,32.3" fill="#467341" stroke="#467341" stroke-width="0.5"/><polygon points="365.8,0.0 392.4,0.0 391.7,16.8 379.1,21.0 365.0,6.9" fill="#475131" stroke="#475131" stroke-width="0.5"/><polygon points="392.4,0.0 420.8,0.0 420.8,19.5 401.0,24.2 391.7,16.8" fill="#978b6c" stroke="#978b6c" stroke-width="0.5"/><polygon points="420.8,0.0 450.0,0.0 450.0,18.2 445.8,21.1 420.8,18.0" fill="#3d7ea6" stroke="#3d7ea6" stroke-width="0.5"/><polygon points="450.0,0.0 472.2,0.0 476.2,15.4 467.0,24.9 450.0,18.2" fill="#1f4e6b" stroke="#1f4e6b" stroke-width="0.5"/><polygon points="472.2,0.0 498.6,0.0 489.0,16.1 476.2,15.4" fill="#1f4e6b" stroke="#1f4e6b" stroke-width="0.5"/><polygon points="498.6,0.0 500.8,0.0 515.2,16.9 513.9,19.8 496.2,26.3 489.0,16.1" fill="#1f4e6b" stroke="#1f4e6b" stroke-width="0.5"/><polygon points="500.8,0.0 528.9,0.0 527.1,10.9 515.2,16.9" fill="#1f4e6b" stroke="#1f4e6b" stroke-width="0.5"/><polygon points="528.9,0.0 552.3,0.0 551.3,18.5 537.7,20.4 527.1,10.9" fill="#1f4e6b" stroke="#1f4e6b" stroke-width="0.5"/><polygon points="552.3,0.0 576.0,0.0 576.0,20.2 551.2,20.2" fill="#1f4e6b" stroke="#1f4e6b" stroke-width="0.5"/><polygon points="0.0,40.5 0.0,14.7 19.9,15.8 23.1,20.2 12.4,40.5" fill="#1f4e6b" stroke="#1f4e6b" stroke-width="0.5"/><polygon points="12.4,40.5 23.1,20.2 40.7,24.2 41.4,38.4 22.4,50.5" fill="#1f4e6b" stroke="#1f4e6b" stroke-width="0.5"/><polygon points="41.4,38.4 40.8,26.9 66.3,21.8 66.5,39.1 56.0,48.7 51.8,48.8" fill="#1f4e6b" stroke="#1f4e6b" stroke-width="0.5"/><polygon points="66.5,39.1 66.3,21.0 90.4,21.4 90.8,35.5 82.8,46.3" fill="#1f4e6b" stroke="#1f4e6b" stroke-width="0.5"/><polygon points="90.8,35.5 90.4,20.5 110.6,21.5 119.4,36.4 119.3,38.1 111.5,47.1" fill="#3d7ea6" stroke="#3d7ea6" stroke-width="0.5"/><polygon points="119.4,36.4 110.6,21.5 117.7,10.9 138.2,15.0 137.7,22.7" fill="#b4ad71" stroke="#b4ad71" stroke-width="0.5"/><polygon points="119.3,38.1 119.4,36.4 137.7,22.7 147.1,34.9 137.3,48.0" fill="#c5bd7b" stroke="#c5bd7b" stroke-width="0.5"/><polygon points="138.5,10.3 159.5,15.0 163.6,29.8 156.5,35.6 147.1,34.9 137.7,22.7" fill="#cdc580" stroke="#cdc580" stroke-width="0.5"/><polygon points="178.0,31.4 182.6,14.7 201.8,12.8 203.1,30.7 193.5,35.9" fill="#b9b273" stroke="#b9b273" stroke-width="0.5"/><polygon points="203.1,30.7 201.7,12.6 222.1,12.6 226.2,20.1 219.0,34.6 214.3,36.3" fill="#6098b8" stroke="#6098b8" stroke-width="0.5"/><polygon points="226.2,20.1 246.8,21.9 247.4,29.8 235.2,42.7 219.0,34.6" fill="#bfb877" stroke="#bfb877" stroke-width="0.5"/><polygon points="247.4,29.8 246.9,22.4 263.8,14.3 277.1,23.2 270.2,38.2 259.6,40.9" fill="#ffffff" stroke="#ffffff" stroke-width="0.5"/><polygon points="270.2,38.2 277.1,23.2 280.1,22.6 292.8,27.8 297.0,38.4 283.9,53.9" fill="#9ea1a4" stroke="#9ea1a4" stroke-width="0.5"/><polygon points="297.0,38.4 292.8,27.8 307.0,13.7 316.7,17.9 320.1,37.9 311.5,42.6" fill="#475131" stroke="#475131" stroke-width="0.5"/><polygon points="320.1,37.9 316.7,17.9 334.2,8.0 336.4,10.4 339.0,33.7 329.0,40.2" fill="#84af6f" stroke="#84af6f" stroke-width="0.5"/><polygon points="336.4,10.4 355.7,15.2 356.4,24.3 347.7,34.8 339.0,33.7" fill="#657546" stroke="#657546" stroke-width="0.5"/><polygon points="356.4,24.3 373.5,32.3 374.2,40.6 355.0,44.3 347.7,34.8" fill="#55613b" stroke="#55613b" stroke-width="0.5"/><polygon points="374.2,41.5 373.5,32.3 379.1,21.0 391.7,16.8 401.0,24.2 397.6,42.8" fill="#54603a" stroke="#54603a" stroke-width="0.5"/><polygon points="397.6,42.8 401.0,24.2 419.4,19.8 424.1,39.6 420.9,45.3 401.8,49.2" fill="#3e653a" stroke="#3e653a" stroke-width="0.5"/><polygon points="418.9,17.8 445.8,21.1 442.4,39.6 424.1,39.6" fill="#3d7ea6" stroke="#3d7ea6" stroke-width="0.5"/><polygon points="442.4,39.6 445.7,21.1 450.0,18.2 467.0,24.9 469.0,34.3 447.9,47.1" fill="#3d7ea6" stroke="#3d7ea6" stroke-width="0.5"/><polygon points="469.0,34.3 467.0,24.9 476.2,15.4 489.0,16.1 496.2,26.3 494.7,37.3 474.5,40.1" fill="#1f4e6b" stroke="#1f4e6b" stroke-width="0.5"/><polygon points="494.7,37.3 496.2,26.3 513.9,19.8 521.5,40.5 497.2,40.5" fill="#1f4e6b" stroke="#1f4e6b" stroke-width="0.5"/><polygon points="520.3,37.2 513.9,19.8 515.2,16.9 527.1,10.9 537.7,20.4 532.9,34.9" fill="#1f4e6b" stroke="#1f4e6b" stroke-width="0.5"/><polygon points="532.9,34.9 537.7,20.4 553.5,18.2 553.5,38.2 544.9,46.9" fill="#1f4e6b" stroke="#1f4e6b" stroke-width="0.5"/><polygon points="576.0,20.2 576.0,41.5 553.5,38.2 553.5,20.2" fill="#1f4e6b" stroke="#1f4e6b" stroke-width="0.5"/><polygon points="0.0,64.4 0.0,40.5 12.4,40.5 22.4,50.5 23.1,58.2 15.1,65.8" fill="#1f4e6b" stroke="#1f4e6b" stroke-width="0.5"/><polygon points="23.1,58.2 22.4,50.5 41.4,38.4 51.8,48.8 40.6,68.2" fill="#1f4e6b" stroke="#1f4e6b" stroke-width="0.5"/><polygon points="41.9,66.0 51.8,48.8 56.0,48.7 68.2,62.7 63.0,74.8" fill="#1f4e6b" stroke="#1f4e6b" stroke-width="0.5"/><polygon points="68.2,62.7 56.0,48.7 66.5,39.1 82.8,46.3 83.9,58.1" fill="#1f4e6b" stroke="#1f4e6b" stroke-width="0.5"/><polygon points="84.1,60.2 82.8,46.3 90.8,35.5 111.5,47.1 110.5,53.5 105.3,59.8" fill="#3d7ea6" stroke="#3d7ea6" stroke-width="0.5"/><polygon points="110.5,53.5 111.5,47.1 119.3,38.1 137.3,48.0 140.4,60.6 133.3,65.1" fill="#c0b978" stroke="#c0b978" stroke-width="0.5"/><polygon points="140.4,60.6 137.3,48.0 147.1,34.9 156.5,35.6 160.1,53.3 146.6,62.3" fill="#b3a99c" stroke="#b3a99c" stroke-width="0.5"/><polygon points="160.1,53.3 156.5,35.6 163.6,29.8 177.3,31.7 174.6,56.8" fill="#ffffff" stroke="#ffffff" stroke-width="0.5"/><polygon points="177.3,31.2 193.5,35.9 193.5,54.9 174.4,58.7" fill="#716d47" stroke="#716d47" stroke-width="0.5"/><polygon points="193.5,54.9 193.5,35.9 203.1,30.7 214.3,36.3 211.9,56.4 203.1,60.6" fill="#6098b8" stroke="#6098b8" stroke-width="0.5"/><polygon points="211.9,56.4 214.3,36.3 219.0,34.6 235.2,42.7 236.8,57.0 231.6,63.9" fill="#b6af72" stroke="#b6af72" stroke-width="0.5"/><polygon points="236.8,57.0 235.2,42.7 247.4,29.8 259.6,40.9 255.9,55.3" fill="#ffffff" stroke="#ffffff" stroke-width="0.5"/><polygon points="255.9,55.3 259.6,40.9 270.2,38.2 283.9,53.9 283.9,54.3 262.1,62.4" fill="#5c5751" stroke="#5c5751" stroke-width="0.5"/><polygon points="283.6,58.4 283.9,53.9 297.0,38.4 311.5,42.6 309.8,65.9" fill="#345631" stroke="#345631" stroke-width="0.5"/><polygon points="309.9,65.5 311.5,42.6 320.1,37.9 329.0,40.2 334.6,56.4 326.1,69.4" fill="#426d3e" stroke="#426d3e" stroke-width="0.5"/><polygon points="334.6,56.4 329.0,40.2 339.0,33.7 347.7,34.8 355.0,44.3 351.2,57.6" fill="#6d905b" stroke="#6d905b" stroke-width="0.5"/><polygon points="351.2,57.6 355.0,44.3 375.1,40.4 374.5,61.2 356.1,64.6" fill="#567147" stroke="#567147" stroke-width="0.5"/><polygon points="374.5,61.2 375.1,41.6 397.6,42.8 401.8,49.2 400.7,55.8 381.2,67.2" fill="#58653d" stroke="#58653d" stroke-width="0.5"/><polygon points="400.7,55.8 401.8,49.2 420.9,45.3 429.2,61.9 425.8,69.0 406.7,65.1" fill="#59673e" stroke="#59673e" stroke-width="0.5"/><polygon points="429.2,61.9 420.9,45.3 424.1,39.6 442.4,39.6 447.9,47.1 448.0,55.3" fill="#afa07d" stroke="#afa07d" stroke-width="0.5"/><polygon points="448.0,55.3 447.9,47.1 469.0,34.3 474.5,40.1 473.7,54.0 454.8,62.0" fill="#3d7ea6" stroke="#3d7ea6" stroke-width="0.5"/><polygon points="473.7,54.0 474.5,40.1 494.7,37.3 497.2,40.5 497.2,55.1 482.6,62.5" fill="#1f4e6b" stroke="#1f4e6b" stroke-width="0.5"/><polygon points="497.2,55.1 497.2,40.5 517.9,40.5 520.0,55.0 506.2,61.9" fill="#1f4e6b" stroke="#1f4e6b" stroke-width="0.5"/><polygon points="520.0,55.0 517.5,37.7 532.9,34.9 543.5,45.5 538.2,55.7 528.2,59.7" fill="#1f4e6b" stroke="#1f4e6b" stroke-width="0.5"/><polygon points="550.9,70.5 538.2,55.7 545.0,42.8 564.1,60.3" fill="#1f4e6b" stroke="#1f4e6b" stroke-width="0.5"/><polygon points="576.0,41.5 576.0,58.8 564.1,60.3 547.1,44.7 553.5,38.2" fill="#1f4e6b" stroke="#1f4e6b" stroke-width="0.5"/><polygon points="0.0,81.8 0.0,64.4 15.1,65.8 16.3,80.8" fill="#1f4e6b" stroke="#1f4e6b" stroke-width="0.5"/><polygon points="16.3,80.8 15.1,65.8 23.1,58.2 39.1,67.3 36.4,81.7 20.4,86.3" fill="#1f4e6b" stroke="#1f4e6b" stroke-width="0.5"/><polygon points="34.8,90.1 39.5,65.0 63.0,74.8 65.2,84.8" fill="#1f4e6b" stroke="#1f4e6b" stroke-width="0.5"/><polygon points="65.4,85.9 63.0,74.8 68.2,62.7 86.5,57.4 86.5,81.7" fill="#3d7ea6" stroke="#3d7ea6" stroke-width="0.5"/><polygon points="86.5,81.7 86.5,60.2 105.3,59.8 109.1,75.6 105.9,81.4 92.2,85.7" fill="#e4d1a3" stroke="#e4d1a3" stroke-width="0.5"/><polygon points="109.1,75.6 105.3,59.8 110.5,53.5 133.3,65.1 128.4,75.6" fill="#716a62" stroke="#716a62" stroke-width="0.5"/><polygon points="133.7,91.7 128.4,75.6 133.3,65.1 140.4,60.6 146.6,62.3 155.7,78.4 137.4,93.5" fill="#b0a69a" stroke="#b0a69a" stroke-width="0.5"/><polygon points="155.7,78.4 146.6,62.3 160.1,53.3 176.2,57.2 174.9,74.4 163.6,80.6" fill="#8b837a" stroke="#8b837a" stroke-width="0.5"/><polygon points="174.9,74.4 176.1,58.4 193.5,54.9 203.1,60.6 201.3,74.0 182.2,78.8" fill="#9a9460" stroke="#9a9460" stroke-width="0.5"/><polygon points="201.3,74.0 203.1,60.6 211.9,56.4 230.9,63.6 221.3,81.8 209.2,84.7 208.3,84.2" fill="#6098b8" stroke="#6098b8" stroke-width="0.5"/><polygon points="235.3,95.8 221.3,81.8 231.4,62.7 247.2,79.9 238.4,96.2" fill="#95c57d" stroke="#95c57d" stroke-width="0.5"/><polygon points="247.2,79.9 232.0,63.3 236.8,57.0 255.9,55.3 262.1,62.4 261.8,74.3 258.8,78.0" fill="#a3998e" stroke="#a3998e" stroke-width="0.5"/><polygon points="261.8,74.3 262.1,62.4 288.3,52.7 282.7,77.6" fill="#a69d91" stroke="#a69d91" stroke-width="0.5"/><polygon points="286.8,59.3 309.4,65.7 299.8,87.7 287.4,85.9 282.7,77.6" fill="#5c5751" stroke="#5c5751" stroke-width="0.5"/><polygon points="309.6,65.4 326.1,69.4 330.1,77.5 328.2,85.3 311.7,95.2 306.0,95.2 299.8,87.7" fill="#475131" stroke="#475131" stroke-width="0.5"/><polygon points="330.1,77.5 326.1,69.4 334.6,56.4 351.2,57.6 356.1,64.6 353.1,77.5" fill="#4a5533" stroke="#4a5533" stroke-width="0.5"/><polygon points="353.1,77.5 356.1,64.6 374.5,61.2 381.2,67.2 382.0,74.2 366.5,86.6 357.0,84.6" fill="#638353" stroke="#638353" stroke-width="0.5"/><polygon points="382.0,74.2 381.2,67.2 400.7,55.8 406.7,65.1 401.0,82.2 393.8,84.8" fill="#5d6b40" stroke="#5d6b40" stroke-width="0.5"/><polygon points="406.7,65.1 425.8,69.0 426.5,72.1 416.9,88.2 401.0,82.2" fill="#657446" stroke="#657446" stroke-width="0.5"/><polygon points="426.5,72.1 425.8,69.0 429.2,61.9 448.0,55.3 454.8,62.0 454.9,62.6 443.3,82.8" fill="#cdbc93" stroke="#cdbc93" stroke-width="0.5"/><polygon points="442.0,85.0 454.9,62.6 468.1,78.6 462.2,86.9" fill="#afa17d" stroke="#afa17d" stroke-width="0.5"/><polygon points="468.1,78.6 454.9,62.6 454.8,62.0 473.7,54.0 482.6,62.5 482.0,77.0" fill="#3d7ea6" stroke="#3d7ea6" stroke-width="0.5"/><polygon points="482.0,78.8 482.6,62.5 497.2,55.1 506.2,61.9 506.2,78.8" fill="#1f4e6b" stroke="#1f4e6b" stroke-width="0.5"/><polygon points="506.2,77.4 506.2,61.9 520.0,55.0 528.2,59.7 527.4,78.3" fill="#1f4e6b" stroke="#1f4e6b" stroke-width="0.5"/><polygon points="527.3,80.4 528.2,59.7 538.2,55.7 550.9,70.5 549.5,77.2" fill="#1f4e6b" stroke="#1f4e6b" stroke-width="0.5"/><polygon points="576.0,58.8 576.0,84.7 553.9,83.8 549.5,77.2 550.9,70.5 564.1,60.3" fill="#1f4e6b" stroke="#1f4e6b" stroke-width="0.5"/><polygon points="0.0,97.7 0.0,81.8 16.3,80.8 20.4,86.3 17.6,96.7" fill="#1f4e6b" stroke="#1f4e6b" stroke-width="0.5"/><polygon points="17.6,96.7 20.4,86.3 43.5,79.7 41.1,106.6 21.3,103.8" fill="#1f4e6b" stroke="#1f4e6b" stroke-width="0.5"/><polygon points="41.1,106.6 42.7,88.7 66.1,84.6 67.4,103.1 42.7,108.7" fill="#3d7ea6" stroke="#3d7ea6" stroke-width="0.5"/><polygon points="67.3,101.7 66.2,85.8 86.5,81.7 92.2,85.7 92.2,104.3" fill="#ffffc6" stroke="#ffffc6" stroke-width="0.5"/><polygon points="92.2,105.7 92.2,85.7 105.9,81.4 116.7,98.1 114.3,102.6" fill="#5b9756" stroke="#5b9756" stroke-width="0.5"/><polygon points="105.9,81.4 109.1,75.6 128.4,75.6 133.7,91.7 116.7,98.1" fill="#4a7a45" stroke="#4a7a45" stroke-width="0.5"/><polygon points="137.4,93.5 155.7,78.4 163.6,80.6 166.5,104.3 140.9,100.2" fill="#837b72" stroke="#837b72" stroke-width="0.5"/><polygon points="166.5,104.4 163.6,80.6 174.9,74.4 182.2,78.8 186.8,97.1 186.5,98.5" fill="#756e66" stroke="#756e66" stroke-width="0.5"/><polygon points="186.8,97.1 182.2,78.8 201.3,74.0 208.3,84.2" fill="#91897e" stroke="#91897e" stroke-width="0.5"/><polygon points="208.3,84.2 209.2,84.7 211.0,101.4 193.5,107.3 186.5,98.5 186.8,97.1" fill="#898177" stroke="#898177" stroke-width="0.5"/><polygon points="211.0,101.4 209.2,84.7 221.3,81.8 235.3,95.8 217.6,107.3" fill="#a49e66" stroke="#a49e66" stroke-width="0.5"/><polygon points="238.4,96.2 247.2,79.9 258.8,78.0 266.1,97.3 258.1,104.2 240.8,99.2" fill="#9f968a" stroke="#9f968a" stroke-width="0.5"/><polygon points="266.1,97.3 258.8,78.0 261.8,74.3 282.7,77.6 287.4,85.9 276.5,98.0" fill="#867f75" stroke="#867f75" stroke-width="0.5"/><polygon points="285.3,117.3 276.5,98.0 287.4,85.9 299.8,87.7 306.0,95.2 301.4,109.1 287.5,118.2" fill="#5c5751" stroke="#5c5751" stroke-width="0.5"/><polygon points="311.7,95.3 328.2,85.3 338.8,100.0 332.1,113.4 330.2,114.3" fill="#4d5935" stroke="#4d5935" stroke-width="0.5"/><polygon points="328.2,85.3 330.1,77.5 353.1,77.5 357.0,84.6 349.7,97.4 338.8,100.0" fill="#475231" stroke="#475231" stroke-width="0.5"/><polygon points="349.7,97.4 357.0,84.6 366.5,86.6 376.1,102.4 358.8,109.8" fill="#668755" stroke="#668755" stroke-width="0.5"/><polygon points="376.5,103.0 366.5,86.6 382.0,74.2 393.8,84.8 390.8,97.6" fill="#647345" stroke="#647345" stroke-width="0.5"/><polygon points="390.8,97.6 393.8,84.8 401.0,82.2 416.9,88.2 420.1,98.3 419.4,99.8 400.6,107.0" fill="#627044" stroke="#627044" stroke-width="0.5"/><polygon points="420.1,98.3 416.9,88.2 426.5,72.1 444.6,83.7 440.7,95.3" fill="#70814e" stroke="#70814e" stroke-width="0.5"/><polygon points="440.7,95.3 444.1,85.2 462.2,86.9 465.8,101.5 446.1,104.6" fill="#d1c096" stroke="#d1c096" stroke-width="0.5"/><polygon points="465.8,101.5 462.2,86.9 468.1,78.6 483.8,76.8 483.8,101.2 469.0,103.8" fill="#3d7ea6" stroke="#3d7ea6" stroke-width="0.5"/><polygon points="483.8,101.2 483.8,78.8 504.9,78.8 506.6,98.4 489.5,105.2" fill="#3d7ea6" stroke="#3d7ea6" stroke-width="0.5"/><polygon points="506.6,98.4 504.8,77.3 529.1,78.4 528.8,91.2 512.7,101.6" fill="#1f4e6b" stroke="#1f4e6b" stroke-width="0.5"/><polygon points="528.8,91.2 529.1,80.1 549.5,77.2 553.9,83.8 549.0,102.5 543.8,106.2" fill="#1f4e6b" stroke="#1f4e6b" stroke-width="0.5"/><polygon points="576.0,84.7 576.0,106.9 549.0,102.5 553.9,83.8" fill="#1f4e6b" stroke="#1f4e6b" stroke-width="0.5"/><polygon points="0.0,121.3 0.0,97.7 17.6,96.7 21.3,103.8 14.2,120.7" fill="#1f4e6b" stroke="#1f4e6b" stroke-width="0.5"/><polygon points="14.2,120.7 21.3,103.8 41.1,106.6 42.8,108.7 42.8,123.8 22.6,129.1" fill="#1f4e6b" stroke="#1f4e6b" stroke-width="0.5"/><polygon points="42.8,123.3 42.8,108.7 66.3,103.4 69.6,122.1 67.1,127.0" fill="#3d7ea6" stroke="#3d7ea6" stroke-width="0.5"/><polygon points="69.6,122.1 66.0,101.6 93.2,104.4 92.3,118.0" fill="#64a45d" stroke="#64a45d" stroke-width="0.5"/><polygon points="92.1,121.6 93.2,105.6 114.3,102.6 119.3,118.6 104.9,126.7" fill="#487643" stroke="#487643" stroke-width="0.5"/><polygon points="119.3,118.6 114.3,102.6 116.7,98.1 133.7,91.7 137.4,93.5 140.9,100.2 137.2,119.2 129.5,122.6" fill="#958c82" stroke="#958c82" stroke-width="0.5"/><polygon points="137.2,119.2 140.9,100.2 166.5,104.3 166.5,106.5 155.7,124.4 151.4,126.3" fill="#5c5751" stroke="#5c5751" stroke-width="0.5"/><polygon points="155.7,124.4 166.5,106.5 181.3,123.8 176.6,135.1" fill="#625d56" stroke="#625d56" stroke-width="0.5"/><polygon points="181.3,123.8 166.5,106.5 166.5,104.3 186.5,98.5 193.5,107.2 193.5,118.2" fill="#777068" stroke="#777068" stroke-width="0.5"/><polygon points="193.5,118.2 193.5,107.3 211.0,101.4 217.6,107.3 218.1,114.7 201.8,124.3" fill="#7b746b" stroke="#7b746b" stroke-width="0.5"/><polygon points="218.1,114.7 217.6,107.3 235.3,95.8 238.4,96.2 240.8,99.2 237.3,121.5 228.7,124.3" fill="#89b572" stroke="#89b572" stroke-width="0.5"/><polygon points="237.3,121.5 240.8,99.2 258.1,104.2 259.9,124.4 253.6,128.0" fill="#8e867c" stroke="#8e867c" stroke-width="0.5"/><polygon points="259.9,124.4 258.1,104.2 266.1,97.3 276.5,98.0 285.3,117.3 261.9,124.8" fill="#898177" stroke="#898177" stroke-width="0.5"/><polygon points="292.6,133.5 287.5,118.2 301.4,109.1 320.5,125.1 318.6,127.7" fill="#5c5751" stroke="#5c5751" stroke-width="0.5"/><polygon points="301.4,109.1 306.0,95.2 311.7,95.2 330.2,114.3 323.3,123.8 320.5,125.1" fill="#345631" stroke="#345631" stroke-width="0.5"/><polygon points="332.1,113.4 338.8,100.0 349.7,97.4 358.8,109.8 355.5,124.1" fill="#515d38" stroke="#515d38" stroke-width="0.5"/><polygon points="355.8,122.7 358.8,109.8 377.0,102.0 380.3,124.5" fill="#6a8d59" stroke="#6a8d59" stroke-width="0.5"/><polygon points="380.3,124.5 377.1,102.7 390.8,97.6 400.6,107.0 399.8,119.0 386.5,129.0 385.0,129.1" fill="#bdad87" stroke="#bdad87" stroke-width="0.5"/><polygon points="399.8,119.0 400.6,107.0 419.4,99.8 425.8,120.1 414.4,125.8" fill="#bdad87" stroke="#bdad87" stroke-width="0.5"/><polygon points="425.8,120.1 419.4,99.8 420.1,98.3 440.7,95.3 446.1,104.6 443.1,119.7 436.6,124.0" fill="#d4c398" stroke="#d4c398" stroke-width="0.5"/><polygon points="443.1,119.7 446.1,104.6 465.8,101.5 469.0,103.8 464.7,125.6" fill="#c5b48d" stroke="#c5b48d" stroke-width="0.5"/><polygon points="464.7,125.6 469.0,103.8 483.8,101.2 489.5,105.2 491.7,125.0 465.3,126.5" fill="#bbab85" stroke="#bbab85" stroke-width="0.5"/><polygon points="491.4,121.7 489.5,105.2 506.6,98.4 512.7,101.6 517.8,114.3 515.5,124.7" fill="#3d7ea6" stroke="#3d7ea6" stroke-width="0.5"/><polygon points="517.8,114.3 512.7,101.6 528.8,91.2 544.0,106.4" fill="#1f4e6b" stroke="#1f4e6b" stroke-width="0.5"/><polygon points="515.5,124.7 517.8,114.3 543.7,106.5 545.2,116.7 535.1,131.8 527.3,132.9 516.8,127.3" fill="#1f4e6b" stroke="#1f4e6b" stroke-width="0.5"/><polygon points="576.0,106.9 576.0,127.9 565.5,129.7 545.2,116.7 543.7,106.3 549.0,102.5" fill="#1f4e6b" stroke="#1f4e6b" stroke-width="0.5"/><polygon points="0.0,148.4 0.0,121.3 14.2,120.7 22.6,129.1 20.5,147.5" fill="#1f4e6b" stroke="#1f4e6b" stroke-width="0.5"/><polygon points="20.5,147.0 22.6,129.1 42.3,123.9 45.8,146.2 41.4,150.6" fill="#1f4e6b" stroke="#1f4e6b" stroke-width="0.5"/><polygon points="45.8,146.2 42.2,123.2 67.1,127.0 70.1,140.3 65.7,146.2" fill="#3d7ea6" stroke="#3d7ea6" stroke-width="0.5"/><polygon points="70.1,140.3 67.1,127.0 69.6,122.1 99.2,116.7 84.3,141.6" fill="#65a65f" stroke="#65a65f" stroke-width="0.5"/><polygon points="84.3,141.6 95.5,123.0 104.9,126.7 107.9,139.1 92.0,149.4" fill="#568e51" stroke="#568e51" stroke-width="0.5"/><polygon points="107.9,139.1 104.9,126.7 119.3,118.6 129.5,122.6 127.3,141.8 115.9,144.5" fill="#345631" stroke="#345631" stroke-width="0.5"/><polygon points="127.3,141.8 129.5,122.6 137.2,119.2 151.4,126.3 150.3,143.0 146.5,146.2 132.5,146.2" fill="#625c55" stroke="#625c55" stroke-width="0.5"/><polygon points="150.3,143.0 151.4,126.3 155.7,124.4 176.6,135.1 177.2,138.6 169.2,148.6" fill="#6e6860" stroke="#6e6860" stroke-width="0.5"/><polygon points="177.2,138.6 176.6,135.1 181.3,123.8 193.5,118.2 201.8,124.3 204.1,138.2 192.5,144.4" fill="#6b655d" stroke="#6b655d" stroke-width="0.5"/><polygon points="204.1,138.2 201.8,124.3 218.1,114.7 228.7,124.3 224.2,138.5 212.5,142.1" fill="#688a57" stroke="#688a57" stroke-width="0.5"/><polygon points="224.2,138.5 228.7,124.3 237.3,121.5 253.6,128.0 250.8,139.8 237.2,150.0" fill="#8a8278" stroke="#8a8278" stroke-width="0.5"/><polygon points="250.8,139.8 253.6,128.0 259.9,124.4 261.9,124.8 278.4,147.2 263.0,152.0" fill="#928a80" stroke="#928a80" stroke-width="0.5"/><polygon points="285.3,117.3 287.5,118.2 292.6,133.5 291.5,138.4 280.6,147.7 278.4,147.2 261.9,124.8" fill="#7b746b" stroke="#7b746b" stroke-width="0.5"/><polygon points="291.5,138.4 292.6,133.5 318.6,127.7 317.8,147.6 310.6,153.1" fill="#6a6642" stroke="#6a6642" stroke-width="0.5"/><polygon points="317.8,147.6 318.6,127.7 320.5,125.1 323.3,123.8 341.0,139.6 333.2,151.0" fill="#475131" stroke="#475131" stroke-width="0.5"/><polygon points="341.0,139.6 323.3,123.8 330.2,114.3 332.1,113.4 354.7,123.7 352.3,136.7" fill="#525e38" stroke="#525e38" stroke-width="0.5"/><polygon points="352.3,136.7 354.9,122.6 380.3,124.5 385.0,129.1 380.4,136.9 359.0,144.6" fill="#6c8e5a" stroke="#6c8e5a" stroke-width="0.5"/><polygon points="383.9,158.7 380.4,136.9 385.0,129.1 386.5,129.0 405.9,147.1 396.4,158.2" fill="#81ab6c" stroke="#81ab6c" stroke-width="0.5"/><polygon points="405.9,147.1 386.5,129.0 399.8,119.0 414.4,125.8 411.3,146.0" fill="#3d7ea6" stroke="#3d7ea6" stroke-width="0.5"/><polygon points="411.3,146.0 414.4,125.8 425.8,120.1 436.6,124.0 437.2,139.1 417.4,149.1" fill="#3d7ea6" stroke="#3d7ea6" stroke-width="0.5"/><polygon points="437.2,139.1 436.6,124.0 443.1,119.7 464.7,125.6 465.3,126.5 464.0,142.5 454.0,149.7 446.6,148.5" fill="#e4d1a3" stroke="#e4d1a3" stroke-width="0.5"/><polygon points="464.0,142.5 465.3,126.5 488.8,125.2 490.8,144.6 482.9,151.5" fill="#b3a480" stroke="#b3a480" stroke-width="0.5"/><polygon points="490.8,144.6 488.4,121.4 515.5,124.7 516.8,127.3 504.4,146.7" fill="#3d7ea6" stroke="#3d7ea6" stroke-width="0.5"/><polygon points="516.8,127.3 527.3,132.9 525.1,153.5 514.4,160.7 504.4,146.7" fill="#1f4e6b" stroke="#1f4e6b" stroke-width="0.5"/><polygon points="535.1,131.8 545.2,116.7 565.5,129.7 557.8,137.4 543.7,140.0" fill="#1f4e6b" stroke="#1f4e6b" stroke-width="0.5"/><polygon points="542.5,158.3 543.7,140.0 557.8,137.4 559.1,158.2 552.8,160.9" fill="#1f4e6b" stroke="#1f4e6b" stroke-width="0.5"/><polygon points="0.0,169.6 0.0,148.4 19.9,147.5 20.8,173.7" fill="#1f4e6b" stroke="#1f4e6b" stroke-width="0.5"/><polygon points="20.9,175.6 19.9,146.9 41.4,150.6 43.2,166.6" fill="#1f4e6b" stroke="#1f4e6b" stroke-width="0.5"/><polygon points="43.2,166.6 41.4,150.6 45.8,146.2 65.7,146.2 68.3,166.3 48.5,170.3" fill="#3d7ea6" stroke="#3d7ea6" stroke-width="0.5"/><polygon points="68.1,164.9 65.7,146.2 70.1,140.3 84.3,141.6 92.0,149.4 93.6,158.9 88.4,165.5" fill="#5a9454" stroke="#5a9454" stroke-width="0.5"/><polygon points="93.6,158.9 92.0,149.4 107.9,139.1 115.9,144.5 111.1,161.8" fill="#436f3f" stroke="#436f3f" stroke-width="0.5"/><polygon points="111.1,161.8 115.9,144.5 127.3,141.8 132.5,146.2 129.5,165.5 113.4,164.8" fill="#3b6137" stroke="#3b6137" stroke-width="0.5"/><polygon points="128.8,169.7 132.5,146.2 146.5,146.2 149.4,164.6" fill="#878076" stroke="#878076" stroke-width="0.5"/><polygon points="149.4,164.6 146.5,146.2 150.3,143.0 169.2,148.6 169.9,158.6 156.1,168.7" fill="#6f6961" stroke="#6f6961" stroke-width="0.5"/><polygon points="169.9,158.6 169.2,148.6 177.2,138.6 192.5,144.4 192.5,163.8 182.9,167.4" fill="#5c5751" stroke="#5c5751" stroke-width="0.5"/><polygon points="192.5,163.8 192.5,144.4 204.1,138.2 212.5,142.1 212.5,162.3 202.9,168.1" fill="#605a53" stroke="#605a53" stroke-width="0.5"/><polygon points="212.5,162.3 212.5,142.1 224.2,138.5 237.2,150.0 237.2,156.2 227.0,166.5" fill="#769d63" stroke="#769d63" stroke-width="0.5"/><polygon points="237.2,156.2 237.2,150.0 250.8,139.8 263.0,152.0 256.2,168.4" fill="#978f84" stroke="#978f84" stroke-width="0.5"/><polygon points="257.0,170.8 256.2,168.4 263.0,152.0 278.4,147.2 280.6,147.7 285.4,167.2 260.0,173.1" fill="#999085" stroke="#999085" stroke-width="0.5"/><polygon points="285.0,165.9 280.6,147.7 291.5,138.4 310.6,153.1 308.5,164.3 302.5,168.1" fill="#5c5751" stroke="#5c5751" stroke-width="0.5"/><polygon points="308.5,164.3 310.6,153.1 317.8,147.6 333.2,151.0 337.9,163.5 326.9,174.6" fill="#475131" stroke="#475131" stroke-width="0.5"/><polygon points="337.9,163.5 333.2,151.0 341.0,139.6 352.3,136.7 360.6,146.5 344.7,164.4" fill="#638353" stroke="#638353" stroke-width="0.5"/><polygon points="356.9,176.9 344.7,164.4 359.4,147.9 369.5,159.8 359.8,176.7" fill="#7ea669" stroke="#7ea669" stroke-width="0.5"/><polygon points="357.1,145.3 380.4,136.9 384.0,159.8 369.5,159.8" fill="#7fa86a" stroke="#7fa86a" stroke-width="0.5"/><polygon points="404.6,174.8 396.4,158.2 405.9,147.1 411.3,146.0 417.4,149.1 422.9,162.9 414.2,174.4" fill="#fbe6b3" stroke="#fbe6b3" stroke-width="0.5"/><polygon points="422.9,162.9 417.4,149.1 437.2,139.1 446.6,148.5 434.2,165.1" fill="#fee9b5" stroke="#fee9b5" stroke-width="0.5"/><polygon points="434.2,165.1 446.6,148.5 454.0,149.7 459.1,167.1 457.8,169.8 439.5,173.8" fill="#819559" stroke="#819559" stroke-width="0.5"/><polygon points="459.1,167.1 454.0,149.7 464.0,142.5 482.9,151.5 482.6,164.6" fill="#ecd9a9" stroke="#ecd9a9" stroke-width="0.5"/><polygon points="482.6,166.0 482.9,151.5 490.8,144.6 504.4,146.7 514.4,160.7 513.5,165.3 509.3,169.5" fill="#3d7ea6" stroke="#3d7ea6" stroke-width="0.5"/><polygon points="525.1,153.5 527.3,132.9 535.1,131.8 543.7,140.0 542.6,156.9" fill="#1f4e6b" stroke="#1f4e6b" stroke-width="0.5"/><polygon points="533.2,177.0 513.5,165.3 514.4,160.7 525.1,153.5 544.8,157.4" fill="#1f4e6b" stroke="#1f4e6b" stroke-width="0.5"/><polygon points="576.0,127.9 576.0,159.8 559.1,158.2 557.8,137.4 565.5,129.7" fill="#1f4e6b" stroke="#1f4e6b" stroke-width="0.5"/><polygon points="0.0,197.6 0.0,169.6 22.0,174.0 22.3,180.5 1.3,197.6" fill="#1f4e6b" stroke="#1f4e6b" stroke-width="0.5"/><polygon points="22.3,180.5 22.0,175.2 43.2,166.6 48.5,170.3 48.5,192.7 44.3,194.2 29.4,189.5" fill="#1f4e6b" stroke="#1f4e6b" stroke-width="0.5"/><polygon points="48.5,191.3 48.5,170.3 66.8,166.6 69.8,183.7 65.0,190.1" fill="#3d7ea6" stroke="#3d7ea6" stroke-width="0.5"/><polygon points="69.8,183.7 66.5,164.9 88.4,165.5 92.0,180.4 85.5,186.2" fill="#8dbb76" stroke="#8dbb76" stroke-width="0.5"/><polygon points="92.0,180.4 88.4,165.5 93.6,158.9 111.1,161.8 113.4,164.8 109.5,182.1 105.7,184.7" fill="#80a96b" stroke="#80a96b" stroke-width="0.5"/><polygon points="109.5,182.1 113.4,164.8 132.8,165.6 132.8,187.9" fill="#50844b" stroke="#50844b" stroke-width="0.5"/><polygon points="132.8,186.8 132.8,168.8 149.4,164.6 156.1,168.7 158.1,185.5" fill="#9b9561" stroke="#9b9561" stroke-width="0.5"/><polygon points="157.9,184.1 156.1,168.7 169.9,158.6 182.9,167.4 177.8,186.4" fill="#6d665f" stroke="#6d665f" stroke-width="0.5"/><polygon points="178.7,183.2 182.9,167.4 192.5,163.8 202.9,168.1 205.8,191.3" fill="#6a6642" stroke="#6a6642" stroke-width="0.5"/><polygon points="204.7,183.0 202.9,168.1 212.5,162.3 227.0,166.5 230.5,185.7" fill="#7ca468" stroke="#7ca468" stroke-width="0.5"/><polygon points="231.0,188.2 227.0,166.5 237.2,156.2 256.2,168.4 257.0,170.8" fill="#89b572" stroke="#89b572" stroke-width="0.5"/><polygon points="257.0,170.8 260.0,173.1 265.3,194.1 236.0,193.5 232.0,187.5 232.0,187.5" fill="#8dbb76" stroke="#8dbb76" stroke-width="0.5"/><polygon points="264.8,192.2 260.0,173.1 283.5,167.7 283.5,193.3" fill="#a2998d" stroke="#a2998d" stroke-width="0.5"/><polygon points="283.5,193.5 283.5,165.7 302.5,168.1 302.5,189.7" fill="#a0978c" stroke="#a0978c" stroke-width="0.5"/><polygon points="302.5,189.7 302.5,168.1 308.5,164.3 326.9,174.6 327.5,181.5 310.3,195.1" fill="#5c5751" stroke="#5c5751" stroke-width="0.5"/><polygon points="327.5,181.5 326.9,174.6 337.9,163.5 344.7,164.4 356.9,176.9 344.2,193.1 340.7,192.9" fill="#475131" stroke="#475131" stroke-width="0.5"/><polygon points="359.8,176.7 369.5,159.8 382.5,159.8 382.5,180.5 371.9,184.7" fill="#7c8e56" stroke="#7c8e56" stroke-width="0.5"/><polygon points="382.5,180.5 382.5,158.7 396.4,158.2 404.6,174.8 396.7,184.0 393.5,184.8" fill="#8ebc77" stroke="#8ebc77" stroke-width="0.5"/><polygon points="396.7,184.0 404.6,174.8 414.2,174.4 421.9,185.6 413.0,201.5 412.3,201.6" fill="#7e9157" stroke="#7e9157" stroke-width="0.5"/><polygon points="421.9,185.6 414.2,174.4 422.9,162.9 434.2,165.1 439.5,173.8 437.0,186.3" fill="#7c8e55" stroke="#7c8e55" stroke-width="0.5"/><polygon points="437.0,186.8 439.5,173.8 457.8,169.8 462.5,186.8" fill="#82965a" stroke="#82965a" stroke-width="0.5"/><polygon points="462.8,188.1 457.8,169.8 459.1,167.1 483.7,164.5 481.9,180.8" fill="#83965b" stroke="#83965b" stroke-width="0.5"/><polygon points="481.9,180.8 483.5,166.1 509.3,169.5 506.9,186.4 490.4,190.4" fill="#3d653a" stroke="#3d653a" stroke-width="0.5"/><polygon points="506.9,186.4 509.3,169.5 513.5,165.3 533.2,177.0 535.1,182.7 530.6,191.3 512.3,192.3" fill="#3d7ea6" stroke="#3d7ea6" stroke-width="0.5"/><polygon points="535.1,182.7 533.2,177.0 544.0,158.7 552.8,160.9 555.2,183.6" fill="#1f4e6b" stroke="#1f4e6b" stroke-width="0.5"/><polygon points="576.0,159.8 576.0,184.5 555.3,184.5 552.8,160.9 559.1,158.2" fill="#1f4e6b" stroke="#1f4e6b" stroke-width="0.5"/><polygon points="1.3,197.6 22.3,180.5 29.4,189.5 19.6,210.4" fill="#1f4e6b" stroke="#1f4e6b" stroke-width="0.5"/><polygon points="18.0,213.8 29.4,189.5 44.3,194.2 37.1,213.8" fill="#1f4e6b" stroke="#1f4e6b" stroke-width="0.5"/><polygon points="45.1,191.5 65.0,190.1 71.4,204.2 60.0,213.3" fill="#ffebb7" stroke="#ffebb7" stroke-width="0.5"/><polygon points="71.4,204.2 65.0,190.1 69.8,183.7 85.5,186.2 85.5,207.0" fill="#5d9a58" stroke="#5d9a58" stroke-width="0.5"/><polygon points="85.5,204.8 85.5,186.2 92.0,180.4 105.8,184.7 105.8,204.8" fill="#84975b" stroke="#84975b" stroke-width="0.5"/><polygon points="105.8,201.0 105.8,184.7 109.5,182.1 132.0,187.7 130.1,203.5" fill="#609d59" stroke="#609d59" stroke-width="0.5"/><polygon points="130.2,202.7 132.1,186.8 156.4,185.6 155.3,207.5 150.2,211.1" fill="#aea498" stroke="#aea498" stroke-width="0.5"/><polygon points="155.3,207.5 156.5,183.9 175.1,186.1 178.2,204.0 173.9,211.2" fill="#807970" stroke="#807970" stroke-width="0.5"/><polygon points="178.2,204.0 174.4,181.8 200.4,189.7 201.2,201.6" fill="#a6a068" stroke="#a6a068" stroke-width="0.5"/><polygon points="201.2,201.6 200.0,182.5 231.7,185.8 232.0,187.5 208.2,207.0 205.4,207.2" fill="#948c81" stroke="#948c81" stroke-width="0.5"/><polygon points="232.0,187.5 236.0,193.5 237.7,211.9 230.3,217.0 208.2,207.0" fill="#a0978b" stroke="#a0978b" stroke-width="0.5"/><polygon points="237.4,209.5 236.0,193.5 263.2,194.0 260.3,211.0" fill="#ada397" stroke="#ada397" stroke-width="0.5"/><polygon points="260.1,212.4 263.5,192.1 283.7,193.3 286.2,213.8 281.9,218.6" fill="#a3998e" stroke="#a3998e" stroke-width="0.5"/><polygon points="286.2,213.8 283.7,193.5 302.5,189.7 310.3,195.1 311.3,199.7 302.0,214.6" fill="#5c5751" stroke="#5c5751" stroke-width="0.5"/><polygon points="311.3,199.7 310.3,195.1 327.5,181.5 340.7,192.9 327.4,209.5" fill="#345631" stroke="#345631" stroke-width="0.5"/><polygon points="329.5,219.4 327.4,209.5 340.7,192.9 344.2,193.1 353.3,203.6 352.4,210.7 335.4,223.3" fill="#345631" stroke="#345631" stroke-width="0.5"/><polygon points="353.3,203.6 344.2,193.1 356.9,176.9 359.8,176.7 371.9,184.7 370.6,199.6" fill="#548b4f" stroke="#548b4f" stroke-width="0.5"/><polygon points="369.9,207.7 371.9,184.7 382.5,180.4 393.5,184.8 388.0,204.1" fill="#5a9454" stroke="#5a9454" stroke-width="0.5"/><polygon points="388.0,204.1 393.5,184.8 396.7,184.0 412.3,201.6 399.2,211.1" fill="#748550" stroke="#748550" stroke-width="0.5"/><polygon points="413.0,201.5 421.9,185.6 437.3,186.3 438.7,198.3 424.8,210.5" fill="#819459" stroke="#819459" stroke-width="0.5"/><polygon points="438.7,198.3 437.4,186.8 463.5,186.8 463.5,203.2 450.9,206.0" fill="#7b8e55" stroke="#7b8e55" stroke-width="0.5"/><polygon points="463.5,202.5 463.5,187.8 481.9,180.8 490.4,190.4 486.4,205.4 484.4,206.7" fill="#6a7a49" stroke="#6a7a49" stroke-width="0.5"/><polygon points="486.4,205.4 490.4,190.4 506.9,186.4 512.3,192.3 509.6,213.7" fill="#345631" stroke="#345631" stroke-width="0.5"/><polygon points="510.2,209.1 512.3,192.3 530.6,191.3 535.4,203.4 527.8,213.5" fill="#3d7ea6" stroke="#3d7ea6" stroke-width="0.5"/><polygon points="535.4,203.4 530.6,191.3 535.1,182.7 556.5,183.7 550.8,206.5" fill="#1f4e6b" stroke="#1f4e6b" stroke-width="0.5"/><polygon points="576.0,184.5 576.0,213.5 553.3,209.5 550.8,206.5 556.3,184.5" fill="#1f4e6b" stroke="#1f4e6b" stroke-width="0.5"/><polygon points="0.0,227.1 0.0,197.6 1.3,197.6 21.8,212.0 16.2,224.9" fill="#1f4e6b" stroke="#1f4e6b" stroke-width="0.5"/><polygon points="22.9,236.2 16.2,224.9 21.0,213.8 37.1,213.8 47.4,224.6 40.7,236.2" fill="#1f4e6b" stroke="#1f4e6b" stroke-width="0.5"/><polygon points="37.1,213.8 44.3,194.2 46.4,193.4 60.0,213.3 57.2,222.5 47.4,224.6" fill="#3d7ea6" stroke="#3d7ea6" stroke-width="0.5"/><polygon points="57.2,222.5 60.0,213.3 71.4,204.2 83.2,206.5 83.2,223.3 67.5,230.2" fill="#609e5a" stroke="#609e5a" stroke-width="0.5"/><polygon points="83.2,223.3 83.2,204.8 102.6,204.8 107.9,224.8 93.9,230.3" fill="#5f9c59" stroke="#5f9c59" stroke-width="0.5"/><polygon points="107.9,224.8 101.5,200.5 129.3,203.4 124.5,218.3 109.1,225.3" fill="#5f9c59" stroke="#5f9c59" stroke-width="0.5"/><polygon points="124.5,218.3 129.6,202.5 150.2,211.1 148.4,226.6 137.9,231.2" fill="#777068" stroke="#777068" stroke-width="0.5"/><polygon points="148.4,226.6 150.2,211.1 155.3,207.5 173.9,211.2 177.8,222.8 174.9,229.3 159.4,234.5" fill="#847d73" stroke="#847d73" stroke-width="0.5"/><polygon points="177.8,222.8 173.9,211.2 178.2,204.0 201.2,201.6 205.4,207.2 200.6,221.6" fill="#8e867c" stroke="#8e867c" stroke-width="0.5"/><polygon points="200.6,221.6 205.4,207.2 208.2,207.0 230.3,217.0 226.4,229.5 204.4,229.5" fill="#988f84" stroke="#988f84" stroke-width="0.5"/><polygon points="226.4,229.5 230.3,217.0 234.9,213.9 253.9,232.9 246.4,239.3 230.5,238.9" fill="#999085" stroke="#999085" stroke-width="0.5"/><polygon points="254.5,233.5 229.9,208.9 261.8,211.1" fill="#a39a8e" stroke="#a39a8e" stroke-width="0.5"/><polygon points="254.7,232.7 261.2,212.7 281.9,218.6 281.4,230.9 264.7,237.6" fill="#a39a8e" stroke="#a39a8e" stroke-width="0.5"/><polygon points="281.4,230.9 281.9,218.6 286.2,213.8 302.0,214.6 310.6,227.8 308.9,233.7 287.5,237.5" fill="#9f968a" stroke="#9f968a" stroke-width="0.5"/><polygon points="302.0,214.6 311.3,199.7 327.4,209.5 329.5,219.4 310.6,227.8" fill="#5c5751" stroke="#5c5751" stroke-width="0.5"/><polygon points="338.4,230.6 335.4,223.3 352.4,210.7 362.2,222.5 360.2,230.6" fill="#345631" stroke="#345631" stroke-width="0.5"/><polygon points="362.2,222.5 352.4,210.7 353.3,203.6 378.9,197.8 375.2,216.6" fill="#487643" stroke="#487643" stroke-width="0.5"/><polygon points="375.2,216.6 377.2,206.3 388.0,204.1 399.2,211.1 399.2,230.1 383.5,227.0" fill="#4e8049" stroke="#4e8049" stroke-width="0.5"/><polygon points="399.2,230.0 399.2,211.1 412.3,201.6 413.0,201.5 424.8,210.5 427.0,222.1" fill="#599253" stroke="#599253" stroke-width="0.5"/><polygon points="426.8,221.0 424.8,210.5 438.7,198.3 450.9,206.0 443.4,222.9" fill="#5b9655" stroke="#5b9655" stroke-width="0.5"/><polygon points="443.4,222.9 450.9,206.0 462.5,203.5 465.0,226.8 449.1,229.6" fill="#5a9454" stroke="#5a9454" stroke-width="0.5"/><polygon points="465.0,226.8 462.4,202.3 484.4,206.7 482.1,225.2 470.2,230.0" fill="#4a7945" stroke="#4a7945" stroke-width="0.5"/><polygon points="482.1,225.2 484.4,206.7 486.4,205.4 506.2,212.4 504.9,228.8 492.8,231.7" fill="#345631" stroke="#345631" stroke-width="0.5"/><polygon points="504.8,229.5 506.5,208.2 527.8,213.5 531.0,229.5" fill="#3d7ea6" stroke="#3d7ea6" stroke-width="0.5"/><polygon points="530.9,228.8 527.8,213.5 535.4,203.4 550.8,206.5 553.3,209.5 544.7,230.1" fill="#1f4e6b" stroke="#1f4e6b" stroke-width="0.5"/><polygon points="576.0,213.5 576.0,226.3 548.8,234.4 544.7,230.1 553.3,209.5" fill="#1f4e6b" stroke="#1f4e6b" stroke-width="0.5"/><polygon points="0.0,248.4 0.0,227.1 16.2,224.9 23.0,236.2 17.7,249.4 14.2,251.2" fill="#1f4e6b" stroke="#1f4e6b" stroke-width="0.5"/><polygon points="17.7,249.4 22.9,236.2 40.7,236.2 45.0,247.5 33.1,259.4" fill="#1f4e6b" stroke="#1f4e6b" stroke-width="0.5"/><polygon points="45.0,247.5 40.7,236.2 47.4,224.6 57.2,222.5 67.5,230.2 68.6,245.0 61.6,254.9" fill="#3d7ea6" stroke="#3d7ea6" stroke-width="0.5"/><polygon points="68.6,245.0 67.5,230.2 83.2,223.3 93.9,230.3 91.1,247.1" fill="#589152" stroke="#589152" stroke-width="0.5"/><polygon points="93.7,251.4 91.1,247.1 93.9,230.3 107.9,224.8 109.1,225.3 116.9,241.0 106.9,257.7" fill="#568e51" stroke="#568e51" stroke-width="0.5"/><polygon points="116.9,241.0 109.1,225.3 124.5,218.3 137.9,231.2 132.9,241.5" fill="#416b3d" stroke="#416b3d" stroke-width="0.5"/><polygon points="132.9,241.5 137.9,231.2 148.4,226.6 159.4,234.5 157.1,254.6 136.8,250.3" fill="#978e83" stroke="#978e83" stroke-width="0.5"/><polygon points="157.0,255.5 159.4,234.5 174.9,229.3 184.5,246.6 181.1,254.2" fill="#5c5751" stroke="#5c5751" stroke-width="0.5"/><polygon points="184.5,246.6 174.9,229.3 177.8,222.8 200.6,221.6 204.4,229.5 201.7,242.0" fill="#746d65" stroke="#746d65" stroke-width="0.5"/><polygon points="201.7,242.0 204.4,229.5 226.4,229.5 230.4,238.9 226.6,246.6 210.6,252.3" fill="#857e74" stroke="#857e74" stroke-width="0.5"/><polygon points="226.6,246.6 230.5,238.8 246.4,239.3 249.4,258.2 238.4,266.7" fill="#8b8379" stroke="#8b8379" stroke-width="0.5"/><polygon points="249.4,258.2 246.4,239.3 254.4,232.6 264.7,237.6 267.9,259.8" fill="#8f877d" stroke="#8f877d" stroke-width="0.5"/><polygon points="267.5,256.8 264.7,237.6 281.4,230.9 287.5,237.5 287.3,248.4 282.6,254.2" fill="#8d847a" stroke="#8d847a" stroke-width="0.5"/><polygon points="287.3,248.4 287.5,237.5 308.9,233.7 315.1,247.3 306.4,256.5" fill="#736c64" stroke="#736c64" stroke-width="0.5"/><polygon points="315.1,247.3 308.9,233.7 310.6,227.8 329.5,219.4 335.4,223.3 338.4,230.6 336.0,245.1 329.2,250.2" fill="#5c5751" stroke="#5c5751" stroke-width="0.5"/><polygon points="336.0,245.1 338.4,230.6 360.2,230.6 365.7,241.6 352.7,251.3" fill="#345631" stroke="#345631" stroke-width="0.5"/><polygon points="366.8,243.8 360.2,230.6 362.2,222.5 375.2,216.6 383.5,227.0" fill="#477542" stroke="#477542" stroke-width="0.5"/><polygon points="368.2,242.2 383.5,227.0 399.2,230.1 399.6,234.8 390.2,248.5 375.2,249.2" fill="#4d7f49" stroke="#4d7f49" stroke-width="0.5"/><polygon points="399.6,234.8 399.1,230.1 425.8,222.4 427.6,246.2 418.1,251.1" fill="#50844b" stroke="#50844b" stroke-width="0.5"/><polygon points="427.6,246.2 425.7,220.9 443.4,222.9 449.1,229.6 445.0,250.2" fill="#50844b" stroke="#50844b" stroke-width="0.5"/><polygon points="445.0,249.8 449.1,229.6 465.0,226.8 470.2,230.0 470.2,249.8" fill="#4d7f48" stroke="#4d7f48" stroke-width="0.5"/><polygon points="470.2,248.4 470.2,230.0 482.1,225.2 492.8,231.7 488.4,249.2" fill="#345631" stroke="#345631" stroke-width="0.5"/><polygon points="488.4,249.2 492.8,231.7 505.5,228.7 510.7,249.5 507.8,253.0 492.6,254.0" fill="#8f8366" stroke="#8f8366" stroke-width="0.5"/><polygon points="510.7,249.5 505.7,229.5 530.0,229.5 525.7,248.5" fill="#3d7ea6" stroke="#3d7ea6" stroke-width="0.5"/><polygon points="525.7,248.5 530.2,228.7 544.7,230.1 548.8,234.4 550.6,244.2 534.9,258.7" fill="#1f4e6b" stroke="#1f4e6b" stroke-width="0.5"/><polygon points="576.0,226.3 576.0,249.8 561.7,251.1 550.6,244.2 548.8,234.4" fill="#1f4e6b" stroke="#1f4e6b" stroke-width="0.5"/><polygon points="0.0,272.5 0.0,248.4 14.2,251.2 12.1,271.0" fill="#1f4e6b" stroke="#1f4e6b" stroke-width="0.5"/><polygon points="12.1,271.0 14.2,251.2 17.7,249.4 33.1,259.4 34.2,273.1 24.7,280.2" fill="#1f4e6b" stroke="#1f4e6b" stroke-width="0.5"/><polygon points="34.2,273.1 33.1,259.4 45.0,247.5 61.6,254.9 48.4,275.4" fill="#1f4e6b" stroke="#1f4e6b" stroke-width="0.5"/><polygon points="61.5,255.0 68.6,245.0 91.1,247.1 93.7,251.4 77.6,270.3" fill="#51854b" stroke="#51854b" stroke-width="0.5"/><polygon points="83.1,277.2 78.4,274.3 77.6,270.3 93.7,251.4 108.3,258.3 102.8,275.4" fill="#4a7945" stroke="#4a7945" stroke-width="0.5"/><polygon points="106.0,259.2 116.9,241.0 132.9,241.5 136.8,250.3 128.4,265.6" fill="#4e8049" stroke="#4e8049" stroke-width="0.5"/><polygon points="128.4,265.6 136.8,250.3 157.7,254.8 156.1,270.3 132.2,273.7" fill="#888077" stroke="#888077" stroke-width="0.5"/><polygon points="156.0,271.3 157.6,255.5 181.1,254.2 185.6,265.6 179.8,277.2" fill="#5c5751" stroke="#5c5751" stroke-width="0.5"/><polygon points="185.6,265.6 181.1,254.2 184.5,246.6 201.7,242.0 210.6,252.2 198.7,266.7" fill="#878254" stroke="#878254" stroke-width="0.5"/><polygon points="205.6,277.3 198.7,266.7 210.6,252.2 223.3,275.1" fill="#a29c65" stroke="#a29c65" stroke-width="0.5"/><polygon points="221.9,272.6 210.6,252.3 226.6,246.6 237.8,265.8" fill="#837c72" stroke="#837c72" stroke-width="0.5"/><polygon points="239.2,266.1 249.4,258.2 265.3,259.6 267.2,269.9 260.1,282.4 245.5,279.4" fill="#8d857b" stroke="#8d857b" stroke-width="0.5"/><polygon points="267.2,269.9 264.9,257.3 282.6,254.2 290.8,272.9 286.6,276.8" fill="#8f877c" stroke="#8f877c" stroke-width="0.5"/><polygon points="290.8,272.9 282.6,254.2 287.3,248.4 306.4,256.5 304.2,271.1" fill="#7b746b" stroke="#7b746b" stroke-width="0.5"/><polygon points="304.2,271.1 306.4,256.5 315.1,247.3 329.2,250.2 331.6,270.1 309.9,276.5" fill="#5c5751" stroke="#5c5751" stroke-width="0.5"/><polygon points="331.6,270.1 329.2,250.2 336.0,245.1 352.7,251.3 355.2,266.7 353.1,270.4 336.9,274.4" fill="#345631" stroke="#345631" stroke-width="0.5"/><polygon points="355.2,266.7 352.7,251.3 366.8,240.8 375.2,249.2 373.1,263.9" fill="#487643" stroke="#487643" stroke-width="0.5"/><polygon points="373.1,263.9 375.2,249.2 390.2,248.5 396.1,264.1 389.2,274.0 381.0,272.8" fill="#79a065" stroke="#79a065" stroke-width="0.5"/><polygon points="396.1,264.1 390.2,248.5 399.6,234.8 418.1,251.1 414.5,262.0" fill="#7aa166" stroke="#7aa166" stroke-width="0.5"/><polygon points="414.5,262.0 418.1,251.1 427.6,246.2 444.6,250.1 444.6,272.9 420.6,273.4" fill="#7ea669" stroke="#7ea669" stroke-width="0.5"/><polygon points="444.6,270.7 444.6,249.8 468.9,249.8 470.9,272.9" fill="#698c58" stroke="#698c58" stroke-width="0.5"/><polygon points="471.0,274.0 468.8,248.3 488.4,249.2 492.6,254.0 489.6,266.5 477.9,274.8" fill="#546f46" stroke="#546f46" stroke-width="0.5"/><polygon points="489.6,266.5 492.6,254.0 507.8,253.0 514.7,280.4" fill="#3d7ea6" stroke="#3d7ea6" stroke-width="0.5"/><polygon points="512.5,271.7 507.8,253.0 510.7,249.5 525.7,248.5 534.9,258.7 535.3,264.1" fill="#3d7ea6" stroke="#3d7ea6" stroke-width="0.5"/><polygon points="535.2,262.9 534.9,258.7 550.6,244.2 561.7,251.1 553.8,269.7" fill="#1f4e6b" stroke="#1f4e6b" stroke-width="0.5"/><polygon points="576.0,249.8 576.0,277.0 555.5,272.2 553.8,269.7 561.7,251.1" fill="#1f4e6b" stroke="#1f4e6b" stroke-width="0.5"/><polygon points="0.0,291.2 0.0,272.5 12.1,271.0 23.5,279.3 13.1,293.1" fill="#1f4e6b" stroke="#1f4e6b" stroke-width="0.5"/><polygon points="39.9,306.6 26.2,279.1 34.2,273.1 48.4,275.4 54.3,284.1" fill="#1f4e6b" stroke="#1f4e6b" stroke-width="0.5"/><polygon points="48.4,275.4 61.6,255.0 77.6,270.3 78.4,274.3 63.9,286.5 54.3,284.1" fill="#3d7ea6" stroke="#3d7ea6" stroke-width="0.5"/><polygon points="69.3,299.7 63.9,286.5 78.4,274.3 83.1,277.2 88.0,299.1" fill="#3d7ea6" stroke="#3d7ea6" stroke-width="0.5"/><polygon points="88.4,301.2 83.1,277.2 102.8,275.4 106.4,282.6 95.9,300.5" fill="#457241" stroke="#457241" stroke-width="0.5"/><polygon points="106.4,282.6 102.8,275.4 107.8,259.7 128.4,265.6 132.2,273.7 128.2,289.8 127.1,289.9" fill="#467241" stroke="#467241" stroke-width="0.5"/><polygon points="128.1,290.4 132.2,273.7 157.0,270.1 155.0,292.2 149.5,295.5" fill="#958c82" stroke="#958c82" stroke-width="0.5"/><polygon points="168.6,296.5 155.0,292.2 156.9,271.5 180.9,277.5" fill="#7d766d" stroke="#7d766d" stroke-width="0.5"/><polygon points="179.3,278.1 185.6,265.6 198.7,266.7 205.6,277.3 198.5,291.4 196.5,292.3" fill="#7e776e" stroke="#7e776e" stroke-width="0.5"/><polygon points="198.5,291.4 205.6,277.3 220.2,275.5 224.4,290.0 216.9,298.4" fill="#739860" stroke="#739860" stroke-width="0.5"/><polygon points="224.3,290.1 219.7,273.6 238.8,265.4 245.5,279.4 237.7,291.9" fill="#938d5c" stroke="#938d5c" stroke-width="0.5"/><polygon points="241.5,300.0 237.7,291.9 245.5,279.4 260.1,282.4 265.8,294.6 264.8,297.1" fill="#a9a36a" stroke="#a9a36a" stroke-width="0.5"/><polygon points="265.8,294.6 260.1,282.4 267.2,269.9 286.6,276.8 283.9,290.3" fill="#988f85" stroke="#988f85" stroke-width="0.5"/><polygon points="283.9,290.3 286.6,276.8 290.8,272.9 304.2,271.1 309.9,276.5 311.1,292.2 292.0,298.5" fill="#867e75" stroke="#867e75" stroke-width="0.5"/><polygon points="310.9,289.8 309.9,276.5 331.6,270.1 336.9,274.4 336.4,288.2 328.5,294.2" fill="#5c5751" stroke="#5c5751" stroke-width="0.5"/><polygon points="336.4,288.2 336.9,274.4 353.1,270.4 364.0,288.6 349.2,297.0" fill="#345631" stroke="#345631" stroke-width="0.5"/><polygon points="364.1,288.9 353.1,270.4 355.2,266.7 373.1,263.9 381.0,272.8" fill="#497744" stroke="#497744" stroke-width="0.5"/><polygon points="364.3,288.7 381.0,272.8 389.2,274.0 393.7,283.5 391.5,292.8 374.8,300.7" fill="#4e8149" stroke="#4e8149" stroke-width="0.5"/><polygon points="393.7,283.5 389.2,274.0 396.1,264.1 414.5,262.0 420.6,273.4 416.4,283.5" fill="#568d50" stroke="#568d50" stroke-width="0.5"/><polygon points="420.6,298.9 416.4,283.5 420.6,273.4 442.8,273.0 444.4,287.8 422.4,300.0" fill="#4d7f49" stroke="#4d7f49" stroke-width="0.5"/><polygon points="445.0,294.1 442.5,270.5 472.6,273.0 463.9,294.4" fill="#345631" stroke="#345631" stroke-width="0.5"/><polygon points="466.9,298.3 463.9,294.4 472.1,274.1 477.9,274.8 491.7,292.2 489.0,298.3" fill="#345631" stroke="#345631" stroke-width="0.5"/><polygon points="491.7,292.2 477.9,274.8 489.6,266.5 509.2,277.4 509.2,285.7" fill="#8f8366" stroke="#8f8366" stroke-width="0.5"/><polygon points="509.3,283.1 509.3,272.8 534.1,264.5 534.5,289.4" fill="#3d7ea6" stroke="#3d7ea6" stroke-width="0.5"/><polygon points="534.5,291.2 534.1,262.5 553.8,269.7 555.5,272.2 545.9,293.9" fill="#1f4e6b" stroke="#1f4e6b" stroke-width="0.5"/><polygon points="576.0,277.0 576.0,296.8 546.7,292.0 555.5,272.2" fill="#1f4e6b" stroke="#1f4e6b" stroke-width="0.5"/><polygon points="0.0,314.1 0.0,291.2 13.1,293.1 17.9,310.5" fill="#1f4e6b" stroke="#1f4e6b" stroke-width="0.5"/><polygon points="17.9,310.5 13.1,293.1 25.2,277.1 39.9,306.6 39.9,307.1 20.3,311.8" fill="#1f4e6b" stroke="#1f4e6b" stroke-width="0.5"/><polygon points="39.7,310.0 39.9,306.6 54.3,284.1 63.9,286.5 69.3,299.7 64.9,308.4 56.7,313.5" fill="#1f4e6b" stroke="#1f4e6b" stroke-width="0.5"/><polygon points="84.1,321.5 64.9,308.4 69.3,299.7 91.5,299.0" fill="#1f4e6b" stroke="#1f4e6b" stroke-width="0.5"/><polygon points="95.9,300.5 106.4,282.6 127.1,289.9 108.8,309.2" fill="#426c3d" stroke="#426c3d" stroke-width="0.5"/><polygon points="110.6,315.8 108.8,309.2 127.1,289.9 129.1,289.6 132.5,321.5" fill="#416b3d" stroke="#416b3d" stroke-width="0.5"/><polygon points="132.2,319.2 129.2,290.7 149.5,295.5 149.5,315.7" fill="#8a8556" stroke="#8a8556" stroke-width="0.5"/><polygon points="149.5,315.7 149.5,295.5 155.0,292.2 168.6,296.5 175.1,307.6 174.1,310.8 155.9,320.2" fill="#847d73" stroke="#847d73" stroke-width="0.5"/><polygon points="175.1,307.6 168.6,296.5 180.1,278.8 196.5,292.3 192.1,301.6" fill="#7d766d" stroke="#7d766d" stroke-width="0.5"/><polygon points="192.1,301.6 196.5,292.3 198.5,291.4 216.9,298.4 218.6,312.2 213.6,318.8 212.4,319.1 202.3,317.7" fill="#746d65" stroke="#746d65" stroke-width="0.5"/><polygon points="218.6,312.2 216.9,298.4 224.3,290.0 237.6,291.9 241.5,300.0 239.1,312.2" fill="#759b62" stroke="#759b62" stroke-width="0.5"/><polygon points="239.1,312.2 241.5,300.0 264.8,297.1 266.0,310.3 243.3,317.9" fill="#aea76d" stroke="#aea76d" stroke-width="0.5"/><polygon points="266.2,312.2 264.8,297.1 265.8,294.6 283.9,290.3 292.0,298.5 290.9,309.0 280.9,315.7" fill="#787169" stroke="#787169" stroke-width="0.5"/><polygon points="290.9,309.0 292.0,298.5 308.6,293.0 313.8,311.4 304.1,318.9" fill="#5c5751" stroke="#5c5751" stroke-width="0.5"/><polygon points="313.8,311.4 307.4,288.9 328.5,294.2 328.5,313.5" fill="#5c5751" stroke="#5c5751" stroke-width="0.5"/><polygon points="328.5,314.5 328.5,294.2 336.4,288.2 349.2,297.0 348.3,307.2" fill="#345631" stroke="#345631" stroke-width="0.5"/><polygon points="348.3,307.2 349.2,297.0 364.1,288.5 374.8,300.7 373.9,310.1 368.8,316.0 356.5,316.0" fill="#4c7d47" stroke="#4c7d47" stroke-width="0.5"/><polygon points="373.9,310.1 374.8,300.7 391.5,292.8 402.2,305.7 397.9,319.0" fill="#50844b" stroke="#50844b" stroke-width="0.5"/><polygon points="391.5,292.8 393.7,283.5 416.4,283.5 420.6,298.9 402.2,305.7" fill="#558c50" stroke="#558c50" stroke-width="0.5"/><polygon points="422.4,300.0 454.5,282.1 446.3,308.7 429.6,314.3" fill="#345631" stroke="#345631" stroke-width="0.5"/><polygon points="446.3,308.7 450.8,294.2 463.9,294.4 466.9,298.3 466.9,310.1 459.0,319.3" fill="#345631" stroke="#345631" stroke-width="0.5"/><polygon points="466.9,310.1 466.9,298.3 489.0,298.3 490.2,306.3 481.5,315.0" fill="#8f8366" stroke="#8f8366" stroke-width="0.5"/><polygon points="490.2,306.3 489.0,298.3 491.7,292.2 507.0,286.5 515.8,310.0 503.8,315.9" fill="#3d7ea6" stroke="#3d7ea6" stroke-width="0.5"/><polygon points="515.8,310.0 505.4,282.2 537.3,290.1 521.1,311.1" fill="#1f4e6b" stroke="#1f4e6b" stroke-width="0.5"/><polygon points="521.1,311.1 536.2,291.6 543.9,293.4 549.2,317.8 527.9,319.8" fill="#1f4e6b" stroke="#1f4e6b" stroke-width="0.5"/><polygon points="576.0,296.8 576.0,307.1 549.0,316.8 543.5,291.5" fill="#1f4e6b" stroke="#1f4e6b" stroke-width="0.5"/><polygon points="0.0,333.9 0.0,314.1 17.9,310.5 20.2,311.8 20.2,333.7 15.0,336.9" fill="#1f4e6b" stroke="#1f4e6b" stroke-width="0.5"/><polygon points="20.2,333.7 20.2,311.8 44.5,306.0 38.6,339.4" fill="#1f4e6b" stroke="#1f4e6b" stroke-width="0.5"/><polygon points="40.9,342.3 38.6,339.4 43.7,310.8 56.7,313.5 64.0,333.9 62.5,336.5 42.9,343.1" fill="#1f4e6b" stroke="#1f4e6b" stroke-width="0.5"/><polygon points="64.0,333.9 56.7,313.5 64.9,308.4 84.1,321.5 85.4,327.7" fill="#1f4e6b" stroke="#1f4e6b" stroke-width="0.5"/><polygon points="85.4,327.8 84.1,321.5 90.8,301.0 95.9,300.5 108.8,309.2 110.6,315.8 102.0,329.0" fill="#3d7ea6" stroke="#3d7ea6" stroke-width="0.5"/><polygon points="102.0,329.0 110.6,315.8 130.5,321.0 130.5,338.5 108.4,339.7" fill="#c3b38b" stroke="#c3b38b" stroke-width="0.5"/><polygon points="130.5,337.6 130.5,319.5 149.5,315.7 155.9,320.2 157.9,336.6 152.5,340.3" fill="#6a6642" stroke="#6a6642" stroke-width="0.5"/><polygon points="157.9,336.6 155.9,320.2 174.1,310.8 183.7,328.6 169.7,340.6" fill="#857e74" stroke="#857e74" stroke-width="0.5"/><polygon points="183.7,328.6 174.1,310.8 175.1,307.6 192.1,301.6 202.3,317.7 187.5,329.2" fill="#767067" stroke="#767067" stroke-width="0.5"/><polygon points="202.1,350.1 187.5,329.2 202.3,317.7 212.4,319.1" fill="#7a754c" stroke="#7a754c" stroke-width="0.5"/><polygon points="213.6,318.8 218.6,312.2 239.1,312.2 243.3,317.9 243.5,325.7 234.8,337.4 227.8,336.9" fill="#628252" stroke="#628252" stroke-width="0.5"/><polygon points="243.5,325.7 243.3,317.9 268.7,309.4 263.2,334.5" fill="#8c8758" stroke="#8c8758" stroke-width="0.5"/><polygon points="262.4,338.0 268.0,312.6 280.9,315.7 285.6,338.9" fill="#6a6642" stroke="#6a6642" stroke-width="0.5"/><polygon points="285.2,336.9 280.9,315.7 290.9,309.0 304.1,318.9 303.9,330.8" fill="#6a6642" stroke="#6a6642" stroke-width="0.5"/><polygon points="303.9,330.8 304.1,318.9 313.8,311.4 329.2,313.6 331.5,329.7 311.4,336.6" fill="#345631" stroke="#345631" stroke-width="0.5"/><polygon points="330.7,324.2 329.2,314.2 348.3,307.2 356.5,316.0 349.0,328.3" fill="#4a7a45" stroke="#4a7a45" stroke-width="0.5"/><polygon points="353.2,341.3 349.0,328.3 356.5,316.0 368.8,316.0 372.7,331.5" fill="#4b7c47" stroke="#4b7c47" stroke-width="0.5"/><polygon points="372.7,331.5 368.8,316.0 373.9,310.1 397.9,319.0 399.6,325.0 387.0,338.2 382.4,338.6" fill="#487643" stroke="#487643" stroke-width="0.5"/><polygon points="399.6,325.0 397.9,319.0 402.2,305.7 420.6,298.9 422.4,300.0 429.3,313.6 409.7,328.7" fill="#447040" stroke="#447040" stroke-width="0.5"/><polygon points="416.3,340.5 409.7,328.7 429.8,313.2 439.0,332.5 435.3,339.8" fill="#345631" stroke="#345631" stroke-width="0.5"/><polygon points="439.0,332.5 430.2,314.1 446.3,308.7 459.0,319.3 459.0,328.5" fill="#345631" stroke="#345631" stroke-width="0.5"/><polygon points="459.0,335.0 459.0,319.3 466.9,310.1 481.5,315.0 481.5,327.1" fill="#8f8366" stroke="#8f8366" stroke-width="0.5"/><polygon points="481.5,327.1 481.5,315.0 490.2,306.3 503.8,315.9 499.3,334.8 495.7,335.4" fill="#3d7ea6" stroke="#3d7ea6" stroke-width="0.5"/><polygon points="499.3,334.8 503.8,315.9 515.8,310.0 521.1,311.1 527.9,319.8 525.2,333.2 507.0,339.9" fill="#1f4e6b" stroke="#1f4e6b" stroke-width="0.5"/><polygon points="525.2,333.2 527.9,319.8 548.4,317.9 549.9,322.6 539.0,347.0" fill="#1f4e6b" stroke="#1f4e6b" stroke-width="0.5"/><polygon points="576.0,307.1 576.0,341.0 570.2,339.4 549.9,322.6 548.1,317.1" fill="#1f4e6b" stroke="#1f4e6b" stroke-width="0.5"/><polygon points="0.0,356.7 0.0,333.9 15.0,336.9 13.5,357.3" fill="#1f4e6b" stroke="#1f4e6b" stroke-width="0.5"/><polygon points="19.8,364.0 13.5,357.3 15.0,336.9 20.3,333.7 38.6,339.4 40.9,342.3 22.8,364.3" fill="#1f4e6b" stroke="#1f4e6b" stroke-width="0.5"/><polygon points="52.6,364.6 42.9,343.1 62.5,336.5 73.5,358.5 65.9,366.1" fill="#1f4e6b" stroke="#1f4e6b" stroke-width="0.5"/><polygon points="73.5,358.5 62.5,336.5 64.0,333.9 85.5,327.7 85.5,356.8" fill="#1f4e6b" stroke="#1f4e6b" stroke-width="0.5"/><polygon points="85.5,359.6 85.5,327.8 102.0,329.0 108.4,339.7 103.3,354.9" fill="#3d7ea6" stroke="#3d7ea6" stroke-width="0.5"/><polygon points="103.3,354.9 108.4,339.7 129.7,338.5 129.9,364.5 115.6,364.5" fill="#3d7ea6" stroke="#3d7ea6" stroke-width="0.5"/><polygon points="129.9,365.0 129.7,337.5 152.5,340.3 149.2,363.3" fill="#345631" stroke="#345631" stroke-width="0.5"/><polygon points="149.2,363.3 152.5,340.3 157.9,336.6 169.7,340.6 176.6,358.3 157.0,368.3" fill="#747049" stroke="#747049" stroke-width="0.5"/><polygon points="176.6,358.3 169.7,340.6 183.7,328.6 187.5,329.2 201.5,349.3 193.3,359.8 186.7,362.3" fill="#706c46" stroke="#706c46" stroke-width="0.5"/><polygon points="202.4,349.1 212.4,319.1 213.6,318.8 227.8,336.9 212.9,349.9" fill="#6a6642" stroke="#6a6642" stroke-width="0.5"/><polygon points="227.7,367.4 212.9,349.9 227.8,336.9 234.8,337.4 241.8,350.0 236.6,364.0" fill="#546f46" stroke="#546f46" stroke-width="0.5"/><polygon points="241.8,350.0 234.8,337.4 243.5,325.7 266.4,335.9 259.2,348.5" fill="#6a6642" stroke="#6a6642" stroke-width="0.5"/><polygon points="266.3,364.8 259.2,348.5 265.1,338.1 283.7,338.8 288.3,359.0 281.7,365.6" fill="#475131" stroke="#475131" stroke-width="0.5"/><polygon points="288.3,359.0 283.4,337.5 303.9,330.8 311.4,336.6 311.8,361.2" fill="#475131" stroke="#475131" stroke-width="0.5"/><polygon points="311.8,360.5 311.4,336.6 327.0,331.2 338.5,350.3 330.2,360.0" fill="#51854c" stroke="#51854c" stroke-width="0.5"/><polygon points="338.5,350.3 321.5,322.1 349.0,328.3 353.2,341.3 351.2,347.5" fill="#4b7c47" stroke="#4b7c47" stroke-width="0.5"/><polygon points="351.2,347.5 353.2,341.3 372.7,331.5 382.4,338.6 369.7,360.4 363.5,360.3" fill="#487744" stroke="#487744" stroke-width="0.5"/><polygon points="379.8,368.2 369.7,360.4 382.4,338.6 387.0,338.2 401.7,358.9 398.2,363.6" fill="#345631" stroke="#345631" stroke-width="0.5"/><polygon points="401.7,358.9 387.0,338.2 399.6,325.0 409.7,328.7 416.3,340.5 410.1,356.6" fill="#345631" stroke="#345631" stroke-width="0.5"/><polygon points="410.1,356.6 416.3,340.5 435.3,339.8 440.4,353.5 430.6,366.0 426.2,367.2" fill="#345631" stroke="#345631" stroke-width="0.5"/><polygon points="440.4,353.5 435.3,339.8 439.0,332.5 463.2,327.7 465.9,351.4 458.0,356.0" fill="#345631" stroke="#345631" stroke-width="0.5"/><polygon points="465.9,351.4 463.8,333.3 481.5,327.1 495.7,335.4 478.7,356.6" fill="#3d7ea6" stroke="#3d7ea6" stroke-width="0.5"/><polygon points="482.8,363.6 478.7,356.6 495.7,335.4 499.3,334.8 507.0,339.9 513.3,368.7" fill="#1f4e6b" stroke="#1f4e6b" stroke-width="0.5"/><polygon points="511.4,360.0 507.0,339.9 525.2,333.2 539.1,347.1 537.5,358.8 536.0,360.0" fill="#1f4e6b" stroke="#1f4e6b" stroke-width="0.5"/><polygon points="538.9,347.2 549.9,322.6 570.2,339.4" fill="#1f4e6b" stroke="#1f4e6b" stroke-width="0.5"/><polygon points="576.0,341.0 576.0,356.3 552.9,364.8 537.5,358.8 539.1,347.2 570.2,339.4" fill="#1f4e6b" stroke="#1f4e6b" stroke-width="0.5"/><polygon points="0.0,389.1 0.0,356.7 13.5,357.3 19.8,364.0" fill="#1f4e6b" stroke="#1f4e6b" stroke-width="0.5"/><polygon points="22.8,364.3 40.9,342.3 42.9,343.1 52.6,364.6 37.7,377.5" fill="#1f4e6b" stroke="#1f4e6b" stroke-width="0.5"/><polygon points="72.3,396.0 38.4,396.0 37.7,377.5 52.6,364.6 65.9,366.1" fill="#1f4e6b" stroke="#1f4e6b" stroke-width="0.5"/><polygon points="94.9,396.0 72.3,396.0 65.9,366.1 73.5,358.5 89.3,356.2" fill="#1f4e6b" stroke="#1f4e6b" stroke-width="0.5"/><polygon points="98.7,396.0 94.9,396.0 89.6,358.5 103.3,354.9 115.6,364.5" fill="#1f4e6b" stroke="#1f4e6b" stroke-width="0.5"/><polygon points="131.8,396.0 98.7,396.0 115.6,364.5 130.5,364.5" fill="#1f4e6b" stroke="#1f4e6b" stroke-width="0.5"/><polygon points="160.2,396.0 131.8,396.0 130.5,365.0 149.2,363.3 157.0,368.3" fill="#3d7ea6" stroke="#3d7ea6" stroke-width="0.5"/><polygon points="182.5,396.0 160.2,396.0 157.0,368.3 176.6,358.3 186.7,362.3" fill="#7c774d" stroke="#7c774d" stroke-width="0.5"/><polygon points="217.5,396.0 182.5,396.0 186.7,362.3 193.3,359.8 218.0,384.5" fill="#6a6642" stroke="#6a6642" stroke-width="0.5"/><polygon points="218.0,384.5 193.3,359.8 201.8,349.0 212.9,349.9 227.7,367.4" fill="#6a6642" stroke="#6a6642" stroke-width="0.5"/><polygon points="255.2,396.0 217.5,396.0 218.0,384.5 227.7,367.4 236.6,364.0 254.7,376.4" fill="#546f46" stroke="#546f46" stroke-width="0.5"/><polygon points="236.6,364.0 241.8,350.0 259.2,348.5 266.3,364.8 254.7,376.4" fill="#6a6642" stroke="#6a6642" stroke-width="0.5"/><polygon points="287.0,396.0 255.2,396.0 254.7,376.4 266.3,364.8 281.7,365.6" fill="#546f46" stroke="#546f46" stroke-width="0.5"/><polygon points="309.7,396.0 287.0,396.0 281.7,365.6 288.3,359.0 311.0,361.1" fill="#89b572" stroke="#89b572" stroke-width="0.5"/><polygon points="345.4,396.0 309.7,396.0 311.0,360.5 330.2,360.0 345.7,387.7" fill="#6098b8" stroke="#6098b8" stroke-width="0.5"/><polygon points="345.7,387.7 330.2,360.0 338.5,350.3 351.2,347.5 363.5,360.3" fill="#52874d" stroke="#52874d" stroke-width="0.5"/><polygon points="378.8,396.0 345.4,396.0 345.7,387.7 363.5,360.3 369.7,360.4 379.8,368.2" fill="#4c7e47" stroke="#4c7e47" stroke-width="0.5"/><polygon points="406.5,396.0 378.8,396.0 379.8,368.2 398.2,363.6" fill="#6098b8" stroke="#6098b8" stroke-width="0.5"/><polygon points="415.8,396.0 406.5,396.0 398.2,363.6 401.7,358.9 410.1,356.6 426.2,367.2" fill="#8f8366" stroke="#8f8366" stroke-width="0.5"/><polygon points="457.6,396.0 415.8,396.0 426.2,367.2 430.6,366.0 454.1,386.1" fill="#3d7ea6" stroke="#3d7ea6" stroke-width="0.5"/><polygon points="454.1,386.1 430.6,366.0 440.4,353.5 458.0,356.0" fill="#3d7ea6" stroke="#3d7ea6" stroke-width="0.5"/><polygon points="471.4,396.0 457.6,396.0 454.1,386.1 458.0,356.0 465.9,351.4 478.7,356.6 482.8,363.6" fill="#3d7ea6" stroke="#3d7ea6" stroke-width="0.5"/><polygon points="510.3,396.0 471.4,396.0 482.8,363.6 505.3,367.3" fill="#1f4e6b" stroke="#1f4e6b" stroke-width="0.5"/><polygon points="530.8,396.0 510.3,396.0 504.0,360.0 536.0,360.0" fill="#1f4e6b" stroke="#1f4e6b" stroke-width="0.5"/><polygon points="558.6,396.0 530.8,396.0 536.0,360.0 537.5,358.8 552.9,364.8" fill="#1f4e6b" stroke="#1f4e6b" stroke-width="0.5"/><polygon points="576.0,356.3 576.0,396.0 558.6,396.0 552.9,364.8" fill="#1f4e6b" stroke="#1f4e6b" stroke-width="0.5"/><polygon points="38.4,396.0 0.0,396.0 0.0,389.1 19.8,364.0 22.8,364.3 37.7,377.5" fill="#1f4e6b" stroke="#1f4e6b" stroke-width="0.5"/></g><path d="M117.7,10.9 L115.1,0.0 M420.8,0.0 L420.8,19.5 M119.4,36.4 L110.6,21.5 M110.6,21.5 L117.7,10.9 M119.3,38.1 L119.4,36.4 M419.4,19.8 L424.1,39.6 M110.5,53.5 L111.5,47.1 M111.5,47.1 L119.3,38.1 M424.1,39.6 L442.4,39.6 M442.4,39.6 L447.9,47.1 M447.9,47.1 L448.0,55.3 M86.5,81.7 L86.5,60.2 M86.5,60.2 L105.3,59.8 M105.3,59.8 L110.5,53.5 M448.0,55.3 L454.8,62.0 M454.8,62.0 L454.9,62.6 M454.9,62.6 L468.1,78.6 M468.1,78.6 L462.2,86.9 M67.3,101.7 L66.2,85.8 M66.2,85.8 L86.5,81.7 M462.2,86.9 L465.8,101.5 M69.6,122.1 L66.0,101.6 M399.8,119.0 L386.5,129.0 M425.8,120.1 L414.4,125.8 M414.4,125.8 L399.8,119.0 M436.6,124.0 L425.8,120.1 M465.8,101.5 L469.0,103.8 M469.0,103.8 L483.8,101.2 M483.8,101.2 L489.5,105.2 M489.5,105.2 L491.7,125.0 M70.1,140.3 L67.1,127.0 M67.1,127.0 L69.6,122.1 M386.5,129.0 L405.9,147.1 M437.2,139.1 L436.6,124.0 M488.8,125.2 L490.8,144.6 M490.8,144.6 L482.9,151.5 M68.1,164.9 L65.7,146.2 M65.7,146.2 L70.1,140.3 M405.9,147.1 L411.3,146.0 M411.3,146.0 L417.4,149.1 M417.4,149.1 L437.2,139.1 M482.9,151.5 L482.6,164.6 M69.8,183.7 L66.5,164.9 M483.5,166.1 L509.3,169.5 M509.3,169.5 L506.9,186.4 M45.1,191.5 L65.0,190.1 M60.0,213.3 L45.1,191.5 M65.0,190.1 L69.8,183.7 M506.9,186.4 L512.3,192.3 M512.3,192.3 L509.6,213.7 M57.2,222.5 L60.0,213.3 M67.5,230.2 L57.2,222.5 M506.2,212.4 L504.9,228.8 M68.6,245.0 L67.5,230.2 M505.5,228.7 L510.7,249.5 M510.7,249.5 L507.8,253.0 M507.8,253.0 L492.6,254.0 M61.5,255.0 L68.6,245.0 M77.6,270.3 L61.5,255.0 M83.1,277.2 L78.4,274.3 M78.4,274.3 L77.6,270.3 M492.6,254.0 L489.6,266.5 M88.4,301.2 L83.1,277.2 M95.9,300.5 L88.4,301.2 M491.7,292.2 L489.0,298.3 M489.6,266.5 L509.2,277.4 M509.2,277.4 L509.2,285.7 M509.2,285.7 L491.7,292.2 M108.8,309.2 L95.9,300.5 M110.6,315.8 L108.8,309.2 M489.0,298.3 L490.2,306.3 M490.2,306.3 L481.5,315.0 M102.0,329.0 L110.6,315.8 M130.5,338.5 L108.4,339.7 M108.4,339.7 L102.0,329.0 M481.5,315.0 L481.5,327.1 M481.5,327.1 L459.0,335.0 M129.9,365.0 L129.7,337.5 M149.2,363.3 L129.9,365.0 M157.0,368.3 L149.2,363.3 M440.4,353.5 L430.6,366.0 M430.6,366.0 L426.2,367.2 M463.2,327.7 L465.9,351.4 M465.9,351.4 L458.0,356.0 M458.0,356.0 L440.4,353.5 M160.2,396.0 L157.0,368.3 M426.2,367.2 L415.8,396.0" fill="none" stroke="#283640" stroke-width="2.0" stroke-linecap="round"/><g opacity="0.9"><path d="M367.7,132.4 L390.6,145.8" fill="none" stroke="#4a82af" stroke-width="2.5" stroke-linecap="round" stroke-linejoin="round"/><path d="M271.1,379.1 L296.2,374.7" fill="none" stroke="#4a82af" stroke-width="2.2" stroke-linecap="round" stroke-linejoin="round"/><path d="M238.5,379.8 L271.1,379.1" fill="none" stroke="#4a82af" stroke-width="2.2" stroke-linecap="round" stroke-linejoin="round"/><path d="M230.4,109.8 L234.0,81.0" fill="none" stroke="#4a82af" stroke-width="2.2" stroke-linecap="round" stroke-linejoin="round"/><path d="M227.6,351.0 L238.5,379.8" fill="none" stroke="#4a82af" stroke-width="2.1" stroke-linecap="round" stroke-linejoin="round"/><path d="M369.0,114.8 L367.7,132.4" fill="none" stroke="#4a82af" stroke-width="2.0" stroke-linecap="round" stroke-linejoin="round"/><path d="M214.5,127.5 L230.4,109.8" fill="none" stroke="#4a82af" stroke-width="2.0" stroke-linecap="round" stroke-linejoin="round"/><path d="M362.2,99.0 L369.0,114.8" fill="none" stroke="#4a82af" stroke-width="1.9" stroke-linecap="round" stroke-linejoin="round"/><path d="M222.4,153.0 L214.5,127.5" fill="none" stroke="#4a82af" stroke-width="1.8" stroke-linecap="round" stroke-linejoin="round"/><path d="M229.5,322.9 L227.6,351.0" fill="none" stroke="#4a82af" stroke-width="1.8" stroke-linecap="round" stroke-linejoin="round"/><path d="M459.0,261.0 L480.6,259.2" fill="none" stroke="#4a82af" stroke-width="1.7" stroke-linecap="round" stroke-linejoin="round"/><path d="M229.5,301.5 L229.5,322.9" fill="none" stroke="#4a82af" stroke-width="1.7" stroke-linecap="round" stroke-linejoin="round"/><path d="M367.5,73.5 L362.2,99.0" fill="none" stroke="#4a82af" stroke-width="1.6" stroke-linecap="round" stroke-linejoin="round"/><path d="M430.2,261.0 L459.0,261.0" fill="none" stroke="#4a82af" stroke-width="1.6" stroke-linecap="round" stroke-linejoin="round"/><path d="M363.6,52.2 L367.5,73.5" fill="none" stroke="#4a82af" stroke-width="1.5" stroke-linecap="round" stroke-linejoin="round"/><path d="M402.4,252.0 L430.2,261.0" fill="none" stroke="#4a82af" stroke-width="1.5" stroke-linecap="round" stroke-linejoin="round"/><path d="M383.4,259.2 L402.4,252.0" fill="none" stroke="#4a82af" stroke-width="1.5" stroke-linecap="round" stroke-linejoin="round"/><path d="M343.5,46.5 L363.6,52.2" fill="none" stroke="#4a82af" stroke-width="1.4" stroke-linecap="round" stroke-linejoin="round"/><path d="M373.5,148.5 L390.6,145.8" fill="none" stroke="#4a82af" stroke-width="1.4" stroke-linecap="round" stroke-linejoin="round"/><path d="M329.1,24.4 L343.5,46.5" fill="none" stroke="#4a82af" stroke-width="1.3" stroke-linecap="round" stroke-linejoin="round"/><path d="M357.8,162.0 L373.5,148.5" fill="none" stroke="#4a82af" stroke-width="1.3" stroke-linecap="round" stroke-linejoin="round"/><path d="M216.0,175.5 L222.4,153.0" fill="none" stroke="#4a82af" stroke-width="1.3" stroke-linecap="round" stroke-linejoin="round"/><path d="M345.6,151.2 L367.7,132.4" fill="none" stroke="#4a82af" stroke-width="1.2" stroke-linecap="round" stroke-linejoin="round"/><path d="M101.6,171.0 L79.2,176.4" fill="none" stroke="#4a82af" stroke-width="1.2" stroke-linecap="round" stroke-linejoin="round"/><path d="M240.4,171.0 L222.4,153.0" fill="none" stroke="#4a82af" stroke-width="1.2" stroke-linecap="round" stroke-linejoin="round"/><path d="M250.5,186.0 L240.4,171.0" fill="none" stroke="#4a82af" stroke-width="1.1" stroke-linecap="round" stroke-linejoin="round"/><path d="M391.5,171.0 L390.6,145.8" fill="none" stroke="#4a82af" stroke-width="1.1" stroke-linecap="round" stroke-linejoin="round"/><path d="M212.4,286.2 L229.5,301.5" fill="none" stroke="#4a82af" stroke-width="1.1" stroke-linecap="round" stroke-linejoin="round"/></g></svg>